<svg xmlns="http://www.w3.org/2000/svg" xmlns:xlink="http://www.w3.org/1999/xlink" version="1.1" id="Layer_1" x="0px" y="0px" width="31px" height="27px" viewBox="0 0 31 27" enable-background="new 0 0 31 27" xml:space="preserve"><g><g><g><path fill="#3C9D47" d="M31 25c0 1.101-0.9 2-2 2H2c-1.1 0-2-0.899-2-2V2c0-1.1 0.9-2 2-2h27c1.1 0 2 0.9 2 2V25z"/></g><g opacity="0.9"><path fill="#FFFFFF" d="M28 22c0 1.101-0.9 2-2 2H5c-1.1 0-2-0.899-2-2V5c0-1.1 0.9-2 2-2h21c1.1 0 2 0.9 2 2V22z"/></g></g><path fill="#3C9D47" d="M23.23 17.103c-2.094 0.009-5.262 0.093-6.953 1.064v-0.501v-7.91c0-0.742 1.222-2.201 6.953-2.256V17.103z M7.781 7.532c0.579 0 6.7 0.7 6.9 2.009c0.023 0.1 0 0.2 0 0.2v7.91v0.501c-1.691-0.974-4.859-1.058-6.952-1.064V7.532H7.781z M15.552 9.51c0-2.819-6.496-3.137-9.315-3.137v1.128v10.166v1.064h0.966h0.579v1.189c2.317 0 6.952-0.679 7 1.129h1.545 c0-1.808 4.634-1.129 6.952-1.129v-1.189h1.352h0.193V6.373C21.957 6.4 15.6 6.7 15.6 9.51H15.552z"/></g></svg>