<svg xmlns="http://www.w3.org/2000/svg" xmlns:xlink="http://www.w3.org/1999/xlink" version="1.1" id="Layer_1" x="0px" y="0px" width="31px" height="27px" viewBox="0 0 31 27" enable-background="new 0 0 31 27" xml:space="preserve"><g><g><g><path fill="#2D2C83" d="M31 25c0 1.101-0.9 2-2 2H2c-1.1 0-2-0.899-2-2V2c0-1.1 0.9-2 2-2h27c1.1 0 2 0.9 2 2V25z"/></g><g opacity="0.9"><path fill="#FFFFFF" d="M28 22c0 1.101-0.9 2-2 2H5c-1.1 0-2-0.899-2-2V5c0-1.1 0.9-2 2-2h21c1.1 0 2 0.9 2 2V22z"/></g></g><path fill="#2D2C83" d="M9.615 20.045V8.929h-1.02C7.771 9 7 9.7 7 10.557v7.834c0 1 0.6 1.7 1.4 1.653H9.615z M21.385 20.045h1.184c0.812 0 1.433-0.616 1.433-1.653v-7.834c0-0.929-0.771-1.628-1.597-1.628h-1.02V20.045z M18.115 8.929V7.601 c0-0.451-0.328-0.636-0.615-0.636h-3.308c-0.432 0-0.654 0.223-0.654 0.674v1.289h-2.615v11.116h9.153V8.929H18.115z M17.461 8.9 h-3.269V7.62h3.269V8.929z"/></g></svg>