<svg xmlns="http://www.w3.org/2000/svg" xmlns:xlink="http://www.w3.org/1999/xlink" version="1.1" id="Layer_1" x="0px" y="0px" width="31px" height="27px" viewBox="0 0 31 27" enable-background="new 0 0 31 27" xml:space="preserve"><g><g><g><path fill="#7AC143" d="M31 25c0 1.101-0.9 2-2 2H2c-1.1 0-2-0.899-2-2V2c0-1.1 0.9-2 2-2h27c1.1 0 2 0.9 2 2V25z"/></g><g opacity="0.9"><path fill="#FFFFFF" d="M28 22c0 1.101-0.9 2-2 2H5c-1.1 0-2-0.899-2-2V5c0-1.1 0.9-2 2-2h21c1.1 0 2 0.9 2 2V22z"/></g></g><g><path fill="#7AC143" d="M10.091 15.946c-0.448 2.206-1.181 4.07-2.87 5.718h4.851c1.688-1.646 2.421-3.512 2.869-5.718H10.091z"/><path fill="#7AC143" d="M15.91 15.946c0.447 2.2 1.2 4.1 2.9 5.718h0.371h4.748c-1.689-1.646-2.423-3.512-2.871-5.718H15.91z"/><g><path fill="#7AC143" d="M18.43 6.418c0 0 0 2.2 0 2.207c-0.095 0-0.187 0.027-0.316 0v0.316c1.578 0 2.523-0.631 2.523-2.208 C19.539 7.3 19.3 6.9 18.4 6.418H18.43z"/></g><g><path fill="#7AC143" d="M15.928 8.969v-0.99c0.63-0.598 1.6 0 2.2 0.016V5.156c-0.801-0.43-1.494-0.726-2.523-0.315h-0.314 v2.721h-0.03v1.406L15.928 8.969L15.928 8.969z"/><path fill="#7AC143" d="M16.115 9.68h-1.058c-1.138 2.515-3.279 3.441-8.504 5.265h10.7h1.067h6.298 C19.395 13.1 17.3 12.2 16.1 9.68H16.115z"/></g></g></g></svg>