<svg xmlns="http://www.w3.org/2000/svg" xmlns:xlink="http://www.w3.org/1999/xlink" version="1.1" id="Layer_1" x="0px" y="0px" width="31px" height="27px" viewBox="0 0 31 27" enable-background="new 0 0 31 27" xml:space="preserve"><g><g><g><g><path fill="#9E2273" d="M31 25c0 1.101-0.9 2-2 2H2c-1.1 0-2-0.899-2-2V2c0-1.1 0.9-2 2-2h27c1.1 0 2 0.9 2 2V25z"/></g><g opacity="0.9"><path fill="#FFFFFF" d="M28 22c0 1.101-0.9 2-2 2H5c-1.1 0-2-0.899-2-2V5c0-1.1 0.9-2 2-2h21c1.1 0 2 0.9 2 2V22z"/></g></g></g><g><path fill="#9E2273" d="M22.643 9.191c0 1.971-1.307 3.241-2.918 3.2c-1.611 0-2.92-1.271-2.92-3.241 c0-1.972 1.309-3.899 2.92-3.899c1.611 0 3 1.9 3 3.94H22.643z"/><path fill="#9E2273" d="M9.487 11.944l-0.242 8.375c0 0.8 0.6 1.4 1.4 1.4c0.769 0 1.389-0.619 1.389-1.39l-0.266-8.375 c0.509 0 1.192-0.418 1.192-0.926v-0.938V5.46h-0.926v3.705h-0.926V5.46h-0.937v3.705H9.245V5.46H8.319v4.631v0.926 c0 0.6 0.7 1 1.2 0.927H9.487z"/><path fill="#9E2273" d="M18.627 11.98l-0.291 8.339c0 0.8 0.6 1.4 1.4 1.4c0.799 0 1.389-0.619 1.389-1.39l-0.25-8.339h-2.248 V11.98z"/></g></g></svg>