<svg xmlns="http://www.w3.org/2000/svg" xmlns:xlink="http://www.w3.org/1999/xlink" version="1.1" id="Layer_1" x="0px" y="0px" width="31px" height="27px" viewBox="0 0 31 27" enable-background="new 0 0 31 27" xml:space="preserve"><g><path fill="#F0527B" d="M31 25c0 1.101-0.9 2-2 2H2c-1.1 0-2-0.899-2-2V2c0-1.1 0.9-2 2-2h27c1.1 0 2 0.9 2 2V25z"/></g><g opacity="0.9"><path fill="#FFFFFF" d="M28 22c0 1.101-0.9 2-2 2H5c-1.1 0-2-0.899-2-2V5c0-1.1 0.9-2 2-2h21c1.1 0 2 0.9 2 2V22z"/></g><g><g><circle fill="#F0527B" cx="8.8" cy="8" r="1.4"/></g></g><g><g><circle fill="#F0527B" cx="22" cy="8" r="1.4"/></g></g><path fill="#F0527B" d="M22.035 11.449c0.515 0.8 1.1 1.6 1.2 1.794l0.342 0.502l0.396-0.462l2.314-2.7l-0.885-0.364 l-1.742 2.032c-0.659-0.973-1.433-2.159-1.559-2.413l-0.021 0.01C22.001 9.7 21.9 9.7 21.8 9.65l-1.187-0.258 c-0.166-0.038-0.334-0.006-0.477 0.084c-0.046 0.03-0.08 0.072-0.116 0.112c-0.783 0.336-1.898 0.812-1.884 0.812l-2.542 0.9 l-2.629-0.854c0.018 0.006-1.459-0.604-2.216-0.917c-0.008-0.005-0.013-0.015-0.021-0.02c-0.142-0.09-0.31-0.122-0.475-0.084 L9.025 9.65C8.894 9.7 8.8 9.8 8.7 9.853L8.669 9.838c-0.125 0.228-0.929 1.427-1.597 2.412l-1.741-2.031l-0.885 0.4 l2.315 2.7l0.395 0.462l0.342-0.502c0.109-0.161 0.731-1.073 1.255-1.859l0.592 2.715L7.9 17.472v0.101v0.1l0.458 3.115L7.4 21.5 h1.4l0.6-0.1l-0.1-0.5l-0.466-3.078l1.331-3.106c0.001 0 0 0 0 0l1.187-0.26c0.165-0.035 0.306-0.132 0.397-0.273 c0.01-0.016 0.015-0.032 0.024-0.047c0 0 0.043-0.308 0.011-0.453l-0.65-2.975l1.469 0.607c0.023 0 2.8 0.8 2.8 0.835l0.108-0.396 l0.122 0.419c0-0.024 2.769-0.892 2.791-0.9l1.207-0.52l-0.521 2.393l-0.018-0.006l-4.5 3.357c0 0 1.1 0.5 2.7 0.9 l-1.117 3.128L16.2 20.472v0.075l-0.013 0.009l-0.004-0.072l-0.806 0.475L14.6 20.499v-0.027l-0.042-0.021l-1.221-3.411 l-0.012-0.033l-0.017-0.031l-1.403-2.572c-0.136 0.163-0.319 0.278-0.529 0.323l-0.316 0.07l1.415 2.593l-0.013-0.035l0.031 0.1 l-0.018-0.03l1.245 3.479l0.109 0.3h0.328h0.862h0.715h0.863h0.327l0.109-0.3l1.198-3.35c1.151 0.2 2.4 0.3 3.7 0.2 l0.037 0.086L21.5 20.872l-0.1 0.5l0.5 0.1H23.3l-0.86-0.662l0.461-3.138v-0.1v-0.031c0.305-0.072 0.605-0.158 0.896-0.272 c-0.826-1.029-1.506-1.832-2.021-2.425l-0.318-0.741L22.035 11.449z M14.157 20.248l0.048 0.028l0.111 0.083L14.157 20.248z M16.573 20.285l-0.066 0.034l0.12-0.071L16.573 20.285z"/></svg>