<svg xmlns="http://www.w3.org/2000/svg" xmlns:xlink="http://www.w3.org/1999/xlink" version="1.1" id="Layer_1" x="0px" y="0px" width="31px" height="27px" viewBox="0 0 31 27" enable-background="new 0 0 31 27" xml:space="preserve"><g><g><g><path fill="#D62427" d="M31 24.999c0 1.1-0.9 2-2 2H2c-1.1 0-2-0.9-2-2V2c0-1.1 0.9-2 2-2h27c1.1 0 2 0.9 2 2V24.999z"/></g><g opacity="0.9"><path fill="#FFFFFF" d="M28 21.999c0 1.1-0.9 2-2 2H5c-1.1 0-2-0.9-2-2V5c0-1.1 0.9-2 2-2h21c1.1 0 2 0.9 2 2V21.999z"/></g></g><g><path fill="#D62427" d="M20.352 14.984c0 0.931-0.393 1.729-1.174 2.396s-1.82 1.045-3.113 1.133v2.998h-1.437v-2.949 c-0.616-0.006-1.33-0.08-2.14-0.223c-0.81-0.145-1.442-0.322-1.899-0.537v-2.411h0.371c0.508 0.3 1.1 0.5 1.7 0.7 c0.659 0.2 1.3 0.3 2 0.322v-2.264l-0.801-0.183c-0.508-0.115-0.974-0.251-1.4-0.404c-0.428-0.154-0.794-0.358-1.104-0.611 c-0.309-0.253-0.548-0.566-0.718-0.938c-0.171-0.372-0.257-0.83-0.257-1.376c0-0.82 0.375-1.522 1.124-2.106 c0.748-0.583 1.788-0.937 3.114-1.057V5.511h1.437v1.908c0.508 0 1.1 0.1 1.8 0.2c0.68 0.1 1.2 0.3 1.6 0.421v2.379h-0.363 c-0.393-0.227-0.846-0.413-1.363-0.562c-0.517-0.149-1.069-0.243-1.66-0.281v2.099l0.66 0.1c1.244 0.2 2.2 0.6 2.7 1.1 c0.629 0.5 1 1.2 1 2.106H20.352z M14.76 11.508V9.591c-0.363 0.028-0.689 0.12-0.979 0.3 c-0.29 0.157-0.435 0.379-0.435 0.665c0 0.3 0.1 0.5 0.3 0.6c0.169 0.1 0.6 0.2 1.2 0.375H14.76z M17.354 15.3 c0-0.319-0.147-0.559-0.442-0.715c-0.295-0.158-0.586-0.258-0.879-0.303v2.049c0.362-0.05 0.674-0.155 0.934-0.317 c0.259-0.15 0.435-0.45 0.435-0.714H17.354z"/></g></g></svg>