<svg xmlns="http://www.w3.org/2000/svg" xmlns:xlink="http://www.w3.org/1999/xlink" version="1.1" id="Layer_1" x="0px" y="0px" width="31px" height="27px" viewBox="0 0 31 27" enable-background="new 0 0 31 27" xml:space="preserve"><g><g><path fill="#2987BC" d="M31 24.998c0 1.1-0.9 2-2 2H2c-1.1 0-2-0.9-2-2V2c0-1.1 0.9-2 2-2h27c1.1 0 2 0.9 2 2V24.998z"/></g><g opacity="0.9"><path fill="#FFFFFF" d="M28 21.998c0 1.1-0.9 2-2 2H5c-1.1 0-2-0.9-2-2V4.999c0-1.1 0.9-2 2-2h21c1.1 0 2 0.9 2 2V21.998z"/></g><path fill="#2987BC" d="M24.443 16.891c-0.647-0.314-1.592-1.1-3.01-1.357c0.358-0.419 0.64-1.061 0.922-1.822 c0.154-0.441 0.121-0.821 0.121-1.355c0-0.404 0.078-1.029-0.022-1.379c-0.304-1.181-1.097-1.508-2.021-1.508 c-0.927 0-1.72 0.327-2.023 1.508c-0.092 0.35-0.023 0.99-0.023 1.4c0 0.534-0.029 0.9 0.1 1.355c0.279 0.8 0.5 1.4 0.9 1.8 c-0.451 0.082-0.854 0.228-1.215 0.399c1.389 0.6 2.4 1.4 3.2 1.737c1.312 0.6 1.8 1.3 2 1.723h1.419 c0.602 0 0.98-0.496 0.98-0.945V18.25c0.013-0.079 0.028-0.779-1.371-1.359H24.443z M19.873 17.6 c-1.029-0.51-2.508-1.774-4.732-2.193c0.557-0.677 1-1.715 1.439-2.941c0.246-0.724 0.199-1.333 0.199-2.187 c0-0.663 0.121-1.668-0.039-2.24c-0.479-1.905-1.72-2.43-3.168-2.43c-1.463 0-2.705 0.525-3.185 2.4 c-0.138 0.572-0.038 1.601-0.038 2.2c0 0.854-0.047 1.5 0.2 2.187c0.443 1.2 0.9 2.3 1.4 2.9 C9.809 15.9 8.3 17.2 7.3 17.671c-2.087 1.007-2.087 2.127-2.087 2.127v0.418c0 0.7 0.8 1.5 1.5 1.464h13.676 c0.951 0 1.547-0.8 1.547-1.522v-0.358c0.041-0.027 0.064-1.128-2.035-2.15H19.873z"/></g></svg>