<svg xmlns="http://www.w3.org/2000/svg" xmlns:xlink="http://www.w3.org/1999/xlink" version="1.1" id="Layer_1" x="0px" y="0px" width="31px" height="27px" viewBox="0 0 31 27" enable-background="new 0 0 31 27" xml:space="preserve"><g><g><g><path fill="#FBC217" d="M31 25c0 1.101-0.9 2-2 2H2c-1.1 0-2-0.899-2-2V2c0-1.1 0.9-2 2-2h27c1.1 0 2 0.9 2 2V25z"/></g><g opacity="0.9"><path fill="#FFFFFF" d="M28 22c0 1.101-0.9 2-2 2H5c-1.1 0-2-0.899-2-2V5c0-1.1 0.9-2 2-2h21c1.1 0 2 0.9 2 2V22z"/></g></g><path fill="#FBC217" d="M9.719 20.772c-1.716 0-3.119-1.396-3.119-3.112c0-1.718 1.403-3.114 3.119-3.114 c1.717 0 3.1 1.4 3.1 3.114c0.014 1.712-1.419 3.112-3.119 3.112H9.719z M5.894 17.672c0 2.1 1.7 3.8 3.8 3.8 c2.109 0 3.826-1.709 3.826-3.818s-1.717-3.819-3.826-3.819C7.611 13.9 5.9 15.6 5.9 17.66L5.894 17.672z M20.979 20.8 c-1.717 0-3.121-1.396-3.121-3.113s1.404-3.112 3.121-3.112c1.715 0 3.1 1.4 3.1 3.112c0 1.712-1.386 3.076-3.079 3.1 H20.979z M17.152 17.695c0 2.1 1.7 3.8 3.8 3.8c2.106 0 3.823-1.709 3.823-3.818c0-2.107-1.717-3.811-3.823-3.811 c-2.083 0.006-3.752 1.706-3.752 3.829H17.152z M17.16 8.372c0.793 0 1.439-0.64 1.439-1.433s-0.646-1.433-1.439-1.433 s-1.441 0.647-1.441 1.433c0 0.8 0.7 1.4 1.5 1.44L17.16 8.372z M17.219 12.06h2.785c0.857 0 0.857-1.455 0-1.455h-2.4 L16.025 8.14c0 0-0.333-0.422-0.975-0.422c0 0-0.523-0.066-0.901 0.4l-3.048 3.04c-0.188 0.211-0.305 0.494-0.305 0.8 c0 0.5 0.4 0.8 0.7 1.055l3.098 1.717v3.229c0 0.5 0.3 0.8 0.7 0.836c0.458 0 0.721-0.379 0.721-0.836v-4.037 c0 0 0.108-0.641-0.625-0.997l-1.688-0.938l1.928-1.905l0.931 1.462c0.229 0.2 0.4 0.5 0.6 0.516H17.219z"/></g></svg>