<svg xmlns="http://www.w3.org/2000/svg" xmlns:xlink="http://www.w3.org/1999/xlink" version="1.1" id="Layer_1" x="0px" y="0px" width="31px" height="27px" viewBox="0 0 31 27" enable-background="new 0 0 31 27" xml:space="preserve"><g><g><g><path fill="#F47821" d="M31 25c0 1.101-0.9 2-2 2H2c-1.1 0-2-0.899-2-2V2c0-1.1 0.9-2 2-2h27c1.1 0 2 0.9 2 2V25z"/></g><g opacity="0.9"><path fill="#FFFFFF" d="M28 22c0 1.101-0.9 2-2 2H5c-1.1 0-2-0.899-2-2V5c0-1.1 0.9-2 2-2h21c1.1 0 2 0.9 2 2V22z"/></g></g><g><g><path fill="#F47821" d="M19.787 15.822c2.221-2.565 6.381-7.642 5.654-8.271c-0.746-0.647-5.43 3.922-7.805 6.305L19.787 15.822z "/><path fill="#F47821" d="M17.268 14.227c-0.524 0.53-0.848 0.867-0.848 0.899l2.199 2.062c0 0 0.32-0.359 0.82-0.937 L17.268 14.227z"/></g><path fill="#F47821" d="M11.681 21.57c7.26 0.8 6.159-3.662 6.159-3.662l-2.19-2.013c0 0-1.523 0.098-1.955 1.3 c-0.877 2.317-0.295 4.618-1.995 4.416H11.681z"/></g><path fill="#F47821" d="M6.401 7.684l2.047 5.437c-0.039-0.106-0.663-0.229-0.993-0.104c-1.188 0.446-1.357 1.465-1.2 1.9 c0.314 0.8 1.1 1.5 2.3 1.042c1.122-0.421 1.191-1.618 1.043-2.302L8.025 9.459l4.284-2.568l1.575 4.2 c-0.04-0.104-0.665-0.228-0.995-0.104c-1.183 0.446-1.356 1.467-1.199 1.885c0.314 0.8 1.1 1.5 2.3 1 c1.12-0.422 1.186-1.616 1.042-2.302l-2.677-7.108L6.401 7.684z"/></g></svg>