<svg xmlns="http://www.w3.org/2000/svg" xmlns:xlink="http://www.w3.org/1999/xlink" version="1.1" id="Layer_1" x="0px" y="0px" width="31px" height="27px" viewBox="0 0 31 27" enable-background="new 0 0 31 27" xml:space="preserve"><g><g><g><path fill="#602773" d="M31 25.002c0 1.1-0.9 2-2 2H2c-1.1 0-2-0.9-2-2V2c0-1.1 0.9-2 2-2h27c1.1 0 2 0.9 2 2V25.002z"/></g><g opacity="0.9"><path fill="#FFFFFF" d="M28 22c0 1.1-0.9 2-2 2H5c-1.1 0-2-0.9-2-2V5c0-1.1 0.9-2 2-2h21c1.1 0 2 0.9 2 2V22z"/></g></g><path fill="#602773" d="M13.043 20.262L11.186 21.5h3.713h1.238h3.711l-1.854-1.238h-1.856v-3.713l6.807-6.806h-5.396L17.882 8.5 l0.111 0.006c0.681 0 1.237-0.558 1.237-1.237c0-0.495-0.291-0.929-0.719-1.126l0.131-0.482L18.047 5.5L17.9 6 c-0.639 0.043-1.146 0.575-1.146 1.231c0 0.4 0.2 0.8 0.5 1.021l-0.391 1.454H8.093l6.806 6.806v3.714h-1.856V20.262z M14.898 15.311l-3.094-3.094h4.443l-0.762 2.846l0.594 0.162l0.805-3.008h2.345l-3.094 3.094H14.898z"/></g></svg>