<svg xmlns="http://www.w3.org/2000/svg" xmlns:xlink="http://www.w3.org/1999/xlink" version="1.1" id="Layer_1" x="0px" y="0px" width="98px" height="60px" viewBox="0 0 98 60" enable-background="new 0 0 98 60" xml:space="preserve"><g><g><path fill="#F89C1C" d="M28.052 37.567h8.515v10.512c-1.004 0.291-2.917 0.551-5.407 0.551c-10.357 0-16.789-6.683-16.789-17.441 c0-10.772 6.614-17.202 17.688-17.202c6.611 0 10.2 1.2 12.5 2.315l0.704 0.325l2.952-11.349l-0.496-0.228 c-2.846-1.294-8.434-2.677-15.579-2.677C12.708 2.4 0.1 13.9 0 31.841c0 8.3 2.8 15.7 7.9 20.6 C13.288 57.5 20.7 60 30.8 60c6.93 0 14.167-1.625 18.634-3.148l0.443-0.148V26.527H28.052V37.567z"/><polygon fill="#F89C1C" points="87.3,0 73.5,0 82.9,29.6 73.5,59.5 87.3,59.5 96.6,29.8 96.6,29.6"/><polygon fill="#F89C1C" points="78.8,29.6 69.6,0 55.7,0 65,29.6 55.7,59.5 69.6,59.5 78.8,29.8"/></g></g></svg>