<?xml version="1.0" encoding="utf-8"?>
<!-- Generator: Adobe Illustrator 17.0.2, SVG Export Plug-In . SVG Version: 6.00 Build 0)  -->
<!DOCTYPE svg PUBLIC "-//W3C//DTD SVG 1.1//EN" "http://www.w3.org/Graphics/SVG/1.1/DTD/svg11.dtd">
<svg version="1.1" id="Layer_1" xmlns="http://www.w3.org/2000/svg" xmlns:xlink="http://www.w3.org/1999/xlink" x="0px" y="0px"
	 width="365px" height="60px" viewBox="0 0 365 60" enable-background="new 0 0 365 60" xml:space="preserve">
<g>
	<path fill="#FFFFFF" d="M27.929,37.365h8.469v10.455c-0.997,0.289-2.905,0.546-5.379,0.546c-10.3,0-16.698-6.648-16.698-17.349
		c0-10.71,6.577-17.104,17.593-17.104c6.578,0,10.1,1.231,12.434,2.303l0.7,0.322l2.936-11.289L47.49,5.025
		c-2.832-1.287-8.389-2.663-15.494-2.663C12.64,2.361,0.08,13.865,0,31.67c0,8.269,2.817,15.548,7.936,20.498
		c5.308,5.051,12.752,7.506,22.757,7.506c6.891,0,14.09-1.616,18.529-3.128l0.438-0.149V26.382H27.929V37.365z"/>
	<path fill="#FFFFFF" d="M92.731,48.85V34.927c0-11.716-6.249-17.91-18.071-17.91c-8.562,0-14.248,2.806-15.787,3.666l-0.446,0.25
		l2.656,9.296l0.728-0.455c2.321-1.45,6.514-2.914,10.65-2.914c4.243,0,6.521,1.524,6.599,4.411
		c-14.863,0.162-23.368,5.926-23.368,15.87C55.692,53.375,60.428,60,69.203,60c4.558,0,8.493-1.533,11.205-4.342l0.634,3.447h12.498
		l-0.174-0.786C92.95,56.446,92.731,53.172,92.731,48.85z M73.438,49.996c-1.275,0-4.239-0.398-4.239-4.077
		c0-3.618,3.454-5.508,10.27-5.619v3.664c0,0.697-0.078,1.373-0.214,1.918C78.487,48.266,76.041,49.996,73.438,49.996z"/>
	<polygon fill="#FFFFFF" points="114.591,0 123.84,29.553 114.591,59.105 128.322,59.105 137.572,29.553 128.322,0 	"/>
	<polygon fill="#FFFFFF" points="110.578,0 96.847,0 106.096,29.553 96.847,59.105 110.578,59.105 119.826,29.553 	"/>
	<path fill="#FFFFFF" d="M162.155,17.099c-9.998,0-20.758,6.853-20.758,21.899c0,13.1,8.187,20.921,21.899,20.921
		c5.662,0,10.595-0.866,14.663-2.575l0.484-0.203l-1.871-9.63l-0.702,0.239c-3.393,1.16-6.718,1.676-10.783,1.676
		c-4.467,0-9.755-1.661-10.514-6.28h25.466l0.097-0.53c0.202-1.113,0.418-3.011,0.418-5.002
		C180.553,22.488,171.049,17.099,162.155,17.099z M167.756,33.384h-13.245c0.49-2.799,2.37-6.767,6.912-6.767
		C166.741,26.617,167.62,31.389,167.756,33.384z"/>
	<path fill="#FFFFFF" d="M205.499,36.961c-0.699,2.673-1.239,5.057-1.7,7.248c-0.512-2.406-1.054-4.735-1.776-7.265l-5.512-18.949
		h-14.843l14.966,41.11h13.278l15.301-41.11h-14.449L205.499,36.961z"/>
	<path fill="#FFFFFF" d="M246.591,17.099c-9.999,0-20.759,6.853-20.759,21.899c0,13.1,8.186,20.921,21.899,20.921
		c5.662,0,10.596-0.866,14.662-2.575l0.485-0.203l-1.869-9.63l-0.702,0.239c-3.395,1.16-6.721,1.676-10.785,1.676
		c-4.467,0-9.754-1.661-10.513-6.28h25.467l0.096-0.531c0.201-1.117,0.417-3.018,0.417-5.001
		C264.987,22.488,255.484,17.099,246.591,17.099z M245.858,26.617c5.319,0,6.2,4.772,6.335,6.767h-13.247
		C239.436,30.586,241.315,26.617,245.858,26.617z"/>
	<path fill="#FFFFFF" d="M295.281,17.099c-6.588,0-10.359,3.49-12.041,5.608l-0.485-4.712h-12.008l0.032,0.675
		c0.156,3.487,0.324,7.63,0.324,12.674v27.76h13.669V35.497c0-1.315,0.117-2.249,0.361-2.859c0.501-1.272,2.062-4.232,5.75-4.232
		c3.732,0,5.624,2.687,5.624,7.987v22.712h13.669V34.927C310.176,23.764,304.608,17.099,295.281,17.099z"/>
	<path fill="#FFFFFF" d="M333.463,7.045l-13.424,3.694v7.256h-5.293v10.411h5.293v15.64c0,5.739,1.178,9.747,3.608,12.263
		c2.292,2.295,5.871,3.61,9.821,3.61c3.172,0,6.391-0.43,8.204-1.097l0.427-0.158l-0.093-10.612l-0.775,0.165
		c-1.123,0.242-1.915,0.312-3.528,0.312c-2.685,0-4.239-1.04-4.239-6.356V28.407h8.875V17.995h-8.875V7.045z"/>
	<polygon fill="#FFFFFF" points="345.706,19.76 348.555,19.76 348.555,28.091 350.14,28.091 350.14,19.76 352.989,19.76 
		352.989,18.402 345.706,18.402 	"/>
	<path fill="#FFFFFF" d="M362.207,18.402l-2.77,7.708h-0.04l-2.691-7.708h-2.233v9.689h1.438v-4.711
		c0-1.052-0.037-2.179-0.112-3.381h0.053l2.81,8.093h1.398l2.909-8.078h0.053c-0.017,0.163-0.038,0.631-0.063,1.405
		c-0.024,0.772-0.036,1.4-0.036,1.882v4.791h1.524v-9.689H362.207z"/>
</g>
</svg>
