<svg xmlns="http://www.w3.org/2000/svg" xmlns:xlink="http://www.w3.org/1999/xlink" version="1.1" x="0px" y="0px" width="15px" height="26px" viewBox="0 0 15 26" enable-background="new 0 0 15 26" xml:space="preserve"><g><path fill="#FFFFFF" d="M8.255 26H6.873v-2.836c-1.871-0.209-3.267-0.617-4.188-1.225c-1.624-1.094-2.422-2.955-2.393-5.585h3.846 c0.133 1.2 0.3 2 0.6 2.407c0.371 0.6 1.1 1 2.2 1.24v-6.083l-1.154-0.342 c-1.814-0.532-3.094-1.273-3.839-2.223S0.762 9.3 0.8 7.921c0-0.883 0.145-1.686 0.434-2.408 c0.29-0.722 0.696-1.344 1.218-1.866c0.674-0.674 1.425-1.14 2.251-1.396c0.503-0.161 1.239-0.28 2.208-0.356V0h1.382v1.923 c1.541 0.1 2.8 0.5 3.6 1.14c1.598 1 2.4 2.7 2.5 4.944H10.62c-0.075-0.845-0.216-1.463-0.422-1.852 C9.842 5.5 9.2 5.1 8.3 5.043v5.428c2.251 0.8 3.8 1.5 4.5 2.066c1.276 1 1.9 2.4 1.9 4.2 c0 2.393-0.879 4.131-2.636 5.213C11 22.6 9.7 23 8.3 23.135V26z M6.873 5.071C6.047 5.1 5.4 5.3 5 5.7 c-0.398 0.423-0.598 1-0.598 1.731c0 0.8 0.3 1.4 0.9 1.895c0.333 0.3 0.8 0.5 1.5 0.712V5.071z M8.255 20 c0.742-0.094 1.282-0.266 1.62-0.512c0.592-0.438 0.888-1.193 0.888-2.267c0-0.816-0.277-1.462-0.831-1.938 c-0.329-0.275-0.888-0.56-1.677-0.854V19.959z"/></g></svg>