<svg xmlns="http://www.w3.org/2000/svg" xmlns:xlink="http://www.w3.org/1999/xlink" version="1.1" x="0px" y="0px" width="26px" height="26px" viewBox="0 0 26 26" enable-background="new 0 0 26 26" xml:space="preserve"><path fill-rule="evenodd" clip-rule="evenodd" fill="#FFFFFF" d="M11.818 4.727V13v1.181H13h5.909V13H13V4.727H11.818z M13 2.6 c5.732 0 10.4 4.7 10.4 10.4c0 5.73-4.667 10.399-10.399 10.399C7.267 23.4 2.6 18.7 2.6 13C2.6 7.3 7.3 2.6 13 2.6z M13 26c7.162 0 13-5.838 13-13S20.162 0 13 0C5.837 0 0 5.8 0 13S5.837 26 13 26z"/></svg>