<svg xmlns="http://www.w3.org/2000/svg" xmlns:xlink="http://www.w3.org/1999/xlink" version="1.1" x="0px" y="0px" width="31px" height="32px" viewBox="0 0 31 32" enable-background="new 0 0 31 32" xml:space="preserve"><g><path fill-rule="evenodd" clip-rule="evenodd" fill="#FFFFFF" d="M29.299 0H1.702C0.85 0 0.2 0.7 0.2 1.549v23.437 c0 0.9 0.7 1.5 1.5 1.549h8.334L15.5 32l5.464-5.466h8.335c0.852 0 1.549-0.697 1.549-1.549V1.549 C30.848 0.7 30.1 0 29.3 0z M28.395 22.55c0 0.852-0.696 1.548-1.549 1.548H4.154c-0.852 0-1.548-0.696-1.548-1.548V3.984 c0-0.852 0.697-1.549 1.548-1.549h22.691c0.853 0 1.5 0.7 1.5 1.549V22.55z"/><polygon fill-rule="evenodd" clip-rule="evenodd" fill="#FFFFFF" points="17.3,6.6 13.7,6.6 13.7,11.5 8.8,11.5 8.8,15.1 13.7,15.1 13.7,20 17.3,20 17.3,15.1 22.2,15.1 22.2,11.5 17.3,11.5"/></g></svg>