<svg xmlns="http://www.w3.org/2000/svg" xmlns:xlink="http://www.w3.org/1999/xlink" version="1.1" id="Layer_1" x="0px" y="0px" width="22px" height="22px" viewBox="0 0 22 22" enable-background="new 0 0 22 22" xml:space="preserve"><path fill-rule="evenodd" clip-rule="evenodd" fill="#FFFFFF" d="M2.888 11.478c0.23 4.1 3.5 7.4 7.6 7.633V22h0.956v-2.889 c4.113-0.229 7.404-3.521 7.633-7.633H22v-0.956h-2.889c-0.229-4.113-3.521-7.404-7.633-7.643V0h-0.956v2.879 c-4.113 0.239-7.404 3.53-7.634 7.643H0v0.956H2.888z M4.697 10.522c0.229-3.109 2.716-5.596 5.825-5.825v5.825H4.697z M10.522 11.478v5.826c-3.109-0.229-5.596-2.717-5.825-5.826H10.522z M11.478 4.697c3.109 0.2 5.6 2.7 5.8 5.825h-5.826 V4.697z M17.304 11.478c-0.23 3.109-2.717 5.596-5.826 5.826v-5.826H17.304z"/></svg>