<svg xmlns="http://www.w3.org/2000/svg" xmlns:xlink="http://www.w3.org/1999/xlink" version="1.1" id="Layer_1" x="0px" y="0px" width="64px" height="15px" viewBox="0 0 64 15" enable-background="new 0 0 64 15" xml:space="preserve"><g><path fill="#FFFFFF" d="M0 7.485c0-2.071 0.754-3.836 2.265-5.296C3.775 0.7 5.6 0 7.7 0c2.128 0 3.9 0.7 5.5 2.2 c1.51 1.5 2.3 3.2 2.3 5.296s-0.755 3.841-2.266 5.311C11.64 14.3 9.8 15 7.7 15c-2.109 0-3.917-0.734-5.428-2.204 C0.754 11.3 0 9.6 0 7.485z"/><path fill="#FFFFFF" d="M24.293 7.485c0-2.071 0.754-3.836 2.265-5.296C28.067 0.7 29.9 0 32 0 c2.128 0 3.9 0.7 5.5 2.189c1.51 1.5 2.3 3.2 2.3 5.296s-0.755 3.841-2.265 5.311c-1.51 1.47-3.33 2.204-5.458 2.2 c-2.108 0-3.917-0.734-5.427-2.204C25.047 11.3 24.3 9.6 24.3 7.485z"/><path fill="#FFFFFF" d="M48.584 7.485c0-2.071 0.755-3.836 2.266-5.296C52.359 0.7 54.2 0 56.3 0 c2.128 0 3.9 0.7 5.5 2.189C63.245 3.6 64 5.4 64 7.485s-0.755 3.841-2.265 5.311c-1.51 1.47-3.33 2.204-5.458 2.2 c-2.108 0-3.917-0.734-5.427-2.204C49.339 11.3 48.6 9.6 48.6 7.485z"/></g></svg>