<svg xmlns="http://www.w3.org/2000/svg" xmlns:xlink="http://www.w3.org/1999/xlink" version="1.1" id="Layer_1" x="0px" y="0px" width="54px" height="30px" viewBox="0 0 54 30" enable-background="new 0 0 54 30" xml:space="preserve"><g><path fill-rule="evenodd" clip-rule="evenodd" fill="#059FAC" d="M2.379 0h49.243C52.944 0 54 1 54 2.275V12 c0 0-0.175 0-0.264 0c-1.613 0-2.577 1.428-2.577 3c0 1.6 1 2.8 2.6 2.826c0.089 0 0.3 0 0.3 0.009v9.887 C54 29 52.9 30 51.6 30H2.379C1.088 30 0 29 0 27.722v-9.887c0 0 0.2 0 0.3 0 c1.615 0 2.625-1.292 2.625-2.866c0-1.572-1.009-3-2.625-3C0.176 12 0 12 0 12V2.275C0 1 1.1 0 2.4 0L2.379 0z M7.837 3 C6.809 3 6 3.8 6 4.8v20.396C6 26.2 6.8 27 7.8 27h38.327C47.22 27 48 26.2 48 25.195V4.8C48 3.8 47.2 3 46.2 3 H7.837z"/><path fill-rule="evenodd" clip-rule="evenodd" fill="#059FAC" d="M10.468 5h33.064C44.384 5 45 5.7 45 6.473v6.405 c0 0-0.073-0.029-0.133-0.029c-1.055 0-1.885 1.07-1.885 2.08c0 1 0.9 2.1 1.9 2.071C44.971 17 45 17 45 17v6.54 c0 0.814-0.616 1.46-1.467 1.46H10.468C9.616 25 9 24.4 9 23.54V17c0 0 0.1 0 0.1 0c1.027 0 1.88-1.059 1.88-2.071 c0-1.01-0.825-2.114-1.852-2.114C9.089 12.8 9 12.9 9 12.878V6.473C9 5.7 9.6 5 10.5 5L10.468 5z"/></g></svg>