<?xml version="1.0" encoding="utf-8"?>
<!-- Generator: Adobe Illustrator 17.0.2, SVG Export Plug-In . SVG Version: 6.00 Build 0)  -->
<!DOCTYPE svg PUBLIC "-//W3C//DTD SVG 1.1//EN" "http://www.w3.org/Graphics/SVG/1.1/DTD/svg11.dtd">
<svg version="1.1" id="Layer_1" xmlns="http://www.w3.org/2000/svg" xmlns:xlink="http://www.w3.org/1999/xlink" x="0px" y="0px"
	 width="43px" height="26px" viewBox="0 0 43 26" enable-background="new 0 0 43 26" xml:space="preserve">
<image display="none" overflow="visible" width="1440" height="900" xlink:href="Screen Shot 2014-03-20 at 9.35.00 AM.png"  transform="matrix(1 0 0 1 -55.6648 -675.5249)">
</image>
<rect x="-6.716" y="-6.394" display="none" fill="#FFFFFF" width="53.736" height="42.672"/>
<path fill="#059FAC" d="M40,3v4.805c-1.792,1.039-3,2.978-3,5.195s1.208,4.156,3,5.195V23H3v-4.805C4.792,17.156,6,15.216,6,13
	S4.792,8.844,3,7.805V3H40 M40,0H3C1.35,0,0,1.35,0,3v7c1.657,0,3,1.343,3,3s-1.343,3-3,3v7c0,1.65,1.35,3,3,3h37c1.65,0,3-1.35,3-3
	v-7c-1.657,0-3-1.343-3-3s1.343-3,3-3V3C43,1.35,41.65,0,40,0L40,0z"/>
<path fill="#059FAC" d="M31,8c0.542,0,1,0.458,1,1v8c0,0.542-0.458,1-1,1H12c-0.542,0-1-0.458-1-1V9c0-0.542,0.458-1,1-1H31 M31,6
	H12c-1.65,0-3,1.35-3,3v8c0,1.65,1.35,3,3,3h19c1.65,0,3-1.35,3-3V9C34,7.35,32.65,6,31,6L31,6z"/>
</svg>
