<svg xmlns="http://www.w3.org/2000/svg" xmlns:xlink="http://www.w3.org/1999/xlink" version="1.1" id="Layer_1" x="0px" y="0px" width="43px" height="28px" viewBox="0 0 43 28" enable-background="new 0 0 43 28" xml:space="preserve"><path fill="#7AC143" d="M40 3v5.805c-1.792 1.039-3 2.978-3 5.195s1.208 4.2 3 5.195V25H3v-5.805C4.792 18.2 6 16.2 6 14 S4.792 9.8 3 8.805V3H40 M40 0H3C1.35 0 0 1.4 0 3v8c1.657 0 3 1.3 3 3s-1.343 3-3 3v8c0 1.6 1.4 3 3 3h37c1.65 0 3-1.35 3-3 v-8c-1.657 0-3-1.343-3-3s1.343-3 3-3V3C43 1.4 41.6 0 40 0L40 0z"/><path fill="#7AC143" d="M31 8c0.542 0 1 0.5 1 1v10c0 0.542-0.458 1-1 1H12c-0.542 0-1-0.458-1-1V9c0-0.542 0.458-1 1-1H31 M31 6 H12c-1.65 0-3 1.35-3 3v10c0 1.6 1.4 3 3 3h19c1.65 0 3-1.35 3-3V9C34 7.3 32.6 6 31 6L31 6z"/></svg>