<svg xmlns="http://www.w3.org/2000/svg" xmlns:xlink="http://www.w3.org/1999/xlink" version="1.1" x="0px" y="0px" width="26px" height="26px" viewBox="0 0 26 26" enable-background="new 0 0 26 26" xml:space="preserve"><g><path fill="#FFFFFF" d="M24.568 0H1.431C0.717 0 0.1 0.6 0.1 1.298v18.82c0 0.7 0.6 1.3 1.3 1.299h6.988L13 26 l4.581-4.583h6.987c0.714 0 1.299-0.584 1.299-1.299V1.298C25.867 0.6 25.3 0 24.6 0z M23.811 18.1 c0 0.714-0.584 1.298-1.299 1.298H3.488c-0.714 0-1.298-0.584-1.298-1.298V3.34c0-0.714 0.584-1.298 1.298-1.298h19.024 c0.715 0 1.3 0.6 1.3 1.298V18.076z"/><rect x="12.1" y="13.6" fill="#FFFFFF" width="1.9" height="1.8"/><path fill="#FFFFFF" d="M15.291 6.694C14.66 6.2 13.9 6 12.9 6.01c-0.726 0-1.337 0.16-1.835 0.5 c-0.789 0.502-1.208 1.354-1.259 2.557h1.829c0-0.35 0.102-0.688 0.306-1.013c0.204-0.325 0.55-0.487 1.038-0.487 c0.497 0 0.8 0.1 1 0.396c0.188 0.3 0.3 0.6 0.3 0.876c0 0.278-0.084 0.534-0.252 0.8 c-0.093 0.135-0.215 0.26-0.366 0.374l-0.461 0.36c-0.454 0.354-0.736 0.668-0.845 0.939c-0.109 0.273-0.177 0.765-0.202 1.5 h1.715c0.004-0.337 0.032-0.586 0.083-0.747c0.079-0.253 0.241-0.475 0.485-0.665l0.448-0.348c0.454-0.354 0.761-0.646 0.921-0.873 c0.274-0.375 0.41-0.837 0.41-1.386C16.236 7.8 15.9 7.1 15.3 6.694z"/></g></svg>