<svg xmlns="http://www.w3.org/2000/svg" xmlns:xlink="http://www.w3.org/1999/xlink" version="1.1" id="Layer_1" x="0px" y="0px" width="25px" height="24px" viewBox="0 0 25 24" enable-background="new 0 0 25 24" xml:space="preserve"><g><g><rect x="0.5" y="0.5" fill="#FFFFFF" width="24" height="23"/><path fill="#9AD8DD" d="M23.998 1.022v21.957H1.002V1.022H23.998 M25 0.02h-1.002H1.002H0v1.002v21.957v1.002h1.002h22.996H25 v-1.002V1.022V0.02L25 0.02z"/></g><rect x="3" y="3" fill="#06AFBC" width="19" height="5"/><g><rect x="3" y="10" fill="#D9D9D8" width="4" height="3"/><rect x="8" y="10" fill="#D9D9D8" width="4" height="3"/><rect x="18.1" y="10" fill="#D9D9D8" width="4" height="3"/><rect x="13" y="10" fill="#D9D9D8" width="4" height="3"/></g><g><rect x="3" y="14" fill="#D9D9D8" width="4" height="3"/><rect x="8" y="14" fill="#D9D9D8" width="4" height="3"/><rect x="18.1" y="14" fill="#D9D9D8" width="4" height="3"/><rect x="13" y="14" fill="#D9D9D8" width="4" height="3"/></g><g><rect x="3" y="18" fill="#D9D9D8" width="4" height="3"/><rect x="8" y="18" fill="#D9D9D8" width="4" height="3"/><rect x="18.1" y="18" fill="#D9D9D8" width="4" height="3"/><rect x="13" y="18" fill="#D9D9D8" width="4" height="3"/></g></g></svg>