<svg xmlns="http://www.w3.org/2000/svg" xmlns:xlink="http://www.w3.org/1999/xlink" version="1.1" x="0px" y="0px" width="69px" height="34px" viewBox="0 0 69 34" enable-background="new 0 0 69 34" xml:space="preserve"><g><g><path fill="#FFFFFF" d="M15.939 21.288h4.825v5.957c-0.569 0.165-1.653 0.312-3.064 0.312c-5.869 0-9.514-3.787-9.514-9.883 c0-6.104 3.748-9.748 10.023-9.748c3.746 0 5.8 0.7 7.1 1.312l0.399 0.184l1.673-6.431l-0.281-0.129 c-1.613-0.733-4.779-1.517-8.828-1.517c-11.028 0-18.185 6.554-18.229 16.698c0 4.7 1.6 8.9 4.5 11.7 C7.573 32.6 11.8 34 17.5 34c3.927 0 8.028-0.921 10.559-1.784l0.251-0.084v-17.1H15.939V21.288z"/><polygon fill="#FFFFFF" points="49.5,0 41.7,0 47,16.8 41.7,33.7 49.5,33.7 54.8,16.9 54.8,16.8"/><polygon fill="#FFFFFF" points="44.7,16.8 39.5,0 31.6,0 36.9,16.8 31.6,33.7 39.5,33.7 44.7,16.9"/></g><g><path fill="#FFFFFF" d="M58.848 12.486h-1.436V6.908h-1.839V5.713h5.114v1.195h-1.84V12.486z"/><path fill="#FFFFFF" d="M64.599 12.486l-1.631-5.314h-0.042c0.058 1.1 0.1 1.8 0.1 2.164v3.15H61.73V5.713h1.955 l1.603 5.18h0.028l1.7-5.18h1.956v6.773h-1.339V9.28c0-0.15 0.002-0.326 0.006-0.523c0.005-0.197 0.026-0.723 0.062-1.575h-0.041 l-1.746 5.305H64.599z"/></g></g></svg>