<svg xmlns="http://www.w3.org/2000/svg" xmlns:xlink="http://www.w3.org/1999/xlink" version="1.1" x="0px" y="0px" width="209px" height="34px" viewBox="0 0 209 34" enable-background="new 0 0 209 34" xml:space="preserve"><g><g><path fill="#FFFFFF" d="M16.283 21.173h4.799v5.925c-0.565 0.164-1.646 0.31-3.048 0.31c-5.836 0-9.462-3.767-9.462-9.832 c0-6.069 3.727-9.691 9.97-9.691c3.728 0 5.7 0.7 7 1.304l0.397 0.184l1.664-6.397l-0.281-0.127 c-1.605-0.729-4.753-1.509-8.78-1.509c-10.969 0-18.085 6.519-18.13 16.607c0 4.7 1.6 8.8 4.5 11.6 c3.008 2.9 7.2 4.3 12.9 4.254c3.907 0 7.985-0.917 10.5-1.773l0.248-0.085V14.95H16.283V21.173z"/><path fill="#FFFFFF" d="M53.003 27.682v-7.891c0-6.638-3.541-10.148-10.241-10.148c-4.852 0-8.074 1.591-8.945 2.079l-0.252 0.1 l1.504 5.268l0.413-0.258c1.315-0.822 3.692-1.652 6.035-1.652c2.404 0 3.7 0.9 3.7 2.5 c-8.422 0.091-13.241 3.357-13.241 8.994c0 3.5 2.7 7.3 7.7 7.286c2.583 0 4.813-0.87 6.35-2.461l0.359 1.952h7.082 l-0.098-0.445C53.128 32 53 30.1 53 27.682z M42.071 28.33c-0.722 0-2.402-0.225-2.402-2.31 c0-2.05 1.958-3.121 5.819-3.184v2.075c0 0.396-0.044 0.779-0.121 1.087C44.932 27.4 43.5 28.3 42.1 28.33z"/><polygon fill="#FFFFFF" points="65.4,0 70.6,16.7 65.4,33.5 73.2,33.5 78.4,16.7 73.2,0"/><polygon fill="#FFFFFF" points="63.1,0 55.3,0 60.6,16.7 55.3,33.5 63.1,33.5 68.4,16.7"/><path fill="#FFFFFF" d="M92.343 9.689c-8.082 0-11.763 6.433-11.763 12.41c0 7.4 4.6 11.9 12.4 11.9 c3.161 0 6.034-0.504 8.308-1.459l0.275-0.114l-1.061-5.458l-0.397 0.136c-1.922 0.656-3.807 0.95-6.11 0.9 c-2.532 0-5.528-0.941-5.958-3.559h14.431l0.055-0.301c0.114-0.631 0.236-1.706 0.236-2.834 C102.768 15.7 100 9.7 92.3 9.689z M91.927 15.083c3.014 0 3.5 2.7 3.6 3.834h-7.505 C88.289 17.3 89.4 15.1 91.9 15.083z"/><path fill="#FFFFFF" d="M116.904 20.945c-0.396 1.513-0.701 2.865-0.964 4.106c-0.291-1.362-0.598-2.682-1.006-4.116 l-3.123-10.739H103.4l8.479 23.294h7.525l8.671-23.294h-8.189L116.904 20.945z"/><path fill="#FFFFFF" d="M140.188 9.689c-8.082 0-11.763 6.433-11.763 12.41c0 7.4 4.6 11.9 12.4 11.9 c3.16 0 6.035-0.504 8.308-1.459l0.275-0.114l-1.061-5.458l-0.397 0.136c-1.922 0.656-3.808 0.95-6.109 0.9 c-2.533 0-5.528-0.941-5.957-3.559h14.43l0.055-0.301c0.114-0.634 0.235-1.711 0.235-2.834 C150.613 15.7 147.9 9.7 140.2 9.689z M139.772 15.083c3.015 0 3.5 2.7 3.6 3.834h-7.506 C136.134 17.3 137.2 15.1 139.8 15.083z"/><path fill="#FFFFFF" d="M167.778 9.689c-3.731 0-5.87 1.979-6.822 3.179l-0.273-2.671h-6.805l0.018 0.4 c0.09 2 0.2 4.3 0.2 7.183v15.729h7.746V20.115c0-0.745 0.066-1.274 0.206-1.619c0.282-0.722 1.168-2.398 3.258-2.398 c2.115 0 3.2 1.5 3.2 4.525v12.868h7.744v-13.7C176.22 13.5 173.1 9.7 167.8 9.689z"/><path fill="#FFFFFF" d="M194.443 16.098v-5.901h-5.029V3.992l-7.606 2.094v4.111h-2.999v5.901h2.999v8.862 c0 3.3 0.7 5.5 2 6.948c1.3 1.3 3.3 2 5.6 2.045c1.795 0 3.619-0.242 4.646-0.621l0.245-0.09l-0.053-6.013 l-0.44 0.095c-0.638 0.136-1.084 0.176-1.999 0.176c-1.522 0-2.403-0.59-2.403-3.602v-7.801H194.443z"/></g><g><path fill="#FFFFFF" d="M200.055 15.98h-1.204v-4.678h-1.542v-1.002h4.289v1.002h-1.543V15.98z"/><path fill="#FFFFFF" d="M204.876 15.98l-1.367-4.456h-0.035c0.049 0.9 0.1 1.5 0.1 1.814v2.642h-1.076v-5.68h1.64 l1.344 4.343h0.023l1.426-4.343h1.639v5.68h-1.122v-2.688c0-0.126 0.002-0.273 0.006-0.439c0.004-0.165 0.021-0.606 0.052-1.321 h-0.034l-1.465 4.448H204.876z"/></g></g></svg>