<svg xmlns="http://www.w3.org/2000/svg" xmlns:xlink="http://www.w3.org/1999/xlink" version="1.1" id="Layer_1" x="0px" y="0px" width="341px" height="58px" viewBox="0 0 341 58" enable-background="new 0 0 341 58" xml:space="preserve"><rect x="-160.3" y="-396.5" fill-rule="evenodd" clip-rule="evenodd" fill="#448740" width="654.2" height="184.8"/><g><g><path fill-rule="evenodd" clip-rule="evenodd" fill="#448740" d="M215.756 0.221c15.313 0.5 27.7 13 27.8 28.4 c0.081 7.282-2.543 13.965-6.946 19.086c-0.099-2.38-0.971-3.584-2.48-4.58c-3.329-1.385-7.771-3.42-10.513-5.833 c7.269-3.607 9.437-9.169 8.677-14.652c-0.029-0.24-0.132-0.344-0.519-0.311c-4.454 0.577-8.786 4.594-6.753 9.3 c2.155-0.524 3.471-2.539 5.526-5.462c0.168-0.21 0.459-0.584 0.3 0.191c-1.139 4.659-7.271 10.162-12.555 6.3 c-4.136-3.86-8.304-9.54-9.878-13.904c-2.451-6.004-1.202-13.695 5.083-16.856c0.502-0.245 0.818-0.189 1.3 0 c6.349 3.6 8 15.5 0.1 19.608c-0.865-1.44-1.3-6.208-1.144-11.225c-0.01-0.471-0.169-0.459-0.301-0.047 c-1.124 3.31-1.597 9.604-0.424 13.66c0.185 0.5 0.5 0.9 1.2 0.731c4.243-1.049 8.31-4.641 9.038-10.482 C224.044 8.5 220.8 3 215.8 0.221L215.756 0.221z M235.657 48.836c-5.285-2.24-14.646-7.535-19.154-12.233 c1.911 10.629-9.022 17.927-19.413 15.076c4.969 3.9 11.2 6.2 18 6.099C223.224 57.7 230.5 54.3 235.7 48.8 L235.657 48.836z M190.89 45.006l-0.097-0.221c-2.135-4.271-4.649-19.598 15.123-23.256c-1.634-3.984-2.266-7.936-1.49-11.503 c0.856-3.782 3.472-7.754 8.175-9.734c-15.008 1.139-26.752 13.764-26.575 29.031C186.094 35.1 187.9 40.5 190.9 45 L190.89 45.006z M196.57 47.98c11.613 6.6 22.918-8.925 12.36-20.42c-2.037 1.643-4.505 4.773-6.521 8.6 c-0.277 0.496-0.606 0.309-0.495-0.253c0.795-3.392 3.063-7.383 5.03-9.935C193.619 25.5 187.8 41.7 196.6 47.98z"/><path fill-rule="evenodd" clip-rule="evenodd" fill="#448740" d="M34.673 46.299h2.894V27.614H20.812v3.453h13.3 c-1.117 6.501-4.567 12.693-15.429 12.693c-9.648 0-14.622-5.838-14.622-15.59c0-9.543 5.429-15.582 15.33-15.582 c6.5 0 12 2.8 13.5 8.932h4.059c-0.966-6.698-7.412-12.388-17.514-12.388C7.36 9.1 0 17.2 0 28.2 c0 11.3 6.7 19 19 19.042c7.108 0 11.373-2.44 15.077-7.769h0.105L34.673 46.299z"/><path fill-rule="evenodd" clip-rule="evenodd" fill="#448740" d="M44.806 46.299h3.324V30.354h12.896 c5.526 0 7.7 2.1 7.8 8.529c0.047 4 0.3 6.7 0.9 7.416h3.594c-0.759-0.811-1.033-5.229-1.122-7.517 c-0.224-5.937-1.168-9.24-5.703-10.047v-0.102c4.181-1.069 6.289-4.93 6.289-8.787c0-7.614-4.985-9.799-10.423-9.799H44.806 V46.299L44.806 46.299z M48.13 13.502h14.376c3.054 0 6.6 1 6.6 6.345c0 5.534-3.281 7.058-6.917 7.058H48.13V13.502z"/><polygon fill-rule="evenodd" clip-rule="evenodd" fill="#448740" points="144.1,46.3 147.9,46.3 147.9,15.3 148,15.3 173.4,46.3 177.8,46.3 177.8,10 174.1,10 174.1,41 174,41 148.6,10 144.1,10"/><g><path fill-rule="evenodd" clip-rule="evenodd" fill="#448740" d="M286.342 46.299h2.893V27.614h-16.751v3.453h13.301 c-1.123 6.501-4.568 12.693-15.435 12.693c-9.648 0-14.621-5.838-14.621-15.59c0-9.543 5.428-15.582 15.33-15.582 c6.495 0 12 2.8 13.5 8.935h4.058c-0.962-6.701-7.412-12.39-17.514-12.39c-12.031 0-19.393 8.077-19.393 19 c0 11.3 6.7 19 19 19.042c7.107 0 11.371-2.44 15.077-7.769h0.103L286.342 46.299z"/><path fill-rule="evenodd" clip-rule="evenodd" fill="#448740" d="M294.773 28.171c0 12.8 9.4 19 19.7 19 c10.306 0 19.696-6.245 19.696-19.042c0-12.79-9.391-19.038-19.696-19.038C304.167 9.1 294.8 15.4 294.8 28.2 L294.773 28.171z M298.835 28.171c0-10.913 7.67-15.582 15.637-15.582c7.974 0 15.6 4.7 15.6 15.6 c0 10.918-7.664 15.59-15.638 15.59C306.505 43.8 298.8 39.1 298.8 28.171z"/></g><polygon fill-rule="evenodd" clip-rule="evenodd" fill="#448740" points="136,44 117,44 117,30 136,30 136,26 117,26 117,13 136,13 136,10 113,10 113,47 136,47"/><polygon fill-rule="evenodd" clip-rule="evenodd" fill="#448740" points="106,43 85,43 85,29 106,29 106,26 85,26 85,13 106,13 106,10 81,10 81,47 106,47"/></g><g><path fill="#448740" d="M335.497 13.69v-3.132h-1.171v-0.419h2.816v0.419h-1.176v3.132H335.497z"/><path fill="#448740" d="M337.61 13.69v-3.552h0.707l0.842 2.515c0.077 0.2 0.1 0.4 0.2 0.5 c0.041-0.129 0.103-0.318 0.19-0.569l0.849-2.471H341v3.552h-0.453v-2.973l-1.033 2.973h-0.423l-1.027-3.023v3.023H337.61z"/></g></g></svg>