<svg xmlns="http://www.w3.org/2000/svg" xmlns:xlink="http://www.w3.org/1999/xlink" version="1.1" id="Layer_1" x="0px" y="0px" width="338px" height="97px" viewBox="0 0 338 97" enable-background="new 0 0 338 97" xml:space="preserve"><g><polygon fill="#2761A6" points="331,47.2 332.1,47.2 332.1,50.1 332.6,50.1 332.6,47.2 333.7,47.2 333.7,46.7 331,46.7"/><polygon fill="#2761A6" points="336.1,49.2 334.8,46.7 334.2,46.7 334.2,50.1 334.7,50.1 334.7,47.6 336,50.1 336.1,50.1 337.4,47.6 337.4,50.1 337.9,50.1 337.9,46.7 337.3,46.7"/><path fill="#2761A6" d="M122.296 35.926h-3.592h-3.593h-3.593h-3.593h-3.593h-3.593h-3.592v3.592v3.593v3.592v3.592v3.593v3.593 v3.593v3.592v3.593h3.592h3.593v-3.593v-3.592v-3.593h3.593h3.593h3.593h3.593h3.592v-3.593h3.593v-3.593v-3.592v-3.592v-3.593 h-3.593V35.926z M118.704 46.704v3.592h-3.593h-3.593h-3.593h-3.593v-3.592v-3.592h3.593h3.593h3.593h3.593V46.704z"/><polygon fill="#2761A6" points="129.5,35.9 129.5,39.5 129.5,43.1 129.5,46.7 129.5,50.3 129.5,53.9 129.5,57.5 129.5,61.1 129.5,64.7 129.5,68.3 133.1,68.3 136.7,68.3 136.7,64.7 136.7,61.1 136.7,57.5 136.7,53.9 136.7,50.3 136.7,46.7 136.7,43.1 136.7,39.5 136.7,35.9 133.1,35.9"/><polygon fill="#2761A6" points="165.4,35.9 165.4,39.5 161.8,39.5 161.8,43.1 158.2,43.1 158.2,46.7 154.6,46.7 154.6,43.1 151,43.1 151,39.5 147.4,39.5 147.4,35.9 143.9,35.9 140.3,35.9 140.3,39.5 140.3,43.1 143.9,43.1 143.9,46.7 147.4,46.7 147.4,50.3 151,50.3 151,53.9 147.4,53.9 147.4,57.5 143.9,57.5 143.9,61.1 140.3,61.1 140.3,64.7 140.3,68.3 143.9,68.3 147.4,68.3 147.4,64.7 151,64.7 151,61.1 154.6,61.1 154.6,57.5 158.2,57.5 158.2,61.1 161.8,61.1 161.8,64.7 165.4,64.7 165.4,68.3 169,68.3 172.6,68.3 172.6,64.7 172.6,61.1 169,61.1 169,57.5 165.4,57.5 165.4,53.9 161.8,53.9 161.8,50.3 165.4,50.3 165.4,46.7 169,46.7 169,43.1 172.6,43.1 172.6,39.5 172.6,35.9 169,35.9"/><polygon fill="#2761A6" points="190.6,35.9 187,35.9 183.4,35.9 179.8,35.9 176.2,35.9 176.2,39.5 176.2,43.1 176.2,46.7 176.2,50.3 176.2,53.9 176.2,57.5 176.2,61.1 176.2,64.7 176.2,68.3 179.8,68.3 183.4,68.3 187,68.3 190.6,68.3 194.1,68.3 197.7,68.3 197.7,64.7 197.7,61.1 194.1,61.1 190.6,61.1 187,61.1 183.4,61.1 183.4,57.5 183.4,53.9 187,53.9 190.6,53.9 194.1,53.9 194.1,50.3 194.1,46.7 190.6,46.7 187,46.7 183.4,46.7 183.4,43.1 187,43.1 190.6,43.1 194.1,43.1 197.7,43.1 197.7,39.5 197.7,35.9 194.1,35.9"/><polygon fill="#2761A6" points="273.2,35.9 269.6,35.9 266,35.9 262.4,35.9 258.8,35.9 258.8,39.5 258.8,43.1 258.8,46.7 258.8,50.3 258.8,53.9 258.8,57.5 258.8,61.1 258.8,64.7 258.8,68.3 262.4,68.3 266,68.3 269.6,68.3 273.2,68.3 276.8,68.3 280.4,68.3 280.4,64.7 280.4,61.1 276.8,61.1 273.2,61.1 269.6,61.1 266,61.1 266,57.5 266,53.9 269.6,53.9 273.2,53.9 276.8,53.9 276.8,50.3 276.8,46.7 273.2,46.7 269.6,46.7 266,46.7 266,43.1 269.6,43.1 273.2,43.1 276.8,43.1 280.4,43.1 280.4,39.5 280.4,35.9 276.8,35.9"/><polygon fill="#2761A6" points="298.3,35.9 294.7,35.9 291.1,35.9 287.6,35.9 284,35.9 284,39.5 284,43.1 284,46.7 284,50.3 284,53.9 284,57.5 284,61.1 284,64.7 284,68.3 287.6,68.3 291.1,68.3 294.7,68.3 298.3,68.3 301.9,68.3 305.5,68.3 305.5,64.7 305.5,61.1 301.9,61.1 298.3,61.1 294.7,61.1 291.1,61.1 291.1,57.5 291.1,53.9 294.7,53.9 298.3,53.9 301.9,53.9 301.9,50.3 301.9,46.7 298.3,46.7 294.7,46.7 291.1,46.7 291.1,43.1 294.7,43.1 298.3,43.1 301.9,43.1 305.5,43.1 305.5,39.5 305.5,35.9 301.9,35.9"/><polygon fill="#2761A6" points="334.3,35.9 330.7,35.9 327.1,35.9 323.5,35.9 319.9,35.9 316.3,35.9 312.7,35.9 309.1,35.9 309.1,39.5 309.1,43.1 312.7,43.1 316.3,43.1 319.9,43.1 319.9,46.7 319.9,50.3 319.9,53.9 319.9,57.5 319.9,61.1 319.9,64.7 319.9,68.3 323.5,68.3 327.1,68.3 327.1,64.7 327.1,61.1 327.1,57.5 327.1,53.9 327.1,50.3 327.1,46.7 327.1,43.1 330.7,43.1 334.3,43.1 337.9,43.1 337.9,39.5 337.9,35.9"/><polygon fill="#2761A6" points="215.7,61.1 212.1,61.1 208.5,61.1 208.5,57.5 208.5,53.9 208.5,50.3 208.5,46.7 208.5,43.1 208.5,39.5 208.5,35.9 204.9,35.9 201.3,35.9 201.3,39.5 201.3,43.1 201.3,46.7 201.3,50.3 201.3,53.9 201.3,57.5 201.3,61.1 201.3,64.7 201.3,68.3 204.9,68.3 208.5,68.3 212.1,68.3 215.7,68.3 219.3,68.3 222.9,68.3 222.9,64.7 222.9,61.1 219.3,61.1"/><polygon fill="#2761A6" points="248,35.9 248,39.5 244.4,39.5 244.4,43.1 240.9,43.1 240.9,46.7 237.3,46.7 233.7,46.7 233.7,43.1 233.7,39.5 233.7,35.9 230.1,35.9 226.5,35.9 226.5,39.5 226.5,43.1 226.5,46.7 226.5,50.3 226.5,53.9 226.5,57.5 226.5,61.1 226.5,64.7 226.5,68.3 230.1,68.3 233.7,68.3 233.7,64.7 233.7,61.1 233.7,57.5 233.7,53.9 237.3,53.9 237.3,57.5 240.9,57.5 240.9,61.1 244.4,61.1 244.4,64.7 248,64.7 248,68.3 251.6,68.3 255.2,68.3 255.2,64.7 255.2,61.1 251.6,61.1 251.6,57.5 248,57.5 248,53.9 244.4,53.9 244.4,50.3 248,50.3 248,46.7 251.6,46.7 251.6,43.1 255.2,43.1 255.2,39.5 255.2,35.9 251.6,35.9"/></g><rect x="18.1" y="75.4" fill="#8BC53F" width="3.6" height="3.6"/><rect x="21.7" y="75.4" fill="#8BC53F" width="3.6" height="3.6"/><rect x="18.1" y="79" fill="#8BC53F" width="3.6" height="3.6"/><rect x="14.5" y="79" fill="#96C93D" width="3.6" height="3.6"/><rect x="14.5" y="82.6" fill="#8BC53F" width="3.6" height="3.6"/><rect x="10.9" y="82.6" fill="#96C93D" width="3.6" height="3.6"/><rect x="10.9" y="86.2" fill="#8BC53F" width="3.6" height="3.6"/><rect x="7.3" y="86.2" fill="#96C93D" width="3.6" height="3.6"/><rect x="3.7" y="89.8" fill="#96C93D" width="3.6" height="3.6"/><rect x="57.6" y="82.6" fill="#FAAC18" width="3.6" height="3.6"/><rect x="57.6" y="86.2" fill="#FBB017" width="3.6" height="3.6"/><polygon fill="#FCB813" points="68.4,93.4 64.8,93.4 61.2,93.4 61.2,89.8 57.6,89.8 57.6,93.4 54,93.4 50.4,93.4 50.4,97 54,97 57.6,97 61.2,97 64.8,97 68.4,97 72,97 72,93.4"/><polygon fill="#A4CD39" points="86.4,35.9 86.4,32.3 82.8,32.3 82.8,35.9 79.2,35.9 75.6,35.9 72,35.9 68.4,35.9 64.8,35.9 64.8,39.5 64.8,43.1 64.8,46.7 61.2,46.7 61.2,50.3 61.2,53.9 61.2,57.5 64.8,57.5 64.8,61.1 68.4,61.1 68.4,64.7 72,64.7 75.6,64.7 79.2,64.7 82.8,64.7 82.8,61.1 86.4,61.1 86.4,57.5 90,57.5 90,53.9 90,50.3 90,46.7 90,43.1 90,39.5 90,35.9"/><g><rect x="86.4" y="57.5" fill="#96C93D" width="3.6" height="3.6"/><rect x="82.8" y="61.1" fill="#96C93D" width="3.6" height="3.6"/><polygon fill="#96C93D" points="75.6,64.7 72,64.7 68.4,64.7 68.4,61.1 64.8,61.1 64.8,57.5 61.2,57.5 61.2,53.9 61.2,50.3 57.6,50.3 57.6,53.9 54,53.9 54,57.5 50.4,57.5 50.4,61.1 46.9,61.1 46.9,64.7 46.9,68.3 46.9,71.9 50.4,71.9 54,71.9 54,75.4 57.6,75.4 61.2,75.4 64.8,75.4 68.4,75.4 72,75.4 72,71.9 75.6,71.9 79.2,71.9 79.2,68.3 82.8,68.3 82.8,64.7 79.2,64.7"/></g><g><polygon fill="#84C341" points="43.3,75.4 43.3,79 46.9,79 50.4,79 50.4,75.4 46.9,75.4"/><polygon fill="#84C341" points="61.2,79 57.6,79 54,79 54,82.6 57.6,82.6 61.2,82.6 64.8,82.6 64.8,79"/></g><g><rect x="82.8" y="64.7" fill="#8BC53F" width="3.6" height="3.6"/><rect x="79.2" y="68.3" fill="#8BC53F" width="3.6" height="3.6"/><polygon fill="#8BC53F" points="72,71.9 72,75.4 75.6,75.4 79.2,75.4 79.2,71.9 75.6,71.9"/><polygon fill="#8BC53F" points="64.8,75.4 61.2,75.4 57.6,75.4 54,75.4 54,71.9 50.4,71.9 46.9,71.9 46.9,68.3 46.9,64.7 46.9,61.1 43.3,61.1 43.3,64.7 39.7,64.7 39.7,68.3 39.7,71.9 39.7,75.4 43.3,75.4 46.9,75.4 50.4,75.4 50.4,79 54,79 57.6,79 61.2,79 64.8,79 68.4,79 72,79 72,75.4 68.4,75.4"/></g><rect x="21.7" y="71.9" fill="#8BC53F" width="3.6" height="3.6"/><g><polygon fill="#84C341" points="36.1,64.7 32.5,64.7 32.5,68.3 28.9,68.3 25.3,68.3 25.3,71.9 25.3,75.4 25.3,79 28.9,79 28.9,75.4 32.5,75.4 36.1,75.4 39.7,75.4 39.7,71.9 39.7,68.3 39.7,64.7"/><rect x="21.7" y="79" fill="#84C341" width="3.6" height="3.6"/><rect x="18.1" y="82.6" fill="#84C341" width="3.6" height="3.6"/><rect x="14.5" y="86.2" fill="#84C341" width="3.6" height="3.6"/><polygon fill="#84C341" points="7.3,89.8 7.3,93.4 3.7,93.4 0.1,93.4 0.1,97 3.7,97 7.3,97 10.9,97 10.9,93.4 14.5,93.4 14.5,89.8 10.9,89.8"/></g><g><polygon fill="#FFF229" points="54,35.9 54,32.3 50.4,32.3 50.4,28.7 46.9,28.7 46.9,32.3 46.9,35.9 50.4,35.9"/><rect x="57.6" y="35.9" fill="#FFF229" width="3.6" height="3.6"/><polygon fill="#FFF229" points="54,39.5 50.4,39.5 50.4,43.1 50.4,46.7 54,46.7 57.6,46.7 57.6,43.1 54,43.1"/><polygon fill="#FFF229" points="46.9,43.1 46.9,39.5 43.3,39.5 43.3,35.9 39.7,35.9 39.7,39.5 39.7,43.1 43.3,43.1"/><polygon fill="#FFF229" points="46.9,46.7 43.3,46.7 43.3,50.3 43.3,53.9 46.9,53.9 50.4,53.9 50.4,50.3 46.9,50.3"/><polygon fill="#FFF229" points="36.1,43.1 32.5,43.1 32.5,46.7 32.5,50.3 36.1,50.3 39.7,50.3 39.7,46.7 36.1,46.7"/></g><g><polygon fill="#1C4481" points="46.9,57.5 43.3,57.5 43.3,53.9 39.7,53.9 39.7,57.5 36.1,57.5 36.1,61.1 32.5,61.1 28.9,61.1 28.9,64.7 25.3,64.7 25.3,61.1 25.3,57.5 21.7,57.5 21.7,61.1 18.1,61.1 18.1,64.7 14.5,64.7 14.5,61.1 10.9,61.1 10.9,64.7 7.3,64.7 7.3,68.3 3.7,68.3 3.7,71.9 7.3,71.9 10.9,71.9 14.5,71.9 18.1,71.9 21.7,71.9 25.3,71.9 25.3,68.3 28.9,68.3 32.5,68.3 32.5,64.7 36.1,64.7 39.7,64.7 43.3,64.7 43.3,61.1 46.9,61.1 50.4,61.1 50.4,57.5"/><rect x="28.9" y="50.3" fill="#1C4481" width="3.6" height="3.6"/><rect x="25.3" y="53.9" fill="#1C4481" width="3.6" height="3.6"/></g><rect x="86.4" y="25.1" fill="#FBB017" width="3.6" height="3.6"/><polygon fill="#7DA9DA" points="86.4,14.4 82.8,14.4 82.8,18 86.4,18 90,18 90,14.4"/><polygon fill="#FCB813" points="86.4,18 82.8,18 82.8,21.6 86.4,21.6 86.4,25.1 90,25.1 90,21.6 90,18"/><rect x="82.8" y="21.6" fill="#FBB017" width="3.6" height="3.6"/><g><path fill="#2761A6" d="M61.222 35.926v3.592H57.63v-3.592H61.222v-3.593H57.63v-3.592h-3.593v-3.593h-3.593h-3.593v3.593h3.593 v3.592h3.593v3.593h-3.593h-3.593v-3.593v-3.592H43.26v3.592h-3.593v3.593h3.593v3.592h3.592v3.593H43.26h-3.593v-3.593v-3.592 h-3.593v3.592h-3.593v3.593h3.593v3.592h3.593v3.592h-3.593h-3.593v3.593H28.89v3.593h-3.593v3.593v3.592h3.593v-3.592h3.592h3.593 v-3.593h3.593v-3.593h3.593v-3.593v-3.592h3.592v3.592h3.593v3.593h-3.593H43.26v3.593h3.592h3.593h3.593v-3.593h3.593v-3.593 h3.592v-3.592h3.594v-3.592v-3.593v-3.592H61.222z M54.037 46.704h-3.593v-3.592v-3.593h3.593v3.593h3.593v3.592H54.037z"/><polygon fill="#2761A6" points="28.9,53.9 28.9,50.3 32.5,50.3 32.5,46.7 32.5,43.1 28.9,43.1 28.9,46.7 25.3,46.7 25.3,50.3 21.7,50.3 21.7,53.9 18.1,53.9 18.1,57.5 14.5,57.5 14.5,61.1 14.5,64.7 18.1,64.7 18.1,61.1 21.7,61.1 21.7,57.5 25.3,57.5 25.3,53.9"/></g><path fill="#FFF229" d="M82.778 7.186V3.593h-3.593V0h-3.593H72h-3.593h-3.592h-3.594H57.63v3.593h-3.593v3.593h-3.593v3.592v3.593 v3.592v3.593v3.592h3.593v3.593h3.593v3.592h3.592v3.593h3.594h3.592H72h3.593h3.593h3.593v-3.593h3.592v-3.592v-3.593h-3.592 v-3.592v-3.593v-3.592h3.592v-3.593V7.186H82.778z M75.593 17.963v3.593H72h-3.593v-3.593v-3.592H72h3.593V17.963z"/><rect x="68.4" y="14.4" fill="#2761A6" width="3.6" height="3.6"/><rect x="72" y="14.4" fill="#FFFFFF" width="3.6" height="3.6"/><rect x="68.4" y="18" fill="#1C4481" width="3.6" height="3.6"/><rect x="72" y="18" fill="#2761A6" width="3.6" height="3.6"/></svg>