<svg xmlns="http://www.w3.org/2000/svg" xmlns:xlink="http://www.w3.org/1999/xlink" version="1.1" id="Layer_1" x="0px" y="0px" width="269px" height="210px" viewBox="0 0 269 210" enable-background="new 0 0 269 210" xml:space="preserve"><polygon fill="#FFA000" points="0.5,0 0.5,210 194.4,210 269.1,0"/><g><linearGradient id="SVGID_1_" gradientUnits="userSpaceOnUse" x1="135.5" y1="58.7" x2="135.5" y2="167" gradientTransform="matrix(0.9938 -0.1111 0.1111 0.9938 -6.1225 15.1884)"><stop offset="0" style="stop-color:#FFA000"/><stop offset="1" style="stop-color:#FF7E00"/></linearGradient><path fill="url(#SVGID_1_)" d="M0.5 0v111.411c39.72 3.8 129.7 4.6 241.873-36.295L269.075 0H0.5z"/></g><g><linearGradient id="SVGID_2_" gradientUnits="userSpaceOnUse" x1="136.2" y1="229.9" x2="123.4" y2="67.8" gradientTransform="matrix(1 0 0 -1 0 212)"><stop offset="0" style="stop-color:#FFA000"/><stop offset="1" style="stop-color:#FF7E00"/></linearGradient><path fill="url(#SVGID_2_)" d="M0.5 0v35.328C50.547 52.7 127.7 67.2 243.4 57.082c1.871-0.164 3.712-0.332 5.538-0.502 L269.075 0H0.5z"/></g><g opacity="0.4"><linearGradient id="SVGID_3_" gradientUnits="userSpaceOnUse" x1="69.2" y1="220.3" x2="66" y2="98.3" gradientTransform="matrix(1 0 0 -1 0 212)"><stop offset="0" style="stop-color:#FFBB00"/><stop offset="1" style="stop-color:#FFA000"/></linearGradient><path fill="url(#SVGID_3_)" d="M137.548 0H0.5v139.714C27.587 93 68 39.6 137.5 0z"/></g><g></g><g></g><g></g><g></g><g></g><g></g><g></g><g></g><g></g><g></g><g></g><g></g><g></g><g></g><g></g></svg>