<svg xmlns="http://www.w3.org/2000/svg" xmlns:xlink="http://www.w3.org/1999/xlink" version="1.1" x="0px" y="0px" width="31px" height="32px" viewBox="0 0 31 32" enable-background="new 0 0 31 32" xml:space="preserve"><g><g><g><path fill="#F0527B" d="M15.5 31.872l-5.209-5.209h10.418L15.5 31.872z"/></g><g><path fill-rule="evenodd" clip-rule="evenodd" fill="#F0527B" d="M31 25.128c0 1.1-0.9 2-2 2H2c-1.1 0-2-0.9-2-2v-23 c0-1.1 0.9-2 2-2h27c1.1 0 2 0.9 2 2V25.128z"/></g><g opacity="0.9"><path fill-rule="evenodd" clip-rule="evenodd" fill="#FFFFFF" d="M28 22.128c0 1.1-0.9 2-2 2H5c-1.1 0-2-0.9-2-2v-17 c0-1.1 0.9-2 2-2h21c1.1 0 2 0.9 2 2V22.128z"/></g></g><g><path fill-rule="evenodd" clip-rule="evenodd" fill="#F0527B" d="M17.201 7.826h-3.023c-1.08 0-1.707 0.832-1.847 1.3 l-2.565 3.011c-0.275 0.9 0.9 1.1 1.2 0.249l2.43-2.64h0.653l-1.784 7.031h1.767v5.076c0 0.9 1.3 1.1 1.3 0.2 v-5.268h0.878v1.887c0 0.9 1.3 1.1 1.3 0.16v-2.047h1.963L17.45 9.745h0.685l0.627 1.8 c0.274 0.9 1.5 0.6 1.201-0.244l-0.754-2.225C19.043 8.7 18.3 7.8 17.2 7.826z M15.77 7.6 c0.844 0 1.534-0.651 1.534-1.457c0-0.812-0.69-1.464-1.534-1.464c-0.85 0-1.534 0.651-1.534 1.5 C14.235 6.9 14.9 7.6 15.8 7.552z"/><path fill-rule="evenodd" clip-rule="evenodd" fill="#F0527B" d="M17.002 19.548c-0.349 0.061-0.681-0.172-0.742-0.52l0 0 c-0.062-0.348 0.171-0.68 0.52-0.742l2.849-0.504c0.349-0.062 0.7 0.2 0.7 0.518l0 0c0.062 0.35-0.172 0.682-0.52 0.7 L17.002 19.548z"/><path fill-rule="evenodd" clip-rule="evenodd" fill="#F0527B" d="M20.031 11.707c-0.117 0.334-0.484 0.509-0.818 0.392l0 0 c-0.333-0.118-0.508-0.483-0.39-0.817l0.964-2.729c0.119-0.333 0.484-0.509 0.818-0.391l0 0c0.333 0.1 0.5 0.5 0.4 0.8 L20.031 11.707z"/></g></g></svg>