<svg xmlns="http://www.w3.org/2000/svg" xmlns:xlink="http://www.w3.org/1999/xlink" version="1.1" x="0px" y="0px" width="31px" height="32px" viewBox="0 0 31 32" enable-background="new 0 0 31 32" xml:space="preserve"><g><g><path fill="#2987BC" d="M15.5 31.871l-5.209-5.208H20.71L15.5 31.871z"/></g><g><path fill-rule="evenodd" clip-rule="evenodd" fill="#2987BC" d="M31 25.127c0 1.1-0.9 2-2 2H2c-1.1 0-2-0.9-2-2V2.129 c0-1.1 0.9-2 2-2h27c1.1 0 2 0.9 2 2V25.127z"/></g><g opacity="0.9"><path fill-rule="evenodd" clip-rule="evenodd" fill="#FFFFFF" d="M28 22.127c0 1.1-0.9 2-2 2H5c-1.1 0-2-0.9-2-2V5.128 c0-1.1 0.9-2 2-2h21c1.1 0 2 0.9 2 2V22.127z"/></g><path fill-rule="evenodd" clip-rule="evenodd" fill="#2987BC" d="M24.444 17.019c-0.648-0.314-1.593-1.099-3.01-1.357 c0.358-0.419 0.639-1.06 0.922-1.822c0.154-0.441 0.121-0.821 0.121-1.355c0-0.404 0.077-1.029-0.023-1.379 c-0.304-1.181-1.096-1.508-2.02-1.508c-0.927 0-1.72 0.327-2.024 1.508c-0.092 0.35-0.024 0.99-0.024 1.4 c0 0.534-0.028 0.9 0.1 1.355c0.28 0.8 0.5 1.4 0.9 1.822c-0.451 0.083-0.854 0.228-1.214 0.4 c1.389 0.6 2.4 1.4 3.2 1.737c1.312 0.6 1.8 1.3 2 1.723h1.419c0.602 0 0.981-0.496 0.981-0.945v-0.219 C25.784 18.3 25.8 17.6 24.4 17.019z M19.873 17.778c-1.029-0.511-2.508-1.775-4.732-2.194 c0.557-0.677 0.999-1.715 1.439-2.941c0.246-0.724 0.199-1.333 0.199-2.187c0-0.663 0.121-1.668-0.039-2.24 c-0.479-1.905-1.72-2.43-3.168-2.43c-1.463 0-2.705 0.525-3.185 2.43c-0.138 0.572-0.038 1.601-0.038 2.2 c0 0.854-0.047 1.5 0.2 2.187c0.443 1.2 0.9 2.3 1.4 2.941C9.809 16 8.3 17.3 7.3 17.8 c-2.087 1.007-2.087 2.127-2.087 2.127v0.418c0 0.7 0.8 1.5 1.5 1.463h13.675c0.952 0 1.547-0.799 1.547-1.522v-0.358 C21.976 19.9 22 18.8 19.9 17.778z"/></g></svg>