<svg xmlns="http://www.w3.org/2000/svg" xmlns:xlink="http://www.w3.org/1999/xlink" version="1.1" id="Layer_1" x="0px" y="0px" viewBox="0 0 29 38" enable-background="new 0 0 29 38" xml:space="preserve"><path fill="#2D95BF" d="M-356.5-45.6l-12.5 7v14.1l6.9 3.9c1.8 1 2.6 2.1 4.1 4.9c0.6 1.2 1.5 4.1 1.5 4.1h0c0 0 0.9-2.9 1.5-4.1 c1.4-2.7 2.3-3.8 4.1-4.9l6.9-3.9v-14.1L-356.5-45.6z"/><polygon fill="#FFFFFF" stroke="#231F20" stroke-miterlimit="10" points="-1118.7,77.1 -1142.4,36 -1118.7,-5.1 -1071.3,-5.1 -1047.5,36 -1071.3,77.1"/><g><polygon fill="#231F20" points="-872.9,199.5 -872.9,186.1 -860.9,179.4 -848.9,186.1 -848.9,199.5 -860.9,206.2"/><path fill="#FFFFFF" d="M-860.9 179.9l11.5 6.4v12.8l-11.5 6.4l-11.5-6.4v-12.8L-860.9 179.9 M-860.9 178.8l-12.5 7v14l12.5 7 l12.5-7v-14L-860.9 178.8L-860.9 178.8z"/></g><g><polygon fill="#231F20" points="-803.9,204 -816.4,211 -828.9,204 -828.9,190 -816.4,183 -803.9,190"/></g><polygon fill="#FFFFFF" stroke="#231F20" stroke-miterlimit="10" points="-703.1,199 -715.6,205.3 -728.1,199 -728.1,186.5 -715.6,180.3 -703.1,186.5"/><path fill="#231F20" d="M-636.1-36.4l-6.4-2.4v0l0 0l0 0v0l-6.4 2.4c2 1 5.6 4 6.4 10.6c0 0 0 0.1 0 0.1c0 0 0 0 0-0.1 c0 0 0 0 0 0.1c0 0 0-0.1 0-0.1C-642.3-32.6-637.1-35.8-636.1-36.4z"/><path fill="#231F20" d="M-822 207.8c1.8 1 2.7 2.1 4.1 4.8c1.3 2.5 2 5.9 2 6.6c0-6.1 0-12.4 0-12.4h-5.1L-822 207.8z"/><path fill="#231F20" d="M-810.8 207.8c-1.8 1-2.7 2.1-4.1 4.8c-1.3 2.5-2 5.9-2 6.6c0-6.1 0-12.4 0-12.4h5.1L-810.8 207.8z"/><g><g><polygon fill="#231F20" points="-386.6,-682.3 -587,-570.1 -787.5,-682.3 -787.5,-906.8 -587,-1019 -386.6,-906.8"/></g><path fill="#231F20" d="M-513.2-636.1h-73h-1.4h-73l-15.9 15.9c28.6 16.4 42.7 34.3 65.5 77.8c10.4 19.9 18.1 43.1 23.4 63 c0 0 0.5 3.5 0.7 2.6c0.2 0.9 0.7-2.6 0.7-2.6c5.3-19.9 13-43.1 23.4-63c22.8-43.4 36.8-61.4 65.5-77.8L-513.2-636.1z"/></g><g><polygon fill="#231F20" points="238.2,-267 225.8,-260 213.2,-267 213.2,-281 225.8,-288 238.2,-281"/></g><g><polygon fill="#FFFFFF" points="-347.5,-26.5 -356.5,-21.5 -365.5,-26.5 -365.5,-36.6 -356.5,-41.7 -347.5,-36.6"/></g><path fill="#231F20" d="M230.4-264.1h-4.6h-0.1h-4.6l-1 1c1.8 1 2.7 2.1 4.1 4.8c0.7 1.2 1.1 2.7 1.5 3.9v0.3c0-0.1 0-0.1 0-0.2 c0 0.1 0 0.1 0 0.2v-0.3c0.3-1.2 0.8-2.7 1.5-3.9c1.4-2.7 2.3-3.8 4.1-4.8L230.4-264.1z"/><path fill="#231F20" d="M297.2-290l-12.5 7v14.1l6.9 3.9c1.8 1 2.6 2.1 4.1 4.9c0.6 1.2 1.5 4.1 1.5 4.1h0c0 0 0.9-2.9 1.5-4.1 c1.4-2.7 2.3-3.8 4.1-4.9l6.9-3.9V-283L297.2-290z"/><path fill="#231F20" d="M-621.5 231.5l-12.5 7v14.1l6.9 3.9c1.8 1 2.6 2.1 4.1 4.9c0.6 1.2 1.5 4.1 1.5 4.1h0c0 0 0.9-2.9 1.5-4.1 c1.4-2.7 2.3-3.8 4.1-4.9l6.9-3.9v-14.1L-621.5 231.5z"/><rect x="-252" y="-364" fill="#F15A5A" width="106" height="106"/><rect x="-376" y="-362" fill="#F89C1C" width="106" height="106"/><rect x="-617" y="-365" fill="#9FC419" width="106" height="106"/><rect x="-494" y="-365" fill="#F0C419" width="106" height="106"/><rect x="-733" y="-366" fill="#4EBA6F" width="106" height="106"/><rect x="-868" y="-369" fill="#2D95BF" width="106" height="106"/><rect x="-127" y="-363" fill="#955BA5" width="106" height="106"/><rect x="6" y="-363" fill="#6756B2" width="106" height="106"/><path fill-rule="evenodd" clip-rule="evenodd" fill="#2D95BF" d="M-349.8-29.9c-0.5-0.2-1.2-0.8-2.2-1c0.3-0.3 0.5-0.8 0.7-1.3 c0.1-0.3 0.1-0.6 0.1-1c0-0.3 0.1-0.8 0-1c-0.2-0.9-0.8-1.1-1.5-1.1c-0.7 0-1.3 0.2-1.5 1.1c-0.1 0.3 0 0.7 0 1c0 0.4 0 0.7 0.1 1 c0.2 0.6 0.4 1 0.7 1.3c-0.3 0.1-0.6 0.2-0.9 0.3c1 0.4 1.8 1 2.3 1.3c1 0.5 1.3 1 1.5 1.3h1c0.4 0 0.7-0.4 0.7-0.7v-0.2 C-348.8-28.9-348.8-29.5-349.8-29.9z M-353.2-29.4c-0.8-0.4-1.8-1.3-3.5-1.6c0.4-0.5 0.7-1.3 1.1-2.2c0.2-0.5 0.1-1 0.1-1.6 c0-0.5 0.1-1.2 0-1.6c-0.4-1.4-1.3-1.8-2.3-1.8c-1.1 0-2 0.4-2.3 1.8c-0.1 0.4 0 1.2 0 1.6c0 0.6 0 1.1 0.2 1.6 c0.3 0.9 0.6 1.7 1.1 2.2c-1.6 0.3-2.7 1.2-3.4 1.6c-1.5 0.7-1.5 1.6-1.5 1.6v0.3c0 0.5 0.6 1.1 1.1 1.1h10c0.7 0 1.1-0.6 1.1-1.1 v-0.3C-351.6-27.8-351.6-28.6-353.2-29.4z"/><circle fill-rule="evenodd" clip-rule="evenodd" fill="#F15A29" cx="-357.8" cy="-35.6" r="2.5"/><path fill="#2D95BF" d="M-322-45.6l-12.5 7v14.1l6.9 3.9c1.8 1 2.6 2.1 4.1 4.9c0.6 1.2 1.5 4.1 1.5 4.1h0c0 0 0.9-2.9 1.5-4.1 c1.4-2.7 2.3-3.8 4.1-4.9l6.9-3.9v-14.1L-322-45.6z"/><g><polygon fill="#FFFFFF" points="-313,-26.5 -322,-21.5 -331,-26.5 -331,-36.6 -322,-41.7 -313,-36.6"/></g><circle fill-rule="evenodd" clip-rule="evenodd" fill="#2D95BF" cx="-323.2" cy="-35.6" r="2.5"/><circle fill-rule="evenodd" clip-rule="evenodd" fill="#2D95BF" cx="-323.2" cy="-30.9" r="3.6"/><g><path fill="#2D95BF" d="M-129.5-56.5c-0.4 0-0.4-0.2-0.6-0.8c-0.3-0.9-0.8-2.7-1.3-3.5c-1.4-2.7-2.3-3.7-3.9-4.7l-7.2-4.2v-14.5 l13-7.3l13 7.3v14.5l-7.2 4.2c-1.6 0.9-2.4 1.9-3.9 4.7c-0.5 0.9-1 2.7-1.3 3.6C-129.1-56.7-129.1-56.5-129.5-56.5 C-129.5-56.5-129.5-56.5-129.5-56.5z"/><path fill="#FFFFFF" d="M-129.5-91l12.5 7v14l-6.9 4c-1.8 1-2.6 2.1-4.1 4.9c-0.6 1.2-1.5 4.1-1.5 4.1l0 0h0l0 0 c0 0-0.9-2.9-1.5-4.1c-1.4-2.7-2.3-3.8-4.1-4.9l-6.9-4v-14L-129.5-91 M-129.5-92.1l-0.5 0.3l-12.5 7l-0.5 0.3v0.6v14v0.6l0.5 0.3 l6.9 4c1.5 0.9 2.3 1.8 3.7 4.5c0.4 0.8 1 2.7 1.3 3.5c0.2 0.6 0.4 1.2 1.1 1.2c0 0 0 0 0 0c0.7 0 0.9-0.6 1.1-1.2 c0.3-0.8 0.8-2.6 1.3-3.5c1.4-2.7 2.1-3.6 3.7-4.5l6.9-4l0.5-0.3V-70v-14v-0.6l-0.5-0.3l-12.5-7L-129.5-92.1L-129.5-92.1z"/></g><g><polygon fill="#FFFFFF" points="-120,-72 -129.5,-67 -139,-72 -139,-82 -129.5,-87 -120,-82"/></g><g><path fill="#2D95BF" d="M-223.5-56.5c-0.4 0-0.4-0.2-0.6-0.8c-0.3-0.9-0.8-2.7-1.3-3.5c-1.4-2.7-2.3-3.7-3.9-4.7l-7.2-4.2v-14.5 l13-7.3l13 7.3v14.5l-7.2 4.2c-1.6 0.9-2.4 1.9-3.9 4.7c-0.5 0.9-1 2.7-1.3 3.6C-223.1-56.7-223.1-56.5-223.5-56.5 C-223.5-56.5-223.5-56.5-223.5-56.5z"/><path fill="#FFFFFF" d="M-223.5-91l12.5 7v14l-6.9 4c-1.8 1-2.6 2.1-4.1 4.9c-0.6 1.2-1.5 4.1-1.5 4.1l0 0h0l0 0 c0 0-0.9-2.9-1.5-4.1c-1.4-2.7-2.3-3.8-4.1-4.9l-6.9-4v-14L-223.5-91 M-223.5-92.1l-0.5 0.3l-12.5 7l-0.5 0.3v0.6v14v0.6l0.5 0.3 l6.9 4c1.5 0.9 2.3 1.8 3.7 4.5c0.4 0.8 1 2.7 1.3 3.5c0.2 0.6 0.4 1.2 1.1 1.2c0 0 0 0 0 0c0.7 0 0.9-0.6 1.1-1.2 c0.3-0.8 0.8-2.6 1.3-3.5c1.4-2.7 2.1-3.6 3.7-4.5l6.9-4l0.5-0.3V-70v-14v-0.6l-0.5-0.3l-12.5-7L-223.5-92.1L-223.5-92.1z"/></g><g><polygon fill="#FFFFFF" points="-214,-72 -223.5,-67 -233,-72 -233,-82 -223.5,-87 -214,-82"/></g><circle fill-rule="evenodd" clip-rule="evenodd" fill="#2D95BF" cx="-220" cy="-81.5" r="2.5"/><g><path fill-rule="evenodd" clip-rule="evenodd" fill="#2D95BF" d="M-223-72.5h0.5V-73c0-0.7-0.2-1.4-0.5-2V-72.5z"/><g><path fill-rule="evenodd" clip-rule="evenodd" fill="#2D95BF" d="M-220-79c0.7 0 1.4-0.3 1.9-0.8c-0.5-0.4-1.2-0.7-1.9-0.7 s-1.3 0.3-1.9 0.7C-221.4-79.3-220.7-79-220-79z"/><path fill-rule="evenodd" clip-rule="evenodd" fill="#2D95BF" d="M-220-78c-1 0-1.9-0.4-2.5-1.1c-0.3 0.5-0.5 1-0.5 1.6v0.9 c0.9 0.9 1.5 2.2 1.5 3.6v0.5h4.5v-5c0-0.6-0.2-1.1-0.5-1.6C-218.1-78.4-219-78-220-78z"/></g></g><g><path fill-rule="evenodd" clip-rule="evenodd" fill="#2D95BF" d="M-224.7-76.6c-0.5-0.3-1.1-0.4-1.8-0.4s-1.2 0.2-1.8 0.4 c0.5 0.4 1.1 0.6 1.8 0.6S-225.2-76.2-224.7-76.6z"/><circle fill-rule="evenodd" clip-rule="evenodd" fill="#2D95BF" cx="-226.5" cy="-79" r="3"/></g><path fill="#2D95BF" d="M-253.5-91l-12.5 7v14l6.9 4c1.8 1 2.6 2.1 4.1 4.9c0.6 1.2 1.5 4.1 1.5 4.1l0 0c0 0 0.9-2.9 1.5-4.1 c1.4-2.7 2.3-3.8 4.1-4.9l6.9-4v-14L-253.5-91z"/><g><polygon fill="#FFFFFF" points="-244,-72 -253.5,-67 -263,-72 -263,-82 -253.5,-87 -244,-82"/></g><path fill-rule="evenodd" clip-rule="evenodd" fill="#2D95BF" d="M-250-80.5c-1.7 0-3 1.3-3 3v5h6v-5C-247-79.2-248.3-80.5-250-80.5 z"/><g><circle fill-rule="evenodd" clip-rule="evenodd" fill="#2D95BF" cx="-250" cy="-81.5" r="3"/><path fill="#FFFFFF" d="M-250-84c1.4 0 2.5 1.1 2.5 2.5s-1.1 2.5-2.5 2.5s-2.5-1.1-2.5-2.5S-251.4-84-250-84 M-250-85 c-1.9 0-3.5 1.6-3.5 3.5s1.6 3.5 3.5 3.5s3.5-1.6 3.5-3.5S-248.1-85-250-85L-250-85z"/></g><g><path fill-rule="evenodd" clip-rule="evenodd" fill="#2D95BF" d="M-261-68.5V-73c0-2.5 2-4.5 4.5-4.5s4.5 2 4.5 4.5v4.5H-261z"/><path fill="#FFFFFF" d="M-256.5-77c2.2 0 4 1.8 4 4v4h-8v-4C-260.5-75.2-258.7-77-256.5-77 M-256.5-78c-2.8 0-5 2.2-5 5v4v1h1h8h1 v-1v-4C-251.5-75.8-253.7-78-256.5-78L-256.5-78z"/></g><g><path fill-rule="evenodd" clip-rule="evenodd" fill="#2D95BF" d="M-256.5-75.5c-1.9 0-3.5-1.6-3.5-3.5s1.6-3.5 3.5-3.5 s3.5 1.6 3.5 3.5S-254.5-75.5-256.5-75.5z"/><path fill="#FFFFFF" d="M-256.5-82c1.7 0 3 1.3 3 3s-1.3 3-3 3s-3-1.3-3-3S-258.1-82-256.5-82 M-256.5-83c-2.2 0-4 1.8-4 4 s1.8 4 4 4s4-1.8 4-4S-254.2-83-256.5-83L-256.5-83z"/></g><path fill-rule="evenodd" clip-rule="evenodd" fill="#2D95BF" d="M-126.6-79.8c0.6 0 1.2-0.3 1.6-0.7c-0.4-0.3-1-0.6-1.6-0.6 s-1.1 0.2-1.6 0.6C-127.8-80.1-127.3-79.8-126.6-79.8z"/><circle fill-rule="evenodd" clip-rule="evenodd" fill="#2D95BF" cx="-126.6" cy="-81.9" r="2.1"/><g><path fill-rule="evenodd" clip-rule="evenodd" fill="#2D95BF" d="M-129-74h0.3v-0.7c0-0.5-0.1-0.9-0.3-1.4V-74z"/><path fill-rule="evenodd" clip-rule="evenodd" fill="#2D95BF" d="M-124.4-79.7c-0.6 0.6-1.4 0.9-2.3 0.9s-1.6-0.4-2.1-0.9 c-0.2 0.4-0.2 0.8-0.2 1.2v0.7c0.8 0.8 1.3 1.9 1.3 3.1v0.7h3.7v-4.5C-124-79-124.2-79.4-124.4-79.7z"/></g><g><g><path fill-rule="evenodd" clip-rule="evenodd" fill="#2D95BF" d="M-129.7-77.2c-0.6 0.6-1.4 0.9-2.3 0.9s-1.7-0.3-2.3-0.9 c-0.6 0.6-1 1.5-1 2.4v3.4h6.7v-3.4C-128.7-75.7-129.1-76.5-129.7-77.2z"/></g><circle fill-rule="evenodd" clip-rule="evenodd" fill="#2D95BF" cx="-132.1" cy="-79.8" r="2.5"/></g><g><path fill="#2D95BF" d="M-129.5-10.5c-0.4 0-0.4-0.2-0.6-0.8c-0.3-0.9-0.8-2.7-1.3-3.5c-1.4-2.7-2.3-3.7-3.9-4.7l-7.2-4.2v-14.5 l13-7.3l13 7.3v14.5l-7.2 4.2c-1.6 0.9-2.4 1.9-3.9 4.7c-0.5 0.9-1 2.7-1.3 3.6C-129.1-10.7-129.1-10.5-129.5-10.5 C-129.5-10.5-129.5-10.5-129.5-10.5z"/><path fill="#FFFFFF" d="M-129.5-45l12.5 7v14l-6.9 4c-1.8 1-2.6 2.1-4.1 4.9c-0.6 1.2-1.5 4.1-1.5 4.1l0 0h0l0 0 c0 0-0.9-2.9-1.5-4.1c-1.4-2.7-2.3-3.8-4.1-4.9l-6.9-4v-14L-129.5-45 M-129.5-46.1l-0.5 0.3l-12.5 7l-0.5 0.3v0.6v14v0.6l0.5 0.3 l6.9 4c1.5 0.9 2.3 1.8 3.7 4.5c0.4 0.8 1 2.7 1.3 3.5c0.2 0.6 0.4 1.2 1.1 1.2c0 0 0 0 0 0c0.7 0 0.9-0.6 1.1-1.2 c0.3-0.8 0.8-2.6 1.3-3.5c1.4-2.7 2.1-3.6 3.7-4.5l6.9-4l0.5-0.3V-24v-14v-0.6l-0.5-0.3l-12.5-7L-129.5-46.1L-129.5-46.1z"/></g><g><polygon fill="#FFFFFF" points="-120,-26 -129.5,-21 -139,-26 -139,-36 -129.5,-41 -120,-36"/></g><path fill-rule="evenodd" clip-rule="evenodd" fill="#2D95BF" d="M-126.6-33.8c0.6 0 1.2-0.3 1.6-0.7c-0.4-0.3-1-0.6-1.6-0.6 s-1.1 0.2-1.6 0.6C-127.8-34.1-127.3-33.8-126.6-33.8z"/><circle fill-rule="evenodd" clip-rule="evenodd" fill="#2D95BF" cx="-126.6" cy="-35.9" r="2.1"/><g><path fill-rule="evenodd" clip-rule="evenodd" fill="#2D95BF" d="M-129-28h0.3v-0.7c0-0.5-0.1-0.9-0.3-1.4V-28z"/><path fill-rule="evenodd" clip-rule="evenodd" fill="#2D95BF" d="M-124.4-33.7c-0.6 0.6-1.4 0.9-2.3 0.9s-1.6-0.4-2.1-0.9 c-0.2 0.4-0.2 0.8-0.2 1.2v0.7c0.8 0.8 1.3 1.9 1.3 3.1v0.7h3.7v-4.5C-124-33-124.2-33.4-124.4-33.7z"/></g><g><g><path fill-rule="evenodd" clip-rule="evenodd" fill="#2D95BF" d="M-129.7-31.2c-0.6 0.6-1.4 0.9-2.3 0.9s-1.7-0.3-2.3-0.9 c-0.6 0.6-1 1.5-1 2.4v3.4h6.7v-3.4C-128.7-29.7-129.1-30.5-129.7-31.2z"/></g><circle fill-rule="evenodd" clip-rule="evenodd" fill="#2D95BF" cx="-132.1" cy="-33.8" r="2.5"/></g><g><path fill="#2D95BF" d="M-130.3 36.2c0 0-0.6-1.9-1.2-3.1c-1.4-2.6-3.1-4.1-3.2-4.1c-0.4-0.3-1.1-0.8-1.6-1l-6.1-3.1 c-0.7-0.3-1.2-1.2-1.2-1.9V9c0-0.7 0.5-1.6 1.2-1.9l11.7-6.1c0.3-0.2 0.7-0.2 1.1-0.2s0.8 0.1 1.1 0.2l11.7 6.1 c0.6 0.3 1.2 1.2 1.2 1.9v14c0 0.7-0.5 1.6-1.2 1.9l-6.2 3.1c-0.5 0.2-1.2 0.7-1.6 1c0 0-1.8 1.5-3.2 4.1c-0.6 1.2-1.2 3.1-1.2 3.1 l-0.8 1.8L-130.3 36.2z"/><path fill="#FFFFFF" d="M-129.5 1.3c0.3 0 0.6 0.1 0.9 0.2l11.7 6.1c0.5 0.3 0.9 0.9 0.9 1.5v14c0 0.5-0.4 1.2-0.9 1.5l-6.1 3.1 c-0.5 0.2-1.2 0.7-1.7 1.1c0 0-1.9 1.5-3.3 4.2c-0.6 1.2-1.2 3.2-1.2 3.2c-0.2 0.5-0.3 1-0.3 1s-0.1-0.4-0.3-1c0 0-0.6-1.9-1.2-3.2 c-1.4-2.7-3.3-4.2-3.3-4.2c-0.4-0.3-1.2-0.8-1.7-1.1l-6.1-3.1c-0.5-0.2-0.9-0.9-0.9-1.5V9c0-0.6 0.4-1.2 0.9-1.5l11.7-6.1 C-130.1 1.3-129.8 1.3-129.5 1.3 M-129.5 0.3c-0.5 0-1 0.1-1.3 0.3l-11.7 6.1c-0.8 0.4-1.4 1.4-1.4 2.3v14c0 0.9 0.6 1.9 1.4 2.3 l6.1 3.1c0.4 0.2 1.1 0.7 1.5 1c0 0 1.7 1.4 3 3.9c0.6 1.1 1.1 3 1.1 3c0.4 1.3 0.5 1.7 1.2 1.7s0.9-0.4 1.2-1.7c0 0 0.6-1.8 1.1-3 c1.3-2.5 3-3.9 3-3.9c0.4-0.3 1.1-0.8 1.5-1l6.1-3.1c0.8-0.4 1.4-1.4 1.4-2.3V9c0-0.9-0.6-1.9-1.4-2.3l-11.7-6.1 C-128.5 0.4-129 0.3-129.5 0.3L-129.5 0.3z"/></g><g><path fill="#FFFFFF" d="M-119 21c0 0.6-0.4 1.2-0.9 1.4l-8.7 4.1c-0.5 0.2-1.3 0.2-1.8 0l-8.7-4.1c-0.5-0.2-0.9-0.9-0.9-1.4V11 c0-0.6 0.4-1.2 0.9-1.4l8.7-4.1c0.5-0.2 1.3-0.2 1.8 0l8.7 4.1c0.5 0.2 0.9 0.9 0.9 1.4V21z"/></g><circle fill-rule="evenodd" clip-rule="evenodd" fill="#2D95BF" cx="-126.8" cy="11" r="2.2"/><g><g><path fill-rule="evenodd" clip-rule="evenodd" fill="#2D95BF" d="M-130 15.9c-0.7 0.6-1.5 0.9-2.4 0.9s-1.8-0.4-2.4-0.9 c-0.7 0.6-1.1 1.5-1.1 2.5V22h7.1v-3.5C-128.9 17.5-129.4 16.6-130 15.9z"/></g><circle fill-rule="evenodd" clip-rule="evenodd" fill="#2D95BF" cx="-132.5" cy="13.2" r="2.7"/><g><g><path fill-rule="evenodd" clip-rule="evenodd" fill="#2D95BF" d="M-124.2 12.9c-0.6 0.8-1.5 1.3-2.6 1.3c-0.8 0-1.5-0.3-2.1-0.8 c0 0.6-0.2 1.2-0.6 1.8l0.1 0.1c0.9 0.9 1.4 2 1.4 3.3V19h4.9v-3.5C-123 14.4-123.5 13.5-124.2 12.9z"/></g></g></g><g><path fill="#4EBA6F" stroke="#FFFFFF" stroke-miterlimit="10" d="M-94.3 36.2c0 0-0.6-1.9-1.2-3.1c-1.4-2.6-3.1-4.1-3.2-4.1 c-0.4-0.3-1.1-0.8-1.6-1l-6.1-3.1c-0.7-0.3-1.2-1.2-1.2-1.9V9c0-0.7 0.5-1.6 1.2-1.9L-94.6 1c0.3-0.2 0.7-0.2 1.1-0.2 s0.8 0.1 1.1 0.2l11.7 6.1c0.6 0.3 1.2 1.2 1.2 1.9v14c0 0.7-0.5 1.6-1.2 1.9l-6.2 3.1c-0.5 0.2-1.2 0.7-1.6 1c0 0-1.8 1.5-3.2 4.1 c-0.6 1.2-1.2 3.1-1.2 3.1l-0.8 1.8L-94.3 36.2z"/><path fill="#FFFFFF" d="M-93.5 1.3c0.3 0 0.6 0.1 0.9 0.2l11.7 6.1C-80.4 7.8-80 8.5-80 9v14c0 0.5-0.4 1.2-0.9 1.5l-6.1 3.1 c-0.5 0.2-1.2 0.7-1.7 1.1c0 0-1.9 1.5-3.3 4.2c-0.6 1.2-1.2 3.2-1.2 3.2c-0.2 0.5-0.3 1-0.3 1s-0.1-0.4-0.3-1c0 0-0.6-1.9-1.2-3.2 c-1.4-2.7-3.3-4.2-3.3-4.2c-0.4-0.3-1.2-0.8-1.7-1.1l-6.1-3.1c-0.5-0.2-0.9-0.9-0.9-1.5V9c0-0.6 0.4-1.2 0.9-1.5l11.7-6.1 C-94.1 1.3-93.8 1.3-93.5 1.3 M-93.5 0.3c-0.5 0-1 0.1-1.3 0.3l-11.7 6.1c-0.8 0.4-1.4 1.4-1.4 2.3v14c0 0.9 0.6 1.9 1.4 2.3 l6.1 3.1c0.4 0.2 1.1 0.7 1.5 1c0 0 1.7 1.4 3 3.9c0.6 1.1 1.1 3 1.1 3c0.4 1.3 0.5 1.7 1.2 1.7s0.9-0.4 1.2-1.7c0 0 0.6-1.8 1.1-3 c1.3-2.5 3-3.9 3-3.9c0.4-0.3 1.1-0.8 1.5-1l6.1-3.1c0.8-0.4 1.4-1.4 1.4-2.3V9c0-0.9-0.6-1.9-1.4-2.3l-11.7-6.1 C-92.5 0.4-93 0.3-93.5 0.3L-93.5 0.3z"/></g><g><path fill="#FFFFFF" d="M-83 21c0 0.6-0.4 1.2-0.9 1.4l-8.7 4.1c-0.5 0.2-1.3 0.2-1.8 0l-8.7-4.1c-0.5-0.2-0.9-0.9-0.9-1.4V11 c0-0.6 0.4-1.2 0.9-1.4l8.7-4.1c0.5-0.2 1.3-0.2 1.8 0l8.7 4.1c0.5 0.2 0.9 0.9 0.9 1.4V21z"/></g><g><path fill="#F0C419" stroke="#FFFFFF" stroke-miterlimit="10" d="M-58.3 36.2c0 0-0.6-1.9-1.2-3.1c-1.4-2.6-3.1-4.1-3.2-4.1 c-0.4-0.3-1.1-0.8-1.6-1l-6.1-3.1c-0.7-0.3-1.2-1.2-1.2-1.9V9c0-0.7 0.5-1.6 1.2-1.9L-58.6 1c0.3-0.2 0.7-0.2 1.1-0.2 s0.8 0.1 1.1 0.2l11.7 6.1c0.6 0.3 1.2 1.2 1.2 1.9v14c0 0.7-0.5 1.6-1.2 1.9l-6.2 3.1c-0.5 0.2-1.2 0.7-1.6 1c0 0-1.8 1.5-3.2 4.1 c-0.6 1.2-1.2 3.1-1.2 3.1l-0.8 1.8L-58.3 36.2z"/><path fill="#FFFFFF" d="M-57.5 1.3c0.3 0 0.6 0.1 0.9 0.2l11.7 6.1C-44.4 7.8-44 8.5-44 9v14c0 0.5-0.4 1.2-0.9 1.5l-6.1 3.1 c-0.5 0.2-1.2 0.7-1.7 1.1c0 0-1.9 1.5-3.3 4.2c-0.6 1.2-1.2 3.2-1.2 3.2c-0.2 0.5-0.3 1-0.3 1s-0.1-0.4-0.3-1c0 0-0.6-1.9-1.2-3.2 c-1.4-2.7-3.3-4.2-3.3-4.2c-0.4-0.3-1.2-0.8-1.7-1.1l-6.1-3.1c-0.5-0.2-0.9-0.9-0.9-1.5V9c0-0.6 0.4-1.2 0.9-1.5l11.7-6.1 C-58.1 1.3-57.8 1.3-57.5 1.3 M-57.5 0.3c-0.5 0-1 0.1-1.3 0.3l-11.7 6.1C-71.4 7.1-72 8.1-72 9v14c0 0.9 0.6 1.9 1.4 2.3l6.1 3.1 c0.4 0.2 1.1 0.7 1.5 1c0 0 1.7 1.4 3 3.9c0.6 1.1 1.1 3 1.1 3c0.4 1.3 0.5 1.7 1.2 1.7s0.9-0.4 1.2-1.7c0 0 0.6-1.8 1.1-3 c1.3-2.5 3-3.9 3-3.9c0.4-0.3 1.1-0.8 1.5-1l6.1-3.1c0.8-0.4 1.4-1.4 1.4-2.3V9c0-0.9-0.6-1.9-1.4-2.3l-11.7-6.1 C-56.5 0.4-57 0.3-57.5 0.3L-57.5 0.3z"/></g><g><path fill="#FFFFFF" d="M-47 21c0 0.6-0.4 1.2-0.9 1.4l-8.7 4.1c-0.5 0.2-1.3 0.2-1.8 0l-8.7-4.1c-0.5-0.2-0.9-0.9-0.9-1.4V11 c0-0.6 0.4-1.2 0.9-1.4l8.7-4.1c0.5-0.2 1.3-0.2 1.8 0l8.7 4.1c0.5 0.2 0.9 0.9 0.9 1.4V21z"/></g><g><path fill="#F89C1C" stroke="#FFFFFF" stroke-miterlimit="10" d="M-22.3 36.2c0 0-0.6-1.9-1.2-3.1c-1.4-2.6-3.1-4.1-3.2-4.1 c-0.4-0.3-1.1-0.8-1.6-1l-6.1-3.1c-0.7-0.3-1.2-1.2-1.2-1.9V9c0-0.7 0.5-1.6 1.2-1.9L-22.6 1c0.3-0.2 0.7-0.2 1.1-0.2 s0.8 0.1 1.1 0.2l11.7 6.1C-8 7.5-7.5 8.3-7.5 9v14c0 0.7-0.5 1.6-1.2 1.9l-6.2 3.1c-0.5 0.2-1.2 0.7-1.6 1c0 0-1.8 1.5-3.2 4.1 c-0.6 1.2-1.2 3.1-1.2 3.1l-0.8 1.8L-22.3 36.2z"/><path fill="#FFFFFF" d="M-21.5 1.3c0.3 0 0.6 0.1 0.9 0.2l11.7 6.1C-8.4 7.8-8 8.5-8 9v14c0 0.5-0.4 1.2-0.9 1.5l-6.1 3.1 c-0.5 0.2-1.2 0.7-1.7 1.1c0 0-1.9 1.5-3.3 4.2c-0.6 1.2-1.2 3.2-1.2 3.2c-0.2 0.5-0.3 1-0.3 1s-0.1-0.4-0.3-1c0 0-0.6-1.9-1.2-3.2 c-1.4-2.7-3.3-4.2-3.3-4.2c-0.4-0.3-1.2-0.8-1.7-1.1l-6.1-3.1c-0.5-0.2-0.9-0.9-0.9-1.5V9c0-0.6 0.4-1.2 0.9-1.5l11.7-6.1 C-22.1 1.3-21.8 1.3-21.5 1.3 M-21.5 0.3c-0.5 0-1 0.1-1.3 0.3l-11.7 6.1C-35.4 7.1-36 8.1-36 9v14c0 0.9 0.6 1.9 1.4 2.3l6.1 3.1 c0.4 0.2 1.1 0.7 1.5 1c0 0 1.7 1.4 3 3.9c0.6 1.1 1.1 3 1.1 3c0.4 1.3 0.5 1.7 1.2 1.7s0.9-0.4 1.2-1.7c0 0 0.6-1.8 1.1-3 c1.3-2.5 3-3.9 3-3.9c0.4-0.3 1.1-0.8 1.5-1l6.1-3.1C-7.6 24.9-7 23.9-7 23V9c0-0.9-0.6-1.9-1.4-2.3l-11.7-6.1 C-20.5 0.4-21 0.3-21.5 0.3L-21.5 0.3z"/></g><g><path fill="#FFFFFF" d="M-11 21c0 0.6-0.4 1.2-0.9 1.4l-8.7 4.1c-0.5 0.2-1.3 0.2-1.8 0l-8.7-4.1c-0.5-0.2-0.9-0.9-0.9-1.4V11 c0-0.6 0.4-1.2 0.9-1.4l8.7-4.1c0.5-0.2 1.3-0.2 1.8 0l8.7 4.1c0.5 0.2 0.9 0.9 0.9 1.4V21z"/></g><g><path fill="#F15A5A" stroke="#FFFFFF" stroke-miterlimit="10" d="M13.7 36.2c0 0-0.6-1.9-1.2-3.1c-1.4-2.6-3.1-4.1-3.2-4.1 c-0.4-0.3-1.1-0.8-1.6-1l-6.1-3.1C1 24.6 0.5 23.7 0.5 23V9c0-0.7 0.5-1.6 1.2-1.9L13.4 1c0.3-0.2 0.7-0.2 1.1-0.2s0.8 0.1 1.1 0.2 l11.7 6.1C28 7.5 28.5 8.3 28.5 9v14c0 0.7-0.5 1.6-1.2 1.9L21.2 28c-0.5 0.2-1.2 0.7-1.6 1c0 0-1.8 1.5-3.2 4.1 c-0.6 1.2-1.2 3.1-1.2 3.1L14.5 38L13.7 36.2z"/><path fill="#FFFFFF" d="M14.5 1.3c0.3 0 0.6 0.1 0.9 0.2l11.7 6.1C27.6 7.8 28 8.5 28 9v14c0 0.5-0.4 1.2-0.9 1.5L21 27.6 c-0.5 0.2-1.2 0.7-1.7 1.1c0 0-1.9 1.5-3.3 4.2c-0.6 1.2-1.2 3.2-1.2 3.2c-0.2 0.5-0.3 1-0.3 1s-0.1-0.4-0.3-1c0 0-0.6-1.9-1.2-3.2 c-1.4-2.7-3.3-4.2-3.3-4.2c-0.4-0.3-1.2-0.8-1.7-1.1l-6.1-3.1C1.4 24.2 1 23.5 1 23V9c0-0.6 0.4-1.2 0.9-1.5l11.7-6.1 C13.9 1.3 14.2 1.3 14.5 1.3 M14.5 0.3c-0.5 0-1 0.1-1.3 0.3L1.4 6.7C0.6 7.1 0 8.1 0 9v14c0 0.9 0.6 1.9 1.4 2.3l6.1 3.1 c0.4 0.2 1.1 0.7 1.5 1c0 0 1.7 1.4 3 3.9c0.6 1.1 1.1 3 1.1 3c0.4 1.3 0.5 1.7 1.2 1.7s0.9-0.4 1.2-1.7c0 0 0.6-1.8 1.1-3 c1.3-2.5 3-3.9 3-3.9c0.4-0.3 1.1-0.8 1.5-1l6.1-3.1c0.8-0.4 1.4-1.4 1.4-2.3V9c0-0.9-0.6-1.9-1.4-2.3L15.8 0.6 C15.5 0.4 15 0.3 14.5 0.3L14.5 0.3z"/></g><g><path fill="#FFFFFF" d="M25 21c0 0.6-0.4 1.2-0.9 1.4l-8.7 4.1c-0.5 0.2-1.3 0.2-1.8 0l-8.7-4.1C4.4 22.2 4 21.5 4 21V11 c0-0.6 0.4-1.2 0.9-1.4l8.7-4.1c0.5-0.2 1.3-0.2 1.8 0l8.7 4.1C24.6 9.8 25 10.4 25 11V21z"/></g><g><path fill="#955BA5" stroke="#FFFFFF" stroke-miterlimit="10" d="M49.7 36.2c0 0-0.6-1.9-1.2-3.1c-1.4-2.6-3.1-4.1-3.2-4.1 c-0.4-0.3-1.1-0.8-1.6-1l-6.1-3.1c-0.7-0.3-1.2-1.2-1.2-1.9V9c0-0.7 0.5-1.6 1.2-1.9L49.4 1c0.3-0.2 0.7-0.2 1.1-0.2 s0.8 0.1 1.1 0.2l11.7 6.1C64 7.5 64.5 8.3 64.5 9v14c0 0.7-0.5 1.6-1.2 1.9L57.2 28c-0.5 0.2-1.2 0.7-1.6 1c0 0-1.8 1.5-3.2 4.1 c-0.6 1.2-1.2 3.1-1.2 3.1L50.5 38L49.7 36.2z"/><path fill="#FFFFFF" d="M50.5 1.3c0.3 0 0.6 0.1 0.9 0.2l11.7 6.1C63.6 7.8 64 8.5 64 9v14c0 0.5-0.4 1.2-0.9 1.5L57 27.6 c-0.5 0.2-1.2 0.7-1.7 1.1c0 0-1.9 1.5-3.3 4.2c-0.6 1.2-1.2 3.2-1.2 3.2c-0.2 0.5-0.3 1-0.3 1s-0.1-0.4-0.3-1c0 0-0.6-1.9-1.2-3.2 c-1.4-2.7-3.3-4.2-3.3-4.2c-0.4-0.3-1.2-0.8-1.7-1.1l-6.1-3.1C37.4 24.2 37 23.5 37 23V9c0-0.6 0.4-1.2 0.9-1.5l11.7-6.1 C49.9 1.3 50.2 1.3 50.5 1.3 M50.5 0.3c-0.5 0-1 0.1-1.3 0.3L37.4 6.7C36.6 7.1 36 8.1 36 9v14c0 0.9 0.6 1.9 1.4 2.3l6.1 3.1 c0.4 0.2 1.1 0.7 1.5 1c0 0 1.7 1.4 3 3.9c0.6 1.1 1.1 3 1.1 3c0.4 1.3 0.5 1.7 1.2 1.7s0.9-0.4 1.2-1.7c0 0 0.6-1.8 1.1-3 c1.3-2.5 3-3.9 3-3.9c0.4-0.3 1.1-0.8 1.5-1l6.1-3.1c0.8-0.4 1.4-1.4 1.4-2.3V9c0-0.9-0.6-1.9-1.4-2.3L51.8 0.6 C51.5 0.4 51 0.3 50.5 0.3L50.5 0.3z"/></g><g><path fill="#FFFFFF" d="M61 21c0 0.6-0.4 1.2-0.9 1.4l-8.7 4.1c-0.5 0.2-1.3 0.2-1.8 0l-8.7-4.1C40.4 22.2 40 21.5 40 21V11 c0-0.6 0.4-1.2 0.9-1.4l8.7-4.1c0.5-0.2 1.3-0.2 1.8 0l8.7 4.1C60.6 9.8 61 10.4 61 11V21z"/></g><g><path fill="#2D95BF" d="M-298.3 36.2c0 0-0.6-1.9-1.2-3.1c-1.4-2.6-3.1-4.1-3.2-4.1c-0.4-0.3-1.1-0.8-1.6-1l-6.1-3.1 c-0.7-0.3-1.2-1.2-1.2-1.9V9c0-0.7 0.5-1.6 1.2-1.9l11.7-6.1c0.3-0.2 0.7-0.2 1.1-0.2s0.8 0.1 1.1 0.2l11.7 6.1 c0.6 0.3 1.2 1.2 1.2 1.9v14c0 0.7-0.5 1.6-1.2 1.9l-6.2 3.1c-0.5 0.2-1.2 0.7-1.6 1c0 0-1.8 1.5-3.2 4.1c-0.6 1.2-1.2 3.1-1.2 3.1 l-0.8 2.6L-298.3 36.2z"/><path fill="#FFFFFF" d="M-297.5 1.3c0.3 0 0.6 0.1 0.9 0.2l11.7 6.1c0.5 0.3 0.9 0.9 0.9 1.5v14c0 0.5-0.4 1.2-0.9 1.5l-6.1 3.1 c-0.5 0.2-1.2 0.7-1.7 1.1c0 0-1.9 1.5-3.3 4.2c-0.6 1.2-1.2 3.2-1.2 3.2c-0.2 0.5-0.3 1-0.3 1s-0.1-0.4-0.3-1c0 0-0.6-1.9-1.2-3.2 c-1.4-2.7-3.3-4.2-3.3-4.2c-0.4-0.3-1.2-0.8-1.7-1.1l-6.1-3.1c-0.5-0.2-0.9-0.9-0.9-1.5V9c0-0.6 0.4-1.2 0.9-1.5l11.7-6.1 C-298.1 1.3-297.8 1.3-297.5 1.3 M-297.5 0.3c-0.5 0-1 0.1-1.3 0.3l-11.7 6.1c-0.8 0.4-1.4 1.4-1.4 2.3v14c0 0.9 0.6 1.9 1.4 2.3 l6.1 3.1c0.4 0.2 1.1 0.7 1.5 1c0 0 1.7 1.4 3 3.9c0.6 1.1 1.1 3 1.1 3c0.4 1.3 0.5 1.7 1.2 1.7s0.9-0.4 1.2-1.7c0 0 0.6-1.8 1.1-3 c1.3-2.5 3-3.9 3-3.9c0.4-0.3 1.1-0.8 1.5-1l6.1-3.1c0.8-0.4 1.4-1.4 1.4-2.3V9c0-0.9-0.6-1.9-1.4-2.3l-11.7-6.1 C-296.5 0.4-297 0.3-297.5 0.3L-297.5 0.3z"/></g><g><path fill="#FFFFFF" d="M-287 21c0 0.6-0.4 1.2-0.9 1.4l-8.7 4.1c-0.5 0.2-1.3 0.2-1.8 0l-8.7-4.1c-0.5-0.2-0.9-0.9-0.9-1.4V11 c0-0.6 0.4-1.2 0.9-1.4l8.7-4.1c0.5-0.2 1.3-0.2 1.8 0l8.7 4.1c0.5 0.2 0.9 0.9 0.9 1.4V21z"/></g><path fill-rule="evenodd" clip-rule="evenodd" fill="#2D95BF" d="M-294.8 13.2c0.7 0 1.2-0.3 1.6-0.7c-0.5-0.4-1-0.6-1.6-0.6 s-1.2 0.2-1.6 0.6C-296 12.9-295.4 13.2-294.8 13.2z"/><circle fill-rule="evenodd" clip-rule="evenodd" fill="#2D95BF" cx="-294.8" cy="11" r="2.2"/><g><g><path fill-rule="evenodd" clip-rule="evenodd" fill="#2D95BF" d="M-298 15.9c-0.7 0.6-1.5 0.9-2.4 0.9c-0.9 0-1.8-0.4-2.4-0.9 c-0.7 0.6-1.1 1.5-1.1 2.5V22h7.1v-3.5C-296.9 17.5-297.4 16.6-298 15.9z"/></g><circle fill-rule="evenodd" clip-rule="evenodd" fill="#2D95BF" cx="-300.5" cy="13.2" r="2.7"/><g><g><path fill-rule="evenodd" clip-rule="evenodd" fill="#2D95BF" d="M-292.2 12.9c-0.6 0.8-1.5 1.3-2.6 1.3c-0.8 0-1.5-0.3-2.1-0.8 c0 0.6-0.2 1.2-0.6 1.8l0.1 0.1c0.9 0.9 1.4 2 1.4 3.3V19h4.9v-3.5C-291 14.4-291.5 13.5-292.2 12.9z"/></g></g></g><g><path fill="#2D95BF" d="M1126-477.5c-0.5-0.3-1.3-0.3-1.8 0L679-245.4c-0.5 0.3-0.9 0.9-0.9 1.5v526.5c0 0.6 0.4 1.2 0.9 1.5 l260.9 132.2c0.5 0.2 1.2 0.7 1.7 1.1c0 0 86.8 70.6 133.7 160.4c21.4 40.9 49.6 135.4 49.6 135.4c0.2 0.5 0.3 1 0.3 1 c0 0 0.1-0.4 0.3-1c0 0 28.2-94.4 49.6-135.4c46.9-89.8 133.7-160.4 133.7-160.4c0.4-0.3 1.2-0.8 1.7-1.1L1571.2 284 c0.5-0.2 0.9-0.9 0.9-1.5v-526.5c0-0.6-0.4-1.2-0.9-1.5L1126-477.5z"/></g><g><path fill="#FFFFFF" d="M1472.8 216.3c0 0.5-0.4 1.2-0.9 1.4L1126 382.5c-0.5 0.2-1.3 0.2-1.8 0L778.4 217.8 c-0.5-0.2-0.9-0.9-0.9-1.4V-179c0-0.6 0.4-1.2 0.9-1.4l345.9-164.7c0.5-0.2 1.3-0.2 1.8 0l345.9 164.7c0.5 0.2 0.9 0.9 0.9 1.4 V216.3z"/></g><path fill-rule="evenodd" clip-rule="evenodd" fill="#2D95BF" d="M1215.9-75.3c21.7 0 40.9-9.6 54.3-24.6 c-15-11.9-33.7-19.3-54.3-19.3s-39.3 7.4-54.3 19.3C1174.9-84.9 1194.2-75.3 1215.9-75.3z"/><circle fill-rule="evenodd" clip-rule="evenodd" fill="#2D95BF" cx="1215.9" cy="-148.5" r="73.2"/><g><g><path fill-rule="evenodd" clip-rule="evenodd" fill="#2D95BF" d="M1107.9 15.9c-21.6 19.2-49.8 31.2-80.9 31.2 c-31.1 0-59.3-12-80.9-31.2c-22.2 21.3-36.2 51.1-36.2 84.3v117.1H1144V100.3C1144 67.1 1130.1 37.2 1107.9 15.9z"/></g><path fill-rule="evenodd" clip-rule="evenodd" fill="#2D95BF" d="M1027-163.1c-48.5 0-87.8 39.3-87.8 87.8s39.3 87.8 87.8 87.8 c48.5 0 87.8-39.3 87.8-87.8S1075.5-163.1 1027-163.1z"/><g><g><path fill-rule="evenodd" clip-rule="evenodd" fill="#2D95BF" d="M1300.4-84.8c-19.4 25.7-49.9 42.6-84.5 42.6 c-26.4 0-50.1-10.2-68.7-26.2c-1.2 21.4-7.7 41.3-18.7 58.3l2.3 2.2c29.9 28.7 46.4 67.1 46.4 108.2V118h163.2V2.1 C1340.4-32.7 1324.7-63.5 1300.4-84.8z"/></g></g></g><g><path fill="#2D95BF" d="M-259.5 38c-0.4 0-0.4-0.4-0.6-1.1c-0.3-0.9-0.8-2.8-1.3-3.7c-1.4-2.7-2.5-3.8-4.1-4.7l-8.4-4.2V7.7l14-7.3 l14 7.3v16.6l-8 4.2c-1.6 0.9-2.3 1.9-3.7 4.6c-0.5 0.9-1 2.9-1.2 3.8C-259.1 37.5-259.1 38-259.5 38C-259.5 38-259.5 38-259.5 38z "/><path fill="#FFFFFF" d="M-259.5 1l13.5 7v16l-7.9 4c-1.8 1-2.6 2.1-4.1 4.9c-0.6 1.2-1.5 4.1-1.5 4.1h0h0h0c0 0-0.9-2.9-1.5-4.1 c-1.4-2.7-2.3-3.8-4.1-4.9l-7.9-4V8L-259.5 1 M-259.5-0.1l-0.5 0.2l-13.5 7l-0.5 0.3V8v16v0.6l0.5 0.3l7.9 4 c1.5 0.9 2.3 1.8 3.7 4.4c0.4 0.8 1 2.7 1.3 3.5c0.2 0.6 0.4 1.2 1.1 1.2c0 0 0 0 0 0c0.7 0 0.9-0.6 1.1-1.2 c0.3-0.8 0.8-2.6 1.3-3.5c1.4-2.6 2.1-3.6 3.7-4.4l7.9-4l0.5-0.3V24V8V7.4l-0.5-0.3l-13.5-7L-259.5-0.1L-259.5-0.1z"/></g><g><polygon fill="#FFFFFF" points="-249,22 -259.5,27 -270,22 -270,10 -259.5,5 -249,10"/></g><path fill-rule="evenodd" clip-rule="evenodd" fill="#2D95BF" d="M-256.8 13.2c0.7 0 1.2-0.3 1.6-0.7c-0.5-0.4-1-0.6-1.6-0.6 s-1.2 0.2-1.6 0.6C-258 12.9-257.4 13.2-256.8 13.2z"/><circle fill-rule="evenodd" clip-rule="evenodd" fill="#2D95BF" cx="-256.8" cy="11" r="2.2"/><g><g><path fill-rule="evenodd" clip-rule="evenodd" fill="#2D95BF" d="M-260 15.9c-0.7 0.6-1.5 0.9-2.4 0.9c-0.9 0-1.8-0.4-2.4-0.9 c-0.7 0.6-1.1 1.5-1.1 2.5V22h7.1v-3.5C-258.9 17.5-259.4 16.6-260 15.9z"/></g><circle fill-rule="evenodd" clip-rule="evenodd" fill="#2D95BF" cx="-262.5" cy="13.2" r="2.7"/><g><g><path fill-rule="evenodd" clip-rule="evenodd" fill="#2D95BF" d="M-254.2 12.9c-0.6 0.8-1.5 1.3-2.6 1.3c-0.8 0-1.5-0.3-2.1-0.8 c0 0.6-0.2 1.2-0.6 1.8l0.1 0.1c0.9 0.9 1.4 2 1.4 3.3V19h4.9v-3.5C-253 14.4-253.5 13.5-254.2 12.9z"/></g></g></g><g><path fill-rule="evenodd" clip-rule="evenodd" fill="#2D95BF" d="M-216.5 19.5v-4c0-2.2 1.8-4 4-4s4 1.8 4 4v4H-216.5z"/><path fill="#FFFFFF" d="M-212.5 12c1.9 0 3.5 1.6 3.5 3.5V19h-7v-3.5C-216 13.6-214.4 12-212.5 12 M-212.5 11c-2.5 0-4.5 2-4.5 4.5 V19v1h1h7h1v-1v-3.5C-208 13-210 11-212.5 11L-212.5 11z"/></g><path fill-rule="evenodd" clip-rule="evenodd" fill="#2D95BF" d="M-212.8 13.2c0.7 0 1.2-0.3 1.6-0.7c-0.5-0.4-1-0.6-1.6-0.6 c-0.6 0-1.2 0.2-1.6 0.6C-214 12.9-213.4 13.2-212.8 13.2z"/><circle fill-rule="evenodd" clip-rule="evenodd" fill="#2D95BF" cx="-212.8" cy="11" r="2.2"/><g><circle fill-rule="evenodd" clip-rule="evenodd" fill="#2BB673" cx="-212.8" cy="11" r="2.7"/><path fill="#FFFFFF" d="M-212.8 8.7c1.2 0 2.2 1 2.2 2.2c0 1.2-1 2.2-2.2 2.2s-2.2-1-2.2-2.2C-215 9.7-214 8.7-212.8 8.7 M-212.8 7.7c-1.8 0-3.2 1.4-3.2 3.2c0 1.8 1.4 3.2 3.2 3.2s3.2-1.4 3.2-3.2C-209.5 9.2-211 7.7-212.8 7.7L-212.8 7.7z"/></g><g><g><path fill-rule="evenodd" clip-rule="evenodd" fill="#2D95BF" d="M-216 15.9c-0.7 0.6-1.5 0.9-2.4 0.9s-1.8-0.4-2.4-0.9 c-0.7 0.6-1.1 1.5-1.1 2.5V22h7.1v-3.5C-214.9 17.5-215.4 16.6-216 15.9z"/></g><circle fill-rule="evenodd" clip-rule="evenodd" fill="#2D95BF" cx="-218.5" cy="13.2" r="2.7"/></g><g><path fill-rule="evenodd" clip-rule="evenodd" fill="#2D95BF" d="M-223.5-68.1l1-0.5V-73c0-1.2-0.5-2.3-1.4-3c-0.7 0.6-1.6 1-2.6 1 s-1.9-0.4-2.6-1c-0.8 0.7-1.4 1.8-1.4 3v1.2L-223.5-68.1L-223.5-68.1z"/></g><g><path fill="#4EBA6F" d="M-94.5-56.5c-0.4 0-0.4-0.2-0.6-0.8c-0.3-0.9-0.8-2.7-1.3-3.5c-1.4-2.7-2.3-3.7-3.9-4.7l-7.2-4.2v-14.5 l13-7.3l13 7.3v14.5l-7.2 4.2c-1.6 0.9-2.4 1.9-3.9 4.7c-0.5 0.9-1 2.7-1.3 3.6C-94.1-56.7-94.1-56.5-94.5-56.5 C-94.5-56.5-94.5-56.5-94.5-56.5z"/><path fill="#FFFFFF" d="M-94.5-91l12.5 7v14l-6.9 4c-1.8 1-2.6 2.1-4.1 4.9c-0.6 1.2-1.5 4.1-1.5 4.1l0 0h0l0 0 c0 0-0.9-2.9-1.5-4.1c-1.4-2.7-2.3-3.8-4.1-4.9l-6.9-4v-14L-94.5-91 M-94.5-92.1l-0.5 0.3l-12.5 7l-0.5 0.3v0.6v14v0.6l0.5 0.3 l6.9 4c1.5 0.9 2.3 1.8 3.7 4.5c0.4 0.8 1 2.7 1.3 3.5c0.2 0.6 0.4 1.2 1.1 1.2c0 0 0 0 0 0c0.7 0 0.9-0.6 1.1-1.2 c0.3-0.8 0.8-2.6 1.3-3.5c1.4-2.7 2.1-3.6 3.7-4.5l6.9-4l0.5-0.3V-70v-14v-0.6l-0.5-0.3l-12.5-7L-94.5-92.1L-94.5-92.1z"/></g><g><polygon fill="#FFFFFF" points="-85,-72 -94.5,-67 -104,-72 -104,-82 -94.5,-87 -85,-82"/></g><g><path fill="#F0C419" d="M-59.5-56.5c-0.4 0-0.4-0.2-0.6-0.8c-0.3-0.9-0.8-2.7-1.3-3.5c-1.4-2.7-2.3-3.7-3.9-4.7l-7.2-4.2v-14.5 l13-7.3l13 7.3v14.5l-7.2 4.2c-1.6 0.9-2.4 1.9-3.9 4.7c-0.5 0.9-1 2.7-1.3 3.6C-59.1-56.7-59.1-56.5-59.5-56.5 C-59.5-56.5-59.5-56.5-59.5-56.5z"/><path fill="#FFFFFF" d="M-59.5-91l12.5 7v14l-6.9 4c-1.8 1-2.6 2.1-4.1 4.9c-0.6 1.2-1.5 4.1-1.5 4.1l0 0h0l0 0 c0 0-0.9-2.9-1.5-4.1c-1.4-2.7-2.3-3.8-4.1-4.9l-6.9-4v-14L-59.5-91 M-59.5-92.1l-0.5 0.3l-12.5 7l-0.5 0.3v0.6v14v0.6l0.5 0.3 l6.9 4c1.5 0.9 2.3 1.8 3.7 4.5c0.4 0.8 1 2.7 1.3 3.5c0.2 0.6 0.4 1.2 1.1 1.2c0 0 0 0 0 0c0.7 0 0.9-0.6 1.1-1.2 c0.3-0.8 0.8-2.6 1.3-3.5c1.4-2.7 2.1-3.6 3.7-4.5l6.9-4l0.5-0.3V-70v-14v-0.6l-0.5-0.3l-12.5-7L-59.5-92.1L-59.5-92.1z"/></g><g><polygon fill="#FFFFFF" points="-50,-72 -59.5,-67 -69,-72 -69,-82 -59.5,-87 -50,-82"/></g><path fill-rule="evenodd" clip-rule="evenodd" fill="#4EBA6F" d="M-88.3-73.2c-1.7 0-4.3 0.1-5.6 0.9v-0.4v-6.5c0-0.6 1-1.8 5.6-1.8 V-73.2z M-100.7-81.1c0.5 0 5.4 0.5 5.6 1.6c0 0.1 0 0.1 0 0.2v6.5v0.4c-1.4-0.8-3.9-0.9-5.6-0.9V-81.1z M-94.5-79.5 c0-2.3-5.3-2.5-7.5-2.5v0.9v8.4v0.7h0.8h0.5v1c1.9 0 5.6-0.5 5.6 0.9h1.3c0-1.5 3.7-0.9 5.6-0.9v-1h1.1l0.2 0.1V-82 C-89.3-82-94.5-81.7-94.5-79.5z"/><g><path fill="#4EBA6F" d="M-94.5-10.5c-0.4 0-0.4-0.2-0.6-0.8c-0.3-0.9-0.8-2.7-1.3-3.5c-1.4-2.7-2.3-3.7-3.9-4.7l-7.2-4.2v-14.5 l13-7.3l13 7.3v14.5l-7.2 4.2c-1.6 0.9-2.4 1.9-3.9 4.7c-0.5 0.9-1 2.7-1.3 3.6C-94.1-10.7-94.1-10.5-94.5-10.5 C-94.5-10.5-94.5-10.5-94.5-10.5z"/><path fill="#FFFFFF" d="M-94.5-45l12.5 7v14l-6.9 4c-1.8 1-2.6 2.1-4.1 4.9c-0.6 1.2-1.5 4.1-1.5 4.1l0 0h0l0 0 c0 0-0.9-2.9-1.5-4.1c-1.4-2.7-2.3-3.8-4.1-4.9l-6.9-4v-14L-94.5-45 M-94.5-46.1l-0.5 0.3l-12.5 7l-0.5 0.3v0.6v14v0.6l0.5 0.3 l6.9 4c1.5 0.9 2.3 1.8 3.7 4.5c0.4 0.8 1 2.7 1.3 3.5c0.2 0.6 0.4 1.2 1.1 1.2c0 0 0 0 0 0c0.7 0 0.9-0.6 1.1-1.2 c0.3-0.8 0.8-2.6 1.3-3.5c1.4-2.7 2.1-3.6 3.7-4.5l6.9-4l0.5-0.3V-24v-14v-0.6l-0.5-0.3l-12.5-7L-94.5-46.1L-94.5-46.1z"/></g><g><polygon fill="#FFFFFF" points="-85,-26 -94.5,-21 -104,-26 -104,-36 -94.5,-41 -85,-36"/></g><path fill-rule="evenodd" clip-rule="evenodd" fill="#4EBA6F" d="M-88.3-27.2c-1.7 0-4.3 0.1-5.6 0.9v-0.4v-6.5c0-0.6 1-1.8 5.6-1.8 V-27.2z M-100.7-35.1c0.5 0 5.4 0.5 5.6 1.6c0 0.1 0 0.1 0 0.2v6.5v0.4c-1.4-0.8-3.9-0.9-5.6-0.9V-35.1z M-94.5-33.5 c0-2.3-5.3-2.5-7.5-2.5v0.9v8.4v0.7h0.8h0.5v1c1.9 0 5.6-0.5 5.6 0.9h1.3c0-1.5 3.7-0.9 5.6-0.9v-1h1.1l0.2 0.1V-36 C-89.3-36-94.5-35.7-94.5-33.5z"/><path fill-rule="evenodd" clip-rule="evenodd" fill="#4EBA6F" d="M-87.3 18.9c-1.7 0-4.3 0.1-5.6 0.9v-0.4v-6.5c0-0.6 1-1.8 5.6-1.8 V18.9z M-99.7 11.1c0.5 0 5.4 0.5 5.6 1.6c0 0.1 0 0.1 0 0.2v6.5v0.4c-1.4-0.8-3.9-0.9-5.6-0.9V11.1z M-93.5 12.7 c0-2.3-5.3-2.5-7.5-2.5V11v8.4v0.7h0.8h0.5v1c1.9 0 5.6-0.5 5.6 0.9h1.3c0-1.5 3.7-0.9 5.6-0.9v-1h1.1l0.2 0.1V10.1 C-88.3 10.1-93.5 10.4-93.5 12.7z"/><g><path fill="#9FC419" d="M-94.3 81.2c0 0-0.6-1.9-1.2-3.1c-1.4-2.6-3.1-4.1-3.2-4.1c-0.4-0.3-1.1-0.8-1.6-1l-6.1-3.1 c-0.7-0.3-1.2-1.2-1.2-1.9V54c0-0.7 0.5-1.6 1.2-1.9l11.7-6.1c0.3-0.2 0.7-0.2 1.1-0.2s0.8 0.1 1.1 0.2l11.7 6.1 c0.6 0.3 1.2 1.2 1.2 1.9v14c0 0.7-0.5 1.6-1.2 1.9l-6.2 3.1c-0.5 0.2-1.2 0.7-1.6 1c0 0-1.8 1.5-3.2 4.1c-0.6 1.2-1.2 3.1-1.2 3.1 l-0.8 1.8L-94.3 81.2z"/><path fill="#FFFFFF" d="M-93.5 46.3c0.3 0 0.6 0.1 0.9 0.2l11.7 6.1c0.5 0.3 0.9 0.9 0.9 1.5v14c0 0.5-0.4 1.2-0.9 1.5l-6.1 3.1 c-0.5 0.2-1.2 0.7-1.7 1.1c0 0-1.9 1.5-3.3 4.2c-0.6 1.2-1.2 3.2-1.2 3.2c-0.2 0.5-0.3 1-0.3 1s-0.1-0.4-0.3-1c0 0-0.6-1.9-1.2-3.2 c-1.4-2.7-3.3-4.2-3.3-4.2c-0.4-0.3-1.2-0.8-1.7-1.1l-6.1-3.1c-0.5-0.2-0.9-0.9-0.9-1.5V54c0-0.6 0.4-1.2 0.9-1.5l11.7-6.1 C-94.1 46.3-93.8 46.3-93.5 46.3 M-93.5 45.3c-0.5 0-1 0.1-1.3 0.3l-11.7 6.1c-0.8 0.4-1.4 1.4-1.4 2.3v14c0 0.9 0.6 1.9 1.4 2.3 l6.1 3.1c0.4 0.2 1.1 0.7 1.5 1c0 0 1.7 1.4 3 3.9c0.6 1.1 1.1 3 1.1 3c0.4 1.3 0.5 1.7 1.2 1.7s0.9-0.4 1.2-1.7c0 0 0.6-1.8 1.1-3 c1.3-2.5 3-3.9 3-3.9c0.4-0.3 1.1-0.8 1.5-1l6.1-3.1c0.8-0.4 1.4-1.4 1.4-2.3V54c0-0.9-0.6-1.9-1.4-2.3l-11.7-6.1 C-92.5 45.4-93 45.3-93.5 45.3L-93.5 45.3z"/></g><g><path fill="#FFFFFF" d="M-83 66c0 0.5-0.4 1.2-0.9 1.4l-8.7 4.1c-0.5 0.2-1.3 0.2-1.8 0l-8.7-4.1c-0.5-0.2-0.9-0.9-0.9-1.4V56 c0-0.5 0.4-1.2 0.9-1.4l8.7-4.1c0.5-0.2 1.3-0.2 1.8 0l8.7 4.1c0.5 0.2 0.9 0.9 0.9 1.4V66z"/></g><path fill-rule="evenodd" clip-rule="evenodd" fill="#F0C419" d="M-64-72.2c-1.4 0-2.5-1.1-2.5-2.5c0-1.4 1.1-2.5 2.5-2.5 c1.4 0 2.5 1.1 2.5 2.5C-61.5-73.3-62.6-72.2-64-72.2z M-67-74.7c0 1.7 1.4 3 3 3c1.7 0 3-1.4 3-3c0-1.7-1.4-3-3-3 C-65.7-77.7-67-76.4-67-74.7z M-55.1-72.2c-1.4 0-2.5-1.1-2.5-2.5s1.1-2.5 2.5-2.5c1.4 0 2.5 1.1 2.5 2.5S-53.7-72.2-55.1-72.2z M-58.1-74.7c0 1.7 1.4 3 3 3c1.7 0 3-1.4 3-3c0-1.7-1.4-3-3-3C-56.8-77.7-58.1-76.4-58.1-74.7z M-58.1-82.1c0.6 0 1.1-0.5 1.1-1.1 s-0.5-1.1-1.1-1.1c-0.6 0-1.1 0.5-1.1 1.1C-59.3-82.6-58.7-82.1-58.1-82.1z M-58.1-79.2h2.2c0.7 0 0.7-1.2 0-1.2h-1.9l-1.3-2 c0 0-0.3-0.3-0.8-0.3c0 0-0.4-0.1-0.7 0.3l-2.4 2.4c-0.1 0.2-0.2 0.4-0.2 0.6c0 0.4 0.3 0.7 0.6 0.8l2.5 1.4v2.6 c0 0.4 0.2 0.7 0.6 0.7c0.4 0 0.6-0.3 0.6-0.7v-3.2c0 0 0.1-0.5-0.5-0.8l-1.3-0.7l1.5-1.5l0.7 1.2C-58.4-79.4-58.2-79.1-58.1-79.2z"/><g><path fill="#F0C419" d="M-59.5-10.5c-0.4 0-0.4-0.2-0.6-0.8c-0.3-0.9-0.8-2.7-1.3-3.5c-1.4-2.7-2.3-3.7-3.9-4.7l-7.2-4.2v-14.5 l13-7.3l13 7.3v14.5l-7.2 4.2c-1.6 0.9-2.4 1.9-3.9 4.7c-0.5 0.9-1 2.7-1.3 3.6C-59.1-10.7-59.1-10.5-59.5-10.5 C-59.5-10.5-59.5-10.5-59.5-10.5z"/><path fill="#FFFFFF" d="M-59.5-45l12.5 7v14l-6.9 4c-1.8 1-2.6 2.1-4.1 4.9c-0.6 1.2-1.5 4.1-1.5 4.1l0 0h0l0 0 c0 0-0.9-2.9-1.5-4.1c-1.4-2.7-2.3-3.8-4.1-4.9l-6.9-4v-14L-59.5-45 M-59.5-46.1l-0.5 0.3l-12.5 7l-0.5 0.3v0.6v14v0.6l0.5 0.3 l6.9 4c1.5 0.9 2.3 1.8 3.7 4.5c0.4 0.8 1 2.7 1.3 3.5c0.2 0.6 0.4 1.2 1.1 1.2c0 0 0 0 0 0c0.7 0 0.9-0.6 1.1-1.2 c0.3-0.8 0.8-2.6 1.3-3.5c1.4-2.7 2.1-3.6 3.7-4.5l6.9-4l0.5-0.3V-24v-14v-0.6l-0.5-0.3l-12.5-7L-59.5-46.1L-59.5-46.1z"/></g><g><polygon fill="#FFFFFF" points="-50,-26 -59.5,-21 -69,-26 -69,-36 -59.5,-41 -50,-36"/></g><path fill-rule="evenodd" clip-rule="evenodd" fill="#F0C419" d="M-64-26.2c-1.4 0-2.5-1.1-2.5-2.5s1.1-2.5 2.5-2.5 c1.4 0 2.5 1.1 2.5 2.5S-62.6-26.2-64-26.2z M-67-28.7c0 1.7 1.4 3 3 3c1.7 0 3-1.4 3-3s-1.4-3-3-3C-65.7-31.7-67-30.4-67-28.7z M-55.1-26.2c-1.4 0-2.5-1.1-2.5-2.5s1.1-2.5 2.5-2.5c1.4 0 2.5 1.1 2.5 2.5S-53.7-26.2-55.1-26.2z M-58.1-28.7c0 1.7 1.4 3 3 3 c1.7 0 3-1.4 3-3c0-1.7-1.4-3-3-3C-56.8-31.7-58.1-30.4-58.1-28.7z M-58.1-36.1c0.6 0 1.1-0.5 1.1-1.1s-0.5-1.1-1.1-1.1 c-0.6 0-1.1 0.5-1.1 1.1C-59.3-36.6-58.7-36.1-58.1-36.1z M-58.1-33.2h2.2c0.7 0 0.7-1.2 0-1.2h-1.9l-1.3-2c0 0-0.3-0.3-0.8-0.3 c0 0-0.4-0.1-0.7 0.3l-2.4 2.4c-0.1 0.2-0.2 0.4-0.2 0.6c0 0.4 0.3 0.7 0.6 0.8l2.5 1.4v2.6c0 0.4 0.2 0.7 0.6 0.7 c0.4 0 0.6-0.3 0.6-0.7v-3.2c0 0 0.1-0.5-0.5-0.8l-1.3-0.7l1.5-1.5l0.7 1.2C-58.4-33.4-58.2-33.1-58.1-33.2z"/><path fill-rule="evenodd" clip-rule="evenodd" fill="#F0C419" d="M-62 21.4c-1.4 0-2.5-1.1-2.5-2.5c0-1.4 1.1-2.5 2.5-2.5 c1.4 0 2.5 1.1 2.5 2.5C-59.5 20.3-60.6 21.4-62 21.4z M-65 18.9c0 1.7 1.4 3 3 3c1.7 0 3-1.4 3-3c0-1.7-1.4-3-3-3 C-63.6 15.9-65 17.3-65 18.9z M-53 21.4c-1.4 0-2.5-1.1-2.5-2.5c0-1.4 1.1-2.5 2.5-2.5c1.4 0 2.5 1.1 2.5 2.5 C-50.6 20.3-51.7 21.4-53 21.4z M-56.1 19c0 1.7 1.4 3 3 3c1.7 0 3-1.4 3-3c0-1.7-1.4-3-3-3C-54.7 15.9-56.1 17.3-56.1 19z M-56.1 11.6c0.6 0 1.1-0.5 1.1-1.1c0-0.6-0.5-1.1-1.1-1.1c-0.6 0-1.1 0.5-1.1 1.1C-57.2 11.1-56.7 11.6-56.1 11.6z M-56 14.5h2.2 c0.7 0 0.7-1.2 0-1.2h-1.9l-1.3-2c0 0-0.3-0.3-0.8-0.3c0 0-0.4-0.1-0.7 0.3l-2.4 2.4c-0.1 0.2-0.2 0.4-0.2 0.6 c0 0.4 0.3 0.7 0.6 0.8l2.5 1.4v2.6c0 0.4 0.2 0.7 0.6 0.7c0.4 0 0.6-0.3 0.6-0.7v-3.2c0 0 0.1-0.5-0.5-0.8l-1.3-0.7l1.5-1.5 l0.7 1.2C-56.4 14.3-56.2 14.5-56 14.5z"/><g><path fill="#F89C1C" d="M-24.5-56.5c-0.4 0-0.4-0.2-0.6-0.8c-0.3-0.9-0.8-2.7-1.3-3.5c-1.4-2.7-2.3-3.7-3.9-4.7l-7.2-4.2v-14.5 l13-7.3l13 7.3v14.5l-7.2 4.2c-1.6 0.9-2.4 1.9-3.9 4.7c-0.5 0.9-1 2.7-1.3 3.6C-24.1-56.7-24.1-56.5-24.5-56.5 C-24.5-56.5-24.5-56.5-24.5-56.5z"/><path fill="#FFFFFF" d="M-24.5-91l12.5 7v14l-6.9 4c-1.8 1-2.6 2.1-4.1 4.9c-0.6 1.2-1.5 4.1-1.5 4.1l0 0h0l0 0 c0 0-0.9-2.9-1.5-4.1c-1.4-2.7-2.3-3.8-4.1-4.9l-6.9-4v-14L-24.5-91 M-24.5-92.1l-0.5 0.3l-12.5 7l-0.5 0.3v0.6v14v0.6l0.5 0.3 l6.9 4c1.5 0.9 2.3 1.8 3.7 4.5c0.4 0.8 1 2.7 1.3 3.5c0.2 0.6 0.4 1.2 1.1 1.2c0 0 0 0 0 0c0.7 0 0.9-0.6 1.1-1.2 c0.3-0.8 0.8-2.6 1.3-3.5c1.4-2.7 2.1-3.6 3.7-4.5l6.9-4l0.5-0.3V-70v-14v-0.6l-0.5-0.3l-12.5-7L-24.5-92.1L-24.5-92.1z"/></g><g><polygon fill="#FFFFFF" points="-15,-72 -24.5,-67 -34,-72 -34,-82 -24.5,-87 -15,-82"/></g><g><g><path fill-rule="evenodd" clip-rule="evenodd" fill="#F89C1C" d="M-21.1-74.5c1.7-2 5-5.9 4.4-6.4c-0.6-0.5-4.2 3-6.1 4.9 L-21.1-74.5z"/><path fill-rule="evenodd" clip-rule="evenodd" fill="#F89C1C" d="M-23.1-75.7c-0.4 0.4-0.7 0.7-0.7 0.7l1.7 1.6 c0 0 0.2-0.3 0.6-0.7L-23.1-75.7z"/></g><path fill-rule="evenodd" clip-rule="evenodd" fill="#F89C1C" d="M-27.4-70c5.6 0.6 4.8-2.8 4.8-2.8l-1.7-1.6c0 0-1.2 0.1-1.5 1 C-26.5-71.6-26.1-69.9-27.4-70z"/></g><path fill="#F89C1C" d="M-31.5-80.8l1.6 4.2c0-0.1-0.5-0.2-0.8-0.1c-0.9 0.3-1.1 1.1-0.9 1.5c0.2 0.6 0.9 1.2 1.8 0.8 c0.9-0.3 0.9-1.3 0.8-1.8l-1.2-3.2l3.3-2l1.2 3.2c0-0.1-0.5-0.2-0.8-0.1c-0.9 0.3-1.1 1.1-0.9 1.5c0.2 0.6 0.9 1.2 1.8 0.8 c0.9-0.3 0.9-1.3 0.8-1.8l-2.1-5.5L-31.5-80.8z"/><g><path fill="#F89C1C" d="M-24.5-10.5c-0.4 0-0.4-0.2-0.6-0.8c-0.3-0.9-0.8-2.7-1.3-3.5c-1.4-2.7-2.3-3.7-3.9-4.7l-7.2-4.2v-14.5 l13-7.3l13 7.3v14.5l-7.2 4.2c-1.6 0.9-2.4 1.9-3.9 4.7c-0.5 0.9-1 2.7-1.3 3.6C-24.1-10.7-24.1-10.5-24.5-10.5 C-24.5-10.5-24.5-10.5-24.5-10.5z"/><path fill="#FFFFFF" d="M-24.5-45l12.5 7v14l-6.9 4c-1.8 1-2.6 2.1-4.1 4.9c-0.6 1.2-1.5 4.1-1.5 4.1l0 0h0l0 0 c0 0-0.9-2.9-1.5-4.1c-1.4-2.7-2.3-3.8-4.1-4.9l-6.9-4v-14L-24.5-45 M-24.5-46.1l-0.5 0.3l-12.5 7l-0.5 0.3v0.6v14v0.6l0.5 0.3 l6.9 4c1.5 0.9 2.3 1.8 3.7 4.5c0.4 0.8 1 2.7 1.3 3.5c0.2 0.6 0.4 1.2 1.1 1.2c0 0 0 0 0 0c0.7 0 0.9-0.6 1.1-1.2 c0.3-0.8 0.8-2.6 1.3-3.5c1.4-2.7 2.1-3.6 3.7-4.5l6.9-4l0.5-0.3V-24v-14v-0.6l-0.5-0.3l-12.5-7L-24.5-46.1L-24.5-46.1z"/></g><g><polygon fill="#FFFFFF" points="-15,-26 -24.5,-21 -34,-26 -34,-36 -24.5,-41 -15,-36"/></g><g><g><g><path fill-rule="evenodd" clip-rule="evenodd" fill="#F89C1C" d="M-21.1-28.5c1.7-2 5-5.9 4.4-6.4c-0.6-0.5-4.2 3-6.1 4.9 L-21.1-28.5z"/><path fill-rule="evenodd" clip-rule="evenodd" fill="#F89C1C" d="M-23.1-29.7c-0.4 0.4-0.7 0.7-0.7 0.7l1.7 1.6 c0 0 0.2-0.3 0.6-0.7L-23.1-29.7z"/></g><path fill-rule="evenodd" clip-rule="evenodd" fill="#F89C1C" d="M-27.4-24c5.6 0.6 4.8-2.8 4.8-2.8l-1.7-1.6c0 0-1.2 0.1-1.5 1 C-26.5-25.6-26.1-23.9-27.4-24z"/></g><path fill="#F89C1C" d="M-31.5-34.8l1.6 4.2c0-0.1-0.5-0.2-0.8-0.1c-0.9 0.3-1.1 1.1-0.9 1.5c0.2 0.6 0.9 1.2 1.8 0.8 c0.9-0.3 0.9-1.3 0.8-1.8l-1.2-3.2l3.3-2l1.2 3.2c0-0.1-0.5-0.2-0.8-0.1c-0.9 0.3-1.1 1.1-0.9 1.5c0.2 0.6 0.9 1.2 1.8 0.8 c0.9-0.3 0.9-1.3 0.8-1.8l-2.1-5.5L-31.5-34.8z"/></g><g><g><g><path fill-rule="evenodd" clip-rule="evenodd" fill="#F89C1C" d="M-18.5 18.5c1.7-2 5-5.9 4.4-6.4c-0.6-0.5-4.2 3-6.1 4.9 L-18.5 18.5z"/><path fill-rule="evenodd" clip-rule="evenodd" fill="#F89C1C" d="M-20.4 17.2c-0.4 0.4-0.7 0.7-0.7 0.7l1.7 1.6 c0 0 0.2-0.3 0.6-0.7L-20.4 17.2z"/></g><path fill-rule="evenodd" clip-rule="evenodd" fill="#F89C1C" d="M-24.7 22.9c5.6 0.6 4.8-2.8 4.8-2.8l-1.7-1.6c0 0-1.2 0.1-1.5 1 C-23.9 21.3-23.5 23.1-24.7 22.9z"/></g><path fill="#F89C1C" d="M-28.8 12.2l1.6 4.2c0-0.1-0.5-0.2-0.8-0.1c-0.9 0.3-1.1 1.1-0.9 1.5c0.2 0.6 0.9 1.2 1.8 0.8 c0.9-0.3 0.9-1.3 0.8-1.8l-1.2-3.2l3.3-2l1.2 3.2c0-0.1-0.5-0.2-0.8-0.1c-0.9 0.3-1.1 1.1-0.9 1.5c0.2 0.6 0.9 1.2 1.8 0.8 c0.9-0.3 0.9-1.3 0.8-1.8l-2.1-5.5L-28.8 12.2z"/></g><g><path fill="#F15A5A" d="M10.5-56.5c-0.4 0-0.4-0.2-0.6-0.8C9.6-58.2 9-60 8.6-60.9c-1.4-2.7-2.3-3.7-3.9-4.7l-7.2-4.2v-14.5l13-7.3 l13 7.3v14.5l-7.2 4.2c-1.6 0.9-2.4 1.9-3.9 4.7c-0.5 0.9-1 2.7-1.3 3.6C10.9-56.7 10.9-56.5 10.5-56.5 C10.5-56.5 10.5-56.5 10.5-56.5z"/><path fill="#FFFFFF" d="M10.5-91L23-84v14l-6.9 4c-1.8 1-2.6 2.1-4.1 4.9c-0.6 1.2-1.5 4.1-1.5 4.1l0 0h0l0 0c0 0-0.9-2.9-1.5-4.1 C7.6-63.8 6.7-65 4.9-66L-2-70v-14L10.5-91 M10.5-92.1L10-91.9l-12.5 7L-3-84.5v0.6v14v0.6l0.5 0.3l6.9 4c1.5 0.9 2.3 1.8 3.7 4.5 c0.4 0.8 1 2.7 1.3 3.5c0.2 0.6 0.4 1.2 1.1 1.2c0 0 0 0 0 0c0.7 0 0.9-0.6 1.1-1.2c0.3-0.8 0.8-2.6 1.3-3.5 c1.4-2.7 2.1-3.6 3.7-4.5l6.9-4l0.5-0.3V-70v-14v-0.6l-0.5-0.3l-12.5-7L10.5-92.1L10.5-92.1z"/></g><g><polygon fill="#FFFFFF" points="20,-72 10.5,-67 1,-72 1,-82 10.5,-87 20,-82"/></g><g><circle fill="#F15A5A" cx="5.4" cy="-81.5" r="1.1"/><path fill="#F15A5A" d="M15.7-78.8c0.4 0.6 0.9 1.3 0.9 1.4l0.3 0.4l0.3-0.4l1.8-2.1l-0.7-0.3L17-78.2c-0.5-0.8-1.1-1.7-1.2-1.9 l0 0c-0.1-0.1-0.2-0.2-0.3-0.2l-0.9-0.2c-0.1 0-0.3 0-0.4 0.1c0 0-0.1 0.1-0.1 0.1c-0.6 0.3-1.5 0.6-1.5 0.6l-2 0.7l-2-0.7 c0 0-1.1-0.5-1.7-0.7c0 0 0 0 0 0c-0.1-0.1-0.2-0.1-0.4-0.1l-0.9 0.2c-0.1 0-0.2 0.1-0.3 0.2l0 0c-0.1 0.2-0.7 1.1-1.2 1.9 l-1.4-1.6L2-79.5l1.8 2.1L4.1-77l0.3-0.4c0.1-0.1 0.6-0.8 1-1.4l0.5 2.1l-1.1 2.6v0.1v0.1L5-71.5L4.3-71h1.1l0.5-0.1l-0.1-0.4 l-0.4-2.4l1-2.4c0 0 0 0 0 0l0.9-0.2c0.1 0 0.2-0.1 0.3-0.2c0 0 0 0 0 0c0 0 0-0.2 0-0.4l-0.5-2.3l1.1 0.5c0 0 2.2 0.6 2.2 0.6 l0.1-0.3l0.1 0.3c0 0 2.2-0.7 2.2-0.7l0.9-0.4l-0.4 1.9l0 0l-3.5 2.6c0 0 0.9 0.4 2.1 0.7l-0.9 2.4l0 0v0.1l0 0l0-0.1l-0.6 0.4 l-0.6-0.4v0l0 0l-0.9-2.7l0 0l0 0l-1.1-2c-0.1 0.1-0.2 0.2-0.4 0.3l-0.2 0.1l1.1 2l0 0l0 0.1l0 0l1 2.7l0.1 0.2h0.3h0.7h0.6h0.7 h0.3l0.1-0.2l0.9-2.6c0.9 0.2 1.9 0.3 2.9 0.1l0 0.1l-0.4 2.4l-0.1 0.4l0.4 0.1h1.1L16-71.5l0.4-2.4V-74v0c0.2-0.1 0.5-0.1 0.7-0.2 c-0.6-0.8-1.2-1.4-1.6-1.9l-0.2-0.6L15.7-78.8z M9.6-72L9.6-72l0.1 0.1L9.6-72z M11.4-71.9L11.4-71.9L11.4-71.9L11.4-71.9z"/><circle fill="#F15A5A" cx="15.7" cy="-81.5" r="1.1"/></g><g><path fill="#F15A5A" d="M10.5-10.5c-0.4 0-0.4-0.2-0.6-0.8C9.6-12.2 9-14 8.6-14.9c-1.4-2.7-2.3-3.7-3.9-4.7l-7.2-4.2v-14.5l13-7.3 l13 7.3v14.5l-7.2 4.2c-1.6 0.9-2.4 1.9-3.9 4.7c-0.5 0.9-1 2.7-1.3 3.6C10.9-10.7 10.9-10.5 10.5-10.5 C10.5-10.5 10.5-10.5 10.5-10.5z"/><path fill="#FFFFFF" d="M10.5-45L23-38v14l-6.9 4c-1.8 1-2.6 2.1-4.1 4.9c-0.6 1.2-1.5 4.1-1.5 4.1l0 0h0l0 0c0 0-0.9-2.9-1.5-4.1 C7.6-17.8 6.7-19 4.9-20L-2-24v-14L10.5-45 M10.5-46.1L10-45.9l-12.5 7L-3-38.5v0.6v14v0.6l0.5 0.3l6.9 4c1.5 0.9 2.3 1.8 3.7 4.5 c0.4 0.8 1 2.7 1.3 3.5c0.2 0.6 0.4 1.2 1.1 1.2c0 0 0 0 0 0c0.7 0 0.9-0.6 1.1-1.2c0.3-0.8 0.8-2.6 1.3-3.5 c1.4-2.7 2.1-3.6 3.7-4.5l6.9-4l0.5-0.3V-24v-14v-0.6l-0.5-0.3l-12.5-7L10.5-46.1L10.5-46.1z"/></g><g><polygon fill="#FFFFFF" points="20,-26 10.5,-21 1,-26 1,-36 10.5,-41 20,-36"/></g><g><circle fill="#F15A5A" cx="5.4" cy="-35.5" r="1.1"/><path fill="#F15A5A" d="M15.7-32.8c0.4 0.6 0.9 1.3 0.9 1.4l0.3 0.4l0.3-0.4l1.8-2.1l-0.7-0.3L17-32.2c-0.5-0.8-1.1-1.7-1.2-1.9 l0 0c-0.1-0.1-0.2-0.2-0.3-0.2l-0.9-0.2c-0.1 0-0.3 0-0.4 0.1c0 0-0.1 0.1-0.1 0.1c-0.6 0.3-1.5 0.6-1.5 0.6l-2 0.7l-2-0.7 c0 0-1.1-0.5-1.7-0.7c0 0 0 0 0 0c-0.1-0.1-0.2-0.1-0.4-0.1l-0.9 0.2c-0.1 0-0.2 0.1-0.3 0.2l0 0c-0.1 0.2-0.7 1.1-1.2 1.9 l-1.4-1.6L2-33.5l1.8 2.1L4.1-31l0.3-0.4c0.1-0.1 0.6-0.8 1-1.4l0.5 2.1l-1.1 2.6v0.1v0.1L5-25.5L4.3-25h1.1l0.5-0.1l-0.1-0.4 l-0.4-2.4l1-2.4c0 0 0 0 0 0l0.9-0.2c0.1 0 0.2-0.1 0.3-0.2c0 0 0 0 0 0c0 0 0-0.2 0-0.4l-0.5-2.3l1.1 0.5c0 0 2.2 0.6 2.2 0.6 l0.1-0.3l0.1 0.3c0 0 2.2-0.7 2.2-0.7l0.9-0.4l-0.4 1.9l0 0l-3.5 2.6c0 0 0.9 0.4 2.1 0.7l-0.9 2.4l0 0v0.1l0 0l0-0.1l-0.6 0.4 l-0.6-0.4v0l0 0l-0.9-2.7l0 0l0 0l-1.1-2c-0.1 0.1-0.2 0.2-0.4 0.3l-0.2 0.1l1.1 2l0 0l0 0.1l0 0l1 2.7l0.1 0.2h0.3h0.7h0.6h0.7 h0.3l0.1-0.2l0.9-2.6c0.9 0.2 1.9 0.3 2.9 0.1l0 0.1l-0.4 2.4l-0.1 0.4l0.4 0.1h1.1L16-25.5l0.4-2.4V-28v0c0.2-0.1 0.5-0.1 0.7-0.2 c-0.6-0.8-1.2-1.4-1.6-1.9l-0.2-0.6L15.7-32.8z M9.6-26L9.6-26l0.1 0.1L9.6-26z M11.4-25.9L11.4-25.9L11.4-25.9L11.4-25.9z"/><circle fill="#F15A5A" cx="15.7" cy="-35.5" r="1.1"/></g><g><circle fill="#F15A5A" cx="9.4" cy="11.1" r="1.1"/><path fill="#F15A5A" d="M19.7 13.8c0.4 0.6 0.9 1.3 0.9 1.4l0.3 0.4l0.3-0.4l1.8-2.1l-0.7-0.3L21 14.4c-0.5-0.8-1.1-1.7-1.2-1.9 l0 0c-0.1-0.1-0.2-0.2-0.3-0.2l-0.9-0.2c-0.1 0-0.3 0-0.4 0.1c0 0-0.1 0.1-0.1 0.1c-0.6 0.3-1.5 0.6-1.5 0.6l-2 0.7l-2-0.7 c0 0-1.1-0.5-1.7-0.7c0 0 0 0 0 0c-0.1-0.1-0.2-0.1-0.4-0.1l-0.9 0.2c-0.1 0-0.2 0.1-0.3 0.2l0 0c-0.1 0.2-0.7 1.1-1.2 1.9 l-1.4-1.6L6 13.1l1.8 2.1l0.3 0.4l0.3-0.4c0.1-0.1 0.6-0.8 1-1.4l0.5 2.1l-1.1 2.6v0.1v0.1L9 21.1l-0.7 0.5h1.1l0.5-0.1l-0.1-0.4 l-0.4-2.4l1-2.4c0 0 0 0 0 0l0.9-0.2c0.1 0 0.2-0.1 0.3-0.2c0 0 0 0 0 0c0 0 0-0.2 0-0.4l-0.5-2.3l1.1 0.5c0 0 2.2 0.6 2.2 0.6 l0.1-0.3l0.1 0.3c0 0 2.2-0.7 2.2-0.7l0.9-0.4l-0.4 1.9l0 0l-3.5 2.6c0 0 0.9 0.4 2.1 0.7l-0.9 2.4l0 0v0.1l0 0l0-0.1l-0.6 0.4 l-0.6-0.4v0l0 0l-0.9-2.7l0 0l0 0l-1.1-2c-0.1 0.1-0.2 0.2-0.4 0.3l-0.2 0.1l1.1 2l0 0l0 0.1l0 0l1 2.7l0.1 0.2h0.3h0.7h0.6h0.7 h0.3l0.1-0.2l0.9-2.6c0.9 0.2 1.9 0.3 2.9 0.1l0 0.1l-0.4 2.4l-0.1 0.4l0.4 0.1h1.1L20 21.1l0.4-2.4v-0.1v0 c0.2-0.1 0.5-0.1 0.7-0.2c-0.6-0.8-1.2-1.4-1.6-1.9l-0.2-0.6L19.7 13.8z M13.6 20.6L13.6 20.6l0.1 0.1L13.6 20.6z M15.4 20.7 L15.4 20.7L15.4 20.7L15.4 20.7z"/><circle fill="#F15A5A" cx="19.7" cy="11.1" r="1.1"/></g><g><path fill="#955BA5" d="M45.5-56.5c-0.4 0-0.4-0.2-0.6-0.8c-0.3-0.9-0.8-2.7-1.3-3.5c-1.4-2.7-2.3-3.7-3.9-4.7l-7.2-4.2v-14.5 l13-7.3l13 7.3v14.5l-7.2 4.2c-1.6 0.9-2.4 1.9-3.9 4.7c-0.5 0.9-1 2.7-1.3 3.6C45.9-56.7 45.9-56.5 45.5-56.5 C45.5-56.5 45.5-56.5 45.5-56.5z"/><path fill="#FFFFFF" d="M45.5-91L58-84v14l-6.9 4c-1.8 1-2.6 2.1-4.1 4.9c-0.6 1.2-1.5 4.1-1.5 4.1l0 0h0l0 0c0 0-0.9-2.9-1.5-4.1 c-1.4-2.7-2.3-3.8-4.1-4.9L33-70v-14L45.5-91 M45.5-92.1L45-91.9l-12.5 7L32-84.5v0.6v14v0.6l0.5 0.3l6.9 4 c1.5 0.9 2.3 1.8 3.7 4.5c0.4 0.8 1 2.7 1.3 3.5c0.2 0.6 0.4 1.2 1.1 1.2c0 0 0 0 0 0c0.7 0 0.9-0.6 1.1-1.2 c0.3-0.8 0.8-2.6 1.3-3.5c1.4-2.7 2.1-3.6 3.7-4.5l6.9-4l0.5-0.3V-70v-14v-0.6l-0.5-0.3l-12.5-7L45.5-92.1L45.5-92.1z"/></g><g><polygon fill="#FFFFFF" points="55,-72 45.5,-67 36,-72 36,-82 45.5,-87 55,-82"/></g><g><path fill="#955BA5" d="M48-83c-1.2 0-2.2 1.5-2.2 3c0 1.1 0.6 2 1.4 2.3l-0.2 6.2c0 0.6 0.5 1.1 1.1 1.1c0.6 0 1.1-0.5 1.1-1.1 l-0.2-6.2c0.8-0.3 1.3-1.1 1.3-2.3h0C50.2-81.5 49.2-83 48-83z"/><path fill="#955BA5" d="M43.6-80h-0.7v-2.8h-0.7v2.8h-0.7v-2.8h-0.7v3.5v0.7c0 0.4 0.5 0.7 0.9 0.7h0l-0.2 6.3 c0 0.6 0.5 1.1 1.1 1.1c0.6 0 1.1-0.5 1.1-1.1l-0.2-6.3c0.4 0 0.9-0.3 0.9-0.7v-0.7v-3.5h-0.7V-80z"/></g><g><path fill="#955BA5" d="M45.5-10.5c-0.4 0-0.4-0.2-0.6-0.8c-0.3-0.9-0.8-2.7-1.3-3.5c-1.4-2.7-2.3-3.7-3.9-4.7l-7.2-4.2v-14.5 l13-7.3l13 7.3v14.5l-7.2 4.2c-1.6 0.9-2.4 1.9-3.9 4.7c-0.5 0.9-1 2.7-1.3 3.6C45.9-10.7 45.9-10.5 45.5-10.5 C45.5-10.5 45.5-10.5 45.5-10.5z"/><path fill="#FFFFFF" d="M45.5-45L58-38v14l-6.9 4c-1.8 1-2.6 2.1-4.1 4.9c-0.6 1.2-1.5 4.1-1.5 4.1l0 0h0l0 0c0 0-0.9-2.9-1.5-4.1 c-1.4-2.7-2.3-3.8-4.1-4.9L33-24v-14L45.5-45 M45.5-46.1L45-45.9l-12.5 7L32-38.5v0.6v14v0.6l0.5 0.3l6.9 4 c1.5 0.9 2.3 1.8 3.7 4.5c0.4 0.8 1 2.7 1.3 3.5c0.2 0.6 0.4 1.2 1.1 1.2c0 0 0 0 0 0c0.7 0 0.9-0.6 1.1-1.2 c0.3-0.8 0.8-2.6 1.3-3.5c1.4-2.7 2.1-3.6 3.7-4.5l6.9-4l0.5-0.3V-24v-14v-0.6l-0.5-0.3l-12.5-7L45.5-46.1L45.5-46.1z"/></g><g><polygon fill="#FFFFFF" points="55,-26 45.5,-21 36,-26 36,-36 45.5,-41 55,-36"/></g><g><path fill="#955BA5" d="M48-37c-1.2 0-2.2 1.5-2.2 3c0 1.1 0.6 2 1.4 2.3l-0.2 6.2c0 0.6 0.5 1.1 1.1 1.1c0.6 0 1.1-0.5 1.1-1.1 l-0.2-6.2c0.8-0.3 1.3-1.1 1.3-2.3h0C50.2-35.5 49.2-37 48-37z"/><path fill="#955BA5" d="M43.6-34h-0.7v-2.8h-0.7v2.8h-0.7v-2.8h-0.7v3.5v0.7c0 0.4 0.5 0.7 0.9 0.7h0l-0.2 6.3 c0 0.6 0.5 1.1 1.1 1.1c0.6 0 1.1-0.5 1.1-1.1l-0.2-6.3c0.4 0 0.9-0.3 0.9-0.7v-0.7v-3.5h-0.7V-34z"/></g><g><path fill="#955BA5" d="M53 10c-1.2 0-2.2 1.5-2.2 3c0 1.1 0.6 2 1.4 2.3l-0.2 6.2c0 0.6 0.5 1.1 1.1 1.1c0.6 0 1.1-0.5 1.1-1.1 l-0.2-6.2c0.8-0.3 1.3-1.1 1.3-2.3h0C55.2 11.5 54.2 10 53 10z"/><path fill="#955BA5" d="M48.6 13h-0.7v-2.8h-0.7V13h-0.7v-2.8h-0.7v3.5v0.7c0 0.4 0.5 0.7 0.9 0.7h0l-0.2 6.3 c0 0.6 0.5 1.1 1.1 1.1c0.6 0 1.1-0.5 1.1-1.1l-0.2-6.3c0.4 0 0.9-0.3 0.9-0.7v-0.7v-3.5h-0.7V13z"/></g><g><path fill="#6756B2" d="M49.7 81.2c0 0-0.6-1.9-1.2-3.1c-1.4-2.6-3.1-4.1-3.2-4.1c-0.4-0.3-1.1-0.8-1.6-1l-6.1-3.1 c-0.7-0.3-1.2-1.2-1.2-1.9V54c0-0.7 0.5-1.6 1.2-1.9L49.4 46c0.3-0.2 0.7-0.2 1.1-0.2s0.8 0.1 1.1 0.2l11.7 6.1 c0.6 0.3 1.2 1.2 1.2 1.9v14c0 0.7-0.5 1.6-1.2 1.9L57.2 73c-0.5 0.2-1.2 0.7-1.6 1c0 0-1.8 1.5-3.2 4.1c-0.6 1.2-1.2 3.1-1.2 3.1 L50.5 83L49.7 81.2z"/><path fill="#FFFFFF" d="M50.5 46.3c0.3 0 0.6 0.1 0.9 0.2l11.7 6.1c0.5 0.3 0.9 0.9 0.9 1.5v14c0 0.5-0.4 1.2-0.9 1.5L57 72.6 c-0.5 0.2-1.2 0.7-1.7 1.1c0 0-1.9 1.5-3.3 4.2c-0.6 1.2-1.2 3.2-1.2 3.2c-0.2 0.5-0.3 1-0.3 1s-0.1-0.4-0.3-1c0 0-0.6-1.9-1.2-3.2 c-1.4-2.7-3.3-4.2-3.3-4.2c-0.4-0.3-1.2-0.8-1.7-1.1l-6.1-3.1C37.4 69.2 37 68.5 37 68V54c0-0.6 0.4-1.2 0.9-1.5l11.7-6.1 C49.9 46.3 50.2 46.3 50.5 46.3 M50.5 45.3c-0.5 0-1 0.1-1.3 0.3l-11.7 6.1C36.6 52.1 36 53.1 36 54v14c0 0.9 0.6 1.9 1.4 2.3 l6.1 3.1c0.4 0.2 1.1 0.7 1.5 1c0 0 1.7 1.4 3 3.9c0.6 1.1 1.1 3 1.1 3c0.4 1.3 0.5 1.7 1.2 1.7s0.9-0.4 1.2-1.7c0 0 0.6-1.8 1.1-3 c1.3-2.5 3-3.9 3-3.9c0.4-0.3 1.1-0.8 1.5-1l6.1-3.1c0.8-0.4 1.4-1.4 1.4-2.3V54c0-0.9-0.6-1.9-1.4-2.3l-11.7-6.1 C51.5 45.4 51 45.3 50.5 45.3L50.5 45.3z"/></g><g><path fill="#FFFFFF" d="M61 66c0 0.5-0.4 1.2-0.9 1.4l-8.7 4.1c-0.5 0.2-1.3 0.2-1.8 0l-8.7-4.1C40.4 67.2 40 66.5 40 66V56 c0-0.5 0.4-1.2 0.9-1.4l8.7-4.1c0.5-0.2 1.3-0.2 1.8 0l8.7 4.1c0.5 0.2 0.9 0.9 0.9 1.4V66z"/></g><rect x="-160" y="-10" fill="#231F20" width="14" height="10"/><g><path fill="#9FC419" d="M-98.1 62.3c-0.4 1.8-1 3.3-2.4 4.7h4c1.4-1.4 2-2.9 2.4-4.7H-98.1z"/><path fill="#9FC419" d="M-93.2 62.3c0.4 1.8 1 3.4 2.4 4.7h0.3h3.9c-1.4-1.4-2-2.9-2.4-4.7H-93.2z"/><g><path fill="#9FC419" d="M-91.1 54.5c0 0 0 1.8 0 1.8c-0.1 0-0.2 0-0.3 0v0.3c1.3 0 2.1-0.5 2.1-1.8 C-90.2 55.2-90.4 54.8-91.1 54.5L-91.1 54.5z"/></g><g><path fill="#9FC419" d="M-93.2 56.6v-0.8c0.5-0.5 1.3 0 1.8 0v-2.3c-0.7-0.4-1.2-0.6-2.1-0.3h-0.3l0 3.4L-93.2 56.6L-93.2 56.6z"/><path fill="#9FC419" d="M-93.1 57.1h-0.9c-0.9 2.1-2.7 2.8-7.1 4.3h8.9h0.9h5.2C-90.3 59.9-92.1 59.2-93.1 57.1L-93.1 57.1z"/></g></g><path fill="#6756B2" d="M48.3 66.9L46.7 68H50H51h3.2l-1.6-1.1H51v-3.3l6-6h-4.7l0.3-1.1l0.1 0c0.6 0 1.1-0.5 1.1-1.1 c0-0.4-0.3-0.8-0.6-1l0.1-0.4L52.7 54l-0.1 0.5c-0.6 0-1 0.5-1 1.1c0 0.4 0.2 0.7 0.4 0.9l-0.3 1.3H44l6 6v3.3L48.3 66.9L48.3 66.9z M50 62.6l-2.7-2.7h3.9l-0.7 2.5l0.5 0.1l0.7-2.6h2.1L51 62.6H50z"/></svg>