<svg xmlns="http://www.w3.org/2000/svg" xmlns:xlink="http://www.w3.org/1999/xlink" version="1.1" id="Layer_1" x="0px" y="0px" viewBox="0 0 29 38" enable-background="new 0 0 29 38" xml:space="preserve"><path fill="#2D95BF" d="M-212.5-45.6l-12.5 7v14.1l6.9 3.9c1.8 1 2.6 2.1 4.1 4.9c0.6 1.2 1.5 4.1 1.5 4.1h0c0 0 0.9-2.9 1.5-4.1 c1.4-2.7 2.3-3.8 4.1-4.9l6.9-3.9v-14.1L-212.5-45.6z"/><polygon fill="#FFFFFF" stroke="#231F20" stroke-miterlimit="10" points="-974.7,77.1 -998.4,36 -974.7,-5.1 -927.3,-5.1 -903.5,36 -927.3,77.1"/><g><polygon fill="#231F20" points="-728.9,199.5 -728.9,186.1 -716.9,179.4 -704.9,186.1 -704.9,199.5 -716.9,206.2"/><path fill="#FFFFFF" d="M-716.9 179.9l11.5 6.4v12.8l-11.5 6.4l-11.5-6.4v-12.8L-716.9 179.9 M-716.9 178.8l-12.5 7v14l12.5 7 l12.5-7v-14L-716.9 178.8L-716.9 178.8z"/></g><g><polygon fill="#231F20" points="-659.9,204 -672.4,211 -684.9,204 -684.9,190 -672.4,183 -659.9,190"/></g><polygon fill="#FFFFFF" stroke="#231F20" stroke-miterlimit="10" points="-559.1,199 -571.6,205.3 -584.1,199 -584.1,186.5 -571.6,180.3 -559.1,186.5"/><path fill="#231F20" d="M-492.1-36.4l-6.4-2.4v0l0 0l0 0v0l-6.4 2.4c2 1 5.6 4 6.4 10.6c0 0 0 0.1 0 0.1c0 0 0 0 0-0.1 c0 0 0 0 0 0.1c0 0 0-0.1 0-0.1C-498.3-32.6-493.1-35.8-492.1-36.4z"/><path fill="#231F20" d="M-678 207.8c1.8 1 2.7 2.1 4.1 4.8c1.3 2.5 2 5.9 2 6.6c0-6.1 0-12.4 0-12.4h-5.1L-678 207.8z"/><path fill="#231F20" d="M-666.8 207.8c-1.8 1-2.7 2.1-4.1 4.8c-1.3 2.5-2 5.9-2 6.6c0-6.1 0-12.4 0-12.4h5.1L-666.8 207.8z"/><g><g><polygon fill="#231F20" points="-242.6,-682.3 -443,-570.1 -643.5,-682.3 -643.5,-906.8 -443,-1019 -242.6,-906.8"/></g><path fill="#231F20" d="M-369.2-636.1h-73h-1.4h-73l-15.9 15.9c28.6 16.4 42.7 34.3 65.5 77.8c10.4 19.9 18.1 43.1 23.4 63 c0 0 0.5 3.5 0.7 2.6c0.2 0.9 0.7-2.6 0.7-2.6c5.3-19.9 13-43.1 23.4-63c22.8-43.4 36.8-61.4 65.5-77.8L-369.2-636.1z"/></g><g><polygon fill="#231F20" points="382.2,-267 369.8,-260 357.2,-267 357.2,-281 369.8,-288 382.2,-281"/></g><g><polygon fill="#FFFFFF" points="-203.5,-26.5 -212.5,-21.5 -221.5,-26.5 -221.5,-36.6 -212.5,-41.7 -203.5,-36.6"/></g><path fill="#231F20" d="M374.4-264.1h-4.6h-0.1h-4.6l-1 1c1.8 1 2.7 2.1 4.1 4.8c0.7 1.2 1.1 2.7 1.5 3.9v0.3c0-0.1 0-0.1 0-0.2 c0 0.1 0 0.1 0 0.2v-0.3c0.3-1.2 0.8-2.7 1.5-3.9c1.4-2.7 2.3-3.8 4.1-4.8L374.4-264.1z"/><path fill="#231F20" d="M441.2-290l-12.5 7v14.1l6.9 3.9c1.8 1 2.6 2.1 4.1 4.9c0.6 1.2 1.5 4.1 1.5 4.1h0c0 0 0.9-2.9 1.5-4.1 c1.4-2.7 2.3-3.8 4.1-4.9l6.9-3.9V-283L441.2-290z"/><path fill="#231F20" d="M-477.5 231.5l-12.5 7v14.1l6.9 3.9c1.8 1 2.6 2.1 4.1 4.9c0.6 1.2 1.5 4.1 1.5 4.1h0c0 0 0.9-2.9 1.5-4.1 c1.4-2.7 2.3-3.8 4.1-4.9l6.9-3.9v-14.1L-477.5 231.5z"/><rect x="-108" y="-364" fill="#F15A5A" width="106" height="106"/><rect x="-232" y="-362" fill="#F89C1C" width="106" height="106"/><rect x="-473" y="-365" fill="#9FC419" width="106" height="106"/><rect x="-350" y="-365" fill="#F0C419" width="106" height="106"/><rect x="-589" y="-366" fill="#4EBA6F" width="106" height="106"/><rect x="-724" y="-369" fill="#2D95BF" width="106" height="106"/><rect x="17" y="-363" fill="#955BA5" width="106" height="106"/><rect x="150" y="-363" fill="#6756B2" width="106" height="106"/><path fill-rule="evenodd" clip-rule="evenodd" fill="#2D95BF" d="M-205.8-29.9c-0.5-0.2-1.2-0.8-2.2-1c0.3-0.3 0.5-0.8 0.7-1.3 c0.1-0.3 0.1-0.6 0.1-1c0-0.3 0.1-0.8 0-1c-0.2-0.9-0.8-1.1-1.5-1.1c-0.7 0-1.3 0.2-1.5 1.1c-0.1 0.3 0 0.7 0 1c0 0.4 0 0.7 0.1 1 c0.2 0.6 0.4 1 0.7 1.3c-0.3 0.1-0.6 0.2-0.9 0.3c1 0.4 1.8 1 2.3 1.3c1 0.5 1.3 1 1.5 1.3h1c0.4 0 0.7-0.4 0.7-0.7v-0.2 C-204.8-28.9-204.8-29.5-205.8-29.9z M-209.2-29.4c-0.8-0.4-1.8-1.3-3.5-1.6c0.4-0.5 0.7-1.3 1.1-2.2c0.2-0.5 0.1-1 0.1-1.6 c0-0.5 0.1-1.2 0-1.6c-0.4-1.4-1.3-1.8-2.3-1.8c-1.1 0-2 0.4-2.3 1.8c-0.1 0.4 0 1.2 0 1.6c0 0.6 0 1.1 0.2 1.6 c0.3 0.9 0.6 1.7 1.1 2.2c-1.6 0.3-2.7 1.2-3.4 1.6c-1.5 0.7-1.5 1.6-1.5 1.6v0.3c0 0.5 0.6 1.1 1.1 1.1h10c0.7 0 1.1-0.6 1.1-1.1 v-0.3C-207.6-27.8-207.6-28.6-209.2-29.4z"/><circle fill-rule="evenodd" clip-rule="evenodd" fill="#F15A29" cx="-213.8" cy="-35.6" r="2.5"/><path fill="#2D95BF" d="M-178-45.6l-12.5 7v14.1l6.9 3.9c1.8 1 2.6 2.1 4.1 4.9c0.6 1.2 1.5 4.1 1.5 4.1h0c0 0 0.9-2.9 1.5-4.1 c1.4-2.7 2.3-3.8 4.1-4.9l6.9-3.9v-14.1L-178-45.6z"/><g><polygon fill="#FFFFFF" points="-169,-26.5 -178,-21.5 -187,-26.5 -187,-36.6 -178,-41.7 -169,-36.6"/></g><circle fill-rule="evenodd" clip-rule="evenodd" fill="#2D95BF" cx="-179.2" cy="-35.6" r="2.5"/><circle fill-rule="evenodd" clip-rule="evenodd" fill="#2D95BF" cx="-179.2" cy="-30.9" r="3.6"/><g><path fill="#2D95BF" d="M14.5-56.5c-0.4 0-0.4-0.2-0.6-0.8c-0.3-0.9-0.8-2.7-1.3-3.5c-1.4-2.7-2.3-3.7-3.9-4.7l-7.2-4.2v-14.5 l13-7.3l13 7.3v14.5l-7.2 4.2c-1.6 0.9-2.4 1.9-3.9 4.7c-0.5 0.9-1 2.7-1.3 3.6C14.9-56.7 14.9-56.5 14.5-56.5 C14.5-56.5 14.5-56.5 14.5-56.5z"/><path fill="#FFFFFF" d="M14.5-91L27-84v14l-6.9 4c-1.8 1-2.6 2.1-4.1 4.9c-0.6 1.2-1.5 4.1-1.5 4.1l0 0h0l0 0c0 0-0.9-2.9-1.5-4.1 c-1.4-2.7-2.3-3.8-4.1-4.9L2-70v-14L14.5-91 M14.5-92.1L14-91.9l-12.5 7L1-84.5v0.6v14v0.6l0.5 0.3l6.9 4c1.5 0.9 2.3 1.8 3.7 4.5 c0.4 0.8 1 2.7 1.3 3.5c0.2 0.6 0.4 1.2 1.1 1.2c0 0 0 0 0 0c0.7 0 0.9-0.6 1.1-1.2c0.3-0.8 0.8-2.6 1.3-3.5 c1.4-2.7 2.1-3.6 3.7-4.5l6.9-4l0.5-0.3V-70v-14v-0.6l-0.5-0.3l-12.5-7L14.5-92.1L14.5-92.1z"/></g><g><polygon fill="#FFFFFF" points="24,-72 14.5,-67 5,-72 5,-82 14.5,-87 24,-82"/></g><g><path fill="#2D95BF" d="M-79.5-56.5c-0.4 0-0.4-0.2-0.6-0.8c-0.3-0.9-0.8-2.7-1.3-3.5c-1.4-2.7-2.3-3.7-3.9-4.7l-7.2-4.2v-14.5 l13-7.3l13 7.3v14.5l-7.2 4.2c-1.6 0.9-2.4 1.9-3.9 4.7c-0.5 0.9-1 2.7-1.3 3.6C-79.1-56.7-79.1-56.5-79.5-56.5 C-79.5-56.5-79.5-56.5-79.5-56.5z"/><path fill="#FFFFFF" d="M-79.5-91l12.5 7v14l-6.9 4c-1.8 1-2.6 2.1-4.1 4.9c-0.6 1.2-1.5 4.1-1.5 4.1l0 0h0l0 0 c0 0-0.9-2.9-1.5-4.1c-1.4-2.7-2.3-3.8-4.1-4.9l-6.9-4v-14L-79.5-91 M-79.5-92.1l-0.5 0.3l-12.5 7l-0.5 0.3v0.6v14v0.6l0.5 0.3 l6.9 4c1.5 0.9 2.3 1.8 3.7 4.5c0.4 0.8 1 2.7 1.3 3.5c0.2 0.6 0.4 1.2 1.1 1.2c0 0 0 0 0 0c0.7 0 0.9-0.6 1.1-1.2 c0.3-0.8 0.8-2.6 1.3-3.5c1.4-2.7 2.1-3.6 3.7-4.5l6.9-4l0.5-0.3V-70v-14v-0.6l-0.5-0.3l-12.5-7L-79.5-92.1L-79.5-92.1z"/></g><g><polygon fill="#FFFFFF" points="-70,-72 -79.5,-67 -89,-72 -89,-82 -79.5,-87 -70,-82"/></g><circle fill-rule="evenodd" clip-rule="evenodd" fill="#2D95BF" cx="-76" cy="-81.5" r="2.5"/><g><path fill-rule="evenodd" clip-rule="evenodd" fill="#2D95BF" d="M-79-72.5h0.5V-73c0-0.7-0.2-1.4-0.5-2V-72.5z"/><g><path fill-rule="evenodd" clip-rule="evenodd" fill="#2D95BF" d="M-76-79c0.7 0 1.4-0.3 1.9-0.8c-0.5-0.4-1.2-0.7-1.9-0.7 s-1.3 0.3-1.9 0.7C-77.4-79.3-76.7-79-76-79z"/><path fill-rule="evenodd" clip-rule="evenodd" fill="#2D95BF" d="M-76-78c-1 0-1.9-0.4-2.5-1.1c-0.3 0.5-0.5 1-0.5 1.6v0.9 c0.9 0.9 1.5 2.2 1.5 3.6v0.5h4.5v-5c0-0.6-0.2-1.1-0.5-1.6C-74.1-78.4-75-78-76-78z"/></g></g><g><path fill-rule="evenodd" clip-rule="evenodd" fill="#2D95BF" d="M-80.7-76.6c-0.5-0.3-1.1-0.4-1.8-0.4s-1.2 0.2-1.8 0.4 c0.5 0.4 1.1 0.6 1.8 0.6S-81.2-76.2-80.7-76.6z"/><circle fill-rule="evenodd" clip-rule="evenodd" fill="#2D95BF" cx="-82.5" cy="-79" r="3"/></g><path fill="#2D95BF" d="M-109.5-91l-12.5 7v14l6.9 4c1.8 1 2.6 2.1 4.1 4.9c0.6 1.2 1.5 4.1 1.5 4.1l0 0c0 0 0.9-2.9 1.5-4.1 c1.4-2.7 2.3-3.8 4.1-4.9l6.9-4v-14L-109.5-91z"/><g><polygon fill="#FFFFFF" points="-100,-72 -109.5,-67 -119,-72 -119,-82 -109.5,-87 -100,-82"/></g><path fill-rule="evenodd" clip-rule="evenodd" fill="#2D95BF" d="M-106-80.5c-1.7 0-3 1.3-3 3v5h6v-5C-103-79.2-104.3-80.5-106-80.5 z"/><g><circle fill-rule="evenodd" clip-rule="evenodd" fill="#2D95BF" cx="-106" cy="-81.5" r="3"/><path fill="#FFFFFF" d="M-106-84c1.4 0 2.5 1.1 2.5 2.5s-1.1 2.5-2.5 2.5s-2.5-1.1-2.5-2.5S-107.4-84-106-84 M-106-85 c-1.9 0-3.5 1.6-3.5 3.5s1.6 3.5 3.5 3.5s3.5-1.6 3.5-3.5S-104.1-85-106-85L-106-85z"/></g><g><path fill-rule="evenodd" clip-rule="evenodd" fill="#2D95BF" d="M-117-68.5V-73c0-2.5 2-4.5 4.5-4.5s4.5 2 4.5 4.5v4.5H-117z"/><path fill="#FFFFFF" d="M-112.5-77c2.2 0 4 1.8 4 4v4h-8v-4C-116.5-75.2-114.7-77-112.5-77 M-112.5-78c-2.8 0-5 2.2-5 5v4v1h1h8h1 v-1v-4C-107.5-75.8-109.7-78-112.5-78L-112.5-78z"/></g><g><path fill-rule="evenodd" clip-rule="evenodd" fill="#2D95BF" d="M-112.5-75.5c-1.9 0-3.5-1.6-3.5-3.5s1.6-3.5 3.5-3.5 s3.5 1.6 3.5 3.5S-110.5-75.5-112.5-75.5z"/><path fill="#FFFFFF" d="M-112.5-82c1.7 0 3 1.3 3 3s-1.3 3-3 3s-3-1.3-3-3S-114.1-82-112.5-82 M-112.5-83c-2.2 0-4 1.8-4 4 s1.8 4 4 4s4-1.8 4-4S-110.2-83-112.5-83L-112.5-83z"/></g><path fill-rule="evenodd" clip-rule="evenodd" fill="#2D95BF" d="M17.4-79.8c0.6 0 1.2-0.3 1.6-0.7c-0.4-0.3-1-0.6-1.6-0.6 s-1.1 0.2-1.6 0.6C16.2-80.1 16.7-79.8 17.4-79.8z"/><circle fill-rule="evenodd" clip-rule="evenodd" fill="#2D95BF" cx="17.4" cy="-81.9" r="2.1"/><g><path fill-rule="evenodd" clip-rule="evenodd" fill="#2D95BF" d="M15-74h0.3v-0.7c0-0.5-0.1-0.9-0.3-1.4V-74z"/><path fill-rule="evenodd" clip-rule="evenodd" fill="#2D95BF" d="M19.6-79.7c-0.6 0.6-1.4 0.9-2.3 0.9s-1.6-0.4-2.1-0.9 C15-79.4 15-79 15-78.5v0.7c0.8 0.8 1.3 1.9 1.3 3.1v0.7H20v-4.5C20-79 19.8-79.4 19.6-79.7z"/></g><g><g><path fill-rule="evenodd" clip-rule="evenodd" fill="#2D95BF" d="M14.3-77.2c-0.6 0.6-1.4 0.9-2.3 0.9s-1.7-0.3-2.3-0.9 c-0.6 0.6-1 1.5-1 2.4v3.4h6.7v-3.4C15.3-75.7 14.9-76.5 14.3-77.2z"/></g><circle fill-rule="evenodd" clip-rule="evenodd" fill="#2D95BF" cx="11.9" cy="-79.8" r="2.5"/></g><g><path fill="#2D95BF" d="M14.5-10.5c-0.4 0-0.4-0.2-0.6-0.8c-0.3-0.9-0.8-2.7-1.3-3.5c-1.4-2.7-2.3-3.7-3.9-4.7l-7.2-4.2v-14.5 l13-7.3l13 7.3v14.5l-7.2 4.2c-1.6 0.9-2.4 1.9-3.9 4.7c-0.5 0.9-1 2.7-1.3 3.6C14.9-10.7 14.9-10.5 14.5-10.5 C14.5-10.5 14.5-10.5 14.5-10.5z"/><path fill="#FFFFFF" d="M14.5-45L27-38v14l-6.9 4c-1.8 1-2.6 2.1-4.1 4.9c-0.6 1.2-1.5 4.1-1.5 4.1l0 0h0l0 0c0 0-0.9-2.9-1.5-4.1 c-1.4-2.7-2.3-3.8-4.1-4.9L2-24v-14L14.5-45 M14.5-46.1L14-45.9l-12.5 7L1-38.5v0.6v14v0.6l0.5 0.3l6.9 4c1.5 0.9 2.3 1.8 3.7 4.5 c0.4 0.8 1 2.7 1.3 3.5c0.2 0.6 0.4 1.2 1.1 1.2c0 0 0 0 0 0c0.7 0 0.9-0.6 1.1-1.2c0.3-0.8 0.8-2.6 1.3-3.5 c1.4-2.7 2.1-3.6 3.7-4.5l6.9-4l0.5-0.3V-24v-14v-0.6l-0.5-0.3l-12.5-7L14.5-46.1L14.5-46.1z"/></g><g><polygon fill="#FFFFFF" points="24,-26 14.5,-21 5,-26 5,-36 14.5,-41 24,-36"/></g><path fill-rule="evenodd" clip-rule="evenodd" fill="#2D95BF" d="M17.4-33.8c0.6 0 1.2-0.3 1.6-0.7c-0.4-0.3-1-0.6-1.6-0.6 s-1.1 0.2-1.6 0.6C16.2-34.1 16.7-33.8 17.4-33.8z"/><circle fill-rule="evenodd" clip-rule="evenodd" fill="#2D95BF" cx="17.4" cy="-35.9" r="2.1"/><g><path fill-rule="evenodd" clip-rule="evenodd" fill="#2D95BF" d="M15-28h0.3v-0.7c0-0.5-0.1-0.9-0.3-1.4V-28z"/><path fill-rule="evenodd" clip-rule="evenodd" fill="#2D95BF" d="M19.6-33.7c-0.6 0.6-1.4 0.9-2.3 0.9s-1.6-0.4-2.1-0.9 C15-33.4 15-33 15-32.5v0.7c0.8 0.8 1.3 1.9 1.3 3.1v0.7H20v-4.5C20-33 19.8-33.4 19.6-33.7z"/></g><g><g><path fill-rule="evenodd" clip-rule="evenodd" fill="#2D95BF" d="M14.3-31.2c-0.6 0.6-1.4 0.9-2.3 0.9s-1.7-0.3-2.3-0.9 c-0.6 0.6-1 1.5-1 2.4v3.4h6.7v-3.4C15.3-29.7 14.9-30.5 14.3-31.2z"/></g><circle fill-rule="evenodd" clip-rule="evenodd" fill="#2D95BF" cx="11.9" cy="-33.8" r="2.5"/></g><g><path fill="#2D95BF" d="M13.7 36.2c0 0-0.6-1.9-1.2-3.1c-1.4-2.6-3.1-4.1-3.2-4.1c-0.4-0.3-1.1-0.8-1.6-1l-6.1-3.1 C1 24.6 0.5 23.7 0.5 23V9c0-0.7 0.5-1.6 1.2-1.9L13.4 1c0.3-0.2 0.7-0.2 1.1-0.2s0.8 0.1 1.1 0.2l11.7 6.1C28 7.5 28.5 8.3 28.5 9 v14c0 0.7-0.5 1.6-1.2 1.9L21.2 28c-0.5 0.2-1.2 0.7-1.6 1c0 0-1.8 1.5-3.2 4.1c-0.6 1.2-1.2 3.1-1.2 3.1L14.5 38L13.7 36.2z"/><path fill="#FFFFFF" d="M14.5 1.3c0.3 0 0.6 0.1 0.9 0.2l11.7 6.1C27.6 7.8 28 8.5 28 9v14c0 0.5-0.4 1.2-0.9 1.5L21 27.6 c-0.5 0.2-1.2 0.7-1.7 1.1c0 0-1.9 1.5-3.3 4.2c-0.6 1.2-1.2 3.2-1.2 3.2c-0.2 0.5-0.3 1-0.3 1s-0.1-0.4-0.3-1c0 0-0.6-1.9-1.2-3.2 c-1.4-2.7-3.3-4.2-3.3-4.2c-0.4-0.3-1.2-0.8-1.7-1.1l-6.1-3.1C1.4 24.2 1 23.5 1 23V9c0-0.6 0.4-1.2 0.9-1.5l11.7-6.1 C13.9 1.3 14.2 1.3 14.5 1.3 M14.5 0.3c-0.5 0-1 0.1-1.3 0.3L1.4 6.7C0.6 7.1 0 8.1 0 9v14c0 0.9 0.6 1.9 1.4 2.3l6.1 3.1 c0.4 0.2 1.1 0.7 1.5 1c0 0 1.7 1.4 3 3.9c0.6 1.1 1.1 3 1.1 3c0.4 1.3 0.5 1.7 1.2 1.7s0.9-0.4 1.2-1.7c0 0 0.6-1.8 1.1-3 c1.3-2.5 3-3.9 3-3.9c0.4-0.3 1.1-0.8 1.5-1l6.1-3.1c0.8-0.4 1.4-1.4 1.4-2.3V9c0-0.9-0.6-1.9-1.4-2.3L15.8 0.6 C15.5 0.4 15 0.3 14.5 0.3L14.5 0.3z"/></g><g><path fill="#FFFFFF" d="M25 21c0 0.6-0.4 1.2-0.9 1.4l-8.7 4.1c-0.5 0.2-1.3 0.2-1.8 0l-8.7-4.1C4.4 22.2 4 21.5 4 21V11 c0-0.6 0.4-1.2 0.9-1.4l8.7-4.1c0.5-0.2 1.3-0.2 1.8 0l8.7 4.1C24.6 9.8 25 10.4 25 11V21z"/></g><circle fill-rule="evenodd" clip-rule="evenodd" fill="#2D95BF" cx="17.2" cy="11" r="2.2"/><g><g><path fill-rule="evenodd" clip-rule="evenodd" fill="#2D95BF" d="M14 15.9c-0.7 0.6-1.5 0.9-2.4 0.9c-0.9 0-1.8-0.4-2.4-0.9 C8.4 16.6 8 17.5 8 18.5V22h7.1v-3.5C15.1 17.5 14.6 16.6 14 15.9z"/></g><circle fill-rule="evenodd" clip-rule="evenodd" fill="#2D95BF" cx="11.5" cy="13.2" r="2.7"/><g><g><path fill-rule="evenodd" clip-rule="evenodd" fill="#2D95BF" d="M19.8 12.9c-0.6 0.8-1.5 1.3-2.6 1.3c-0.8 0-1.5-0.3-2.1-0.8 c0 0.6-0.2 1.2-0.6 1.8l0.1 0.1c0.9 0.9 1.4 2 1.4 3.3V19H21v-3.5C21 14.4 20.5 13.5 19.8 12.9z"/></g></g></g><g><path fill="#4EBA6F" stroke="#FFFFFF" stroke-miterlimit="10" d="M49.7 36.2c0 0-0.6-1.9-1.2-3.1c-1.4-2.6-3.1-4.1-3.2-4.1 c-0.4-0.3-1.1-0.8-1.6-1l-6.1-3.1c-0.7-0.3-1.2-1.2-1.2-1.9V9c0-0.7 0.5-1.6 1.2-1.9L49.4 1c0.3-0.2 0.7-0.2 1.1-0.2 s0.8 0.1 1.1 0.2l11.7 6.1C64 7.5 64.5 8.3 64.5 9v14c0 0.7-0.5 1.6-1.2 1.9L57.2 28c-0.5 0.2-1.2 0.7-1.6 1c0 0-1.8 1.5-3.2 4.1 c-0.6 1.2-1.2 3.1-1.2 3.1L50.5 38L49.7 36.2z"/><path fill="#FFFFFF" d="M50.5 1.3c0.3 0 0.6 0.1 0.9 0.2l11.7 6.1C63.6 7.8 64 8.5 64 9v14c0 0.5-0.4 1.2-0.9 1.5L57 27.6 c-0.5 0.2-1.2 0.7-1.7 1.1c0 0-1.9 1.5-3.3 4.2c-0.6 1.2-1.2 3.2-1.2 3.2c-0.2 0.5-0.3 1-0.3 1s-0.1-0.4-0.3-1c0 0-0.6-1.9-1.2-3.2 c-1.4-2.7-3.3-4.2-3.3-4.2c-0.4-0.3-1.2-0.8-1.7-1.1l-6.1-3.1C37.4 24.2 37 23.5 37 23V9c0-0.6 0.4-1.2 0.9-1.5l11.7-6.1 C49.9 1.3 50.2 1.3 50.5 1.3 M50.5 0.3c-0.5 0-1 0.1-1.3 0.3L37.4 6.7C36.6 7.1 36 8.1 36 9v14c0 0.9 0.6 1.9 1.4 2.3l6.1 3.1 c0.4 0.2 1.1 0.7 1.5 1c0 0 1.7 1.4 3 3.9c0.6 1.1 1.1 3 1.1 3c0.4 1.3 0.5 1.7 1.2 1.7s0.9-0.4 1.2-1.7c0 0 0.6-1.8 1.1-3 c1.3-2.5 3-3.9 3-3.9c0.4-0.3 1.1-0.8 1.5-1l6.1-3.1c0.8-0.4 1.4-1.4 1.4-2.3V9c0-0.9-0.6-1.9-1.4-2.3L51.8 0.6 C51.5 0.4 51 0.3 50.5 0.3L50.5 0.3z"/></g><g><path fill="#FFFFFF" d="M61 21c0 0.6-0.4 1.2-0.9 1.4l-8.7 4.1c-0.5 0.2-1.3 0.2-1.8 0l-8.7-4.1C40.4 22.2 40 21.5 40 21V11 c0-0.6 0.4-1.2 0.9-1.4l8.7-4.1c0.5-0.2 1.3-0.2 1.8 0l8.7 4.1C60.6 9.8 61 10.4 61 11V21z"/></g><g><path fill="#F0C419" stroke="#FFFFFF" stroke-miterlimit="10" d="M85.7 36.2c0 0-0.6-1.9-1.2-3.1c-1.4-2.6-3.1-4.1-3.2-4.1 c-0.4-0.3-1.1-0.8-1.6-1l-6.1-3.1c-0.7-0.3-1.2-1.2-1.2-1.9V9c0-0.7 0.5-1.6 1.2-1.9L85.4 1c0.3-0.2 0.7-0.2 1.1-0.2 s0.8 0.1 1.1 0.2l11.7 6.1c0.6 0.3 1.2 1.2 1.2 1.9v14c0 0.7-0.5 1.6-1.2 1.9L93.2 28c-0.5 0.2-1.2 0.7-1.6 1c0 0-1.8 1.5-3.2 4.1 c-0.6 1.2-1.2 3.1-1.2 3.1L86.5 38L85.7 36.2z"/><path fill="#FFFFFF" d="M86.5 1.3c0.3 0 0.6 0.1 0.9 0.2l11.7 6.1C99.6 7.8 100 8.5 100 9v14c0 0.5-0.4 1.2-0.9 1.5L93 27.6 c-0.5 0.2-1.2 0.7-1.7 1.1c0 0-1.9 1.5-3.3 4.2c-0.6 1.2-1.2 3.2-1.2 3.2c-0.2 0.5-0.3 1-0.3 1s-0.1-0.4-0.3-1c0 0-0.6-1.9-1.2-3.2 c-1.4-2.7-3.3-4.2-3.3-4.2c-0.4-0.3-1.2-0.8-1.7-1.1l-6.1-3.1C73.4 24.2 73 23.5 73 23V9c0-0.6 0.4-1.2 0.9-1.5l11.7-6.1 C85.9 1.3 86.2 1.3 86.5 1.3 M86.5 0.3c-0.5 0-1 0.1-1.3 0.3L73.4 6.7C72.6 7.1 72 8.1 72 9v14c0 0.9 0.6 1.9 1.4 2.3l6.1 3.1 c0.4 0.2 1.1 0.7 1.5 1c0 0 1.7 1.4 3 3.9c0.6 1.1 1.1 3 1.1 3c0.4 1.3 0.5 1.7 1.2 1.7s0.9-0.4 1.2-1.7c0 0 0.6-1.8 1.1-3 c1.3-2.5 3-3.9 3-3.9c0.4-0.3 1.1-0.8 1.5-1l6.1-3.1c0.8-0.4 1.4-1.4 1.4-2.3V9c0-0.9-0.6-1.9-1.4-2.3L87.8 0.6 C87.5 0.4 87 0.3 86.5 0.3L86.5 0.3z"/></g><g><path fill="#FFFFFF" d="M97 21c0 0.6-0.4 1.2-0.9 1.4l-8.7 4.1c-0.5 0.2-1.3 0.2-1.8 0l-8.7-4.1C76.4 22.2 76 21.5 76 21V11 c0-0.6 0.4-1.2 0.9-1.4l8.7-4.1c0.5-0.2 1.3-0.2 1.8 0l8.7 4.1C96.6 9.8 97 10.4 97 11V21z"/></g><g><path fill="#F89C1C" stroke="#FFFFFF" stroke-miterlimit="10" d="M121.7 36.2c0 0-0.6-1.9-1.2-3.1c-1.4-2.6-3.1-4.1-3.2-4.1 c-0.4-0.3-1.1-0.8-1.6-1l-6.1-3.1c-0.7-0.3-1.2-1.2-1.2-1.9V9c0-0.7 0.5-1.6 1.2-1.9L121.4 1c0.3-0.2 0.7-0.2 1.1-0.2 s0.8 0.1 1.1 0.2l11.7 6.1c0.6 0.3 1.2 1.2 1.2 1.9v14c0 0.7-0.5 1.6-1.2 1.9l-6.2 3.1c-0.5 0.2-1.2 0.7-1.6 1c0 0-1.8 1.5-3.2 4.1 c-0.6 1.2-1.2 3.1-1.2 3.1l-0.8 1.8L121.7 36.2z"/><path fill="#FFFFFF" d="M122.5 1.3c0.3 0 0.6 0.1 0.9 0.2l11.7 6.1c0.5 0.3 0.9 0.9 0.9 1.5v14c0 0.5-0.4 1.2-0.9 1.5l-6.1 3.1 c-0.5 0.2-1.2 0.7-1.7 1.1c0 0-1.9 1.5-3.3 4.2c-0.6 1.2-1.2 3.2-1.2 3.2c-0.2 0.5-0.3 1-0.3 1s-0.1-0.4-0.3-1c0 0-0.6-1.9-1.2-3.2 c-1.4-2.7-3.3-4.2-3.3-4.2c-0.4-0.3-1.2-0.8-1.7-1.1l-6.1-3.1c-0.5-0.2-0.9-0.9-0.9-1.5V9c0-0.6 0.4-1.2 0.9-1.5l11.7-6.1 C121.9 1.3 122.2 1.3 122.5 1.3 M122.5 0.3c-0.5 0-1 0.1-1.3 0.3l-11.7 6.1C108.6 7.1 108 8.1 108 9v14c0 0.9 0.6 1.9 1.4 2.3 l6.1 3.1c0.4 0.2 1.1 0.7 1.5 1c0 0 1.7 1.4 3 3.9c0.6 1.1 1.1 3 1.1 3c0.4 1.3 0.5 1.7 1.2 1.7s0.9-0.4 1.2-1.7c0 0 0.6-1.8 1.1-3 c1.3-2.5 3-3.9 3-3.9c0.4-0.3 1.1-0.8 1.5-1l6.1-3.1c0.8-0.4 1.4-1.4 1.4-2.3V9c0-0.9-0.6-1.9-1.4-2.3l-11.7-6.1 C123.5 0.4 123 0.3 122.5 0.3L122.5 0.3z"/></g><g><path fill="#FFFFFF" d="M133 21c0 0.6-0.4 1.2-0.9 1.4l-8.7 4.1c-0.5 0.2-1.3 0.2-1.8 0l-8.7-4.1c-0.5-0.2-0.9-0.9-0.9-1.4V11 c0-0.6 0.4-1.2 0.9-1.4l8.7-4.1c0.5-0.2 1.3-0.2 1.8 0l8.7 4.1c0.5 0.2 0.9 0.9 0.9 1.4V21z"/></g><g><path fill="#F15A5A" stroke="#FFFFFF" stroke-miterlimit="10" d="M157.7 36.2c0 0-0.6-1.9-1.2-3.1c-1.4-2.6-3.1-4.1-3.2-4.1 c-0.4-0.3-1.1-0.8-1.6-1l-6.1-3.1c-0.7-0.3-1.2-1.2-1.2-1.9V9c0-0.7 0.5-1.6 1.2-1.9L157.4 1c0.3-0.2 0.7-0.2 1.1-0.2 s0.8 0.1 1.1 0.2l11.7 6.1c0.6 0.3 1.2 1.2 1.2 1.9v14c0 0.7-0.5 1.6-1.2 1.9l-6.2 3.1c-0.5 0.2-1.2 0.7-1.6 1c0 0-1.8 1.5-3.2 4.1 c-0.6 1.2-1.2 3.1-1.2 3.1l-0.8 1.8L157.7 36.2z"/><path fill="#FFFFFF" d="M158.5 1.3c0.3 0 0.6 0.1 0.9 0.2l11.7 6.1c0.5 0.3 0.9 0.9 0.9 1.5v14c0 0.5-0.4 1.2-0.9 1.5l-6.1 3.1 c-0.5 0.2-1.2 0.7-1.7 1.1c0 0-1.9 1.5-3.3 4.2c-0.6 1.2-1.2 3.2-1.2 3.2c-0.2 0.5-0.3 1-0.3 1s-0.1-0.4-0.3-1c0 0-0.6-1.9-1.2-3.2 c-1.4-2.7-3.3-4.2-3.3-4.2c-0.4-0.3-1.2-0.8-1.7-1.1l-6.1-3.1c-0.5-0.2-0.9-0.9-0.9-1.5V9c0-0.6 0.4-1.2 0.9-1.5l11.7-6.1 C157.9 1.3 158.2 1.3 158.5 1.3 M158.5 0.3c-0.5 0-1 0.1-1.3 0.3l-11.7 6.1C144.6 7.1 144 8.1 144 9v14c0 0.9 0.6 1.9 1.4 2.3 l6.1 3.1c0.4 0.2 1.1 0.7 1.5 1c0 0 1.7 1.4 3 3.9c0.6 1.1 1.1 3 1.1 3c0.4 1.3 0.5 1.7 1.2 1.7s0.9-0.4 1.2-1.7c0 0 0.6-1.8 1.1-3 c1.3-2.5 3-3.9 3-3.9c0.4-0.3 1.1-0.8 1.5-1l6.1-3.1c0.8-0.4 1.4-1.4 1.4-2.3V9c0-0.9-0.6-1.9-1.4-2.3l-11.7-6.1 C159.5 0.4 159 0.3 158.5 0.3L158.5 0.3z"/></g><g><path fill="#FFFFFF" d="M169 21c0 0.6-0.4 1.2-0.9 1.4l-8.7 4.1c-0.5 0.2-1.3 0.2-1.8 0l-8.7-4.1c-0.5-0.2-0.9-0.9-0.9-1.4V11 c0-0.6 0.4-1.2 0.9-1.4l8.7-4.1c0.5-0.2 1.3-0.2 1.8 0l8.7 4.1c0.5 0.2 0.9 0.9 0.9 1.4V21z"/></g><g><path fill="#955BA5" stroke="#FFFFFF" stroke-miterlimit="10" d="M193.7 36.2c0 0-0.6-1.9-1.2-3.1c-1.4-2.6-3.1-4.1-3.2-4.1 c-0.4-0.3-1.1-0.8-1.6-1l-6.1-3.1c-0.7-0.3-1.2-1.2-1.2-1.9V9c0-0.7 0.5-1.6 1.2-1.9L193.4 1c0.3-0.2 0.7-0.2 1.1-0.2 s0.8 0.1 1.1 0.2l11.7 6.1c0.6 0.3 1.2 1.2 1.2 1.9v14c0 0.7-0.5 1.6-1.2 1.9l-6.2 3.1c-0.5 0.2-1.2 0.7-1.6 1c0 0-1.8 1.5-3.2 4.1 c-0.6 1.2-1.2 3.1-1.2 3.1l-0.8 1.8L193.7 36.2z"/><path fill="#FFFFFF" d="M194.5 1.3c0.3 0 0.6 0.1 0.9 0.2l11.7 6.1c0.5 0.3 0.9 0.9 0.9 1.5v14c0 0.5-0.4 1.2-0.9 1.5l-6.1 3.1 c-0.5 0.2-1.2 0.7-1.7 1.1c0 0-1.9 1.5-3.3 4.2c-0.6 1.2-1.2 3.2-1.2 3.2c-0.2 0.5-0.3 1-0.3 1s-0.1-0.4-0.3-1c0 0-0.6-1.9-1.2-3.2 c-1.4-2.7-3.3-4.2-3.3-4.2c-0.4-0.3-1.2-0.8-1.7-1.1l-6.1-3.1c-0.5-0.2-0.9-0.9-0.9-1.5V9c0-0.6 0.4-1.2 0.9-1.5l11.7-6.1 C193.9 1.3 194.2 1.3 194.5 1.3 M194.5 0.3c-0.5 0-1 0.1-1.3 0.3l-11.7 6.1C180.6 7.1 180 8.1 180 9v14c0 0.9 0.6 1.9 1.4 2.3 l6.1 3.1c0.4 0.2 1.1 0.7 1.5 1c0 0 1.7 1.4 3 3.9c0.6 1.1 1.1 3 1.1 3c0.4 1.3 0.5 1.7 1.2 1.7s0.9-0.4 1.2-1.7c0 0 0.6-1.8 1.1-3 c1.3-2.5 3-3.9 3-3.9c0.4-0.3 1.1-0.8 1.5-1l6.1-3.1c0.8-0.4 1.4-1.4 1.4-2.3V9c0-0.9-0.6-1.9-1.4-2.3l-11.7-6.1 C195.5 0.4 195 0.3 194.5 0.3L194.5 0.3z"/></g><g><path fill="#FFFFFF" d="M205 21c0 0.6-0.4 1.2-0.9 1.4l-8.7 4.1c-0.5 0.2-1.3 0.2-1.8 0l-8.7-4.1c-0.5-0.2-0.9-0.9-0.9-1.4V11 c0-0.6 0.4-1.2 0.9-1.4l8.7-4.1c0.5-0.2 1.3-0.2 1.8 0l8.7 4.1c0.5 0.2 0.9 0.9 0.9 1.4V21z"/></g><g><path fill="#2D95BF" d="M-154.3 36.2c0 0-0.6-1.9-1.2-3.1c-1.4-2.6-3.1-4.1-3.2-4.1c-0.4-0.3-1.1-0.8-1.6-1l-6.1-3.1 c-0.7-0.3-1.2-1.2-1.2-1.9V9c0-0.7 0.5-1.6 1.2-1.9l11.7-6.1c0.3-0.2 0.7-0.2 1.1-0.2s0.8 0.1 1.1 0.2l11.7 6.1 c0.6 0.3 1.2 1.2 1.2 1.9v14c0 0.7-0.5 1.6-1.2 1.9l-6.2 3.1c-0.5 0.2-1.2 0.7-1.6 1c0 0-1.8 1.5-3.2 4.1c-0.6 1.2-1.2 3.1-1.2 3.1 l-0.8 2.6L-154.3 36.2z"/><path fill="#FFFFFF" d="M-153.5 1.3c0.3 0 0.6 0.1 0.9 0.2l11.7 6.1c0.5 0.3 0.9 0.9 0.9 1.5v14c0 0.5-0.4 1.2-0.9 1.5l-6.1 3.1 c-0.5 0.2-1.2 0.7-1.7 1.1c0 0-1.9 1.5-3.3 4.2c-0.6 1.2-1.2 3.2-1.2 3.2c-0.2 0.5-0.3 1-0.3 1s-0.1-0.4-0.3-1c0 0-0.6-1.9-1.2-3.2 c-1.4-2.7-3.3-4.2-3.3-4.2c-0.4-0.3-1.2-0.8-1.7-1.1l-6.1-3.1c-0.5-0.2-0.9-0.9-0.9-1.5V9c0-0.6 0.4-1.2 0.9-1.5l11.7-6.1 C-154.1 1.3-153.8 1.3-153.5 1.3 M-153.5 0.3c-0.5 0-1 0.1-1.3 0.3l-11.7 6.1c-0.8 0.4-1.4 1.4-1.4 2.3v14c0 0.9 0.6 1.9 1.4 2.3 l6.1 3.1c0.4 0.2 1.1 0.7 1.5 1c0 0 1.7 1.4 3 3.9c0.6 1.1 1.1 3 1.1 3c0.4 1.3 0.5 1.7 1.2 1.7s0.9-0.4 1.2-1.7c0 0 0.6-1.8 1.1-3 c1.3-2.5 3-3.9 3-3.9c0.4-0.3 1.1-0.8 1.5-1l6.1-3.1c0.8-0.4 1.4-1.4 1.4-2.3V9c0-0.9-0.6-1.9-1.4-2.3l-11.7-6.1 C-152.5 0.4-153 0.3-153.5 0.3L-153.5 0.3z"/></g><g><path fill="#FFFFFF" d="M-143 21c0 0.6-0.4 1.2-0.9 1.4l-8.7 4.1c-0.5 0.2-1.3 0.2-1.8 0l-8.7-4.1c-0.5-0.2-0.9-0.9-0.9-1.4V11 c0-0.6 0.4-1.2 0.9-1.4l8.7-4.1c0.5-0.2 1.3-0.2 1.8 0l8.7 4.1c0.5 0.2 0.9 0.9 0.9 1.4V21z"/></g><path fill-rule="evenodd" clip-rule="evenodd" fill="#2D95BF" d="M-150.8 13.2c0.7 0 1.2-0.3 1.6-0.7c-0.5-0.4-1-0.6-1.6-0.6 c-0.6 0-1.2 0.2-1.6 0.6C-152 12.9-151.4 13.2-150.8 13.2z"/><circle fill-rule="evenodd" clip-rule="evenodd" fill="#2D95BF" cx="-150.8" cy="11" r="2.2"/><g><g><path fill-rule="evenodd" clip-rule="evenodd" fill="#2D95BF" d="M-154 15.9c-0.7 0.6-1.5 0.9-2.4 0.9s-1.8-0.4-2.4-0.9 c-0.7 0.6-1.1 1.5-1.1 2.5V22h7.1v-3.5C-152.9 17.5-153.4 16.6-154 15.9z"/></g><circle fill-rule="evenodd" clip-rule="evenodd" fill="#2D95BF" cx="-156.5" cy="13.2" r="2.7"/><g><g><path fill-rule="evenodd" clip-rule="evenodd" fill="#2D95BF" d="M-148.2 12.9c-0.6 0.8-1.5 1.3-2.6 1.3c-0.8 0-1.5-0.3-2.1-0.8 c0 0.6-0.2 1.2-0.6 1.8l0.1 0.1c0.9 0.9 1.4 2 1.4 3.3V19h4.9v-3.5C-147 14.4-147.5 13.5-148.2 12.9z"/></g></g></g><g><path fill="#2D95BF" d="M1270-477.5c-0.5-0.3-1.3-0.3-1.8 0L823-245.4c-0.5 0.3-0.9 0.9-0.9 1.5v526.5c0 0.6 0.4 1.2 0.9 1.5 l260.9 132.2c0.5 0.2 1.2 0.7 1.7 1.1c0 0 86.8 70.6 133.7 160.4c21.4 40.9 49.6 135.4 49.6 135.4c0.2 0.5 0.3 1 0.3 1 c0 0 0.1-0.4 0.3-1c0 0 28.2-94.4 49.6-135.4c46.9-89.8 133.7-160.4 133.7-160.4c0.4-0.3 1.2-0.8 1.7-1.1L1715.2 284 c0.5-0.2 0.9-0.9 0.9-1.5v-526.5c0-0.6-0.4-1.2-0.9-1.5L1270-477.5z"/></g><g><path fill="#FFFFFF" d="M1616.8 216.3c0 0.5-0.4 1.2-0.9 1.4L1270 382.5c-0.5 0.2-1.3 0.2-1.8 0L922.4 217.8 c-0.5-0.2-0.9-0.9-0.9-1.4V-179c0-0.6 0.4-1.2 0.9-1.4l345.9-164.7c0.5-0.2 1.3-0.2 1.8 0l345.9 164.7c0.5 0.2 0.9 0.9 0.9 1.4 V216.3z"/></g><path fill-rule="evenodd" clip-rule="evenodd" fill="#2D95BF" d="M1359.9-75.3c21.7 0 40.9-9.6 54.3-24.6 c-15-11.9-33.7-19.3-54.3-19.3s-39.3 7.4-54.3 19.3C1318.9-84.9 1338.2-75.3 1359.9-75.3z"/><circle fill-rule="evenodd" clip-rule="evenodd" fill="#2D95BF" cx="1359.9" cy="-148.5" r="73.2"/><g><g><path fill-rule="evenodd" clip-rule="evenodd" fill="#2D95BF" d="M1251.9 15.9c-21.6 19.2-49.8 31.2-80.9 31.2s-59.3-12-80.9-31.2 c-22.2 21.3-36.2 51.1-36.2 84.3v117.1H1288V100.3C1288 67.1 1274.1 37.2 1251.9 15.9z"/></g><path fill-rule="evenodd" clip-rule="evenodd" fill="#2D95BF" d="M1171-163.1c-48.5 0-87.8 39.3-87.8 87.8s39.3 87.8 87.8 87.8 c48.5 0 87.8-39.3 87.8-87.8S1219.5-163.1 1171-163.1z"/><g><g><path fill-rule="evenodd" clip-rule="evenodd" fill="#2D95BF" d="M1444.4-84.8c-19.4 25.7-49.9 42.6-84.5 42.6 c-26.4 0-50.1-10.2-68.7-26.2c-1.2 21.4-7.7 41.3-18.7 58.3l2.3 2.2c29.9 28.7 46.4 67.1 46.4 108.2V118h163.2V2.1 C1484.4-32.7 1468.7-63.5 1444.4-84.8z"/></g></g></g><g><path fill="#2D95BF" d="M-115.5 38c-0.4 0-0.4-0.4-0.6-1.1c-0.3-0.9-0.8-2.8-1.3-3.7c-1.4-2.7-2.5-3.8-4.1-4.7l-8.4-4.2V7.7l14-7.3 l14 7.3v16.6l-8 4.2c-1.6 0.9-2.3 1.9-3.7 4.6c-0.5 0.9-1 2.9-1.2 3.8C-115.1 37.5-115.1 38-115.5 38C-115.5 38-115.5 38-115.5 38z "/><path fill="#FFFFFF" d="M-115.5 1l13.5 7v16l-7.9 4c-1.8 1-2.6 2.1-4.1 4.9c-0.6 1.2-1.5 4.1-1.5 4.1h0h0h0c0 0-0.9-2.9-1.5-4.1 c-1.4-2.7-2.3-3.8-4.1-4.9l-7.9-4V8L-115.5 1 M-115.5-0.1l-0.5 0.2l-13.5 7l-0.5 0.3V8v16v0.6l0.5 0.3l7.9 4 c1.5 0.9 2.3 1.8 3.7 4.4c0.4 0.8 1 2.7 1.3 3.5c0.2 0.6 0.4 1.2 1.1 1.2c0 0 0 0 0 0c0.7 0 0.9-0.6 1.1-1.2 c0.3-0.8 0.8-2.6 1.3-3.5c1.4-2.6 2.1-3.6 3.7-4.4l7.9-4l0.5-0.3V24V8V7.4l-0.5-0.3l-13.5-7L-115.5-0.1L-115.5-0.1z"/></g><g><polygon fill="#FFFFFF" points="-105,22 -115.5,27 -126,22 -126,10 -115.5,5 -105,10"/></g><path fill-rule="evenodd" clip-rule="evenodd" fill="#2D95BF" d="M-112.8 13.2c0.7 0 1.2-0.3 1.6-0.7c-0.5-0.4-1-0.6-1.6-0.6 s-1.2 0.2-1.6 0.6C-114 12.9-113.4 13.2-112.8 13.2z"/><circle fill-rule="evenodd" clip-rule="evenodd" fill="#2D95BF" cx="-112.8" cy="11" r="2.2"/><g><g><path fill-rule="evenodd" clip-rule="evenodd" fill="#2D95BF" d="M-116 15.9c-0.7 0.6-1.5 0.9-2.4 0.9c-0.9 0-1.8-0.4-2.4-0.9 c-0.7 0.6-1.1 1.5-1.1 2.5V22h7.1v-3.5C-114.9 17.5-115.4 16.6-116 15.9z"/></g><circle fill-rule="evenodd" clip-rule="evenodd" fill="#2D95BF" cx="-118.5" cy="13.2" r="2.7"/><g><g><path fill-rule="evenodd" clip-rule="evenodd" fill="#2D95BF" d="M-110.2 12.9c-0.6 0.8-1.5 1.3-2.6 1.3c-0.8 0-1.5-0.3-2.1-0.8 c0 0.6-0.2 1.2-0.6 1.8l0.1 0.1c0.9 0.9 1.4 2 1.4 3.3V19h4.9v-3.5C-109 14.4-109.5 13.5-110.2 12.9z"/></g></g></g><g><path fill-rule="evenodd" clip-rule="evenodd" fill="#2D95BF" d="M-72.5 19.5v-4c0-2.2 1.8-4 4-4s4 1.8 4 4v4H-72.5z"/><path fill="#FFFFFF" d="M-68.5 12c1.9 0 3.5 1.6 3.5 3.5V19h-7v-3.5C-72 13.6-70.4 12-68.5 12 M-68.5 11c-2.5 0-4.5 2-4.5 4.5V19v1 h1h7h1v-1v-3.5C-64 13-66 11-68.5 11L-68.5 11z"/></g><path fill-rule="evenodd" clip-rule="evenodd" fill="#2D95BF" d="M-68.8 13.2c0.7 0 1.2-0.3 1.6-0.7c-0.5-0.4-1-0.6-1.6-0.6 s-1.2 0.2-1.6 0.6C-70 12.9-69.4 13.2-68.8 13.2z"/><circle fill-rule="evenodd" clip-rule="evenodd" fill="#2D95BF" cx="-68.8" cy="11" r="2.2"/><g><circle fill-rule="evenodd" clip-rule="evenodd" fill="#2BB673" cx="-68.8" cy="11" r="2.7"/><path fill="#FFFFFF" d="M-68.8 8.7c1.2 0 2.2 1 2.2 2.2c0 1.2-1 2.2-2.2 2.2s-2.2-1-2.2-2.2C-71 9.7-70 8.7-68.8 8.7 M-68.8 7.7 c-1.8 0-3.2 1.4-3.2 3.2c0 1.8 1.4 3.2 3.2 3.2s3.2-1.4 3.2-3.2C-65.5 9.2-67 7.7-68.8 7.7L-68.8 7.7z"/></g><g><g><path fill-rule="evenodd" clip-rule="evenodd" fill="#2D95BF" d="M-72 15.9c-0.7 0.6-1.5 0.9-2.4 0.9c-0.9 0-1.8-0.4-2.4-0.9 c-0.7 0.6-1.1 1.5-1.1 2.5V22h7.1v-3.5C-70.9 17.5-71.4 16.6-72 15.9z"/></g><circle fill-rule="evenodd" clip-rule="evenodd" fill="#2D95BF" cx="-74.5" cy="13.2" r="2.7"/></g><g><path fill-rule="evenodd" clip-rule="evenodd" fill="#2D95BF" d="M-79.5-68.1l1-0.5V-73c0-1.2-0.5-2.3-1.4-3c-0.7 0.6-1.6 1-2.6 1 s-1.9-0.4-2.6-1c-0.8 0.7-1.4 1.8-1.4 3v1.2L-79.5-68.1L-79.5-68.1z"/></g><g><path fill="#4EBA6F" d="M49.5-56.5c-0.4 0-0.4-0.2-0.6-0.8c-0.3-0.9-0.8-2.7-1.3-3.5c-1.4-2.7-2.3-3.7-3.9-4.7l-7.2-4.2v-14.5 l13-7.3l13 7.3v14.5l-7.2 4.2c-1.6 0.9-2.4 1.9-3.9 4.7c-0.5 0.9-1 2.7-1.3 3.6C49.9-56.7 49.9-56.5 49.5-56.5 C49.5-56.5 49.5-56.5 49.5-56.5z"/><path fill="#FFFFFF" d="M49.5-91L62-84v14l-6.9 4c-1.8 1-2.6 2.1-4.1 4.9c-0.6 1.2-1.5 4.1-1.5 4.1l0 0h0l0 0c0 0-0.9-2.9-1.5-4.1 c-1.4-2.7-2.3-3.8-4.1-4.9L37-70v-14L49.5-91 M49.5-92.1L49-91.9l-12.5 7L36-84.5v0.6v14v0.6l0.5 0.3l6.9 4 c1.5 0.9 2.3 1.8 3.7 4.5c0.4 0.8 1 2.7 1.3 3.5c0.2 0.6 0.4 1.2 1.1 1.2c0 0 0 0 0 0c0.7 0 0.9-0.6 1.1-1.2 c0.3-0.8 0.8-2.6 1.3-3.5c1.4-2.7 2.1-3.6 3.7-4.5l6.9-4l0.5-0.3V-70v-14v-0.6l-0.5-0.3l-12.5-7L49.5-92.1L49.5-92.1z"/></g><g><polygon fill="#FFFFFF" points="59,-72 49.5,-67 40,-72 40,-82 49.5,-87 59,-82"/></g><g><path fill="#F0C419" d="M84.5-56.5c-0.4 0-0.4-0.2-0.6-0.8c-0.3-0.9-0.8-2.7-1.3-3.5c-1.4-2.7-2.3-3.7-3.9-4.7l-7.2-4.2v-14.5 l13-7.3l13 7.3v14.5l-7.2 4.2c-1.6 0.9-2.4 1.9-3.9 4.7c-0.5 0.9-1 2.7-1.3 3.6C84.9-56.7 84.9-56.5 84.5-56.5 C84.5-56.5 84.5-56.5 84.5-56.5z"/><path fill="#FFFFFF" d="M84.5-91L97-84v14l-6.9 4c-1.8 1-2.6 2.1-4.1 4.9c-0.6 1.2-1.5 4.1-1.5 4.1l0 0h0l0 0c0 0-0.9-2.9-1.5-4.1 c-1.4-2.7-2.3-3.8-4.1-4.9L72-70v-14L84.5-91 M84.5-92.1L84-91.9l-12.5 7L71-84.5v0.6v14v0.6l0.5 0.3l6.9 4 c1.5 0.9 2.3 1.8 3.7 4.5c0.4 0.8 1 2.7 1.3 3.5c0.2 0.6 0.4 1.2 1.1 1.2c0 0 0 0 0 0c0.7 0 0.9-0.6 1.1-1.2 c0.3-0.8 0.8-2.6 1.3-3.5c1.4-2.7 2.1-3.6 3.7-4.5l6.9-4l0.5-0.3V-70v-14v-0.6l-0.5-0.3l-12.5-7L84.5-92.1L84.5-92.1z"/></g><g><polygon fill="#FFFFFF" points="94,-72 84.5,-67 75,-72 75,-82 84.5,-87 94,-82"/></g><path fill-rule="evenodd" clip-rule="evenodd" fill="#4EBA6F" d="M55.7-73.2c-1.7 0-4.3 0.1-5.6 0.9v-0.4v-6.5c0-0.6 1-1.8 5.6-1.8 V-73.2z M43.3-81.1c0.5 0 5.4 0.5 5.6 1.6c0 0.1 0 0.1 0 0.2v6.5v0.4c-1.4-0.8-3.9-0.9-5.6-0.9V-81.1z M49.5-79.5 c0-2.3-5.3-2.5-7.5-2.5v0.9v8.4v0.7h0.8h0.5v1c1.9 0 5.6-0.5 5.6 0.9h1.3c0-1.5 3.7-0.9 5.6-0.9v-1h1.1l0.2 0.1V-82 C54.7-82 49.5-81.7 49.5-79.5z"/><g><path fill="#4EBA6F" d="M49.5-10.5c-0.4 0-0.4-0.2-0.6-0.8c-0.3-0.9-0.8-2.7-1.3-3.5c-1.4-2.7-2.3-3.7-3.9-4.7l-7.2-4.2v-14.5 l13-7.3l13 7.3v14.5l-7.2 4.2c-1.6 0.9-2.4 1.9-3.9 4.7c-0.5 0.9-1 2.7-1.3 3.6C49.9-10.7 49.9-10.5 49.5-10.5 C49.5-10.5 49.5-10.5 49.5-10.5z"/><path fill="#FFFFFF" d="M49.5-45L62-38v14l-6.9 4c-1.8 1-2.6 2.1-4.1 4.9c-0.6 1.2-1.5 4.1-1.5 4.1l0 0h0l0 0c0 0-0.9-2.9-1.5-4.1 c-1.4-2.7-2.3-3.8-4.1-4.9L37-24v-14L49.5-45 M49.5-46.1L49-45.9l-12.5 7L36-38.5v0.6v14v0.6l0.5 0.3l6.9 4 c1.5 0.9 2.3 1.8 3.7 4.5c0.4 0.8 1 2.7 1.3 3.5c0.2 0.6 0.4 1.2 1.1 1.2c0 0 0 0 0 0c0.7 0 0.9-0.6 1.1-1.2 c0.3-0.8 0.8-2.6 1.3-3.5c1.4-2.7 2.1-3.6 3.7-4.5l6.9-4l0.5-0.3V-24v-14v-0.6l-0.5-0.3l-12.5-7L49.5-46.1L49.5-46.1z"/></g><g><polygon fill="#FFFFFF" points="59,-26 49.5,-21 40,-26 40,-36 49.5,-41 59,-36"/></g><path fill-rule="evenodd" clip-rule="evenodd" fill="#4EBA6F" d="M55.7-27.2c-1.7 0-4.3 0.1-5.6 0.9v-0.4v-6.5c0-0.6 1-1.8 5.6-1.8 V-27.2z M43.3-35.1c0.5 0 5.4 0.5 5.6 1.6c0 0.1 0 0.1 0 0.2v6.5v0.4c-1.4-0.8-3.9-0.9-5.6-0.9V-35.1z M49.5-33.5 c0-2.3-5.3-2.5-7.5-2.5v0.9v8.4v0.7h0.8h0.5v1c1.9 0 5.6-0.5 5.6 0.9h1.3c0-1.5 3.7-0.9 5.6-0.9v-1h1.1l0.2 0.1V-36 C54.7-36 49.5-35.7 49.5-33.5z"/><path fill-rule="evenodd" clip-rule="evenodd" fill="#4EBA6F" d="M56.7 18.9c-1.7 0-4.3 0.1-5.6 0.9v-0.4v-6.5c0-0.6 1-1.8 5.6-1.8 V18.9z M44.3 11.1c0.5 0 5.4 0.5 5.6 1.6c0 0.1 0 0.1 0 0.2v6.5v0.4c-1.4-0.8-3.9-0.9-5.6-0.9V11.1z M50.5 12.7 c0-2.3-5.3-2.5-7.5-2.5V11v8.4v0.7h0.8h0.5v1c1.9 0 5.6-0.5 5.6 0.9h1.3c0-1.5 3.7-0.9 5.6-0.9v-1h1.1l0.2 0.1V10.1 C55.7 10.1 50.5 10.4 50.5 12.7z"/><g><path fill="#9FC419" d="M49.7 81.2c0 0-0.6-1.9-1.2-3.1c-1.4-2.6-3.1-4.1-3.2-4.1c-0.4-0.3-1.1-0.8-1.6-1l-6.1-3.1 c-0.7-0.3-1.2-1.2-1.2-1.9V54c0-0.7 0.5-1.6 1.2-1.9L49.4 46c0.3-0.2 0.7-0.2 1.1-0.2s0.8 0.1 1.1 0.2l11.7 6.1 c0.6 0.3 1.2 1.2 1.2 1.9v14c0 0.7-0.5 1.6-1.2 1.9L57.2 73c-0.5 0.2-1.2 0.7-1.6 1c0 0-1.8 1.5-3.2 4.1c-0.6 1.2-1.2 3.1-1.2 3.1 L50.5 83L49.7 81.2z"/><path fill="#FFFFFF" d="M50.5 46.3c0.3 0 0.6 0.1 0.9 0.2l11.7 6.1c0.5 0.3 0.9 0.9 0.9 1.5v14c0 0.5-0.4 1.2-0.9 1.5L57 72.6 c-0.5 0.2-1.2 0.7-1.7 1.1c0 0-1.9 1.5-3.3 4.2c-0.6 1.2-1.2 3.2-1.2 3.2c-0.2 0.5-0.3 1-0.3 1s-0.1-0.4-0.3-1c0 0-0.6-1.9-1.2-3.2 c-1.4-2.7-3.3-4.2-3.3-4.2c-0.4-0.3-1.2-0.8-1.7-1.1l-6.1-3.1C37.4 69.2 37 68.5 37 68V54c0-0.6 0.4-1.2 0.9-1.5l11.7-6.1 C49.9 46.3 50.2 46.3 50.5 46.3 M50.5 45.3c-0.5 0-1 0.1-1.3 0.3l-11.7 6.1C36.6 52.1 36 53.1 36 54v14c0 0.9 0.6 1.9 1.4 2.3 l6.1 3.1c0.4 0.2 1.1 0.7 1.5 1c0 0 1.7 1.4 3 3.9c0.6 1.1 1.1 3 1.1 3c0.4 1.3 0.5 1.7 1.2 1.7s0.9-0.4 1.2-1.7c0 0 0.6-1.8 1.1-3 c1.3-2.5 3-3.9 3-3.9c0.4-0.3 1.1-0.8 1.5-1l6.1-3.1c0.8-0.4 1.4-1.4 1.4-2.3V54c0-0.9-0.6-1.9-1.4-2.3l-11.7-6.1 C51.5 45.4 51 45.3 50.5 45.3L50.5 45.3z"/></g><g><path fill="#FFFFFF" d="M61 66c0 0.5-0.4 1.2-0.9 1.4l-8.7 4.1c-0.5 0.2-1.3 0.2-1.8 0l-8.7-4.1C40.4 67.2 40 66.5 40 66V56 c0-0.5 0.4-1.2 0.9-1.4l8.7-4.1c0.5-0.2 1.3-0.2 1.8 0l8.7 4.1c0.5 0.2 0.9 0.9 0.9 1.4V66z"/></g><path fill-rule="evenodd" clip-rule="evenodd" fill="#F0C419" d="M80-72.2c-1.4 0-2.5-1.1-2.5-2.5c0-1.4 1.1-2.5 2.5-2.5 c1.4 0 2.5 1.1 2.5 2.5C82.5-73.3 81.4-72.2 80-72.2z M77-74.7c0 1.7 1.4 3 3 3c1.7 0 3-1.4 3-3c0-1.7-1.4-3-3-3 C78.3-77.7 77-76.4 77-74.7z M88.9-72.2c-1.4 0-2.5-1.1-2.5-2.5s1.1-2.5 2.5-2.5c1.4 0 2.5 1.1 2.5 2.5S90.3-72.2 88.9-72.2z M85.9-74.7c0 1.7 1.4 3 3 3c1.7 0 3-1.4 3-3c0-1.7-1.4-3-3-3C87.2-77.7 85.9-76.4 85.9-74.7z M85.9-82.1c0.6 0 1.1-0.5 1.1-1.1 s-0.5-1.1-1.1-1.1c-0.6 0-1.1 0.5-1.1 1.1C84.7-82.6 85.3-82.1 85.9-82.1z M85.9-79.2h2.2c0.7 0 0.7-1.2 0-1.2h-1.9l-1.3-2 c0 0-0.3-0.3-0.8-0.3c0 0-0.4-0.1-0.7 0.3l-2.4 2.4c-0.1 0.2-0.2 0.4-0.2 0.6c0 0.4 0.3 0.7 0.6 0.8l2.5 1.4v2.6 c0 0.4 0.2 0.7 0.6 0.7c0.4 0 0.6-0.3 0.6-0.7v-3.2c0 0 0.1-0.5-0.5-0.8l-1.3-0.7l1.5-1.5l0.7 1.2C85.6-79.4 85.8-79.1 85.9-79.2z"/><g><path fill="#F0C419" d="M84.5-10.5c-0.4 0-0.4-0.2-0.6-0.8c-0.3-0.9-0.8-2.7-1.3-3.5c-1.4-2.7-2.3-3.7-3.9-4.7l-7.2-4.2v-14.5 l13-7.3l13 7.3v14.5l-7.2 4.2c-1.6 0.9-2.4 1.9-3.9 4.7c-0.5 0.9-1 2.7-1.3 3.6C84.9-10.7 84.9-10.5 84.5-10.5 C84.5-10.5 84.5-10.5 84.5-10.5z"/><path fill="#FFFFFF" d="M84.5-45L97-38v14l-6.9 4c-1.8 1-2.6 2.1-4.1 4.9c-0.6 1.2-1.5 4.1-1.5 4.1l0 0h0l0 0c0 0-0.9-2.9-1.5-4.1 c-1.4-2.7-2.3-3.8-4.1-4.9L72-24v-14L84.5-45 M84.5-46.1L84-45.9l-12.5 7L71-38.5v0.6v14v0.6l0.5 0.3l6.9 4 c1.5 0.9 2.3 1.8 3.7 4.5c0.4 0.8 1 2.7 1.3 3.5c0.2 0.6 0.4 1.2 1.1 1.2c0 0 0 0 0 0c0.7 0 0.9-0.6 1.1-1.2 c0.3-0.8 0.8-2.6 1.3-3.5c1.4-2.7 2.1-3.6 3.7-4.5l6.9-4l0.5-0.3V-24v-14v-0.6l-0.5-0.3l-12.5-7L84.5-46.1L84.5-46.1z"/></g><g><polygon fill="#FFFFFF" points="94,-26 84.5,-21 75,-26 75,-36 84.5,-41 94,-36"/></g><path fill-rule="evenodd" clip-rule="evenodd" fill="#F0C419" d="M80-26.2c-1.4 0-2.5-1.1-2.5-2.5s1.1-2.5 2.5-2.5 c1.4 0 2.5 1.1 2.5 2.5S81.4-26.2 80-26.2z M77-28.7c0 1.7 1.4 3 3 3c1.7 0 3-1.4 3-3s-1.4-3-3-3C78.3-31.7 77-30.4 77-28.7z M88.9-26.2c-1.4 0-2.5-1.1-2.5-2.5s1.1-2.5 2.5-2.5c1.4 0 2.5 1.1 2.5 2.5S90.3-26.2 88.9-26.2z M85.9-28.7c0 1.7 1.4 3 3 3 c1.7 0 3-1.4 3-3c0-1.7-1.4-3-3-3C87.2-31.7 85.9-30.4 85.9-28.7z M85.9-36.1c0.6 0 1.1-0.5 1.1-1.1s-0.5-1.1-1.1-1.1 c-0.6 0-1.1 0.5-1.1 1.1C84.7-36.6 85.3-36.1 85.9-36.1z M85.9-33.2h2.2c0.7 0 0.7-1.2 0-1.2h-1.9l-1.3-2c0 0-0.3-0.3-0.8-0.3 c0 0-0.4-0.1-0.7 0.3l-2.4 2.4c-0.1 0.2-0.2 0.4-0.2 0.6c0 0.4 0.3 0.7 0.6 0.8l2.5 1.4v2.6c0 0.4 0.2 0.7 0.6 0.7 c0.4 0 0.6-0.3 0.6-0.7v-3.2c0 0 0.1-0.5-0.5-0.8l-1.3-0.7l1.5-1.5l0.7 1.2C85.6-33.4 85.8-33.1 85.9-33.2z"/><path fill-rule="evenodd" clip-rule="evenodd" fill="#F0C419" d="M82 21.4c-1.4 0-2.5-1.1-2.5-2.5c0-1.4 1.1-2.5 2.5-2.5 c1.4 0 2.5 1.1 2.5 2.5C84.5 20.3 83.4 21.4 82 21.4z M79 18.9c0 1.7 1.4 3 3 3c1.7 0 3-1.4 3-3c0-1.7-1.4-3-3-3 C80.4 15.9 79 17.3 79 18.9z M91 21.4c-1.4 0-2.5-1.1-2.5-2.5c0-1.4 1.1-2.5 2.5-2.5c1.4 0 2.5 1.1 2.5 2.5 C93.4 20.3 92.3 21.4 91 21.4z M87.9 19c0 1.7 1.4 3 3 3c1.7 0 3-1.4 3-3c0-1.7-1.4-3-3-3C89.3 15.9 87.9 17.3 87.9 19z M87.9 11.6 c0.6 0 1.1-0.5 1.1-1.1c0-0.6-0.5-1.1-1.1-1.1c-0.6 0-1.1 0.5-1.1 1.1C86.8 11.1 87.3 11.6 87.9 11.6z M88 14.5h2.2 c0.7 0 0.7-1.2 0-1.2h-1.9l-1.3-2c0 0-0.3-0.3-0.8-0.3c0 0-0.4-0.1-0.7 0.3l-2.4 2.4c-0.1 0.2-0.2 0.4-0.2 0.6 c0 0.4 0.3 0.7 0.6 0.8l2.5 1.4v2.6c0 0.4 0.2 0.7 0.6 0.7c0.4 0 0.6-0.3 0.6-0.7v-3.2c0 0 0.1-0.5-0.5-0.8l-1.3-0.7l1.5-1.5 l0.7 1.2C87.6 14.3 87.8 14.5 88 14.5z"/><g><path fill="#F89C1C" d="M119.5-56.5c-0.4 0-0.4-0.2-0.6-0.8c-0.3-0.9-0.8-2.7-1.3-3.5c-1.4-2.7-2.3-3.7-3.9-4.7l-7.2-4.2v-14.5 l13-7.3l13 7.3v14.5l-7.2 4.2c-1.6 0.9-2.4 1.9-3.9 4.7c-0.5 0.9-1 2.7-1.3 3.6C119.9-56.7 119.9-56.5 119.5-56.5 C119.5-56.5 119.5-56.5 119.5-56.5z"/><path fill="#FFFFFF" d="M119.5-91l12.5 7v14l-6.9 4c-1.8 1-2.6 2.1-4.1 4.9c-0.6 1.2-1.5 4.1-1.5 4.1l0 0h0l0 0 c0 0-0.9-2.9-1.5-4.1c-1.4-2.7-2.3-3.8-4.1-4.9l-6.9-4v-14L119.5-91 M119.5-92.1l-0.5 0.3l-12.5 7l-0.5 0.3v0.6v14v0.6l0.5 0.3 l6.9 4c1.5 0.9 2.3 1.8 3.7 4.5c0.4 0.8 1 2.7 1.3 3.5c0.2 0.6 0.4 1.2 1.1 1.2c0 0 0 0 0 0c0.7 0 0.9-0.6 1.1-1.2 c0.3-0.8 0.8-2.6 1.3-3.5c1.4-2.7 2.1-3.6 3.7-4.5l6.9-4l0.5-0.3V-70v-14v-0.6l-0.5-0.3l-12.5-7L119.5-92.1L119.5-92.1z"/></g><g><polygon fill="#FFFFFF" points="129,-72 119.5,-67 110,-72 110,-82 119.5,-87 129,-82"/></g><g><g><path fill-rule="evenodd" clip-rule="evenodd" fill="#F89C1C" d="M122.9-74.5c1.7-2 5-5.9 4.4-6.4c-0.6-0.5-4.2 3-6.1 4.9 L122.9-74.5z"/><path fill-rule="evenodd" clip-rule="evenodd" fill="#F89C1C" d="M120.9-75.7c-0.4 0.4-0.7 0.7-0.7 0.7l1.7 1.6 c0 0 0.2-0.3 0.6-0.7L120.9-75.7z"/></g><path fill-rule="evenodd" clip-rule="evenodd" fill="#F89C1C" d="M116.6-70c5.6 0.6 4.8-2.8 4.8-2.8l-1.7-1.6c0 0-1.2 0.1-1.5 1 C117.5-71.6 117.9-69.9 116.6-70z"/></g><path fill="#F89C1C" d="M112.5-80.8l1.6 4.2c0-0.1-0.5-0.2-0.8-0.1c-0.9 0.3-1.1 1.1-0.9 1.5c0.2 0.6 0.9 1.2 1.8 0.8 c0.9-0.3 0.9-1.3 0.8-1.8l-1.2-3.2l3.3-2l1.2 3.2c0-0.1-0.5-0.2-0.8-0.1c-0.9 0.3-1.1 1.1-0.9 1.5c0.2 0.6 0.9 1.2 1.8 0.8 c0.9-0.3 0.9-1.3 0.8-1.8l-2.1-5.5L112.5-80.8z"/><g><path fill="#F89C1C" d="M119.5-10.5c-0.4 0-0.4-0.2-0.6-0.8c-0.3-0.9-0.8-2.7-1.3-3.5c-1.4-2.7-2.3-3.7-3.9-4.7l-7.2-4.2v-14.5 l13-7.3l13 7.3v14.5l-7.2 4.2c-1.6 0.9-2.4 1.9-3.9 4.7c-0.5 0.9-1 2.7-1.3 3.6C119.9-10.7 119.9-10.5 119.5-10.5 C119.5-10.5 119.5-10.5 119.5-10.5z"/><path fill="#FFFFFF" d="M119.5-45l12.5 7v14l-6.9 4c-1.8 1-2.6 2.1-4.1 4.9c-0.6 1.2-1.5 4.1-1.5 4.1l0 0h0l0 0 c0 0-0.9-2.9-1.5-4.1c-1.4-2.7-2.3-3.8-4.1-4.9l-6.9-4v-14L119.5-45 M119.5-46.1l-0.5 0.3l-12.5 7l-0.5 0.3v0.6v14v0.6l0.5 0.3 l6.9 4c1.5 0.9 2.3 1.8 3.7 4.5c0.4 0.8 1 2.7 1.3 3.5c0.2 0.6 0.4 1.2 1.1 1.2c0 0 0 0 0 0c0.7 0 0.9-0.6 1.1-1.2 c0.3-0.8 0.8-2.6 1.3-3.5c1.4-2.7 2.1-3.6 3.7-4.5l6.9-4l0.5-0.3V-24v-14v-0.6l-0.5-0.3l-12.5-7L119.5-46.1L119.5-46.1z"/></g><g><polygon fill="#FFFFFF" points="129,-26 119.5,-21 110,-26 110,-36 119.5,-41 129,-36"/></g><g><g><g><path fill-rule="evenodd" clip-rule="evenodd" fill="#F89C1C" d="M122.9-28.5c1.7-2 5-5.9 4.4-6.4c-0.6-0.5-4.2 3-6.1 4.9 L122.9-28.5z"/><path fill-rule="evenodd" clip-rule="evenodd" fill="#F89C1C" d="M120.9-29.7c-0.4 0.4-0.7 0.7-0.7 0.7l1.7 1.6 c0 0 0.2-0.3 0.6-0.7L120.9-29.7z"/></g><path fill-rule="evenodd" clip-rule="evenodd" fill="#F89C1C" d="M116.6-24c5.6 0.6 4.8-2.8 4.8-2.8l-1.7-1.6c0 0-1.2 0.1-1.5 1 C117.5-25.6 117.9-23.9 116.6-24z"/></g><path fill="#F89C1C" d="M112.5-34.8l1.6 4.2c0-0.1-0.5-0.2-0.8-0.1c-0.9 0.3-1.1 1.1-0.9 1.5c0.2 0.6 0.9 1.2 1.8 0.8 c0.9-0.3 0.9-1.3 0.8-1.8l-1.2-3.2l3.3-2l1.2 3.2c0-0.1-0.5-0.2-0.8-0.1c-0.9 0.3-1.1 1.1-0.9 1.5c0.2 0.6 0.9 1.2 1.8 0.8 c0.9-0.3 0.9-1.3 0.8-1.8l-2.1-5.5L112.5-34.8z"/></g><g><g><g><path fill-rule="evenodd" clip-rule="evenodd" fill="#F89C1C" d="M125.5 18.5c1.7-2 5-5.9 4.4-6.4c-0.6-0.5-4.2 3-6.1 4.9 L125.5 18.5z"/><path fill-rule="evenodd" clip-rule="evenodd" fill="#F89C1C" d="M123.6 17.2c-0.4 0.4-0.7 0.7-0.7 0.7l1.7 1.6 c0 0 0.2-0.3 0.6-0.7L123.6 17.2z"/></g><path fill-rule="evenodd" clip-rule="evenodd" fill="#F89C1C" d="M119.3 22.9c5.6 0.6 4.8-2.8 4.8-2.8l-1.7-1.6c0 0-1.2 0.1-1.5 1 C120.1 21.3 120.5 23.1 119.3 22.9z"/></g><path fill="#F89C1C" d="M115.2 12.2l1.6 4.2c0-0.1-0.5-0.2-0.8-0.1c-0.9 0.3-1.1 1.1-0.9 1.5c0.2 0.6 0.9 1.2 1.8 0.8 c0.9-0.3 0.9-1.3 0.8-1.8l-1.2-3.2l3.3-2l1.2 3.2c0-0.1-0.5-0.2-0.8-0.1c-0.9 0.3-1.1 1.1-0.9 1.5c0.2 0.6 0.9 1.2 1.8 0.8 c0.9-0.3 0.9-1.3 0.8-1.8l-2.1-5.5L115.2 12.2z"/></g><g><path fill="#F15A5A" d="M154.5-56.5c-0.4 0-0.4-0.2-0.6-0.8c-0.3-0.9-0.8-2.7-1.3-3.5c-1.4-2.7-2.3-3.7-3.9-4.7l-7.2-4.2v-14.5 l13-7.3l13 7.3v14.5l-7.2 4.2c-1.6 0.9-2.4 1.9-3.9 4.7c-0.5 0.9-1 2.7-1.3 3.6C154.9-56.7 154.9-56.5 154.5-56.5 C154.5-56.5 154.5-56.5 154.5-56.5z"/><path fill="#FFFFFF" d="M154.5-91l12.5 7v14l-6.9 4c-1.8 1-2.6 2.1-4.1 4.9c-0.6 1.2-1.5 4.1-1.5 4.1l0 0h0l0 0 c0 0-0.9-2.9-1.5-4.1c-1.4-2.7-2.3-3.8-4.1-4.9l-6.9-4v-14L154.5-91 M154.5-92.1l-0.5 0.3l-12.5 7l-0.5 0.3v0.6v14v0.6l0.5 0.3 l6.9 4c1.5 0.9 2.3 1.8 3.7 4.5c0.4 0.8 1 2.7 1.3 3.5c0.2 0.6 0.4 1.2 1.1 1.2c0 0 0 0 0 0c0.7 0 0.9-0.6 1.1-1.2 c0.3-0.8 0.8-2.6 1.3-3.5c1.4-2.7 2.1-3.6 3.7-4.5l6.9-4l0.5-0.3V-70v-14v-0.6l-0.5-0.3l-12.5-7L154.5-92.1L154.5-92.1z"/></g><g><polygon fill="#FFFFFF" points="164,-72 154.5,-67 145,-72 145,-82 154.5,-87 164,-82"/></g><g><circle fill="#F15A5A" cx="149.4" cy="-81.5" r="1.1"/><path fill="#F15A5A" d="M159.7-78.8c0.4 0.6 0.9 1.3 0.9 1.4l0.3 0.4l0.3-0.4l1.8-2.1l-0.7-0.3l-1.4 1.6c-0.5-0.8-1.1-1.7-1.2-1.9 l0 0c-0.1-0.1-0.2-0.2-0.3-0.2l-0.9-0.2c-0.1 0-0.3 0-0.4 0.1c0 0-0.1 0.1-0.1 0.1c-0.6 0.3-1.5 0.6-1.5 0.6l-2 0.7l-2-0.7 c0 0-1.1-0.5-1.7-0.7c0 0 0 0 0 0c-0.1-0.1-0.2-0.1-0.4-0.1l-0.9 0.2c-0.1 0-0.2 0.1-0.3 0.2l0 0c-0.1 0.2-0.7 1.1-1.2 1.9 l-1.4-1.6l-0.7 0.3l1.8 2.1l0.3 0.4l0.3-0.4c0.1-0.1 0.6-0.8 1-1.4l0.5 2.1l-1.1 2.6v0.1v0.1l0.4 2.4l-0.7 0.5h1.1l0.5-0.1 l-0.1-0.4l-0.4-2.4l1-2.4c0 0 0 0 0 0l0.9-0.2c0.1 0 0.2-0.1 0.3-0.2c0 0 0 0 0 0c0 0 0-0.2 0-0.4l-0.5-2.3l1.1 0.5 c0 0 2.2 0.6 2.2 0.6l0.1-0.3l0.1 0.3c0 0 2.2-0.7 2.2-0.7l0.9-0.4l-0.4 1.9l0 0l-3.5 2.6c0 0 0.9 0.4 2.1 0.7l-0.9 2.4l0 0v0.1 l0 0l0-0.1l-0.6 0.4l-0.6-0.4v0l0 0l-0.9-2.7l0 0l0 0l-1.1-2c-0.1 0.1-0.2 0.2-0.4 0.3l-0.2 0.1l1.1 2l0 0l0 0.1l0 0l1 2.7l0.1 0.2 h0.3h0.7h0.6h0.7h0.3l0.1-0.2l0.9-2.6c0.9 0.2 1.9 0.3 2.9 0.1l0 0.1l-0.4 2.4l-0.1 0.4l0.4 0.1h1.1l-0.7-0.5l0.4-2.4V-74v0 c0.2-0.1 0.5-0.1 0.7-0.2c-0.6-0.8-1.2-1.4-1.6-1.9l-0.2-0.6L159.7-78.8z M153.6-72L153.6-72l0.1 0.1L153.6-72z M155.4-71.9 L155.4-71.9L155.4-71.9L155.4-71.9z"/><circle fill="#F15A5A" cx="159.7" cy="-81.5" r="1.1"/></g><g><path fill="#F15A5A" d="M154.5-10.5c-0.4 0-0.4-0.2-0.6-0.8c-0.3-0.9-0.8-2.7-1.3-3.5c-1.4-2.7-2.3-3.7-3.9-4.7l-7.2-4.2v-14.5 l13-7.3l13 7.3v14.5l-7.2 4.2c-1.6 0.9-2.4 1.9-3.9 4.7c-0.5 0.9-1 2.7-1.3 3.6C154.9-10.7 154.9-10.5 154.5-10.5 C154.5-10.5 154.5-10.5 154.5-10.5z"/><path fill="#FFFFFF" d="M154.5-45l12.5 7v14l-6.9 4c-1.8 1-2.6 2.1-4.1 4.9c-0.6 1.2-1.5 4.1-1.5 4.1l0 0h0l0 0 c0 0-0.9-2.9-1.5-4.1c-1.4-2.7-2.3-3.8-4.1-4.9l-6.9-4v-14L154.5-45 M154.5-46.1l-0.5 0.3l-12.5 7l-0.5 0.3v0.6v14v0.6l0.5 0.3 l6.9 4c1.5 0.9 2.3 1.8 3.7 4.5c0.4 0.8 1 2.7 1.3 3.5c0.2 0.6 0.4 1.2 1.1 1.2c0 0 0 0 0 0c0.7 0 0.9-0.6 1.1-1.2 c0.3-0.8 0.8-2.6 1.3-3.5c1.4-2.7 2.1-3.6 3.7-4.5l6.9-4l0.5-0.3V-24v-14v-0.6l-0.5-0.3l-12.5-7L154.5-46.1L154.5-46.1z"/></g><g><polygon fill="#FFFFFF" points="164,-26 154.5,-21 145,-26 145,-36 154.5,-41 164,-36"/></g><g><circle fill="#F15A5A" cx="149.4" cy="-35.5" r="1.1"/><path fill="#F15A5A" d="M159.7-32.8c0.4 0.6 0.9 1.3 0.9 1.4l0.3 0.4l0.3-0.4l1.8-2.1l-0.7-0.3l-1.4 1.6c-0.5-0.8-1.1-1.7-1.2-1.9 l0 0c-0.1-0.1-0.2-0.2-0.3-0.2l-0.9-0.2c-0.1 0-0.3 0-0.4 0.1c0 0-0.1 0.1-0.1 0.1c-0.6 0.3-1.5 0.6-1.5 0.6l-2 0.7l-2-0.7 c0 0-1.1-0.5-1.7-0.7c0 0 0 0 0 0c-0.1-0.1-0.2-0.1-0.4-0.1l-0.9 0.2c-0.1 0-0.2 0.1-0.3 0.2l0 0c-0.1 0.2-0.7 1.1-1.2 1.9 l-1.4-1.6l-0.7 0.3l1.8 2.1l0.3 0.4l0.3-0.4c0.1-0.1 0.6-0.8 1-1.4l0.5 2.1l-1.1 2.6v0.1v0.1l0.4 2.4l-0.7 0.5h1.1l0.5-0.1 l-0.1-0.4l-0.4-2.4l1-2.4c0 0 0 0 0 0l0.9-0.2c0.1 0 0.2-0.1 0.3-0.2c0 0 0 0 0 0c0 0 0-0.2 0-0.4l-0.5-2.3l1.1 0.5 c0 0 2.2 0.6 2.2 0.6l0.1-0.3l0.1 0.3c0 0 2.2-0.7 2.2-0.7l0.9-0.4l-0.4 1.9l0 0l-3.5 2.6c0 0 0.9 0.4 2.1 0.7l-0.9 2.4l0 0v0.1 l0 0l0-0.1l-0.6 0.4l-0.6-0.4v0l0 0l-0.9-2.7l0 0l0 0l-1.1-2c-0.1 0.1-0.2 0.2-0.4 0.3l-0.2 0.1l1.1 2l0 0l0 0.1l0 0l1 2.7l0.1 0.2 h0.3h0.7h0.6h0.7h0.3l0.1-0.2l0.9-2.6c0.9 0.2 1.9 0.3 2.9 0.1l0 0.1l-0.4 2.4l-0.1 0.4l0.4 0.1h1.1l-0.7-0.5l0.4-2.4V-28v0 c0.2-0.1 0.5-0.1 0.7-0.2c-0.6-0.8-1.2-1.4-1.6-1.9l-0.2-0.6L159.7-32.8z M153.6-26L153.6-26l0.1 0.1L153.6-26z M155.4-25.9 L155.4-25.9L155.4-25.9L155.4-25.9z"/><circle fill="#F15A5A" cx="159.7" cy="-35.5" r="1.1"/></g><g><circle fill="#F15A5A" cx="153.4" cy="11.1" r="1.1"/><path fill="#F15A5A" d="M163.7 13.8c0.4 0.6 0.9 1.3 0.9 1.4l0.3 0.4l0.3-0.4l1.8-2.1l-0.7-0.3l-1.4 1.6c-0.5-0.8-1.1-1.7-1.2-1.9 l0 0c-0.1-0.1-0.2-0.2-0.3-0.2l-0.9-0.2c-0.1 0-0.3 0-0.4 0.1c0 0-0.1 0.1-0.1 0.1c-0.6 0.3-1.5 0.6-1.5 0.6l-2 0.7l-2-0.7 c0 0-1.1-0.5-1.7-0.7c0 0 0 0 0 0c-0.1-0.1-0.2-0.1-0.4-0.1l-0.9 0.2c-0.1 0-0.2 0.1-0.3 0.2l0 0c-0.1 0.2-0.7 1.1-1.2 1.9 l-1.4-1.6l-0.7 0.3l1.8 2.1l0.3 0.4l0.3-0.4c0.1-0.1 0.6-0.8 1-1.4l0.5 2.1l-1.1 2.6v0.1v0.1l0.4 2.4l-0.7 0.5h1.1l0.5-0.1 l-0.1-0.4l-0.4-2.4l1-2.4c0 0 0 0 0 0l0.9-0.2c0.1 0 0.2-0.1 0.3-0.2c0 0 0 0 0 0c0 0 0-0.2 0-0.4l-0.5-2.3l1.1 0.5 c0 0 2.2 0.6 2.2 0.6l0.1-0.3l0.1 0.3c0 0 2.2-0.7 2.2-0.7l0.9-0.4l-0.4 1.9l0 0l-3.5 2.6c0 0 0.9 0.4 2.1 0.7l-0.9 2.4l0 0v0.1 l0 0l0-0.1l-0.6 0.4l-0.6-0.4v0l0 0l-0.9-2.7l0 0l0 0l-1.1-2c-0.1 0.1-0.2 0.2-0.4 0.3l-0.2 0.1l1.1 2l0 0l0 0.1l0 0l1 2.7l0.1 0.2 h0.3h0.7h0.6h0.7h0.3l0.1-0.2l0.9-2.6c0.9 0.2 1.9 0.3 2.9 0.1l0 0.1l-0.4 2.4l-0.1 0.4l0.4 0.1h1.1l-0.7-0.5l0.4-2.4v-0.1v0 c0.2-0.1 0.5-0.1 0.7-0.2c-0.6-0.8-1.2-1.4-1.6-1.9l-0.2-0.6L163.7 13.8z M157.6 20.6L157.6 20.6l0.1 0.1L157.6 20.6z M159.4 20.7 L159.4 20.7L159.4 20.7L159.4 20.7z"/><circle fill="#F15A5A" cx="163.7" cy="11.1" r="1.1"/></g><g><path fill="#955BA5" d="M189.5-56.5c-0.4 0-0.4-0.2-0.6-0.8c-0.3-0.9-0.8-2.7-1.3-3.5c-1.4-2.7-2.3-3.7-3.9-4.7l-7.2-4.2v-14.5 l13-7.3l13 7.3v14.5l-7.2 4.2c-1.6 0.9-2.4 1.9-3.9 4.7c-0.5 0.9-1 2.7-1.3 3.6C189.9-56.7 189.9-56.5 189.5-56.5 C189.5-56.5 189.5-56.5 189.5-56.5z"/><path fill="#FFFFFF" d="M189.5-91l12.5 7v14l-6.9 4c-1.8 1-2.6 2.1-4.1 4.9c-0.6 1.2-1.5 4.1-1.5 4.1l0 0h0l0 0 c0 0-0.9-2.9-1.5-4.1c-1.4-2.7-2.3-3.8-4.1-4.9l-6.9-4v-14L189.5-91 M189.5-92.1l-0.5 0.3l-12.5 7l-0.5 0.3v0.6v14v0.6l0.5 0.3 l6.9 4c1.5 0.9 2.3 1.8 3.7 4.5c0.4 0.8 1 2.7 1.3 3.5c0.2 0.6 0.4 1.2 1.1 1.2c0 0 0 0 0 0c0.7 0 0.9-0.6 1.1-1.2 c0.3-0.8 0.8-2.6 1.3-3.5c1.4-2.7 2.1-3.6 3.7-4.5l6.9-4l0.5-0.3V-70v-14v-0.6l-0.5-0.3l-12.5-7L189.5-92.1L189.5-92.1z"/></g><g><polygon fill="#FFFFFF" points="199,-72 189.5,-67 180,-72 180,-82 189.5,-87 199,-82"/></g><g><path fill="#955BA5" d="M192-83c-1.2 0-2.2 1.5-2.2 3c0 1.1 0.6 2 1.4 2.3l-0.2 6.2c0 0.6 0.5 1.1 1.1 1.1c0.6 0 1.1-0.5 1.1-1.1 l-0.2-6.2c0.8-0.3 1.3-1.1 1.3-2.3h0C194.2-81.5 193.2-83 192-83z"/><path fill="#955BA5" d="M187.6-80h-0.7v-2.8h-0.7v2.8h-0.7v-2.8h-0.7v3.5v0.7c0 0.4 0.5 0.7 0.9 0.7h0l-0.2 6.3 c0 0.6 0.5 1.1 1.1 1.1c0.6 0 1.1-0.5 1.1-1.1l-0.2-6.3c0.4 0 0.9-0.3 0.9-0.7v-0.7v-3.5h-0.7V-80z"/></g><g><path fill="#955BA5" d="M189.5-10.5c-0.4 0-0.4-0.2-0.6-0.8c-0.3-0.9-0.8-2.7-1.3-3.5c-1.4-2.7-2.3-3.7-3.9-4.7l-7.2-4.2v-14.5 l13-7.3l13 7.3v14.5l-7.2 4.2c-1.6 0.9-2.4 1.9-3.9 4.7c-0.5 0.9-1 2.7-1.3 3.6C189.9-10.7 189.9-10.5 189.5-10.5 C189.5-10.5 189.5-10.5 189.5-10.5z"/><path fill="#FFFFFF" d="M189.5-45l12.5 7v14l-6.9 4c-1.8 1-2.6 2.1-4.1 4.9c-0.6 1.2-1.5 4.1-1.5 4.1l0 0h0l0 0 c0 0-0.9-2.9-1.5-4.1c-1.4-2.7-2.3-3.8-4.1-4.9l-6.9-4v-14L189.5-45 M189.5-46.1l-0.5 0.3l-12.5 7l-0.5 0.3v0.6v14v0.6l0.5 0.3 l6.9 4c1.5 0.9 2.3 1.8 3.7 4.5c0.4 0.8 1 2.7 1.3 3.5c0.2 0.6 0.4 1.2 1.1 1.2c0 0 0 0 0 0c0.7 0 0.9-0.6 1.1-1.2 c0.3-0.8 0.8-2.6 1.3-3.5c1.4-2.7 2.1-3.6 3.7-4.5l6.9-4l0.5-0.3V-24v-14v-0.6l-0.5-0.3l-12.5-7L189.5-46.1L189.5-46.1z"/></g><g><polygon fill="#FFFFFF" points="199,-26 189.5,-21 180,-26 180,-36 189.5,-41 199,-36"/></g><g><path fill="#955BA5" d="M192-37c-1.2 0-2.2 1.5-2.2 3c0 1.1 0.6 2 1.4 2.3l-0.2 6.2c0 0.6 0.5 1.1 1.1 1.1c0.6 0 1.1-0.5 1.1-1.1 l-0.2-6.2c0.8-0.3 1.3-1.1 1.3-2.3h0C194.2-35.5 193.2-37 192-37z"/><path fill="#955BA5" d="M187.6-34h-0.7v-2.8h-0.7v2.8h-0.7v-2.8h-0.7v3.5v0.7c0 0.4 0.5 0.7 0.9 0.7h0l-0.2 6.3 c0 0.6 0.5 1.1 1.1 1.1c0.6 0 1.1-0.5 1.1-1.1l-0.2-6.3c0.4 0 0.9-0.3 0.9-0.7v-0.7v-3.5h-0.7V-34z"/></g><g><path fill="#955BA5" d="M197 10c-1.2 0-2.2 1.5-2.2 3c0 1.1 0.6 2 1.4 2.3l-0.2 6.2c0 0.6 0.5 1.1 1.1 1.1c0.6 0 1.1-0.5 1.1-1.1 l-0.2-6.2c0.8-0.3 1.3-1.1 1.3-2.3h0C199.2 11.5 198.2 10 197 10z"/><path fill="#955BA5" d="M192.6 13h-0.7v-2.8h-0.7V13h-0.7v-2.8h-0.7v3.5v0.7c0 0.4 0.5 0.7 0.9 0.7h0l-0.2 6.3 c0 0.6 0.5 1.1 1.1 1.1c0.6 0 1.1-0.5 1.1-1.1l-0.2-6.3c0.4 0 0.9-0.3 0.9-0.7v-0.7v-3.5h-0.7V13z"/></g><g><path fill="#6756B2" d="M193.7 81.2c0 0-0.6-1.9-1.2-3.1c-1.4-2.6-3.1-4.1-3.2-4.1c-0.4-0.3-1.1-0.8-1.6-1l-6.1-3.1 c-0.7-0.3-1.2-1.2-1.2-1.9V54c0-0.7 0.5-1.6 1.2-1.9l11.7-6.1c0.3-0.2 0.7-0.2 1.1-0.2s0.8 0.1 1.1 0.2l11.7 6.1 c0.6 0.3 1.2 1.2 1.2 1.9v14c0 0.7-0.5 1.6-1.2 1.9l-6.2 3.1c-0.5 0.2-1.2 0.7-1.6 1c0 0-1.8 1.5-3.2 4.1c-0.6 1.2-1.2 3.1-1.2 3.1 l-0.8 1.8L193.7 81.2z"/><path fill="#FFFFFF" d="M194.5 46.3c0.3 0 0.6 0.1 0.9 0.2l11.7 6.1c0.5 0.3 0.9 0.9 0.9 1.5v14c0 0.5-0.4 1.2-0.9 1.5l-6.1 3.1 c-0.5 0.2-1.2 0.7-1.7 1.1c0 0-1.9 1.5-3.3 4.2c-0.6 1.2-1.2 3.2-1.2 3.2c-0.2 0.5-0.3 1-0.3 1s-0.1-0.4-0.3-1c0 0-0.6-1.9-1.2-3.2 c-1.4-2.7-3.3-4.2-3.3-4.2c-0.4-0.3-1.2-0.8-1.7-1.1l-6.1-3.1c-0.5-0.2-0.9-0.9-0.9-1.5V54c0-0.6 0.4-1.2 0.9-1.5l11.7-6.1 C193.9 46.3 194.2 46.3 194.5 46.3 M194.5 45.3c-0.5 0-1 0.1-1.3 0.3l-11.7 6.1c-0.8 0.4-1.4 1.4-1.4 2.3v14c0 0.9 0.6 1.9 1.4 2.3 l6.1 3.1c0.4 0.2 1.1 0.7 1.5 1c0 0 1.7 1.4 3 3.9c0.6 1.1 1.1 3 1.1 3c0.4 1.3 0.5 1.7 1.2 1.7s0.9-0.4 1.2-1.7c0 0 0.6-1.8 1.1-3 c1.3-2.5 3-3.9 3-3.9c0.4-0.3 1.1-0.8 1.5-1l6.1-3.1c0.8-0.4 1.4-1.4 1.4-2.3V54c0-0.9-0.6-1.9-1.4-2.3l-11.7-6.1 C195.5 45.4 195 45.3 194.5 45.3L194.5 45.3z"/></g><g><path fill="#FFFFFF" d="M205 66c0 0.5-0.4 1.2-0.9 1.4l-8.7 4.1c-0.5 0.2-1.3 0.2-1.8 0l-8.7-4.1c-0.5-0.2-0.9-0.9-0.9-1.4V56 c0-0.5 0.4-1.2 0.9-1.4l8.7-4.1c0.5-0.2 1.3-0.2 1.8 0l8.7 4.1c0.5 0.2 0.9 0.9 0.9 1.4V66z"/></g><rect x="-16" y="-10" fill="#231F20" width="14" height="10"/><g><path fill="#9FC419" d="M45.9 62.3c-0.4 1.8-1 3.3-2.4 4.7h4c1.4-1.4 2-2.9 2.4-4.7H45.9z"/><path fill="#9FC419" d="M50.8 62.3c0.4 1.8 1 3.4 2.4 4.7h0.3h3.9c-1.4-1.4-2-2.9-2.4-4.7H50.8z"/><g><path fill="#9FC419" d="M52.9 54.5c0 0 0 1.8 0 1.8c-0.1 0-0.2 0-0.3 0v0.3c1.3 0 2.1-0.5 2.1-1.8C53.8 55.2 53.6 54.8 52.9 54.5 L52.9 54.5z"/></g><g><path fill="#9FC419" d="M50.8 56.6v-0.8c0.5-0.5 1.3 0 1.8 0v-2.3c-0.7-0.4-1.2-0.6-2.1-0.3h-0.3l0 3.4L50.8 56.6L50.8 56.6z"/><path fill="#9FC419" d="M50.9 57.1h-0.9c-0.9 2.1-2.7 2.8-7.1 4.3h8.9h0.9H58C53.7 59.9 51.9 59.2 50.9 57.1L50.9 57.1z"/></g></g><path fill="#6756B2" d="M192.3 66.9l-1.6 1.1h3.3h1.1h3.2l-1.6-1.1H195v-3.3l6-6h-4.7l0.3-1.1l0.1 0c0.6 0 1.1-0.5 1.1-1.1 c0-0.4-0.3-0.8-0.6-1l0.1-0.4l-0.5-0.1l-0.1 0.5c-0.6 0-1 0.5-1 1.1c0 0.4 0.2 0.7 0.4 0.9l-0.3 1.3H188l6 6v3.3L192.3 66.9 L192.3 66.9z M194 62.6l-2.7-2.7h3.9l-0.7 2.5l0.5 0.1l0.7-2.6h2.1l-2.7 2.7H194z"/></svg>