<svg xmlns="http://www.w3.org/2000/svg" xmlns:xlink="http://www.w3.org/1999/xlink" version="1.1" x="0px" y="0px" width="31px" height="32px" viewBox="0 0 31 32" enable-background="new 0 0 31 32" xml:space="preserve"><g><g><g><path fill="#9E2273" d="M15.5 31.872l-5.209-5.209h10.418L15.5 31.872z"/></g><g><path fill-rule="evenodd" clip-rule="evenodd" fill="#9E2273" d="M31 25.128c0 1.1-0.9 2-2 2H2c-1.1 0-2-0.9-2-2v-23 c0-1.1 0.9-2 2-2h27c1.1 0 2 0.9 2 2V25.128z"/></g><g opacity="0.9"><path fill-rule="evenodd" clip-rule="evenodd" fill="#FFFFFF" d="M28 22.128c0 1.1-0.9 2-2 2H5c-1.1 0-2-0.9-2-2v-17 c0-1.1 0.9-2 2-2h21c1.1 0 2 0.9 2 2V22.128z"/></g></g></g><g><path fill-rule="evenodd" clip-rule="evenodd" fill="#9E2273" d="M22.662 9.319c0 1.971-1.307 3.241-2.918 3.2 c-1.612 0-2.92-1.271-2.92-3.241c0-1.972 1.308-3.899 2.92-3.899C21.355 5.4 22.7 7.3 22.7 9.319z"/><path fill-rule="evenodd" clip-rule="evenodd" fill="#9E2273" d="M9.506 12.072l-0.242 8.375c0 0.8 0.6 1.4 1.4 1.4 c0.769 0 1.389-0.619 1.389-1.389l-0.266-8.375c0.509 0 1.192-0.418 1.192-0.926V10.22V5.588h-0.926v3.705h-0.926V5.588H10.19 v3.705H9.264V5.588H8.338v4.631v0.926C8.338 11.7 9 12.1 9.5 12.072z"/><path fill-rule="evenodd" clip-rule="evenodd" fill="#9E2273" d="M18.646 12.108l-0.291 8.339c0 0.8 0.6 1.4 1.4 1.4 s1.389-0.619 1.389-1.389l-0.25-8.339H18.646z"/></g></svg>