<svg xmlns="http://www.w3.org/2000/svg" xmlns:xlink="http://www.w3.org/1999/xlink" version="1.1" x="0px" y="0px" width="31px" height="32px" viewBox="0 0 31 32" enable-background="new 0 0 31 32" xml:space="preserve"><g><g><g><path fill="#D62427" d="M15.501 31.872l-5.21-5.21h10.418L15.501 31.872z"/></g><g><path fill-rule="evenodd" clip-rule="evenodd" fill="#D62427" d="M31 25.127c0 1.1-0.9 2-2 2H2c-1.1 0-2-0.9-2-2V2.128 c0-1.1 0.9-2 2-2h27c1.1 0 2 0.9 2 2V25.127z"/></g><g opacity="0.9"><path fill-rule="evenodd" clip-rule="evenodd" fill="#FFFFFF" d="M28 22.127c0 1.1-0.9 2-2 2H5c-1.1 0-2-0.9-2-2V5.128 c0-1.1 0.9-2 2-2h21c1.1 0 2 0.9 2 2V22.127z"/></g></g><g><path fill="#D62427" d="M20.352 15.113c0 0.93-0.393 1.729-1.174 2.395s-1.82 1.045-3.113 1.133v2.998h-1.437v-2.949 c-0.616-0.006-1.33-0.08-2.14-0.223c-0.81-0.145-1.442-0.322-1.899-0.537v-2.412h0.371c0.508 0.3 1.1 0.5 1.7 0.7 c0.659 0.2 1.3 0.3 2 0.322v-2.264l-0.801-0.182c-0.508-0.115-0.974-0.251-1.4-0.404 c-0.428-0.154-0.794-0.358-1.104-0.611c-0.309-0.253-0.548-0.566-0.718-0.938c-0.171-0.372-0.257-0.83-0.257-1.376 c0-0.82 0.375-1.522 1.124-2.106c0.748-0.583 1.788-0.937 3.114-1.057V5.639h1.437v1.908c0.508 0 1.1 0.1 1.8 0.2 c0.68 0.1 1.2 0.3 1.6 0.421v2.379h-0.363c-0.393-0.227-0.846-0.413-1.363-0.562s-1.07-0.243-1.66-0.281v2.099l0.66 0.1 c1.244 0.2 2.2 0.6 2.7 1.103C20.059 13.5 20.4 14.2 20.4 15.113z M14.76 11.636V9.719 c-0.363 0.028-0.689 0.12-0.979 0.277c-0.29 0.157-0.435 0.379-0.435 0.665c0 0.3 0.1 0.5 0.3 0.6 C13.815 11.4 14.2 11.5 14.8 11.636z M17.354 15.436c0-0.319-0.148-0.558-0.443-0.715s-0.586-0.257-0.879-0.302v2.049 c0.363-0.05 0.674-0.155 0.934-0.318C17.225 16 17.4 15.7 17.4 15.436z"/></g></g></svg>