<svg xmlns="http://www.w3.org/2000/svg" xmlns:xlink="http://www.w3.org/1999/xlink" version="1.1" id="Layer_1" x="0px" y="0px" width="31px" height="32px" viewBox="0 0 31 32" enable-background="new 0 0 31 32" xml:space="preserve"><g><path fill="#F0527B" d="M15.5 31.872l-5.209-5.209h10.418L15.5 31.872z"/></g><g><path fill-rule="evenodd" clip-rule="evenodd" fill="#F0527B" d="M31 25.128c0 1.1-0.9 2-2 2H2c-1.1 0-2-0.9-2-2v-23 c0-1.1 0.9-2 2-2h27c1.1 0 2 0.9 2 2V25.128z"/></g><g opacity="0.9"><path fill-rule="evenodd" clip-rule="evenodd" fill="#FFFFFF" d="M28 22.128c0 1.1-0.9 2-2 2H5c-1.1 0-2-0.9-2-2v-17 c0-1.1 0.9-2 2-2h21c1.1 0 2 0.9 2 2V22.128z"/></g><g><g><path fill="#F0527B" d="M10.854 10.281c0 0-0.02 0.15-0.051 0.388l1.804 0.746c0.023 0 2.8 0.8 2.8 0.835l0.227-0.829 l-2.709-0.88c0.018 0.006-1.481-0.613-2.233-0.924C10.825 9.8 10.9 10 10.9 10.281z"/><polygon fill="#F0527B" points="14.6,20.7 14.6,20.6 14.2,20.4"/><path fill="#F0527B" d="M14.596 20.684l-0.439-0.308l0.416 0.244l-1.235-3.452l-0.012-0.033l-0.017-0.031l-1.403-2.573 c-0.136 0.163-0.319 0.279-0.529 0.324l-0.316 0.07l1.415 2.592l-0.013-0.035l0.031 0.066l-0.018-0.031l1.245 3.48l0.109 0.3 h0.328h1.577l-1.162-0.685L14.596 20.684z"/><polygon fill="#F0527B" points="12.5,17.5 12.5,17.5 12.5,17.5"/><path fill="#F0527B" d="M11.729 14.206c0.067-0.13 0.091-0.278 0.059-0.424L10.962 10c-0.036-0.164-0.133-0.305-0.274-0.396 c-0.142-0.09-0.31-0.122-0.475-0.084L9.025 9.778c-0.164 0.036-0.304 0.134-0.396 0.274c-0.091 0.143-0.121 0.312-0.085 0.5 l0.825 3.783c0.036 0.2 0.1 0.3 0.3 0.396c0.142 0.1 0.3 0.1 0.5 0.085l1.187-0.26 c0.165-0.035 0.306-0.132 0.397-0.274c0.01-0.015 0.015-0.032 0.024-0.047L11.729 14.206L11.729 14.206z"/><polygon fill="#F0527B" points="11.7,14.2 11.7,14.2 11.7,14.2"/></g><g><path fill="#F0527B" d="M8.669 9.966c-0.147 0.268-1.24 1.889-1.938 2.914l0.736-0.041l-2.136-2.492l-0.885 0.364l2.315 2.7 l0.395 0.462l0.342-0.502c0.181-0.266 1.772-2.6 1.987-2.994L8.669 9.966z"/></g><g><polygon fill="#F0527B" points="9.4,14.1 7.9,17.6 7.9,17.7 7.9,17.8 8.4,21.2 8.8,20.6 7.4,21.6 8.8,21.6 9.4,21.5 9.3,21 8.8,17.7 8.8,18 10.3,14.5"/></g><g><g><circle fill="#F0527B" cx="8.8" cy="8.1" r="1.4"/></g></g></g><g><g><path fill="#F0527B" d="M20.119 10.216c0 0 0 0.1 0.1 0.386l-1.791 0.772c-0.022 0.008-2.791 0.876-2.791 0.9 l-0.24-0.826l2.699-0.92c-0.017 0 1.472-0.634 2.219-0.956C20.142 9.7 20.1 10 20.1 10.216z"/><polygon fill="#F0527B" points="16.2,20.7 16.2,20.6 16.6,20.4"/><path fill="#F0527B" d="M16.188 20.684l0.439-0.308l-0.415 0.244l1.234-3.452l0.012-0.033l0.018-0.031l1.402-2.573 c0.137 0.2 0.3 0.3 0.5 0.324l0.315 0.07l-1.415 2.592l0.013-0.035l-0.031 0.066l0.019-0.031l-1.245 3.48l-0.109 0.3 h-0.327h-1.578l1.163-0.685L16.188 20.684z"/><polygon fill="#F0527B" points="18.3,17.5 18.3,17.5 18.3,17.5"/><path fill="#F0527B" d="M19.056 14.206c-0.068-0.13-0.091-0.278-0.059-0.424L19.821 10c0.037-0.164 0.134-0.305 0.275-0.396 c0.142-0.09 0.31-0.122 0.476-0.084l1.187 0.258c0.164 0 0.3 0.1 0.4 0.274c0.091 0.1 0.1 0.3 0.1 0.5 l-0.825 3.783c-0.036 0.164-0.133 0.304-0.274 0.396c-0.142 0.091-0.311 0.122-0.476 0.085l-1.187-0.26 c-0.164-0.035-0.306-0.132-0.396-0.274c-0.01-0.015-0.016-0.032-0.023-0.047L19.056 14.206L19.056 14.206z"/><polygon fill="#F0527B" points="19.1,14.2 19.1,14.2 19.1,14.2"/></g><g><path fill="#F0527B" d="M22.114 9.966c0.147 0.3 1.2 1.9 1.9 2.914l-0.736-0.041l2.136-2.492l0.885 0.364l-2.314 2.7 l-0.396 0.462l-0.342-0.502c-0.181-0.266-1.772-2.6-1.987-2.994L22.114 9.966z"/></g><g><polygon fill="#F0527B" points="21.4,14.1 22.9,17.6 22.9,17.7 22.9,17.8 22.4,21.2 22,20.6 23.3,21.6 21.9,21.6 21.4,21.5 21.5,21 22,17.7 22,18 20.5,14.5"/></g><g><g><circle fill="#F0527B" cx="22" cy="8.1" r="1.4"/></g></g></g><path fill-rule="evenodd" clip-rule="evenodd" fill="#F0527B" d="M19.096 13.24l-4.5 3.357c0 0 5.4 2.3 9.2 0.8 c-1.891-2.357-3.071-3.595-3.071-3.595L19.096 13.24z"/><g></g><g></g><g></g><g></g><g></g><g></g></svg>