<svg xmlns="http://www.w3.org/2000/svg" xmlns:xlink="http://www.w3.org/1999/xlink" version="1.2" baseProfile="tiny" id="Layer_1" x="0px" y="0px" width="29px" height="38px" viewBox="0 0 29 38" xml:space="preserve"><g><path fill="#FFFFFF" d="M14.5 0c-0.494 0-0.973 0.108-1.349 0.304L1.424 6.418C0.612 6.8 0 7.9 0 8.767V23 c0 0.9 0.6 1.9 1.4 2.344l6.149 3.116c0.424 0.2 1.1 0.7 1.5 0.967c0.016 0 1.7 1.4 3 3.9 c0.594 1.1 1.1 3 1.1 2.982C13.649 37.6 13.8 38 14.5 38s0.851-0.354 1.245-1.672 c0.005-0.019 0.555-1.847 1.146-2.982c1.307-2.502 3.014-3.904 3.03-3.919c0.369-0.3 1.065-0.752 1.489-0.967l6.148-3.116 C28.381 24.9 29 23.9 29 23V8.767c0-0.916-0.612-1.926-1.424-2.349L15.849 0.304C15.473 0.1 15 0 14.5 0"/><path fill="#999999" d="M14.787 36.042c0 0 0.574-1.923 1.219-3.159c1.417-2.713 3.284-4.232 3.284-4.232 c0.428-0.347 1.179-0.834 1.669-1.083l6.149-3.115c0.49-0.248 0.893-0.902 0.893-1.452V8.767c0-0.55-0.4-1.208-0.888-1.462 L15.387 1.191C15.143 1.1 14.8 1 14.5 1c-0.322 0-0.643 0.064-0.887 0.191L1.887 7.305C1.399 7.6 1 8.2 1 8.767V23 c0 0.6 0.4 1.2 0.9 1.452l6.15 3.115c0.49 0.2 1.2 0.7 1.7 1.083c0 0 1.9 1.5 3.3 4.2 c0.645 1.2 1.2 3.2 1.2 3.159C14.371 36.6 14.5 37 14.5 37S14.629 36.6 14.8 36"/><path fill="#999999" d="M14.5 38L14.5 38z"/><path fill="#FFFFFF" d="M25 21c0 0.55-0.406 1.193-0.903 1.43l-8.693 4.141c-0.498 0.236-1.309 0.236-1.806 0L4.903 22.4 C4.406 22.2 4 21.6 4 21V10.728c0-0.55 0.406-1.193 0.903-1.43l8.694-4.14c0.497-0.236 1.309-0.236 1.8 0l8.693 4.1 C24.594 9.5 25 10.2 25 10.728V21z"/><path fill-rule="evenodd" fill="#999999" d="M10.035 21.412c-1.362 0-2.475-1.107-2.475-2.47c0-1.362 1.113-2.47 2.475-2.47 c1.361 0 2.5 1.1 2.5 2.47C12.504 20.3 11.4 21.4 10 21.4 M7 18.942c0 1.7 1.4 3 3 3 c1.673 0 3.034-1.356 3.034-3.029s-1.361-3.029-3.034-3.029C8.362 15.9 7 17.3 7 18.9 M18.966 21.4 c-1.362 0-2.475-1.108-2.475-2.469c0-1.362 1.112-2.469 2.475-2.469c1.361 0 2.5 1.1 2.5 2.5 C21.435 20.3 20.3 21.4 19 21.4 M15.931 18.971c0 1.7 1.4 3 3 3.029C20.638 22 22 20.6 22 19 c0-1.673-1.362-3.023-3.034-3.023C17.293 15.9 15.9 17.3 15.9 19 M15.937 11.581c0.628 0 1.144-0.507 1.144-1.136 s-0.516-1.137-1.144-1.137c-0.629 0-1.143 0.514-1.143 1.137C14.794 11.1 15.3 11.6 15.9 11.6 M15.982 14.5h2.21 c0.681 0 0.681-1.154 0-1.154h-1.903l-1.252-1.956c0 0-0.265-0.334-0.773-0.334c0 0-0.416-0.053-0.715 0.288l-2.418 2.4 c-0.15 0.167-0.242 0.391-0.242 0.634c0 0.4 0.3 0.7 0.6 0.837l2.458 1.362v2.561c0 0.4 0.2 0.7 0.6 0.7 c0.363 0 0.571-0.3 0.571-0.663v-3.202c0 0 0.087-0.508-0.497-0.791l-1.338-0.744l1.529-1.511l0.738 1.2 C15.643 14.3 15.8 14.5 16 14.5"/></g></svg>