<svg xmlns="http://www.w3.org/2000/svg" xmlns:xlink="http://www.w3.org/1999/xlink" version="1.2" baseProfile="tiny" id="Layer_1" x="0px" y="0px" width="29px" height="38px" viewBox="0 0 29 38" xml:space="preserve"><g><path fill="#FFFFFF" d="M14.5 0c-0.494 0-0.973 0.108-1.349 0.304L1.424 6.418C0.612 6.8 0 7.9 0 8.767V23 c0 0.9 0.6 1.9 1.4 2.344l6.149 3.116c0.424 0.2 1.1 0.7 1.5 0.967c0.016 0 1.7 1.4 3 3.9 c0.594 1.1 1.1 3 1.1 2.982C13.649 37.6 13.8 38 14.5 38s0.851-0.354 1.245-1.672 c0.005-0.019 0.555-1.847 1.146-2.982c1.307-2.502 3.014-3.904 3.03-3.919c0.369-0.3 1.065-0.752 1.489-0.967l6.148-3.116 C28.381 24.9 29 23.9 29 23V8.767c0-0.916-0.612-1.926-1.424-2.349L15.849 0.304C15.473 0.1 15 0 14.5 0"/><path fill="#F15A5A" d="M14.787 36.042c0 0 0.574-1.923 1.219-3.159c1.417-2.713 3.284-4.232 3.284-4.232 c0.428-0.347 1.179-0.834 1.669-1.083l6.149-3.115c0.49-0.248 0.893-0.902 0.893-1.452V8.767c0-0.55-0.4-1.208-0.888-1.462 L15.387 1.191C15.143 1.1 14.8 1 14.5 1c-0.322 0-0.643 0.064-0.887 0.191L1.887 7.305C1.399 7.6 1 8.2 1 8.767V23 c0 0.6 0.4 1.2 0.9 1.452l6.15 3.115c0.49 0.2 1.2 0.7 1.7 1.083c0 0 1.9 1.5 3.3 4.2 c0.645 1.2 1.2 3.2 1.2 3.159C14.371 36.6 14.5 37 14.5 37S14.629 36.6 14.8 36"/><path fill="#F15A5A" d="M14.5 38L14.5 38z"/><path fill="#FFFFFF" d="M25 21c0 0.55-0.406 1.193-0.903 1.43l-8.693 4.141c-0.498 0.236-1.309 0.236-1.806 0L4.903 22.4 C4.406 22.2 4 21.6 4 21V10.728c0-0.55 0.406-1.193 0.903-1.43l8.694-4.14c0.497-0.236 1.309-0.236 1.8 0l8.693 4.1 C24.594 9.5 25 10.2 25 10.728V21z"/><path fill="#F15A5A" d="M9.387 12.178c0.602 0 1.089-0.488 1.089-1.089c0-0.602-0.487-1.089-1.089-1.089 c-0.601 0-1.089 0.487-1.089 1.089C8.298 11.7 8.8 12.2 9.4 12.2"/><path fill="#F15A5A" d="M19.684 13.794c0.399 0.6 0.9 1.3 0.9 1.396l0.267 0.39l0.307-0.359L23 13.12l-0.688-0.283 l-1.355 1.581c-0.513-0.758-1.115-1.68-1.212-1.878l-0.016 0.008c-0.072-0.092-0.156-0.154-0.26-0.154l-0.924-0.2 c-0.129-0.03-0.26-0.005-0.371 0.065c-0.035 0.023-0.062 0.056-0.09 0.087c-0.609 0.262-1.477 0.632-1.466 0.632l-1.977 0.7 l-2.045-0.664c0.014 0.004-1.135-0.47-1.724-0.713c-0.006-0.005-0.01-0.012-0.016-0.016c-0.111-0.07-0.242-0.095-0.37-0.065 l-0.924 0.2c-0.102 0.023-0.186 0.082-0.254 0.158L9.285 12.54c-0.097 0.177-0.723 1.111-1.242 1.877l-1.355-1.58L6 13.1 l1.801 2.101l0.307 0.359l0.266-0.39c0.085-0.125 0.569-0.836 0.977-1.447l0.46 2.112l-1.124 2.624v0.078v0.078l0.356 2.4 l-0.745 0.533h1.089l0.467-0.078l-0.078-0.389L9.413 18.73l1.036-2.417c0.001 0 0 0 0 0l0.923-0.202 c0.129-0.027 0.238-0.103 0.309-0.213c0.008-0.012 0.012-0.025 0.019-0.036c0 0 0.033-0.239 0.008-0.353l-0.505-2.314l1.142 0.5 c0.018 0 2.2 0.6 2.2 0.649l0.084-0.307l0.095 0.326c0-0.019 2.154-0.694 2.17-0.7l0.938-0.405l-0.405 1.862l-0.014-0.005 l-3.5 2.612c0 0 0.9 0.4 2.1 0.671l-0.869 2.433l-0.018 0.009v0.059l-0.01 0.007l-0.004-0.056l-0.626 0.368l-0.605-0.356 v-0.021l-0.032-0.016l-0.95-2.654l-0.009-0.026l-0.013-0.024l-1.092-2.001c-0.106 0.127-0.248 0.217-0.411 0.252l-0.246 0.1 l1.101 2.017l-0.011-0.027l0.025 0.051l-0.014-0.024l0.968 2.707l0.085 0.232h0.255h0.671h0.556h0.671h0.254l0.086-0.232 l0.933-2.605c0.895 0.2 1.9 0.3 2.9 0.146l0.027 0.067l-0.361 2.394l-0.078 0.389l0.389 0.078h1.089l-0.67-0.515l0.359-2.441 v-0.078v-0.024c0.237-0.056 0.471-0.123 0.697-0.212c-0.644-0.801-1.173-1.425-1.573-1.886l-0.247-0.577L19.684 13.794z M13.554 20.639l0.038 0.021l0.086 0.064L13.554 20.639z M15.435 20.668l-0.053 0.026l0.095-0.056L15.435 20.668z"/><path fill="#F15A5A" d="M19.656 12.178c0.602 0 1.089-0.488 1.089-1.089c0-0.602-0.487-1.089-1.089-1.089 c-0.603 0-1.09 0.487-1.09 1.089C18.566 11.7 19.1 12.2 19.7 12.2"/></g></svg>