<svg xmlns="http://www.w3.org/2000/svg" xmlns:xlink="http://www.w3.org/1999/xlink" version="1.1" x="0px" y="0px" width="31px" height="32px" viewBox="0 0 31 32" enable-background="new 0 0 31 32" xml:space="preserve"><g><g><g><path fill="#3C9D47" d="M15.5 31.872l-5.209-5.209h10.418L15.5 31.872z"/></g><g><path fill-rule="evenodd" clip-rule="evenodd" fill="#3C9D47" d="M31 25.128c0 1.1-0.9 2-2 2H2c-1.1 0-2-0.9-2-2v-23 c0-1.1 0.9-2 2-2h27c1.1 0 2 0.9 2 2V25.128z"/></g><g opacity="0.9"><path fill-rule="evenodd" clip-rule="evenodd" fill="#FFFFFF" d="M28 22.128c0 1.1-0.9 2-2 2H5c-1.1 0-2-0.9-2-2v-17 c0-1.1 0.9-2 2-2h21c1.1 0 2 0.9 2 2V22.128z"/></g></g><path fill-rule="evenodd" clip-rule="evenodd" fill="#3C9D47" d="M23.23 17.231c-2.094 0.008-5.261 0.092-6.952 1.064v-0.501v-7.91 c0-0.742 1.221-2.201 6.952-2.256V17.231z M7.781 7.66c0.579 0 6.7 0.7 6.9 2.009c0.023 0.1 0 0.2 0 0.2 v7.91v0.501c-1.691-0.973-4.859-1.057-6.952-1.064V7.66z M15.552 9.638c0-2.819-6.496-3.137-9.315-3.137v1.128v10.166v1.065h0.966 h0.579v1.189c2.317 0 6.952-0.679 7 1.129h1.545c0-1.808 4.634-1.129 6.952-1.129V18.86h1.352h0.193V6.501 C21.957 6.5 15.6 6.8 15.6 9.638z"/></g></svg>