<svg xmlns="http://www.w3.org/2000/svg" xmlns:xlink="http://www.w3.org/1999/xlink" version="1.1" x="0px" y="0px" width="31px" height="32px" viewBox="0 0 31 32" enable-background="new 0 0 31 32" xml:space="preserve"><g><g><g><path fill="#2D2C83" d="M15.5 31.872l-5.209-5.209h10.418L15.5 31.872z"/></g><g><path fill-rule="evenodd" clip-rule="evenodd" fill="#2D2C83" d="M31 25.128c0 1.1-0.9 2-2 2H2c-1.1 0-2-0.9-2-2v-23 c0-1.1 0.9-2 2-2h27c1.1 0 2 0.9 2 2V25.128z"/></g><g opacity="0.9"><path fill-rule="evenodd" clip-rule="evenodd" fill="#FFFFFF" d="M28 22.128c0 1.1-0.9 2-2 2H5c-1.1 0-2-0.9-2-2v-17 c0-1.1 0.9-2 2-2h21c1.1 0 2 0.9 2 2V22.128z"/></g></g><path fill-rule="evenodd" clip-rule="evenodd" fill="#2D2C83" d="M9.615 20.173V9.057h-1.02C7.771 9.1 7 9.8 7 10.685v7.834 c0 1 0.6 1.7 1.4 1.654H9.615z M21.385 20.173h1.184c0.811 0 1.432-0.617 1.432-1.654v-7.834 c0-0.929-0.771-1.628-1.596-1.628h-1.02V20.173z M18.115 9.057V7.729c0-0.451-0.328-0.636-0.615-0.636h-3.308 c-0.432 0-0.654 0.223-0.654 0.674v1.289h-2.615v11.116h9.153V9.057H18.115z M17.461 9.057h-3.269V7.748h3.269V9.057z"/></g></svg>