<svg xmlns="http://www.w3.org/2000/svg" xmlns:xlink="http://www.w3.org/1999/xlink" version="1.1" id="Layer_1" x="0px" y="0px" viewBox="0 0 29 38" enable-background="new 0 0 29 38" xml:space="preserve"><path fill="#2D95BF" d="M-392.5-90.6l-12.5 7v14.1l6.9 3.9c1.8 1 2.6 2.1 4.1 4.9c0.6 1.2 1.5 4.1 1.5 4.1l0 0c0 0 0.9-2.9 1.5-4.1 c1.4-2.7 2.3-3.8 4.1-4.9l6.9-3.9v-14.1L-392.5-90.6z"/><polygon fill="#FFFFFF" stroke="#231F20" stroke-miterlimit="10" points="-1154.7,32.1 -1178.4,-9 -1154.7,-50.1 -1107.3,-50.1 -1083.5,-9 -1107.3,32.1"/><g><polygon fill="#231F20" points="-908.9,154.5 -908.9,141.1 -896.9,134.4 -884.9,141.1 -884.9,154.5 -896.9,161.2"/><path fill="#FFFFFF" d="M-896.9 134.9l11.5 6.4v12.8l-11.5 6.4l-11.5-6.4v-12.8L-896.9 134.9 M-896.9 133.8l-12.5 7v14l12.5 7 l12.5-7v-14L-896.9 133.8L-896.9 133.8z"/></g><g><polygon fill="#231F20" points="-839.9,159 -852.4,166 -864.9,159 -864.9,145 -852.4,138 -839.9,145"/></g><polygon fill="#FFFFFF" stroke="#231F20" stroke-miterlimit="10" points="-739.1,154 -751.6,160.3 -764.1,154 -764.1,141.5 -751.6,135.3 -739.1,141.5"/><path fill="#231F20" d="M-672.1-81.4l-6.4-2.4v0l0 0l0 0v0l-6.4 2.4c2 1 5.6 4 6.4 10.6c0 0 0 0.1 0 0.1c0 0 0 0 0-0.1 c0 0 0 0 0 0.1c0 0 0-0.1 0-0.1C-678.3-77.6-673.1-80.8-672.1-81.4z"/><path fill="#231F20" d="M-858 162.8c1.8 1 2.7 2.1 4.1 4.8c1.3 2.5 2 5.9 2 6.6c0-6.1 0-12.4 0-12.4h-5.1L-858 162.8z"/><path fill="#231F20" d="M-846.8 162.8c-1.8 1-2.7 2.1-4.1 4.8c-1.3 2.5-2 5.9-2 6.6c0-6.1 0-12.4 0-12.4h5.1L-846.8 162.8z"/><g><g><polygon fill="#231F20" points="-422.6,-727.3 -623,-615.1 -823.5,-727.3 -823.5,-951.8 -623,-1064 -422.6,-951.8"/></g><path fill="#231F20" d="M-549.2-681.1h-73h-1.4h-73l-15.9 15.9c28.6 16.4 42.7 34.3 65.5 77.8c10.4 19.9 18.1 43.1 23.4 63 c0 0 0.5 3.5 0.7 2.6c0.2 0.9 0.7-2.6 0.7-2.6c5.3-19.9 13-43.1 23.4-63c22.8-43.4 36.8-61.4 65.5-77.8L-549.2-681.1z"/></g><g><polygon fill="#231F20" points="202.2,-312 189.8,-305 177.2,-312 177.2,-326 189.8,-333 202.2,-326"/></g><g><polygon fill="#FFFFFF" points="-383.5,-71.5 -392.5,-66.5 -401.5,-71.5 -401.5,-81.6 -392.5,-86.7 -383.5,-81.6"/></g><path fill="#231F20" d="M194.4-309.1h-4.6h-0.1h-4.6l-1 1c1.8 1 2.7 2.1 4.1 4.8c0.7 1.2 1.1 2.7 1.5 3.9v0.3c0-0.1 0-0.1 0-0.2 c0 0.1 0 0.1 0 0.2v-0.3c0.3-1.2 0.8-2.7 1.5-3.9c1.4-2.7 2.3-3.8 4.1-4.8L194.4-309.1z"/><path fill="#231F20" d="M261.2-335l-12.5 7v14.1l6.9 3.9c1.8 1 2.6 2.1 4.1 4.9c0.6 1.2 1.5 4.1 1.5 4.1h0c0 0 0.9-2.9 1.5-4.1 c1.4-2.7 2.3-3.8 4.1-4.9l6.9-3.9V-328L261.2-335z"/><path fill="#231F20" d="M-657.5 186.5l-12.5 7v14.1l6.9 3.9c1.8 1 2.6 2.1 4.1 4.9c0.6 1.2 1.5 4.1 1.5 4.1h0c0 0 0.9-2.9 1.5-4.1 c1.4-2.7 2.3-3.8 4.1-4.9l6.9-3.9v-14.1L-657.5 186.5z"/><rect x="-288" y="-409" fill="#F15A5A" width="106" height="106"/><rect x="-412" y="-407" fill="#F89C1C" width="106" height="106"/><rect x="-653" y="-410" fill="#9FC419" width="106" height="106"/><rect x="-530" y="-410" fill="#F0C419" width="106" height="106"/><rect x="-769" y="-411" fill="#4EBA6F" width="106" height="106"/><rect x="-904" y="-414" fill="#2D95BF" width="106" height="106"/><rect x="-163" y="-408" fill="#955BA5" width="106" height="106"/><rect x="-30" y="-408" fill="#6756B2" width="106" height="106"/><path fill-rule="evenodd" clip-rule="evenodd" fill="#2D95BF" d="M-385.8-74.9c-0.5-0.2-1.2-0.8-2.2-1c0.3-0.3 0.5-0.8 0.7-1.3 c0.1-0.3 0.1-0.6 0.1-1c0-0.3 0.1-0.8 0-1c-0.2-0.9-0.8-1.1-1.5-1.1c-0.7 0-1.3 0.2-1.5 1.1c-0.1 0.3 0 0.7 0 1c0 0.4 0 0.7 0.1 1 c0.2 0.6 0.4 1 0.7 1.3c-0.3 0.1-0.6 0.2-0.9 0.3c1 0.4 1.8 1 2.3 1.3c1 0.5 1.3 1 1.5 1.3h1c0.4 0 0.7-0.4 0.7-0.7v-0.2 C-384.8-73.9-384.8-74.5-385.8-74.9z M-389.2-74.4c-0.8-0.4-1.8-1.3-3.5-1.6c0.4-0.5 0.7-1.3 1.1-2.2c0.2-0.5 0.1-1 0.1-1.6 c0-0.5 0.1-1.2 0-1.6c-0.4-1.4-1.3-1.8-2.3-1.8c-1.1 0-2 0.4-2.3 1.8c-0.1 0.4 0 1.2 0 1.6c0 0.6 0 1.1 0.2 1.6 c0.3 0.9 0.6 1.7 1.1 2.2c-1.6 0.3-2.7 1.2-3.4 1.6c-1.5 0.7-1.5 1.6-1.5 1.6v0.3c0 0.5 0.6 1.1 1.1 1.1h10c0.7 0 1.1-0.6 1.1-1.1 v-0.3C-387.6-72.8-387.6-73.6-389.2-74.4z"/><circle fill-rule="evenodd" clip-rule="evenodd" fill="#F15A29" cx="-393.8" cy="-80.6" r="2.5"/><path fill="#2D95BF" d="M-358-90.6l-12.5 7v14.1l6.9 3.9c1.8 1 2.6 2.1 4.1 4.9c0.6 1.2 1.5 4.1 1.5 4.1l0 0c0 0 0.9-2.9 1.5-4.1 c1.4-2.7 2.3-3.8 4.1-4.9l6.9-3.9v-14.1L-358-90.6z"/><g><polygon fill="#FFFFFF" points="-349,-71.5 -358,-66.5 -367,-71.5 -367,-81.6 -358,-86.7 -349,-81.6"/></g><circle fill-rule="evenodd" clip-rule="evenodd" fill="#2D95BF" cx="-359.2" cy="-80.6" r="2.5"/><circle fill-rule="evenodd" clip-rule="evenodd" fill="#2D95BF" cx="-359.2" cy="-75.9" r="3.6"/><g><path fill="#2D95BF" d="M-165.5-101.5c-0.4 0-0.4-0.2-0.6-0.8c-0.3-0.9-0.8-2.7-1.3-3.5c-1.4-2.7-2.3-3.7-3.9-4.7l-7.2-4.2v-14.5 l13-7.3l13 7.3v14.5l-7.2 4.2c-1.6 0.9-2.4 1.9-3.9 4.7c-0.5 0.9-1 2.7-1.3 3.6C-165.1-101.7-165.1-101.5-165.5-101.5 C-165.5-101.5-165.5-101.5-165.5-101.5z"/><path fill="#FFFFFF" d="M-165.5-136l12.5 7v14l-6.9 4c-1.8 1-2.6 2.1-4.1 4.9c-0.6 1.2-1.5 4.1-1.5 4.1l0 0h0l0 0 c0 0-0.9-2.9-1.5-4.1c-1.4-2.7-2.3-3.8-4.1-4.9l-6.9-4v-14L-165.5-136 M-165.5-137.1l-0.5 0.3l-12.5 7l-0.5 0.3v0.6v14v0.6l0.5 0.3 l6.9 4c1.5 0.9 2.3 1.8 3.7 4.5c0.4 0.8 1 2.7 1.3 3.5c0.2 0.6 0.4 1.2 1.1 1.2c0 0 0 0 0 0c0.7 0 0.9-0.6 1.1-1.2 c0.3-0.8 0.8-2.6 1.3-3.5c1.4-2.7 2.1-3.6 3.7-4.5l6.9-4l0.5-0.3v-0.6v-14v-0.6l-0.5-0.3l-12.5-7L-165.5-137.1L-165.5-137.1z"/></g><g><polygon fill="#FFFFFF" points="-156,-117 -165.5,-112 -175,-117 -175,-127 -165.5,-132 -156,-127"/></g><g><path fill="#2D95BF" d="M-259.5-101.5c-0.4 0-0.4-0.2-0.6-0.8c-0.3-0.9-0.8-2.7-1.3-3.5c-1.4-2.7-2.3-3.7-3.9-4.7l-7.2-4.2v-14.5 l13-7.3l13 7.3v14.5l-7.2 4.2c-1.6 0.9-2.4 1.9-3.9 4.7c-0.5 0.9-1 2.7-1.3 3.6C-259.1-101.7-259.1-101.5-259.5-101.5 C-259.5-101.5-259.5-101.5-259.5-101.5z"/><path fill="#FFFFFF" d="M-259.5-136l12.5 7v14l-6.9 4c-1.8 1-2.6 2.1-4.1 4.9c-0.6 1.2-1.5 4.1-1.5 4.1l0 0h0l0 0 c0 0-0.9-2.9-1.5-4.1c-1.4-2.7-2.3-3.8-4.1-4.9l-6.9-4v-14L-259.5-136 M-259.5-137.1l-0.5 0.3l-12.5 7l-0.5 0.3v0.6v14v0.6l0.5 0.3 l6.9 4c1.5 0.9 2.3 1.8 3.7 4.5c0.4 0.8 1 2.7 1.3 3.5c0.2 0.6 0.4 1.2 1.1 1.2c0 0 0 0 0 0c0.7 0 0.9-0.6 1.1-1.2 c0.3-0.8 0.8-2.6 1.3-3.5c1.4-2.7 2.1-3.6 3.7-4.5l6.9-4l0.5-0.3v-0.6v-14v-0.6l-0.5-0.3l-12.5-7L-259.5-137.1L-259.5-137.1z"/></g><g><polygon fill="#FFFFFF" points="-250,-117 -259.5,-112 -269,-117 -269,-127 -259.5,-132 -250,-127"/></g><circle fill-rule="evenodd" clip-rule="evenodd" fill="#2D95BF" cx="-256" cy="-126.5" r="2.5"/><g><path fill-rule="evenodd" clip-rule="evenodd" fill="#2D95BF" d="M-259-117.5h0.5v-0.5c0-0.7-0.2-1.4-0.5-2V-117.5z"/><g><path fill-rule="evenodd" clip-rule="evenodd" fill="#2D95BF" d="M-256-124c0.7 0 1.4-0.3 1.9-0.8c-0.5-0.4-1.2-0.7-1.9-0.7 s-1.3 0.3-1.9 0.7C-257.4-124.3-256.7-124-256-124z"/><path fill-rule="evenodd" clip-rule="evenodd" fill="#2D95BF" d="M-256-123c-1 0-1.9-0.4-2.5-1.1c-0.3 0.5-0.5 1-0.5 1.6v0.9 c0.9 0.9 1.5 2.2 1.5 3.6v0.5h4.5v-5c0-0.6-0.2-1.1-0.5-1.6C-254.1-123.4-255-123-256-123z"/></g></g><g><path fill-rule="evenodd" clip-rule="evenodd" fill="#2D95BF" d="M-260.7-121.6c-0.5-0.3-1.1-0.4-1.8-0.4s-1.2 0.2-1.8 0.4 c0.5 0.4 1.1 0.6 1.8 0.6S-261.2-121.2-260.7-121.6z"/><circle fill-rule="evenodd" clip-rule="evenodd" fill="#2D95BF" cx="-262.5" cy="-124" r="3"/></g><path fill="#2D95BF" d="M-289.5-136l-12.5 7v14l6.9 4c1.8 1 2.6 2.1 4.1 4.9c0.6 1.2 1.5 4.1 1.5 4.1h0c0 0 0.9-2.9 1.5-4.1 c1.4-2.7 2.3-3.8 4.1-4.9l6.9-4v-14L-289.5-136z"/><g><polygon fill="#FFFFFF" points="-280,-117 -289.5,-112 -299,-117 -299,-127 -289.5,-132 -280,-127"/></g><path fill-rule="evenodd" clip-rule="evenodd" fill="#2D95BF" d="M-286-125.5c-1.7 0-3 1.3-3 3v5h6v-5 C-283-124.2-284.3-125.5-286-125.5z"/><g><circle fill-rule="evenodd" clip-rule="evenodd" fill="#2D95BF" cx="-286" cy="-126.5" r="3"/><path fill="#FFFFFF" d="M-286-129c1.4 0 2.5 1.1 2.5 2.5s-1.1 2.5-2.5 2.5s-2.5-1.1-2.5-2.5S-287.4-129-286-129 M-286-130 c-1.9 0-3.5 1.6-3.5 3.5s1.6 3.5 3.5 3.5s3.5-1.6 3.5-3.5S-284.1-130-286-130L-286-130z"/></g><g><path fill-rule="evenodd" clip-rule="evenodd" fill="#2D95BF" d="M-297-113.5v-4.5c0-2.5 2-4.5 4.5-4.5s4.5 2 4.5 4.5v4.5H-297z"/><path fill="#FFFFFF" d="M-292.5-122c2.2 0 4 1.8 4 4v4h-8v-4C-296.5-120.2-294.7-122-292.5-122 M-292.5-123c-2.8 0-5 2.2-5 5v4v1h1 h8h1v-1v-4C-287.5-120.8-289.7-123-292.5-123L-292.5-123z"/></g><g><path fill-rule="evenodd" clip-rule="evenodd" fill="#2D95BF" d="M-292.5-120.5c-1.9 0-3.5-1.6-3.5-3.5s1.6-3.5 3.5-3.5 s3.5 1.6 3.5 3.5S-290.5-120.5-292.5-120.5z"/><path fill="#FFFFFF" d="M-292.5-127c1.7 0 3 1.3 3 3s-1.3 3-3 3s-3-1.3-3-3S-294.1-127-292.5-127 M-292.5-128c-2.2 0-4 1.8-4 4 s1.8 4 4 4s4-1.8 4-4S-290.2-128-292.5-128L-292.5-128z"/></g><path fill-rule="evenodd" clip-rule="evenodd" fill="#2D95BF" d="M-162.6-124.8c0.6 0 1.2-0.3 1.6-0.7c-0.4-0.3-1-0.6-1.6-0.6 s-1.1 0.2-1.6 0.6C-163.8-125.1-163.3-124.8-162.6-124.8z"/><circle fill-rule="evenodd" clip-rule="evenodd" fill="#2D95BF" cx="-162.6" cy="-126.9" r="2.1"/><g><path fill-rule="evenodd" clip-rule="evenodd" fill="#2D95BF" d="M-165-119h0.3v-0.7c0-0.5-0.1-0.9-0.3-1.4V-119z"/><path fill-rule="evenodd" clip-rule="evenodd" fill="#2D95BF" d="M-160.4-124.7c-0.6 0.6-1.4 0.9-2.3 0.9s-1.6-0.4-2.1-0.9 c-0.2 0.4-0.2 0.8-0.2 1.2v0.7c0.8 0.8 1.3 1.9 1.3 3.1v0.7h3.7v-4.5C-160-124-160.2-124.4-160.4-124.7z"/></g><g><g><path fill-rule="evenodd" clip-rule="evenodd" fill="#2D95BF" d="M-165.7-122.2c-0.6 0.6-1.4 0.9-2.3 0.9s-1.7-0.3-2.3-0.9 c-0.6 0.6-1 1.5-1 2.4v3.4h6.7v-3.4C-164.7-120.7-165.1-121.5-165.7-122.2z"/></g><circle fill-rule="evenodd" clip-rule="evenodd" fill="#2D95BF" cx="-168.1" cy="-124.8" r="2.5"/></g><g><path fill="#2D95BF" d="M-165.5-55.5c-0.4 0-0.4-0.2-0.6-0.8c-0.3-0.9-0.8-2.7-1.3-3.5c-1.4-2.7-2.3-3.7-3.9-4.7l-7.2-4.2v-14.5 l13-7.3l13 7.3v14.5l-7.2 4.2c-1.6 0.9-2.4 1.9-3.9 4.7c-0.5 0.9-1 2.7-1.3 3.6C-165.1-55.7-165.1-55.5-165.5-55.5 C-165.5-55.5-165.5-55.5-165.5-55.5z"/><path fill="#FFFFFF" d="M-165.5-90l12.5 7v14l-6.9 4c-1.8 1-2.6 2.1-4.1 4.9c-0.6 1.2-1.5 4.1-1.5 4.1l0 0h0l0 0 c0 0-0.9-2.9-1.5-4.1c-1.4-2.7-2.3-3.8-4.1-4.9l-6.9-4v-14L-165.5-90 M-165.5-91.1l-0.5 0.3l-12.5 7l-0.5 0.3v0.6v14v0.6l0.5 0.3 l6.9 4c1.5 0.9 2.3 1.8 3.7 4.5c0.4 0.8 1 2.7 1.3 3.5c0.2 0.6 0.4 1.2 1.1 1.2c0 0 0 0 0 0c0.7 0 0.9-0.6 1.1-1.2 c0.3-0.8 0.8-2.6 1.3-3.5c1.4-2.7 2.1-3.6 3.7-4.5l6.9-4l0.5-0.3V-69v-14v-0.6l-0.5-0.3l-12.5-7L-165.5-91.1L-165.5-91.1z"/></g><g><polygon fill="#FFFFFF" points="-156,-71 -165.5,-66 -175,-71 -175,-81 -165.5,-86 -156,-81"/></g><path fill-rule="evenodd" clip-rule="evenodd" fill="#2D95BF" d="M-162.6-78.8c0.6 0 1.2-0.3 1.6-0.7c-0.4-0.3-1-0.6-1.6-0.6 s-1.1 0.2-1.6 0.6C-163.8-79.1-163.3-78.8-162.6-78.8z"/><circle fill-rule="evenodd" clip-rule="evenodd" fill="#2D95BF" cx="-162.6" cy="-80.9" r="2.1"/><g><path fill-rule="evenodd" clip-rule="evenodd" fill="#2D95BF" d="M-165-73h0.3v-0.7c0-0.5-0.1-0.9-0.3-1.4V-73z"/><path fill-rule="evenodd" clip-rule="evenodd" fill="#2D95BF" d="M-160.4-78.7c-0.6 0.6-1.4 0.9-2.3 0.9s-1.6-0.4-2.1-0.9 c-0.2 0.4-0.2 0.8-0.2 1.2v0.7c0.8 0.8 1.3 1.9 1.3 3.1v0.7h3.7v-4.5C-160-78-160.2-78.4-160.4-78.7z"/></g><g><g><path fill-rule="evenodd" clip-rule="evenodd" fill="#2D95BF" d="M-165.7-76.2c-0.6 0.6-1.4 0.9-2.3 0.9s-1.7-0.3-2.3-0.9 c-0.6 0.6-1 1.5-1 2.4v3.4h6.7v-3.4C-164.7-74.7-165.1-75.5-165.7-76.2z"/></g><circle fill-rule="evenodd" clip-rule="evenodd" fill="#2D95BF" cx="-168.1" cy="-78.8" r="2.5"/></g><g><path fill="#2D95BF" d="M-166.3-8.8c0 0-0.6-1.9-1.2-3.1c-1.4-2.6-3.1-4.1-3.2-4.1c-0.4-0.3-1.1-0.8-1.6-1l-6.1-3.1 c-0.7-0.3-1.2-1.2-1.2-1.9v-14c0-0.7 0.5-1.6 1.2-1.9l11.7-6.1c0.3-0.2 0.7-0.2 1.1-0.2s0.8 0.1 1.1 0.2l11.7 6.1 c0.6 0.3 1.2 1.2 1.2 1.9v14c0 0.7-0.5 1.6-1.2 1.9l-6.2 3.1c-0.5 0.2-1.2 0.7-1.6 1c0 0-1.8 1.5-3.2 4.1c-0.6 1.2-1.2 3.1-1.2 3.1 l-0.8 1.8L-166.3-8.8z"/><path fill="#FFFFFF" d="M-165.5-43.7c0.3 0 0.6 0.1 0.9 0.2l11.7 6.1c0.5 0.3 0.9 0.9 0.9 1.5v14c0 0.5-0.4 1.2-0.9 1.5l-6.1 3.1 c-0.5 0.2-1.2 0.7-1.7 1.1c0 0-1.9 1.5-3.3 4.2c-0.6 1.2-1.2 3.2-1.2 3.2c-0.2 0.5-0.3 1-0.3 1s-0.1-0.4-0.3-1c0 0-0.6-1.9-1.2-3.2 c-1.4-2.7-3.3-4.2-3.3-4.2c-0.4-0.3-1.2-0.8-1.7-1.1l-6.1-3.1c-0.5-0.2-0.9-0.9-0.9-1.5v-14c0-0.6 0.4-1.2 0.9-1.5l11.7-6.1 C-166.1-43.7-165.8-43.7-165.5-43.7 M-165.5-44.7c-0.5 0-1 0.1-1.3 0.3l-11.7 6.1c-0.8 0.4-1.4 1.4-1.4 2.3v14 c0 0.9 0.6 1.9 1.4 2.3l6.1 3.1c0.4 0.2 1.1 0.7 1.5 1c0 0 1.7 1.4 3 3.9c0.6 1.1 1.1 3 1.1 3c0.4 1.3 0.5 1.7 1.2 1.7 s0.9-0.4 1.2-1.7c0 0 0.6-1.8 1.1-3c1.3-2.5 3-3.9 3-3.9c0.4-0.3 1.1-0.8 1.5-1l6.1-3.1c0.8-0.4 1.4-1.4 1.4-2.3v-14 c0-0.9-0.6-1.9-1.4-2.3l-11.7-6.1C-164.5-44.6-165-44.7-165.5-44.7L-165.5-44.7z"/></g><g><path fill="#FFFFFF" d="M-155-24c0 0.6-0.4 1.2-0.9 1.4l-8.7 4.1c-0.5 0.2-1.3 0.2-1.8 0l-8.7-4.1c-0.5-0.2-0.9-0.9-0.9-1.4v-10 c0-0.5 0.4-1.2 0.9-1.4l8.7-4.1c0.5-0.2 1.3-0.2 1.8 0l8.7 4.1c0.5 0.2 0.9 0.9 0.9 1.4V-24z"/></g><circle fill-rule="evenodd" clip-rule="evenodd" fill="#2D95BF" cx="-162.8" cy="-34" r="2.2"/><g><g><path fill-rule="evenodd" clip-rule="evenodd" fill="#2D95BF" d="M-166-29.1c-0.7 0.6-1.5 0.9-2.4 0.9s-1.8-0.4-2.4-0.9 c-0.7 0.6-1.1 1.5-1.1 2.5v3.5h7.1v-3.5C-164.9-27.5-165.4-28.4-166-29.1z"/></g><circle fill-rule="evenodd" clip-rule="evenodd" fill="#2D95BF" cx="-168.5" cy="-31.8" r="2.7"/><g><g><path fill-rule="evenodd" clip-rule="evenodd" fill="#2D95BF" d="M-160.2-32.1c-0.6 0.8-1.5 1.3-2.6 1.3c-0.8 0-1.5-0.3-2.1-0.8 c0 0.6-0.2 1.2-0.6 1.8l0.1 0.1c0.9 0.9 1.4 2 1.4 3.3v0.5h4.9v-3.5C-159-30.6-159.5-31.5-160.2-32.1z"/></g></g></g><g><path fill="#4EBA6F" stroke="#FFFFFF" stroke-miterlimit="10" d="M-130.3-8.8c0 0-0.6-1.9-1.2-3.1c-1.4-2.6-3.1-4.1-3.2-4.1 c-0.4-0.3-1.1-0.8-1.6-1l-6.1-3.1c-0.7-0.3-1.2-1.2-1.2-1.9v-14c0-0.7 0.5-1.6 1.2-1.9l11.7-6.1c0.3-0.2 0.7-0.2 1.1-0.2 s0.8 0.1 1.1 0.2l11.7 6.1c0.6 0.3 1.2 1.2 1.2 1.9v14c0 0.7-0.5 1.6-1.2 1.9l-6.2 3.1c-0.5 0.2-1.2 0.7-1.6 1c0 0-1.8 1.5-3.2 4.1 c-0.6 1.2-1.2 3.1-1.2 3.1l-0.8 1.8L-130.3-8.8z"/><path fill="#FFFFFF" d="M-129.5-43.7c0.3 0 0.6 0.1 0.9 0.2l11.7 6.1c0.5 0.3 0.9 0.9 0.9 1.5v14c0 0.5-0.4 1.2-0.9 1.5l-6.1 3.1 c-0.5 0.2-1.2 0.7-1.7 1.1c0 0-1.9 1.5-3.3 4.2c-0.6 1.2-1.2 3.2-1.2 3.2c-0.2 0.5-0.3 1-0.3 1s-0.1-0.4-0.3-1c0 0-0.6-1.9-1.2-3.2 c-1.4-2.7-3.3-4.2-3.3-4.2c-0.4-0.3-1.2-0.8-1.7-1.1l-6.1-3.1c-0.5-0.2-0.9-0.9-0.9-1.5v-14c0-0.6 0.4-1.2 0.9-1.5l11.7-6.1 C-130.1-43.7-129.8-43.7-129.5-43.7 M-129.5-44.7c-0.5 0-1 0.1-1.3 0.3l-11.7 6.1c-0.8 0.4-1.4 1.4-1.4 2.3v14 c0 0.9 0.6 1.9 1.4 2.3l6.1 3.1c0.4 0.2 1.1 0.7 1.5 1c0 0 1.7 1.4 3 3.9c0.6 1.1 1.1 3 1.1 3c0.4 1.3 0.5 1.7 1.2 1.7 s0.9-0.4 1.2-1.7c0 0 0.6-1.8 1.1-3c1.3-2.5 3-3.9 3-3.9c0.4-0.3 1.1-0.8 1.5-1l6.1-3.1c0.8-0.4 1.4-1.4 1.4-2.3v-14 c0-0.9-0.6-1.9-1.4-2.3l-11.7-6.1C-128.5-44.6-129-44.7-129.5-44.7L-129.5-44.7z"/></g><g><path fill="#FFFFFF" d="M-119-24c0 0.6-0.4 1.2-0.9 1.4l-8.7 4.1c-0.5 0.2-1.3 0.2-1.8 0l-8.7-4.1c-0.5-0.2-0.9-0.9-0.9-1.4v-10 c0-0.5 0.4-1.2 0.9-1.4l8.7-4.1c0.5-0.2 1.3-0.2 1.8 0l8.7 4.1c0.5 0.2 0.9 0.9 0.9 1.4V-24z"/></g><g><path fill="#F0C419" stroke="#FFFFFF" stroke-miterlimit="10" d="M-94.3-8.8c0 0-0.6-1.9-1.2-3.1c-1.4-2.6-3.1-4.1-3.2-4.1 c-0.4-0.3-1.1-0.8-1.6-1l-6.1-3.1c-0.7-0.3-1.2-1.2-1.2-1.9v-14c0-0.7 0.5-1.6 1.2-1.9l11.7-6.1c0.3-0.2 0.7-0.2 1.1-0.2 s0.8 0.1 1.1 0.2l11.7 6.1c0.6 0.3 1.2 1.2 1.2 1.9v14c0 0.7-0.5 1.6-1.2 1.9l-6.2 3.1c-0.5 0.2-1.2 0.7-1.6 1c0 0-1.8 1.5-3.2 4.1 c-0.6 1.2-1.2 3.1-1.2 3.1L-93.5-7L-94.3-8.8z"/><path fill="#FFFFFF" d="M-93.5-43.7c0.3 0 0.6 0.1 0.9 0.2l11.7 6.1c0.5 0.3 0.9 0.9 0.9 1.5v14c0 0.5-0.4 1.2-0.9 1.5l-6.1 3.1 c-0.5 0.2-1.2 0.7-1.7 1.1c0 0-1.9 1.5-3.3 4.2c-0.6 1.2-1.2 3.2-1.2 3.2c-0.2 0.5-0.3 1-0.3 1s-0.1-0.4-0.3-1c0 0-0.6-1.9-1.2-3.2 c-1.4-2.7-3.3-4.2-3.3-4.2c-0.4-0.3-1.2-0.8-1.7-1.1l-6.1-3.1c-0.5-0.2-0.9-0.9-0.9-1.5v-14c0-0.6 0.4-1.2 0.9-1.5l11.7-6.1 C-94.1-43.7-93.8-43.7-93.5-43.7 M-93.5-44.7c-0.5 0-1 0.1-1.3 0.3l-11.7 6.1c-0.8 0.4-1.4 1.4-1.4 2.3v14c0 0.9 0.6 1.9 1.4 2.3 l6.1 3.1c0.4 0.2 1.1 0.7 1.5 1c0 0 1.7 1.4 3 3.9c0.6 1.1 1.1 3 1.1 3c0.4 1.3 0.5 1.7 1.2 1.7s0.9-0.4 1.2-1.7c0 0 0.6-1.8 1.1-3 c1.3-2.5 3-3.9 3-3.9c0.4-0.3 1.1-0.8 1.5-1l6.1-3.1c0.8-0.4 1.4-1.4 1.4-2.3v-14c0-0.9-0.6-1.9-1.4-2.3l-11.7-6.1 C-92.5-44.6-93-44.7-93.5-44.7L-93.5-44.7z"/></g><g><path fill="#FFFFFF" d="M-83-24c0 0.6-0.4 1.2-0.9 1.4l-8.7 4.1c-0.5 0.2-1.3 0.2-1.8 0l-8.7-4.1c-0.5-0.2-0.9-0.9-0.9-1.4v-10 c0-0.5 0.4-1.2 0.9-1.4l8.7-4.1c0.5-0.2 1.3-0.2 1.8 0l8.7 4.1c0.5 0.2 0.9 0.9 0.9 1.4V-24z"/></g><g><path fill="#F89C1C" stroke="#FFFFFF" stroke-miterlimit="10" d="M-58.3-8.8c0 0-0.6-1.9-1.2-3.1c-1.4-2.6-3.1-4.1-3.2-4.1 c-0.4-0.3-1.1-0.8-1.6-1l-6.1-3.1c-0.7-0.3-1.2-1.2-1.2-1.9v-14c0-0.7 0.5-1.6 1.2-1.9l11.7-6.1c0.3-0.2 0.7-0.2 1.1-0.2 s0.8 0.1 1.1 0.2l11.7 6.1c0.6 0.3 1.2 1.2 1.2 1.9v14c0 0.7-0.5 1.6-1.2 1.9l-6.2 3.1c-0.5 0.2-1.2 0.7-1.6 1c0 0-1.8 1.5-3.2 4.1 c-0.6 1.2-1.2 3.1-1.2 3.1L-57.5-7L-58.3-8.8z"/><path fill="#FFFFFF" d="M-57.5-43.7c0.3 0 0.6 0.1 0.9 0.2l11.7 6.1c0.5 0.3 0.9 0.9 0.9 1.5v14c0 0.5-0.4 1.2-0.9 1.5l-6.1 3.1 c-0.5 0.2-1.2 0.7-1.7 1.1c0 0-1.9 1.5-3.3 4.2c-0.6 1.2-1.2 3.2-1.2 3.2c-0.2 0.5-0.3 1-0.3 1s-0.1-0.4-0.3-1c0 0-0.6-1.9-1.2-3.2 c-1.4-2.7-3.3-4.2-3.3-4.2c-0.4-0.3-1.2-0.8-1.7-1.1l-6.1-3.1c-0.5-0.2-0.9-0.9-0.9-1.5v-14c0-0.6 0.4-1.2 0.9-1.5l11.7-6.1 C-58.1-43.7-57.8-43.7-57.5-43.7 M-57.5-44.7c-0.5 0-1 0.1-1.3 0.3l-11.7 6.1c-0.8 0.4-1.4 1.4-1.4 2.3v14c0 0.9 0.6 1.9 1.4 2.3 l6.1 3.1c0.4 0.2 1.1 0.7 1.5 1c0 0 1.7 1.4 3 3.9c0.6 1.1 1.1 3 1.1 3c0.4 1.3 0.5 1.7 1.2 1.7s0.9-0.4 1.2-1.7c0 0 0.6-1.8 1.1-3 c1.3-2.5 3-3.9 3-3.9c0.4-0.3 1.1-0.8 1.5-1l6.1-3.1c0.8-0.4 1.4-1.4 1.4-2.3v-14c0-0.9-0.6-1.9-1.4-2.3l-11.7-6.1 C-56.5-44.6-57-44.7-57.5-44.7L-57.5-44.7z"/></g><g><path fill="#FFFFFF" d="M-47-24c0 0.6-0.4 1.2-0.9 1.4l-8.7 4.1c-0.5 0.2-1.3 0.2-1.8 0l-8.7-4.1c-0.5-0.2-0.9-0.9-0.9-1.4v-10 c0-0.5 0.4-1.2 0.9-1.4l8.7-4.1c0.5-0.2 1.3-0.2 1.8 0l8.7 4.1c0.5 0.2 0.9 0.9 0.9 1.4V-24z"/></g><g><path fill="#F15A5A" stroke="#FFFFFF" stroke-miterlimit="10" d="M-22.3-8.8c0 0-0.6-1.9-1.2-3.1c-1.4-2.6-3.1-4.1-3.2-4.1 c-0.4-0.3-1.1-0.8-1.6-1l-6.1-3.1c-0.7-0.3-1.2-1.2-1.2-1.9v-14c0-0.7 0.5-1.6 1.2-1.9l11.7-6.1c0.3-0.2 0.7-0.2 1.1-0.2 s0.8 0.1 1.1 0.2l11.7 6.1c0.6 0.3 1.2 1.2 1.2 1.9v14c0 0.7-0.5 1.6-1.2 1.9l-6.2 3.1c-0.5 0.2-1.2 0.7-1.6 1c0 0-1.8 1.5-3.2 4.1 c-0.6 1.2-1.2 3.1-1.2 3.1L-21.5-7L-22.3-8.8z"/><path fill="#FFFFFF" d="M-21.5-43.7c0.3 0 0.6 0.1 0.9 0.2l11.7 6.1C-8.4-37.2-8-36.5-8-36v14c0 0.5-0.4 1.2-0.9 1.5l-6.1 3.1 c-0.5 0.2-1.2 0.7-1.7 1.1c0 0-1.9 1.5-3.3 4.2c-0.6 1.2-1.2 3.2-1.2 3.2c-0.2 0.5-0.3 1-0.3 1s-0.1-0.4-0.3-1c0 0-0.6-1.9-1.2-3.2 c-1.4-2.7-3.3-4.2-3.3-4.2c-0.4-0.3-1.2-0.8-1.7-1.1l-6.1-3.1c-0.5-0.2-0.9-0.9-0.9-1.5v-14c0-0.6 0.4-1.2 0.9-1.5l11.7-6.1 C-22.1-43.7-21.8-43.7-21.5-43.7 M-21.5-44.7c-0.5 0-1 0.1-1.3 0.3l-11.7 6.1c-0.8 0.4-1.4 1.4-1.4 2.3v14c0 0.9 0.6 1.9 1.4 2.3 l6.1 3.1c0.4 0.2 1.1 0.7 1.5 1c0 0 1.7 1.4 3 3.9c0.6 1.1 1.1 3 1.1 3c0.4 1.3 0.5 1.7 1.2 1.7s0.9-0.4 1.2-1.7c0 0 0.6-1.8 1.1-3 c1.3-2.5 3-3.9 3-3.9c0.4-0.3 1.1-0.8 1.5-1l6.1-3.1C-7.6-20.1-7-21.1-7-22v-14c0-0.9-0.6-1.9-1.4-2.3l-11.7-6.1 C-20.5-44.6-21-44.7-21.5-44.7L-21.5-44.7z"/></g><g><path fill="#FFFFFF" d="M-11-24c0 0.6-0.4 1.2-0.9 1.4l-8.7 4.1c-0.5 0.2-1.3 0.2-1.8 0l-8.7-4.1c-0.5-0.2-0.9-0.9-0.9-1.4v-10 c0-0.5 0.4-1.2 0.9-1.4l8.7-4.1c0.5-0.2 1.3-0.2 1.8 0l8.7 4.1c0.5 0.2 0.9 0.9 0.9 1.4V-24z"/></g><g><path fill="#955BA5" stroke="#FFFFFF" stroke-miterlimit="10" d="M13.7-8.8c0 0-0.6-1.9-1.2-3.1c-1.4-2.6-3.1-4.1-3.2-4.1 c-0.4-0.3-1.1-0.8-1.6-1l-6.1-3.1C1-20.4 0.5-21.3 0.5-22v-14c0-0.7 0.5-1.6 1.2-1.9L13.4-44c0.3-0.2 0.7-0.2 1.1-0.2 s0.8 0.1 1.1 0.2l11.7 6.1c0.6 0.3 1.2 1.2 1.2 1.9v14c0 0.7-0.5 1.6-1.2 1.9L21.2-17c-0.5 0.2-1.2 0.7-1.6 1c0 0-1.8 1.5-3.2 4.1 c-0.6 1.2-1.2 3.1-1.2 3.1L14.5-7L13.7-8.8z"/><path fill="#FFFFFF" d="M14.5-43.7c0.3 0 0.6 0.1 0.9 0.2l11.7 6.1c0.5 0.3 0.9 0.9 0.9 1.5v14c0 0.5-0.4 1.2-0.9 1.5L21-17.4 c-0.5 0.2-1.2 0.7-1.7 1.1c0 0-1.9 1.5-3.3 4.2C15.4-10.9 14.8-9 14.8-9c-0.2 0.5-0.3 1-0.3 1s-0.1-0.4-0.3-1c0 0-0.6-1.9-1.2-3.2 c-1.4-2.7-3.3-4.2-3.3-4.2c-0.4-0.3-1.2-0.8-1.7-1.1l-6.1-3.1C1.4-20.8 1-21.5 1-22v-14c0-0.6 0.4-1.2 0.9-1.5l11.7-6.1 C13.9-43.7 14.2-43.7 14.5-43.7 M14.5-44.7c-0.5 0-1 0.1-1.3 0.3L1.4-38.3C0.6-37.9 0-36.9 0-36v14c0 0.9 0.6 1.9 1.4 2.3l6.1 3.1 c0.4 0.2 1.1 0.7 1.5 1c0 0 1.7 1.4 3 3.9c0.6 1.1 1.1 3 1.1 3C13.6-7.4 13.8-7 14.5-7s0.9-0.4 1.2-1.7c0 0 0.6-1.8 1.1-3 c1.3-2.5 3-3.9 3-3.9c0.4-0.3 1.1-0.8 1.5-1l6.1-3.1c0.8-0.4 1.4-1.4 1.4-2.3v-14c0-0.9-0.6-1.9-1.4-2.3l-11.7-6.1 C15.5-44.6 15-44.7 14.5-44.7L14.5-44.7z"/></g><g><path fill="#FFFFFF" d="M25-24c0 0.6-0.4 1.2-0.9 1.4l-8.7 4.1c-0.5 0.2-1.3 0.2-1.8 0l-8.7-4.1C4.4-22.8 4-23.5 4-24v-10 c0-0.5 0.4-1.2 0.9-1.4l8.7-4.1c0.5-0.2 1.3-0.2 1.8 0l8.7 4.1c0.5 0.2 0.9 0.9 0.9 1.4V-24z"/></g><g><path fill="#2D95BF" d="M-334.3-8.8c0 0-0.6-1.9-1.2-3.1c-1.4-2.6-3.1-4.1-3.2-4.1c-0.4-0.3-1.1-0.8-1.6-1l-6.1-3.1 c-0.7-0.3-1.2-1.2-1.2-1.9v-14c0-0.7 0.5-1.6 1.2-1.9l11.7-6.1c0.3-0.2 0.7-0.2 1.1-0.2s0.8 0.1 1.1 0.2l11.7 6.1 c0.6 0.3 1.2 1.2 1.2 1.9v14c0 0.7-0.5 1.6-1.2 1.9l-6.2 3.1c-0.5 0.2-1.2 0.7-1.6 1c0 0-1.8 1.5-3.2 4.1c-0.6 1.2-1.2 3.1-1.2 3.1 l-0.8 2.6L-334.3-8.8z"/><path fill="#FFFFFF" d="M-333.5-43.7c0.3 0 0.6 0.1 0.9 0.2l11.7 6.1c0.5 0.3 0.9 0.9 0.9 1.5v14c0 0.5-0.4 1.2-0.9 1.5l-6.1 3.1 c-0.5 0.2-1.2 0.7-1.7 1.1c0 0-1.9 1.5-3.3 4.2c-0.6 1.2-1.2 3.2-1.2 3.2c-0.2 0.5-0.3 1-0.3 1s-0.1-0.4-0.3-1c0 0-0.6-1.9-1.2-3.2 c-1.4-2.7-3.3-4.2-3.3-4.2c-0.4-0.3-1.2-0.8-1.7-1.1l-6.1-3.1c-0.5-0.2-0.9-0.9-0.9-1.5v-14c0-0.6 0.4-1.2 0.9-1.5l11.7-6.1 C-334.1-43.7-333.8-43.7-333.5-43.7 M-333.5-44.7c-0.5 0-1 0.1-1.3 0.3l-11.7 6.1c-0.8 0.4-1.4 1.4-1.4 2.3v14 c0 0.9 0.6 1.9 1.4 2.3l6.1 3.1c0.4 0.2 1.1 0.7 1.5 1c0 0 1.7 1.4 3 3.9c0.6 1.1 1.1 3 1.1 3c0.4 1.3 0.5 1.7 1.2 1.7 s0.9-0.4 1.2-1.7c0 0 0.6-1.8 1.1-3c1.3-2.5 3-3.9 3-3.9c0.4-0.3 1.1-0.8 1.5-1l6.1-3.1c0.8-0.4 1.4-1.4 1.4-2.3v-14 c0-0.9-0.6-1.9-1.4-2.3l-11.7-6.1C-332.5-44.6-333-44.7-333.5-44.7L-333.5-44.7z"/></g><g><path fill="#FFFFFF" d="M-323-24c0 0.6-0.4 1.2-0.9 1.4l-8.7 4.1c-0.5 0.2-1.3 0.2-1.8 0l-8.7-4.1c-0.5-0.2-0.9-0.9-0.9-1.4v-10 c0-0.5 0.4-1.2 0.9-1.4l8.7-4.1c0.5-0.2 1.3-0.2 1.8 0l8.7 4.1c0.5 0.2 0.9 0.9 0.9 1.4V-24z"/></g><path fill-rule="evenodd" clip-rule="evenodd" fill="#2D95BF" d="M-330.8-31.8c0.7 0 1.2-0.3 1.6-0.7c-0.5-0.4-1-0.6-1.6-0.6 s-1.2 0.2-1.6 0.6C-332-32.1-331.4-31.8-330.8-31.8z"/><circle fill-rule="evenodd" clip-rule="evenodd" fill="#2D95BF" cx="-330.8" cy="-34" r="2.2"/><g><g><path fill-rule="evenodd" clip-rule="evenodd" fill="#2D95BF" d="M-334-29.1c-0.7 0.6-1.5 0.9-2.4 0.9c-0.9 0-1.8-0.4-2.4-0.9 c-0.7 0.6-1.1 1.5-1.1 2.5v3.5h7.1v-3.5C-332.9-27.5-333.4-28.4-334-29.1z"/></g><circle fill-rule="evenodd" clip-rule="evenodd" fill="#2D95BF" cx="-336.5" cy="-31.8" r="2.7"/><g><g><path fill-rule="evenodd" clip-rule="evenodd" fill="#2D95BF" d="M-328.2-32.1c-0.6 0.8-1.5 1.3-2.6 1.3c-0.8 0-1.5-0.3-2.1-0.8 c0 0.6-0.2 1.2-0.6 1.8l0.1 0.1c0.9 0.9 1.4 2 1.4 3.3v0.5h4.9v-3.5C-327-30.6-327.5-31.5-328.2-32.1z"/></g></g></g><g><path fill="#2D95BF" d="M1090-522.5c-0.5-0.3-1.3-0.3-1.8 0L643-290.4c-0.5 0.3-0.9 0.9-0.9 1.5v526.5c0 0.5 0.4 1.2 0.9 1.5 l260.9 132.2c0.5 0.2 1.2 0.7 1.7 1.1c0 0 86.8 70.6 133.7 160.4c21.4 40.9 49.6 135.4 49.6 135.4c0.2 0.5 0.3 1 0.3 1 c0 0 0.1-0.4 0.3-1c0 0 28.2-94.4 49.6-135.4c46.9-89.8 133.7-160.4 133.7-160.4c0.4-0.3 1.2-0.8 1.7-1.1L1535.2 239 c0.5-0.2 0.9-0.9 0.9-1.5v-526.5c0-0.6-0.4-1.2-0.9-1.5L1090-522.5z"/></g><g><path fill="#FFFFFF" d="M1436.8 171.3c0 0.5-0.4 1.2-0.9 1.4L1090 337.5c-0.5 0.2-1.3 0.2-1.8 0L742.4 172.8 c-0.5-0.2-0.9-0.9-0.9-1.4V-224c0-0.6 0.4-1.2 0.9-1.4l345.9-164.7c0.5-0.2 1.3-0.2 1.8 0l345.9 164.7c0.5 0.2 0.9 0.9 0.9 1.4 V171.3z"/></g><path fill-rule="evenodd" clip-rule="evenodd" fill="#2D95BF" d="M1179.9-120.3c21.7 0 40.9-9.6 54.3-24.6 c-15-11.9-33.7-19.3-54.3-19.3s-39.3 7.4-54.3 19.3C1138.9-129.9 1158.2-120.3 1179.9-120.3z"/><circle fill-rule="evenodd" clip-rule="evenodd" fill="#2D95BF" cx="1179.9" cy="-193.5" r="73.2"/><g><g><path fill-rule="evenodd" clip-rule="evenodd" fill="#2D95BF" d="M1071.9-29.1C1050.2-9.9 1022.1 2.2 991 2.2 c-31.1 0-59.3-12-80.9-31.2c-22.2 21.3-36.2 51.1-36.2 84.3v117.1H1108V55.3C1108 22.1 1094.1-7.8 1071.9-29.1z"/></g><path fill-rule="evenodd" clip-rule="evenodd" fill="#2D95BF" d="M991-208.1c-48.5 0-87.8 39.3-87.8 87.8s39.3 87.8 87.8 87.8 c48.5 0 87.8-39.3 87.8-87.8S1039.5-208.1 991-208.1z"/><g><g><path fill-rule="evenodd" clip-rule="evenodd" fill="#2D95BF" d="M1264.4-129.8c-19.4 25.7-49.9 42.6-84.5 42.6 c-26.4 0-50.1-10.2-68.7-26.2c-1.2 21.4-7.7 41.3-18.7 58.3l2.3 2.2c29.9 28.7 46.4 67.1 46.4 108.2V73h163.2V-42.9 C1304.4-77.7 1288.7-108.5 1264.4-129.8z"/></g></g></g><g><path fill="#2D95BF" d="M-295.5-7c-0.4 0-0.4-0.4-0.6-1.1c-0.3-0.9-0.8-2.8-1.3-3.7c-1.4-2.7-2.5-3.8-4.1-4.7l-8.4-4.2v-16.6 l14-7.3l14 7.3v16.6l-8 4.2c-1.6 0.9-2.3 1.9-3.7 4.6c-0.5 0.9-1 2.9-1.2 3.8C-295.1-7.5-295.1-7-295.5-7C-295.5-7-295.5-7-295.5-7 z"/><path fill="#FFFFFF" d="M-295.5-44l13.5 7v16l-7.9 4c-1.8 1-2.6 2.1-4.1 4.9c-0.6 1.2-1.5 4.1-1.5 4.1h0h0h0c0 0-0.9-2.9-1.5-4.1 c-1.4-2.7-2.3-3.8-4.1-4.9l-7.9-4v-16L-295.5-44 M-295.5-45.1l-0.5 0.2l-13.5 7l-0.5 0.3v0.6v16v0.6l0.5 0.3l7.9 4 c1.5 0.9 2.3 1.8 3.7 4.4c0.4 0.8 1 2.7 1.3 3.5c0.2 0.6 0.4 1.2 1.1 1.2c0 0 0 0 0 0c0.7 0 0.9-0.6 1.1-1.2 c0.3-0.8 0.8-2.6 1.3-3.5c1.4-2.6 2.1-3.6 3.7-4.4l7.9-4l0.5-0.3V-21v-16v-0.6l-0.5-0.3l-13.5-7L-295.5-45.1L-295.5-45.1z"/></g><g><polygon fill="#FFFFFF" points="-285,-23 -295.5,-18 -306,-23 -306,-35 -295.5,-40 -285,-35"/></g><path fill-rule="evenodd" clip-rule="evenodd" fill="#2D95BF" d="M-292.8-31.8c0.7 0 1.2-0.3 1.6-0.7c-0.5-0.4-1-0.6-1.6-0.6 s-1.2 0.2-1.6 0.6C-294-32.1-293.4-31.8-292.8-31.8z"/><circle fill-rule="evenodd" clip-rule="evenodd" fill="#2D95BF" cx="-292.8" cy="-34" r="2.2"/><g><g><path fill-rule="evenodd" clip-rule="evenodd" fill="#2D95BF" d="M-296-29.1c-0.7 0.6-1.5 0.9-2.4 0.9c-0.9 0-1.8-0.4-2.4-0.9 c-0.7 0.6-1.1 1.5-1.1 2.5v3.5h7.1v-3.5C-294.9-27.5-295.4-28.4-296-29.1z"/></g><circle fill-rule="evenodd" clip-rule="evenodd" fill="#2D95BF" cx="-298.5" cy="-31.8" r="2.7"/><g><g><path fill-rule="evenodd" clip-rule="evenodd" fill="#2D95BF" d="M-290.2-32.1c-0.6 0.8-1.5 1.3-2.6 1.3c-0.8 0-1.5-0.3-2.1-0.8 c0 0.6-0.2 1.2-0.6 1.8l0.1 0.1c0.9 0.9 1.4 2 1.4 3.3v0.5h4.9v-3.5C-289-30.6-289.5-31.5-290.2-32.1z"/></g></g></g><g><path fill-rule="evenodd" clip-rule="evenodd" fill="#2D95BF" d="M-252.5-25.5v-4c0-2.2 1.8-4 4-4s4 1.8 4 4v4H-252.5z"/><path fill="#FFFFFF" d="M-248.5-33c1.9 0 3.5 1.6 3.5 3.5v3.5h-7v-3.5C-252-31.4-250.4-33-248.5-33 M-248.5-34 c-2.5 0-4.5 2-4.5 4.5v3.5v1h1h7h1v-1v-3.5C-244-32-246-34-248.5-34L-248.5-34z"/></g><path fill-rule="evenodd" clip-rule="evenodd" fill="#2D95BF" d="M-248.8-31.8c0.7 0 1.2-0.3 1.6-0.7c-0.5-0.4-1-0.6-1.6-0.6 c-0.6 0-1.2 0.2-1.6 0.6C-250-32.1-249.4-31.8-248.8-31.8z"/><circle fill-rule="evenodd" clip-rule="evenodd" fill="#2D95BF" cx="-248.8" cy="-34" r="2.2"/><g><circle fill-rule="evenodd" clip-rule="evenodd" fill="#2BB673" cx="-248.8" cy="-34" r="2.7"/><path fill="#FFFFFF" d="M-248.8-36.3c1.2 0 2.2 1 2.2 2.2c0 1.2-1 2.2-2.2 2.2s-2.2-1-2.2-2.2C-251-35.3-250-36.3-248.8-36.3 M-248.8-37.3c-1.8 0-3.2 1.4-3.2 3.2c0 1.8 1.4 3.2 3.2 3.2s3.2-1.4 3.2-3.2C-245.5-35.8-247-37.3-248.8-37.3L-248.8-37.3z"/></g><g><g><path fill-rule="evenodd" clip-rule="evenodd" fill="#2D95BF" d="M-252-29.1c-0.7 0.6-1.5 0.9-2.4 0.9s-1.8-0.4-2.4-0.9 c-0.7 0.6-1.1 1.5-1.1 2.5v3.5h7.1v-3.5C-250.9-27.5-251.4-28.4-252-29.1z"/></g><circle fill-rule="evenodd" clip-rule="evenodd" fill="#2D95BF" cx="-254.5" cy="-31.8" r="2.7"/></g><g><path fill-rule="evenodd" clip-rule="evenodd" fill="#2D95BF" d="M-259.5-113.1l1-0.5v-4.3c0-1.2-0.5-2.3-1.4-3 c-0.7 0.6-1.6 1-2.6 1s-1.9-0.4-2.6-1c-0.8 0.7-1.4 1.8-1.4 3v1.2L-259.5-113.1L-259.5-113.1z"/></g><g><path fill="#4EBA6F" d="M-130.5-101.5c-0.4 0-0.4-0.2-0.6-0.8c-0.3-0.9-0.8-2.7-1.3-3.5c-1.4-2.7-2.3-3.7-3.9-4.7l-7.2-4.2v-14.5 l13-7.3l13 7.3v14.5l-7.2 4.2c-1.6 0.9-2.4 1.9-3.9 4.7c-0.5 0.9-1 2.7-1.3 3.6C-130.1-101.7-130.1-101.5-130.5-101.5 C-130.5-101.5-130.5-101.5-130.5-101.5z"/><path fill="#FFFFFF" d="M-130.5-136l12.5 7v14l-6.9 4c-1.8 1-2.6 2.1-4.1 4.9c-0.6 1.2-1.5 4.1-1.5 4.1l0 0h0l0 0 c0 0-0.9-2.9-1.5-4.1c-1.4-2.7-2.3-3.8-4.1-4.9l-6.9-4v-14L-130.5-136 M-130.5-137.1l-0.5 0.3l-12.5 7l-0.5 0.3v0.6v14v0.6l0.5 0.3 l6.9 4c1.5 0.9 2.3 1.8 3.7 4.5c0.4 0.8 1 2.7 1.3 3.5c0.2 0.6 0.4 1.2 1.1 1.2c0 0 0 0 0 0c0.7 0 0.9-0.6 1.1-1.2 c0.3-0.8 0.8-2.6 1.3-3.5c1.4-2.7 2.1-3.6 3.7-4.5l6.9-4l0.5-0.3v-0.6v-14v-0.6l-0.5-0.3l-12.5-7L-130.5-137.1L-130.5-137.1z"/></g><g><polygon fill="#FFFFFF" points="-121,-117 -130.5,-112 -140,-117 -140,-127 -130.5,-132 -121,-127"/></g><g><path fill="#F0C419" d="M-95.5-101.5c-0.4 0-0.4-0.2-0.6-0.8c-0.3-0.9-0.8-2.7-1.3-3.5c-1.4-2.7-2.3-3.7-3.9-4.7l-7.2-4.2v-14.5 l13-7.3l13 7.3v14.5l-7.2 4.2c-1.6 0.9-2.4 1.9-3.9 4.7c-0.5 0.9-1 2.7-1.3 3.6C-95.1-101.7-95.1-101.5-95.5-101.5 C-95.5-101.5-95.5-101.5-95.5-101.5z"/><path fill="#FFFFFF" d="M-95.5-136l12.5 7v14l-6.9 4c-1.8 1-2.6 2.1-4.1 4.9c-0.6 1.2-1.5 4.1-1.5 4.1l0 0h0l0 0 c0 0-0.9-2.9-1.5-4.1c-1.4-2.7-2.3-3.8-4.1-4.9l-6.9-4v-14L-95.5-136 M-95.5-137.1l-0.5 0.3l-12.5 7l-0.5 0.3v0.6v14v0.6l0.5 0.3 l6.9 4c1.5 0.9 2.3 1.8 3.7 4.5c0.4 0.8 1 2.7 1.3 3.5c0.2 0.6 0.4 1.2 1.1 1.2c0 0 0 0 0 0c0.7 0 0.9-0.6 1.1-1.2 c0.3-0.8 0.8-2.6 1.3-3.5c1.4-2.7 2.1-3.6 3.7-4.5l6.9-4l0.5-0.3v-0.6v-14v-0.6l-0.5-0.3l-12.5-7L-95.5-137.1L-95.5-137.1z"/></g><g><polygon fill="#FFFFFF" points="-86,-117 -95.5,-112 -105,-117 -105,-127 -95.5,-132 -86,-127"/></g><path fill-rule="evenodd" clip-rule="evenodd" fill="#4EBA6F" d="M-124.3-118.2c-1.7 0-4.3 0.1-5.6 0.9v-0.4v-6.5 c0-0.6 1-1.8 5.6-1.8V-118.2z M-136.7-126.1c0.5 0 5.4 0.5 5.6 1.6c0 0.1 0 0.1 0 0.2v6.5v0.4c-1.4-0.8-3.9-0.9-5.6-0.9V-126.1z M-130.5-124.5c0-2.3-5.3-2.5-7.5-2.5v0.9v8.4v0.7h0.8h0.5v1c1.9 0 5.6-0.5 5.6 0.9h1.3c0-1.5 3.7-0.9 5.6-0.9v-1h1.1l0.2 0.1V-127 C-125.3-127-130.5-126.7-130.5-124.5z"/><g><path fill="#4EBA6F" d="M-130.5-55.5c-0.4 0-0.4-0.2-0.6-0.8c-0.3-0.9-0.8-2.7-1.3-3.5c-1.4-2.7-2.3-3.7-3.9-4.7l-7.2-4.2v-14.5 l13-7.3l13 7.3v14.5l-7.2 4.2c-1.6 0.9-2.4 1.9-3.9 4.7c-0.5 0.9-1 2.7-1.3 3.6C-130.1-55.7-130.1-55.5-130.5-55.5 C-130.5-55.5-130.5-55.5-130.5-55.5z"/><path fill="#FFFFFF" d="M-130.5-90l12.5 7v14l-6.9 4c-1.8 1-2.6 2.1-4.1 4.9c-0.6 1.2-1.5 4.1-1.5 4.1l0 0h0l0 0 c0 0-0.9-2.9-1.5-4.1c-1.4-2.7-2.3-3.8-4.1-4.9l-6.9-4v-14L-130.5-90 M-130.5-91.1l-0.5 0.3l-12.5 7l-0.5 0.3v0.6v14v0.6l0.5 0.3 l6.9 4c1.5 0.9 2.3 1.8 3.7 4.5c0.4 0.8 1 2.7 1.3 3.5c0.2 0.6 0.4 1.2 1.1 1.2c0 0 0 0 0 0c0.7 0 0.9-0.6 1.1-1.2 c0.3-0.8 0.8-2.6 1.3-3.5c1.4-2.7 2.1-3.6 3.7-4.5l6.9-4l0.5-0.3V-69v-14v-0.6l-0.5-0.3l-12.5-7L-130.5-91.1L-130.5-91.1z"/></g><g><polygon fill="#FFFFFF" points="-121,-71 -130.5,-66 -140,-71 -140,-81 -130.5,-86 -121,-81"/></g><path fill-rule="evenodd" clip-rule="evenodd" fill="#4EBA6F" d="M-124.3-72.2c-1.7 0-4.3 0.1-5.6 0.9v-0.4v-6.5 c0-0.6 1-1.8 5.6-1.8V-72.2z M-136.7-80.1c0.5 0 5.4 0.5 5.6 1.6c0 0.1 0 0.1 0 0.2v6.5v0.4c-1.4-0.8-3.9-0.9-5.6-0.9V-80.1z M-130.5-78.5c0-2.3-5.3-2.5-7.5-2.5v0.9v8.4v0.7h0.8h0.5v1c1.9 0 5.6-0.5 5.6 0.9h1.3c0-1.5 3.7-0.9 5.6-0.9v-1h1.1l0.2 0.1V-81 C-125.3-81-130.5-80.7-130.5-78.5z"/><path fill-rule="evenodd" clip-rule="evenodd" fill="#4EBA6F" d="M-123.3-26.1c-1.7 0-4.3 0.1-5.6 0.9v-0.4v-6.5 c0-0.6 1-1.8 5.6-1.8V-26.1z M-135.7-33.9c0.5 0 5.4 0.5 5.6 1.6c0 0.1 0 0.1 0 0.2v6.5v0.4c-1.4-0.8-3.9-0.9-5.6-0.9V-33.9z M-129.5-32.3c0-2.3-5.3-2.5-7.5-2.5v0.9v8.4v0.7h0.8h0.5v1c1.9 0 5.6-0.5 5.6 0.9h1.3c0-1.5 3.7-0.9 5.6-0.9v-1h1.1l0.2 0.1v-10.1 C-124.3-34.9-129.5-34.6-129.5-32.3z"/><g><path fill="#9FC419" d="M-130.3 36.2c0 0-0.6-1.9-1.2-3.1c-1.4-2.6-3.1-4.1-3.2-4.1c-0.4-0.3-1.1-0.8-1.6-1l-6.1-3.1 c-0.7-0.3-1.2-1.2-1.2-1.9V9c0-0.7 0.5-1.6 1.2-1.9l11.7-6.1c0.3-0.2 0.7-0.2 1.1-0.2s0.8 0.1 1.1 0.2l11.7 6.1 c0.6 0.3 1.2 1.2 1.2 1.9v14c0 0.7-0.5 1.6-1.2 1.9l-6.2 3.1c-0.5 0.2-1.2 0.7-1.6 1c0 0-1.8 1.5-3.2 4.1c-0.6 1.2-1.2 3.1-1.2 3.1 l-0.8 1.8L-130.3 36.2z"/><path fill="#FFFFFF" d="M-129.5 1.3c0.3 0 0.6 0.1 0.9 0.2l11.7 6.1c0.5 0.3 0.9 0.9 0.9 1.5v14c0 0.5-0.4 1.2-0.9 1.5l-6.1 3.1 c-0.5 0.2-1.2 0.7-1.7 1.1c0 0-1.9 1.5-3.3 4.2c-0.6 1.2-1.2 3.2-1.2 3.2c-0.2 0.5-0.3 1-0.3 1s-0.1-0.4-0.3-1c0 0-0.6-1.9-1.2-3.2 c-1.4-2.7-3.3-4.2-3.3-4.2c-0.4-0.3-1.2-0.8-1.7-1.1l-6.1-3.1c-0.5-0.2-0.9-0.9-0.9-1.5V9c0-0.6 0.4-1.2 0.9-1.5l11.7-6.1 C-130.1 1.3-129.8 1.3-129.5 1.3 M-129.5 0.3c-0.5 0-1 0.1-1.3 0.3l-11.7 6.1c-0.8 0.4-1.4 1.4-1.4 2.3v14c0 0.9 0.6 1.9 1.4 2.3 l6.1 3.1c0.4 0.2 1.1 0.7 1.5 1c0 0 1.7 1.4 3 3.9c0.6 1.1 1.1 3 1.1 3c0.4 1.3 0.5 1.7 1.2 1.7s0.9-0.4 1.2-1.7c0 0 0.6-1.8 1.1-3 c1.3-2.5 3-3.9 3-3.9c0.4-0.3 1.1-0.8 1.5-1l6.1-3.1c0.8-0.4 1.4-1.4 1.4-2.3V9c0-0.9-0.6-1.9-1.4-2.3l-11.7-6.1 C-128.5 0.4-129 0.3-129.5 0.3L-129.5 0.3z"/></g><g><path fill="#FFFFFF" d="M-119 21c0 0.6-0.4 1.2-0.9 1.4l-8.7 4.1c-0.5 0.2-1.3 0.2-1.8 0l-8.7-4.1c-0.5-0.2-0.9-0.9-0.9-1.4V11 c0-0.6 0.4-1.2 0.9-1.4l8.7-4.1c0.5-0.2 1.3-0.2 1.8 0l8.7 4.1c0.5 0.2 0.9 0.9 0.9 1.4V21z"/></g><path fill-rule="evenodd" clip-rule="evenodd" fill="#F0C419" d="M-100-117.2c-1.4 0-2.5-1.1-2.5-2.5c0-1.4 1.1-2.5 2.5-2.5 c1.4 0 2.5 1.1 2.5 2.5C-97.5-118.3-98.6-117.2-100-117.2z M-103-119.7c0 1.7 1.4 3 3 3c1.7 0 3-1.4 3-3c0-1.7-1.4-3-3-3 C-101.7-122.7-103-121.4-103-119.7z M-91.1-117.2c-1.4 0-2.5-1.1-2.5-2.5s1.1-2.5 2.5-2.5c1.4 0 2.5 1.1 2.5 2.5 S-89.7-117.2-91.1-117.2z M-94.1-119.7c0 1.7 1.4 3 3 3c1.7 0 3-1.4 3-3c0-1.7-1.4-3-3-3C-92.8-122.7-94.1-121.4-94.1-119.7z M-94.1-127.1c0.6 0 1.1-0.5 1.1-1.1s-0.5-1.1-1.1-1.1c-0.6 0-1.1 0.5-1.1 1.1C-95.3-127.6-94.7-127.1-94.1-127.1z M-94.1-124.2h2.2 c0.7 0 0.7-1.2 0-1.2h-1.9l-1.3-2c0 0-0.3-0.3-0.8-0.3c0 0-0.4-0.1-0.7 0.3l-2.4 2.4c-0.1 0.2-0.2 0.4-0.2 0.6 c0 0.4 0.3 0.7 0.6 0.8l2.5 1.4v2.6c0 0.4 0.2 0.7 0.6 0.7c0.4 0 0.6-0.3 0.6-0.7v-3.2c0 0 0.1-0.5-0.5-0.8l-1.3-0.7l1.5-1.5 l0.7 1.2C-94.4-124.4-94.2-124.1-94.1-124.2z"/><g><path fill="#F0C419" d="M-95.5-55.5c-0.4 0-0.4-0.2-0.6-0.8c-0.3-0.9-0.8-2.7-1.3-3.5c-1.4-2.7-2.3-3.7-3.9-4.7l-7.2-4.2v-14.5 l13-7.3l13 7.3v14.5l-7.2 4.2c-1.6 0.9-2.4 1.9-3.9 4.7c-0.5 0.9-1 2.7-1.3 3.6C-95.1-55.7-95.1-55.5-95.5-55.5 C-95.5-55.5-95.5-55.5-95.5-55.5z"/><path fill="#FFFFFF" d="M-95.5-90l12.5 7v14l-6.9 4c-1.8 1-2.6 2.1-4.1 4.9c-0.6 1.2-1.5 4.1-1.5 4.1l0 0h0l0 0 c0 0-0.9-2.9-1.5-4.1c-1.4-2.7-2.3-3.8-4.1-4.9l-6.9-4v-14L-95.5-90 M-95.5-91.1l-0.5 0.3l-12.5 7l-0.5 0.3v0.6v14v0.6l0.5 0.3 l6.9 4c1.5 0.9 2.3 1.8 3.7 4.5c0.4 0.8 1 2.7 1.3 3.5c0.2 0.6 0.4 1.2 1.1 1.2c0 0 0 0 0 0c0.7 0 0.9-0.6 1.1-1.2 c0.3-0.8 0.8-2.6 1.3-3.5c1.4-2.7 2.1-3.6 3.7-4.5l6.9-4l0.5-0.3V-69v-14v-0.6l-0.5-0.3l-12.5-7L-95.5-91.1L-95.5-91.1z"/></g><g><polygon fill="#FFFFFF" points="-86,-71 -95.5,-66 -105,-71 -105,-81 -95.5,-86 -86,-81"/></g><path fill-rule="evenodd" clip-rule="evenodd" fill="#F0C419" d="M-100-71.2c-1.4 0-2.5-1.1-2.5-2.5c0-1.4 1.1-2.5 2.5-2.5 c1.4 0 2.5 1.1 2.5 2.5C-97.5-72.3-98.6-71.2-100-71.2z M-103-73.7c0 1.7 1.4 3 3 3c1.7 0 3-1.4 3-3c0-1.7-1.4-3-3-3 C-101.7-76.7-103-75.4-103-73.7z M-91.1-71.2c-1.4 0-2.5-1.1-2.5-2.5s1.1-2.5 2.5-2.5c1.4 0 2.5 1.1 2.5 2.5S-89.7-71.2-91.1-71.2z M-94.1-73.7c0 1.7 1.4 3 3 3c1.7 0 3-1.4 3-3c0-1.7-1.4-3-3-3C-92.8-76.7-94.1-75.4-94.1-73.7z M-94.1-81.1c0.6 0 1.1-0.5 1.1-1.1 s-0.5-1.1-1.1-1.1c-0.6 0-1.1 0.5-1.1 1.1C-95.3-81.6-94.7-81.1-94.1-81.1z M-94.1-78.2h2.2c0.7 0 0.7-1.2 0-1.2h-1.9l-1.3-2 c0 0-0.3-0.3-0.8-0.3c0 0-0.4-0.1-0.7 0.3l-2.4 2.4c-0.1 0.2-0.2 0.4-0.2 0.6c0 0.4 0.3 0.7 0.6 0.8l2.5 1.4v2.6 c0 0.4 0.2 0.7 0.6 0.7c0.4 0 0.6-0.3 0.6-0.7v-3.2c0 0 0.1-0.5-0.5-0.8l-1.3-0.7l1.5-1.5l0.7 1.2C-94.4-78.4-94.2-78.1-94.1-78.2z"/><path fill-rule="evenodd" clip-rule="evenodd" fill="#F0C419" d="M-98-23.6c-1.4 0-2.5-1.1-2.5-2.5c0-1.4 1.1-2.5 2.5-2.5 c1.4 0 2.5 1.1 2.5 2.5C-95.5-24.7-96.6-23.6-98-23.6z M-101-26.1c0 1.7 1.4 3 3 3c1.7 0 3-1.4 3-3c0-1.7-1.4-3-3-3 C-99.6-29.1-101-27.7-101-26.1z M-89-23.6c-1.4 0-2.5-1.1-2.5-2.5c0-1.4 1.1-2.5 2.5-2.5c1.4 0 2.5 1.1 2.5 2.5 C-86.6-24.7-87.7-23.6-89-23.6z M-92.1-26c0 1.7 1.4 3 3 3c1.7 0 3-1.4 3-3c0-1.7-1.4-3-3-3C-90.7-29.1-92.1-27.7-92.1-26z M-92.1-33.4c0.6 0 1.1-0.5 1.1-1.1s-0.5-1.1-1.1-1.1c-0.6 0-1.1 0.5-1.1 1.1C-93.2-33.9-92.7-33.4-92.1-33.4z M-92-30.5h2.2 c0.7 0 0.7-1.2 0-1.2h-1.9l-1.3-2c0 0-0.3-0.3-0.8-0.3c0 0-0.4-0.1-0.7 0.3l-2.4 2.4c-0.1 0.2-0.2 0.4-0.2 0.6 c0 0.4 0.3 0.7 0.6 0.8l2.5 1.4v2.6c0 0.4 0.2 0.7 0.6 0.7c0.4 0 0.6-0.3 0.6-0.7v-3.2c0 0 0.1-0.5-0.5-0.8l-1.3-0.7l1.5-1.5 l0.7 1.2C-92.4-30.7-92.2-30.5-92-30.5z"/><g><path fill="#F89C1C" d="M-60.5-101.5c-0.4 0-0.4-0.2-0.6-0.8c-0.3-0.9-0.8-2.7-1.3-3.5c-1.4-2.7-2.3-3.7-3.9-4.7l-7.2-4.2v-14.5 l13-7.3l13 7.3v14.5l-7.2 4.2c-1.6 0.9-2.4 1.9-3.9 4.7c-0.5 0.9-1 2.7-1.3 3.6C-60.1-101.7-60.1-101.5-60.5-101.5 C-60.5-101.5-60.5-101.5-60.5-101.5z"/><path fill="#FFFFFF" d="M-60.5-136l12.5 7v14l-6.9 4c-1.8 1-2.6 2.1-4.1 4.9c-0.6 1.2-1.5 4.1-1.5 4.1l0 0h0l0 0 c0 0-0.9-2.9-1.5-4.1c-1.4-2.7-2.3-3.8-4.1-4.9l-6.9-4v-14L-60.5-136 M-60.5-137.1l-0.5 0.3l-12.5 7l-0.5 0.3v0.6v14v0.6l0.5 0.3 l6.9 4c1.5 0.9 2.3 1.8 3.7 4.5c0.4 0.8 1 2.7 1.3 3.5c0.2 0.6 0.4 1.2 1.1 1.2c0 0 0 0 0 0c0.7 0 0.9-0.6 1.1-1.2 c0.3-0.8 0.8-2.6 1.3-3.5c1.4-2.7 2.1-3.6 3.7-4.5l6.9-4l0.5-0.3v-0.6v-14v-0.6l-0.5-0.3l-12.5-7L-60.5-137.1L-60.5-137.1z"/></g><g><polygon fill="#FFFFFF" points="-51,-117 -60.5,-112 -70,-117 -70,-127 -60.5,-132 -51,-127"/></g><g><g><path fill-rule="evenodd" clip-rule="evenodd" fill="#F89C1C" d="M-57.1-119.5c1.7-2 5-5.9 4.4-6.4c-0.6-0.5-4.2 3-6.1 4.9 L-57.1-119.5z"/><path fill-rule="evenodd" clip-rule="evenodd" fill="#F89C1C" d="M-59.1-120.7c-0.4 0.4-0.7 0.7-0.7 0.7l1.7 1.6 c0 0 0.2-0.3 0.6-0.7L-59.1-120.7z"/></g><path fill-rule="evenodd" clip-rule="evenodd" fill="#F89C1C" d="M-63.4-115c5.6 0.6 4.8-2.8 4.8-2.8l-1.7-1.6c0 0-1.2 0.1-1.5 1 C-62.5-116.6-62.1-114.9-63.4-115z"/></g><path fill="#F89C1C" d="M-67.5-125.8l1.6 4.2c0-0.1-0.5-0.2-0.8-0.1c-0.9 0.3-1.1 1.1-0.9 1.5c0.2 0.6 0.9 1.2 1.8 0.8 c0.9-0.3 0.9-1.3 0.8-1.8l-1.2-3.2l3.3-2l1.2 3.2c0-0.1-0.5-0.2-0.8-0.1c-0.9 0.3-1.1 1.1-0.9 1.5c0.2 0.6 0.9 1.2 1.8 0.8 c0.9-0.3 0.9-1.3 0.8-1.8l-2.1-5.5L-67.5-125.8z"/><g><path fill="#F89C1C" d="M-60.5-55.5c-0.4 0-0.4-0.2-0.6-0.8c-0.3-0.9-0.8-2.7-1.3-3.5c-1.4-2.7-2.3-3.7-3.9-4.7l-7.2-4.2v-14.5 l13-7.3l13 7.3v14.5l-7.2 4.2c-1.6 0.9-2.4 1.9-3.9 4.7c-0.5 0.9-1 2.7-1.3 3.6C-60.1-55.7-60.1-55.5-60.5-55.5 C-60.5-55.5-60.5-55.5-60.5-55.5z"/><path fill="#FFFFFF" d="M-60.5-90l12.5 7v14l-6.9 4c-1.8 1-2.6 2.1-4.1 4.9c-0.6 1.2-1.5 4.1-1.5 4.1l0 0h0l0 0 c0 0-0.9-2.9-1.5-4.1c-1.4-2.7-2.3-3.8-4.1-4.9l-6.9-4v-14L-60.5-90 M-60.5-91.1l-0.5 0.3l-12.5 7l-0.5 0.3v0.6v14v0.6l0.5 0.3 l6.9 4c1.5 0.9 2.3 1.8 3.7 4.5c0.4 0.8 1 2.7 1.3 3.5c0.2 0.6 0.4 1.2 1.1 1.2c0 0 0 0 0 0c0.7 0 0.9-0.6 1.1-1.2 c0.3-0.8 0.8-2.6 1.3-3.5c1.4-2.7 2.1-3.6 3.7-4.5l6.9-4l0.5-0.3V-69v-14v-0.6l-0.5-0.3l-12.5-7L-60.5-91.1L-60.5-91.1z"/></g><g><polygon fill="#FFFFFF" points="-51,-71 -60.5,-66 -70,-71 -70,-81 -60.5,-86 -51,-81"/></g><g><g><g><path fill-rule="evenodd" clip-rule="evenodd" fill="#F89C1C" d="M-57.1-73.5c1.7-2 5-5.9 4.4-6.4c-0.6-0.5-4.2 3-6.1 4.9 L-57.1-73.5z"/><path fill-rule="evenodd" clip-rule="evenodd" fill="#F89C1C" d="M-59.1-74.7c-0.4 0.4-0.7 0.7-0.7 0.7l1.7 1.6 c0 0 0.2-0.3 0.6-0.7L-59.1-74.7z"/></g><path fill-rule="evenodd" clip-rule="evenodd" fill="#F89C1C" d="M-63.4-69c5.6 0.6 4.8-2.8 4.8-2.8l-1.7-1.6c0 0-1.2 0.1-1.5 1 C-62.5-70.6-62.1-68.9-63.4-69z"/></g><path fill="#F89C1C" d="M-67.5-79.8l1.6 4.2c0-0.1-0.5-0.2-0.8-0.1c-0.9 0.3-1.1 1.1-0.9 1.5c0.2 0.6 0.9 1.2 1.8 0.8 c0.9-0.3 0.9-1.3 0.8-1.8l-1.2-3.2l3.3-2l1.2 3.2c0-0.1-0.5-0.2-0.8-0.1c-0.9 0.3-1.1 1.1-0.9 1.5c0.2 0.6 0.9 1.2 1.8 0.8 c0.9-0.3 0.9-1.3 0.8-1.8l-2.1-5.5L-67.5-79.8z"/></g><g><g><g><path fill-rule="evenodd" clip-rule="evenodd" fill="#F89C1C" d="M-54.5-26.5c1.7-2 5-5.9 4.4-6.4c-0.6-0.5-4.2 3-6.1 4.9 L-54.5-26.5z"/><path fill-rule="evenodd" clip-rule="evenodd" fill="#F89C1C" d="M-56.4-27.8c-0.4 0.4-0.7 0.7-0.7 0.7l1.7 1.6 c0 0 0.2-0.3 0.6-0.7L-56.4-27.8z"/></g><path fill-rule="evenodd" clip-rule="evenodd" fill="#F89C1C" d="M-60.7-22.1c5.6 0.6 4.8-2.8 4.8-2.8l-1.7-1.6c0 0-1.2 0.1-1.5 1 C-59.9-23.7-59.5-21.9-60.7-22.1z"/></g><path fill="#F89C1C" d="M-64.8-32.8l1.6 4.2c0-0.1-0.5-0.2-0.8-0.1c-0.9 0.3-1.1 1.1-0.9 1.5c0.2 0.6 0.9 1.2 1.8 0.8 c0.9-0.3 0.9-1.3 0.8-1.8l-1.2-3.2l3.3-2l1.2 3.2c0-0.1-0.5-0.2-0.8-0.1c-0.9 0.3-1.1 1.1-0.9 1.5c0.2 0.6 0.9 1.2 1.8 0.8 c0.9-0.3 0.9-1.3 0.8-1.8l-2.1-5.5L-64.8-32.8z"/></g><g><path fill="#F15A5A" d="M-25.5-101.5c-0.4 0-0.4-0.2-0.6-0.8c-0.3-0.9-0.8-2.7-1.3-3.5c-1.4-2.7-2.3-3.7-3.9-4.7l-7.2-4.2v-14.5 l13-7.3l13 7.3v14.5l-7.2 4.2c-1.6 0.9-2.4 1.9-3.9 4.7c-0.5 0.9-1 2.7-1.3 3.6C-25.1-101.7-25.1-101.5-25.5-101.5 C-25.5-101.5-25.5-101.5-25.5-101.5z"/><path fill="#FFFFFF" d="M-25.5-136l12.5 7v14l-6.9 4c-1.8 1-2.6 2.1-4.1 4.9c-0.6 1.2-1.5 4.1-1.5 4.1l0 0h0l0 0 c0 0-0.9-2.9-1.5-4.1c-1.4-2.7-2.3-3.8-4.1-4.9l-6.9-4v-14L-25.5-136 M-25.5-137.1l-0.5 0.3l-12.5 7l-0.5 0.3v0.6v14v0.6l0.5 0.3 l6.9 4c1.5 0.9 2.3 1.8 3.7 4.5c0.4 0.8 1 2.7 1.3 3.5c0.2 0.6 0.4 1.2 1.1 1.2c0 0 0 0 0 0c0.7 0 0.9-0.6 1.1-1.2 c0.3-0.8 0.8-2.6 1.3-3.5c1.4-2.7 2.1-3.6 3.7-4.5l6.9-4l0.5-0.3v-0.6v-14v-0.6l-0.5-0.3l-12.5-7L-25.5-137.1L-25.5-137.1z"/></g><g><polygon fill="#FFFFFF" points="-16,-117 -25.5,-112 -35,-117 -35,-127 -25.5,-132 -16,-127"/></g><g><circle fill="#F15A5A" cx="-30.6" cy="-126.5" r="1.1"/><path fill="#F15A5A" d="M-20.3-123.8c0.4 0.6 0.9 1.3 0.9 1.4l0.3 0.4l0.3-0.4l1.8-2.1l-0.7-0.3l-1.4 1.6c-0.5-0.8-1.1-1.7-1.2-1.9 l0 0c-0.1-0.1-0.2-0.2-0.3-0.2l-0.9-0.2c-0.1 0-0.3 0-0.4 0.1c0 0-0.1 0.1-0.1 0.1c-0.6 0.3-1.5 0.6-1.5 0.6l-2 0.7l-2-0.7 c0 0-1.1-0.5-1.7-0.7c0 0 0 0 0 0c-0.1-0.1-0.2-0.1-0.4-0.1l-0.9 0.2c-0.1 0-0.2 0.1-0.3 0.2l0 0c-0.1 0.2-0.7 1.1-1.2 1.9 l-1.4-1.6l-0.7 0.3l1.8 2.1l0.3 0.4l0.3-0.4c0.1-0.1 0.6-0.8 1-1.4l0.5 2.1l-1.1 2.6v0.1v0.1l0.4 2.4l-0.7 0.5h1.1l0.5-0.1 l-0.1-0.4l-0.4-2.4l1-2.4c0 0 0 0 0 0l0.9-0.2c0.1 0 0.2-0.1 0.3-0.2c0 0 0 0 0 0c0 0 0-0.2 0-0.4l-0.5-2.3l1.1 0.5 c0 0 2.2 0.6 2.2 0.6l0.1-0.3l0.1 0.3c0 0 2.2-0.7 2.2-0.7l0.9-0.4l-0.4 1.9l0 0l-3.5 2.6c0 0 0.9 0.4 2.1 0.7l-0.9 2.4l0 0v0.1 l0 0l0-0.1l-0.6 0.4l-0.6-0.4v0l0 0l-0.9-2.7l0 0l0 0l-1.1-2c-0.1 0.1-0.2 0.2-0.4 0.3l-0.2 0.1l1.1 2l0 0l0 0.1l0 0l1 2.7l0.1 0.2 h0.3h0.7h0.6h0.7h0.3l0.1-0.2l0.9-2.6c0.9 0.2 1.9 0.3 2.9 0.1l0 0.1l-0.4 2.4l-0.1 0.4l0.4 0.1h1.1l-0.7-0.5l0.4-2.4v-0.1v0 c0.2-0.1 0.5-0.1 0.7-0.2c-0.6-0.8-1.2-1.4-1.6-1.9l-0.2-0.6L-20.3-123.8z M-26.4-117L-26.4-117l0.1 0.1L-26.4-117z M-24.6-116.9 L-24.6-116.9L-24.6-116.9L-24.6-116.9z"/><circle fill="#F15A5A" cx="-20.3" cy="-126.5" r="1.1"/></g><g><path fill="#F15A5A" d="M-25.5-55.5c-0.4 0-0.4-0.2-0.6-0.8c-0.3-0.9-0.8-2.7-1.3-3.5c-1.4-2.7-2.3-3.7-3.9-4.7l-7.2-4.2v-14.5 l13-7.3l13 7.3v14.5l-7.2 4.2c-1.6 0.9-2.4 1.9-3.9 4.7c-0.5 0.9-1 2.7-1.3 3.6C-25.1-55.7-25.1-55.5-25.5-55.5 C-25.5-55.5-25.5-55.5-25.5-55.5z"/><path fill="#FFFFFF" d="M-25.5-90l12.5 7v14l-6.9 4c-1.8 1-2.6 2.1-4.1 4.9c-0.6 1.2-1.5 4.1-1.5 4.1l0 0h0l0 0 c0 0-0.9-2.9-1.5-4.1c-1.4-2.7-2.3-3.8-4.1-4.9l-6.9-4v-14L-25.5-90 M-25.5-91.1l-0.5 0.3l-12.5 7l-0.5 0.3v0.6v14v0.6l0.5 0.3 l6.9 4c1.5 0.9 2.3 1.8 3.7 4.5c0.4 0.8 1 2.7 1.3 3.5c0.2 0.6 0.4 1.2 1.1 1.2c0 0 0 0 0 0c0.7 0 0.9-0.6 1.1-1.2 c0.3-0.8 0.8-2.6 1.3-3.5c1.4-2.7 2.1-3.6 3.7-4.5l6.9-4l0.5-0.3V-69v-14v-0.6l-0.5-0.3l-12.5-7L-25.5-91.1L-25.5-91.1z"/></g><g><polygon fill="#FFFFFF" points="-16,-71 -25.5,-66 -35,-71 -35,-81 -25.5,-86 -16,-81"/></g><g><circle fill="#F15A5A" cx="-30.6" cy="-80.5" r="1.1"/><path fill="#F15A5A" d="M-20.3-77.8c0.4 0.6 0.9 1.3 0.9 1.4l0.3 0.4l0.3-0.4l1.8-2.1l-0.7-0.3l-1.4 1.6c-0.5-0.8-1.1-1.7-1.2-1.9 l0 0c-0.1-0.1-0.2-0.2-0.3-0.2l-0.9-0.2c-0.1 0-0.3 0-0.4 0.1c0 0-0.1 0.1-0.1 0.1c-0.6 0.3-1.5 0.6-1.5 0.6l-2 0.7l-2-0.7 c0 0-1.1-0.5-1.7-0.7c0 0 0 0 0 0c-0.1-0.1-0.2-0.1-0.4-0.1l-0.9 0.2c-0.1 0-0.2 0.1-0.3 0.2l0 0c-0.1 0.2-0.7 1.1-1.2 1.9 l-1.4-1.6l-0.7 0.3l1.8 2.1l0.3 0.4l0.3-0.4c0.1-0.1 0.6-0.8 1-1.4l0.5 2.1l-1.1 2.6v0.1v0.1l0.4 2.4l-0.7 0.5h1.1l0.5-0.1 l-0.1-0.4l-0.4-2.4l1-2.4c0 0 0 0 0 0l0.9-0.2c0.1 0 0.2-0.1 0.3-0.2c0 0 0 0 0 0c0 0 0-0.2 0-0.4l-0.5-2.3l1.1 0.5 c0 0 2.2 0.6 2.2 0.6l0.1-0.3l0.1 0.3c0 0 2.2-0.7 2.2-0.7l0.9-0.4l-0.4 1.9l0 0l-3.5 2.6c0 0 0.9 0.4 2.1 0.7l-0.9 2.4l0 0v0.1 l0 0l0-0.1l-0.6 0.4l-0.6-0.4v0l0 0l-0.9-2.7l0 0l0 0l-1.1-2c-0.1 0.1-0.2 0.2-0.4 0.3l-0.2 0.1l1.1 2l0 0l0 0.1l0 0l1 2.7l0.1 0.2 h0.3h0.7h0.6h0.7h0.3l0.1-0.2l0.9-2.6c0.9 0.2 1.9 0.3 2.9 0.1l0 0.1l-0.4 2.4l-0.1 0.4l0.4 0.1h1.1l-0.7-0.5l0.4-2.4V-73v0 c0.2-0.1 0.5-0.1 0.7-0.2c-0.6-0.8-1.2-1.4-1.6-1.9l-0.2-0.6L-20.3-77.8z M-26.4-71L-26.4-71l0.1 0.1L-26.4-71z M-24.6-70.9 L-24.6-70.9L-24.6-70.9L-24.6-70.9z"/><circle fill="#F15A5A" cx="-20.3" cy="-80.5" r="1.1"/></g><g><circle fill="#F15A5A" cx="-26.6" cy="-33.9" r="1.1"/><path fill="#F15A5A" d="M-16.3-31.2c0.4 0.6 0.9 1.3 0.9 1.4l0.3 0.4l0.3-0.4l1.8-2.1l-0.7-0.3l-1.4 1.6c-0.5-0.8-1.1-1.7-1.2-1.9 l0 0c-0.1-0.1-0.2-0.2-0.3-0.2l-0.9-0.2c-0.1 0-0.3 0-0.4 0.1c0 0-0.1 0.1-0.1 0.1c-0.6 0.3-1.5 0.6-1.5 0.6l-2 0.7l-2-0.7 c0 0-1.1-0.5-1.7-0.7c0 0 0 0 0 0c-0.1-0.1-0.2-0.1-0.4-0.1l-0.9 0.2c-0.1 0-0.2 0.1-0.3 0.2l0 0c-0.1 0.2-0.7 1.1-1.2 1.9 l-1.4-1.6l-0.7 0.3l1.8 2.1l0.3 0.4l0.3-0.4c0.1-0.1 0.6-0.8 1-1.4l0.5 2.1l-1.1 2.6v0.1v0.1l0.4 2.4l-0.7 0.5h1.1l0.5-0.1 l-0.1-0.4l-0.4-2.4l1-2.4c0 0 0 0 0 0l0.9-0.2c0.1 0 0.2-0.1 0.3-0.2c0 0 0 0 0 0c0 0 0-0.2 0-0.4l-0.5-2.3l1.1 0.5 c0 0 2.2 0.6 2.2 0.6l0.1-0.3l0.1 0.3c0 0 2.2-0.7 2.2-0.7l0.9-0.4l-0.4 1.9l0 0l-3.5 2.6c0 0 0.9 0.4 2.1 0.7l-0.9 2.4l0 0v0.1 l0 0l0-0.1l-0.6 0.4l-0.6-0.4v0l0 0l-0.9-2.7l0 0l0 0l-1.1-2c-0.1 0.1-0.2 0.2-0.4 0.3l-0.2 0.1l1.1 2l0 0l0 0.1l0 0l1 2.7l0.1 0.2 h0.3h0.7h0.6h0.7h0.3l0.1-0.2l0.9-2.6c0.9 0.2 1.9 0.3 2.9 0.1l0 0.1l-0.4 2.4l-0.1 0.4l0.4 0.1h1.1l-0.7-0.5l0.4-2.4v-0.1v0 c0.2-0.1 0.5-0.1 0.7-0.2c-0.6-0.8-1.2-1.4-1.6-1.9l-0.2-0.6L-16.3-31.2z M-22.4-24.4L-22.4-24.4l0.1 0.1L-22.4-24.4z M-20.6-24.3 L-20.6-24.3L-20.6-24.3L-20.6-24.3z"/><circle fill="#F15A5A" cx="-16.3" cy="-33.9" r="1.1"/></g><g><path fill="#955BA5" d="M9.5-101.5c-0.4 0-0.4-0.2-0.6-0.8c-0.3-0.9-0.8-2.7-1.3-3.5c-1.4-2.7-2.3-3.7-3.9-4.7l-7.2-4.2v-14.5 l13-7.3l13 7.3v14.5l-7.2 4.2c-1.6 0.9-2.4 1.9-3.9 4.7c-0.5 0.9-1 2.7-1.3 3.6C9.9-101.7 9.9-101.5 9.5-101.5 C9.5-101.5 9.5-101.5 9.5-101.5z"/><path fill="#FFFFFF" d="M9.5-136l12.5 7v14l-6.9 4c-1.8 1-2.6 2.1-4.1 4.9c-0.6 1.2-1.5 4.1-1.5 4.1l0 0h0l0 0c0 0-0.9-2.9-1.5-4.1 c-1.4-2.7-2.3-3.8-4.1-4.9l-6.9-4v-14L9.5-136 M9.5-137.1L9-136.9l-12.5 7l-0.5 0.3v0.6v14v0.6l0.5 0.3l6.9 4 c1.5 0.9 2.3 1.8 3.7 4.5c0.4 0.8 1 2.7 1.3 3.5c0.2 0.6 0.4 1.2 1.1 1.2c0 0 0 0 0 0c0.7 0 0.9-0.6 1.1-1.2 c0.3-0.8 0.8-2.6 1.3-3.5c1.4-2.7 2.1-3.6 3.7-4.5l6.9-4l0.5-0.3v-0.6v-14v-0.6l-0.5-0.3l-12.5-7L9.5-137.1L9.5-137.1z"/></g><g><polygon fill="#FFFFFF" points="19,-117 9.5,-112 0,-117 0,-127 9.5,-132 19,-127"/></g><g><path fill="#955BA5" d="M12-128c-1.2 0-2.2 1.5-2.2 3c0 1.1 0.6 2 1.4 2.3l-0.2 6.2c0 0.6 0.5 1.1 1.1 1.1c0.6 0 1.1-0.5 1.1-1.1 l-0.2-6.2c0.8-0.3 1.3-1.1 1.3-2.3h0C14.2-126.5 13.2-128 12-128z"/><path fill="#955BA5" d="M7.6-125H6.9v-2.8H6.2v2.8H5.5v-2.8H4.8v3.5v0.7c0 0.4 0.5 0.7 0.9 0.7h0l-0.2 6.3c0 0.6 0.5 1.1 1.1 1.1 c0.6 0 1.1-0.5 1.1-1.1l-0.2-6.3c0.4 0 0.9-0.3 0.9-0.7v-0.7v-3.5H7.6V-125z"/></g><g><path fill="#955BA5" d="M9.5-55.5c-0.4 0-0.4-0.2-0.6-0.8C8.6-57.2 8-59 7.6-59.9c-1.4-2.7-2.3-3.7-3.9-4.7l-7.2-4.2v-14.5l13-7.3 l13 7.3v14.5l-7.2 4.2c-1.6 0.9-2.4 1.9-3.9 4.7c-0.5 0.9-1 2.7-1.3 3.6C9.9-55.7 9.9-55.5 9.5-55.5C9.5-55.5 9.5-55.5 9.5-55.5z"/><path fill="#FFFFFF" d="M9.5-90L22-83v14l-6.9 4c-1.8 1-2.6 2.1-4.1 4.9C10.4-58.9 9.5-56 9.5-56l0 0h0l0 0c0 0-0.9-2.9-1.5-4.1 C6.6-62.8 5.7-64 3.9-65L-3-69v-14L9.5-90 M9.5-91.1L9-90.9l-12.5 7L-4-83.5v0.6v14v0.6l0.5 0.3l6.9 4c1.5 0.9 2.3 1.8 3.7 4.5 c0.4 0.8 1 2.7 1.3 3.5C8.6-55.6 8.8-55 9.5-55c0 0 0 0 0 0c0.7 0 0.9-0.6 1.1-1.2c0.3-0.8 0.8-2.6 1.3-3.5 c1.4-2.7 2.1-3.6 3.7-4.5l6.9-4l0.5-0.3V-69v-14v-0.6l-0.5-0.3l-12.5-7L9.5-91.1L9.5-91.1z"/></g><g><polygon fill="#FFFFFF" points="19,-71 9.5,-66 0,-71 0,-81 9.5,-86 19,-81"/></g><g><path fill="#955BA5" d="M12-82c-1.2 0-2.2 1.5-2.2 3c0 1.1 0.6 2 1.4 2.3l-0.2 6.2c0 0.6 0.5 1.1 1.1 1.1c0.6 0 1.1-0.5 1.1-1.1 l-0.2-6.2c0.8-0.3 1.3-1.1 1.3-2.3h0C14.2-80.5 13.2-82 12-82z"/><path fill="#955BA5" d="M7.6-79H6.9v-2.8H6.2v2.8H5.5v-2.8H4.8v3.5v0.7c0 0.4 0.5 0.7 0.9 0.7h0l-0.2 6.3c0 0.6 0.5 1.1 1.1 1.1 c0.6 0 1.1-0.5 1.1-1.1l-0.2-6.3c0.4 0 0.9-0.3 0.9-0.7v-0.7v-3.5H7.6V-79z"/></g><g><path fill="#955BA5" d="M17-35c-1.2 0-2.2 1.5-2.2 3c0 1.1 0.6 2 1.4 2.3l-0.2 6.2c0 0.6 0.5 1.1 1.1 1.1c0.6 0 1.1-0.5 1.1-1.1 l-0.2-6.2c0.8-0.3 1.3-1.1 1.3-2.3h0C19.2-33.5 18.2-35 17-35z"/><path fill="#955BA5" d="M12.6-32h-0.7v-2.8h-0.7v2.8h-0.7v-2.8H9.8v3.5v0.7c0 0.4 0.5 0.7 0.9 0.7h0l-0.2 6.3 c0 0.6 0.5 1.1 1.1 1.1c0.6 0 1.1-0.5 1.1-1.1l-0.2-6.3c0.4 0 0.9-0.3 0.9-0.7v-0.7v-3.5h-0.7V-32z"/></g><g><path fill="#6756B2" d="M13.7 36.2c0 0-0.6-1.9-1.2-3.1c-1.4-2.6-3.1-4.1-3.2-4.1c-0.4-0.3-1.1-0.8-1.6-1l-6.1-3.1 C1 24.6 0.5 23.7 0.5 23V9c0-0.7 0.5-1.6 1.2-1.9L13.4 1c0.3-0.2 0.7-0.2 1.1-0.2s0.8 0.1 1.1 0.2l11.7 6.1C28 7.5 28.5 8.3 28.5 9 v14c0 0.7-0.5 1.6-1.2 1.9L21.2 28c-0.5 0.2-1.2 0.7-1.6 1c0 0-1.8 1.5-3.2 4.1c-0.6 1.2-1.2 3.1-1.2 3.1L14.5 38L13.7 36.2z"/><path fill="#FFFFFF" d="M14.5 1.3c0.3 0 0.6 0.1 0.9 0.2l11.7 6.1C27.6 7.8 28 8.5 28 9v14c0 0.5-0.4 1.2-0.9 1.5L21 27.6 c-0.5 0.2-1.2 0.7-1.7 1.1c0 0-1.9 1.5-3.3 4.2c-0.6 1.2-1.2 3.2-1.2 3.2c-0.2 0.5-0.3 1-0.3 1s-0.1-0.4-0.3-1c0 0-0.6-1.9-1.2-3.2 c-1.4-2.7-3.3-4.2-3.3-4.2c-0.4-0.3-1.2-0.8-1.7-1.1l-6.1-3.1C1.4 24.2 1 23.5 1 23V9c0-0.6 0.4-1.2 0.9-1.5l11.7-6.1 C13.9 1.3 14.2 1.3 14.5 1.3 M14.5 0.3c-0.5 0-1 0.1-1.3 0.3L1.4 6.7C0.6 7.1 0 8.1 0 9v14c0 0.9 0.6 1.9 1.4 2.3l6.1 3.1 c0.4 0.2 1.1 0.7 1.5 1c0 0 1.7 1.4 3 3.9c0.6 1.1 1.1 3 1.1 3c0.4 1.3 0.5 1.7 1.2 1.7s0.9-0.4 1.2-1.7c0 0 0.6-1.8 1.1-3 c1.3-2.5 3-3.9 3-3.9c0.4-0.3 1.1-0.8 1.5-1l6.1-3.1c0.8-0.4 1.4-1.4 1.4-2.3V9c0-0.9-0.6-1.9-1.4-2.3L15.8 0.6 C15.5 0.4 15 0.3 14.5 0.3L14.5 0.3z"/></g><g><path fill="#FFFFFF" d="M25 21c0 0.6-0.4 1.2-0.9 1.4l-8.7 4.1c-0.5 0.2-1.3 0.2-1.8 0l-8.7-4.1C4.4 22.2 4 21.5 4 21V11 c0-0.6 0.4-1.2 0.9-1.4l8.7-4.1c0.5-0.2 1.3-0.2 1.8 0l8.7 4.1C24.6 9.8 25 10.4 25 11V21z"/></g><rect x="-196" y="-55" fill="#231F20" width="14" height="10"/><g><path fill="#9FC419" d="M-134.1 17.3c-0.4 1.8-1 3.3-2.4 4.7h4c1.4-1.4 2-2.9 2.4-4.7H-134.1z"/><path fill="#9FC419" d="M-129.2 17.3c0.4 1.8 1 3.4 2.4 4.7h0.3h3.9c-1.4-1.4-2-2.9-2.4-4.7H-129.2z"/><g><path fill="#9FC419" d="M-127.1 9.5c0 0 0 1.8 0 1.8c-0.1 0-0.2 0-0.3 0v0.3c1.3 0 2.1-0.5 2.1-1.8 C-126.2 10.2-126.4 9.8-127.1 9.5L-127.1 9.5z"/></g><g><path fill="#9FC419" d="M-129.2 11.6v-0.8c0.5-0.5 1.3 0 1.8 0V8.4c-0.7-0.4-1.2-0.6-2.1-0.3h-0.3l0 3.4L-129.2 11.6L-129.2 11.6z "/><path fill="#9FC419" d="M-129.1 12.1h-0.9c-0.9 2.1-2.7 2.8-7.1 4.3h8.9h0.9h5.2C-126.3 14.9-128.1 14.2-129.1 12.1L-129.1 12.1z"/></g></g><path fill="#6756B2" d="M12.3 21.9L10.7 23H14H15h3.2l-1.6-1.1H15v-3.3l6-6h-4.7l0.3-1.1l0.1 0c0.6 0 1.1-0.5 1.1-1.1 c0-0.4-0.3-0.8-0.6-1l0.1-0.4L16.7 9l-0.1 0.5c-0.6 0-1 0.5-1 1.1c0 0.4 0.2 0.7 0.4 0.9l-0.3 1.3H8l6 6v3.3L12.3 21.9L12.3 21.9z M14 17.6l-2.7-2.7h3.9l-0.7 2.5l0.5 0.1l0.7-2.6h2.1L15 17.6H14z"/></svg>