<svg xmlns="http://www.w3.org/2000/svg" xmlns:xlink="http://www.w3.org/1999/xlink" version="1.2" baseProfile="tiny" id="Layer_1" x="0px" y="0px" width="29px" height="38px" viewBox="0 0 29 38" xml:space="preserve"><g><path fill="#FFFFFF" d="M14.5 0c-0.494 0-0.973 0.108-1.349 0.304L1.424 6.418C0.612 6.8 0 7.9 0 8.767V23 c0 0.9 0.6 1.9 1.4 2.344l6.149 3.116c0.424 0.2 1.1 0.7 1.5 0.967c0.016 0 1.7 1.4 3 3.9 c0.594 1.1 1.1 3 1.1 2.982C13.649 37.6 13.8 38 14.5 38s0.851-0.354 1.245-1.672 c0.005-0.019 0.555-1.847 1.146-2.982c1.307-2.502 3.014-3.904 3.03-3.919c0.369-0.3 1.065-0.752 1.489-0.967l6.148-3.116 C28.381 24.9 29 23.9 29 23V8.767c0-0.916-0.612-1.926-1.424-2.349L15.849 0.304C15.473 0.1 15 0 14.5 0"/><path fill="#F89C1C" d="M14.787 36.042c0 0 0.574-1.923 1.219-3.159c1.417-2.713 3.284-4.232 3.284-4.232 c0.428-0.347 1.179-0.834 1.669-1.083l6.149-3.115c0.49-0.248 0.893-0.902 0.893-1.452V8.767c0-0.55-0.4-1.208-0.888-1.462 L15.387 1.191C15.143 1.1 14.8 1 14.5 1c-0.322 0-0.643 0.064-0.887 0.191L1.887 7.305C1.399 7.6 1 8.2 1 8.767V23 c0 0.6 0.4 1.2 0.9 1.452l6.15 3.115c0.49 0.2 1.2 0.7 1.7 1.083c0 0 1.9 1.5 3.3 4.2 c0.645 1.2 1.2 3.2 1.2 3.159C14.371 36.6 14.5 37 14.5 37S14.629 36.6 14.8 36"/><path fill="#F89C1C" d="M14.5 38L14.5 38z"/><path fill="#FFFFFF" d="M25 21c0 0.55-0.406 1.193-0.903 1.43l-8.693 4.141c-0.498 0.236-1.309 0.236-1.806 0L4.903 22.4 C4.406 22.2 4 21.6 4 21V10.728c0-0.55 0.406-1.193 0.903-1.43l8.694-4.14c0.497-0.236 1.309-0.236 1.8 0l8.693 4.1 C24.594 9.5 25 10.2 25 10.728V21z"/><path fill-rule="evenodd" fill="#F89C1C" d="M17.544 18.47c1.725-1.992 4.955-5.933 4.391-6.422 c-0.578-0.502-4.216 3.045-6.06 4.895L17.544 18.47z"/><path fill-rule="evenodd" fill="#F89C1C" d="M15.588 17.23c-0.407 0.412-0.658 0.673-0.658 0.673l1.708 1.6 c0 0 0.248-0.278 0.639-0.726L15.588 17.23z"/><path fill-rule="evenodd" fill="#F89C1C" d="M11.251 22.932c5.636 0.6 4.782-2.843 4.782-2.843l-1.701-1.562 c0 0-1.183 0.076-1.518 0.977C12.134 21.3 12.5 23.1 11.3 22.9"/><path fill="#F89C1C" d="M7.152 12.151l1.589 4.221c-0.03-0.083-0.514-0.178-0.771-0.082c-0.922 0.347-1.054 1.138-0.932 1.5 c0.245 0.6 0.9 1.2 1.8 0.809c0.87-0.327 0.924-1.257 0.809-1.787l-1.222-3.247l3.326-1.994l1.223 3.2 c-0.031-0.082-0.516-0.177-0.772-0.08c-0.919 0.346-1.054 1.138-0.931 1.463c0.244 0.6 0.9 1.2 1.8 0.8 c0.869-0.328 0.921-1.255 0.809-1.787l-2.078-5.519L7.152 12.151z"/></g></svg>