<svg xmlns="http://www.w3.org/2000/svg" xmlns:xlink="http://www.w3.org/1999/xlink" version="1.1" x="0px" y="0px" width="31px" height="32px" viewBox="0 0 31 32" enable-background="new 0 0 31 32" xml:space="preserve"><g><g><g><path fill="#FBC217" d="M15.5 31.872l-5.21-5.209h10.418L15.5 31.872z"/></g><g><path fill-rule="evenodd" clip-rule="evenodd" fill="#FBC217" d="M31 25.128c0 1.1-0.9 2-2 2H2c-1.1 0-2-0.9-2-2v-23 c0-1.1 0.9-2 2-2h27c1.1 0 2 0.9 2 2V25.128z"/></g><g opacity="0.9"><path fill-rule="evenodd" clip-rule="evenodd" fill="#FFFFFF" d="M28 22.128c0 1.1-0.9 2-2 2H5c-1.1 0-2-0.9-2-2v-17 c0-1.1 0.9-2 2-2h21c1.1 0 2 0.9 2 2V22.128z"/></g></g><path fill-rule="evenodd" clip-rule="evenodd" fill="#FBC217" d="M9.719 20.901c-1.716 0-3.119-1.396-3.119-3.113 c0-1.718 1.403-3.114 3.119-3.114c1.717 0 3.1 1.4 3.1 3.114C12.833 19.5 11.4 20.9 9.7 20.901z M5.894 17.8 c0 2.1 1.7 3.8 3.8 3.818c2.109 0 3.826-1.709 3.826-3.818c0-2.11-1.717-3.819-3.826-3.819 C7.611 14 5.9 15.7 5.9 17.788z M20.979 20.937c-1.717 0-3.121-1.396-3.121-3.113s1.404-3.112 3.121-3.112 c1.715 0 3.1 1.4 3.1 3.112S22.693 20.9 21 20.937z M17.152 17.823c0 2.1 1.7 3.8 3.8 3.8 c2.107 0 3.824-1.709 3.824-3.818c0-2.108-1.717-3.811-3.824-3.811C18.869 14 17.2 15.7 17.2 17.823z M17.16 8.5 c0.793 0 1.439-0.64 1.439-1.433s-0.646-1.433-1.439-1.433s-1.441 0.647-1.441 1.433C15.719 7.9 16.4 8.5 17.2 8.507z M17.219 12.188h2.785c0.857 0 0.857-1.455 0-1.455h-2.4l-1.578-2.465c0 0-0.334-0.422-0.975-0.422c0 0-0.523-0.066-0.901 0.4 l-3.048 3.04c-0.188 0.211-0.305 0.494-0.305 0.8c0 0.5 0.4 0.8 0.7 1.055l3.098 1.717v3.229 c0 0.5 0.3 0.8 0.7 0.836c0.458 0 0.72-0.379 0.72-0.836v-4.037c0 0 0.109-0.641-0.625-0.997l-1.688-0.938l1.928-1.905 l0.93 1.462C16.789 11.9 17 12.2 17.2 12.188z"/></g></svg>