<svg xmlns="http://www.w3.org/2000/svg" xmlns:xlink="http://www.w3.org/1999/xlink" version="1.1" id="Layer_1" x="0px" y="0px" viewBox="0 0 29 38" enable-background="new 0 0 29 38" xml:space="preserve"><path fill="#2D95BF" d="M-392.5-45.6l-12.5 7v14.1l6.9 3.9c1.8 1 2.6 2.1 4.1 4.9c0.6 1.2 1.5 4.1 1.5 4.1h0c0 0 0.9-2.9 1.5-4.1 c1.4-2.7 2.3-3.8 4.1-4.9l6.9-3.9v-14.1L-392.5-45.6z"/><polygon fill="#FFFFFF" stroke="#231F20" stroke-miterlimit="10" points="-1154.7,77.1 -1178.4,36 -1154.7,-5.1 -1107.3,-5.1 -1083.5,36 -1107.3,77.1"/><g><polygon fill="#231F20" points="-908.9,199.5 -908.9,186.1 -896.9,179.4 -884.9,186.1 -884.9,199.5 -896.9,206.2"/><path fill="#FFFFFF" d="M-896.9 179.9l11.5 6.4v12.8l-11.5 6.4l-11.5-6.4v-12.8L-896.9 179.9 M-896.9 178.8l-12.5 7v14l12.5 7 l12.5-7v-14L-896.9 178.8L-896.9 178.8z"/></g><g><polygon fill="#231F20" points="-839.9,204 -852.4,211 -864.9,204 -864.9,190 -852.4,183 -839.9,190"/></g><polygon fill="#FFFFFF" stroke="#231F20" stroke-miterlimit="10" points="-739.1,199 -751.6,205.3 -764.1,199 -764.1,186.5 -751.6,180.3 -739.1,186.5"/><path fill="#231F20" d="M-672.1-36.4l-6.4-2.4v0l0 0l0 0v0l-6.4 2.4c2 1 5.6 4 6.4 10.6c0 0 0 0.1 0 0.1c0 0 0 0 0-0.1 c0 0 0 0 0 0.1c0 0 0-0.1 0-0.1C-678.3-32.6-673.1-35.8-672.1-36.4z"/><path fill="#231F20" d="M-858 207.8c1.8 1 2.7 2.1 4.1 4.8c1.3 2.5 2 5.9 2 6.6c0-6.1 0-12.4 0-12.4h-5.1L-858 207.8z"/><path fill="#231F20" d="M-846.8 207.8c-1.8 1-2.7 2.1-4.1 4.8c-1.3 2.5-2 5.9-2 6.6c0-6.1 0-12.4 0-12.4h5.1L-846.8 207.8z"/><g><g><polygon fill="#231F20" points="-422.6,-682.3 -623,-570.1 -823.5,-682.3 -823.5,-906.8 -623,-1019 -422.6,-906.8"/></g><path fill="#231F20" d="M-549.2-636.1h-73h-1.4h-73l-15.9 15.9c28.6 16.4 42.7 34.3 65.5 77.8c10.4 19.9 18.1 43.1 23.4 63 c0 0 0.5 3.5 0.7 2.6c0.2 0.9 0.7-2.6 0.7-2.6c5.3-19.9 13-43.1 23.4-63c22.8-43.4 36.8-61.4 65.5-77.8L-549.2-636.1z"/></g><g><polygon fill="#231F20" points="202.2,-267 189.8,-260 177.2,-267 177.2,-281 189.8,-288 202.2,-281"/></g><g><polygon fill="#FFFFFF" points="-383.5,-26.5 -392.5,-21.5 -401.5,-26.5 -401.5,-36.6 -392.5,-41.7 -383.5,-36.6"/></g><path fill="#231F20" d="M194.4-264.1h-4.6h-0.1h-4.6l-1 1c1.8 1 2.7 2.1 4.1 4.8c0.7 1.2 1.1 2.7 1.5 3.9v0.3c0-0.1 0-0.1 0-0.2 c0 0.1 0 0.1 0 0.2v-0.3c0.3-1.2 0.8-2.7 1.5-3.9c1.4-2.7 2.3-3.8 4.1-4.8L194.4-264.1z"/><path fill="#231F20" d="M261.2-290l-12.5 7v14.1l6.9 3.9c1.8 1 2.6 2.1 4.1 4.9c0.6 1.2 1.5 4.1 1.5 4.1h0c0 0 0.9-2.9 1.5-4.1 c1.4-2.7 2.3-3.8 4.1-4.9l6.9-3.9V-283L261.2-290z"/><path fill="#231F20" d="M-657.5 231.5l-12.5 7v14.1l6.9 3.9c1.8 1 2.6 2.1 4.1 4.9c0.6 1.2 1.5 4.1 1.5 4.1h0c0 0 0.9-2.9 1.5-4.1 c1.4-2.7 2.3-3.8 4.1-4.9l6.9-3.9v-14.1L-657.5 231.5z"/><rect x="-288" y="-364" fill="#F15A5A" width="106" height="106"/><rect x="-412" y="-362" fill="#F89C1C" width="106" height="106"/><rect x="-653" y="-365" fill="#9FC419" width="106" height="106"/><rect x="-530" y="-365" fill="#F0C419" width="106" height="106"/><rect x="-769" y="-366" fill="#4EBA6F" width="106" height="106"/><rect x="-904" y="-369" fill="#2D95BF" width="106" height="106"/><rect x="-163" y="-363" fill="#955BA5" width="106" height="106"/><rect x="-30" y="-363" fill="#6756B2" width="106" height="106"/><path fill-rule="evenodd" clip-rule="evenodd" fill="#2D95BF" d="M-385.8-29.9c-0.5-0.2-1.2-0.8-2.2-1c0.3-0.3 0.5-0.8 0.7-1.3 c0.1-0.3 0.1-0.6 0.1-1c0-0.3 0.1-0.8 0-1c-0.2-0.9-0.8-1.1-1.5-1.1c-0.7 0-1.3 0.2-1.5 1.1c-0.1 0.3 0 0.7 0 1c0 0.4 0 0.7 0.1 1 c0.2 0.6 0.4 1 0.7 1.3c-0.3 0.1-0.6 0.2-0.9 0.3c1 0.4 1.8 1 2.3 1.3c1 0.5 1.3 1 1.5 1.3h1c0.4 0 0.7-0.4 0.7-0.7v-0.2 C-384.8-28.9-384.8-29.5-385.8-29.9z M-389.2-29.4c-0.8-0.4-1.8-1.3-3.5-1.6c0.4-0.5 0.7-1.3 1.1-2.2c0.2-0.5 0.1-1 0.1-1.6 c0-0.5 0.1-1.2 0-1.6c-0.4-1.4-1.3-1.8-2.3-1.8c-1.1 0-2 0.4-2.3 1.8c-0.1 0.4 0 1.2 0 1.6c0 0.6 0 1.1 0.2 1.6 c0.3 0.9 0.6 1.7 1.1 2.2c-1.6 0.3-2.7 1.2-3.4 1.6c-1.5 0.7-1.5 1.6-1.5 1.6v0.3c0 0.5 0.6 1.1 1.1 1.1h10c0.7 0 1.1-0.6 1.1-1.1 v-0.3C-387.6-27.8-387.6-28.6-389.2-29.4z"/><circle fill-rule="evenodd" clip-rule="evenodd" fill="#F15A29" cx="-393.8" cy="-35.6" r="2.5"/><path fill="#2D95BF" d="M-358-45.6l-12.5 7v14.1l6.9 3.9c1.8 1 2.6 2.1 4.1 4.9c0.6 1.2 1.5 4.1 1.5 4.1h0c0 0 0.9-2.9 1.5-4.1 c1.4-2.7 2.3-3.8 4.1-4.9l6.9-3.9v-14.1L-358-45.6z"/><g><polygon fill="#FFFFFF" points="-349,-26.5 -358,-21.5 -367,-26.5 -367,-36.6 -358,-41.7 -349,-36.6"/></g><circle fill-rule="evenodd" clip-rule="evenodd" fill="#2D95BF" cx="-359.2" cy="-35.6" r="2.5"/><circle fill-rule="evenodd" clip-rule="evenodd" fill="#2D95BF" cx="-359.2" cy="-30.9" r="3.6"/><g><path fill="#2D95BF" d="M-165.5-56.5c-0.4 0-0.4-0.2-0.6-0.8c-0.3-0.9-0.8-2.7-1.3-3.5c-1.4-2.7-2.3-3.7-3.9-4.7l-7.2-4.2v-14.5 l13-7.3l13 7.3v14.5l-7.2 4.2c-1.6 0.9-2.4 1.9-3.9 4.7c-0.5 0.9-1 2.7-1.3 3.6C-165.1-56.7-165.1-56.5-165.5-56.5 C-165.5-56.5-165.5-56.5-165.5-56.5z"/><path fill="#FFFFFF" d="M-165.5-91l12.5 7v14l-6.9 4c-1.8 1-2.6 2.1-4.1 4.9c-0.6 1.2-1.5 4.1-1.5 4.1l0 0h0l0 0 c0 0-0.9-2.9-1.5-4.1c-1.4-2.7-2.3-3.8-4.1-4.9l-6.9-4v-14L-165.5-91 M-165.5-92.1l-0.5 0.3l-12.5 7l-0.5 0.3v0.6v14v0.6l0.5 0.3 l6.9 4c1.5 0.9 2.3 1.8 3.7 4.5c0.4 0.8 1 2.7 1.3 3.5c0.2 0.6 0.4 1.2 1.1 1.2c0 0 0 0 0 0c0.7 0 0.9-0.6 1.1-1.2 c0.3-0.8 0.8-2.6 1.3-3.5c1.4-2.7 2.1-3.6 3.7-4.5l6.9-4l0.5-0.3V-70v-14v-0.6l-0.5-0.3l-12.5-7L-165.5-92.1L-165.5-92.1z"/></g><g><polygon fill="#FFFFFF" points="-156,-72 -165.5,-67 -175,-72 -175,-82 -165.5,-87 -156,-82"/></g><g><path fill="#2D95BF" d="M-259.5-56.5c-0.4 0-0.4-0.2-0.6-0.8c-0.3-0.9-0.8-2.7-1.3-3.5c-1.4-2.7-2.3-3.7-3.9-4.7l-7.2-4.2v-14.5 l13-7.3l13 7.3v14.5l-7.2 4.2c-1.6 0.9-2.4 1.9-3.9 4.7c-0.5 0.9-1 2.7-1.3 3.6C-259.1-56.7-259.1-56.5-259.5-56.5 C-259.5-56.5-259.5-56.5-259.5-56.5z"/><path fill="#FFFFFF" d="M-259.5-91l12.5 7v14l-6.9 4c-1.8 1-2.6 2.1-4.1 4.9c-0.6 1.2-1.5 4.1-1.5 4.1l0 0h0l0 0 c0 0-0.9-2.9-1.5-4.1c-1.4-2.7-2.3-3.8-4.1-4.9l-6.9-4v-14L-259.5-91 M-259.5-92.1l-0.5 0.3l-12.5 7l-0.5 0.3v0.6v14v0.6l0.5 0.3 l6.9 4c1.5 0.9 2.3 1.8 3.7 4.5c0.4 0.8 1 2.7 1.3 3.5c0.2 0.6 0.4 1.2 1.1 1.2c0 0 0 0 0 0c0.7 0 0.9-0.6 1.1-1.2 c0.3-0.8 0.8-2.6 1.3-3.5c1.4-2.7 2.1-3.6 3.7-4.5l6.9-4l0.5-0.3V-70v-14v-0.6l-0.5-0.3l-12.5-7L-259.5-92.1L-259.5-92.1z"/></g><g><polygon fill="#FFFFFF" points="-250,-72 -259.5,-67 -269,-72 -269,-82 -259.5,-87 -250,-82"/></g><circle fill-rule="evenodd" clip-rule="evenodd" fill="#2D95BF" cx="-256" cy="-81.5" r="2.5"/><g><path fill-rule="evenodd" clip-rule="evenodd" fill="#2D95BF" d="M-259-72.5h0.5V-73c0-0.7-0.2-1.4-0.5-2V-72.5z"/><g><path fill-rule="evenodd" clip-rule="evenodd" fill="#2D95BF" d="M-256-79c0.7 0 1.4-0.3 1.9-0.8c-0.5-0.4-1.2-0.7-1.9-0.7 s-1.3 0.3-1.9 0.7C-257.4-79.3-256.7-79-256-79z"/><path fill-rule="evenodd" clip-rule="evenodd" fill="#2D95BF" d="M-256-78c-1 0-1.9-0.4-2.5-1.1c-0.3 0.5-0.5 1-0.5 1.6v0.9 c0.9 0.9 1.5 2.2 1.5 3.6v0.5h4.5v-5c0-0.6-0.2-1.1-0.5-1.6C-254.1-78.4-255-78-256-78z"/></g></g><g><path fill-rule="evenodd" clip-rule="evenodd" fill="#2D95BF" d="M-260.7-76.6c-0.5-0.3-1.1-0.4-1.8-0.4s-1.2 0.2-1.8 0.4 c0.5 0.4 1.1 0.6 1.8 0.6S-261.2-76.2-260.7-76.6z"/><circle fill-rule="evenodd" clip-rule="evenodd" fill="#2D95BF" cx="-262.5" cy="-79" r="3"/></g><path fill="#2D95BF" d="M-289.5-91l-12.5 7v14l6.9 4c1.8 1 2.6 2.1 4.1 4.9c0.6 1.2 1.5 4.1 1.5 4.1l0 0c0 0 0.9-2.9 1.5-4.1 c1.4-2.7 2.3-3.8 4.1-4.9l6.9-4v-14L-289.5-91z"/><g><polygon fill="#FFFFFF" points="-280,-72 -289.5,-67 -299,-72 -299,-82 -289.5,-87 -280,-82"/></g><path fill-rule="evenodd" clip-rule="evenodd" fill="#2D95BF" d="M-286-80.5c-1.7 0-3 1.3-3 3v5h6v-5C-283-79.2-284.3-80.5-286-80.5 z"/><g><circle fill-rule="evenodd" clip-rule="evenodd" fill="#2D95BF" cx="-286" cy="-81.5" r="3"/><path fill="#FFFFFF" d="M-286-84c1.4 0 2.5 1.1 2.5 2.5s-1.1 2.5-2.5 2.5s-2.5-1.1-2.5-2.5S-287.4-84-286-84 M-286-85 c-1.9 0-3.5 1.6-3.5 3.5s1.6 3.5 3.5 3.5s3.5-1.6 3.5-3.5S-284.1-85-286-85L-286-85z"/></g><g><path fill-rule="evenodd" clip-rule="evenodd" fill="#2D95BF" d="M-297-68.5V-73c0-2.5 2-4.5 4.5-4.5s4.5 2 4.5 4.5v4.5H-297z"/><path fill="#FFFFFF" d="M-292.5-77c2.2 0 4 1.8 4 4v4h-8v-4C-296.5-75.2-294.7-77-292.5-77 M-292.5-78c-2.8 0-5 2.2-5 5v4v1h1h8h1 v-1v-4C-287.5-75.8-289.7-78-292.5-78L-292.5-78z"/></g><g><path fill-rule="evenodd" clip-rule="evenodd" fill="#2D95BF" d="M-292.5-75.5c-1.9 0-3.5-1.6-3.5-3.5s1.6-3.5 3.5-3.5 s3.5 1.6 3.5 3.5S-290.5-75.5-292.5-75.5z"/><path fill="#FFFFFF" d="M-292.5-82c1.7 0 3 1.3 3 3s-1.3 3-3 3s-3-1.3-3-3S-294.1-82-292.5-82 M-292.5-83c-2.2 0-4 1.8-4 4 s1.8 4 4 4s4-1.8 4-4S-290.2-83-292.5-83L-292.5-83z"/></g><path fill-rule="evenodd" clip-rule="evenodd" fill="#2D95BF" d="M-162.6-79.8c0.6 0 1.2-0.3 1.6-0.7c-0.4-0.3-1-0.6-1.6-0.6 s-1.1 0.2-1.6 0.6C-163.8-80.1-163.3-79.8-162.6-79.8z"/><circle fill-rule="evenodd" clip-rule="evenodd" fill="#2D95BF" cx="-162.6" cy="-81.9" r="2.1"/><g><path fill-rule="evenodd" clip-rule="evenodd" fill="#2D95BF" d="M-165-74h0.3v-0.7c0-0.5-0.1-0.9-0.3-1.4V-74z"/><path fill-rule="evenodd" clip-rule="evenodd" fill="#2D95BF" d="M-160.4-79.7c-0.6 0.6-1.4 0.9-2.3 0.9s-1.6-0.4-2.1-0.9 c-0.2 0.4-0.2 0.8-0.2 1.2v0.7c0.8 0.8 1.3 1.9 1.3 3.1v0.7h3.7v-4.5C-160-79-160.2-79.4-160.4-79.7z"/></g><g><g><path fill-rule="evenodd" clip-rule="evenodd" fill="#2D95BF" d="M-165.7-77.2c-0.6 0.6-1.4 0.9-2.3 0.9s-1.7-0.3-2.3-0.9 c-0.6 0.6-1 1.5-1 2.4v3.4h6.7v-3.4C-164.7-75.7-165.1-76.5-165.7-77.2z"/></g><circle fill-rule="evenodd" clip-rule="evenodd" fill="#2D95BF" cx="-168.1" cy="-79.8" r="2.5"/></g><g><path fill="#2D95BF" d="M-165.5-10.5c-0.4 0-0.4-0.2-0.6-0.8c-0.3-0.9-0.8-2.7-1.3-3.5c-1.4-2.7-2.3-3.7-3.9-4.7l-7.2-4.2v-14.5 l13-7.3l13 7.3v14.5l-7.2 4.2c-1.6 0.9-2.4 1.9-3.9 4.7c-0.5 0.9-1 2.7-1.3 3.6C-165.1-10.7-165.1-10.5-165.5-10.5 C-165.5-10.5-165.5-10.5-165.5-10.5z"/><path fill="#FFFFFF" d="M-165.5-45l12.5 7v14l-6.9 4c-1.8 1-2.6 2.1-4.1 4.9c-0.6 1.2-1.5 4.1-1.5 4.1l0 0h0l0 0 c0 0-0.9-2.9-1.5-4.1c-1.4-2.7-2.3-3.8-4.1-4.9l-6.9-4v-14L-165.5-45 M-165.5-46.1l-0.5 0.3l-12.5 7l-0.5 0.3v0.6v14v0.6l0.5 0.3 l6.9 4c1.5 0.9 2.3 1.8 3.7 4.5c0.4 0.8 1 2.7 1.3 3.5c0.2 0.6 0.4 1.2 1.1 1.2c0 0 0 0 0 0c0.7 0 0.9-0.6 1.1-1.2 c0.3-0.8 0.8-2.6 1.3-3.5c1.4-2.7 2.1-3.6 3.7-4.5l6.9-4l0.5-0.3V-24v-14v-0.6l-0.5-0.3l-12.5-7L-165.5-46.1L-165.5-46.1z"/></g><g><polygon fill="#FFFFFF" points="-156,-26 -165.5,-21 -175,-26 -175,-36 -165.5,-41 -156,-36"/></g><path fill-rule="evenodd" clip-rule="evenodd" fill="#2D95BF" d="M-162.6-33.8c0.6 0 1.2-0.3 1.6-0.7c-0.4-0.3-1-0.6-1.6-0.6 s-1.1 0.2-1.6 0.6C-163.8-34.1-163.3-33.8-162.6-33.8z"/><circle fill-rule="evenodd" clip-rule="evenodd" fill="#2D95BF" cx="-162.6" cy="-35.9" r="2.1"/><g><path fill-rule="evenodd" clip-rule="evenodd" fill="#2D95BF" d="M-165-28h0.3v-0.7c0-0.5-0.1-0.9-0.3-1.4V-28z"/><path fill-rule="evenodd" clip-rule="evenodd" fill="#2D95BF" d="M-160.4-33.7c-0.6 0.6-1.4 0.9-2.3 0.9s-1.6-0.4-2.1-0.9 c-0.2 0.4-0.2 0.8-0.2 1.2v0.7c0.8 0.8 1.3 1.9 1.3 3.1v0.7h3.7v-4.5C-160-33-160.2-33.4-160.4-33.7z"/></g><g><g><path fill-rule="evenodd" clip-rule="evenodd" fill="#2D95BF" d="M-165.7-31.2c-0.6 0.6-1.4 0.9-2.3 0.9s-1.7-0.3-2.3-0.9 c-0.6 0.6-1 1.5-1 2.4v3.4h6.7v-3.4C-164.7-29.7-165.1-30.5-165.7-31.2z"/></g><circle fill-rule="evenodd" clip-rule="evenodd" fill="#2D95BF" cx="-168.1" cy="-33.8" r="2.5"/></g><g><path fill="#2D95BF" d="M-166.3 36.2c0 0-0.6-1.9-1.2-3.1c-1.4-2.6-3.1-4.1-3.2-4.1c-0.4-0.3-1.1-0.8-1.6-1l-6.1-3.1 c-0.7-0.3-1.2-1.2-1.2-1.9V9c0-0.7 0.5-1.6 1.2-1.9l11.7-6.1c0.3-0.2 0.7-0.2 1.1-0.2s0.8 0.1 1.1 0.2l11.7 6.1 c0.6 0.3 1.2 1.2 1.2 1.9v14c0 0.7-0.5 1.6-1.2 1.9l-6.2 3.1c-0.5 0.2-1.2 0.7-1.6 1c0 0-1.8 1.5-3.2 4.1c-0.6 1.2-1.2 3.1-1.2 3.1 l-0.8 1.8L-166.3 36.2z"/><path fill="#FFFFFF" d="M-165.5 1.3c0.3 0 0.6 0.1 0.9 0.2l11.7 6.1c0.5 0.3 0.9 0.9 0.9 1.5v14c0 0.5-0.4 1.2-0.9 1.5l-6.1 3.1 c-0.5 0.2-1.2 0.7-1.7 1.1c0 0-1.9 1.5-3.3 4.2c-0.6 1.2-1.2 3.2-1.2 3.2c-0.2 0.5-0.3 1-0.3 1s-0.1-0.4-0.3-1c0 0-0.6-1.9-1.2-3.2 c-1.4-2.7-3.3-4.2-3.3-4.2c-0.4-0.3-1.2-0.8-1.7-1.1l-6.1-3.1c-0.5-0.2-0.9-0.9-0.9-1.5V9c0-0.6 0.4-1.2 0.9-1.5l11.7-6.1 C-166.1 1.3-165.8 1.3-165.5 1.3 M-165.5 0.3c-0.5 0-1 0.1-1.3 0.3l-11.7 6.1c-0.8 0.4-1.4 1.4-1.4 2.3v14c0 0.9 0.6 1.9 1.4 2.3 l6.1 3.1c0.4 0.2 1.1 0.7 1.5 1c0 0 1.7 1.4 3 3.9c0.6 1.1 1.1 3 1.1 3c0.4 1.3 0.5 1.7 1.2 1.7s0.9-0.4 1.2-1.7c0 0 0.6-1.8 1.1-3 c1.3-2.5 3-3.9 3-3.9c0.4-0.3 1.1-0.8 1.5-1l6.1-3.1c0.8-0.4 1.4-1.4 1.4-2.3V9c0-0.9-0.6-1.9-1.4-2.3l-11.7-6.1 C-164.5 0.4-165 0.3-165.5 0.3L-165.5 0.3z"/></g><g><path fill="#FFFFFF" d="M-155 21c0 0.6-0.4 1.2-0.9 1.4l-8.7 4.1c-0.5 0.2-1.3 0.2-1.8 0l-8.7-4.1c-0.5-0.2-0.9-0.9-0.9-1.4V11 c0-0.6 0.4-1.2 0.9-1.4l8.7-4.1c0.5-0.2 1.3-0.2 1.8 0l8.7 4.1c0.5 0.2 0.9 0.9 0.9 1.4V21z"/></g><circle fill-rule="evenodd" clip-rule="evenodd" fill="#2D95BF" cx="-162.8" cy="11" r="2.2"/><g><g><path fill-rule="evenodd" clip-rule="evenodd" fill="#2D95BF" d="M-166 15.9c-0.7 0.6-1.5 0.9-2.4 0.9s-1.8-0.4-2.4-0.9 c-0.7 0.6-1.1 1.5-1.1 2.5V22h7.1v-3.5C-164.9 17.5-165.4 16.6-166 15.9z"/></g><circle fill-rule="evenodd" clip-rule="evenodd" fill="#2D95BF" cx="-168.5" cy="13.2" r="2.7"/><g><g><path fill-rule="evenodd" clip-rule="evenodd" fill="#2D95BF" d="M-160.2 12.9c-0.6 0.8-1.5 1.3-2.6 1.3c-0.8 0-1.5-0.3-2.1-0.8 c0 0.6-0.2 1.2-0.6 1.8l0.1 0.1c0.9 0.9 1.4 2 1.4 3.3V19h4.9v-3.5C-159 14.4-159.5 13.5-160.2 12.9z"/></g></g></g><g><path fill="#4EBA6F" stroke="#FFFFFF" stroke-miterlimit="10" d="M-130.3 36.2c0 0-0.6-1.9-1.2-3.1c-1.4-2.6-3.1-4.1-3.2-4.1 c-0.4-0.3-1.1-0.8-1.6-1l-6.1-3.1c-0.7-0.3-1.2-1.2-1.2-1.9V9c0-0.7 0.5-1.6 1.2-1.9l11.7-6.1c0.3-0.2 0.7-0.2 1.1-0.2 s0.8 0.1 1.1 0.2l11.7 6.1c0.6 0.3 1.2 1.2 1.2 1.9v14c0 0.7-0.5 1.6-1.2 1.9l-6.2 3.1c-0.5 0.2-1.2 0.7-1.6 1c0 0-1.8 1.5-3.2 4.1 c-0.6 1.2-1.2 3.1-1.2 3.1l-0.8 1.8L-130.3 36.2z"/><path fill="#FFFFFF" d="M-129.5 1.3c0.3 0 0.6 0.1 0.9 0.2l11.7 6.1c0.5 0.3 0.9 0.9 0.9 1.5v14c0 0.5-0.4 1.2-0.9 1.5l-6.1 3.1 c-0.5 0.2-1.2 0.7-1.7 1.1c0 0-1.9 1.5-3.3 4.2c-0.6 1.2-1.2 3.2-1.2 3.2c-0.2 0.5-0.3 1-0.3 1s-0.1-0.4-0.3-1c0 0-0.6-1.9-1.2-3.2 c-1.4-2.7-3.3-4.2-3.3-4.2c-0.4-0.3-1.2-0.8-1.7-1.1l-6.1-3.1c-0.5-0.2-0.9-0.9-0.9-1.5V9c0-0.6 0.4-1.2 0.9-1.5l11.7-6.1 C-130.1 1.3-129.8 1.3-129.5 1.3 M-129.5 0.3c-0.5 0-1 0.1-1.3 0.3l-11.7 6.1c-0.8 0.4-1.4 1.4-1.4 2.3v14c0 0.9 0.6 1.9 1.4 2.3 l6.1 3.1c0.4 0.2 1.1 0.7 1.5 1c0 0 1.7 1.4 3 3.9c0.6 1.1 1.1 3 1.1 3c0.4 1.3 0.5 1.7 1.2 1.7s0.9-0.4 1.2-1.7c0 0 0.6-1.8 1.1-3 c1.3-2.5 3-3.9 3-3.9c0.4-0.3 1.1-0.8 1.5-1l6.1-3.1c0.8-0.4 1.4-1.4 1.4-2.3V9c0-0.9-0.6-1.9-1.4-2.3l-11.7-6.1 C-128.5 0.4-129 0.3-129.5 0.3L-129.5 0.3z"/></g><g><path fill="#FFFFFF" d="M-119 21c0 0.6-0.4 1.2-0.9 1.4l-8.7 4.1c-0.5 0.2-1.3 0.2-1.8 0l-8.7-4.1c-0.5-0.2-0.9-0.9-0.9-1.4V11 c0-0.6 0.4-1.2 0.9-1.4l8.7-4.1c0.5-0.2 1.3-0.2 1.8 0l8.7 4.1c0.5 0.2 0.9 0.9 0.9 1.4V21z"/></g><g><path fill="#F0C419" stroke="#FFFFFF" stroke-miterlimit="10" d="M-94.3 36.2c0 0-0.6-1.9-1.2-3.1c-1.4-2.6-3.1-4.1-3.2-4.1 c-0.4-0.3-1.1-0.8-1.6-1l-6.1-3.1c-0.7-0.3-1.2-1.2-1.2-1.9V9c0-0.7 0.5-1.6 1.2-1.9L-94.6 1c0.3-0.2 0.7-0.2 1.1-0.2 s0.8 0.1 1.1 0.2l11.7 6.1c0.6 0.3 1.2 1.2 1.2 1.9v14c0 0.7-0.5 1.6-1.2 1.9l-6.2 3.1c-0.5 0.2-1.2 0.7-1.6 1c0 0-1.8 1.5-3.2 4.1 c-0.6 1.2-1.2 3.1-1.2 3.1l-0.8 1.8L-94.3 36.2z"/><path fill="#FFFFFF" d="M-93.5 1.3c0.3 0 0.6 0.1 0.9 0.2l11.7 6.1C-80.4 7.8-80 8.5-80 9v14c0 0.5-0.4 1.2-0.9 1.5l-6.1 3.1 c-0.5 0.2-1.2 0.7-1.7 1.1c0 0-1.9 1.5-3.3 4.2c-0.6 1.2-1.2 3.2-1.2 3.2c-0.2 0.5-0.3 1-0.3 1s-0.1-0.4-0.3-1c0 0-0.6-1.9-1.2-3.2 c-1.4-2.7-3.3-4.2-3.3-4.2c-0.4-0.3-1.2-0.8-1.7-1.1l-6.1-3.1c-0.5-0.2-0.9-0.9-0.9-1.5V9c0-0.6 0.4-1.2 0.9-1.5l11.7-6.1 C-94.1 1.3-93.8 1.3-93.5 1.3 M-93.5 0.3c-0.5 0-1 0.1-1.3 0.3l-11.7 6.1c-0.8 0.4-1.4 1.4-1.4 2.3v14c0 0.9 0.6 1.9 1.4 2.3 l6.1 3.1c0.4 0.2 1.1 0.7 1.5 1c0 0 1.7 1.4 3 3.9c0.6 1.1 1.1 3 1.1 3c0.4 1.3 0.5 1.7 1.2 1.7s0.9-0.4 1.2-1.7c0 0 0.6-1.8 1.1-3 c1.3-2.5 3-3.9 3-3.9c0.4-0.3 1.1-0.8 1.5-1l6.1-3.1c0.8-0.4 1.4-1.4 1.4-2.3V9c0-0.9-0.6-1.9-1.4-2.3l-11.7-6.1 C-92.5 0.4-93 0.3-93.5 0.3L-93.5 0.3z"/></g><g><path fill="#FFFFFF" d="M-83 21c0 0.6-0.4 1.2-0.9 1.4l-8.7 4.1c-0.5 0.2-1.3 0.2-1.8 0l-8.7-4.1c-0.5-0.2-0.9-0.9-0.9-1.4V11 c0-0.6 0.4-1.2 0.9-1.4l8.7-4.1c0.5-0.2 1.3-0.2 1.8 0l8.7 4.1c0.5 0.2 0.9 0.9 0.9 1.4V21z"/></g><g><path fill="#F89C1C" stroke="#FFFFFF" stroke-miterlimit="10" d="M-58.3 36.2c0 0-0.6-1.9-1.2-3.1c-1.4-2.6-3.1-4.1-3.2-4.1 c-0.4-0.3-1.1-0.8-1.6-1l-6.1-3.1c-0.7-0.3-1.2-1.2-1.2-1.9V9c0-0.7 0.5-1.6 1.2-1.9L-58.6 1c0.3-0.2 0.7-0.2 1.1-0.2 s0.8 0.1 1.1 0.2l11.7 6.1c0.6 0.3 1.2 1.2 1.2 1.9v14c0 0.7-0.5 1.6-1.2 1.9l-6.2 3.1c-0.5 0.2-1.2 0.7-1.6 1c0 0-1.8 1.5-3.2 4.1 c-0.6 1.2-1.2 3.1-1.2 3.1l-0.8 1.8L-58.3 36.2z"/><path fill="#FFFFFF" d="M-57.5 1.3c0.3 0 0.6 0.1 0.9 0.2l11.7 6.1C-44.4 7.8-44 8.5-44 9v14c0 0.5-0.4 1.2-0.9 1.5l-6.1 3.1 c-0.5 0.2-1.2 0.7-1.7 1.1c0 0-1.9 1.5-3.3 4.2c-0.6 1.2-1.2 3.2-1.2 3.2c-0.2 0.5-0.3 1-0.3 1s-0.1-0.4-0.3-1c0 0-0.6-1.9-1.2-3.2 c-1.4-2.7-3.3-4.2-3.3-4.2c-0.4-0.3-1.2-0.8-1.7-1.1l-6.1-3.1c-0.5-0.2-0.9-0.9-0.9-1.5V9c0-0.6 0.4-1.2 0.9-1.5l11.7-6.1 C-58.1 1.3-57.8 1.3-57.5 1.3 M-57.5 0.3c-0.5 0-1 0.1-1.3 0.3l-11.7 6.1C-71.4 7.1-72 8.1-72 9v14c0 0.9 0.6 1.9 1.4 2.3l6.1 3.1 c0.4 0.2 1.1 0.7 1.5 1c0 0 1.7 1.4 3 3.9c0.6 1.1 1.1 3 1.1 3c0.4 1.3 0.5 1.7 1.2 1.7s0.9-0.4 1.2-1.7c0 0 0.6-1.8 1.1-3 c1.3-2.5 3-3.9 3-3.9c0.4-0.3 1.1-0.8 1.5-1l6.1-3.1c0.8-0.4 1.4-1.4 1.4-2.3V9c0-0.9-0.6-1.9-1.4-2.3l-11.7-6.1 C-56.5 0.4-57 0.3-57.5 0.3L-57.5 0.3z"/></g><g><path fill="#FFFFFF" d="M-47 21c0 0.6-0.4 1.2-0.9 1.4l-8.7 4.1c-0.5 0.2-1.3 0.2-1.8 0l-8.7-4.1c-0.5-0.2-0.9-0.9-0.9-1.4V11 c0-0.6 0.4-1.2 0.9-1.4l8.7-4.1c0.5-0.2 1.3-0.2 1.8 0l8.7 4.1c0.5 0.2 0.9 0.9 0.9 1.4V21z"/></g><g><path fill="#F15A5A" stroke="#FFFFFF" stroke-miterlimit="10" d="M-22.3 36.2c0 0-0.6-1.9-1.2-3.1c-1.4-2.6-3.1-4.1-3.2-4.1 c-0.4-0.3-1.1-0.8-1.6-1l-6.1-3.1c-0.7-0.3-1.2-1.2-1.2-1.9V9c0-0.7 0.5-1.6 1.2-1.9L-22.6 1c0.3-0.2 0.7-0.2 1.1-0.2 s0.8 0.1 1.1 0.2l11.7 6.1C-8 7.5-7.5 8.3-7.5 9v14c0 0.7-0.5 1.6-1.2 1.9l-6.2 3.1c-0.5 0.2-1.2 0.7-1.6 1c0 0-1.8 1.5-3.2 4.1 c-0.6 1.2-1.2 3.1-1.2 3.1l-0.8 1.8L-22.3 36.2z"/><path fill="#FFFFFF" d="M-21.5 1.3c0.3 0 0.6 0.1 0.9 0.2l11.7 6.1C-8.4 7.8-8 8.5-8 9v14c0 0.5-0.4 1.2-0.9 1.5l-6.1 3.1 c-0.5 0.2-1.2 0.7-1.7 1.1c0 0-1.9 1.5-3.3 4.2c-0.6 1.2-1.2 3.2-1.2 3.2c-0.2 0.5-0.3 1-0.3 1s-0.1-0.4-0.3-1c0 0-0.6-1.9-1.2-3.2 c-1.4-2.7-3.3-4.2-3.3-4.2c-0.4-0.3-1.2-0.8-1.7-1.1l-6.1-3.1c-0.5-0.2-0.9-0.9-0.9-1.5V9c0-0.6 0.4-1.2 0.9-1.5l11.7-6.1 C-22.1 1.3-21.8 1.3-21.5 1.3 M-21.5 0.3c-0.5 0-1 0.1-1.3 0.3l-11.7 6.1C-35.4 7.1-36 8.1-36 9v14c0 0.9 0.6 1.9 1.4 2.3l6.1 3.1 c0.4 0.2 1.1 0.7 1.5 1c0 0 1.7 1.4 3 3.9c0.6 1.1 1.1 3 1.1 3c0.4 1.3 0.5 1.7 1.2 1.7s0.9-0.4 1.2-1.7c0 0 0.6-1.8 1.1-3 c1.3-2.5 3-3.9 3-3.9c0.4-0.3 1.1-0.8 1.5-1l6.1-3.1C-7.6 24.9-7 23.9-7 23V9c0-0.9-0.6-1.9-1.4-2.3l-11.7-6.1 C-20.5 0.4-21 0.3-21.5 0.3L-21.5 0.3z"/></g><g><path fill="#FFFFFF" d="M-11 21c0 0.6-0.4 1.2-0.9 1.4l-8.7 4.1c-0.5 0.2-1.3 0.2-1.8 0l-8.7-4.1c-0.5-0.2-0.9-0.9-0.9-1.4V11 c0-0.6 0.4-1.2 0.9-1.4l8.7-4.1c0.5-0.2 1.3-0.2 1.8 0l8.7 4.1c0.5 0.2 0.9 0.9 0.9 1.4V21z"/></g><g><path fill="#955BA5" stroke="#FFFFFF" stroke-miterlimit="10" d="M13.7 36.2c0 0-0.6-1.9-1.2-3.1c-1.4-2.6-3.1-4.1-3.2-4.1 c-0.4-0.3-1.1-0.8-1.6-1l-6.1-3.1C1 24.6 0.5 23.7 0.5 23V9c0-0.7 0.5-1.6 1.2-1.9L13.4 1c0.3-0.2 0.7-0.2 1.1-0.2s0.8 0.1 1.1 0.2 l11.7 6.1C28 7.5 28.5 8.3 28.5 9v14c0 0.7-0.5 1.6-1.2 1.9L21.2 28c-0.5 0.2-1.2 0.7-1.6 1c0 0-1.8 1.5-3.2 4.1 c-0.6 1.2-1.2 3.1-1.2 3.1L14.5 38L13.7 36.2z"/><path fill="#FFFFFF" d="M14.5 1.3c0.3 0 0.6 0.1 0.9 0.2l11.7 6.1C27.6 7.8 28 8.5 28 9v14c0 0.5-0.4 1.2-0.9 1.5L21 27.6 c-0.5 0.2-1.2 0.7-1.7 1.1c0 0-1.9 1.5-3.3 4.2c-0.6 1.2-1.2 3.2-1.2 3.2c-0.2 0.5-0.3 1-0.3 1s-0.1-0.4-0.3-1c0 0-0.6-1.9-1.2-3.2 c-1.4-2.7-3.3-4.2-3.3-4.2c-0.4-0.3-1.2-0.8-1.7-1.1l-6.1-3.1C1.4 24.2 1 23.5 1 23V9c0-0.6 0.4-1.2 0.9-1.5l11.7-6.1 C13.9 1.3 14.2 1.3 14.5 1.3 M14.5 0.3c-0.5 0-1 0.1-1.3 0.3L1.4 6.7C0.6 7.1 0 8.1 0 9v14c0 0.9 0.6 1.9 1.4 2.3l6.1 3.1 c0.4 0.2 1.1 0.7 1.5 1c0 0 1.7 1.4 3 3.9c0.6 1.1 1.1 3 1.1 3c0.4 1.3 0.5 1.7 1.2 1.7s0.9-0.4 1.2-1.7c0 0 0.6-1.8 1.1-3 c1.3-2.5 3-3.9 3-3.9c0.4-0.3 1.1-0.8 1.5-1l6.1-3.1c0.8-0.4 1.4-1.4 1.4-2.3V9c0-0.9-0.6-1.9-1.4-2.3L15.8 0.6 C15.5 0.4 15 0.3 14.5 0.3L14.5 0.3z"/></g><g><path fill="#FFFFFF" d="M25 21c0 0.6-0.4 1.2-0.9 1.4l-8.7 4.1c-0.5 0.2-1.3 0.2-1.8 0l-8.7-4.1C4.4 22.2 4 21.5 4 21V11 c0-0.6 0.4-1.2 0.9-1.4l8.7-4.1c0.5-0.2 1.3-0.2 1.8 0l8.7 4.1C24.6 9.8 25 10.4 25 11V21z"/></g><g><path fill="#2D95BF" d="M-334.3 36.2c0 0-0.6-1.9-1.2-3.1c-1.4-2.6-3.1-4.1-3.2-4.1c-0.4-0.3-1.1-0.8-1.6-1l-6.1-3.1 c-0.7-0.3-1.2-1.2-1.2-1.9V9c0-0.7 0.5-1.6 1.2-1.9l11.7-6.1c0.3-0.2 0.7-0.2 1.1-0.2s0.8 0.1 1.1 0.2l11.7 6.1 c0.6 0.3 1.2 1.2 1.2 1.9v14c0 0.7-0.5 1.6-1.2 1.9l-6.2 3.1c-0.5 0.2-1.2 0.7-1.6 1c0 0-1.8 1.5-3.2 4.1c-0.6 1.2-1.2 3.1-1.2 3.1 l-0.8 2.6L-334.3 36.2z"/><path fill="#FFFFFF" d="M-333.5 1.3c0.3 0 0.6 0.1 0.9 0.2l11.7 6.1c0.5 0.3 0.9 0.9 0.9 1.5v14c0 0.5-0.4 1.2-0.9 1.5l-6.1 3.1 c-0.5 0.2-1.2 0.7-1.7 1.1c0 0-1.9 1.5-3.3 4.2c-0.6 1.2-1.2 3.2-1.2 3.2c-0.2 0.5-0.3 1-0.3 1s-0.1-0.4-0.3-1c0 0-0.6-1.9-1.2-3.2 c-1.4-2.7-3.3-4.2-3.3-4.2c-0.4-0.3-1.2-0.8-1.7-1.1l-6.1-3.1c-0.5-0.2-0.9-0.9-0.9-1.5V9c0-0.6 0.4-1.2 0.9-1.5l11.7-6.1 C-334.1 1.3-333.8 1.3-333.5 1.3 M-333.5 0.3c-0.5 0-1 0.1-1.3 0.3l-11.7 6.1c-0.8 0.4-1.4 1.4-1.4 2.3v14c0 0.9 0.6 1.9 1.4 2.3 l6.1 3.1c0.4 0.2 1.1 0.7 1.5 1c0 0 1.7 1.4 3 3.9c0.6 1.1 1.1 3 1.1 3c0.4 1.3 0.5 1.7 1.2 1.7s0.9-0.4 1.2-1.7c0 0 0.6-1.8 1.1-3 c1.3-2.5 3-3.9 3-3.9c0.4-0.3 1.1-0.8 1.5-1l6.1-3.1c0.8-0.4 1.4-1.4 1.4-2.3V9c0-0.9-0.6-1.9-1.4-2.3l-11.7-6.1 C-332.5 0.4-333 0.3-333.5 0.3L-333.5 0.3z"/></g><g><path fill="#FFFFFF" d="M-323 21c0 0.6-0.4 1.2-0.9 1.4l-8.7 4.1c-0.5 0.2-1.3 0.2-1.8 0l-8.7-4.1c-0.5-0.2-0.9-0.9-0.9-1.4V11 c0-0.6 0.4-1.2 0.9-1.4l8.7-4.1c0.5-0.2 1.3-0.2 1.8 0l8.7 4.1c0.5 0.2 0.9 0.9 0.9 1.4V21z"/></g><path fill-rule="evenodd" clip-rule="evenodd" fill="#2D95BF" d="M-330.8 13.2c0.7 0 1.2-0.3 1.6-0.7c-0.5-0.4-1-0.6-1.6-0.6 s-1.2 0.2-1.6 0.6C-332 12.9-331.4 13.2-330.8 13.2z"/><circle fill-rule="evenodd" clip-rule="evenodd" fill="#2D95BF" cx="-330.8" cy="11" r="2.2"/><g><g><path fill-rule="evenodd" clip-rule="evenodd" fill="#2D95BF" d="M-334 15.9c-0.7 0.6-1.5 0.9-2.4 0.9c-0.9 0-1.8-0.4-2.4-0.9 c-0.7 0.6-1.1 1.5-1.1 2.5V22h7.1v-3.5C-332.9 17.5-333.4 16.6-334 15.9z"/></g><circle fill-rule="evenodd" clip-rule="evenodd" fill="#2D95BF" cx="-336.5" cy="13.2" r="2.7"/><g><g><path fill-rule="evenodd" clip-rule="evenodd" fill="#2D95BF" d="M-328.2 12.9c-0.6 0.8-1.5 1.3-2.6 1.3c-0.8 0-1.5-0.3-2.1-0.8 c0 0.6-0.2 1.2-0.6 1.8l0.1 0.1c0.9 0.9 1.4 2 1.4 3.3V19h4.9v-3.5C-327 14.4-327.5 13.5-328.2 12.9z"/></g></g></g><g><path fill="#2D95BF" d="M1090-477.5c-0.5-0.3-1.3-0.3-1.8 0L643-245.4c-0.5 0.3-0.9 0.9-0.9 1.5v526.5c0 0.6 0.4 1.2 0.9 1.5 l260.9 132.2c0.5 0.2 1.2 0.7 1.7 1.1c0 0 86.8 70.6 133.7 160.4c21.4 40.9 49.6 135.4 49.6 135.4c0.2 0.5 0.3 1 0.3 1 c0 0 0.1-0.4 0.3-1c0 0 28.2-94.4 49.6-135.4c46.9-89.8 133.7-160.4 133.7-160.4c0.4-0.3 1.2-0.8 1.7-1.1L1535.2 284 c0.5-0.2 0.9-0.9 0.9-1.5v-526.5c0-0.6-0.4-1.2-0.9-1.5L1090-477.5z"/></g><g><path fill="#FFFFFF" d="M1436.8 216.3c0 0.5-0.4 1.2-0.9 1.4L1090 382.5c-0.5 0.2-1.3 0.2-1.8 0L742.4 217.8 c-0.5-0.2-0.9-0.9-0.9-1.4V-179c0-0.6 0.4-1.2 0.9-1.4l345.9-164.7c0.5-0.2 1.3-0.2 1.8 0l345.9 164.7c0.5 0.2 0.9 0.9 0.9 1.4 V216.3z"/></g><path fill-rule="evenodd" clip-rule="evenodd" fill="#2D95BF" d="M1179.9-75.3c21.7 0 40.9-9.6 54.3-24.6 c-15-11.9-33.7-19.3-54.3-19.3s-39.3 7.4-54.3 19.3C1138.9-84.9 1158.2-75.3 1179.9-75.3z"/><circle fill-rule="evenodd" clip-rule="evenodd" fill="#2D95BF" cx="1179.9" cy="-148.5" r="73.2"/><g><g><path fill-rule="evenodd" clip-rule="evenodd" fill="#2D95BF" d="M1071.9 15.9c-21.6 19.2-49.8 31.2-80.9 31.2 c-31.1 0-59.3-12-80.9-31.2c-22.2 21.3-36.2 51.1-36.2 84.3v117.1H1108V100.3C1108 67.1 1094.1 37.2 1071.9 15.9z"/></g><path fill-rule="evenodd" clip-rule="evenodd" fill="#2D95BF" d="M991-163.1c-48.5 0-87.8 39.3-87.8 87.8s39.3 87.8 87.8 87.8 c48.5 0 87.8-39.3 87.8-87.8S1039.5-163.1 991-163.1z"/><g><g><path fill-rule="evenodd" clip-rule="evenodd" fill="#2D95BF" d="M1264.4-84.8c-19.4 25.7-49.9 42.6-84.5 42.6 c-26.4 0-50.1-10.2-68.7-26.2c-1.2 21.4-7.7 41.3-18.7 58.3l2.3 2.2c29.9 28.7 46.4 67.1 46.4 108.2V118h163.2V2.1 C1304.4-32.7 1288.7-63.5 1264.4-84.8z"/></g></g></g><g><path fill="#2D95BF" d="M-295.5 38c-0.4 0-0.4-0.4-0.6-1.1c-0.3-0.9-0.8-2.8-1.3-3.7c-1.4-2.7-2.5-3.8-4.1-4.7l-8.4-4.2V7.7l14-7.3 l14 7.3v16.6l-8 4.2c-1.6 0.9-2.3 1.9-3.7 4.6c-0.5 0.9-1 2.9-1.2 3.8C-295.1 37.5-295.1 38-295.5 38C-295.5 38-295.5 38-295.5 38z "/><path fill="#FFFFFF" d="M-295.5 1l13.5 7v16l-7.9 4c-1.8 1-2.6 2.1-4.1 4.9c-0.6 1.2-1.5 4.1-1.5 4.1h0h0h0c0 0-0.9-2.9-1.5-4.1 c-1.4-2.7-2.3-3.8-4.1-4.9l-7.9-4V8L-295.5 1 M-295.5-0.1l-0.5 0.2l-13.5 7l-0.5 0.3V8v16v0.6l0.5 0.3l7.9 4 c1.5 0.9 2.3 1.8 3.7 4.4c0.4 0.8 1 2.7 1.3 3.5c0.2 0.6 0.4 1.2 1.1 1.2c0 0 0 0 0 0c0.7 0 0.9-0.6 1.1-1.2 c0.3-0.8 0.8-2.6 1.3-3.5c1.4-2.6 2.1-3.6 3.7-4.4l7.9-4l0.5-0.3V24V8V7.4l-0.5-0.3l-13.5-7L-295.5-0.1L-295.5-0.1z"/></g><g><polygon fill="#FFFFFF" points="-285,22 -295.5,27 -306,22 -306,10 -295.5,5 -285,10"/></g><path fill-rule="evenodd" clip-rule="evenodd" fill="#2D95BF" d="M-292.8 13.2c0.7 0 1.2-0.3 1.6-0.7c-0.5-0.4-1-0.6-1.6-0.6 s-1.2 0.2-1.6 0.6C-294 12.9-293.4 13.2-292.8 13.2z"/><circle fill-rule="evenodd" clip-rule="evenodd" fill="#2D95BF" cx="-292.8" cy="11" r="2.2"/><g><g><path fill-rule="evenodd" clip-rule="evenodd" fill="#2D95BF" d="M-296 15.9c-0.7 0.6-1.5 0.9-2.4 0.9c-0.9 0-1.8-0.4-2.4-0.9 c-0.7 0.6-1.1 1.5-1.1 2.5V22h7.1v-3.5C-294.9 17.5-295.4 16.6-296 15.9z"/></g><circle fill-rule="evenodd" clip-rule="evenodd" fill="#2D95BF" cx="-298.5" cy="13.2" r="2.7"/><g><g><path fill-rule="evenodd" clip-rule="evenodd" fill="#2D95BF" d="M-290.2 12.9c-0.6 0.8-1.5 1.3-2.6 1.3c-0.8 0-1.5-0.3-2.1-0.8 c0 0.6-0.2 1.2-0.6 1.8l0.1 0.1c0.9 0.9 1.4 2 1.4 3.3V19h4.9v-3.5C-289 14.4-289.5 13.5-290.2 12.9z"/></g></g></g><g><path fill-rule="evenodd" clip-rule="evenodd" fill="#2D95BF" d="M-252.5 19.5v-4c0-2.2 1.8-4 4-4s4 1.8 4 4v4H-252.5z"/><path fill="#FFFFFF" d="M-248.5 12c1.9 0 3.5 1.6 3.5 3.5V19h-7v-3.5C-252 13.6-250.4 12-248.5 12 M-248.5 11c-2.5 0-4.5 2-4.5 4.5 V19v1h1h7h1v-1v-3.5C-244 13-246 11-248.5 11L-248.5 11z"/></g><path fill-rule="evenodd" clip-rule="evenodd" fill="#2D95BF" d="M-248.8 13.2c0.7 0 1.2-0.3 1.6-0.7c-0.5-0.4-1-0.6-1.6-0.6 c-0.6 0-1.2 0.2-1.6 0.6C-250 12.9-249.4 13.2-248.8 13.2z"/><circle fill-rule="evenodd" clip-rule="evenodd" fill="#2D95BF" cx="-248.8" cy="11" r="2.2"/><g><circle fill-rule="evenodd" clip-rule="evenodd" fill="#2BB673" cx="-248.8" cy="11" r="2.7"/><path fill="#FFFFFF" d="M-248.8 8.7c1.2 0 2.2 1 2.2 2.2c0 1.2-1 2.2-2.2 2.2s-2.2-1-2.2-2.2C-251 9.7-250 8.7-248.8 8.7 M-248.8 7.7c-1.8 0-3.2 1.4-3.2 3.2c0 1.8 1.4 3.2 3.2 3.2s3.2-1.4 3.2-3.2C-245.5 9.2-247 7.7-248.8 7.7L-248.8 7.7z"/></g><g><g><path fill-rule="evenodd" clip-rule="evenodd" fill="#2D95BF" d="M-252 15.9c-0.7 0.6-1.5 0.9-2.4 0.9s-1.8-0.4-2.4-0.9 c-0.7 0.6-1.1 1.5-1.1 2.5V22h7.1v-3.5C-250.9 17.5-251.4 16.6-252 15.9z"/></g><circle fill-rule="evenodd" clip-rule="evenodd" fill="#2D95BF" cx="-254.5" cy="13.2" r="2.7"/></g><g><path fill-rule="evenodd" clip-rule="evenodd" fill="#2D95BF" d="M-259.5-68.1l1-0.5V-73c0-1.2-0.5-2.3-1.4-3c-0.7 0.6-1.6 1-2.6 1 s-1.9-0.4-2.6-1c-0.8 0.7-1.4 1.8-1.4 3v1.2L-259.5-68.1L-259.5-68.1z"/></g><g><path fill="#4EBA6F" d="M-130.5-56.5c-0.4 0-0.4-0.2-0.6-0.8c-0.3-0.9-0.8-2.7-1.3-3.5c-1.4-2.7-2.3-3.7-3.9-4.7l-7.2-4.2v-14.5 l13-7.3l13 7.3v14.5l-7.2 4.2c-1.6 0.9-2.4 1.9-3.9 4.7c-0.5 0.9-1 2.7-1.3 3.6C-130.1-56.7-130.1-56.5-130.5-56.5 C-130.5-56.5-130.5-56.5-130.5-56.5z"/><path fill="#FFFFFF" d="M-130.5-91l12.5 7v14l-6.9 4c-1.8 1-2.6 2.1-4.1 4.9c-0.6 1.2-1.5 4.1-1.5 4.1l0 0h0l0 0 c0 0-0.9-2.9-1.5-4.1c-1.4-2.7-2.3-3.8-4.1-4.9l-6.9-4v-14L-130.5-91 M-130.5-92.1l-0.5 0.3l-12.5 7l-0.5 0.3v0.6v14v0.6l0.5 0.3 l6.9 4c1.5 0.9 2.3 1.8 3.7 4.5c0.4 0.8 1 2.7 1.3 3.5c0.2 0.6 0.4 1.2 1.1 1.2c0 0 0 0 0 0c0.7 0 0.9-0.6 1.1-1.2 c0.3-0.8 0.8-2.6 1.3-3.5c1.4-2.7 2.1-3.6 3.7-4.5l6.9-4l0.5-0.3V-70v-14v-0.6l-0.5-0.3l-12.5-7L-130.5-92.1L-130.5-92.1z"/></g><g><polygon fill="#FFFFFF" points="-121,-72 -130.5,-67 -140,-72 -140,-82 -130.5,-87 -121,-82"/></g><g><path fill="#F0C419" d="M-95.5-56.5c-0.4 0-0.4-0.2-0.6-0.8c-0.3-0.9-0.8-2.7-1.3-3.5c-1.4-2.7-2.3-3.7-3.9-4.7l-7.2-4.2v-14.5 l13-7.3l13 7.3v14.5l-7.2 4.2c-1.6 0.9-2.4 1.9-3.9 4.7c-0.5 0.9-1 2.7-1.3 3.6C-95.1-56.7-95.1-56.5-95.5-56.5 C-95.5-56.5-95.5-56.5-95.5-56.5z"/><path fill="#FFFFFF" d="M-95.5-91l12.5 7v14l-6.9 4c-1.8 1-2.6 2.1-4.1 4.9c-0.6 1.2-1.5 4.1-1.5 4.1l0 0h0l0 0 c0 0-0.9-2.9-1.5-4.1c-1.4-2.7-2.3-3.8-4.1-4.9l-6.9-4v-14L-95.5-91 M-95.5-92.1l-0.5 0.3l-12.5 7l-0.5 0.3v0.6v14v0.6l0.5 0.3 l6.9 4c1.5 0.9 2.3 1.8 3.7 4.5c0.4 0.8 1 2.7 1.3 3.5c0.2 0.6 0.4 1.2 1.1 1.2c0 0 0 0 0 0c0.7 0 0.9-0.6 1.1-1.2 c0.3-0.8 0.8-2.6 1.3-3.5c1.4-2.7 2.1-3.6 3.7-4.5l6.9-4l0.5-0.3V-70v-14v-0.6l-0.5-0.3l-12.5-7L-95.5-92.1L-95.5-92.1z"/></g><g><polygon fill="#FFFFFF" points="-86,-72 -95.5,-67 -105,-72 -105,-82 -95.5,-87 -86,-82"/></g><path fill-rule="evenodd" clip-rule="evenodd" fill="#4EBA6F" d="M-124.3-73.2c-1.7 0-4.3 0.1-5.6 0.9v-0.4v-6.5 c0-0.6 1-1.8 5.6-1.8V-73.2z M-136.7-81.1c0.5 0 5.4 0.5 5.6 1.6c0 0.1 0 0.1 0 0.2v6.5v0.4c-1.4-0.8-3.9-0.9-5.6-0.9V-81.1z M-130.5-79.5c0-2.3-5.3-2.5-7.5-2.5v0.9v8.4v0.7h0.8h0.5v1c1.9 0 5.6-0.5 5.6 0.9h1.3c0-1.5 3.7-0.9 5.6-0.9v-1h1.1l0.2 0.1V-82 C-125.3-82-130.5-81.7-130.5-79.5z"/><g><path fill="#4EBA6F" d="M-130.5-10.5c-0.4 0-0.4-0.2-0.6-0.8c-0.3-0.9-0.8-2.7-1.3-3.5c-1.4-2.7-2.3-3.7-3.9-4.7l-7.2-4.2v-14.5 l13-7.3l13 7.3v14.5l-7.2 4.2c-1.6 0.9-2.4 1.9-3.9 4.7c-0.5 0.9-1 2.7-1.3 3.6C-130.1-10.7-130.1-10.5-130.5-10.5 C-130.5-10.5-130.5-10.5-130.5-10.5z"/><path fill="#FFFFFF" d="M-130.5-45l12.5 7v14l-6.9 4c-1.8 1-2.6 2.1-4.1 4.9c-0.6 1.2-1.5 4.1-1.5 4.1l0 0h0l0 0 c0 0-0.9-2.9-1.5-4.1c-1.4-2.7-2.3-3.8-4.1-4.9l-6.9-4v-14L-130.5-45 M-130.5-46.1l-0.5 0.3l-12.5 7l-0.5 0.3v0.6v14v0.6l0.5 0.3 l6.9 4c1.5 0.9 2.3 1.8 3.7 4.5c0.4 0.8 1 2.7 1.3 3.5c0.2 0.6 0.4 1.2 1.1 1.2c0 0 0 0 0 0c0.7 0 0.9-0.6 1.1-1.2 c0.3-0.8 0.8-2.6 1.3-3.5c1.4-2.7 2.1-3.6 3.7-4.5l6.9-4l0.5-0.3V-24v-14v-0.6l-0.5-0.3l-12.5-7L-130.5-46.1L-130.5-46.1z"/></g><g><polygon fill="#FFFFFF" points="-121,-26 -130.5,-21 -140,-26 -140,-36 -130.5,-41 -121,-36"/></g><path fill-rule="evenodd" clip-rule="evenodd" fill="#4EBA6F" d="M-124.3-27.2c-1.7 0-4.3 0.1-5.6 0.9v-0.4v-6.5 c0-0.6 1-1.8 5.6-1.8V-27.2z M-136.7-35.1c0.5 0 5.4 0.5 5.6 1.6c0 0.1 0 0.1 0 0.2v6.5v0.4c-1.4-0.8-3.9-0.9-5.6-0.9V-35.1z M-130.5-33.5c0-2.3-5.3-2.5-7.5-2.5v0.9v8.4v0.7h0.8h0.5v1c1.9 0 5.6-0.5 5.6 0.9h1.3c0-1.5 3.7-0.9 5.6-0.9v-1h1.1l0.2 0.1V-36 C-125.3-36-130.5-35.7-130.5-33.5z"/><path fill-rule="evenodd" clip-rule="evenodd" fill="#4EBA6F" d="M-123.3 18.9c-1.7 0-4.3 0.1-5.6 0.9v-0.4v-6.5 c0-0.6 1-1.8 5.6-1.8V18.9z M-135.7 11.1c0.5 0 5.4 0.5 5.6 1.6c0 0.1 0 0.1 0 0.2v6.5v0.4c-1.4-0.8-3.9-0.9-5.6-0.9V11.1z M-129.5 12.7c0-2.3-5.3-2.5-7.5-2.5V11v8.4v0.7h0.8h0.5v1c1.9 0 5.6-0.5 5.6 0.9h1.3c0-1.5 3.7-0.9 5.6-0.9v-1h1.1l0.2 0.1V10.1 C-124.3 10.1-129.5 10.4-129.5 12.7z"/><g><path fill="#9FC419" d="M-130.3 81.2c0 0-0.6-1.9-1.2-3.1c-1.4-2.6-3.1-4.1-3.2-4.1c-0.4-0.3-1.1-0.8-1.6-1l-6.1-3.1 c-0.7-0.3-1.2-1.2-1.2-1.9V54c0-0.7 0.5-1.6 1.2-1.9l11.7-6.1c0.3-0.2 0.7-0.2 1.1-0.2s0.8 0.1 1.1 0.2l11.7 6.1 c0.6 0.3 1.2 1.2 1.2 1.9v14c0 0.7-0.5 1.6-1.2 1.9l-6.2 3.1c-0.5 0.2-1.2 0.7-1.6 1c0 0-1.8 1.5-3.2 4.1c-0.6 1.2-1.2 3.1-1.2 3.1 l-0.8 1.8L-130.3 81.2z"/><path fill="#FFFFFF" d="M-129.5 46.3c0.3 0 0.6 0.1 0.9 0.2l11.7 6.1c0.5 0.3 0.9 0.9 0.9 1.5v14c0 0.5-0.4 1.2-0.9 1.5l-6.1 3.1 c-0.5 0.2-1.2 0.7-1.7 1.1c0 0-1.9 1.5-3.3 4.2c-0.6 1.2-1.2 3.2-1.2 3.2c-0.2 0.5-0.3 1-0.3 1s-0.1-0.4-0.3-1c0 0-0.6-1.9-1.2-3.2 c-1.4-2.7-3.3-4.2-3.3-4.2c-0.4-0.3-1.2-0.8-1.7-1.1l-6.1-3.1c-0.5-0.2-0.9-0.9-0.9-1.5V54c0-0.6 0.4-1.2 0.9-1.5l11.7-6.1 C-130.1 46.3-129.8 46.3-129.5 46.3 M-129.5 45.3c-0.5 0-1 0.1-1.3 0.3l-11.7 6.1c-0.8 0.4-1.4 1.4-1.4 2.3v14 c0 0.9 0.6 1.9 1.4 2.3l6.1 3.1c0.4 0.2 1.1 0.7 1.5 1c0 0 1.7 1.4 3 3.9c0.6 1.1 1.1 3 1.1 3c0.4 1.3 0.5 1.7 1.2 1.7 s0.9-0.4 1.2-1.7c0 0 0.6-1.8 1.1-3c1.3-2.5 3-3.9 3-3.9c0.4-0.3 1.1-0.8 1.5-1l6.1-3.1c0.8-0.4 1.4-1.4 1.4-2.3V54 c0-0.9-0.6-1.9-1.4-2.3l-11.7-6.1C-128.5 45.4-129 45.3-129.5 45.3L-129.5 45.3z"/></g><g><path fill="#FFFFFF" d="M-119 66c0 0.5-0.4 1.2-0.9 1.4l-8.7 4.1c-0.5 0.2-1.3 0.2-1.8 0l-8.7-4.1c-0.5-0.2-0.9-0.9-0.9-1.4V56 c0-0.5 0.4-1.2 0.9-1.4l8.7-4.1c0.5-0.2 1.3-0.2 1.8 0l8.7 4.1c0.5 0.2 0.9 0.9 0.9 1.4V66z"/></g><path fill-rule="evenodd" clip-rule="evenodd" fill="#F0C419" d="M-100-72.2c-1.4 0-2.5-1.1-2.5-2.5c0-1.4 1.1-2.5 2.5-2.5 c1.4 0 2.5 1.1 2.5 2.5C-97.5-73.3-98.6-72.2-100-72.2z M-103-74.7c0 1.7 1.4 3 3 3c1.7 0 3-1.4 3-3c0-1.7-1.4-3-3-3 C-101.7-77.7-103-76.4-103-74.7z M-91.1-72.2c-1.4 0-2.5-1.1-2.5-2.5s1.1-2.5 2.5-2.5c1.4 0 2.5 1.1 2.5 2.5S-89.7-72.2-91.1-72.2z M-94.1-74.7c0 1.7 1.4 3 3 3c1.7 0 3-1.4 3-3c0-1.7-1.4-3-3-3C-92.8-77.7-94.1-76.4-94.1-74.7z M-94.1-82.1c0.6 0 1.1-0.5 1.1-1.1 s-0.5-1.1-1.1-1.1c-0.6 0-1.1 0.5-1.1 1.1C-95.3-82.6-94.7-82.1-94.1-82.1z M-94.1-79.2h2.2c0.7 0 0.7-1.2 0-1.2h-1.9l-1.3-2 c0 0-0.3-0.3-0.8-0.3c0 0-0.4-0.1-0.7 0.3l-2.4 2.4c-0.1 0.2-0.2 0.4-0.2 0.6c0 0.4 0.3 0.7 0.6 0.8l2.5 1.4v2.6 c0 0.4 0.2 0.7 0.6 0.7c0.4 0 0.6-0.3 0.6-0.7v-3.2c0 0 0.1-0.5-0.5-0.8l-1.3-0.7l1.5-1.5l0.7 1.2C-94.4-79.4-94.2-79.1-94.1-79.2z"/><g><path fill="#F0C419" d="M-95.5-10.5c-0.4 0-0.4-0.2-0.6-0.8c-0.3-0.9-0.8-2.7-1.3-3.5c-1.4-2.7-2.3-3.7-3.9-4.7l-7.2-4.2v-14.5 l13-7.3l13 7.3v14.5l-7.2 4.2c-1.6 0.9-2.4 1.9-3.9 4.7c-0.5 0.9-1 2.7-1.3 3.6C-95.1-10.7-95.1-10.5-95.5-10.5 C-95.5-10.5-95.5-10.5-95.5-10.5z"/><path fill="#FFFFFF" d="M-95.5-45l12.5 7v14l-6.9 4c-1.8 1-2.6 2.1-4.1 4.9c-0.6 1.2-1.5 4.1-1.5 4.1l0 0h0l0 0 c0 0-0.9-2.9-1.5-4.1c-1.4-2.7-2.3-3.8-4.1-4.9l-6.9-4v-14L-95.5-45 M-95.5-46.1l-0.5 0.3l-12.5 7l-0.5 0.3v0.6v14v0.6l0.5 0.3 l6.9 4c1.5 0.9 2.3 1.8 3.7 4.5c0.4 0.8 1 2.7 1.3 3.5c0.2 0.6 0.4 1.2 1.1 1.2c0 0 0 0 0 0c0.7 0 0.9-0.6 1.1-1.2 c0.3-0.8 0.8-2.6 1.3-3.5c1.4-2.7 2.1-3.6 3.7-4.5l6.9-4l0.5-0.3V-24v-14v-0.6l-0.5-0.3l-12.5-7L-95.5-46.1L-95.5-46.1z"/></g><g><polygon fill="#FFFFFF" points="-86,-26 -95.5,-21 -105,-26 -105,-36 -95.5,-41 -86,-36"/></g><path fill-rule="evenodd" clip-rule="evenodd" fill="#F0C419" d="M-100-26.2c-1.4 0-2.5-1.1-2.5-2.5s1.1-2.5 2.5-2.5 c1.4 0 2.5 1.1 2.5 2.5S-98.6-26.2-100-26.2z M-103-28.7c0 1.7 1.4 3 3 3c1.7 0 3-1.4 3-3s-1.4-3-3-3C-101.7-31.7-103-30.4-103-28.7 z M-91.1-26.2c-1.4 0-2.5-1.1-2.5-2.5s1.1-2.5 2.5-2.5c1.4 0 2.5 1.1 2.5 2.5S-89.7-26.2-91.1-26.2z M-94.1-28.7c0 1.7 1.4 3 3 3 c1.7 0 3-1.4 3-3c0-1.7-1.4-3-3-3C-92.8-31.7-94.1-30.4-94.1-28.7z M-94.1-36.1c0.6 0 1.1-0.5 1.1-1.1s-0.5-1.1-1.1-1.1 c-0.6 0-1.1 0.5-1.1 1.1C-95.3-36.6-94.7-36.1-94.1-36.1z M-94.1-33.2h2.2c0.7 0 0.7-1.2 0-1.2h-1.9l-1.3-2c0 0-0.3-0.3-0.8-0.3 c0 0-0.4-0.1-0.7 0.3l-2.4 2.4c-0.1 0.2-0.2 0.4-0.2 0.6c0 0.4 0.3 0.7 0.6 0.8l2.5 1.4v2.6c0 0.4 0.2 0.7 0.6 0.7 c0.4 0 0.6-0.3 0.6-0.7v-3.2c0 0 0.1-0.5-0.5-0.8l-1.3-0.7l1.5-1.5l0.7 1.2C-94.4-33.4-94.2-33.1-94.1-33.2z"/><path fill-rule="evenodd" clip-rule="evenodd" fill="#F0C419" d="M-98 21.4c-1.4 0-2.5-1.1-2.5-2.5c0-1.4 1.1-2.5 2.5-2.5 c1.4 0 2.5 1.1 2.5 2.5C-95.5 20.3-96.6 21.4-98 21.4z M-101 18.9c0 1.7 1.4 3 3 3c1.7 0 3-1.4 3-3c0-1.7-1.4-3-3-3 C-99.6 15.9-101 17.3-101 18.9z M-89 21.4c-1.4 0-2.5-1.1-2.5-2.5c0-1.4 1.1-2.5 2.5-2.5c1.4 0 2.5 1.1 2.5 2.5 C-86.6 20.3-87.7 21.4-89 21.4z M-92.1 19c0 1.7 1.4 3 3 3c1.7 0 3-1.4 3-3c0-1.7-1.4-3-3-3C-90.7 15.9-92.1 17.3-92.1 19z M-92.1 11.6c0.6 0 1.1-0.5 1.1-1.1c0-0.6-0.5-1.1-1.1-1.1c-0.6 0-1.1 0.5-1.1 1.1C-93.2 11.1-92.7 11.6-92.1 11.6z M-92 14.5h2.2 c0.7 0 0.7-1.2 0-1.2h-1.9l-1.3-2c0 0-0.3-0.3-0.8-0.3c0 0-0.4-0.1-0.7 0.3l-2.4 2.4c-0.1 0.2-0.2 0.4-0.2 0.6 c0 0.4 0.3 0.7 0.6 0.8l2.5 1.4v2.6c0 0.4 0.2 0.7 0.6 0.7c0.4 0 0.6-0.3 0.6-0.7v-3.2c0 0 0.1-0.5-0.5-0.8l-1.3-0.7l1.5-1.5 l0.7 1.2C-92.4 14.3-92.2 14.5-92 14.5z"/><g><path fill="#F89C1C" d="M-60.5-56.5c-0.4 0-0.4-0.2-0.6-0.8c-0.3-0.9-0.8-2.7-1.3-3.5c-1.4-2.7-2.3-3.7-3.9-4.7l-7.2-4.2v-14.5 l13-7.3l13 7.3v14.5l-7.2 4.2c-1.6 0.9-2.4 1.9-3.9 4.7c-0.5 0.9-1 2.7-1.3 3.6C-60.1-56.7-60.1-56.5-60.5-56.5 C-60.5-56.5-60.5-56.5-60.5-56.5z"/><path fill="#FFFFFF" d="M-60.5-91l12.5 7v14l-6.9 4c-1.8 1-2.6 2.1-4.1 4.9c-0.6 1.2-1.5 4.1-1.5 4.1l0 0h0l0 0 c0 0-0.9-2.9-1.5-4.1c-1.4-2.7-2.3-3.8-4.1-4.9l-6.9-4v-14L-60.5-91 M-60.5-92.1l-0.5 0.3l-12.5 7l-0.5 0.3v0.6v14v0.6l0.5 0.3 l6.9 4c1.5 0.9 2.3 1.8 3.7 4.5c0.4 0.8 1 2.7 1.3 3.5c0.2 0.6 0.4 1.2 1.1 1.2c0 0 0 0 0 0c0.7 0 0.9-0.6 1.1-1.2 c0.3-0.8 0.8-2.6 1.3-3.5c1.4-2.7 2.1-3.6 3.7-4.5l6.9-4l0.5-0.3V-70v-14v-0.6l-0.5-0.3l-12.5-7L-60.5-92.1L-60.5-92.1z"/></g><g><polygon fill="#FFFFFF" points="-51,-72 -60.5,-67 -70,-72 -70,-82 -60.5,-87 -51,-82"/></g><g><g><path fill-rule="evenodd" clip-rule="evenodd" fill="#F89C1C" d="M-57.1-74.5c1.7-2 5-5.9 4.4-6.4c-0.6-0.5-4.2 3-6.1 4.9 L-57.1-74.5z"/><path fill-rule="evenodd" clip-rule="evenodd" fill="#F89C1C" d="M-59.1-75.7c-0.4 0.4-0.7 0.7-0.7 0.7l1.7 1.6 c0 0 0.2-0.3 0.6-0.7L-59.1-75.7z"/></g><path fill-rule="evenodd" clip-rule="evenodd" fill="#F89C1C" d="M-63.4-70c5.6 0.6 4.8-2.8 4.8-2.8l-1.7-1.6c0 0-1.2 0.1-1.5 1 C-62.5-71.6-62.1-69.9-63.4-70z"/></g><path fill="#F89C1C" d="M-67.5-80.8l1.6 4.2c0-0.1-0.5-0.2-0.8-0.1c-0.9 0.3-1.1 1.1-0.9 1.5c0.2 0.6 0.9 1.2 1.8 0.8 c0.9-0.3 0.9-1.3 0.8-1.8l-1.2-3.2l3.3-2l1.2 3.2c0-0.1-0.5-0.2-0.8-0.1c-0.9 0.3-1.1 1.1-0.9 1.5c0.2 0.6 0.9 1.2 1.8 0.8 c0.9-0.3 0.9-1.3 0.8-1.8l-2.1-5.5L-67.5-80.8z"/><g><path fill="#F89C1C" d="M-60.5-10.5c-0.4 0-0.4-0.2-0.6-0.8c-0.3-0.9-0.8-2.7-1.3-3.5c-1.4-2.7-2.3-3.7-3.9-4.7l-7.2-4.2v-14.5 l13-7.3l13 7.3v14.5l-7.2 4.2c-1.6 0.9-2.4 1.9-3.9 4.7c-0.5 0.9-1 2.7-1.3 3.6C-60.1-10.7-60.1-10.5-60.5-10.5 C-60.5-10.5-60.5-10.5-60.5-10.5z"/><path fill="#FFFFFF" d="M-60.5-45l12.5 7v14l-6.9 4c-1.8 1-2.6 2.1-4.1 4.9c-0.6 1.2-1.5 4.1-1.5 4.1l0 0h0l0 0 c0 0-0.9-2.9-1.5-4.1c-1.4-2.7-2.3-3.8-4.1-4.9l-6.9-4v-14L-60.5-45 M-60.5-46.1l-0.5 0.3l-12.5 7l-0.5 0.3v0.6v14v0.6l0.5 0.3 l6.9 4c1.5 0.9 2.3 1.8 3.7 4.5c0.4 0.8 1 2.7 1.3 3.5c0.2 0.6 0.4 1.2 1.1 1.2c0 0 0 0 0 0c0.7 0 0.9-0.6 1.1-1.2 c0.3-0.8 0.8-2.6 1.3-3.5c1.4-2.7 2.1-3.6 3.7-4.5l6.9-4l0.5-0.3V-24v-14v-0.6l-0.5-0.3l-12.5-7L-60.5-46.1L-60.5-46.1z"/></g><g><polygon fill="#FFFFFF" points="-51,-26 -60.5,-21 -70,-26 -70,-36 -60.5,-41 -51,-36"/></g><g><g><g><path fill-rule="evenodd" clip-rule="evenodd" fill="#F89C1C" d="M-57.1-28.5c1.7-2 5-5.9 4.4-6.4c-0.6-0.5-4.2 3-6.1 4.9 L-57.1-28.5z"/><path fill-rule="evenodd" clip-rule="evenodd" fill="#F89C1C" d="M-59.1-29.7c-0.4 0.4-0.7 0.7-0.7 0.7l1.7 1.6 c0 0 0.2-0.3 0.6-0.7L-59.1-29.7z"/></g><path fill-rule="evenodd" clip-rule="evenodd" fill="#F89C1C" d="M-63.4-24c5.6 0.6 4.8-2.8 4.8-2.8l-1.7-1.6c0 0-1.2 0.1-1.5 1 C-62.5-25.6-62.1-23.9-63.4-24z"/></g><path fill="#F89C1C" d="M-67.5-34.8l1.6 4.2c0-0.1-0.5-0.2-0.8-0.1c-0.9 0.3-1.1 1.1-0.9 1.5c0.2 0.6 0.9 1.2 1.8 0.8 c0.9-0.3 0.9-1.3 0.8-1.8l-1.2-3.2l3.3-2l1.2 3.2c0-0.1-0.5-0.2-0.8-0.1c-0.9 0.3-1.1 1.1-0.9 1.5c0.2 0.6 0.9 1.2 1.8 0.8 c0.9-0.3 0.9-1.3 0.8-1.8l-2.1-5.5L-67.5-34.8z"/></g><g><g><g><path fill-rule="evenodd" clip-rule="evenodd" fill="#F89C1C" d="M-54.5 18.5c1.7-2 5-5.9 4.4-6.4c-0.6-0.5-4.2 3-6.1 4.9 L-54.5 18.5z"/><path fill-rule="evenodd" clip-rule="evenodd" fill="#F89C1C" d="M-56.4 17.2c-0.4 0.4-0.7 0.7-0.7 0.7l1.7 1.6 c0 0 0.2-0.3 0.6-0.7L-56.4 17.2z"/></g><path fill-rule="evenodd" clip-rule="evenodd" fill="#F89C1C" d="M-60.7 22.9c5.6 0.6 4.8-2.8 4.8-2.8l-1.7-1.6c0 0-1.2 0.1-1.5 1 C-59.9 21.3-59.5 23.1-60.7 22.9z"/></g><path fill="#F89C1C" d="M-64.8 12.2l1.6 4.2c0-0.1-0.5-0.2-0.8-0.1c-0.9 0.3-1.1 1.1-0.9 1.5c0.2 0.6 0.9 1.2 1.8 0.8 c0.9-0.3 0.9-1.3 0.8-1.8l-1.2-3.2l3.3-2l1.2 3.2c0-0.1-0.5-0.2-0.8-0.1c-0.9 0.3-1.1 1.1-0.9 1.5c0.2 0.6 0.9 1.2 1.8 0.8 c0.9-0.3 0.9-1.3 0.8-1.8l-2.1-5.5L-64.8 12.2z"/></g><g><path fill="#F15A5A" d="M-25.5-56.5c-0.4 0-0.4-0.2-0.6-0.8c-0.3-0.9-0.8-2.7-1.3-3.5c-1.4-2.7-2.3-3.7-3.9-4.7l-7.2-4.2v-14.5 l13-7.3l13 7.3v14.5l-7.2 4.2c-1.6 0.9-2.4 1.9-3.9 4.7c-0.5 0.9-1 2.7-1.3 3.6C-25.1-56.7-25.1-56.5-25.5-56.5 C-25.5-56.5-25.5-56.5-25.5-56.5z"/><path fill="#FFFFFF" d="M-25.5-91l12.5 7v14l-6.9 4c-1.8 1-2.6 2.1-4.1 4.9c-0.6 1.2-1.5 4.1-1.5 4.1l0 0h0l0 0 c0 0-0.9-2.9-1.5-4.1c-1.4-2.7-2.3-3.8-4.1-4.9l-6.9-4v-14L-25.5-91 M-25.5-92.1l-0.5 0.3l-12.5 7l-0.5 0.3v0.6v14v0.6l0.5 0.3 l6.9 4c1.5 0.9 2.3 1.8 3.7 4.5c0.4 0.8 1 2.7 1.3 3.5c0.2 0.6 0.4 1.2 1.1 1.2c0 0 0 0 0 0c0.7 0 0.9-0.6 1.1-1.2 c0.3-0.8 0.8-2.6 1.3-3.5c1.4-2.7 2.1-3.6 3.7-4.5l6.9-4l0.5-0.3V-70v-14v-0.6l-0.5-0.3l-12.5-7L-25.5-92.1L-25.5-92.1z"/></g><g><polygon fill="#FFFFFF" points="-16,-72 -25.5,-67 -35,-72 -35,-82 -25.5,-87 -16,-82"/></g><g><circle fill="#F15A5A" cx="-30.6" cy="-81.5" r="1.1"/><path fill="#F15A5A" d="M-20.3-78.8c0.4 0.6 0.9 1.3 0.9 1.4l0.3 0.4l0.3-0.4l1.8-2.1l-0.7-0.3l-1.4 1.6c-0.5-0.8-1.1-1.7-1.2-1.9 l0 0c-0.1-0.1-0.2-0.2-0.3-0.2l-0.9-0.2c-0.1 0-0.3 0-0.4 0.1c0 0-0.1 0.1-0.1 0.1c-0.6 0.3-1.5 0.6-1.5 0.6l-2 0.7l-2-0.7 c0 0-1.1-0.5-1.7-0.7c0 0 0 0 0 0c-0.1-0.1-0.2-0.1-0.4-0.1l-0.9 0.2c-0.1 0-0.2 0.1-0.3 0.2l0 0c-0.1 0.2-0.7 1.1-1.2 1.9 l-1.4-1.6l-0.7 0.3l1.8 2.1l0.3 0.4l0.3-0.4c0.1-0.1 0.6-0.8 1-1.4l0.5 2.1l-1.1 2.6v0.1v0.1l0.4 2.4l-0.7 0.5h1.1l0.5-0.1 l-0.1-0.4l-0.4-2.4l1-2.4c0 0 0 0 0 0l0.9-0.2c0.1 0 0.2-0.1 0.3-0.2c0 0 0 0 0 0c0 0 0-0.2 0-0.4l-0.5-2.3l1.1 0.5 c0 0 2.2 0.6 2.2 0.6l0.1-0.3l0.1 0.3c0 0 2.2-0.7 2.2-0.7l0.9-0.4l-0.4 1.9l0 0l-3.5 2.6c0 0 0.9 0.4 2.1 0.7l-0.9 2.4l0 0v0.1 l0 0l0-0.1l-0.6 0.4l-0.6-0.4v0l0 0l-0.9-2.7l0 0l0 0l-1.1-2c-0.1 0.1-0.2 0.2-0.4 0.3l-0.2 0.1l1.1 2l0 0l0 0.1l0 0l1 2.7l0.1 0.2 h0.3h0.7h0.6h0.7h0.3l0.1-0.2l0.9-2.6c0.9 0.2 1.9 0.3 2.9 0.1l0 0.1l-0.4 2.4l-0.1 0.4l0.4 0.1h1.1l-0.7-0.5l0.4-2.4V-74v0 c0.2-0.1 0.5-0.1 0.7-0.2c-0.6-0.8-1.2-1.4-1.6-1.9l-0.2-0.6L-20.3-78.8z M-26.4-72L-26.4-72l0.1 0.1L-26.4-72z M-24.6-71.9 L-24.6-71.9L-24.6-71.9L-24.6-71.9z"/><circle fill="#F15A5A" cx="-20.3" cy="-81.5" r="1.1"/></g><g><path fill="#F15A5A" d="M-25.5-10.5c-0.4 0-0.4-0.2-0.6-0.8c-0.3-0.9-0.8-2.7-1.3-3.5c-1.4-2.7-2.3-3.7-3.9-4.7l-7.2-4.2v-14.5 l13-7.3l13 7.3v14.5l-7.2 4.2c-1.6 0.9-2.4 1.9-3.9 4.7c-0.5 0.9-1 2.7-1.3 3.6C-25.1-10.7-25.1-10.5-25.5-10.5 C-25.5-10.5-25.5-10.5-25.5-10.5z"/><path fill="#FFFFFF" d="M-25.5-45l12.5 7v14l-6.9 4c-1.8 1-2.6 2.1-4.1 4.9c-0.6 1.2-1.5 4.1-1.5 4.1l0 0h0l0 0 c0 0-0.9-2.9-1.5-4.1c-1.4-2.7-2.3-3.8-4.1-4.9l-6.9-4v-14L-25.5-45 M-25.5-46.1l-0.5 0.3l-12.5 7l-0.5 0.3v0.6v14v0.6l0.5 0.3 l6.9 4c1.5 0.9 2.3 1.8 3.7 4.5c0.4 0.8 1 2.7 1.3 3.5c0.2 0.6 0.4 1.2 1.1 1.2c0 0 0 0 0 0c0.7 0 0.9-0.6 1.1-1.2 c0.3-0.8 0.8-2.6 1.3-3.5c1.4-2.7 2.1-3.6 3.7-4.5l6.9-4l0.5-0.3V-24v-14v-0.6l-0.5-0.3l-12.5-7L-25.5-46.1L-25.5-46.1z"/></g><g><polygon fill="#FFFFFF" points="-16,-26 -25.5,-21 -35,-26 -35,-36 -25.5,-41 -16,-36"/></g><g><circle fill="#F15A5A" cx="-30.6" cy="-35.5" r="1.1"/><path fill="#F15A5A" d="M-20.3-32.8c0.4 0.6 0.9 1.3 0.9 1.4l0.3 0.4l0.3-0.4l1.8-2.1l-0.7-0.3l-1.4 1.6c-0.5-0.8-1.1-1.7-1.2-1.9 l0 0c-0.1-0.1-0.2-0.2-0.3-0.2l-0.9-0.2c-0.1 0-0.3 0-0.4 0.1c0 0-0.1 0.1-0.1 0.1c-0.6 0.3-1.5 0.6-1.5 0.6l-2 0.7l-2-0.7 c0 0-1.1-0.5-1.7-0.7c0 0 0 0 0 0c-0.1-0.1-0.2-0.1-0.4-0.1l-0.9 0.2c-0.1 0-0.2 0.1-0.3 0.2l0 0c-0.1 0.2-0.7 1.1-1.2 1.9 l-1.4-1.6l-0.7 0.3l1.8 2.1l0.3 0.4l0.3-0.4c0.1-0.1 0.6-0.8 1-1.4l0.5 2.1l-1.1 2.6v0.1v0.1l0.4 2.4l-0.7 0.5h1.1l0.5-0.1 l-0.1-0.4l-0.4-2.4l1-2.4c0 0 0 0 0 0l0.9-0.2c0.1 0 0.2-0.1 0.3-0.2c0 0 0 0 0 0c0 0 0-0.2 0-0.4l-0.5-2.3l1.1 0.5 c0 0 2.2 0.6 2.2 0.6l0.1-0.3l0.1 0.3c0 0 2.2-0.7 2.2-0.7l0.9-0.4l-0.4 1.9l0 0l-3.5 2.6c0 0 0.9 0.4 2.1 0.7l-0.9 2.4l0 0v0.1 l0 0l0-0.1l-0.6 0.4l-0.6-0.4v0l0 0l-0.9-2.7l0 0l0 0l-1.1-2c-0.1 0.1-0.2 0.2-0.4 0.3l-0.2 0.1l1.1 2l0 0l0 0.1l0 0l1 2.7l0.1 0.2 h0.3h0.7h0.6h0.7h0.3l0.1-0.2l0.9-2.6c0.9 0.2 1.9 0.3 2.9 0.1l0 0.1l-0.4 2.4l-0.1 0.4l0.4 0.1h1.1l-0.7-0.5l0.4-2.4V-28v0 c0.2-0.1 0.5-0.1 0.7-0.2c-0.6-0.8-1.2-1.4-1.6-1.9l-0.2-0.6L-20.3-32.8z M-26.4-26L-26.4-26l0.1 0.1L-26.4-26z M-24.6-25.9 L-24.6-25.9L-24.6-25.9L-24.6-25.9z"/><circle fill="#F15A5A" cx="-20.3" cy="-35.5" r="1.1"/></g><g><circle fill="#F15A5A" cx="-26.6" cy="11.1" r="1.1"/><path fill="#F15A5A" d="M-16.3 13.8c0.4 0.6 0.9 1.3 0.9 1.4l0.3 0.4l0.3-0.4l1.8-2.1l-0.7-0.3l-1.4 1.6c-0.5-0.8-1.1-1.7-1.2-1.9 l0 0c-0.1-0.1-0.2-0.2-0.3-0.2l-0.9-0.2c-0.1 0-0.3 0-0.4 0.1c0 0-0.1 0.1-0.1 0.1c-0.6 0.3-1.5 0.6-1.5 0.6l-2 0.7l-2-0.7 c0 0-1.1-0.5-1.7-0.7c0 0 0 0 0 0c-0.1-0.1-0.2-0.1-0.4-0.1l-0.9 0.2c-0.1 0-0.2 0.1-0.3 0.2l0 0c-0.1 0.2-0.7 1.1-1.2 1.9 l-1.4-1.6l-0.7 0.3l1.8 2.1l0.3 0.4l0.3-0.4c0.1-0.1 0.6-0.8 1-1.4l0.5 2.1l-1.1 2.6v0.1v0.1l0.4 2.4l-0.7 0.5h1.1l0.5-0.1 l-0.1-0.4l-0.4-2.4l1-2.4c0 0 0 0 0 0l0.9-0.2c0.1 0 0.2-0.1 0.3-0.2c0 0 0 0 0 0c0 0 0-0.2 0-0.4l-0.5-2.3l1.1 0.5 c0 0 2.2 0.6 2.2 0.6l0.1-0.3l0.1 0.3c0 0 2.2-0.7 2.2-0.7l0.9-0.4l-0.4 1.9l0 0l-3.5 2.6c0 0 0.9 0.4 2.1 0.7l-0.9 2.4l0 0v0.1 l0 0l0-0.1l-0.6 0.4l-0.6-0.4v0l0 0l-0.9-2.7l0 0l0 0l-1.1-2c-0.1 0.1-0.2 0.2-0.4 0.3l-0.2 0.1l1.1 2l0 0l0 0.1l0 0l1 2.7l0.1 0.2 h0.3h0.7h0.6h0.7h0.3l0.1-0.2l0.9-2.6c0.9 0.2 1.9 0.3 2.9 0.1l0 0.1l-0.4 2.4l-0.1 0.4l0.4 0.1h1.1l-0.7-0.5l0.4-2.4v-0.1v0 c0.2-0.1 0.5-0.1 0.7-0.2c-0.6-0.8-1.2-1.4-1.6-1.9l-0.2-0.6L-16.3 13.8z M-22.4 20.6L-22.4 20.6l0.1 0.1L-22.4 20.6z M-20.6 20.7 L-20.6 20.7L-20.6 20.7L-20.6 20.7z"/><circle fill="#F15A5A" cx="-16.3" cy="11.1" r="1.1"/></g><g><path fill="#955BA5" d="M9.5-56.5c-0.4 0-0.4-0.2-0.6-0.8C8.6-58.2 8-60 7.6-60.9c-1.4-2.7-2.3-3.7-3.9-4.7l-7.2-4.2v-14.5l13-7.3 l13 7.3v14.5l-7.2 4.2c-1.6 0.9-2.4 1.9-3.9 4.7c-0.5 0.9-1 2.7-1.3 3.6C9.9-56.7 9.9-56.5 9.5-56.5C9.5-56.5 9.5-56.5 9.5-56.5z"/><path fill="#FFFFFF" d="M9.5-91L22-84v14l-6.9 4c-1.8 1-2.6 2.1-4.1 4.9C10.4-59.9 9.5-57 9.5-57l0 0h0l0 0c0 0-0.9-2.9-1.5-4.1 C6.6-63.8 5.7-65 3.9-66L-3-70v-14L9.5-91 M9.5-92.1L9-91.9l-12.5 7L-4-84.5v0.6v14v0.6l0.5 0.3l6.9 4c1.5 0.9 2.3 1.8 3.7 4.5 c0.4 0.8 1 2.7 1.3 3.5C8.6-56.6 8.8-56 9.5-56c0 0 0 0 0 0c0.7 0 0.9-0.6 1.1-1.2c0.3-0.8 0.8-2.6 1.3-3.5 c1.4-2.7 2.1-3.6 3.7-4.5l6.9-4l0.5-0.3V-70v-14v-0.6l-0.5-0.3l-12.5-7L9.5-92.1L9.5-92.1z"/></g><g><polygon fill="#FFFFFF" points="19,-72 9.5,-67 0,-72 0,-82 9.5,-87 19,-82"/></g><g><path fill="#955BA5" d="M12-83c-1.2 0-2.2 1.5-2.2 3c0 1.1 0.6 2 1.4 2.3l-0.2 6.2c0 0.6 0.5 1.1 1.1 1.1c0.6 0 1.1-0.5 1.1-1.1 l-0.2-6.2c0.8-0.3 1.3-1.1 1.3-2.3h0C14.2-81.5 13.2-83 12-83z"/><path fill="#955BA5" d="M7.6-80H6.9v-2.8H6.2v2.8H5.5v-2.8H4.8v3.5v0.7c0 0.4 0.5 0.7 0.9 0.7h0l-0.2 6.3c0 0.6 0.5 1.1 1.1 1.1 c0.6 0 1.1-0.5 1.1-1.1l-0.2-6.3c0.4 0 0.9-0.3 0.9-0.7v-0.7v-3.5H7.6V-80z"/></g><g><path fill="#955BA5" d="M9.5-10.5c-0.4 0-0.4-0.2-0.6-0.8C8.6-12.2 8-14 7.6-14.9c-1.4-2.7-2.3-3.7-3.9-4.7l-7.2-4.2v-14.5l13-7.3 l13 7.3v14.5l-7.2 4.2c-1.6 0.9-2.4 1.9-3.9 4.7c-0.5 0.9-1 2.7-1.3 3.6C9.9-10.7 9.9-10.5 9.5-10.5C9.5-10.5 9.5-10.5 9.5-10.5z"/><path fill="#FFFFFF" d="M9.5-45L22-38v14l-6.9 4c-1.8 1-2.6 2.1-4.1 4.9C10.4-13.9 9.5-11 9.5-11l0 0h0l0 0c0 0-0.9-2.9-1.5-4.1 C6.6-17.8 5.7-19 3.9-20L-3-24v-14L9.5-45 M9.5-46.1L9-45.9l-12.5 7L-4-38.5v0.6v14v0.6l0.5 0.3l6.9 4c1.5 0.9 2.3 1.8 3.7 4.5 c0.4 0.8 1 2.7 1.3 3.5C8.6-10.6 8.8-10 9.5-10c0 0 0 0 0 0c0.7 0 0.9-0.6 1.1-1.2c0.3-0.8 0.8-2.6 1.3-3.5 c1.4-2.7 2.1-3.6 3.7-4.5l6.9-4l0.5-0.3V-24v-14v-0.6l-0.5-0.3l-12.5-7L9.5-46.1L9.5-46.1z"/></g><g><polygon fill="#FFFFFF" points="19,-26 9.5,-21 0,-26 0,-36 9.5,-41 19,-36"/></g><g><path fill="#955BA5" d="M12-37c-1.2 0-2.2 1.5-2.2 3c0 1.1 0.6 2 1.4 2.3l-0.2 6.2c0 0.6 0.5 1.1 1.1 1.1c0.6 0 1.1-0.5 1.1-1.1 l-0.2-6.2c0.8-0.3 1.3-1.1 1.3-2.3h0C14.2-35.5 13.2-37 12-37z"/><path fill="#955BA5" d="M7.6-34H6.9v-2.8H6.2v2.8H5.5v-2.8H4.8v3.5v0.7c0 0.4 0.5 0.7 0.9 0.7h0l-0.2 6.3c0 0.6 0.5 1.1 1.1 1.1 c0.6 0 1.1-0.5 1.1-1.1l-0.2-6.3c0.4 0 0.9-0.3 0.9-0.7v-0.7v-3.5H7.6V-34z"/></g><g><path fill="#955BA5" d="M17 10c-1.2 0-2.2 1.5-2.2 3c0 1.1 0.6 2 1.4 2.3l-0.2 6.2c0 0.6 0.5 1.1 1.1 1.1c0.6 0 1.1-0.5 1.1-1.1 l-0.2-6.2c0.8-0.3 1.3-1.1 1.3-2.3h0C19.2 11.5 18.2 10 17 10z"/><path fill="#955BA5" d="M12.6 13h-0.7v-2.8h-0.7V13h-0.7v-2.8H9.8v3.5v0.7c0 0.4 0.5 0.7 0.9 0.7h0l-0.2 6.3c0 0.6 0.5 1.1 1.1 1.1 c0.6 0 1.1-0.5 1.1-1.1l-0.2-6.3c0.4 0 0.9-0.3 0.9-0.7v-0.7v-3.5h-0.7V13z"/></g><g><path fill="#6756B2" d="M13.7 81.2c0 0-0.6-1.9-1.2-3.1c-1.4-2.6-3.1-4.1-3.2-4.1c-0.4-0.3-1.1-0.8-1.6-1l-6.1-3.1 C1 69.6 0.5 68.7 0.5 68V54c0-0.7 0.5-1.6 1.2-1.9L13.4 46c0.3-0.2 0.7-0.2 1.1-0.2s0.8 0.1 1.1 0.2l11.7 6.1 c0.6 0.3 1.2 1.2 1.2 1.9v14c0 0.7-0.5 1.6-1.2 1.9L21.2 73c-0.5 0.2-1.2 0.7-1.6 1c0 0-1.8 1.5-3.2 4.1c-0.6 1.2-1.2 3.1-1.2 3.1 L14.5 83L13.7 81.2z"/><path fill="#FFFFFF" d="M14.5 46.3c0.3 0 0.6 0.1 0.9 0.2l11.7 6.1c0.5 0.3 0.9 0.9 0.9 1.5v14c0 0.5-0.4 1.2-0.9 1.5L21 72.6 c-0.5 0.2-1.2 0.7-1.7 1.1c0 0-1.9 1.5-3.3 4.2c-0.6 1.2-1.2 3.2-1.2 3.2c-0.2 0.5-0.3 1-0.3 1s-0.1-0.4-0.3-1c0 0-0.6-1.9-1.2-3.2 c-1.4-2.7-3.3-4.2-3.3-4.2c-0.4-0.3-1.2-0.8-1.7-1.1l-6.1-3.1C1.4 69.2 1 68.5 1 68V54c0-0.6 0.4-1.2 0.9-1.5l11.7-6.1 C13.9 46.3 14.2 46.3 14.5 46.3 M14.5 45.3c-0.5 0-1 0.1-1.3 0.3L1.4 51.7C0.6 52.1 0 53.1 0 54v14c0 0.9 0.6 1.9 1.4 2.3l6.1 3.1 c0.4 0.2 1.1 0.7 1.5 1c0 0 1.7 1.4 3 3.9c0.6 1.1 1.1 3 1.1 3c0.4 1.3 0.5 1.7 1.2 1.7s0.9-0.4 1.2-1.7c0 0 0.6-1.8 1.1-3 c1.3-2.5 3-3.9 3-3.9c0.4-0.3 1.1-0.8 1.5-1l6.1-3.1c0.8-0.4 1.4-1.4 1.4-2.3V54c0-0.9-0.6-1.9-1.4-2.3l-11.7-6.1 C15.5 45.4 15 45.3 14.5 45.3L14.5 45.3z"/></g><g><path fill="#FFFFFF" d="M25 66c0 0.5-0.4 1.2-0.9 1.4l-8.7 4.1c-0.5 0.2-1.3 0.2-1.8 0l-8.7-4.1C4.4 67.2 4 66.5 4 66V56 c0-0.5 0.4-1.2 0.9-1.4l8.7-4.1c0.5-0.2 1.3-0.2 1.8 0l8.7 4.1c0.5 0.2 0.9 0.9 0.9 1.4V66z"/></g><rect x="-196" y="-10" fill="#231F20" width="14" height="10"/><g><path fill="#9FC419" d="M-134.1 62.3c-0.4 1.8-1 3.3-2.4 4.7h4c1.4-1.4 2-2.9 2.4-4.7H-134.1z"/><path fill="#9FC419" d="M-129.2 62.3c0.4 1.8 1 3.4 2.4 4.7h0.3h3.9c-1.4-1.4-2-2.9-2.4-4.7H-129.2z"/><g><path fill="#9FC419" d="M-127.1 54.5c0 0 0 1.8 0 1.8c-0.1 0-0.2 0-0.3 0v0.3c1.3 0 2.1-0.5 2.1-1.8 C-126.2 55.2-126.4 54.8-127.1 54.5L-127.1 54.5z"/></g><g><path fill="#9FC419" d="M-129.2 56.6v-0.8c0.5-0.5 1.3 0 1.8 0v-2.3c-0.7-0.4-1.2-0.6-2.1-0.3h-0.3l0 3.4L-129.2 56.6L-129.2 56.6 z"/><path fill="#9FC419" d="M-129.1 57.1h-0.9c-0.9 2.1-2.7 2.8-7.1 4.3h8.9h0.9h5.2C-126.3 59.9-128.1 59.2-129.1 57.1L-129.1 57.1z"/></g></g><path fill="#6756B2" d="M12.3 66.9L10.7 68H14H15h3.2l-1.6-1.1H15v-3.3l6-6h-4.7l0.3-1.1l0.1 0c0.6 0 1.1-0.5 1.1-1.1 c0-0.4-0.3-0.8-0.6-1l0.1-0.4L16.7 54l-0.1 0.5c-0.6 0-1 0.5-1 1.1c0 0.4 0.2 0.7 0.4 0.9l-0.3 1.3H8l6 6v3.3L12.3 66.9L12.3 66.9z M14 62.6l-2.7-2.7h3.9l-0.7 2.5l0.5 0.1l0.7-2.6h2.1L15 62.6H14z"/></svg>