<svg xmlns="http://www.w3.org/2000/svg" xmlns:xlink="http://www.w3.org/1999/xlink" version="1.1" x="0px" y="0px" width="31px" height="32px" viewBox="0 0 31 32" enable-background="new 0 0 31 32" xml:space="preserve"><g><g><g><path fill="#7AC143" d="M15.5 31.872l-5.209-5.209h10.418L15.5 31.872z"/></g><g><path fill-rule="evenodd" clip-rule="evenodd" fill="#7AC143" d="M31 25.128c0 1.1-0.9 2-2 2H2c-1.1 0-2-0.9-2-2v-23 c0-1.1 0.9-2 2-2h27c1.1 0 2 0.9 2 2V25.128z"/></g><g opacity="0.9"><path fill-rule="evenodd" clip-rule="evenodd" fill="#FFFFFF" d="M28 22.128c0 1.1-0.9 2-2 2H5c-1.1 0-2-0.9-2-2v-17 c0-1.1 0.9-2 2-2h21c1.1 0 2 0.9 2 2V22.128z"/></g></g><g><path fill-rule="evenodd" clip-rule="evenodd" fill="#7AC143" d="M10.091 16.074c-0.448 2.206-1.181 4.071-2.87 5.718h4.851 c1.688-1.646 2.421-3.512 2.869-5.718H10.091z"/><path fill-rule="evenodd" clip-rule="evenodd" fill="#7AC143" d="M15.91 16.074c0.448 2.2 1.2 4.1 2.9 5.718h0.371h4.748 c-1.689-1.646-2.422-3.512-2.87-5.718H15.91z"/><g><path fill="#7AC143" d="M18.43 6.546c0 0 0 2.2 0 2.207c-0.095 0-0.187 0.027-0.316 0v0.316 c1.578 0 2.523-0.631 2.523-2.208C19.539 7.4 19.3 7 18.4 6.546z"/></g><g><path fill="#7AC143" d="M15.928 9.097V8.107c0.631-0.598 1.6 0 2.2 0.016V5.284c-0.801-0.43-1.494-0.726-2.523-0.315 h-0.314V7.69h-0.03v1.406H15.928z"/><path fill="#7AC143" d="M16.115 9.808h-1.058c-1.138 2.515-3.279 3.441-8.504 5.265h10.7h1.068h6.297 C19.395 13.2 17.3 12.3 16.1 9.808z"/></g></g></g></svg>