<svg xmlns="http://www.w3.org/2000/svg" xmlns:xlink="http://www.w3.org/1999/xlink" version="1.1" id="Layer_1" x="0px" y="0px" viewBox="0 0 29 38" enable-background="new 0 0 29 38" xml:space="preserve"><g><g><path fill="#6756B2" d="M13.7 36.2c0 0-0.6-1.9-1.2-3.1c-1.4-2.6-3.1-4.1-3.2-4.1c-0.4-0.3-1.1-0.8-1.6-1l-6.1-3.1 C1 24.6 0.5 23.7 0.5 23V9c0-0.7 0.5-1.6 1.2-1.9L13.4 1c0.3-0.2 0.7-0.2 1.1-0.2s0.8 0.1 1.1 0.2l11.7 6.1 C28 7.5 28.5 8.3 28.5 9v14c0 0.7-0.5 1.6-1.2 1.9L21.2 28c-0.5 0.2-1.2 0.7-1.6 1c0 0-1.8 1.5-3.2 4.1c-0.6 1.2-1.2 3.1-1.2 3.1 L14.5 38L13.7 36.2z"/><path fill="#FFFFFF" d="M14.5 1.3c0.3 0 0.6 0.1 0.9 0.2l11.7 6.1C27.6 7.8 28 8.5 28 9v14c0 0.5-0.4 1.2-0.9 1.5L21 27.6 c-0.5 0.2-1.2 0.7-1.7 1.1c0 0-1.9 1.5-3.3 4.2c-0.6 1.2-1.2 3.2-1.2 3.2c-0.2 0.5-0.3 1-0.3 1s-0.1-0.4-0.3-1 c0 0-0.6-1.9-1.2-3.2c-1.4-2.7-3.3-4.2-3.3-4.2c-0.4-0.3-1.2-0.8-1.7-1.1l-6.1-3.1C1.4 24.2 1 23.5 1 23V9c0-0.6 0.4-1.2 0.9-1.5 l11.7-6.1C13.9 1.3 14.2 1.3 14.5 1.3 M14.5 0.3c-0.5 0-1 0.1-1.3 0.3L1.4 6.7C0.6 7.1 0 8.1 0 9v14c0 0.9 0.6 1.9 1.4 2.3 l6.1 3.1c0.4 0.2 1.1 0.7 1.5 1c0 0 1.7 1.4 3 3.9c0.6 1.1 1.1 3 1.1 3c0.4 1.3 0.5 1.7 1.2 1.7s0.9-0.4 1.2-1.7 c0 0 0.6-1.8 1.1-3c1.3-2.5 3-3.9 3-3.9c0.4-0.3 1.1-0.8 1.5-1l6.1-3.1c0.8-0.4 1.4-1.4 1.4-2.3V9c0-0.9-0.6-1.9-1.4-2.3L15.8 0.6 C15.5 0.4 15 0.3 14.5 0.3L14.5 0.3z"/></g><path fill="#FFFFFF" d="M25 21c0 0.6-0.4 1.2-0.9 1.4l-8.7 4.1c-0.5 0.2-1.3 0.2-1.8 0l-8.7-4.1C4.4 22.2 4 21.5 4 21V11 c0-0.6 0.4-1.2 0.9-1.4l8.7-4.1c0.5-0.2 1.3-0.2 1.8 0l8.7 4.1C24.6 9.8 25 10.4 25 11V21z"/><path fill="#6756B2" d="M12.3 21.9L10.7 23H14H15h3.2l-1.6-1.1H15v-3.3l6-6h-4.7l0.3-1.1l0.1 0c0.6 0 1.1-0.5 1.1-1.1 c0-0.4-0.3-0.8-0.6-1l0.1-0.4L16.7 9l-0.1 0.5c-0.6 0-1 0.5-1 1.1c0 0.4 0.2 0.7 0.4 0.9l-0.3 1.3H8l6 6v3.3L12.3 21.9L12.3 21.9z M14 17.6l-2.7-2.7h3.9l-0.7 2.5l0.5 0.1l0.7-2.6h2.1L15 17.6H14z"/></g></svg>