<svg xmlns="http://www.w3.org/2000/svg" xmlns:xlink="http://www.w3.org/1999/xlink" version="1.1" id="Layer_1" x="0px" y="0px" viewBox="0 0 29 38" enable-background="new 0 0 29 38" xml:space="preserve"><path fill="#2D95BF" d="M-248.5-90.6l-12.5 7v14.1l6.9 3.9c1.8 1 2.6 2.1 4.1 4.9c0.6 1.2 1.5 4.1 1.5 4.1l0 0c0 0 0.9-2.9 1.5-4.1 c1.4-2.7 2.3-3.8 4.1-4.9l6.9-3.9v-14.1L-248.5-90.6z"/><polygon fill="#FFFFFF" stroke="#231F20" stroke-miterlimit="10" points="-1010.7,32.1 -1034.4,-9 -1010.7,-50.1 -963.3,-50.1 -939.5,-9 -963.3,32.1"/><g><polygon fill="#231F20" points="-764.9,154.5 -764.9,141.1 -752.9,134.4 -740.9,141.1 -740.9,154.5 -752.9,161.2"/><path fill="#FFFFFF" d="M-752.9 134.9l11.5 6.4v12.8l-11.5 6.4l-11.5-6.4v-12.8L-752.9 134.9 M-752.9 133.8l-12.5 7v14l12.5 7 l12.5-7v-14L-752.9 133.8L-752.9 133.8z"/></g><g><polygon fill="#231F20" points="-695.9,159 -708.4,166 -720.9,159 -720.9,145 -708.4,138 -695.9,145"/></g><polygon fill="#FFFFFF" stroke="#231F20" stroke-miterlimit="10" points="-595.1,154 -607.6,160.3 -620.1,154 -620.1,141.5 -607.6,135.3 -595.1,141.5"/><path fill="#231F20" d="M-528.1-81.4l-6.4-2.4v0l0 0l0 0v0l-6.4 2.4c2 1 5.6 4 6.4 10.6c0 0 0 0.1 0 0.1c0 0 0 0 0-0.1 c0 0 0 0 0 0.1c0 0 0-0.1 0-0.1C-534.3-77.6-529.1-80.8-528.1-81.4z"/><path fill="#231F20" d="M-714 162.8c1.8 1 2.7 2.1 4.1 4.8c1.3 2.5 2 5.9 2 6.6c0-6.1 0-12.4 0-12.4h-5.1L-714 162.8z"/><path fill="#231F20" d="M-702.8 162.8c-1.8 1-2.7 2.1-4.1 4.8c-1.3 2.5-2 5.9-2 6.6c0-6.1 0-12.4 0-12.4h5.1L-702.8 162.8z"/><g><g><polygon fill="#231F20" points="-278.6,-727.3 -479,-615.1 -679.5,-727.3 -679.5,-951.8 -479,-1064 -278.6,-951.8"/></g><path fill="#231F20" d="M-405.2-681.1h-73h-1.4h-73l-15.9 15.9c28.6 16.4 42.7 34.3 65.5 77.8c10.4 19.9 18.1 43.1 23.4 63 c0 0 0.5 3.5 0.7 2.6c0.2 0.9 0.7-2.6 0.7-2.6c5.3-19.9 13-43.1 23.4-63c22.8-43.4 36.8-61.4 65.5-77.8L-405.2-681.1z"/></g><g><polygon fill="#231F20" points="346.2,-312 333.8,-305 321.2,-312 321.2,-326 333.8,-333 346.2,-326"/></g><g><polygon fill="#FFFFFF" points="-239.5,-71.5 -248.5,-66.5 -257.5,-71.5 -257.5,-81.6 -248.5,-86.7 -239.5,-81.6"/></g><path fill="#231F20" d="M338.4-309.1h-4.6h-0.1h-4.6l-1 1c1.8 1 2.7 2.1 4.1 4.8c0.7 1.2 1.1 2.7 1.5 3.9v0.3c0-0.1 0-0.1 0-0.2 c0 0.1 0 0.1 0 0.2v-0.3c0.3-1.2 0.8-2.7 1.5-3.9c1.4-2.7 2.3-3.8 4.1-4.8L338.4-309.1z"/><path fill="#231F20" d="M405.2-335l-12.5 7v14.1l6.9 3.9c1.8 1 2.6 2.1 4.1 4.9c0.6 1.2 1.5 4.1 1.5 4.1h0c0 0 0.9-2.9 1.5-4.1 c1.4-2.7 2.3-3.8 4.1-4.9l6.9-3.9V-328L405.2-335z"/><path fill="#231F20" d="M-513.5 186.5l-12.5 7v14.1l6.9 3.9c1.8 1 2.6 2.1 4.1 4.9c0.6 1.2 1.5 4.1 1.5 4.1h0c0 0 0.9-2.9 1.5-4.1 c1.4-2.7 2.3-3.8 4.1-4.9l6.9-3.9v-14.1L-513.5 186.5z"/><rect x="-144" y="-409" fill="#F15A5A" width="106" height="106"/><rect x="-268" y="-407" fill="#F89C1C" width="106" height="106"/><rect x="-509" y="-410" fill="#9FC419" width="106" height="106"/><rect x="-386" y="-410" fill="#F0C419" width="106" height="106"/><rect x="-625" y="-411" fill="#4EBA6F" width="106" height="106"/><rect x="-760" y="-414" fill="#2D95BF" width="106" height="106"/><rect x="-19" y="-408" fill="#955BA5" width="106" height="106"/><rect x="114" y="-408" fill="#6756B2" width="106" height="106"/><path fill-rule="evenodd" clip-rule="evenodd" fill="#2D95BF" d="M-241.8-74.9c-0.5-0.2-1.2-0.8-2.2-1c0.3-0.3 0.5-0.8 0.7-1.3 c0.1-0.3 0.1-0.6 0.1-1c0-0.3 0.1-0.8 0-1c-0.2-0.9-0.8-1.1-1.5-1.1c-0.7 0-1.3 0.2-1.5 1.1c-0.1 0.3 0 0.7 0 1c0 0.4 0 0.7 0.1 1 c0.2 0.6 0.4 1 0.7 1.3c-0.3 0.1-0.6 0.2-0.9 0.3c1 0.4 1.8 1 2.3 1.3c1 0.5 1.3 1 1.5 1.3h1c0.4 0 0.7-0.4 0.7-0.7v-0.2 C-240.8-73.9-240.8-74.5-241.8-74.9z M-245.2-74.4c-0.8-0.4-1.8-1.3-3.5-1.6c0.4-0.5 0.7-1.3 1.1-2.2c0.2-0.5 0.1-1 0.1-1.6 c0-0.5 0.1-1.2 0-1.6c-0.4-1.4-1.3-1.8-2.3-1.8c-1.1 0-2 0.4-2.3 1.8c-0.1 0.4 0 1.2 0 1.6c0 0.6 0 1.1 0.2 1.6 c0.3 0.9 0.6 1.7 1.1 2.2c-1.6 0.3-2.7 1.2-3.4 1.6c-1.5 0.7-1.5 1.6-1.5 1.6v0.3c0 0.5 0.6 1.1 1.1 1.1h10c0.7 0 1.1-0.6 1.1-1.1 v-0.3C-243.6-72.8-243.6-73.6-245.2-74.4z"/><circle fill-rule="evenodd" clip-rule="evenodd" fill="#F15A29" cx="-249.8" cy="-80.6" r="2.5"/><path fill="#2D95BF" d="M-214-90.6l-12.5 7v14.1l6.9 3.9c1.8 1 2.6 2.1 4.1 4.9c0.6 1.2 1.5 4.1 1.5 4.1l0 0c0 0 0.9-2.9 1.5-4.1 c1.4-2.7 2.3-3.8 4.1-4.9l6.9-3.9v-14.1L-214-90.6z"/><g><polygon fill="#FFFFFF" points="-205,-71.5 -214,-66.5 -223,-71.5 -223,-81.6 -214,-86.7 -205,-81.6"/></g><circle fill-rule="evenodd" clip-rule="evenodd" fill="#2D95BF" cx="-215.2" cy="-80.6" r="2.5"/><circle fill-rule="evenodd" clip-rule="evenodd" fill="#2D95BF" cx="-215.2" cy="-75.9" r="3.6"/><g><path fill="#2D95BF" d="M-21.5-101.5c-0.4 0-0.4-0.2-0.6-0.8c-0.3-0.9-0.8-2.7-1.3-3.5c-1.4-2.7-2.3-3.7-3.9-4.7l-7.2-4.2v-14.5 l13-7.3l13 7.3v14.5l-7.2 4.2c-1.6 0.9-2.4 1.9-3.9 4.7c-0.5 0.9-1 2.7-1.3 3.6C-21.1-101.7-21.1-101.5-21.5-101.5 C-21.5-101.5-21.5-101.5-21.5-101.5z"/><path fill="#FFFFFF" d="M-21.5-136l12.5 7v14l-6.9 4c-1.8 1-2.6 2.1-4.1 4.9c-0.6 1.2-1.5 4.1-1.5 4.1l0 0h0l0 0 c0 0-0.9-2.9-1.5-4.1c-1.4-2.7-2.3-3.8-4.1-4.9l-6.9-4v-14L-21.5-136 M-21.5-137.1l-0.5 0.3l-12.5 7l-0.5 0.3v0.6v14v0.6l0.5 0.3 l6.9 4c1.5 0.9 2.3 1.8 3.7 4.5c0.4 0.8 1 2.7 1.3 3.5c0.2 0.6 0.4 1.2 1.1 1.2c0 0 0 0 0 0c0.7 0 0.9-0.6 1.1-1.2 c0.3-0.8 0.8-2.6 1.3-3.5c1.4-2.7 2.1-3.6 3.7-4.5l6.9-4l0.5-0.3v-0.6v-14v-0.6l-0.5-0.3l-12.5-7L-21.5-137.1L-21.5-137.1z"/></g><g><polygon fill="#FFFFFF" points="-12,-117 -21.5,-112 -31,-117 -31,-127 -21.5,-132 -12,-127"/></g><g><path fill="#2D95BF" d="M-115.5-101.5c-0.4 0-0.4-0.2-0.6-0.8c-0.3-0.9-0.8-2.7-1.3-3.5c-1.4-2.7-2.3-3.7-3.9-4.7l-7.2-4.2v-14.5 l13-7.3l13 7.3v14.5l-7.2 4.2c-1.6 0.9-2.4 1.9-3.9 4.7c-0.5 0.9-1 2.7-1.3 3.6C-115.1-101.7-115.1-101.5-115.5-101.5 C-115.5-101.5-115.5-101.5-115.5-101.5z"/><path fill="#FFFFFF" d="M-115.5-136l12.5 7v14l-6.9 4c-1.8 1-2.6 2.1-4.1 4.9c-0.6 1.2-1.5 4.1-1.5 4.1l0 0h0l0 0 c0 0-0.9-2.9-1.5-4.1c-1.4-2.7-2.3-3.8-4.1-4.9l-6.9-4v-14L-115.5-136 M-115.5-137.1l-0.5 0.3l-12.5 7l-0.5 0.3v0.6v14v0.6l0.5 0.3 l6.9 4c1.5 0.9 2.3 1.8 3.7 4.5c0.4 0.8 1 2.7 1.3 3.5c0.2 0.6 0.4 1.2 1.1 1.2c0 0 0 0 0 0c0.7 0 0.9-0.6 1.1-1.2 c0.3-0.8 0.8-2.6 1.3-3.5c1.4-2.7 2.1-3.6 3.7-4.5l6.9-4l0.5-0.3v-0.6v-14v-0.6l-0.5-0.3l-12.5-7L-115.5-137.1L-115.5-137.1z"/></g><g><polygon fill="#FFFFFF" points="-106,-117 -115.5,-112 -125,-117 -125,-127 -115.5,-132 -106,-127"/></g><circle fill-rule="evenodd" clip-rule="evenodd" fill="#2D95BF" cx="-112" cy="-126.5" r="2.5"/><g><path fill-rule="evenodd" clip-rule="evenodd" fill="#2D95BF" d="M-115-117.5h0.5v-0.5c0-0.7-0.2-1.4-0.5-2V-117.5z"/><g><path fill-rule="evenodd" clip-rule="evenodd" fill="#2D95BF" d="M-112-124c0.7 0 1.4-0.3 1.9-0.8c-0.5-0.4-1.2-0.7-1.9-0.7 s-1.3 0.3-1.9 0.7C-113.4-124.3-112.7-124-112-124z"/><path fill-rule="evenodd" clip-rule="evenodd" fill="#2D95BF" d="M-112-123c-1 0-1.9-0.4-2.5-1.1c-0.3 0.5-0.5 1-0.5 1.6v0.9 c0.9 0.9 1.5 2.2 1.5 3.6v0.5h4.5v-5c0-0.6-0.2-1.1-0.5-1.6C-110.1-123.4-111-123-112-123z"/></g></g><g><path fill-rule="evenodd" clip-rule="evenodd" fill="#2D95BF" d="M-116.7-121.6c-0.5-0.3-1.1-0.4-1.8-0.4s-1.2 0.2-1.8 0.4 c0.5 0.4 1.1 0.6 1.8 0.6S-117.2-121.2-116.7-121.6z"/><circle fill-rule="evenodd" clip-rule="evenodd" fill="#2D95BF" cx="-118.5" cy="-124" r="3"/></g><path fill="#2D95BF" d="M-145.5-136l-12.5 7v14l6.9 4c1.8 1 2.6 2.1 4.1 4.9c0.6 1.2 1.5 4.1 1.5 4.1h0c0 0 0.9-2.9 1.5-4.1 c1.4-2.7 2.3-3.8 4.1-4.9l6.9-4v-14L-145.5-136z"/><g><polygon fill="#FFFFFF" points="-136,-117 -145.5,-112 -155,-117 -155,-127 -145.5,-132 -136,-127"/></g><path fill-rule="evenodd" clip-rule="evenodd" fill="#2D95BF" d="M-142-125.5c-1.7 0-3 1.3-3 3v5h6v-5 C-139-124.2-140.3-125.5-142-125.5z"/><g><circle fill-rule="evenodd" clip-rule="evenodd" fill="#2D95BF" cx="-142" cy="-126.5" r="3"/><path fill="#FFFFFF" d="M-142-129c1.4 0 2.5 1.1 2.5 2.5s-1.1 2.5-2.5 2.5s-2.5-1.1-2.5-2.5S-143.4-129-142-129 M-142-130 c-1.9 0-3.5 1.6-3.5 3.5s1.6 3.5 3.5 3.5s3.5-1.6 3.5-3.5S-140.1-130-142-130L-142-130z"/></g><g><path fill-rule="evenodd" clip-rule="evenodd" fill="#2D95BF" d="M-153-113.5v-4.5c0-2.5 2-4.5 4.5-4.5s4.5 2 4.5 4.5v4.5H-153z"/><path fill="#FFFFFF" d="M-148.5-122c2.2 0 4 1.8 4 4v4h-8v-4C-152.5-120.2-150.7-122-148.5-122 M-148.5-123c-2.8 0-5 2.2-5 5v4v1h1 h8h1v-1v-4C-143.5-120.8-145.7-123-148.5-123L-148.5-123z"/></g><g><path fill-rule="evenodd" clip-rule="evenodd" fill="#2D95BF" d="M-148.5-120.5c-1.9 0-3.5-1.6-3.5-3.5s1.6-3.5 3.5-3.5 s3.5 1.6 3.5 3.5S-146.5-120.5-148.5-120.5z"/><path fill="#FFFFFF" d="M-148.5-127c1.7 0 3 1.3 3 3s-1.3 3-3 3s-3-1.3-3-3S-150.1-127-148.5-127 M-148.5-128c-2.2 0-4 1.8-4 4 s1.8 4 4 4s4-1.8 4-4S-146.2-128-148.5-128L-148.5-128z"/></g><path fill-rule="evenodd" clip-rule="evenodd" fill="#2D95BF" d="M-18.6-124.8c0.6 0 1.2-0.3 1.6-0.7c-0.4-0.3-1-0.6-1.6-0.6 s-1.1 0.2-1.6 0.6C-19.8-125.1-19.3-124.8-18.6-124.8z"/><circle fill-rule="evenodd" clip-rule="evenodd" fill="#2D95BF" cx="-18.6" cy="-126.9" r="2.1"/><g><path fill-rule="evenodd" clip-rule="evenodd" fill="#2D95BF" d="M-21-119h0.3v-0.7c0-0.5-0.1-0.9-0.3-1.4V-119z"/><path fill-rule="evenodd" clip-rule="evenodd" fill="#2D95BF" d="M-16.4-124.7c-0.6 0.6-1.4 0.9-2.3 0.9s-1.6-0.4-2.1-0.9 c-0.2 0.4-0.2 0.8-0.2 1.2v0.7c0.8 0.8 1.3 1.9 1.3 3.1v0.7h3.7v-4.5C-16-124-16.2-124.4-16.4-124.7z"/></g><g><g><path fill-rule="evenodd" clip-rule="evenodd" fill="#2D95BF" d="M-21.7-122.2c-0.6 0.6-1.4 0.9-2.3 0.9s-1.7-0.3-2.3-0.9 c-0.6 0.6-1 1.5-1 2.4v3.4h6.7v-3.4C-20.7-120.7-21.1-121.5-21.7-122.2z"/></g><circle fill-rule="evenodd" clip-rule="evenodd" fill="#2D95BF" cx="-24.1" cy="-124.8" r="2.5"/></g><g><path fill="#2D95BF" d="M-21.5-55.5c-0.4 0-0.4-0.2-0.6-0.8c-0.3-0.9-0.8-2.7-1.3-3.5c-1.4-2.7-2.3-3.7-3.9-4.7l-7.2-4.2v-14.5 l13-7.3l13 7.3v14.5l-7.2 4.2c-1.6 0.9-2.4 1.9-3.9 4.7c-0.5 0.9-1 2.7-1.3 3.6C-21.1-55.7-21.1-55.5-21.5-55.5 C-21.5-55.5-21.5-55.5-21.5-55.5z"/><path fill="#FFFFFF" d="M-21.5-90L-9-83v14l-6.9 4c-1.8 1-2.6 2.1-4.1 4.9c-0.6 1.2-1.5 4.1-1.5 4.1l0 0h0l0 0c0 0-0.9-2.9-1.5-4.1 c-1.4-2.7-2.3-3.8-4.1-4.9l-6.9-4v-14L-21.5-90 M-21.5-91.1l-0.5 0.3l-12.5 7l-0.5 0.3v0.6v14v0.6l0.5 0.3l6.9 4 c1.5 0.9 2.3 1.8 3.7 4.5c0.4 0.8 1 2.7 1.3 3.5c0.2 0.6 0.4 1.2 1.1 1.2c0 0 0 0 0 0c0.7 0 0.9-0.6 1.1-1.2 c0.3-0.8 0.8-2.6 1.3-3.5c1.4-2.7 2.1-3.6 3.7-4.5l6.9-4l0.5-0.3V-69v-14v-0.6l-0.5-0.3l-12.5-7L-21.5-91.1L-21.5-91.1z"/></g><g><polygon fill="#FFFFFF" points="-12,-71 -21.5,-66 -31,-71 -31,-81 -21.5,-86 -12,-81"/></g><path fill-rule="evenodd" clip-rule="evenodd" fill="#2D95BF" d="M-18.6-78.8c0.6 0 1.2-0.3 1.6-0.7c-0.4-0.3-1-0.6-1.6-0.6 s-1.1 0.2-1.6 0.6C-19.8-79.1-19.3-78.8-18.6-78.8z"/><circle fill-rule="evenodd" clip-rule="evenodd" fill="#2D95BF" cx="-18.6" cy="-80.9" r="2.1"/><g><path fill-rule="evenodd" clip-rule="evenodd" fill="#2D95BF" d="M-21-73h0.3v-0.7c0-0.5-0.1-0.9-0.3-1.4V-73z"/><path fill-rule="evenodd" clip-rule="evenodd" fill="#2D95BF" d="M-16.4-78.7c-0.6 0.6-1.4 0.9-2.3 0.9s-1.6-0.4-2.1-0.9 C-21-78.4-21-78-21-77.5v0.7c0.8 0.8 1.3 1.9 1.3 3.1v0.7h3.7v-4.5C-16-78-16.2-78.4-16.4-78.7z"/></g><g><g><path fill-rule="evenodd" clip-rule="evenodd" fill="#2D95BF" d="M-21.7-76.2c-0.6 0.6-1.4 0.9-2.3 0.9s-1.7-0.3-2.3-0.9 c-0.6 0.6-1 1.5-1 2.4v3.4h6.7v-3.4C-20.7-74.7-21.1-75.5-21.7-76.2z"/></g><circle fill-rule="evenodd" clip-rule="evenodd" fill="#2D95BF" cx="-24.1" cy="-78.8" r="2.5"/></g><g><path fill="#2D95BF" d="M-22.3-8.8c0 0-0.6-1.9-1.2-3.1c-1.4-2.6-3.1-4.1-3.2-4.1c-0.4-0.3-1.1-0.8-1.6-1l-6.1-3.1 c-0.7-0.3-1.2-1.2-1.2-1.9v-14c0-0.7 0.5-1.6 1.2-1.9l11.7-6.1c0.3-0.2 0.7-0.2 1.1-0.2s0.8 0.1 1.1 0.2l11.7 6.1 c0.6 0.3 1.2 1.2 1.2 1.9v14c0 0.7-0.5 1.6-1.2 1.9l-6.2 3.1c-0.5 0.2-1.2 0.7-1.6 1c0 0-1.8 1.5-3.2 4.1c-0.6 1.2-1.2 3.1-1.2 3.1 L-21.5-7L-22.3-8.8z"/><path fill="#FFFFFF" d="M-21.5-43.7c0.3 0 0.6 0.1 0.9 0.2l11.7 6.1C-8.4-37.2-8-36.5-8-36v14c0 0.5-0.4 1.2-0.9 1.5l-6.1 3.1 c-0.5 0.2-1.2 0.7-1.7 1.1c0 0-1.9 1.5-3.3 4.2c-0.6 1.2-1.2 3.2-1.2 3.2c-0.2 0.5-0.3 1-0.3 1s-0.1-0.4-0.3-1c0 0-0.6-1.9-1.2-3.2 c-1.4-2.7-3.3-4.2-3.3-4.2c-0.4-0.3-1.2-0.8-1.7-1.1l-6.1-3.1c-0.5-0.2-0.9-0.9-0.9-1.5v-14c0-0.6 0.4-1.2 0.9-1.5l11.7-6.1 C-22.1-43.7-21.8-43.7-21.5-43.7 M-21.5-44.7c-0.5 0-1 0.1-1.3 0.3l-11.7 6.1c-0.8 0.4-1.4 1.4-1.4 2.3v14c0 0.9 0.6 1.9 1.4 2.3 l6.1 3.1c0.4 0.2 1.1 0.7 1.5 1c0 0 1.7 1.4 3 3.9c0.6 1.1 1.1 3 1.1 3c0.4 1.3 0.5 1.7 1.2 1.7s0.9-0.4 1.2-1.7c0 0 0.6-1.8 1.1-3 c1.3-2.5 3-3.9 3-3.9c0.4-0.3 1.1-0.8 1.5-1l6.1-3.1C-7.6-20.1-7-21.1-7-22v-14c0-0.9-0.6-1.9-1.4-2.3l-11.7-6.1 C-20.5-44.6-21-44.7-21.5-44.7L-21.5-44.7z"/></g><g><path fill="#FFFFFF" d="M-11-24c0 0.6-0.4 1.2-0.9 1.4l-8.7 4.1c-0.5 0.2-1.3 0.2-1.8 0l-8.7-4.1c-0.5-0.2-0.9-0.9-0.9-1.4v-10 c0-0.5 0.4-1.2 0.9-1.4l8.7-4.1c0.5-0.2 1.3-0.2 1.8 0l8.7 4.1c0.5 0.2 0.9 0.9 0.9 1.4V-24z"/></g><circle fill-rule="evenodd" clip-rule="evenodd" fill="#2D95BF" cx="-18.8" cy="-34" r="2.2"/><g><g><path fill-rule="evenodd" clip-rule="evenodd" fill="#2D95BF" d="M-22-29.1c-0.7 0.6-1.5 0.9-2.4 0.9s-1.8-0.4-2.4-0.9 c-0.7 0.6-1.1 1.5-1.1 2.5v3.5h7.1v-3.5C-20.9-27.5-21.4-28.4-22-29.1z"/></g><circle fill-rule="evenodd" clip-rule="evenodd" fill="#2D95BF" cx="-24.5" cy="-31.8" r="2.7"/><g><g><path fill-rule="evenodd" clip-rule="evenodd" fill="#2D95BF" d="M-16.2-32.1c-0.6 0.8-1.5 1.3-2.6 1.3c-0.8 0-1.5-0.3-2.1-0.8 c0 0.6-0.2 1.2-0.6 1.8l0.1 0.1c0.9 0.9 1.4 2 1.4 3.3v0.5h4.9v-3.5C-15-30.6-15.5-31.5-16.2-32.1z"/></g></g></g><g><path fill="#4EBA6F" stroke="#FFFFFF" stroke-miterlimit="10" d="M13.7-8.8c0 0-0.6-1.9-1.2-3.1c-1.4-2.6-3.1-4.1-3.2-4.1 c-0.4-0.3-1.1-0.8-1.6-1l-6.1-3.1C1-20.4 0.5-21.3 0.5-22v-14c0-0.7 0.5-1.6 1.2-1.9L13.4-44c0.3-0.2 0.7-0.2 1.1-0.2 s0.8 0.1 1.1 0.2l11.7 6.1c0.6 0.3 1.2 1.2 1.2 1.9v14c0 0.7-0.5 1.6-1.2 1.9L21.2-17c-0.5 0.2-1.2 0.7-1.6 1c0 0-1.8 1.5-3.2 4.1 c-0.6 1.2-1.2 3.1-1.2 3.1L14.5-7L13.7-8.8z"/><path fill="#FFFFFF" d="M14.5-43.7c0.3 0 0.6 0.1 0.9 0.2l11.7 6.1c0.5 0.3 0.9 0.9 0.9 1.5v14c0 0.5-0.4 1.2-0.9 1.5L21-17.4 c-0.5 0.2-1.2 0.7-1.7 1.1c0 0-1.9 1.5-3.3 4.2C15.4-10.9 14.8-9 14.8-9c-0.2 0.5-0.3 1-0.3 1s-0.1-0.4-0.3-1c0 0-0.6-1.9-1.2-3.2 c-1.4-2.7-3.3-4.2-3.3-4.2c-0.4-0.3-1.2-0.8-1.7-1.1l-6.1-3.1C1.4-20.8 1-21.5 1-22v-14c0-0.6 0.4-1.2 0.9-1.5l11.7-6.1 C13.9-43.7 14.2-43.7 14.5-43.7 M14.5-44.7c-0.5 0-1 0.1-1.3 0.3L1.4-38.3C0.6-37.9 0-36.9 0-36v14c0 0.9 0.6 1.9 1.4 2.3l6.1 3.1 c0.4 0.2 1.1 0.7 1.5 1c0 0 1.7 1.4 3 3.9c0.6 1.1 1.1 3 1.1 3C13.6-7.4 13.8-7 14.5-7s0.9-0.4 1.2-1.7c0 0 0.6-1.8 1.1-3 c1.3-2.5 3-3.9 3-3.9c0.4-0.3 1.1-0.8 1.5-1l6.1-3.1c0.8-0.4 1.4-1.4 1.4-2.3v-14c0-0.9-0.6-1.9-1.4-2.3l-11.7-6.1 C15.5-44.6 15-44.7 14.5-44.7L14.5-44.7z"/></g><g><path fill="#FFFFFF" d="M25-24c0 0.6-0.4 1.2-0.9 1.4l-8.7 4.1c-0.5 0.2-1.3 0.2-1.8 0l-8.7-4.1C4.4-22.8 4-23.5 4-24v-10 c0-0.5 0.4-1.2 0.9-1.4l8.7-4.1c0.5-0.2 1.3-0.2 1.8 0l8.7 4.1c0.5 0.2 0.9 0.9 0.9 1.4V-24z"/></g><g><path fill="#F0C419" stroke="#FFFFFF" stroke-miterlimit="10" d="M49.7-8.8c0 0-0.6-1.9-1.2-3.1c-1.4-2.6-3.1-4.1-3.2-4.1 c-0.4-0.3-1.1-0.8-1.6-1l-6.1-3.1c-0.7-0.3-1.2-1.2-1.2-1.9v-14c0-0.7 0.5-1.6 1.2-1.9L49.4-44c0.3-0.2 0.7-0.2 1.1-0.2 s0.8 0.1 1.1 0.2l11.7 6.1c0.6 0.3 1.2 1.2 1.2 1.9v14c0 0.7-0.5 1.6-1.2 1.9L57.2-17c-0.5 0.2-1.2 0.7-1.6 1c0 0-1.8 1.5-3.2 4.1 c-0.6 1.2-1.2 3.1-1.2 3.1L50.5-7L49.7-8.8z"/><path fill="#FFFFFF" d="M50.5-43.7c0.3 0 0.6 0.1 0.9 0.2l11.7 6.1c0.5 0.3 0.9 0.9 0.9 1.5v14c0 0.5-0.4 1.2-0.9 1.5L57-17.4 c-0.5 0.2-1.2 0.7-1.7 1.1c0 0-1.9 1.5-3.3 4.2C51.4-10.9 50.8-9 50.8-9c-0.2 0.5-0.3 1-0.3 1s-0.1-0.4-0.3-1c0 0-0.6-1.9-1.2-3.2 c-1.4-2.7-3.3-4.2-3.3-4.2c-0.4-0.3-1.2-0.8-1.7-1.1l-6.1-3.1C37.4-20.8 37-21.5 37-22v-14c0-0.6 0.4-1.2 0.9-1.5l11.7-6.1 C49.9-43.7 50.2-43.7 50.5-43.7 M50.5-44.7c-0.5 0-1 0.1-1.3 0.3l-11.7 6.1C36.6-37.9 36-36.9 36-36v14c0 0.9 0.6 1.9 1.4 2.3 l6.1 3.1c0.4 0.2 1.1 0.7 1.5 1c0 0 1.7 1.4 3 3.9c0.6 1.1 1.1 3 1.1 3C49.6-7.4 49.8-7 50.5-7s0.9-0.4 1.2-1.7c0 0 0.6-1.8 1.1-3 c1.3-2.5 3-3.9 3-3.9c0.4-0.3 1.1-0.8 1.5-1l6.1-3.1c0.8-0.4 1.4-1.4 1.4-2.3v-14c0-0.9-0.6-1.9-1.4-2.3l-11.7-6.1 C51.5-44.6 51-44.7 50.5-44.7L50.5-44.7z"/></g><g><path fill="#FFFFFF" d="M61-24c0 0.6-0.4 1.2-0.9 1.4l-8.7 4.1c-0.5 0.2-1.3 0.2-1.8 0l-8.7-4.1C40.4-22.8 40-23.5 40-24v-10 c0-0.5 0.4-1.2 0.9-1.4l8.7-4.1c0.5-0.2 1.3-0.2 1.8 0l8.7 4.1c0.5 0.2 0.9 0.9 0.9 1.4V-24z"/></g><g><path fill="#F89C1C" stroke="#FFFFFF" stroke-miterlimit="10" d="M85.7-8.8c0 0-0.6-1.9-1.2-3.1c-1.4-2.6-3.1-4.1-3.2-4.1 c-0.4-0.3-1.1-0.8-1.6-1l-6.1-3.1c-0.7-0.3-1.2-1.2-1.2-1.9v-14c0-0.7 0.5-1.6 1.2-1.9L85.4-44c0.3-0.2 0.7-0.2 1.1-0.2 s0.8 0.1 1.1 0.2l11.7 6.1c0.6 0.3 1.2 1.2 1.2 1.9v14c0 0.7-0.5 1.6-1.2 1.9L93.2-17c-0.5 0.2-1.2 0.7-1.6 1c0 0-1.8 1.5-3.2 4.1 c-0.6 1.2-1.2 3.1-1.2 3.1L86.5-7L85.7-8.8z"/><path fill="#FFFFFF" d="M86.5-43.7c0.3 0 0.6 0.1 0.9 0.2l11.7 6.1c0.5 0.3 0.9 0.9 0.9 1.5v14c0 0.5-0.4 1.2-0.9 1.5L93-17.4 c-0.5 0.2-1.2 0.7-1.7 1.1c0 0-1.9 1.5-3.3 4.2C87.4-10.9 86.8-9 86.8-9c-0.2 0.5-0.3 1-0.3 1s-0.1-0.4-0.3-1c0 0-0.6-1.9-1.2-3.2 c-1.4-2.7-3.3-4.2-3.3-4.2c-0.4-0.3-1.2-0.8-1.7-1.1l-6.1-3.1C73.4-20.8 73-21.5 73-22v-14c0-0.6 0.4-1.2 0.9-1.5l11.7-6.1 C85.9-43.7 86.2-43.7 86.5-43.7 M86.5-44.7c-0.5 0-1 0.1-1.3 0.3l-11.7 6.1C72.6-37.9 72-36.9 72-36v14c0 0.9 0.6 1.9 1.4 2.3 l6.1 3.1c0.4 0.2 1.1 0.7 1.5 1c0 0 1.7 1.4 3 3.9c0.6 1.1 1.1 3 1.1 3C85.6-7.4 85.8-7 86.5-7s0.9-0.4 1.2-1.7c0 0 0.6-1.8 1.1-3 c1.3-2.5 3-3.9 3-3.9c0.4-0.3 1.1-0.8 1.5-1l6.1-3.1c0.8-0.4 1.4-1.4 1.4-2.3v-14c0-0.9-0.6-1.9-1.4-2.3l-11.7-6.1 C87.5-44.6 87-44.7 86.5-44.7L86.5-44.7z"/></g><g><path fill="#FFFFFF" d="M97-24c0 0.6-0.4 1.2-0.9 1.4l-8.7 4.1c-0.5 0.2-1.3 0.2-1.8 0l-8.7-4.1C76.4-22.8 76-23.5 76-24v-10 c0-0.5 0.4-1.2 0.9-1.4l8.7-4.1c0.5-0.2 1.3-0.2 1.8 0l8.7 4.1c0.5 0.2 0.9 0.9 0.9 1.4V-24z"/></g><g><path fill="#F15A5A" stroke="#FFFFFF" stroke-miterlimit="10" d="M121.7-8.8c0 0-0.6-1.9-1.2-3.1c-1.4-2.6-3.1-4.1-3.2-4.1 c-0.4-0.3-1.1-0.8-1.6-1l-6.1-3.1c-0.7-0.3-1.2-1.2-1.2-1.9v-14c0-0.7 0.5-1.6 1.2-1.9l11.7-6.1c0.3-0.2 0.7-0.2 1.1-0.2 s0.8 0.1 1.1 0.2l11.7 6.1c0.6 0.3 1.2 1.2 1.2 1.9v14c0 0.7-0.5 1.6-1.2 1.9l-6.2 3.1c-0.5 0.2-1.2 0.7-1.6 1c0 0-1.8 1.5-3.2 4.1 c-0.6 1.2-1.2 3.1-1.2 3.1L122.5-7L121.7-8.8z"/><path fill="#FFFFFF" d="M122.5-43.7c0.3 0 0.6 0.1 0.9 0.2l11.7 6.1c0.5 0.3 0.9 0.9 0.9 1.5v14c0 0.5-0.4 1.2-0.9 1.5l-6.1 3.1 c-0.5 0.2-1.2 0.7-1.7 1.1c0 0-1.9 1.5-3.3 4.2c-0.6 1.2-1.2 3.2-1.2 3.2c-0.2 0.5-0.3 1-0.3 1s-0.1-0.4-0.3-1c0 0-0.6-1.9-1.2-3.2 c-1.4-2.7-3.3-4.2-3.3-4.2c-0.4-0.3-1.2-0.8-1.7-1.1l-6.1-3.1c-0.5-0.2-0.9-0.9-0.9-1.5v-14c0-0.6 0.4-1.2 0.9-1.5l11.7-6.1 C121.9-43.7 122.2-43.7 122.5-43.7 M122.5-44.7c-0.5 0-1 0.1-1.3 0.3l-11.7 6.1c-0.8 0.4-1.4 1.4-1.4 2.3v14c0 0.9 0.6 1.9 1.4 2.3 l6.1 3.1c0.4 0.2 1.1 0.7 1.5 1c0 0 1.7 1.4 3 3.9c0.6 1.1 1.1 3 1.1 3c0.4 1.3 0.5 1.7 1.2 1.7s0.9-0.4 1.2-1.7c0 0 0.6-1.8 1.1-3 c1.3-2.5 3-3.9 3-3.9c0.4-0.3 1.1-0.8 1.5-1l6.1-3.1c0.8-0.4 1.4-1.4 1.4-2.3v-14c0-0.9-0.6-1.9-1.4-2.3l-11.7-6.1 C123.5-44.6 123-44.7 122.5-44.7L122.5-44.7z"/></g><g><path fill="#FFFFFF" d="M133-24c0 0.6-0.4 1.2-0.9 1.4l-8.7 4.1c-0.5 0.2-1.3 0.2-1.8 0l-8.7-4.1c-0.5-0.2-0.9-0.9-0.9-1.4v-10 c0-0.5 0.4-1.2 0.9-1.4l8.7-4.1c0.5-0.2 1.3-0.2 1.8 0l8.7 4.1c0.5 0.2 0.9 0.9 0.9 1.4V-24z"/></g><g><path fill="#955BA5" stroke="#FFFFFF" stroke-miterlimit="10" d="M157.7-8.8c0 0-0.6-1.9-1.2-3.1c-1.4-2.6-3.1-4.1-3.2-4.1 c-0.4-0.3-1.1-0.8-1.6-1l-6.1-3.1c-0.7-0.3-1.2-1.2-1.2-1.9v-14c0-0.7 0.5-1.6 1.2-1.9l11.7-6.1c0.3-0.2 0.7-0.2 1.1-0.2 s0.8 0.1 1.1 0.2l11.7 6.1c0.6 0.3 1.2 1.2 1.2 1.9v14c0 0.7-0.5 1.6-1.2 1.9l-6.2 3.1c-0.5 0.2-1.2 0.7-1.6 1c0 0-1.8 1.5-3.2 4.1 c-0.6 1.2-1.2 3.1-1.2 3.1L158.5-7L157.7-8.8z"/><path fill="#FFFFFF" d="M158.5-43.7c0.3 0 0.6 0.1 0.9 0.2l11.7 6.1c0.5 0.3 0.9 0.9 0.9 1.5v14c0 0.5-0.4 1.2-0.9 1.5l-6.1 3.1 c-0.5 0.2-1.2 0.7-1.7 1.1c0 0-1.9 1.5-3.3 4.2c-0.6 1.2-1.2 3.2-1.2 3.2c-0.2 0.5-0.3 1-0.3 1s-0.1-0.4-0.3-1c0 0-0.6-1.9-1.2-3.2 c-1.4-2.7-3.3-4.2-3.3-4.2c-0.4-0.3-1.2-0.8-1.7-1.1l-6.1-3.1c-0.5-0.2-0.9-0.9-0.9-1.5v-14c0-0.6 0.4-1.2 0.9-1.5l11.7-6.1 C157.9-43.7 158.2-43.7 158.5-43.7 M158.5-44.7c-0.5 0-1 0.1-1.3 0.3l-11.7 6.1c-0.8 0.4-1.4 1.4-1.4 2.3v14c0 0.9 0.6 1.9 1.4 2.3 l6.1 3.1c0.4 0.2 1.1 0.7 1.5 1c0 0 1.7 1.4 3 3.9c0.6 1.1 1.1 3 1.1 3c0.4 1.3 0.5 1.7 1.2 1.7s0.9-0.4 1.2-1.7c0 0 0.6-1.8 1.1-3 c1.3-2.5 3-3.9 3-3.9c0.4-0.3 1.1-0.8 1.5-1l6.1-3.1c0.8-0.4 1.4-1.4 1.4-2.3v-14c0-0.9-0.6-1.9-1.4-2.3l-11.7-6.1 C159.5-44.6 159-44.7 158.5-44.7L158.5-44.7z"/></g><g><path fill="#FFFFFF" d="M169-24c0 0.6-0.4 1.2-0.9 1.4l-8.7 4.1c-0.5 0.2-1.3 0.2-1.8 0l-8.7-4.1c-0.5-0.2-0.9-0.9-0.9-1.4v-10 c0-0.5 0.4-1.2 0.9-1.4l8.7-4.1c0.5-0.2 1.3-0.2 1.8 0l8.7 4.1c0.5 0.2 0.9 0.9 0.9 1.4V-24z"/></g><g><path fill="#2D95BF" d="M-190.3-8.8c0 0-0.6-1.9-1.2-3.1c-1.4-2.6-3.1-4.1-3.2-4.1c-0.4-0.3-1.1-0.8-1.6-1l-6.1-3.1 c-0.7-0.3-1.2-1.2-1.2-1.9v-14c0-0.7 0.5-1.6 1.2-1.9l11.7-6.1c0.3-0.2 0.7-0.2 1.1-0.2s0.8 0.1 1.1 0.2l11.7 6.1 c0.6 0.3 1.2 1.2 1.2 1.9v14c0 0.7-0.5 1.6-1.2 1.9l-6.2 3.1c-0.5 0.2-1.2 0.7-1.6 1c0 0-1.8 1.5-3.2 4.1c-0.6 1.2-1.2 3.1-1.2 3.1 l-0.8 2.6L-190.3-8.8z"/><path fill="#FFFFFF" d="M-189.5-43.7c0.3 0 0.6 0.1 0.9 0.2l11.7 6.1c0.5 0.3 0.9 0.9 0.9 1.5v14c0 0.5-0.4 1.2-0.9 1.5l-6.1 3.1 c-0.5 0.2-1.2 0.7-1.7 1.1c0 0-1.9 1.5-3.3 4.2c-0.6 1.2-1.2 3.2-1.2 3.2c-0.2 0.5-0.3 1-0.3 1s-0.1-0.4-0.3-1c0 0-0.6-1.9-1.2-3.2 c-1.4-2.7-3.3-4.2-3.3-4.2c-0.4-0.3-1.2-0.8-1.7-1.1l-6.1-3.1c-0.5-0.2-0.9-0.9-0.9-1.5v-14c0-0.6 0.4-1.2 0.9-1.5l11.7-6.1 C-190.1-43.7-189.8-43.7-189.5-43.7 M-189.5-44.7c-0.5 0-1 0.1-1.3 0.3l-11.7 6.1c-0.8 0.4-1.4 1.4-1.4 2.3v14 c0 0.9 0.6 1.9 1.4 2.3l6.1 3.1c0.4 0.2 1.1 0.7 1.5 1c0 0 1.7 1.4 3 3.9c0.6 1.1 1.1 3 1.1 3c0.4 1.3 0.5 1.7 1.2 1.7 s0.9-0.4 1.2-1.7c0 0 0.6-1.8 1.1-3c1.3-2.5 3-3.9 3-3.9c0.4-0.3 1.1-0.8 1.5-1l6.1-3.1c0.8-0.4 1.4-1.4 1.4-2.3v-14 c0-0.9-0.6-1.9-1.4-2.3l-11.7-6.1C-188.5-44.6-189-44.7-189.5-44.7L-189.5-44.7z"/></g><g><path fill="#FFFFFF" d="M-179-24c0 0.6-0.4 1.2-0.9 1.4l-8.7 4.1c-0.5 0.2-1.3 0.2-1.8 0l-8.7-4.1c-0.5-0.2-0.9-0.9-0.9-1.4v-10 c0-0.5 0.4-1.2 0.9-1.4l8.7-4.1c0.5-0.2 1.3-0.2 1.8 0l8.7 4.1c0.5 0.2 0.9 0.9 0.9 1.4V-24z"/></g><path fill-rule="evenodd" clip-rule="evenodd" fill="#2D95BF" d="M-186.8-31.8c0.7 0 1.2-0.3 1.6-0.7c-0.5-0.4-1-0.6-1.6-0.6 c-0.6 0-1.2 0.2-1.6 0.6C-188-32.1-187.4-31.8-186.8-31.8z"/><circle fill-rule="evenodd" clip-rule="evenodd" fill="#2D95BF" cx="-186.8" cy="-34" r="2.2"/><g><g><path fill-rule="evenodd" clip-rule="evenodd" fill="#2D95BF" d="M-190-29.1c-0.7 0.6-1.5 0.9-2.4 0.9s-1.8-0.4-2.4-0.9 c-0.7 0.6-1.1 1.5-1.1 2.5v3.5h7.1v-3.5C-188.9-27.5-189.4-28.4-190-29.1z"/></g><circle fill-rule="evenodd" clip-rule="evenodd" fill="#2D95BF" cx="-192.5" cy="-31.8" r="2.7"/><g><g><path fill-rule="evenodd" clip-rule="evenodd" fill="#2D95BF" d="M-184.2-32.1c-0.6 0.8-1.5 1.3-2.6 1.3c-0.8 0-1.5-0.3-2.1-0.8 c0 0.6-0.2 1.2-0.6 1.8l0.1 0.1c0.9 0.9 1.4 2 1.4 3.3v0.5h4.9v-3.5C-183-30.6-183.5-31.5-184.2-32.1z"/></g></g></g><g><path fill="#2D95BF" d="M1234-522.5c-0.5-0.3-1.3-0.3-1.8 0L787-290.4c-0.5 0.3-0.9 0.9-0.9 1.5v526.5c0 0.5 0.4 1.2 0.9 1.5 l260.9 132.2c0.5 0.2 1.2 0.7 1.7 1.1c0 0 86.8 70.6 133.7 160.4c21.4 40.9 49.6 135.4 49.6 135.4c0.2 0.5 0.3 1 0.3 1 c0 0 0.1-0.4 0.3-1c0 0 28.2-94.4 49.6-135.4c46.9-89.8 133.7-160.4 133.7-160.4c0.4-0.3 1.2-0.8 1.7-1.1L1679.2 239 c0.5-0.2 0.9-0.9 0.9-1.5v-526.5c0-0.6-0.4-1.2-0.9-1.5L1234-522.5z"/></g><g><path fill="#FFFFFF" d="M1580.8 171.3c0 0.5-0.4 1.2-0.9 1.4L1234 337.5c-0.5 0.2-1.3 0.2-1.8 0L886.4 172.8 c-0.5-0.2-0.9-0.9-0.9-1.4V-224c0-0.6 0.4-1.2 0.9-1.4l345.9-164.7c0.5-0.2 1.3-0.2 1.8 0l345.9 164.7c0.5 0.2 0.9 0.9 0.9 1.4 V171.3z"/></g><path fill-rule="evenodd" clip-rule="evenodd" fill="#2D95BF" d="M1323.9-120.3c21.7 0 40.9-9.6 54.3-24.6 c-15-11.9-33.7-19.3-54.3-19.3s-39.3 7.4-54.3 19.3C1282.9-129.9 1302.2-120.3 1323.9-120.3z"/><circle fill-rule="evenodd" clip-rule="evenodd" fill="#2D95BF" cx="1323.9" cy="-193.5" r="73.2"/><g><g><path fill-rule="evenodd" clip-rule="evenodd" fill="#2D95BF" d="M1215.9-29.1c-21.6 19.2-49.8 31.2-80.9 31.2s-59.3-12-80.9-31.2 c-22.2 21.3-36.2 51.1-36.2 84.3v117.1H1252V55.3C1252 22.1 1238.1-7.8 1215.9-29.1z"/></g><path fill-rule="evenodd" clip-rule="evenodd" fill="#2D95BF" d="M1135-208.1c-48.5 0-87.8 39.3-87.8 87.8s39.3 87.8 87.8 87.8 c48.5 0 87.8-39.3 87.8-87.8S1183.5-208.1 1135-208.1z"/><g><g><path fill-rule="evenodd" clip-rule="evenodd" fill="#2D95BF" d="M1408.4-129.8c-19.4 25.7-49.9 42.6-84.5 42.6 c-26.4 0-50.1-10.2-68.7-26.2c-1.2 21.4-7.7 41.3-18.7 58.3l2.3 2.2c29.9 28.7 46.4 67.1 46.4 108.2V73h163.2V-42.9 C1448.4-77.7 1432.7-108.5 1408.4-129.8z"/></g></g></g><g><path fill="#2D95BF" d="M-151.5-7c-0.4 0-0.4-0.4-0.6-1.1c-0.3-0.9-0.8-2.8-1.3-3.7c-1.4-2.7-2.5-3.8-4.1-4.7l-8.4-4.2v-16.6 l14-7.3l14 7.3v16.6l-8 4.2c-1.6 0.9-2.3 1.9-3.7 4.6c-0.5 0.9-1 2.9-1.2 3.8C-151.1-7.5-151.1-7-151.5-7C-151.5-7-151.5-7-151.5-7 z"/><path fill="#FFFFFF" d="M-151.5-44l13.5 7v16l-7.9 4c-1.8 1-2.6 2.1-4.1 4.9c-0.6 1.2-1.5 4.1-1.5 4.1h0h0h0c0 0-0.9-2.9-1.5-4.1 c-1.4-2.7-2.3-3.8-4.1-4.9l-7.9-4v-16L-151.5-44 M-151.5-45.1l-0.5 0.2l-13.5 7l-0.5 0.3v0.6v16v0.6l0.5 0.3l7.9 4 c1.5 0.9 2.3 1.8 3.7 4.4c0.4 0.8 1 2.7 1.3 3.5c0.2 0.6 0.4 1.2 1.1 1.2c0 0 0 0 0 0c0.7 0 0.9-0.6 1.1-1.2 c0.3-0.8 0.8-2.6 1.3-3.5c1.4-2.6 2.1-3.6 3.7-4.4l7.9-4l0.5-0.3V-21v-16v-0.6l-0.5-0.3l-13.5-7L-151.5-45.1L-151.5-45.1z"/></g><g><polygon fill="#FFFFFF" points="-141,-23 -151.5,-18 -162,-23 -162,-35 -151.5,-40 -141,-35"/></g><path fill-rule="evenodd" clip-rule="evenodd" fill="#2D95BF" d="M-148.8-31.8c0.7 0 1.2-0.3 1.6-0.7c-0.5-0.4-1-0.6-1.6-0.6 c-0.6 0-1.2 0.2-1.6 0.6C-150-32.1-149.4-31.8-148.8-31.8z"/><circle fill-rule="evenodd" clip-rule="evenodd" fill="#2D95BF" cx="-148.8" cy="-34" r="2.2"/><g><g><path fill-rule="evenodd" clip-rule="evenodd" fill="#2D95BF" d="M-152-29.1c-0.7 0.6-1.5 0.9-2.4 0.9s-1.8-0.4-2.4-0.9 c-0.7 0.6-1.1 1.5-1.1 2.5v3.5h7.1v-3.5C-150.9-27.5-151.4-28.4-152-29.1z"/></g><circle fill-rule="evenodd" clip-rule="evenodd" fill="#2D95BF" cx="-154.5" cy="-31.8" r="2.7"/><g><g><path fill-rule="evenodd" clip-rule="evenodd" fill="#2D95BF" d="M-146.2-32.1c-0.6 0.8-1.5 1.3-2.6 1.3c-0.8 0-1.5-0.3-2.1-0.8 c0 0.6-0.2 1.2-0.6 1.8l0.1 0.1c0.9 0.9 1.4 2 1.4 3.3v0.5h4.9v-3.5C-145-30.6-145.5-31.5-146.2-32.1z"/></g></g></g><g><path fill-rule="evenodd" clip-rule="evenodd" fill="#2D95BF" d="M-108.5-25.5v-4c0-2.2 1.8-4 4-4s4 1.8 4 4v4H-108.5z"/><path fill="#FFFFFF" d="M-104.5-33c1.9 0 3.5 1.6 3.5 3.5v3.5h-7v-3.5C-108-31.4-106.4-33-104.5-33 M-104.5-34 c-2.5 0-4.5 2-4.5 4.5v3.5v1h1h7h1v-1v-3.5C-100-32-102-34-104.5-34L-104.5-34z"/></g><path fill-rule="evenodd" clip-rule="evenodd" fill="#2D95BF" d="M-104.8-31.8c0.7 0 1.2-0.3 1.6-0.7c-0.5-0.4-1-0.6-1.6-0.6 s-1.2 0.2-1.6 0.6C-106-32.1-105.4-31.8-104.8-31.8z"/><circle fill-rule="evenodd" clip-rule="evenodd" fill="#2D95BF" cx="-104.8" cy="-34" r="2.2"/><g><circle fill-rule="evenodd" clip-rule="evenodd" fill="#2BB673" cx="-104.8" cy="-34" r="2.7"/><path fill="#FFFFFF" d="M-104.8-36.3c1.2 0 2.2 1 2.2 2.2c0 1.2-1 2.2-2.2 2.2s-2.2-1-2.2-2.2C-107-35.3-106-36.3-104.8-36.3 M-104.8-37.3c-1.8 0-3.2 1.4-3.2 3.2c0 1.8 1.4 3.2 3.2 3.2s3.2-1.4 3.2-3.2C-101.5-35.8-103-37.3-104.8-37.3L-104.8-37.3z"/></g><g><g><path fill-rule="evenodd" clip-rule="evenodd" fill="#2D95BF" d="M-108-29.1c-0.7 0.6-1.5 0.9-2.4 0.9c-0.9 0-1.8-0.4-2.4-0.9 c-0.7 0.6-1.1 1.5-1.1 2.5v3.5h7.1v-3.5C-106.9-27.5-107.4-28.4-108-29.1z"/></g><circle fill-rule="evenodd" clip-rule="evenodd" fill="#2D95BF" cx="-110.5" cy="-31.8" r="2.7"/></g><g><path fill-rule="evenodd" clip-rule="evenodd" fill="#2D95BF" d="M-115.5-113.1l1-0.5v-4.3c0-1.2-0.5-2.3-1.4-3 c-0.7 0.6-1.6 1-2.6 1s-1.9-0.4-2.6-1c-0.8 0.7-1.4 1.8-1.4 3v1.2L-115.5-113.1L-115.5-113.1z"/></g><g><path fill="#4EBA6F" d="M13.5-101.5c-0.4 0-0.4-0.2-0.6-0.8c-0.3-0.9-0.8-2.7-1.3-3.5c-1.4-2.7-2.3-3.7-3.9-4.7l-7.2-4.2v-14.5 l13-7.3l13 7.3v14.5l-7.2 4.2c-1.6 0.9-2.4 1.9-3.9 4.7c-0.5 0.9-1 2.7-1.3 3.6C13.9-101.7 13.9-101.5 13.5-101.5 C13.5-101.5 13.5-101.5 13.5-101.5z"/><path fill="#FFFFFF" d="M13.5-136l12.5 7v14l-6.9 4c-1.8 1-2.6 2.1-4.1 4.9c-0.6 1.2-1.5 4.1-1.5 4.1l0 0h0l0 0 c0 0-0.9-2.9-1.5-4.1c-1.4-2.7-2.3-3.8-4.1-4.9L1-115v-14L13.5-136 M13.5-137.1l-0.5 0.3l-12.5 7L0-129.5v0.6v14v0.6l0.5 0.3l6.9 4 c1.5 0.9 2.3 1.8 3.7 4.5c0.4 0.8 1 2.7 1.3 3.5c0.2 0.6 0.4 1.2 1.1 1.2c0 0 0 0 0 0c0.7 0 0.9-0.6 1.1-1.2 c0.3-0.8 0.8-2.6 1.3-3.5c1.4-2.7 2.1-3.6 3.7-4.5l6.9-4l0.5-0.3v-0.6v-14v-0.6l-0.5-0.3l-12.5-7L13.5-137.1L13.5-137.1z"/></g><g><polygon fill="#FFFFFF" points="23,-117 13.5,-112 4,-117 4,-127 13.5,-132 23,-127"/></g><g><path fill="#F0C419" d="M48.5-101.5c-0.4 0-0.4-0.2-0.6-0.8c-0.3-0.9-0.8-2.7-1.3-3.5c-1.4-2.7-2.3-3.7-3.9-4.7l-7.2-4.2v-14.5 l13-7.3l13 7.3v14.5l-7.2 4.2c-1.6 0.9-2.4 1.9-3.9 4.7c-0.5 0.9-1 2.7-1.3 3.6C48.9-101.7 48.9-101.5 48.5-101.5 C48.5-101.5 48.5-101.5 48.5-101.5z"/><path fill="#FFFFFF" d="M48.5-136l12.5 7v14l-6.9 4c-1.8 1-2.6 2.1-4.1 4.9c-0.6 1.2-1.5 4.1-1.5 4.1l0 0h0l0 0 c0 0-0.9-2.9-1.5-4.1c-1.4-2.7-2.3-3.8-4.1-4.9l-6.9-4v-14L48.5-136 M48.5-137.1l-0.5 0.3l-12.5 7l-0.5 0.3v0.6v14v0.6l0.5 0.3 l6.9 4c1.5 0.9 2.3 1.8 3.7 4.5c0.4 0.8 1 2.7 1.3 3.5c0.2 0.6 0.4 1.2 1.1 1.2c0 0 0 0 0 0c0.7 0 0.9-0.6 1.1-1.2 c0.3-0.8 0.8-2.6 1.3-3.5c1.4-2.7 2.1-3.6 3.7-4.5l6.9-4l0.5-0.3v-0.6v-14v-0.6l-0.5-0.3l-12.5-7L48.5-137.1L48.5-137.1z"/></g><g><polygon fill="#FFFFFF" points="58,-117 48.5,-112 39,-117 39,-127 48.5,-132 58,-127"/></g><path fill-rule="evenodd" clip-rule="evenodd" fill="#4EBA6F" d="M19.7-118.2c-1.7 0-4.3 0.1-5.6 0.9v-0.4v-6.5c0-0.6 1-1.8 5.6-1.8 V-118.2z M7.3-126.1c0.5 0 5.4 0.5 5.6 1.6c0 0.1 0 0.1 0 0.2v6.5v0.4c-1.4-0.8-3.9-0.9-5.6-0.9V-126.1z M13.5-124.5 c0-2.3-5.3-2.5-7.5-2.5v0.9v8.4v0.7h0.8h0.5v1c1.9 0 5.6-0.5 5.6 0.9h1.3c0-1.5 3.7-0.9 5.6-0.9v-1h1.1l0.2 0.1V-127 C18.7-127 13.5-126.7 13.5-124.5z"/><g><path fill="#4EBA6F" d="M13.5-55.5c-0.4 0-0.4-0.2-0.6-0.8c-0.3-0.9-0.8-2.7-1.3-3.5c-1.4-2.7-2.3-3.7-3.9-4.7l-7.2-4.2v-14.5 l13-7.3l13 7.3v14.5l-7.2 4.2c-1.6 0.9-2.4 1.9-3.9 4.7c-0.5 0.9-1 2.7-1.3 3.6C13.9-55.7 13.9-55.5 13.5-55.5 C13.5-55.5 13.5-55.5 13.5-55.5z"/><path fill="#FFFFFF" d="M13.5-90L26-83v14l-6.9 4c-1.8 1-2.6 2.1-4.1 4.9c-0.6 1.2-1.5 4.1-1.5 4.1l0 0h0l0 0c0 0-0.9-2.9-1.5-4.1 C10.6-62.8 9.7-64 7.9-65L1-69v-14L13.5-90 M13.5-91.1L13-90.9l-12.5 7L0-83.5v0.6v14v0.6l0.5 0.3l6.9 4c1.5 0.9 2.3 1.8 3.7 4.5 c0.4 0.8 1 2.7 1.3 3.5c0.2 0.6 0.4 1.2 1.1 1.2c0 0 0 0 0 0c0.7 0 0.9-0.6 1.1-1.2c0.3-0.8 0.8-2.6 1.3-3.5 c1.4-2.7 2.1-3.6 3.7-4.5l6.9-4l0.5-0.3V-69v-14v-0.6l-0.5-0.3l-12.5-7L13.5-91.1L13.5-91.1z"/></g><g><polygon fill="#FFFFFF" points="23,-71 13.5,-66 4,-71 4,-81 13.5,-86 23,-81"/></g><path fill-rule="evenodd" clip-rule="evenodd" fill="#4EBA6F" d="M19.7-72.2c-1.7 0-4.3 0.1-5.6 0.9v-0.4v-6.5c0-0.6 1-1.8 5.6-1.8 V-72.2z M7.3-80.1c0.5 0 5.4 0.5 5.6 1.6c0 0.1 0 0.1 0 0.2v6.5v0.4c-1.4-0.8-3.9-0.9-5.6-0.9V-80.1z M13.5-78.5 c0-2.3-5.3-2.5-7.5-2.5v0.9v8.4v0.7h0.8h0.5v1c1.9 0 5.6-0.5 5.6 0.9h1.3c0-1.5 3.7-0.9 5.6-0.9v-1h1.1l0.2 0.1V-81 C18.7-81 13.5-80.7 13.5-78.5z"/><path fill-rule="evenodd" clip-rule="evenodd" fill="#4EBA6F" d="M20.7-26.1c-1.7 0-4.3 0.1-5.6 0.9v-0.4v-6.5c0-0.6 1-1.8 5.6-1.8 V-26.1z M8.3-33.9c0.5 0 5.4 0.5 5.6 1.6c0 0.1 0 0.1 0 0.2v6.5v0.4c-1.4-0.8-3.9-0.9-5.6-0.9V-33.9z M14.5-32.3 c0-2.3-5.3-2.5-7.5-2.5v0.9v8.4v0.7h0.8h0.5v1c1.9 0 5.6-0.5 5.6 0.9h1.3c0-1.5 3.7-0.9 5.6-0.9v-1h1.1l0.2 0.1v-10.1 C19.7-34.9 14.5-34.6 14.5-32.3z"/><g><path fill="#85C440" d="M13.7 36.2c0 0-0.6-1.9-1.2-3.1c-1.4-2.6-3.1-4.1-3.2-4.1c-0.4-0.3-1.1-0.8-1.6-1l-6.1-3.1 C1 24.6 0.5 23.7 0.5 23V9c0-0.7 0.5-1.6 1.2-1.9L13.4 1c0.3-0.2 0.7-0.2 1.1-0.2s0.8 0.1 1.1 0.2l11.7 6.1C28 7.5 28.5 8.3 28.5 9 v14c0 0.7-0.5 1.6-1.2 1.9L21.2 28c-0.5 0.2-1.2 0.7-1.6 1c0 0-1.8 1.5-3.2 4.1c-0.6 1.2-1.2 3.1-1.2 3.1L14.5 38L13.7 36.2z"/><path fill="#FFFFFF" d="M14.5 1.3c0.3 0 0.6 0.1 0.9 0.2l11.7 6.1C27.6 7.8 28 8.5 28 9v14c0 0.5-0.4 1.2-0.9 1.5L21 27.6 c-0.5 0.2-1.2 0.7-1.7 1.1c0 0-1.9 1.5-3.3 4.2c-0.6 1.2-1.2 3.2-1.2 3.2c-0.2 0.5-0.3 1-0.3 1s-0.1-0.4-0.3-1c0 0-0.6-1.9-1.2-3.2 c-1.4-2.7-3.3-4.2-3.3-4.2c-0.4-0.3-1.2-0.8-1.7-1.1l-6.1-3.1C1.4 24.2 1 23.5 1 23V9c0-0.6 0.4-1.2 0.9-1.5l11.7-6.1 C13.9 1.3 14.2 1.3 14.5 1.3 M14.5 0.3c-0.5 0-1 0.1-1.3 0.3L1.4 6.7C0.6 7.1 0 8.1 0 9v14c0 0.9 0.6 1.9 1.4 2.3l6.1 3.1 c0.4 0.2 1.1 0.7 1.5 1c0 0 1.7 1.4 3 3.9c0.6 1.1 1.1 3 1.1 3c0.4 1.3 0.5 1.7 1.2 1.7s0.9-0.4 1.2-1.7c0 0 0.6-1.8 1.1-3 c1.3-2.5 3-3.9 3-3.9c0.4-0.3 1.1-0.8 1.5-1l6.1-3.1c0.8-0.4 1.4-1.4 1.4-2.3V9c0-0.9-0.6-1.9-1.4-2.3L15.8 0.6 C15.5 0.4 15 0.3 14.5 0.3L14.5 0.3z"/></g><g><path fill="#FFFFFF" d="M25 21c0 0.6-0.4 1.2-0.9 1.4l-8.7 4.1c-0.5 0.2-1.3 0.2-1.8 0l-8.7-4.1C4.4 22.2 4 21.5 4 21V11 c0-0.6 0.4-1.2 0.9-1.4l8.7-4.1c0.5-0.2 1.3-0.2 1.8 0l8.7 4.1C24.6 9.8 25 10.4 25 11V21z"/></g><path fill-rule="evenodd" clip-rule="evenodd" fill="#F0C419" d="M44-117.2c-1.4 0-2.5-1.1-2.5-2.5c0-1.4 1.1-2.5 2.5-2.5 c1.4 0 2.5 1.1 2.5 2.5C46.5-118.3 45.4-117.2 44-117.2z M41-119.7c0 1.7 1.4 3 3 3c1.7 0 3-1.4 3-3c0-1.7-1.4-3-3-3 C42.3-122.7 41-121.4 41-119.7z M52.9-117.2c-1.4 0-2.5-1.1-2.5-2.5s1.1-2.5 2.5-2.5c1.4 0 2.5 1.1 2.5 2.5S54.3-117.2 52.9-117.2z M49.9-119.7c0 1.7 1.4 3 3 3c1.7 0 3-1.4 3-3c0-1.7-1.4-3-3-3C51.2-122.7 49.9-121.4 49.9-119.7z M49.9-127.1 c0.6 0 1.1-0.5 1.1-1.1s-0.5-1.1-1.1-1.1c-0.6 0-1.1 0.5-1.1 1.1C48.7-127.6 49.3-127.1 49.9-127.1z M49.9-124.2h2.2 c0.7 0 0.7-1.2 0-1.2h-1.9l-1.3-2c0 0-0.3-0.3-0.8-0.3c0 0-0.4-0.1-0.7 0.3l-2.4 2.4c-0.1 0.2-0.2 0.4-0.2 0.6 c0 0.4 0.3 0.7 0.6 0.8l2.5 1.4v2.6c0 0.4 0.2 0.7 0.6 0.7c0.4 0 0.6-0.3 0.6-0.7v-3.2c0 0 0.1-0.5-0.5-0.8l-1.3-0.7l1.5-1.5 l0.7 1.2C49.6-124.4 49.8-124.1 49.9-124.2z"/><g><path fill="#F0C419" d="M48.5-55.5c-0.4 0-0.4-0.2-0.6-0.8c-0.3-0.9-0.8-2.7-1.3-3.5c-1.4-2.7-2.3-3.7-3.9-4.7l-7.2-4.2v-14.5 l13-7.3l13 7.3v14.5l-7.2 4.2c-1.6 0.9-2.4 1.9-3.9 4.7c-0.5 0.9-1 2.7-1.3 3.6C48.9-55.7 48.9-55.5 48.5-55.5 C48.5-55.5 48.5-55.5 48.5-55.5z"/><path fill="#FFFFFF" d="M48.5-90L61-83v14l-6.9 4c-1.8 1-2.6 2.1-4.1 4.9c-0.6 1.2-1.5 4.1-1.5 4.1l0 0h0l0 0c0 0-0.9-2.9-1.5-4.1 c-1.4-2.7-2.3-3.8-4.1-4.9L36-69v-14L48.5-90 M48.5-91.1L48-90.9l-12.5 7L35-83.5v0.6v14v0.6l0.5 0.3l6.9 4 c1.5 0.9 2.3 1.8 3.7 4.5c0.4 0.8 1 2.7 1.3 3.5c0.2 0.6 0.4 1.2 1.1 1.2c0 0 0 0 0 0c0.7 0 0.9-0.6 1.1-1.2 c0.3-0.8 0.8-2.6 1.3-3.5c1.4-2.7 2.1-3.6 3.7-4.5l6.9-4l0.5-0.3V-69v-14v-0.6l-0.5-0.3l-12.5-7L48.5-91.1L48.5-91.1z"/></g><g><polygon fill="#FFFFFF" points="58,-71 48.5,-66 39,-71 39,-81 48.5,-86 58,-81"/></g><path fill-rule="evenodd" clip-rule="evenodd" fill="#F0C419" d="M44-71.2c-1.4 0-2.5-1.1-2.5-2.5c0-1.4 1.1-2.5 2.5-2.5 c1.4 0 2.5 1.1 2.5 2.5C46.5-72.3 45.4-71.2 44-71.2z M41-73.7c0 1.7 1.4 3 3 3c1.7 0 3-1.4 3-3c0-1.7-1.4-3-3-3 C42.3-76.7 41-75.4 41-73.7z M52.9-71.2c-1.4 0-2.5-1.1-2.5-2.5s1.1-2.5 2.5-2.5c1.4 0 2.5 1.1 2.5 2.5S54.3-71.2 52.9-71.2z M49.9-73.7c0 1.7 1.4 3 3 3c1.7 0 3-1.4 3-3c0-1.7-1.4-3-3-3C51.2-76.7 49.9-75.4 49.9-73.7z M49.9-81.1c0.6 0 1.1-0.5 1.1-1.1 s-0.5-1.1-1.1-1.1c-0.6 0-1.1 0.5-1.1 1.1C48.7-81.6 49.3-81.1 49.9-81.1z M49.9-78.2h2.2c0.7 0 0.7-1.2 0-1.2h-1.9l-1.3-2 c0 0-0.3-0.3-0.8-0.3c0 0-0.4-0.1-0.7 0.3l-2.4 2.4c-0.1 0.2-0.2 0.4-0.2 0.6c0 0.4 0.3 0.7 0.6 0.8l2.5 1.4v2.6 c0 0.4 0.2 0.7 0.6 0.7c0.4 0 0.6-0.3 0.6-0.7v-3.2c0 0 0.1-0.5-0.5-0.8l-1.3-0.7l1.5-1.5l0.7 1.2C49.6-78.4 49.8-78.1 49.9-78.2z"/><path fill-rule="evenodd" clip-rule="evenodd" fill="#F0C419" d="M46-23.6c-1.4 0-2.5-1.1-2.5-2.5c0-1.4 1.1-2.5 2.5-2.5 c1.4 0 2.5 1.1 2.5 2.5C48.5-24.7 47.4-23.6 46-23.6z M43-26.1c0 1.7 1.4 3 3 3c1.7 0 3-1.4 3-3c0-1.7-1.4-3-3-3 C44.4-29.1 43-27.7 43-26.1z M55-23.6c-1.4 0-2.5-1.1-2.5-2.5c0-1.4 1.1-2.5 2.5-2.5c1.4 0 2.5 1.1 2.5 2.5 C57.4-24.7 56.3-23.6 55-23.6z M51.9-26c0 1.7 1.4 3 3 3c1.7 0 3-1.4 3-3c0-1.7-1.4-3-3-3C53.3-29.1 51.9-27.7 51.9-26z M51.9-33.4 c0.6 0 1.1-0.5 1.1-1.1s-0.5-1.1-1.1-1.1c-0.6 0-1.1 0.5-1.1 1.1C50.8-33.9 51.3-33.4 51.9-33.4z M52-30.5h2.2c0.7 0 0.7-1.2 0-1.2 h-1.9l-1.3-2c0 0-0.3-0.3-0.8-0.3c0 0-0.4-0.1-0.7 0.3l-2.4 2.4c-0.1 0.2-0.2 0.4-0.2 0.6c0 0.4 0.3 0.7 0.6 0.8l2.5 1.4v2.6 c0 0.4 0.2 0.7 0.6 0.7c0.4 0 0.6-0.3 0.6-0.7v-3.2c0 0 0.1-0.5-0.5-0.8l-1.3-0.7l1.5-1.5l0.7 1.2C51.6-30.7 51.8-30.5 52-30.5z"/><g><path fill="#F89C1C" d="M83.5-101.5c-0.4 0-0.4-0.2-0.6-0.8c-0.3-0.9-0.8-2.7-1.3-3.5c-1.4-2.7-2.3-3.7-3.9-4.7l-7.2-4.2v-14.5 l13-7.3l13 7.3v14.5l-7.2 4.2c-1.6 0.9-2.4 1.9-3.9 4.7c-0.5 0.9-1 2.7-1.3 3.6C83.9-101.7 83.9-101.5 83.5-101.5 C83.5-101.5 83.5-101.5 83.5-101.5z"/><path fill="#FFFFFF" d="M83.5-136l12.5 7v14l-6.9 4c-1.8 1-2.6 2.1-4.1 4.9c-0.6 1.2-1.5 4.1-1.5 4.1l0 0h0l0 0 c0 0-0.9-2.9-1.5-4.1c-1.4-2.7-2.3-3.8-4.1-4.9l-6.9-4v-14L83.5-136 M83.5-137.1l-0.5 0.3l-12.5 7l-0.5 0.3v0.6v14v0.6l0.5 0.3 l6.9 4c1.5 0.9 2.3 1.8 3.7 4.5c0.4 0.8 1 2.7 1.3 3.5c0.2 0.6 0.4 1.2 1.1 1.2c0 0 0 0 0 0c0.7 0 0.9-0.6 1.1-1.2 c0.3-0.8 0.8-2.6 1.3-3.5c1.4-2.7 2.1-3.6 3.7-4.5l6.9-4l0.5-0.3v-0.6v-14v-0.6l-0.5-0.3l-12.5-7L83.5-137.1L83.5-137.1z"/></g><g><polygon fill="#FFFFFF" points="93,-117 83.5,-112 74,-117 74,-127 83.5,-132 93,-127"/></g><g><g><path fill-rule="evenodd" clip-rule="evenodd" fill="#F89C1C" d="M86.9-119.5c1.7-2 5-5.9 4.4-6.4c-0.6-0.5-4.2 3-6.1 4.9 L86.9-119.5z"/><path fill-rule="evenodd" clip-rule="evenodd" fill="#F89C1C" d="M84.9-120.7c-0.4 0.4-0.7 0.7-0.7 0.7l1.7 1.6 c0 0 0.2-0.3 0.6-0.7L84.9-120.7z"/></g><path fill-rule="evenodd" clip-rule="evenodd" fill="#F89C1C" d="M80.6-115c5.6 0.6 4.8-2.8 4.8-2.8l-1.7-1.6c0 0-1.2 0.1-1.5 1 C81.5-116.6 81.9-114.9 80.6-115z"/></g><path fill="#F89C1C" d="M76.5-125.8l1.6 4.2c0-0.1-0.5-0.2-0.8-0.1c-0.9 0.3-1.1 1.1-0.9 1.5c0.2 0.6 0.9 1.2 1.8 0.8 c0.9-0.3 0.9-1.3 0.8-1.8l-1.2-3.2l3.3-2l1.2 3.2c0-0.1-0.5-0.2-0.8-0.1c-0.9 0.3-1.1 1.1-0.9 1.5c0.2 0.6 0.9 1.2 1.8 0.8 c0.9-0.3 0.9-1.3 0.8-1.8l-2.1-5.5L76.5-125.8z"/><g><path fill="#F89C1C" d="M83.5-55.5c-0.4 0-0.4-0.2-0.6-0.8c-0.3-0.9-0.8-2.7-1.3-3.5c-1.4-2.7-2.3-3.7-3.9-4.7l-7.2-4.2v-14.5 l13-7.3l13 7.3v14.5l-7.2 4.2c-1.6 0.9-2.4 1.9-3.9 4.7c-0.5 0.9-1 2.7-1.3 3.6C83.9-55.7 83.9-55.5 83.5-55.5 C83.5-55.5 83.5-55.5 83.5-55.5z"/><path fill="#FFFFFF" d="M83.5-90L96-83v14l-6.9 4c-1.8 1-2.6 2.1-4.1 4.9c-0.6 1.2-1.5 4.1-1.5 4.1l0 0h0l0 0c0 0-0.9-2.9-1.5-4.1 c-1.4-2.7-2.3-3.8-4.1-4.9L71-69v-14L83.5-90 M83.5-91.1L83-90.9l-12.5 7L70-83.5v0.6v14v0.6l0.5 0.3l6.9 4 c1.5 0.9 2.3 1.8 3.7 4.5c0.4 0.8 1 2.7 1.3 3.5c0.2 0.6 0.4 1.2 1.1 1.2c0 0 0 0 0 0c0.7 0 0.9-0.6 1.1-1.2 c0.3-0.8 0.8-2.6 1.3-3.5c1.4-2.7 2.1-3.6 3.7-4.5l6.9-4l0.5-0.3V-69v-14v-0.6l-0.5-0.3l-12.5-7L83.5-91.1L83.5-91.1z"/></g><g><polygon fill="#FFFFFF" points="93,-71 83.5,-66 74,-71 74,-81 83.5,-86 93,-81"/></g><g><g><g><path fill-rule="evenodd" clip-rule="evenodd" fill="#F89C1C" d="M86.9-73.5c1.7-2 5-5.9 4.4-6.4c-0.6-0.5-4.2 3-6.1 4.9 L86.9-73.5z"/><path fill-rule="evenodd" clip-rule="evenodd" fill="#F89C1C" d="M84.9-74.7c-0.4 0.4-0.7 0.7-0.7 0.7l1.7 1.6 c0 0 0.2-0.3 0.6-0.7L84.9-74.7z"/></g><path fill-rule="evenodd" clip-rule="evenodd" fill="#F89C1C" d="M80.6-69c5.6 0.6 4.8-2.8 4.8-2.8l-1.7-1.6c0 0-1.2 0.1-1.5 1 C81.5-70.6 81.9-68.9 80.6-69z"/></g><path fill="#F89C1C" d="M76.5-79.8l1.6 4.2c0-0.1-0.5-0.2-0.8-0.1c-0.9 0.3-1.1 1.1-0.9 1.5c0.2 0.6 0.9 1.2 1.8 0.8 c0.9-0.3 0.9-1.3 0.8-1.8l-1.2-3.2l3.3-2l1.2 3.2c0-0.1-0.5-0.2-0.8-0.1c-0.9 0.3-1.1 1.1-0.9 1.5c0.2 0.6 0.9 1.2 1.8 0.8 c0.9-0.3 0.9-1.3 0.8-1.8l-2.1-5.5L76.5-79.8z"/></g><g><g><g><path fill-rule="evenodd" clip-rule="evenodd" fill="#F89C1C" d="M89.5-26.5c1.7-2 5-5.9 4.4-6.4c-0.6-0.5-4.2 3-6.1 4.9 L89.5-26.5z"/><path fill-rule="evenodd" clip-rule="evenodd" fill="#F89C1C" d="M87.6-27.8c-0.4 0.4-0.7 0.7-0.7 0.7l1.7 1.6 c0 0 0.2-0.3 0.6-0.7L87.6-27.8z"/></g><path fill-rule="evenodd" clip-rule="evenodd" fill="#F89C1C" d="M83.3-22.1c5.6 0.6 4.8-2.8 4.8-2.8l-1.7-1.6c0 0-1.2 0.1-1.5 1 C84.1-23.7 84.5-21.9 83.3-22.1z"/></g><path fill="#F89C1C" d="M79.2-32.8l1.6 4.2c0-0.1-0.5-0.2-0.8-0.1c-0.9 0.3-1.1 1.1-0.9 1.5c0.2 0.6 0.9 1.2 1.8 0.8 c0.9-0.3 0.9-1.3 0.8-1.8l-1.2-3.2l3.3-2l1.2 3.2c0-0.1-0.5-0.2-0.8-0.1c-0.9 0.3-1.1 1.1-0.9 1.5c0.2 0.6 0.9 1.2 1.8 0.8 c0.9-0.3 0.9-1.3 0.8-1.8l-2.1-5.5L79.2-32.8z"/></g><g><path fill="#F15A5A" d="M118.5-101.5c-0.4 0-0.4-0.2-0.6-0.8c-0.3-0.9-0.8-2.7-1.3-3.5c-1.4-2.7-2.3-3.7-3.9-4.7l-7.2-4.2v-14.5 l13-7.3l13 7.3v14.5l-7.2 4.2c-1.6 0.9-2.4 1.9-3.9 4.7c-0.5 0.9-1 2.7-1.3 3.6C118.9-101.7 118.9-101.5 118.5-101.5 C118.5-101.5 118.5-101.5 118.5-101.5z"/><path fill="#FFFFFF" d="M118.5-136l12.5 7v14l-6.9 4c-1.8 1-2.6 2.1-4.1 4.9c-0.6 1.2-1.5 4.1-1.5 4.1l0 0h0l0 0 c0 0-0.9-2.9-1.5-4.1c-1.4-2.7-2.3-3.8-4.1-4.9l-6.9-4v-14L118.5-136 M118.5-137.1l-0.5 0.3l-12.5 7l-0.5 0.3v0.6v14v0.6l0.5 0.3 l6.9 4c1.5 0.9 2.3 1.8 3.7 4.5c0.4 0.8 1 2.7 1.3 3.5c0.2 0.6 0.4 1.2 1.1 1.2c0 0 0 0 0 0c0.7 0 0.9-0.6 1.1-1.2 c0.3-0.8 0.8-2.6 1.3-3.5c1.4-2.7 2.1-3.6 3.7-4.5l6.9-4l0.5-0.3v-0.6v-14v-0.6l-0.5-0.3l-12.5-7L118.5-137.1L118.5-137.1z"/></g><g><polygon fill="#FFFFFF" points="128,-117 118.5,-112 109,-117 109,-127 118.5,-132 128,-127"/></g><g><circle fill="#F15A5A" cx="113.4" cy="-126.5" r="1.1"/><path fill="#F15A5A" d="M123.7-123.8c0.4 0.6 0.9 1.3 0.9 1.4l0.3 0.4l0.3-0.4l1.8-2.1l-0.7-0.3l-1.4 1.6c-0.5-0.8-1.1-1.7-1.2-1.9 l0 0c-0.1-0.1-0.2-0.2-0.3-0.2l-0.9-0.2c-0.1 0-0.3 0-0.4 0.1c0 0-0.1 0.1-0.1 0.1c-0.6 0.3-1.5 0.6-1.5 0.6l-2 0.7l-2-0.7 c0 0-1.1-0.5-1.7-0.7c0 0 0 0 0 0c-0.1-0.1-0.2-0.1-0.4-0.1l-0.9 0.2c-0.1 0-0.2 0.1-0.3 0.2l0 0c-0.1 0.2-0.7 1.1-1.2 1.9 l-1.4-1.6l-0.7 0.3l1.8 2.1l0.3 0.4l0.3-0.4c0.1-0.1 0.6-0.8 1-1.4l0.5 2.1l-1.1 2.6v0.1v0.1l0.4 2.4l-0.7 0.5h1.1l0.5-0.1 l-0.1-0.4l-0.4-2.4l1-2.4c0 0 0 0 0 0l0.9-0.2c0.1 0 0.2-0.1 0.3-0.2c0 0 0 0 0 0c0 0 0-0.2 0-0.4l-0.5-2.3l1.1 0.5 c0 0 2.2 0.6 2.2 0.6l0.1-0.3l0.1 0.3c0 0 2.2-0.7 2.2-0.7l0.9-0.4l-0.4 1.9l0 0l-3.5 2.6c0 0 0.9 0.4 2.1 0.7l-0.9 2.4l0 0v0.1 l0 0l0-0.1l-0.6 0.4l-0.6-0.4v0l0 0l-0.9-2.7l0 0l0 0l-1.1-2c-0.1 0.1-0.2 0.2-0.4 0.3l-0.2 0.1l1.1 2l0 0l0 0.1l0 0l1 2.7l0.1 0.2 h0.3h0.7h0.6h0.7h0.3l0.1-0.2l0.9-2.6c0.9 0.2 1.9 0.3 2.9 0.1l0 0.1l-0.4 2.4l-0.1 0.4l0.4 0.1h1.1l-0.7-0.5l0.4-2.4v-0.1v0 c0.2-0.1 0.5-0.1 0.7-0.2c-0.6-0.8-1.2-1.4-1.6-1.9l-0.2-0.6L123.7-123.8z M117.6-117L117.6-117l0.1 0.1L117.6-117z M119.4-116.9 L119.4-116.9L119.4-116.9L119.4-116.9z"/><circle fill="#F15A5A" cx="123.7" cy="-126.5" r="1.1"/></g><g><path fill="#F15A5A" d="M118.5-55.5c-0.4 0-0.4-0.2-0.6-0.8c-0.3-0.9-0.8-2.7-1.3-3.5c-1.4-2.7-2.3-3.7-3.9-4.7l-7.2-4.2v-14.5 l13-7.3l13 7.3v14.5l-7.2 4.2c-1.6 0.9-2.4 1.9-3.9 4.7c-0.5 0.9-1 2.7-1.3 3.6C118.9-55.7 118.9-55.5 118.5-55.5 C118.5-55.5 118.5-55.5 118.5-55.5z"/><path fill="#FFFFFF" d="M118.5-90l12.5 7v14l-6.9 4c-1.8 1-2.6 2.1-4.1 4.9c-0.6 1.2-1.5 4.1-1.5 4.1l0 0h0l0 0 c0 0-0.9-2.9-1.5-4.1c-1.4-2.7-2.3-3.8-4.1-4.9l-6.9-4v-14L118.5-90 M118.5-91.1l-0.5 0.3l-12.5 7l-0.5 0.3v0.6v14v0.6l0.5 0.3 l6.9 4c1.5 0.9 2.3 1.8 3.7 4.5c0.4 0.8 1 2.7 1.3 3.5c0.2 0.6 0.4 1.2 1.1 1.2c0 0 0 0 0 0c0.7 0 0.9-0.6 1.1-1.2 c0.3-0.8 0.8-2.6 1.3-3.5c1.4-2.7 2.1-3.6 3.7-4.5l6.9-4l0.5-0.3V-69v-14v-0.6l-0.5-0.3l-12.5-7L118.5-91.1L118.5-91.1z"/></g><g><polygon fill="#FFFFFF" points="128,-71 118.5,-66 109,-71 109,-81 118.5,-86 128,-81"/></g><g><circle fill="#F15A5A" cx="113.4" cy="-80.5" r="1.1"/><path fill="#F15A5A" d="M123.7-77.8c0.4 0.6 0.9 1.3 0.9 1.4l0.3 0.4l0.3-0.4l1.8-2.1l-0.7-0.3l-1.4 1.6c-0.5-0.8-1.1-1.7-1.2-1.9 l0 0c-0.1-0.1-0.2-0.2-0.3-0.2l-0.9-0.2c-0.1 0-0.3 0-0.4 0.1c0 0-0.1 0.1-0.1 0.1c-0.6 0.3-1.5 0.6-1.5 0.6l-2 0.7l-2-0.7 c0 0-1.1-0.5-1.7-0.7c0 0 0 0 0 0c-0.1-0.1-0.2-0.1-0.4-0.1l-0.9 0.2c-0.1 0-0.2 0.1-0.3 0.2l0 0c-0.1 0.2-0.7 1.1-1.2 1.9 l-1.4-1.6l-0.7 0.3l1.8 2.1l0.3 0.4l0.3-0.4c0.1-0.1 0.6-0.8 1-1.4l0.5 2.1l-1.1 2.6v0.1v0.1l0.4 2.4l-0.7 0.5h1.1l0.5-0.1 l-0.1-0.4l-0.4-2.4l1-2.4c0 0 0 0 0 0l0.9-0.2c0.1 0 0.2-0.1 0.3-0.2c0 0 0 0 0 0c0 0 0-0.2 0-0.4l-0.5-2.3l1.1 0.5 c0 0 2.2 0.6 2.2 0.6l0.1-0.3l0.1 0.3c0 0 2.2-0.7 2.2-0.7l0.9-0.4l-0.4 1.9l0 0l-3.5 2.6c0 0 0.9 0.4 2.1 0.7l-0.9 2.4l0 0v0.1 l0 0l0-0.1l-0.6 0.4l-0.6-0.4v0l0 0l-0.9-2.7l0 0l0 0l-1.1-2c-0.1 0.1-0.2 0.2-0.4 0.3l-0.2 0.1l1.1 2l0 0l0 0.1l0 0l1 2.7l0.1 0.2 h0.3h0.7h0.6h0.7h0.3l0.1-0.2l0.9-2.6c0.9 0.2 1.9 0.3 2.9 0.1l0 0.1l-0.4 2.4l-0.1 0.4l0.4 0.1h1.1l-0.7-0.5l0.4-2.4V-73v0 c0.2-0.1 0.5-0.1 0.7-0.2c-0.6-0.8-1.2-1.4-1.6-1.9l-0.2-0.6L123.7-77.8z M117.6-71L117.6-71l0.1 0.1L117.6-71z M119.4-70.9 L119.4-70.9L119.4-70.9L119.4-70.9z"/><circle fill="#F15A5A" cx="123.7" cy="-80.5" r="1.1"/></g><g><circle fill="#F15A5A" cx="117.4" cy="-33.9" r="1.1"/><path fill="#F15A5A" d="M127.7-31.2c0.4 0.6 0.9 1.3 0.9 1.4l0.3 0.4l0.3-0.4l1.8-2.1l-0.7-0.3l-1.4 1.6c-0.5-0.8-1.1-1.7-1.2-1.9 l0 0c-0.1-0.1-0.2-0.2-0.3-0.2l-0.9-0.2c-0.1 0-0.3 0-0.4 0.1c0 0-0.1 0.1-0.1 0.1c-0.6 0.3-1.5 0.6-1.5 0.6l-2 0.7l-2-0.7 c0 0-1.1-0.5-1.7-0.7c0 0 0 0 0 0c-0.1-0.1-0.2-0.1-0.4-0.1l-0.9 0.2c-0.1 0-0.2 0.1-0.3 0.2l0 0c-0.1 0.2-0.7 1.1-1.2 1.9 l-1.4-1.6l-0.7 0.3l1.8 2.1l0.3 0.4l0.3-0.4c0.1-0.1 0.6-0.8 1-1.4l0.5 2.1l-1.1 2.6v0.1v0.1l0.4 2.4l-0.7 0.5h1.1l0.5-0.1 l-0.1-0.4l-0.4-2.4l1-2.4c0 0 0 0 0 0l0.9-0.2c0.1 0 0.2-0.1 0.3-0.2c0 0 0 0 0 0c0 0 0-0.2 0-0.4l-0.5-2.3l1.1 0.5 c0 0 2.2 0.6 2.2 0.6l0.1-0.3l0.1 0.3c0 0 2.2-0.7 2.2-0.7l0.9-0.4l-0.4 1.9l0 0l-3.5 2.6c0 0 0.9 0.4 2.1 0.7l-0.9 2.4l0 0v0.1 l0 0l0-0.1l-0.6 0.4l-0.6-0.4v0l0 0l-0.9-2.7l0 0l0 0l-1.1-2c-0.1 0.1-0.2 0.2-0.4 0.3l-0.2 0.1l1.1 2l0 0l0 0.1l0 0l1 2.7l0.1 0.2 h0.3h0.7h0.6h0.7h0.3l0.1-0.2l0.9-2.6c0.9 0.2 1.9 0.3 2.9 0.1l0 0.1l-0.4 2.4l-0.1 0.4l0.4 0.1h1.1l-0.7-0.5l0.4-2.4v-0.1v0 c0.2-0.1 0.5-0.1 0.7-0.2c-0.6-0.8-1.2-1.4-1.6-1.9l-0.2-0.6L127.7-31.2z M121.6-24.4L121.6-24.4l0.1 0.1L121.6-24.4z M123.4-24.3 L123.4-24.3L123.4-24.3L123.4-24.3z"/><circle fill="#F15A5A" cx="127.7" cy="-33.9" r="1.1"/></g><g><path fill="#955BA5" d="M153.5-101.5c-0.4 0-0.4-0.2-0.6-0.8c-0.3-0.9-0.8-2.7-1.3-3.5c-1.4-2.7-2.3-3.7-3.9-4.7l-7.2-4.2v-14.5 l13-7.3l13 7.3v14.5l-7.2 4.2c-1.6 0.9-2.4 1.9-3.9 4.7c-0.5 0.9-1 2.7-1.3 3.6C153.9-101.7 153.9-101.5 153.5-101.5 C153.5-101.5 153.5-101.5 153.5-101.5z"/><path fill="#FFFFFF" d="M153.5-136l12.5 7v14l-6.9 4c-1.8 1-2.6 2.1-4.1 4.9c-0.6 1.2-1.5 4.1-1.5 4.1l0 0h0l0 0 c0 0-0.9-2.9-1.5-4.1c-1.4-2.7-2.3-3.8-4.1-4.9l-6.9-4v-14L153.5-136 M153.5-137.1l-0.5 0.3l-12.5 7l-0.5 0.3v0.6v14v0.6l0.5 0.3 l6.9 4c1.5 0.9 2.3 1.8 3.7 4.5c0.4 0.8 1 2.7 1.3 3.5c0.2 0.6 0.4 1.2 1.1 1.2c0 0 0 0 0 0c0.7 0 0.9-0.6 1.1-1.2 c0.3-0.8 0.8-2.6 1.3-3.5c1.4-2.7 2.1-3.6 3.7-4.5l6.9-4l0.5-0.3v-0.6v-14v-0.6l-0.5-0.3l-12.5-7L153.5-137.1L153.5-137.1z"/></g><g><polygon fill="#FFFFFF" points="163,-117 153.5,-112 144,-117 144,-127 153.5,-132 163,-127"/></g><g><path fill="#955BA5" d="M156-128c-1.2 0-2.2 1.5-2.2 3c0 1.1 0.6 2 1.4 2.3l-0.2 6.2c0 0.6 0.5 1.1 1.1 1.1c0.6 0 1.1-0.5 1.1-1.1 l-0.2-6.2c0.8-0.3 1.3-1.1 1.3-2.3h0C158.2-126.5 157.2-128 156-128z"/><path fill="#955BA5" d="M151.6-125h-0.7v-2.8h-0.7v2.8h-0.7v-2.8h-0.7v3.5v0.7c0 0.4 0.5 0.7 0.9 0.7h0l-0.2 6.3 c0 0.6 0.5 1.1 1.1 1.1c0.6 0 1.1-0.5 1.1-1.1l-0.2-6.3c0.4 0 0.9-0.3 0.9-0.7v-0.7v-3.5h-0.7V-125z"/></g><g><path fill="#955BA5" d="M153.5-55.5c-0.4 0-0.4-0.2-0.6-0.8c-0.3-0.9-0.8-2.7-1.3-3.5c-1.4-2.7-2.3-3.7-3.9-4.7l-7.2-4.2v-14.5 l13-7.3l13 7.3v14.5l-7.2 4.2c-1.6 0.9-2.4 1.9-3.9 4.7c-0.5 0.9-1 2.7-1.3 3.6C153.9-55.7 153.9-55.5 153.5-55.5 C153.5-55.5 153.5-55.5 153.5-55.5z"/><path fill="#FFFFFF" d="M153.5-90l12.5 7v14l-6.9 4c-1.8 1-2.6 2.1-4.1 4.9c-0.6 1.2-1.5 4.1-1.5 4.1l0 0h0l0 0 c0 0-0.9-2.9-1.5-4.1c-1.4-2.7-2.3-3.8-4.1-4.9l-6.9-4v-14L153.5-90 M153.5-91.1l-0.5 0.3l-12.5 7l-0.5 0.3v0.6v14v0.6l0.5 0.3 l6.9 4c1.5 0.9 2.3 1.8 3.7 4.5c0.4 0.8 1 2.7 1.3 3.5c0.2 0.6 0.4 1.2 1.1 1.2c0 0 0 0 0 0c0.7 0 0.9-0.6 1.1-1.2 c0.3-0.8 0.8-2.6 1.3-3.5c1.4-2.7 2.1-3.6 3.7-4.5l6.9-4l0.5-0.3V-69v-14v-0.6l-0.5-0.3l-12.5-7L153.5-91.1L153.5-91.1z"/></g><g><polygon fill="#FFFFFF" points="163,-71 153.5,-66 144,-71 144,-81 153.5,-86 163,-81"/></g><g><path fill="#955BA5" d="M156-82c-1.2 0-2.2 1.5-2.2 3c0 1.1 0.6 2 1.4 2.3l-0.2 6.2c0 0.6 0.5 1.1 1.1 1.1c0.6 0 1.1-0.5 1.1-1.1 l-0.2-6.2c0.8-0.3 1.3-1.1 1.3-2.3h0C158.2-80.5 157.2-82 156-82z"/><path fill="#955BA5" d="M151.6-79h-0.7v-2.8h-0.7v2.8h-0.7v-2.8h-0.7v3.5v0.7c0 0.4 0.5 0.7 0.9 0.7h0l-0.2 6.3 c0 0.6 0.5 1.1 1.1 1.1c0.6 0 1.1-0.5 1.1-1.1l-0.2-6.3c0.4 0 0.9-0.3 0.9-0.7v-0.7v-3.5h-0.7V-79z"/></g><g><path fill="#955BA5" d="M161-35c-1.2 0-2.2 1.5-2.2 3c0 1.1 0.6 2 1.4 2.3l-0.2 6.2c0 0.6 0.5 1.1 1.1 1.1c0.6 0 1.1-0.5 1.1-1.1 l-0.2-6.2c0.8-0.3 1.3-1.1 1.3-2.3h0C163.2-33.5 162.2-35 161-35z"/><path fill="#955BA5" d="M156.6-32h-0.7v-2.8h-0.7v2.8h-0.7v-2.8h-0.7v3.5v0.7c0 0.4 0.5 0.7 0.9 0.7h0l-0.2 6.3 c0 0.6 0.5 1.1 1.1 1.1c0.6 0 1.1-0.5 1.1-1.1l-0.2-6.3c0.4 0 0.9-0.3 0.9-0.7v-0.7v-3.5h-0.7V-32z"/></g><g><path fill="#6756B2" d="M157.7 36.2c0 0-0.6-1.9-1.2-3.1c-1.4-2.6-3.1-4.1-3.2-4.1c-0.4-0.3-1.1-0.8-1.6-1l-6.1-3.1 c-0.7-0.3-1.2-1.2-1.2-1.9V9c0-0.7 0.5-1.6 1.2-1.9L157.4 1c0.3-0.2 0.7-0.2 1.1-0.2s0.8 0.1 1.1 0.2l11.7 6.1 c0.6 0.3 1.2 1.2 1.2 1.9v14c0 0.7-0.5 1.6-1.2 1.9l-6.2 3.1c-0.5 0.2-1.2 0.7-1.6 1c0 0-1.8 1.5-3.2 4.1c-0.6 1.2-1.2 3.1-1.2 3.1 l-0.8 1.8L157.7 36.2z"/><path fill="#FFFFFF" d="M158.5 1.3c0.3 0 0.6 0.1 0.9 0.2l11.7 6.1c0.5 0.3 0.9 0.9 0.9 1.5v14c0 0.5-0.4 1.2-0.9 1.5l-6.1 3.1 c-0.5 0.2-1.2 0.7-1.7 1.1c0 0-1.9 1.5-3.3 4.2c-0.6 1.2-1.2 3.2-1.2 3.2c-0.2 0.5-0.3 1-0.3 1s-0.1-0.4-0.3-1c0 0-0.6-1.9-1.2-3.2 c-1.4-2.7-3.3-4.2-3.3-4.2c-0.4-0.3-1.2-0.8-1.7-1.1l-6.1-3.1c-0.5-0.2-0.9-0.9-0.9-1.5V9c0-0.6 0.4-1.2 0.9-1.5l11.7-6.1 C157.9 1.3 158.2 1.3 158.5 1.3 M158.5 0.3c-0.5 0-1 0.1-1.3 0.3l-11.7 6.1C144.6 7.1 144 8.1 144 9v14c0 0.9 0.6 1.9 1.4 2.3 l6.1 3.1c0.4 0.2 1.1 0.7 1.5 1c0 0 1.7 1.4 3 3.9c0.6 1.1 1.1 3 1.1 3c0.4 1.3 0.5 1.7 1.2 1.7s0.9-0.4 1.2-1.7c0 0 0.6-1.8 1.1-3 c1.3-2.5 3-3.9 3-3.9c0.4-0.3 1.1-0.8 1.5-1l6.1-3.1c0.8-0.4 1.4-1.4 1.4-2.3V9c0-0.9-0.6-1.9-1.4-2.3l-11.7-6.1 C159.5 0.4 159 0.3 158.5 0.3L158.5 0.3z"/></g><g><path fill="#FFFFFF" d="M169 21c0 0.6-0.4 1.2-0.9 1.4l-8.7 4.1c-0.5 0.2-1.3 0.2-1.8 0l-8.7-4.1c-0.5-0.2-0.9-0.9-0.9-1.4V11 c0-0.6 0.4-1.2 0.9-1.4l8.7-4.1c0.5-0.2 1.3-0.2 1.8 0l8.7 4.1c0.5 0.2 0.9 0.9 0.9 1.4V21z"/></g><rect x="-52" y="-55" fill="#231F20" width="14" height="10"/><g><path fill="#85C440" d="M9.9 17.3c-0.4 1.8-1 3.3-2.4 4.7h4c1.4-1.4 2-2.9 2.4-4.7H9.9z"/><path fill="#85C440" d="M14.8 17.3c0.4 1.8 1 3.4 2.4 4.7h0.3h3.9c-1.4-1.4-2-2.9-2.4-4.7H14.8z"/><g><path fill="#85C440" d="M16.9 9.5c0 0 0 1.8 0 1.8c-0.1 0-0.2 0-0.3 0v0.3c1.3 0 2.1-0.5 2.1-1.8C17.8 10.2 17.6 9.8 16.9 9.5 L16.9 9.5z"/></g><g><path fill="#85C440" d="M14.8 11.6v-0.8c0.5-0.5 1.3 0 1.8 0V8.4c-0.7-0.4-1.2-0.6-2.1-0.3h-0.3l0 3.4L14.8 11.6L14.8 11.6z"/><path fill="#85C440" d="M14.9 12.1h-0.9c-0.9 2.1-2.7 2.8-7.1 4.3h8.9h0.9H22C17.7 14.9 15.9 14.2 14.9 12.1L14.9 12.1z"/></g></g><path fill="#6756B2" d="M156.3 21.9l-1.6 1.1h3.3h1.1h3.2l-1.6-1.1H159v-3.3l6-6h-4.7l0.3-1.1l0.1 0c0.6 0 1.1-0.5 1.1-1.1 c0-0.4-0.3-0.8-0.6-1l0.1-0.4L160.7 9l-0.1 0.5c-0.6 0-1 0.5-1 1.1c0 0.4 0.2 0.7 0.4 0.9l-0.3 1.3H152l6 6v3.3L156.3 21.9 L156.3 21.9z M158 17.6l-2.7-2.7h3.9l-0.7 2.5l0.5 0.1l0.7-2.6h2.1l-2.7 2.7H158z"/></svg>