<svg xmlns="http://www.w3.org/2000/svg" xmlns:xlink="http://www.w3.org/1999/xlink" version="1.1" x="0px" y="0px" width="31px" height="32px" viewBox="0 0 31 32" enable-background="new 0 0 31 32" xml:space="preserve"><g><g><g><path fill="#602773" d="M15.5 31.873l-5.209-5.211h10.418L15.5 31.873z"/></g><g><path fill-rule="evenodd" clip-rule="evenodd" fill="#602773" d="M31 25.129c0 1.1-0.9 2-2 2H2c-1.1 0-2-0.9-2-2V2.127 c0-1.1 0.9-2 2-2h27c1.1 0 2 0.9 2 2V25.129z"/></g><g opacity="0.9"><path fill-rule="evenodd" clip-rule="evenodd" fill="#FFFFFF" d="M28 22.127c0 1.1-0.9 2-2 2H5c-1.1 0-2-0.9-2-2v-17 c0-1.1 0.9-2 2-2h21c1.1 0 2 0.9 2 2V22.127z"/></g></g><path fill-rule="evenodd" clip-rule="evenodd" fill="#602773" d="M13.043 20.389l-1.857 1.238h3.713h1.237h3.712l-1.855-1.238 h-1.856v-3.713l6.806-6.806h-5.395l0.334-1.243l0.111 0.006c0.681 0 1.237-0.558 1.237-1.237c0-0.495-0.29-0.929-0.718-1.126 l0.13-0.482l-0.595-0.161l-0.147 0.538c-0.638 0.043-1.146 0.575-1.146 1.231c0 0.4 0.2 0.8 0.5 1.021l-0.39 1.454H8.093 l6.806 6.806v3.713H13.043z M14.898 15.438l-3.094-3.094h4.443l-0.762 2.846l0.594 0.161l0.805-3.007h2.345l-3.094 3.094H14.898z"/></g></svg>