<svg xmlns="http://www.w3.org/2000/svg" xmlns:xlink="http://www.w3.org/1999/xlink" version="1.2" baseProfile="tiny" id="Layer_1" x="0px" y="0px" width="29px" height="38px" viewBox="0 0 29 38" xml:space="preserve"><g><path fill="#FFFFFF" d="M14.5 0c-0.494 0-0.973 0.108-1.349 0.304L1.424 6.418C0.612 6.8 0 7.9 0 8.767V23 c0 0.9 0.6 1.9 1.4 2.344l6.149 3.116c0.424 0.2 1.1 0.7 1.5 0.967c0.016 0 1.7 1.4 3 3.9 c0.594 1.1 1.1 3 1.1 2.982C13.649 37.6 13.8 38 14.5 38s0.851-0.354 1.245-1.672 c0.005-0.019 0.555-1.847 1.146-2.982c1.307-2.501 3.014-3.904 3.03-3.919c0.369-0.3 1.065-0.752 1.489-0.967l6.148-3.116 C28.381 24.9 29 23.9 29 23V8.767c0-0.916-0.612-1.926-1.424-2.349L15.849 0.304C15.473 0.1 15 0 14.5 0"/><path fill="#2D95BF" d="M14.787 36.042c0 0 0.574-1.923 1.219-3.159c1.417-2.713 3.284-4.232 3.284-4.232 c0.428-0.347 1.179-0.834 1.669-1.083l6.149-3.115c0.49-0.248 0.893-0.902 0.893-1.452V8.767c0-0.55-0.4-1.208-0.888-1.462 L15.387 1.191C15.143 1.1 14.8 1 14.5 1c-0.322 0-0.643 0.064-0.887 0.191L1.887 7.305C1.399 7.6 1 8.2 1 8.767V23 c0 0.6 0.4 1.2 0.9 1.452l6.15 3.115c0.49 0.2 1.2 0.7 1.7 1.083c0 0 1.9 1.5 3.3 4.2 c0.645 1.2 1.2 3.2 1.2 3.159C14.371 36.6 14.5 37 14.5 37S14.629 36.6 14.8 36"/><path fill="#2D95BF" d="M14.5 38L14.5 38z"/><path fill="#FFFFFF" d="M25 21c0 0.55-0.406 1.193-0.903 1.431l-8.693 4.14c-0.498 0.236-1.309 0.236-1.806 0l-8.694-4.14 C4.406 22.2 4 21.6 4 21V10.728c0-0.55 0.406-1.193 0.903-1.43l8.694-4.14c0.497-0.236 1.309-0.236 1.8 0l8.693 4.1 C24.594 9.5 25 10.2 25 10.728V21z"/><path fill-rule="evenodd" fill="#2D95BF" d="M17.24 8.742c-1.22 0-2.21 0.989-2.21 2.21c0 1.2 1 2.2 2.2 2.2 s2.21-0.989 2.21-2.209C19.45 9.7 18.5 8.7 17.2 8.7"/><path fill-rule="evenodd" fill="#2D95BF" d="M13.979 15.917c-0.653 0.58-1.503 0.943-2.443 0.943c-0.94 0-1.79-0.363-2.443-0.943 C8.421 16.6 8 17.5 8 18.465V22h7.07v-3.535C15.07 17.5 14.6 16.6 14 15.9"/><path fill-rule="evenodd" fill="#2D95BF" d="M11.535 10.51c-1.464 0-2.652 1.187-2.652 2.652c0 1.5 1.2 2.7 2.7 2.7 c1.465 0 2.652-1.187 2.652-2.651C14.188 11.7 13 10.5 11.5 10.5"/><path fill-rule="evenodd" fill="#2D95BF" d="M19.794 12.875c-0.587 0.776-1.509 1.286-2.554 1.3 c-0.797 0-1.514-0.307-2.074-0.791c-0.037 0.645-0.233 1.246-0.564 1.759l0.069 0.066c0.903 0.9 1.4 2 1.4 3.269V19h4.931 v-3.5C21.001 14.4 20.5 13.5 19.8 12.9"/></g></svg>