<svg xmlns="http://www.w3.org/2000/svg" xmlns:xlink="http://www.w3.org/1999/xlink" version="1.1" id="Layer_1" x="0px" y="0px" viewBox="0 0 29 38" enable-background="new 0 0 29 38" xml:space="preserve"><path fill="#2D95BF" d="M-284.5-45.6l-12.5 7v14.1l6.9 3.9c1.8 1 2.6 2.1 4.1 4.9c0.6 1.2 1.5 4.1 1.5 4.1h0c0 0 0.9-2.9 1.5-4.1 c1.4-2.7 2.3-3.8 4.1-4.9l6.9-3.9v-14.1L-284.5-45.6z"/><polygon fill="#FFFFFF" stroke="#231F20" stroke-miterlimit="10" points="-1046.7,77.1 -1070.4,36 -1046.7,-5.1 -999.3,-5.1 -975.5,36 -999.3,77.1"/><g><polygon fill="#231F20" points="-800.9,199.5 -800.9,186.1 -788.9,179.4 -776.9,186.1 -776.9,199.5 -788.9,206.2"/><path fill="#FFFFFF" d="M-788.9 179.9l11.5 6.4v12.8l-11.5 6.4l-11.5-6.4v-12.8L-788.9 179.9 M-788.9 178.8l-12.5 7v14l12.5 7 l12.5-7v-14L-788.9 178.8L-788.9 178.8z"/></g><g><polygon fill="#231F20" points="-731.9,204 -744.4,211 -756.9,204 -756.9,190 -744.4,183 -731.9,190"/></g><polygon fill="#FFFFFF" stroke="#231F20" stroke-miterlimit="10" points="-631.1,199 -643.6,205.3 -656.1,199 -656.1,186.5 -643.6,180.3 -631.1,186.5"/><path fill="#231F20" d="M-564.1-36.4l-6.4-2.4v0l0 0l0 0v0l-6.4 2.4c2 1 5.6 4 6.4 10.6c0 0 0 0.1 0 0.1c0 0 0 0 0-0.1 c0 0 0 0 0 0.1c0 0 0-0.1 0-0.1C-570.3-32.6-565.1-35.8-564.1-36.4z"/><path fill="#231F20" d="M-750 207.8c1.8 1 2.7 2.1 4.1 4.8c1.3 2.5 2 5.9 2 6.6c0-6.1 0-12.4 0-12.4h-5.1L-750 207.8z"/><path fill="#231F20" d="M-738.8 207.8c-1.8 1-2.7 2.1-4.1 4.8c-1.3 2.5-2 5.9-2 6.6c0-6.1 0-12.4 0-12.4h5.1L-738.8 207.8z"/><g><g><polygon fill="#231F20" points="-314.6,-682.3 -515,-570.1 -715.5,-682.3 -715.5,-906.8 -515,-1019 -314.6,-906.8"/></g><path fill="#231F20" d="M-441.2-636.1h-73h-1.4h-73l-15.9 15.9c28.6 16.4 42.7 34.3 65.5 77.8c10.4 19.9 18.1 43.1 23.4 63 c0 0 0.5 3.5 0.7 2.6c0.2 0.9 0.7-2.6 0.7-2.6c5.3-19.9 13-43.1 23.4-63c22.8-43.4 36.8-61.4 65.5-77.8L-441.2-636.1z"/></g><g><polygon fill="#231F20" points="310.2,-267 297.8,-260 285.2,-267 285.2,-281 297.8,-288 310.2,-281"/></g><g><polygon fill="#FFFFFF" points="-275.5,-26.5 -284.5,-21.5 -293.5,-26.5 -293.5,-36.6 -284.5,-41.7 -275.5,-36.6"/></g><path fill="#231F20" d="M302.4-264.1h-4.6h-0.1h-4.6l-1 1c1.8 1 2.7 2.1 4.1 4.8c0.7 1.2 1.1 2.7 1.5 3.9v0.3c0-0.1 0-0.1 0-0.2 c0 0.1 0 0.1 0 0.2v-0.3c0.3-1.2 0.8-2.7 1.5-3.9c1.4-2.7 2.3-3.8 4.1-4.8L302.4-264.1z"/><path fill="#231F20" d="M369.2-290l-12.5 7v14.1l6.9 3.9c1.8 1 2.6 2.1 4.1 4.9c0.6 1.2 1.5 4.1 1.5 4.1h0c0 0 0.9-2.9 1.5-4.1 c1.4-2.7 2.3-3.8 4.1-4.9l6.9-3.9V-283L369.2-290z"/><path fill="#231F20" d="M-549.5 231.5l-12.5 7v14.1l6.9 3.9c1.8 1 2.6 2.1 4.1 4.9c0.6 1.2 1.5 4.1 1.5 4.1h0c0 0 0.9-2.9 1.5-4.1 c1.4-2.7 2.3-3.8 4.1-4.9l6.9-3.9v-14.1L-549.5 231.5z"/><rect x="-180" y="-364" fill="#F15A5A" width="106" height="106"/><rect x="-304" y="-362" fill="#F89C1C" width="106" height="106"/><rect x="-545" y="-365" fill="#9FC419" width="106" height="106"/><rect x="-422" y="-365" fill="#F0C419" width="106" height="106"/><rect x="-661" y="-366" fill="#4EBA6F" width="106" height="106"/><rect x="-796" y="-369" fill="#2D95BF" width="106" height="106"/><rect x="-55" y="-363" fill="#955BA5" width="106" height="106"/><rect x="78" y="-363" fill="#6756B2" width="106" height="106"/><path fill-rule="evenodd" clip-rule="evenodd" fill="#2D95BF" d="M-277.8-29.9c-0.5-0.2-1.2-0.8-2.2-1c0.3-0.3 0.5-0.8 0.7-1.3 c0.1-0.3 0.1-0.6 0.1-1c0-0.3 0.1-0.8 0-1c-0.2-0.9-0.8-1.1-1.5-1.1c-0.7 0-1.3 0.2-1.5 1.1c-0.1 0.3 0 0.7 0 1c0 0.4 0 0.7 0.1 1 c0.2 0.6 0.4 1 0.7 1.3c-0.3 0.1-0.6 0.2-0.9 0.3c1 0.4 1.8 1 2.3 1.3c1 0.5 1.3 1 1.5 1.3h1c0.4 0 0.7-0.4 0.7-0.7v-0.2 C-276.8-28.9-276.8-29.5-277.8-29.9z M-281.2-29.4c-0.8-0.4-1.8-1.3-3.5-1.6c0.4-0.5 0.7-1.3 1.1-2.2c0.2-0.5 0.1-1 0.1-1.6 c0-0.5 0.1-1.2 0-1.6c-0.4-1.4-1.3-1.8-2.3-1.8c-1.1 0-2 0.4-2.3 1.8c-0.1 0.4 0 1.2 0 1.6c0 0.6 0 1.1 0.2 1.6 c0.3 0.9 0.6 1.7 1.1 2.2c-1.6 0.3-2.7 1.2-3.4 1.6c-1.5 0.7-1.5 1.6-1.5 1.6v0.3c0 0.5 0.6 1.1 1.1 1.1h10c0.7 0 1.1-0.6 1.1-1.1 v-0.3C-279.6-27.8-279.6-28.6-281.2-29.4z"/><circle fill-rule="evenodd" clip-rule="evenodd" fill="#F15A29" cx="-285.8" cy="-35.6" r="2.5"/><path fill="#2D95BF" d="M-250-45.6l-12.5 7v14.1l6.9 3.9c1.8 1 2.6 2.1 4.1 4.9c0.6 1.2 1.5 4.1 1.5 4.1h0c0 0 0.9-2.9 1.5-4.1 c1.4-2.7 2.3-3.8 4.1-4.9l6.9-3.9v-14.1L-250-45.6z"/><g><polygon fill="#FFFFFF" points="-241,-26.5 -250,-21.5 -259,-26.5 -259,-36.6 -250,-41.7 -241,-36.6"/></g><circle fill-rule="evenodd" clip-rule="evenodd" fill="#2D95BF" cx="-251.2" cy="-35.6" r="2.5"/><circle fill-rule="evenodd" clip-rule="evenodd" fill="#2D95BF" cx="-251.2" cy="-30.9" r="3.6"/><g><path fill="#2D95BF" d="M-57.5-56.5c-0.4 0-0.4-0.2-0.6-0.8c-0.3-0.9-0.8-2.7-1.3-3.5c-1.4-2.7-2.3-3.7-3.9-4.7l-7.2-4.2v-14.5 l13-7.3l13 7.3v14.5l-7.2 4.2c-1.6 0.9-2.4 1.9-3.9 4.7c-0.5 0.9-1 2.7-1.3 3.6C-57.1-56.7-57.1-56.5-57.5-56.5 C-57.5-56.5-57.5-56.5-57.5-56.5z"/><path fill="#FFFFFF" d="M-57.5-91l12.5 7v14l-6.9 4c-1.8 1-2.6 2.1-4.1 4.9c-0.6 1.2-1.5 4.1-1.5 4.1l0 0h0l0 0 c0 0-0.9-2.9-1.5-4.1c-1.4-2.7-2.3-3.8-4.1-4.9l-6.9-4v-14L-57.5-91 M-57.5-92.1l-0.5 0.3l-12.5 7l-0.5 0.3v0.6v14v0.6l0.5 0.3 l6.9 4c1.5 0.9 2.3 1.8 3.7 4.5c0.4 0.8 1 2.7 1.3 3.5c0.2 0.6 0.4 1.2 1.1 1.2c0 0 0 0 0 0c0.7 0 0.9-0.6 1.1-1.2 c0.3-0.8 0.8-2.6 1.3-3.5c1.4-2.7 2.1-3.6 3.7-4.5l6.9-4l0.5-0.3V-70v-14v-0.6l-0.5-0.3l-12.5-7L-57.5-92.1L-57.5-92.1z"/></g><g><polygon fill="#FFFFFF" points="-48,-72 -57.5,-67 -67,-72 -67,-82 -57.5,-87 -48,-82"/></g><g><path fill="#2D95BF" d="M-151.5-56.5c-0.4 0-0.4-0.2-0.6-0.8c-0.3-0.9-0.8-2.7-1.3-3.5c-1.4-2.7-2.3-3.7-3.9-4.7l-7.2-4.2v-14.5 l13-7.3l13 7.3v14.5l-7.2 4.2c-1.6 0.9-2.4 1.9-3.9 4.7c-0.5 0.9-1 2.7-1.3 3.6C-151.1-56.7-151.1-56.5-151.5-56.5 C-151.5-56.5-151.5-56.5-151.5-56.5z"/><path fill="#FFFFFF" d="M-151.5-91l12.5 7v14l-6.9 4c-1.8 1-2.6 2.1-4.1 4.9c-0.6 1.2-1.5 4.1-1.5 4.1l0 0h0l0 0 c0 0-0.9-2.9-1.5-4.1c-1.4-2.7-2.3-3.8-4.1-4.9l-6.9-4v-14L-151.5-91 M-151.5-92.1l-0.5 0.3l-12.5 7l-0.5 0.3v0.6v14v0.6l0.5 0.3 l6.9 4c1.5 0.9 2.3 1.8 3.7 4.5c0.4 0.8 1 2.7 1.3 3.5c0.2 0.6 0.4 1.2 1.1 1.2c0 0 0 0 0 0c0.7 0 0.9-0.6 1.1-1.2 c0.3-0.8 0.8-2.6 1.3-3.5c1.4-2.7 2.1-3.6 3.7-4.5l6.9-4l0.5-0.3V-70v-14v-0.6l-0.5-0.3l-12.5-7L-151.5-92.1L-151.5-92.1z"/></g><g><polygon fill="#FFFFFF" points="-142,-72 -151.5,-67 -161,-72 -161,-82 -151.5,-87 -142,-82"/></g><circle fill-rule="evenodd" clip-rule="evenodd" fill="#2D95BF" cx="-148" cy="-81.5" r="2.5"/><g><path fill-rule="evenodd" clip-rule="evenodd" fill="#2D95BF" d="M-151-72.5h0.5V-73c0-0.7-0.2-1.4-0.5-2V-72.5z"/><g><path fill-rule="evenodd" clip-rule="evenodd" fill="#2D95BF" d="M-148-79c0.7 0 1.4-0.3 1.9-0.8c-0.5-0.4-1.2-0.7-1.9-0.7 s-1.3 0.3-1.9 0.7C-149.4-79.3-148.7-79-148-79z"/><path fill-rule="evenodd" clip-rule="evenodd" fill="#2D95BF" d="M-148-78c-1 0-1.9-0.4-2.5-1.1c-0.3 0.5-0.5 1-0.5 1.6v0.9 c0.9 0.9 1.5 2.2 1.5 3.6v0.5h4.5v-5c0-0.6-0.2-1.1-0.5-1.6C-146.1-78.4-147-78-148-78z"/></g></g><g><path fill-rule="evenodd" clip-rule="evenodd" fill="#2D95BF" d="M-152.7-76.6c-0.5-0.3-1.1-0.4-1.8-0.4s-1.2 0.2-1.8 0.4 c0.5 0.4 1.1 0.6 1.8 0.6S-153.2-76.2-152.7-76.6z"/><circle fill-rule="evenodd" clip-rule="evenodd" fill="#2D95BF" cx="-154.5" cy="-79" r="3"/></g><path fill="#2D95BF" d="M-181.5-91l-12.5 7v14l6.9 4c1.8 1 2.6 2.1 4.1 4.9c0.6 1.2 1.5 4.1 1.5 4.1l0 0c0 0 0.9-2.9 1.5-4.1 c1.4-2.7 2.3-3.8 4.1-4.9l6.9-4v-14L-181.5-91z"/><g><polygon fill="#FFFFFF" points="-172,-72 -181.5,-67 -191,-72 -191,-82 -181.5,-87 -172,-82"/></g><path fill-rule="evenodd" clip-rule="evenodd" fill="#2D95BF" d="M-178-80.5c-1.7 0-3 1.3-3 3v5h6v-5C-175-79.2-176.3-80.5-178-80.5 z"/><g><circle fill-rule="evenodd" clip-rule="evenodd" fill="#2D95BF" cx="-178" cy="-81.5" r="3"/><path fill="#FFFFFF" d="M-178-84c1.4 0 2.5 1.1 2.5 2.5s-1.1 2.5-2.5 2.5s-2.5-1.1-2.5-2.5S-179.4-84-178-84 M-178-85 c-1.9 0-3.5 1.6-3.5 3.5s1.6 3.5 3.5 3.5s3.5-1.6 3.5-3.5S-176.1-85-178-85L-178-85z"/></g><g><path fill-rule="evenodd" clip-rule="evenodd" fill="#2D95BF" d="M-189-68.5V-73c0-2.5 2-4.5 4.5-4.5s4.5 2 4.5 4.5v4.5H-189z"/><path fill="#FFFFFF" d="M-184.5-77c2.2 0 4 1.8 4 4v4h-8v-4C-188.5-75.2-186.7-77-184.5-77 M-184.5-78c-2.8 0-5 2.2-5 5v4v1h1h8h1 v-1v-4C-179.5-75.8-181.7-78-184.5-78L-184.5-78z"/></g><g><path fill-rule="evenodd" clip-rule="evenodd" fill="#2D95BF" d="M-184.5-75.5c-1.9 0-3.5-1.6-3.5-3.5s1.6-3.5 3.5-3.5 s3.5 1.6 3.5 3.5S-182.5-75.5-184.5-75.5z"/><path fill="#FFFFFF" d="M-184.5-82c1.7 0 3 1.3 3 3s-1.3 3-3 3s-3-1.3-3-3S-186.1-82-184.5-82 M-184.5-83c-2.2 0-4 1.8-4 4 s1.8 4 4 4s4-1.8 4-4S-182.2-83-184.5-83L-184.5-83z"/></g><path fill-rule="evenodd" clip-rule="evenodd" fill="#2D95BF" d="M-54.6-79.8c0.6 0 1.2-0.3 1.6-0.7c-0.4-0.3-1-0.6-1.6-0.6 s-1.1 0.2-1.6 0.6C-55.8-80.1-55.3-79.8-54.6-79.8z"/><circle fill-rule="evenodd" clip-rule="evenodd" fill="#2D95BF" cx="-54.6" cy="-81.9" r="2.1"/><g><path fill-rule="evenodd" clip-rule="evenodd" fill="#2D95BF" d="M-57-74h0.3v-0.7c0-0.5-0.1-0.9-0.3-1.4V-74z"/><path fill-rule="evenodd" clip-rule="evenodd" fill="#2D95BF" d="M-52.4-79.7c-0.6 0.6-1.4 0.9-2.3 0.9s-1.6-0.4-2.1-0.9 C-57-79.4-57-79-57-78.5v0.7c0.8 0.8 1.3 1.9 1.3 3.1v0.7h3.7v-4.5C-52-79-52.2-79.4-52.4-79.7z"/></g><g><g><path fill-rule="evenodd" clip-rule="evenodd" fill="#2D95BF" d="M-57.7-77.2c-0.6 0.6-1.4 0.9-2.3 0.9s-1.7-0.3-2.3-0.9 c-0.6 0.6-1 1.5-1 2.4v3.4h6.7v-3.4C-56.7-75.7-57.1-76.5-57.7-77.2z"/></g><circle fill-rule="evenodd" clip-rule="evenodd" fill="#2D95BF" cx="-60.1" cy="-79.8" r="2.5"/></g><g><path fill="#2D95BF" d="M-57.5-10.5c-0.4 0-0.4-0.2-0.6-0.8c-0.3-0.9-0.8-2.7-1.3-3.5c-1.4-2.7-2.3-3.7-3.9-4.7l-7.2-4.2v-14.5 l13-7.3l13 7.3v14.5l-7.2 4.2c-1.6 0.9-2.4 1.9-3.9 4.7c-0.5 0.9-1 2.7-1.3 3.6C-57.1-10.7-57.1-10.5-57.5-10.5 C-57.5-10.5-57.5-10.5-57.5-10.5z"/><path fill="#FFFFFF" d="M-57.5-45l12.5 7v14l-6.9 4c-1.8 1-2.6 2.1-4.1 4.9c-0.6 1.2-1.5 4.1-1.5 4.1l0 0h0l0 0 c0 0-0.9-2.9-1.5-4.1c-1.4-2.7-2.3-3.8-4.1-4.9l-6.9-4v-14L-57.5-45 M-57.5-46.1l-0.5 0.3l-12.5 7l-0.5 0.3v0.6v14v0.6l0.5 0.3 l6.9 4c1.5 0.9 2.3 1.8 3.7 4.5c0.4 0.8 1 2.7 1.3 3.5c0.2 0.6 0.4 1.2 1.1 1.2c0 0 0 0 0 0c0.7 0 0.9-0.6 1.1-1.2 c0.3-0.8 0.8-2.6 1.3-3.5c1.4-2.7 2.1-3.6 3.7-4.5l6.9-4l0.5-0.3V-24v-14v-0.6l-0.5-0.3l-12.5-7L-57.5-46.1L-57.5-46.1z"/></g><g><polygon fill="#FFFFFF" points="-48,-26 -57.5,-21 -67,-26 -67,-36 -57.5,-41 -48,-36"/></g><path fill-rule="evenodd" clip-rule="evenodd" fill="#2D95BF" d="M-54.6-33.8c0.6 0 1.2-0.3 1.6-0.7c-0.4-0.3-1-0.6-1.6-0.6 s-1.1 0.2-1.6 0.6C-55.8-34.1-55.3-33.8-54.6-33.8z"/><circle fill-rule="evenodd" clip-rule="evenodd" fill="#2D95BF" cx="-54.6" cy="-35.9" r="2.1"/><g><path fill-rule="evenodd" clip-rule="evenodd" fill="#2D95BF" d="M-57-28h0.3v-0.7c0-0.5-0.1-0.9-0.3-1.4V-28z"/><path fill-rule="evenodd" clip-rule="evenodd" fill="#2D95BF" d="M-52.4-33.7c-0.6 0.6-1.4 0.9-2.3 0.9s-1.6-0.4-2.1-0.9 C-57-33.4-57-33-57-32.5v0.7c0.8 0.8 1.3 1.9 1.3 3.1v0.7h3.7v-4.5C-52-33-52.2-33.4-52.4-33.7z"/></g><g><g><path fill-rule="evenodd" clip-rule="evenodd" fill="#2D95BF" d="M-57.7-31.2c-0.6 0.6-1.4 0.9-2.3 0.9s-1.7-0.3-2.3-0.9 c-0.6 0.6-1 1.5-1 2.4v3.4h6.7v-3.4C-56.7-29.7-57.1-30.5-57.7-31.2z"/></g><circle fill-rule="evenodd" clip-rule="evenodd" fill="#2D95BF" cx="-60.1" cy="-33.8" r="2.5"/></g><g><path fill="#2D95BF" d="M-58.3 36.2c0 0-0.6-1.9-1.2-3.1c-1.4-2.6-3.1-4.1-3.2-4.1c-0.4-0.3-1.1-0.8-1.6-1l-6.1-3.1 c-0.7-0.3-1.2-1.2-1.2-1.9V9c0-0.7 0.5-1.6 1.2-1.9L-58.6 1c0.3-0.2 0.7-0.2 1.1-0.2s0.8 0.1 1.1 0.2l11.7 6.1 c0.6 0.3 1.2 1.2 1.2 1.9v14c0 0.7-0.5 1.6-1.2 1.9l-6.2 3.1c-0.5 0.2-1.2 0.7-1.6 1c0 0-1.8 1.5-3.2 4.1c-0.6 1.2-1.2 3.1-1.2 3.1 l-0.8 1.8L-58.3 36.2z"/><path fill="#FFFFFF" d="M-57.5 1.3c0.3 0 0.6 0.1 0.9 0.2l11.7 6.1C-44.4 7.8-44 8.5-44 9v14c0 0.5-0.4 1.2-0.9 1.5l-6.1 3.1 c-0.5 0.2-1.2 0.7-1.7 1.1c0 0-1.9 1.5-3.3 4.2c-0.6 1.2-1.2 3.2-1.2 3.2c-0.2 0.5-0.3 1-0.3 1s-0.1-0.4-0.3-1c0 0-0.6-1.9-1.2-3.2 c-1.4-2.7-3.3-4.2-3.3-4.2c-0.4-0.3-1.2-0.8-1.7-1.1l-6.1-3.1c-0.5-0.2-0.9-0.9-0.9-1.5V9c0-0.6 0.4-1.2 0.9-1.5l11.7-6.1 C-58.1 1.3-57.8 1.3-57.5 1.3 M-57.5 0.3c-0.5 0-1 0.1-1.3 0.3l-11.7 6.1C-71.4 7.1-72 8.1-72 9v14c0 0.9 0.6 1.9 1.4 2.3l6.1 3.1 c0.4 0.2 1.1 0.7 1.5 1c0 0 1.7 1.4 3 3.9c0.6 1.1 1.1 3 1.1 3c0.4 1.3 0.5 1.7 1.2 1.7s0.9-0.4 1.2-1.7c0 0 0.6-1.8 1.1-3 c1.3-2.5 3-3.9 3-3.9c0.4-0.3 1.1-0.8 1.5-1l6.1-3.1c0.8-0.4 1.4-1.4 1.4-2.3V9c0-0.9-0.6-1.9-1.4-2.3l-11.7-6.1 C-56.5 0.4-57 0.3-57.5 0.3L-57.5 0.3z"/></g><g><path fill="#FFFFFF" d="M-47 21c0 0.6-0.4 1.2-0.9 1.4l-8.7 4.1c-0.5 0.2-1.3 0.2-1.8 0l-8.7-4.1c-0.5-0.2-0.9-0.9-0.9-1.4V11 c0-0.6 0.4-1.2 0.9-1.4l8.7-4.1c0.5-0.2 1.3-0.2 1.8 0l8.7 4.1c0.5 0.2 0.9 0.9 0.9 1.4V21z"/></g><circle fill-rule="evenodd" clip-rule="evenodd" fill="#2D95BF" cx="-54.8" cy="11" r="2.2"/><g><g><path fill-rule="evenodd" clip-rule="evenodd" fill="#2D95BF" d="M-58 15.9c-0.7 0.6-1.5 0.9-2.4 0.9s-1.8-0.4-2.4-0.9 c-0.7 0.6-1.1 1.5-1.1 2.5V22h7.1v-3.5C-56.9 17.5-57.4 16.6-58 15.9z"/></g><circle fill-rule="evenodd" clip-rule="evenodd" fill="#2D95BF" cx="-60.5" cy="13.2" r="2.7"/><g><g><path fill-rule="evenodd" clip-rule="evenodd" fill="#2D95BF" d="M-52.2 12.9c-0.6 0.8-1.5 1.3-2.6 1.3c-0.8 0-1.5-0.3-2.1-0.8 c0 0.6-0.2 1.2-0.6 1.8l0.1 0.1c0.9 0.9 1.4 2 1.4 3.3V19h4.9v-3.5C-51 14.4-51.5 13.5-52.2 12.9z"/></g></g></g><g><path fill="#4EBA6F" stroke="#FFFFFF" stroke-miterlimit="10" d="M-22.3 36.2c0 0-0.6-1.9-1.2-3.1c-1.4-2.6-3.1-4.1-3.2-4.1 c-0.4-0.3-1.1-0.8-1.6-1l-6.1-3.1c-0.7-0.3-1.2-1.2-1.2-1.9V9c0-0.7 0.5-1.6 1.2-1.9L-22.6 1c0.3-0.2 0.7-0.2 1.1-0.2 s0.8 0.1 1.1 0.2l11.7 6.1C-8 7.5-7.5 8.3-7.5 9v14c0 0.7-0.5 1.6-1.2 1.9l-6.2 3.1c-0.5 0.2-1.2 0.7-1.6 1c0 0-1.8 1.5-3.2 4.1 c-0.6 1.2-1.2 3.1-1.2 3.1l-0.8 1.8L-22.3 36.2z"/><path fill="#FFFFFF" d="M-21.5 1.3c0.3 0 0.6 0.1 0.9 0.2l11.7 6.1C-8.4 7.8-8 8.5-8 9v14c0 0.5-0.4 1.2-0.9 1.5l-6.1 3.1 c-0.5 0.2-1.2 0.7-1.7 1.1c0 0-1.9 1.5-3.3 4.2c-0.6 1.2-1.2 3.2-1.2 3.2c-0.2 0.5-0.3 1-0.3 1s-0.1-0.4-0.3-1c0 0-0.6-1.9-1.2-3.2 c-1.4-2.7-3.3-4.2-3.3-4.2c-0.4-0.3-1.2-0.8-1.7-1.1l-6.1-3.1c-0.5-0.2-0.9-0.9-0.9-1.5V9c0-0.6 0.4-1.2 0.9-1.5l11.7-6.1 C-22.1 1.3-21.8 1.3-21.5 1.3 M-21.5 0.3c-0.5 0-1 0.1-1.3 0.3l-11.7 6.1C-35.4 7.1-36 8.1-36 9v14c0 0.9 0.6 1.9 1.4 2.3l6.1 3.1 c0.4 0.2 1.1 0.7 1.5 1c0 0 1.7 1.4 3 3.9c0.6 1.1 1.1 3 1.1 3c0.4 1.3 0.5 1.7 1.2 1.7s0.9-0.4 1.2-1.7c0 0 0.6-1.8 1.1-3 c1.3-2.5 3-3.9 3-3.9c0.4-0.3 1.1-0.8 1.5-1l6.1-3.1C-7.6 24.9-7 23.9-7 23V9c0-0.9-0.6-1.9-1.4-2.3l-11.7-6.1 C-20.5 0.4-21 0.3-21.5 0.3L-21.5 0.3z"/></g><g><path fill="#FFFFFF" d="M-11 21c0 0.6-0.4 1.2-0.9 1.4l-8.7 4.1c-0.5 0.2-1.3 0.2-1.8 0l-8.7-4.1c-0.5-0.2-0.9-0.9-0.9-1.4V11 c0-0.6 0.4-1.2 0.9-1.4l8.7-4.1c0.5-0.2 1.3-0.2 1.8 0l8.7 4.1c0.5 0.2 0.9 0.9 0.9 1.4V21z"/></g><g><path fill="#F0C419" stroke="#FFFFFF" stroke-miterlimit="10" d="M13.7 36.2c0 0-0.6-1.9-1.2-3.1c-1.4-2.6-3.1-4.1-3.2-4.1 c-0.4-0.3-1.1-0.8-1.6-1l-6.1-3.1C1 24.6 0.5 23.7 0.5 23V9c0-0.7 0.5-1.6 1.2-1.9L13.4 1c0.3-0.2 0.7-0.2 1.1-0.2s0.8 0.1 1.1 0.2 l11.7 6.1C28 7.5 28.5 8.3 28.5 9v14c0 0.7-0.5 1.6-1.2 1.9L21.2 28c-0.5 0.2-1.2 0.7-1.6 1c0 0-1.8 1.5-3.2 4.1 c-0.6 1.2-1.2 3.1-1.2 3.1L14.5 38L13.7 36.2z"/><path fill="#FFFFFF" d="M14.5 1.3c0.3 0 0.6 0.1 0.9 0.2l11.7 6.1C27.6 7.8 28 8.5 28 9v14c0 0.5-0.4 1.2-0.9 1.5L21 27.6 c-0.5 0.2-1.2 0.7-1.7 1.1c0 0-1.9 1.5-3.3 4.2c-0.6 1.2-1.2 3.2-1.2 3.2c-0.2 0.5-0.3 1-0.3 1s-0.1-0.4-0.3-1c0 0-0.6-1.9-1.2-3.2 c-1.4-2.7-3.3-4.2-3.3-4.2c-0.4-0.3-1.2-0.8-1.7-1.1l-6.1-3.1C1.4 24.2 1 23.5 1 23V9c0-0.6 0.4-1.2 0.9-1.5l11.7-6.1 C13.9 1.3 14.2 1.3 14.5 1.3 M14.5 0.3c-0.5 0-1 0.1-1.3 0.3L1.4 6.7C0.6 7.1 0 8.1 0 9v14c0 0.9 0.6 1.9 1.4 2.3l6.1 3.1 c0.4 0.2 1.1 0.7 1.5 1c0 0 1.7 1.4 3 3.9c0.6 1.1 1.1 3 1.1 3c0.4 1.3 0.5 1.7 1.2 1.7s0.9-0.4 1.2-1.7c0 0 0.6-1.8 1.1-3 c1.3-2.5 3-3.9 3-3.9c0.4-0.3 1.1-0.8 1.5-1l6.1-3.1c0.8-0.4 1.4-1.4 1.4-2.3V9c0-0.9-0.6-1.9-1.4-2.3L15.8 0.6 C15.5 0.4 15 0.3 14.5 0.3L14.5 0.3z"/></g><g><path fill="#FFFFFF" d="M25 21c0 0.6-0.4 1.2-0.9 1.4l-8.7 4.1c-0.5 0.2-1.3 0.2-1.8 0l-8.7-4.1C4.4 22.2 4 21.5 4 21V11 c0-0.6 0.4-1.2 0.9-1.4l8.7-4.1c0.5-0.2 1.3-0.2 1.8 0l8.7 4.1C24.6 9.8 25 10.4 25 11V21z"/></g><g><path fill="#F89C1C" stroke="#FFFFFF" stroke-miterlimit="10" d="M49.7 36.2c0 0-0.6-1.9-1.2-3.1c-1.4-2.6-3.1-4.1-3.2-4.1 c-0.4-0.3-1.1-0.8-1.6-1l-6.1-3.1c-0.7-0.3-1.2-1.2-1.2-1.9V9c0-0.7 0.5-1.6 1.2-1.9L49.4 1c0.3-0.2 0.7-0.2 1.1-0.2 s0.8 0.1 1.1 0.2l11.7 6.1C64 7.5 64.5 8.3 64.5 9v14c0 0.7-0.5 1.6-1.2 1.9L57.2 28c-0.5 0.2-1.2 0.7-1.6 1c0 0-1.8 1.5-3.2 4.1 c-0.6 1.2-1.2 3.1-1.2 3.1L50.5 38L49.7 36.2z"/><path fill="#FFFFFF" d="M50.5 1.3c0.3 0 0.6 0.1 0.9 0.2l11.7 6.1C63.6 7.8 64 8.5 64 9v14c0 0.5-0.4 1.2-0.9 1.5L57 27.6 c-0.5 0.2-1.2 0.7-1.7 1.1c0 0-1.9 1.5-3.3 4.2c-0.6 1.2-1.2 3.2-1.2 3.2c-0.2 0.5-0.3 1-0.3 1s-0.1-0.4-0.3-1c0 0-0.6-1.9-1.2-3.2 c-1.4-2.7-3.3-4.2-3.3-4.2c-0.4-0.3-1.2-0.8-1.7-1.1l-6.1-3.1C37.4 24.2 37 23.5 37 23V9c0-0.6 0.4-1.2 0.9-1.5l11.7-6.1 C49.9 1.3 50.2 1.3 50.5 1.3 M50.5 0.3c-0.5 0-1 0.1-1.3 0.3L37.4 6.7C36.6 7.1 36 8.1 36 9v14c0 0.9 0.6 1.9 1.4 2.3l6.1 3.1 c0.4 0.2 1.1 0.7 1.5 1c0 0 1.7 1.4 3 3.9c0.6 1.1 1.1 3 1.1 3c0.4 1.3 0.5 1.7 1.2 1.7s0.9-0.4 1.2-1.7c0 0 0.6-1.8 1.1-3 c1.3-2.5 3-3.9 3-3.9c0.4-0.3 1.1-0.8 1.5-1l6.1-3.1c0.8-0.4 1.4-1.4 1.4-2.3V9c0-0.9-0.6-1.9-1.4-2.3L51.8 0.6 C51.5 0.4 51 0.3 50.5 0.3L50.5 0.3z"/></g><g><path fill="#FFFFFF" d="M61 21c0 0.6-0.4 1.2-0.9 1.4l-8.7 4.1c-0.5 0.2-1.3 0.2-1.8 0l-8.7-4.1C40.4 22.2 40 21.5 40 21V11 c0-0.6 0.4-1.2 0.9-1.4l8.7-4.1c0.5-0.2 1.3-0.2 1.8 0l8.7 4.1C60.6 9.8 61 10.4 61 11V21z"/></g><g><path fill="#F15A5A" stroke="#FFFFFF" stroke-miterlimit="10" d="M85.7 36.2c0 0-0.6-1.9-1.2-3.1c-1.4-2.6-3.1-4.1-3.2-4.1 c-0.4-0.3-1.1-0.8-1.6-1l-6.1-3.1c-0.7-0.3-1.2-1.2-1.2-1.9V9c0-0.7 0.5-1.6 1.2-1.9L85.4 1c0.3-0.2 0.7-0.2 1.1-0.2 s0.8 0.1 1.1 0.2l11.7 6.1c0.6 0.3 1.2 1.2 1.2 1.9v14c0 0.7-0.5 1.6-1.2 1.9L93.2 28c-0.5 0.2-1.2 0.7-1.6 1c0 0-1.8 1.5-3.2 4.1 c-0.6 1.2-1.2 3.1-1.2 3.1L86.5 38L85.7 36.2z"/><path fill="#FFFFFF" d="M86.5 1.3c0.3 0 0.6 0.1 0.9 0.2l11.7 6.1C99.6 7.8 100 8.5 100 9v14c0 0.5-0.4 1.2-0.9 1.5L93 27.6 c-0.5 0.2-1.2 0.7-1.7 1.1c0 0-1.9 1.5-3.3 4.2c-0.6 1.2-1.2 3.2-1.2 3.2c-0.2 0.5-0.3 1-0.3 1s-0.1-0.4-0.3-1c0 0-0.6-1.9-1.2-3.2 c-1.4-2.7-3.3-4.2-3.3-4.2c-0.4-0.3-1.2-0.8-1.7-1.1l-6.1-3.1C73.4 24.2 73 23.5 73 23V9c0-0.6 0.4-1.2 0.9-1.5l11.7-6.1 C85.9 1.3 86.2 1.3 86.5 1.3 M86.5 0.3c-0.5 0-1 0.1-1.3 0.3L73.4 6.7C72.6 7.1 72 8.1 72 9v14c0 0.9 0.6 1.9 1.4 2.3l6.1 3.1 c0.4 0.2 1.1 0.7 1.5 1c0 0 1.7 1.4 3 3.9c0.6 1.1 1.1 3 1.1 3c0.4 1.3 0.5 1.7 1.2 1.7s0.9-0.4 1.2-1.7c0 0 0.6-1.8 1.1-3 c1.3-2.5 3-3.9 3-3.9c0.4-0.3 1.1-0.8 1.5-1l6.1-3.1c0.8-0.4 1.4-1.4 1.4-2.3V9c0-0.9-0.6-1.9-1.4-2.3L87.8 0.6 C87.5 0.4 87 0.3 86.5 0.3L86.5 0.3z"/></g><g><path fill="#FFFFFF" d="M97 21c0 0.6-0.4 1.2-0.9 1.4l-8.7 4.1c-0.5 0.2-1.3 0.2-1.8 0l-8.7-4.1C76.4 22.2 76 21.5 76 21V11 c0-0.6 0.4-1.2 0.9-1.4l8.7-4.1c0.5-0.2 1.3-0.2 1.8 0l8.7 4.1C96.6 9.8 97 10.4 97 11V21z"/></g><g><path fill="#955BA5" stroke="#FFFFFF" stroke-miterlimit="10" d="M121.7 36.2c0 0-0.6-1.9-1.2-3.1c-1.4-2.6-3.1-4.1-3.2-4.1 c-0.4-0.3-1.1-0.8-1.6-1l-6.1-3.1c-0.7-0.3-1.2-1.2-1.2-1.9V9c0-0.7 0.5-1.6 1.2-1.9L121.4 1c0.3-0.2 0.7-0.2 1.1-0.2 s0.8 0.1 1.1 0.2l11.7 6.1c0.6 0.3 1.2 1.2 1.2 1.9v14c0 0.7-0.5 1.6-1.2 1.9l-6.2 3.1c-0.5 0.2-1.2 0.7-1.6 1c0 0-1.8 1.5-3.2 4.1 c-0.6 1.2-1.2 3.1-1.2 3.1l-0.8 1.8L121.7 36.2z"/><path fill="#FFFFFF" d="M122.5 1.3c0.3 0 0.6 0.1 0.9 0.2l11.7 6.1c0.5 0.3 0.9 0.9 0.9 1.5v14c0 0.5-0.4 1.2-0.9 1.5l-6.1 3.1 c-0.5 0.2-1.2 0.7-1.7 1.1c0 0-1.9 1.5-3.3 4.2c-0.6 1.2-1.2 3.2-1.2 3.2c-0.2 0.5-0.3 1-0.3 1s-0.1-0.4-0.3-1c0 0-0.6-1.9-1.2-3.2 c-1.4-2.7-3.3-4.2-3.3-4.2c-0.4-0.3-1.2-0.8-1.7-1.1l-6.1-3.1c-0.5-0.2-0.9-0.9-0.9-1.5V9c0-0.6 0.4-1.2 0.9-1.5l11.7-6.1 C121.9 1.3 122.2 1.3 122.5 1.3 M122.5 0.3c-0.5 0-1 0.1-1.3 0.3l-11.7 6.1C108.6 7.1 108 8.1 108 9v14c0 0.9 0.6 1.9 1.4 2.3 l6.1 3.1c0.4 0.2 1.1 0.7 1.5 1c0 0 1.7 1.4 3 3.9c0.6 1.1 1.1 3 1.1 3c0.4 1.3 0.5 1.7 1.2 1.7s0.9-0.4 1.2-1.7c0 0 0.6-1.8 1.1-3 c1.3-2.5 3-3.9 3-3.9c0.4-0.3 1.1-0.8 1.5-1l6.1-3.1c0.8-0.4 1.4-1.4 1.4-2.3V9c0-0.9-0.6-1.9-1.4-2.3l-11.7-6.1 C123.5 0.4 123 0.3 122.5 0.3L122.5 0.3z"/></g><g><path fill="#FFFFFF" d="M133 21c0 0.6-0.4 1.2-0.9 1.4l-8.7 4.1c-0.5 0.2-1.3 0.2-1.8 0l-8.7-4.1c-0.5-0.2-0.9-0.9-0.9-1.4V11 c0-0.6 0.4-1.2 0.9-1.4l8.7-4.1c0.5-0.2 1.3-0.2 1.8 0l8.7 4.1c0.5 0.2 0.9 0.9 0.9 1.4V21z"/></g><g><path fill="#2D95BF" d="M-226.3 36.2c0 0-0.6-1.9-1.2-3.1c-1.4-2.6-3.1-4.1-3.2-4.1c-0.4-0.3-1.1-0.8-1.6-1l-6.1-3.1 c-0.7-0.3-1.2-1.2-1.2-1.9V9c0-0.7 0.5-1.6 1.2-1.9l11.7-6.1c0.3-0.2 0.7-0.2 1.1-0.2s0.8 0.1 1.1 0.2l11.7 6.1 c0.6 0.3 1.2 1.2 1.2 1.9v14c0 0.7-0.5 1.6-1.2 1.9l-6.2 3.1c-0.5 0.2-1.2 0.7-1.6 1c0 0-1.8 1.5-3.2 4.1c-0.6 1.2-1.2 3.1-1.2 3.1 l-0.8 2.6L-226.3 36.2z"/><path fill="#FFFFFF" d="M-225.5 1.3c0.3 0 0.6 0.1 0.9 0.2l11.7 6.1c0.5 0.3 0.9 0.9 0.9 1.5v14c0 0.5-0.4 1.2-0.9 1.5l-6.1 3.1 c-0.5 0.2-1.2 0.7-1.7 1.1c0 0-1.9 1.5-3.3 4.2c-0.6 1.2-1.2 3.2-1.2 3.2c-0.2 0.5-0.3 1-0.3 1s-0.1-0.4-0.3-1c0 0-0.6-1.9-1.2-3.2 c-1.4-2.7-3.3-4.2-3.3-4.2c-0.4-0.3-1.2-0.8-1.7-1.1l-6.1-3.1c-0.5-0.2-0.9-0.9-0.9-1.5V9c0-0.6 0.4-1.2 0.9-1.5l11.7-6.1 C-226.1 1.3-225.8 1.3-225.5 1.3 M-225.5 0.3c-0.5 0-1 0.1-1.3 0.3l-11.7 6.1c-0.8 0.4-1.4 1.4-1.4 2.3v14c0 0.9 0.6 1.9 1.4 2.3 l6.1 3.1c0.4 0.2 1.1 0.7 1.5 1c0 0 1.7 1.4 3 3.9c0.6 1.1 1.1 3 1.1 3c0.4 1.3 0.5 1.7 1.2 1.7s0.9-0.4 1.2-1.7c0 0 0.6-1.8 1.1-3 c1.3-2.5 3-3.9 3-3.9c0.4-0.3 1.1-0.8 1.5-1l6.1-3.1c0.8-0.4 1.4-1.4 1.4-2.3V9c0-0.9-0.6-1.9-1.4-2.3l-11.7-6.1 C-224.5 0.4-225 0.3-225.5 0.3L-225.5 0.3z"/></g><g><path fill="#FFFFFF" d="M-215 21c0 0.6-0.4 1.2-0.9 1.4l-8.7 4.1c-0.5 0.2-1.3 0.2-1.8 0l-8.7-4.1c-0.5-0.2-0.9-0.9-0.9-1.4V11 c0-0.6 0.4-1.2 0.9-1.4l8.7-4.1c0.5-0.2 1.3-0.2 1.8 0l8.7 4.1c0.5 0.2 0.9 0.9 0.9 1.4V21z"/></g><path fill-rule="evenodd" clip-rule="evenodd" fill="#2D95BF" d="M-222.8 13.2c0.7 0 1.2-0.3 1.6-0.7c-0.5-0.4-1-0.6-1.6-0.6 c-0.6 0-1.2 0.2-1.6 0.6C-224 12.9-223.4 13.2-222.8 13.2z"/><circle fill-rule="evenodd" clip-rule="evenodd" fill="#2D95BF" cx="-222.8" cy="11" r="2.2"/><g><g><path fill-rule="evenodd" clip-rule="evenodd" fill="#2D95BF" d="M-226 15.9c-0.7 0.6-1.5 0.9-2.4 0.9s-1.8-0.4-2.4-0.9 c-0.7 0.6-1.1 1.5-1.1 2.5V22h7.1v-3.5C-224.9 17.5-225.4 16.6-226 15.9z"/></g><circle fill-rule="evenodd" clip-rule="evenodd" fill="#2D95BF" cx="-228.5" cy="13.2" r="2.7"/><g><g><path fill-rule="evenodd" clip-rule="evenodd" fill="#2D95BF" d="M-220.2 12.9c-0.6 0.8-1.5 1.3-2.6 1.3c-0.8 0-1.5-0.3-2.1-0.8 c0 0.6-0.2 1.2-0.6 1.8l0.1 0.1c0.9 0.9 1.4 2 1.4 3.3V19h4.9v-3.5C-219 14.4-219.5 13.5-220.2 12.9z"/></g></g></g><g><path fill="#2D95BF" d="M1198-477.5c-0.5-0.3-1.3-0.3-1.8 0L751-245.4c-0.5 0.3-0.9 0.9-0.9 1.5v526.5c0 0.6 0.4 1.2 0.9 1.5 l260.9 132.2c0.5 0.2 1.2 0.7 1.7 1.1c0 0 86.8 70.6 133.7 160.4c21.4 40.9 49.6 135.4 49.6 135.4c0.2 0.5 0.3 1 0.3 1 c0 0 0.1-0.4 0.3-1c0 0 28.2-94.4 49.6-135.4c46.9-89.8 133.7-160.4 133.7-160.4c0.4-0.3 1.2-0.8 1.7-1.1L1643.2 284 c0.5-0.2 0.9-0.9 0.9-1.5v-526.5c0-0.6-0.4-1.2-0.9-1.5L1198-477.5z"/></g><g><path fill="#FFFFFF" d="M1544.8 216.3c0 0.5-0.4 1.2-0.9 1.4L1198 382.5c-0.5 0.2-1.3 0.2-1.8 0L850.4 217.8 c-0.5-0.2-0.9-0.9-0.9-1.4V-179c0-0.6 0.4-1.2 0.9-1.4l345.9-164.7c0.5-0.2 1.3-0.2 1.8 0l345.9 164.7c0.5 0.2 0.9 0.9 0.9 1.4 V216.3z"/></g><path fill-rule="evenodd" clip-rule="evenodd" fill="#2D95BF" d="M1287.9-75.3c21.7 0 40.9-9.6 54.3-24.6 c-15-11.9-33.7-19.3-54.3-19.3s-39.3 7.4-54.3 19.3C1246.9-84.9 1266.2-75.3 1287.9-75.3z"/><circle fill-rule="evenodd" clip-rule="evenodd" fill="#2D95BF" cx="1287.9" cy="-148.5" r="73.2"/><g><g><path fill-rule="evenodd" clip-rule="evenodd" fill="#2D95BF" d="M1179.9 15.9c-21.6 19.2-49.8 31.2-80.9 31.2s-59.3-12-80.9-31.2 c-22.2 21.3-36.2 51.1-36.2 84.3v117.1H1216V100.3C1216 67.1 1202.1 37.2 1179.9 15.9z"/></g><path fill-rule="evenodd" clip-rule="evenodd" fill="#2D95BF" d="M1099-163.1c-48.5 0-87.8 39.3-87.8 87.8s39.3 87.8 87.8 87.8 c48.5 0 87.8-39.3 87.8-87.8S1147.5-163.1 1099-163.1z"/><g><g><path fill-rule="evenodd" clip-rule="evenodd" fill="#2D95BF" d="M1372.4-84.8c-19.4 25.7-49.9 42.6-84.5 42.6 c-26.4 0-50.1-10.2-68.7-26.2c-1.2 21.4-7.7 41.3-18.7 58.3l2.3 2.2c29.9 28.7 46.4 67.1 46.4 108.2V118h163.2V2.1 C1412.4-32.7 1396.7-63.5 1372.4-84.8z"/></g></g></g><g><path fill="#2D95BF" d="M-187.5 38c-0.4 0-0.4-0.4-0.6-1.1c-0.3-0.9-0.8-2.8-1.3-3.7c-1.4-2.7-2.5-3.8-4.1-4.7l-8.4-4.2V7.7l14-7.3 l14 7.3v16.6l-8 4.2c-1.6 0.9-2.3 1.9-3.7 4.6c-0.5 0.9-1 2.9-1.2 3.8C-187.1 37.5-187.1 38-187.5 38C-187.5 38-187.5 38-187.5 38z "/><path fill="#FFFFFF" d="M-187.5 1l13.5 7v16l-7.9 4c-1.8 1-2.6 2.1-4.1 4.9c-0.6 1.2-1.5 4.1-1.5 4.1h0h0h0c0 0-0.9-2.9-1.5-4.1 c-1.4-2.7-2.3-3.8-4.1-4.9l-7.9-4V8L-187.5 1 M-187.5-0.1l-0.5 0.2l-13.5 7l-0.5 0.3V8v16v0.6l0.5 0.3l7.9 4 c1.5 0.9 2.3 1.8 3.7 4.4c0.4 0.8 1 2.7 1.3 3.5c0.2 0.6 0.4 1.2 1.1 1.2c0 0 0 0 0 0c0.7 0 0.9-0.6 1.1-1.2 c0.3-0.8 0.8-2.6 1.3-3.5c1.4-2.6 2.1-3.6 3.7-4.4l7.9-4l0.5-0.3V24V8V7.4l-0.5-0.3l-13.5-7L-187.5-0.1L-187.5-0.1z"/></g><g><polygon fill="#FFFFFF" points="-177,22 -187.5,27 -198,22 -198,10 -187.5,5 -177,10"/></g><path fill-rule="evenodd" clip-rule="evenodd" fill="#2D95BF" d="M-184.8 13.2c0.7 0 1.2-0.3 1.6-0.7c-0.5-0.4-1-0.6-1.6-0.6 c-0.6 0-1.2 0.2-1.6 0.6C-186 12.9-185.4 13.2-184.8 13.2z"/><circle fill-rule="evenodd" clip-rule="evenodd" fill="#2D95BF" cx="-184.8" cy="11" r="2.2"/><g><g><path fill-rule="evenodd" clip-rule="evenodd" fill="#2D95BF" d="M-188 15.9c-0.7 0.6-1.5 0.9-2.4 0.9s-1.8-0.4-2.4-0.9 c-0.7 0.6-1.1 1.5-1.1 2.5V22h7.1v-3.5C-186.9 17.5-187.4 16.6-188 15.9z"/></g><circle fill-rule="evenodd" clip-rule="evenodd" fill="#2D95BF" cx="-190.5" cy="13.2" r="2.7"/><g><g><path fill-rule="evenodd" clip-rule="evenodd" fill="#2D95BF" d="M-182.2 12.9c-0.6 0.8-1.5 1.3-2.6 1.3c-0.8 0-1.5-0.3-2.1-0.8 c0 0.6-0.2 1.2-0.6 1.8l0.1 0.1c0.9 0.9 1.4 2 1.4 3.3V19h4.9v-3.5C-181 14.4-181.5 13.5-182.2 12.9z"/></g></g></g><g><path fill-rule="evenodd" clip-rule="evenodd" fill="#2D95BF" d="M-144.5 19.5v-4c0-2.2 1.8-4 4-4s4 1.8 4 4v4H-144.5z"/><path fill="#FFFFFF" d="M-140.5 12c1.9 0 3.5 1.6 3.5 3.5V19h-7v-3.5C-144 13.6-142.4 12-140.5 12 M-140.5 11c-2.5 0-4.5 2-4.5 4.5 V19v1h1h7h1v-1v-3.5C-136 13-138 11-140.5 11L-140.5 11z"/></g><path fill-rule="evenodd" clip-rule="evenodd" fill="#2D95BF" d="M-140.8 13.2c0.7 0 1.2-0.3 1.6-0.7c-0.5-0.4-1-0.6-1.6-0.6 c-0.6 0-1.2 0.2-1.6 0.6C-142 12.9-141.4 13.2-140.8 13.2z"/><circle fill-rule="evenodd" clip-rule="evenodd" fill="#2D95BF" cx="-140.8" cy="11" r="2.2"/><g><circle fill-rule="evenodd" clip-rule="evenodd" fill="#2BB673" cx="-140.8" cy="11" r="2.7"/><path fill="#FFFFFF" d="M-140.8 8.7c1.2 0 2.2 1 2.2 2.2c0 1.2-1 2.2-2.2 2.2s-2.2-1-2.2-2.2C-143 9.7-142 8.7-140.8 8.7 M-140.8 7.7c-1.8 0-3.2 1.4-3.2 3.2c0 1.8 1.4 3.2 3.2 3.2s3.2-1.4 3.2-3.2C-137.5 9.2-139 7.7-140.8 7.7L-140.8 7.7z"/></g><g><g><path fill-rule="evenodd" clip-rule="evenodd" fill="#2D95BF" d="M-144 15.9c-0.7 0.6-1.5 0.9-2.4 0.9s-1.8-0.4-2.4-0.9 c-0.7 0.6-1.1 1.5-1.1 2.5V22h7.1v-3.5C-142.9 17.5-143.4 16.6-144 15.9z"/></g><circle fill-rule="evenodd" clip-rule="evenodd" fill="#2D95BF" cx="-146.5" cy="13.2" r="2.7"/></g><g><path fill-rule="evenodd" clip-rule="evenodd" fill="#2D95BF" d="M-151.5-68.1l1-0.5V-73c0-1.2-0.5-2.3-1.4-3c-0.7 0.6-1.6 1-2.6 1 s-1.9-0.4-2.6-1c-0.8 0.7-1.4 1.8-1.4 3v1.2L-151.5-68.1L-151.5-68.1z"/></g><g><path fill="#4EBA6F" d="M-22.5-56.5c-0.4 0-0.4-0.2-0.6-0.8c-0.3-0.9-0.8-2.7-1.3-3.5c-1.4-2.7-2.3-3.7-3.9-4.7l-7.2-4.2v-14.5 l13-7.3l13 7.3v14.5l-7.2 4.2c-1.6 0.9-2.4 1.9-3.9 4.7c-0.5 0.9-1 2.7-1.3 3.6C-22.1-56.7-22.1-56.5-22.5-56.5 C-22.5-56.5-22.5-56.5-22.5-56.5z"/><path fill="#FFFFFF" d="M-22.5-91l12.5 7v14l-6.9 4c-1.8 1-2.6 2.1-4.1 4.9c-0.6 1.2-1.5 4.1-1.5 4.1l0 0h0l0 0 c0 0-0.9-2.9-1.5-4.1c-1.4-2.7-2.3-3.8-4.1-4.9l-6.9-4v-14L-22.5-91 M-22.5-92.1l-0.5 0.3l-12.5 7l-0.5 0.3v0.6v14v0.6l0.5 0.3 l6.9 4c1.5 0.9 2.3 1.8 3.7 4.5c0.4 0.8 1 2.7 1.3 3.5c0.2 0.6 0.4 1.2 1.1 1.2c0 0 0 0 0 0c0.7 0 0.9-0.6 1.1-1.2 c0.3-0.8 0.8-2.6 1.3-3.5c1.4-2.7 2.1-3.6 3.7-4.5l6.9-4l0.5-0.3V-70v-14v-0.6l-0.5-0.3l-12.5-7L-22.5-92.1L-22.5-92.1z"/></g><g><polygon fill="#FFFFFF" points="-13,-72 -22.5,-67 -32,-72 -32,-82 -22.5,-87 -13,-82"/></g><g><path fill="#F0C419" d="M12.5-56.5c-0.4 0-0.4-0.2-0.6-0.8c-0.3-0.9-0.8-2.7-1.3-3.5c-1.4-2.7-2.3-3.7-3.9-4.7l-7.2-4.2v-14.5 l13-7.3l13 7.3v14.5l-7.2 4.2c-1.6 0.9-2.4 1.9-3.9 4.7c-0.5 0.9-1 2.7-1.3 3.6C12.9-56.7 12.9-56.5 12.5-56.5 C12.5-56.5 12.5-56.5 12.5-56.5z"/><path fill="#FFFFFF" d="M12.5-91L25-84v14l-6.9 4c-1.8 1-2.6 2.1-4.1 4.9c-0.6 1.2-1.5 4.1-1.5 4.1l0 0h0l0 0c0 0-0.9-2.9-1.5-4.1 C9.6-63.8 8.7-65 6.9-66L0-70v-14L12.5-91 M12.5-92.1L12-91.9l-12.5 7L-1-84.5v0.6v14v0.6l0.5 0.3l6.9 4c1.5 0.9 2.3 1.8 3.7 4.5 c0.4 0.8 1 2.7 1.3 3.5c0.2 0.6 0.4 1.2 1.1 1.2c0 0 0 0 0 0c0.7 0 0.9-0.6 1.1-1.2c0.3-0.8 0.8-2.6 1.3-3.5 c1.4-2.7 2.1-3.6 3.7-4.5l6.9-4l0.5-0.3V-70v-14v-0.6l-0.5-0.3l-12.5-7L12.5-92.1L12.5-92.1z"/></g><g><polygon fill="#FFFFFF" points="22,-72 12.5,-67 3,-72 3,-82 12.5,-87 22,-82"/></g><path fill-rule="evenodd" clip-rule="evenodd" fill="#4EBA6F" d="M-16.3-73.2c-1.7 0-4.3 0.1-5.6 0.9v-0.4v-6.5c0-0.6 1-1.8 5.6-1.8 V-73.2z M-28.7-81.1c0.5 0 5.4 0.5 5.6 1.6c0 0.1 0 0.1 0 0.2v6.5v0.4c-1.4-0.8-3.9-0.9-5.6-0.9V-81.1z M-22.5-79.5 c0-2.3-5.3-2.5-7.5-2.5v0.9v8.4v0.7h0.8h0.5v1c1.9 0 5.6-0.5 5.6 0.9h1.3c0-1.5 3.7-0.9 5.6-0.9v-1h1.1l0.2 0.1V-82 C-17.3-82-22.5-81.7-22.5-79.5z"/><g><path fill="#4EBA6F" d="M-22.5-10.5c-0.4 0-0.4-0.2-0.6-0.8c-0.3-0.9-0.8-2.7-1.3-3.5c-1.4-2.7-2.3-3.7-3.9-4.7l-7.2-4.2v-14.5 l13-7.3l13 7.3v14.5l-7.2 4.2c-1.6 0.9-2.4 1.9-3.9 4.7c-0.5 0.9-1 2.7-1.3 3.6C-22.1-10.7-22.1-10.5-22.5-10.5 C-22.5-10.5-22.5-10.5-22.5-10.5z"/><path fill="#FFFFFF" d="M-22.5-45l12.5 7v14l-6.9 4c-1.8 1-2.6 2.1-4.1 4.9c-0.6 1.2-1.5 4.1-1.5 4.1l0 0h0l0 0 c0 0-0.9-2.9-1.5-4.1c-1.4-2.7-2.3-3.8-4.1-4.9l-6.9-4v-14L-22.5-45 M-22.5-46.1l-0.5 0.3l-12.5 7l-0.5 0.3v0.6v14v0.6l0.5 0.3 l6.9 4c1.5 0.9 2.3 1.8 3.7 4.5c0.4 0.8 1 2.7 1.3 3.5c0.2 0.6 0.4 1.2 1.1 1.2c0 0 0 0 0 0c0.7 0 0.9-0.6 1.1-1.2 c0.3-0.8 0.8-2.6 1.3-3.5c1.4-2.7 2.1-3.6 3.7-4.5l6.9-4l0.5-0.3V-24v-14v-0.6l-0.5-0.3l-12.5-7L-22.5-46.1L-22.5-46.1z"/></g><g><polygon fill="#FFFFFF" points="-13,-26 -22.5,-21 -32,-26 -32,-36 -22.5,-41 -13,-36"/></g><path fill-rule="evenodd" clip-rule="evenodd" fill="#4EBA6F" d="M-16.3-27.2c-1.7 0-4.3 0.1-5.6 0.9v-0.4v-6.5c0-0.6 1-1.8 5.6-1.8 V-27.2z M-28.7-35.1c0.5 0 5.4 0.5 5.6 1.6c0 0.1 0 0.1 0 0.2v6.5v0.4c-1.4-0.8-3.9-0.9-5.6-0.9V-35.1z M-22.5-33.5 c0-2.3-5.3-2.5-7.5-2.5v0.9v8.4v0.7h0.8h0.5v1c1.9 0 5.6-0.5 5.6 0.9h1.3c0-1.5 3.7-0.9 5.6-0.9v-1h1.1l0.2 0.1V-36 C-17.3-36-22.5-35.7-22.5-33.5z"/><path fill-rule="evenodd" clip-rule="evenodd" fill="#4EBA6F" d="M-15.3 18.9c-1.7 0-4.3 0.1-5.6 0.9v-0.4v-6.5c0-0.6 1-1.8 5.6-1.8 V18.9z M-27.7 11.1c0.5 0 5.4 0.5 5.6 1.6c0 0.1 0 0.1 0 0.2v6.5v0.4c-1.4-0.8-3.9-0.9-5.6-0.9V11.1z M-21.5 12.7 c0-2.3-5.3-2.5-7.5-2.5V11v8.4v0.7h0.8h0.5v1c1.9 0 5.6-0.5 5.6 0.9h1.3c0-1.5 3.7-0.9 5.6-0.9v-1h1.1l0.2 0.1V10.1 C-16.3 10.1-21.5 10.4-21.5 12.7z"/><g><path fill="#9FC419" d="M-22.3 81.2c0 0-0.6-1.9-1.2-3.1c-1.4-2.6-3.1-4.1-3.2-4.1c-0.4-0.3-1.1-0.8-1.6-1l-6.1-3.1 c-0.7-0.3-1.2-1.2-1.2-1.9V54c0-0.7 0.5-1.6 1.2-1.9l11.7-6.1c0.3-0.2 0.7-0.2 1.1-0.2s0.8 0.1 1.1 0.2l11.7 6.1 c0.6 0.3 1.2 1.2 1.2 1.9v14c0 0.7-0.5 1.6-1.2 1.9l-6.2 3.1c-0.5 0.2-1.2 0.7-1.6 1c0 0-1.8 1.5-3.2 4.1c-0.6 1.2-1.2 3.1-1.2 3.1 l-0.8 1.8L-22.3 81.2z"/><path fill="#FFFFFF" d="M-21.5 46.3c0.3 0 0.6 0.1 0.9 0.2l11.7 6.1C-8.4 52.8-8 53.5-8 54v14c0 0.5-0.4 1.2-0.9 1.5l-6.1 3.1 c-0.5 0.2-1.2 0.7-1.7 1.1c0 0-1.9 1.5-3.3 4.2c-0.6 1.2-1.2 3.2-1.2 3.2c-0.2 0.5-0.3 1-0.3 1s-0.1-0.4-0.3-1c0 0-0.6-1.9-1.2-3.2 c-1.4-2.7-3.3-4.2-3.3-4.2c-0.4-0.3-1.2-0.8-1.7-1.1l-6.1-3.1c-0.5-0.2-0.9-0.9-0.9-1.5V54c0-0.6 0.4-1.2 0.9-1.5l11.7-6.1 C-22.1 46.3-21.8 46.3-21.5 46.3 M-21.5 45.3c-0.5 0-1 0.1-1.3 0.3l-11.7 6.1c-0.8 0.4-1.4 1.4-1.4 2.3v14c0 0.9 0.6 1.9 1.4 2.3 l6.1 3.1c0.4 0.2 1.1 0.7 1.5 1c0 0 1.7 1.4 3 3.9c0.6 1.1 1.1 3 1.1 3c0.4 1.3 0.5 1.7 1.2 1.7s0.9-0.4 1.2-1.7c0 0 0.6-1.8 1.1-3 c1.3-2.5 3-3.9 3-3.9c0.4-0.3 1.1-0.8 1.5-1l6.1-3.1C-7.6 69.9-7 68.9-7 68V54c0-0.9-0.6-1.9-1.4-2.3l-11.7-6.1 C-20.5 45.4-21 45.3-21.5 45.3L-21.5 45.3z"/></g><g><path fill="#FFFFFF" d="M-11 66c0 0.5-0.4 1.2-0.9 1.4l-8.7 4.1c-0.5 0.2-1.3 0.2-1.8 0l-8.7-4.1c-0.5-0.2-0.9-0.9-0.9-1.4V56 c0-0.5 0.4-1.2 0.9-1.4l8.7-4.1c0.5-0.2 1.3-0.2 1.8 0l8.7 4.1c0.5 0.2 0.9 0.9 0.9 1.4V66z"/></g><path fill-rule="evenodd" clip-rule="evenodd" fill="#F0C419" d="M8-72.2c-1.4 0-2.5-1.1-2.5-2.5c0-1.4 1.1-2.5 2.5-2.5 c1.4 0 2.5 1.1 2.5 2.5C10.5-73.3 9.4-72.2 8-72.2z M5-74.7c0 1.7 1.4 3 3 3c1.7 0 3-1.4 3-3c0-1.7-1.4-3-3-3 C6.3-77.7 5-76.4 5-74.7z M16.9-72.2c-1.4 0-2.5-1.1-2.5-2.5s1.1-2.5 2.5-2.5c1.4 0 2.5 1.1 2.5 2.5S18.3-72.2 16.9-72.2z M13.9-74.7c0 1.7 1.4 3 3 3c1.7 0 3-1.4 3-3c0-1.7-1.4-3-3-3C15.2-77.7 13.9-76.4 13.9-74.7z M13.9-82.1c0.6 0 1.1-0.5 1.1-1.1 s-0.5-1.1-1.1-1.1c-0.6 0-1.1 0.5-1.1 1.1C12.7-82.6 13.3-82.1 13.9-82.1z M13.9-79.2h2.2c0.7 0 0.7-1.2 0-1.2h-1.9l-1.3-2 c0 0-0.3-0.3-0.8-0.3c0 0-0.4-0.1-0.7 0.3l-2.4 2.4c-0.1 0.2-0.2 0.4-0.2 0.6c0 0.4 0.3 0.7 0.6 0.8l2.5 1.4v2.6 c0 0.4 0.2 0.7 0.6 0.7c0.4 0 0.6-0.3 0.6-0.7v-3.2c0 0 0.1-0.5-0.5-0.8l-1.3-0.7l1.5-1.5l0.7 1.2C13.6-79.4 13.8-79.1 13.9-79.2z"/><g><path fill="#F0C419" d="M12.5-10.5c-0.4 0-0.4-0.2-0.6-0.8c-0.3-0.9-0.8-2.7-1.3-3.5c-1.4-2.7-2.3-3.7-3.9-4.7l-7.2-4.2v-14.5 l13-7.3l13 7.3v14.5l-7.2 4.2c-1.6 0.9-2.4 1.9-3.9 4.7c-0.5 0.9-1 2.7-1.3 3.6C12.9-10.7 12.9-10.5 12.5-10.5 C12.5-10.5 12.5-10.5 12.5-10.5z"/><path fill="#FFFFFF" d="M12.5-45L25-38v14l-6.9 4c-1.8 1-2.6 2.1-4.1 4.9c-0.6 1.2-1.5 4.1-1.5 4.1l0 0h0l0 0c0 0-0.9-2.9-1.5-4.1 C9.6-17.8 8.7-19 6.9-20L0-24v-14L12.5-45 M12.5-46.1L12-45.9l-12.5 7L-1-38.5v0.6v14v0.6l0.5 0.3l6.9 4c1.5 0.9 2.3 1.8 3.7 4.5 c0.4 0.8 1 2.7 1.3 3.5c0.2 0.6 0.4 1.2 1.1 1.2c0 0 0 0 0 0c0.7 0 0.9-0.6 1.1-1.2c0.3-0.8 0.8-2.6 1.3-3.5 c1.4-2.7 2.1-3.6 3.7-4.5l6.9-4l0.5-0.3V-24v-14v-0.6l-0.5-0.3l-12.5-7L12.5-46.1L12.5-46.1z"/></g><g><polygon fill="#FFFFFF" points="22,-26 12.5,-21 3,-26 3,-36 12.5,-41 22,-36"/></g><path fill-rule="evenodd" clip-rule="evenodd" fill="#F0C419" d="M8-26.2c-1.4 0-2.5-1.1-2.5-2.5s1.1-2.5 2.5-2.5 c1.4 0 2.5 1.1 2.5 2.5S9.4-26.2 8-26.2z M5-28.7c0 1.7 1.4 3 3 3c1.7 0 3-1.4 3-3s-1.4-3-3-3C6.3-31.7 5-30.4 5-28.7z M16.9-26.2 c-1.4 0-2.5-1.1-2.5-2.5s1.1-2.5 2.5-2.5c1.4 0 2.5 1.1 2.5 2.5S18.3-26.2 16.9-26.2z M13.9-28.7c0 1.7 1.4 3 3 3c1.7 0 3-1.4 3-3 c0-1.7-1.4-3-3-3C15.2-31.7 13.9-30.4 13.9-28.7z M13.9-36.1c0.6 0 1.1-0.5 1.1-1.1s-0.5-1.1-1.1-1.1c-0.6 0-1.1 0.5-1.1 1.1 C12.7-36.6 13.3-36.1 13.9-36.1z M13.9-33.2h2.2c0.7 0 0.7-1.2 0-1.2h-1.9l-1.3-2c0 0-0.3-0.3-0.8-0.3c0 0-0.4-0.1-0.7 0.3l-2.4 2.4 c-0.1 0.2-0.2 0.4-0.2 0.6c0 0.4 0.3 0.7 0.6 0.8l2.5 1.4v2.6c0 0.4 0.2 0.7 0.6 0.7c0.4 0 0.6-0.3 0.6-0.7v-3.2 c0 0 0.1-0.5-0.5-0.8l-1.3-0.7l1.5-1.5l0.7 1.2C13.6-33.4 13.8-33.1 13.9-33.2z"/><path fill-rule="evenodd" clip-rule="evenodd" fill="#F0C419" d="M10 21.4c-1.4 0-2.5-1.1-2.5-2.5c0-1.4 1.1-2.5 2.5-2.5 c1.4 0 2.5 1.1 2.5 2.5C12.5 20.3 11.4 21.4 10 21.4z M7 18.9c0 1.7 1.4 3 3 3c1.7 0 3-1.4 3-3c0-1.7-1.4-3-3-3 C8.4 15.9 7 17.3 7 18.9z M19 21.4c-1.4 0-2.5-1.1-2.5-2.5c0-1.4 1.1-2.5 2.5-2.5c1.4 0 2.5 1.1 2.5 2.5 C21.4 20.3 20.3 21.4 19 21.4z M15.9 19c0 1.7 1.4 3 3 3c1.7 0 3-1.4 3-3c0-1.7-1.4-3-3-3C17.3 15.9 15.9 17.3 15.9 19z M15.9 11.6 c0.6 0 1.1-0.5 1.1-1.1c0-0.6-0.5-1.1-1.1-1.1c-0.6 0-1.1 0.5-1.1 1.1C14.8 11.1 15.3 11.6 15.9 11.6z M16 14.5h2.2 c0.7 0 0.7-1.2 0-1.2h-1.9l-1.3-2c0 0-0.3-0.3-0.8-0.3c0 0-0.4-0.1-0.7 0.3l-2.4 2.4c-0.1 0.2-0.2 0.4-0.2 0.6 c0 0.4 0.3 0.7 0.6 0.8l2.5 1.4v2.6c0 0.4 0.2 0.7 0.6 0.7c0.4 0 0.6-0.3 0.6-0.7v-3.2c0 0 0.1-0.5-0.5-0.8l-1.3-0.7l1.5-1.5 l0.7 1.2C15.6 14.3 15.8 14.5 16 14.5z"/><g><path fill="#F89C1C" d="M47.5-56.5c-0.4 0-0.4-0.2-0.6-0.8c-0.3-0.9-0.8-2.7-1.3-3.5c-1.4-2.7-2.3-3.7-3.9-4.7l-7.2-4.2v-14.5 l13-7.3l13 7.3v14.5l-7.2 4.2c-1.6 0.9-2.4 1.9-3.9 4.7c-0.5 0.9-1 2.7-1.3 3.6C47.9-56.7 47.9-56.5 47.5-56.5 C47.5-56.5 47.5-56.5 47.5-56.5z"/><path fill="#FFFFFF" d="M47.5-91L60-84v14l-6.9 4c-1.8 1-2.6 2.1-4.1 4.9c-0.6 1.2-1.5 4.1-1.5 4.1l0 0h0l0 0c0 0-0.9-2.9-1.5-4.1 c-1.4-2.7-2.3-3.8-4.1-4.9L35-70v-14L47.5-91 M47.5-92.1L47-91.9l-12.5 7L34-84.5v0.6v14v0.6l0.5 0.3l6.9 4 c1.5 0.9 2.3 1.8 3.7 4.5c0.4 0.8 1 2.7 1.3 3.5c0.2 0.6 0.4 1.2 1.1 1.2c0 0 0 0 0 0c0.7 0 0.9-0.6 1.1-1.2 c0.3-0.8 0.8-2.6 1.3-3.5c1.4-2.7 2.1-3.6 3.7-4.5l6.9-4l0.5-0.3V-70v-14v-0.6l-0.5-0.3l-12.5-7L47.5-92.1L47.5-92.1z"/></g><g><polygon fill="#FFFFFF" points="57,-72 47.5,-67 38,-72 38,-82 47.5,-87 57,-82"/></g><g><g><path fill-rule="evenodd" clip-rule="evenodd" fill="#F89C1C" d="M50.9-74.5c1.7-2 5-5.9 4.4-6.4c-0.6-0.5-4.2 3-6.1 4.9 L50.9-74.5z"/><path fill-rule="evenodd" clip-rule="evenodd" fill="#F89C1C" d="M48.9-75.7c-0.4 0.4-0.7 0.7-0.7 0.7l1.7 1.6 c0 0 0.2-0.3 0.6-0.7L48.9-75.7z"/></g><path fill-rule="evenodd" clip-rule="evenodd" fill="#F89C1C" d="M44.6-70c5.6 0.6 4.8-2.8 4.8-2.8l-1.7-1.6c0 0-1.2 0.1-1.5 1 C45.5-71.6 45.9-69.9 44.6-70z"/></g><path fill="#F89C1C" d="M40.5-80.8l1.6 4.2c0-0.1-0.5-0.2-0.8-0.1c-0.9 0.3-1.1 1.1-0.9 1.5c0.2 0.6 0.9 1.2 1.8 0.8 c0.9-0.3 0.9-1.3 0.8-1.8l-1.2-3.2l3.3-2l1.2 3.2c0-0.1-0.5-0.2-0.8-0.1c-0.9 0.3-1.1 1.1-0.9 1.5c0.2 0.6 0.9 1.2 1.8 0.8 c0.9-0.3 0.9-1.3 0.8-1.8l-2.1-5.5L40.5-80.8z"/><g><path fill="#F89C1C" d="M47.5-10.5c-0.4 0-0.4-0.2-0.6-0.8c-0.3-0.9-0.8-2.7-1.3-3.5c-1.4-2.7-2.3-3.7-3.9-4.7l-7.2-4.2v-14.5 l13-7.3l13 7.3v14.5l-7.2 4.2c-1.6 0.9-2.4 1.9-3.9 4.7c-0.5 0.9-1 2.7-1.3 3.6C47.9-10.7 47.9-10.5 47.5-10.5 C47.5-10.5 47.5-10.5 47.5-10.5z"/><path fill="#FFFFFF" d="M47.5-45L60-38v14l-6.9 4c-1.8 1-2.6 2.1-4.1 4.9c-0.6 1.2-1.5 4.1-1.5 4.1l0 0h0l0 0c0 0-0.9-2.9-1.5-4.1 c-1.4-2.7-2.3-3.8-4.1-4.9L35-24v-14L47.5-45 M47.5-46.1L47-45.9l-12.5 7L34-38.5v0.6v14v0.6l0.5 0.3l6.9 4 c1.5 0.9 2.3 1.8 3.7 4.5c0.4 0.8 1 2.7 1.3 3.5c0.2 0.6 0.4 1.2 1.1 1.2c0 0 0 0 0 0c0.7 0 0.9-0.6 1.1-1.2 c0.3-0.8 0.8-2.6 1.3-3.5c1.4-2.7 2.1-3.6 3.7-4.5l6.9-4l0.5-0.3V-24v-14v-0.6l-0.5-0.3l-12.5-7L47.5-46.1L47.5-46.1z"/></g><g><polygon fill="#FFFFFF" points="57,-26 47.5,-21 38,-26 38,-36 47.5,-41 57,-36"/></g><g><g><g><path fill-rule="evenodd" clip-rule="evenodd" fill="#F89C1C" d="M50.9-28.5c1.7-2 5-5.9 4.4-6.4c-0.6-0.5-4.2 3-6.1 4.9 L50.9-28.5z"/><path fill-rule="evenodd" clip-rule="evenodd" fill="#F89C1C" d="M48.9-29.7c-0.4 0.4-0.7 0.7-0.7 0.7l1.7 1.6 c0 0 0.2-0.3 0.6-0.7L48.9-29.7z"/></g><path fill-rule="evenodd" clip-rule="evenodd" fill="#F89C1C" d="M44.6-24c5.6 0.6 4.8-2.8 4.8-2.8l-1.7-1.6c0 0-1.2 0.1-1.5 1 C45.5-25.6 45.9-23.9 44.6-24z"/></g><path fill="#F89C1C" d="M40.5-34.8l1.6 4.2c0-0.1-0.5-0.2-0.8-0.1c-0.9 0.3-1.1 1.1-0.9 1.5c0.2 0.6 0.9 1.2 1.8 0.8 c0.9-0.3 0.9-1.3 0.8-1.8l-1.2-3.2l3.3-2l1.2 3.2c0-0.1-0.5-0.2-0.8-0.1c-0.9 0.3-1.1 1.1-0.9 1.5c0.2 0.6 0.9 1.2 1.8 0.8 c0.9-0.3 0.9-1.3 0.8-1.8l-2.1-5.5L40.5-34.8z"/></g><g><g><g><path fill-rule="evenodd" clip-rule="evenodd" fill="#F89C1C" d="M53.5 18.5c1.7-2 5-5.9 4.4-6.4c-0.6-0.5-4.2 3-6.1 4.9 L53.5 18.5z"/><path fill-rule="evenodd" clip-rule="evenodd" fill="#F89C1C" d="M51.6 17.2c-0.4 0.4-0.7 0.7-0.7 0.7l1.7 1.6 c0 0 0.2-0.3 0.6-0.7L51.6 17.2z"/></g><path fill-rule="evenodd" clip-rule="evenodd" fill="#F89C1C" d="M47.3 22.9c5.6 0.6 4.8-2.8 4.8-2.8l-1.7-1.6c0 0-1.2 0.1-1.5 1 C48.1 21.3 48.5 23.1 47.3 22.9z"/></g><path fill="#F89C1C" d="M43.2 12.2l1.6 4.2c0-0.1-0.5-0.2-0.8-0.1c-0.9 0.3-1.1 1.1-0.9 1.5c0.2 0.6 0.9 1.2 1.8 0.8 c0.9-0.3 0.9-1.3 0.8-1.8l-1.2-3.2l3.3-2l1.2 3.2c0-0.1-0.5-0.2-0.8-0.1c-0.9 0.3-1.1 1.1-0.9 1.5c0.2 0.6 0.9 1.2 1.8 0.8 c0.9-0.3 0.9-1.3 0.8-1.8l-2.1-5.5L43.2 12.2z"/></g><g><path fill="#F15A5A" d="M82.5-56.5c-0.4 0-0.4-0.2-0.6-0.8c-0.3-0.9-0.8-2.7-1.3-3.5c-1.4-2.7-2.3-3.7-3.9-4.7l-7.2-4.2v-14.5 l13-7.3l13 7.3v14.5l-7.2 4.2c-1.6 0.9-2.4 1.9-3.9 4.7c-0.5 0.9-1 2.7-1.3 3.6C82.9-56.7 82.9-56.5 82.5-56.5 C82.5-56.5 82.5-56.5 82.5-56.5z"/><path fill="#FFFFFF" d="M82.5-91L95-84v14l-6.9 4c-1.8 1-2.6 2.1-4.1 4.9c-0.6 1.2-1.5 4.1-1.5 4.1l0 0h0l0 0c0 0-0.9-2.9-1.5-4.1 c-1.4-2.7-2.3-3.8-4.1-4.9L70-70v-14L82.5-91 M82.5-92.1L82-91.9l-12.5 7L69-84.5v0.6v14v0.6l0.5 0.3l6.9 4 c1.5 0.9 2.3 1.8 3.7 4.5c0.4 0.8 1 2.7 1.3 3.5c0.2 0.6 0.4 1.2 1.1 1.2c0 0 0 0 0 0c0.7 0 0.9-0.6 1.1-1.2 c0.3-0.8 0.8-2.6 1.3-3.5c1.4-2.7 2.1-3.6 3.7-4.5l6.9-4l0.5-0.3V-70v-14v-0.6l-0.5-0.3l-12.5-7L82.5-92.1L82.5-92.1z"/></g><g><polygon fill="#FFFFFF" points="92,-72 82.5,-67 73,-72 73,-82 82.5,-87 92,-82"/></g><g><circle fill="#F15A5A" cx="77.4" cy="-81.5" r="1.1"/><path fill="#F15A5A" d="M87.7-78.8c0.4 0.6 0.9 1.3 0.9 1.4l0.3 0.4l0.3-0.4l1.8-2.1l-0.7-0.3L89-78.2c-0.5-0.8-1.1-1.7-1.2-1.9 l0 0c-0.1-0.1-0.2-0.2-0.3-0.2l-0.9-0.2c-0.1 0-0.3 0-0.4 0.1c0 0-0.1 0.1-0.1 0.1c-0.6 0.3-1.5 0.6-1.5 0.6l-2 0.7l-2-0.7 c0 0-1.1-0.5-1.7-0.7c0 0 0 0 0 0c-0.1-0.1-0.2-0.1-0.4-0.1l-0.9 0.2c-0.1 0-0.2 0.1-0.3 0.2l0 0c-0.1 0.2-0.7 1.1-1.2 1.9 l-1.4-1.6L74-79.5l1.8 2.1l0.3 0.4l0.3-0.4c0.1-0.1 0.6-0.8 1-1.4l0.5 2.1l-1.1 2.6v0.1v0.1l0.4 2.4L76.3-71h1.1l0.5-0.1l-0.1-0.4 l-0.4-2.4l1-2.4c0 0 0 0 0 0l0.9-0.2c0.1 0 0.2-0.1 0.3-0.2c0 0 0 0 0 0c0 0 0-0.2 0-0.4l-0.5-2.3l1.1 0.5c0 0 2.2 0.6 2.2 0.6 l0.1-0.3l0.1 0.3c0 0 2.2-0.7 2.2-0.7l0.9-0.4l-0.4 1.9l0 0l-3.5 2.6c0 0 0.9 0.4 2.1 0.7l-0.9 2.4l0 0v0.1l0 0l0-0.1l-0.6 0.4 l-0.6-0.4v0l0 0l-0.9-2.7l0 0l0 0l-1.1-2c-0.1 0.1-0.2 0.2-0.4 0.3l-0.2 0.1l1.1 2l0 0l0 0.1l0 0l1 2.7l0.1 0.2h0.3h0.7h0.6h0.7 h0.3l0.1-0.2l0.9-2.6c0.9 0.2 1.9 0.3 2.9 0.1l0 0.1l-0.4 2.4l-0.1 0.4l0.4 0.1h1.1L88-71.5l0.4-2.4V-74v0c0.2-0.1 0.5-0.1 0.7-0.2 c-0.6-0.8-1.2-1.4-1.6-1.9l-0.2-0.6L87.7-78.8z M81.6-72L81.6-72l0.1 0.1L81.6-72z M83.4-71.9L83.4-71.9L83.4-71.9L83.4-71.9z"/><circle fill="#F15A5A" cx="87.7" cy="-81.5" r="1.1"/></g><g><path fill="#F15A5A" d="M82.5-10.5c-0.4 0-0.4-0.2-0.6-0.8c-0.3-0.9-0.8-2.7-1.3-3.5c-1.4-2.7-2.3-3.7-3.9-4.7l-7.2-4.2v-14.5 l13-7.3l13 7.3v14.5l-7.2 4.2c-1.6 0.9-2.4 1.9-3.9 4.7c-0.5 0.9-1 2.7-1.3 3.6C82.9-10.7 82.9-10.5 82.5-10.5 C82.5-10.5 82.5-10.5 82.5-10.5z"/><path fill="#FFFFFF" d="M82.5-45L95-38v14l-6.9 4c-1.8 1-2.6 2.1-4.1 4.9c-0.6 1.2-1.5 4.1-1.5 4.1l0 0h0l0 0c0 0-0.9-2.9-1.5-4.1 c-1.4-2.7-2.3-3.8-4.1-4.9L70-24v-14L82.5-45 M82.5-46.1L82-45.9l-12.5 7L69-38.5v0.6v14v0.6l0.5 0.3l6.9 4 c1.5 0.9 2.3 1.8 3.7 4.5c0.4 0.8 1 2.7 1.3 3.5c0.2 0.6 0.4 1.2 1.1 1.2c0 0 0 0 0 0c0.7 0 0.9-0.6 1.1-1.2 c0.3-0.8 0.8-2.6 1.3-3.5c1.4-2.7 2.1-3.6 3.7-4.5l6.9-4l0.5-0.3V-24v-14v-0.6l-0.5-0.3l-12.5-7L82.5-46.1L82.5-46.1z"/></g><g><polygon fill="#FFFFFF" points="92,-26 82.5,-21 73,-26 73,-36 82.5,-41 92,-36"/></g><g><circle fill="#F15A5A" cx="77.4" cy="-35.5" r="1.1"/><path fill="#F15A5A" d="M87.7-32.8c0.4 0.6 0.9 1.3 0.9 1.4l0.3 0.4l0.3-0.4l1.8-2.1l-0.7-0.3L89-32.2c-0.5-0.8-1.1-1.7-1.2-1.9 l0 0c-0.1-0.1-0.2-0.2-0.3-0.2l-0.9-0.2c-0.1 0-0.3 0-0.4 0.1c0 0-0.1 0.1-0.1 0.1c-0.6 0.3-1.5 0.6-1.5 0.6l-2 0.7l-2-0.7 c0 0-1.1-0.5-1.7-0.7c0 0 0 0 0 0c-0.1-0.1-0.2-0.1-0.4-0.1l-0.9 0.2c-0.1 0-0.2 0.1-0.3 0.2l0 0c-0.1 0.2-0.7 1.1-1.2 1.9 l-1.4-1.6L74-33.5l1.8 2.1l0.3 0.4l0.3-0.4c0.1-0.1 0.6-0.8 1-1.4l0.5 2.1l-1.1 2.6v0.1v0.1l0.4 2.4L76.3-25h1.1l0.5-0.1l-0.1-0.4 l-0.4-2.4l1-2.4c0 0 0 0 0 0l0.9-0.2c0.1 0 0.2-0.1 0.3-0.2c0 0 0 0 0 0c0 0 0-0.2 0-0.4l-0.5-2.3l1.1 0.5c0 0 2.2 0.6 2.2 0.6 l0.1-0.3l0.1 0.3c0 0 2.2-0.7 2.2-0.7l0.9-0.4l-0.4 1.9l0 0l-3.5 2.6c0 0 0.9 0.4 2.1 0.7l-0.9 2.4l0 0v0.1l0 0l0-0.1l-0.6 0.4 l-0.6-0.4v0l0 0l-0.9-2.7l0 0l0 0l-1.1-2c-0.1 0.1-0.2 0.2-0.4 0.3l-0.2 0.1l1.1 2l0 0l0 0.1l0 0l1 2.7l0.1 0.2h0.3h0.7h0.6h0.7 h0.3l0.1-0.2l0.9-2.6c0.9 0.2 1.9 0.3 2.9 0.1l0 0.1l-0.4 2.4l-0.1 0.4l0.4 0.1h1.1L88-25.5l0.4-2.4V-28v0c0.2-0.1 0.5-0.1 0.7-0.2 c-0.6-0.8-1.2-1.4-1.6-1.9l-0.2-0.6L87.7-32.8z M81.6-26L81.6-26l0.1 0.1L81.6-26z M83.4-25.9L83.4-25.9L83.4-25.9L83.4-25.9z"/><circle fill="#F15A5A" cx="87.7" cy="-35.5" r="1.1"/></g><g><circle fill="#F15A5A" cx="81.4" cy="11.1" r="1.1"/><path fill="#F15A5A" d="M91.7 13.8c0.4 0.6 0.9 1.3 0.9 1.4l0.3 0.4l0.3-0.4l1.8-2.1l-0.7-0.3L93 14.4c-0.5-0.8-1.1-1.7-1.2-1.9 l0 0c-0.1-0.1-0.2-0.2-0.3-0.2l-0.9-0.2c-0.1 0-0.3 0-0.4 0.1c0 0-0.1 0.1-0.1 0.1c-0.6 0.3-1.5 0.6-1.5 0.6l-2 0.7l-2-0.7 c0 0-1.1-0.5-1.7-0.7c0 0 0 0 0 0c-0.1-0.1-0.2-0.1-0.4-0.1l-0.9 0.2c-0.1 0-0.2 0.1-0.3 0.2l0 0c-0.1 0.2-0.7 1.1-1.2 1.9 l-1.4-1.6L78 13.1l1.8 2.1l0.3 0.4l0.3-0.4c0.1-0.1 0.6-0.8 1-1.4l0.5 2.1l-1.1 2.6v0.1v0.1l0.4 2.4l-0.7 0.5h1.1l0.5-0.1l-0.1-0.4 l-0.4-2.4l1-2.4c0 0 0 0 0 0l0.9-0.2c0.1 0 0.2-0.1 0.3-0.2c0 0 0 0 0 0c0 0 0-0.2 0-0.4l-0.5-2.3l1.1 0.5c0 0 2.2 0.6 2.2 0.6 l0.1-0.3l0.1 0.3c0 0 2.2-0.7 2.2-0.7l0.9-0.4l-0.4 1.9l0 0l-3.5 2.6c0 0 0.9 0.4 2.1 0.7l-0.9 2.4l0 0v0.1l0 0l0-0.1l-0.6 0.4 l-0.6-0.4v0l0 0l-0.9-2.7l0 0l0 0l-1.1-2c-0.1 0.1-0.2 0.2-0.4 0.3l-0.2 0.1l1.1 2l0 0l0 0.1l0 0l1 2.7l0.1 0.2h0.3h0.7h0.6h0.7 h0.3l0.1-0.2l0.9-2.6c0.9 0.2 1.9 0.3 2.9 0.1l0 0.1l-0.4 2.4l-0.1 0.4l0.4 0.1h1.1L92 21.1l0.4-2.4v-0.1v0 c0.2-0.1 0.5-0.1 0.7-0.2c-0.6-0.8-1.2-1.4-1.6-1.9l-0.2-0.6L91.7 13.8z M85.6 20.6L85.6 20.6l0.1 0.1L85.6 20.6z M87.4 20.7 L87.4 20.7L87.4 20.7L87.4 20.7z"/><circle fill="#F15A5A" cx="91.7" cy="11.1" r="1.1"/></g><g><path fill="#955BA5" d="M117.5-56.5c-0.4 0-0.4-0.2-0.6-0.8c-0.3-0.9-0.8-2.7-1.3-3.5c-1.4-2.7-2.3-3.7-3.9-4.7l-7.2-4.2v-14.5 l13-7.3l13 7.3v14.5l-7.2 4.2c-1.6 0.9-2.4 1.9-3.9 4.7c-0.5 0.9-1 2.7-1.3 3.6C117.9-56.7 117.9-56.5 117.5-56.5 C117.5-56.5 117.5-56.5 117.5-56.5z"/><path fill="#FFFFFF" d="M117.5-91l12.5 7v14l-6.9 4c-1.8 1-2.6 2.1-4.1 4.9c-0.6 1.2-1.5 4.1-1.5 4.1l0 0h0l0 0 c0 0-0.9-2.9-1.5-4.1c-1.4-2.7-2.3-3.8-4.1-4.9l-6.9-4v-14L117.5-91 M117.5-92.1l-0.5 0.3l-12.5 7l-0.5 0.3v0.6v14v0.6l0.5 0.3 l6.9 4c1.5 0.9 2.3 1.8 3.7 4.5c0.4 0.8 1 2.7 1.3 3.5c0.2 0.6 0.4 1.2 1.1 1.2c0 0 0 0 0 0c0.7 0 0.9-0.6 1.1-1.2 c0.3-0.8 0.8-2.6 1.3-3.5c1.4-2.7 2.1-3.6 3.7-4.5l6.9-4l0.5-0.3V-70v-14v-0.6l-0.5-0.3l-12.5-7L117.5-92.1L117.5-92.1z"/></g><g><polygon fill="#FFFFFF" points="127,-72 117.5,-67 108,-72 108,-82 117.5,-87 127,-82"/></g><g><path fill="#955BA5" d="M120-83c-1.2 0-2.2 1.5-2.2 3c0 1.1 0.6 2 1.4 2.3l-0.2 6.2c0 0.6 0.5 1.1 1.1 1.1c0.6 0 1.1-0.5 1.1-1.1 l-0.2-6.2c0.8-0.3 1.3-1.1 1.3-2.3h0C122.2-81.5 121.2-83 120-83z"/><path fill="#955BA5" d="M115.6-80h-0.7v-2.8h-0.7v2.8h-0.7v-2.8h-0.7v3.5v0.7c0 0.4 0.5 0.7 0.9 0.7h0l-0.2 6.3 c0 0.6 0.5 1.1 1.1 1.1c0.6 0 1.1-0.5 1.1-1.1l-0.2-6.3c0.4 0 0.9-0.3 0.9-0.7v-0.7v-3.5h-0.7V-80z"/></g><g><path fill="#955BA5" d="M117.5-10.5c-0.4 0-0.4-0.2-0.6-0.8c-0.3-0.9-0.8-2.7-1.3-3.5c-1.4-2.7-2.3-3.7-3.9-4.7l-7.2-4.2v-14.5 l13-7.3l13 7.3v14.5l-7.2 4.2c-1.6 0.9-2.4 1.9-3.9 4.7c-0.5 0.9-1 2.7-1.3 3.6C117.9-10.7 117.9-10.5 117.5-10.5 C117.5-10.5 117.5-10.5 117.5-10.5z"/><path fill="#FFFFFF" d="M117.5-45l12.5 7v14l-6.9 4c-1.8 1-2.6 2.1-4.1 4.9c-0.6 1.2-1.5 4.1-1.5 4.1l0 0h0l0 0 c0 0-0.9-2.9-1.5-4.1c-1.4-2.7-2.3-3.8-4.1-4.9l-6.9-4v-14L117.5-45 M117.5-46.1l-0.5 0.3l-12.5 7l-0.5 0.3v0.6v14v0.6l0.5 0.3 l6.9 4c1.5 0.9 2.3 1.8 3.7 4.5c0.4 0.8 1 2.7 1.3 3.5c0.2 0.6 0.4 1.2 1.1 1.2c0 0 0 0 0 0c0.7 0 0.9-0.6 1.1-1.2 c0.3-0.8 0.8-2.6 1.3-3.5c1.4-2.7 2.1-3.6 3.7-4.5l6.9-4l0.5-0.3V-24v-14v-0.6l-0.5-0.3l-12.5-7L117.5-46.1L117.5-46.1z"/></g><g><polygon fill="#FFFFFF" points="127,-26 117.5,-21 108,-26 108,-36 117.5,-41 127,-36"/></g><g><path fill="#955BA5" d="M120-37c-1.2 0-2.2 1.5-2.2 3c0 1.1 0.6 2 1.4 2.3l-0.2 6.2c0 0.6 0.5 1.1 1.1 1.1c0.6 0 1.1-0.5 1.1-1.1 l-0.2-6.2c0.8-0.3 1.3-1.1 1.3-2.3h0C122.2-35.5 121.2-37 120-37z"/><path fill="#955BA5" d="M115.6-34h-0.7v-2.8h-0.7v2.8h-0.7v-2.8h-0.7v3.5v0.7c0 0.4 0.5 0.7 0.9 0.7h0l-0.2 6.3 c0 0.6 0.5 1.1 1.1 1.1c0.6 0 1.1-0.5 1.1-1.1l-0.2-6.3c0.4 0 0.9-0.3 0.9-0.7v-0.7v-3.5h-0.7V-34z"/></g><g><path fill="#955BA5" d="M125 10c-1.2 0-2.2 1.5-2.2 3c0 1.1 0.6 2 1.4 2.3l-0.2 6.2c0 0.6 0.5 1.1 1.1 1.1c0.6 0 1.1-0.5 1.1-1.1 l-0.2-6.2c0.8-0.3 1.3-1.1 1.3-2.3h0C127.2 11.5 126.2 10 125 10z"/><path fill="#955BA5" d="M120.6 13h-0.7v-2.8h-0.7V13h-0.7v-2.8h-0.7v3.5v0.7c0 0.4 0.5 0.7 0.9 0.7h0l-0.2 6.3 c0 0.6 0.5 1.1 1.1 1.1c0.6 0 1.1-0.5 1.1-1.1l-0.2-6.3c0.4 0 0.9-0.3 0.9-0.7v-0.7v-3.5h-0.7V13z"/></g><g><path fill="#6756B2" d="M121.7 81.2c0 0-0.6-1.9-1.2-3.1c-1.4-2.6-3.1-4.1-3.2-4.1c-0.4-0.3-1.1-0.8-1.6-1l-6.1-3.1 c-0.7-0.3-1.2-1.2-1.2-1.9V54c0-0.7 0.5-1.6 1.2-1.9l11.7-6.1c0.3-0.2 0.7-0.2 1.1-0.2s0.8 0.1 1.1 0.2l11.7 6.1 c0.6 0.3 1.2 1.2 1.2 1.9v14c0 0.7-0.5 1.6-1.2 1.9l-6.2 3.1c-0.5 0.2-1.2 0.7-1.6 1c0 0-1.8 1.5-3.2 4.1c-0.6 1.2-1.2 3.1-1.2 3.1 l-0.8 1.8L121.7 81.2z"/><path fill="#FFFFFF" d="M122.5 46.3c0.3 0 0.6 0.1 0.9 0.2l11.7 6.1c0.5 0.3 0.9 0.9 0.9 1.5v14c0 0.5-0.4 1.2-0.9 1.5l-6.1 3.1 c-0.5 0.2-1.2 0.7-1.7 1.1c0 0-1.9 1.5-3.3 4.2c-0.6 1.2-1.2 3.2-1.2 3.2c-0.2 0.5-0.3 1-0.3 1s-0.1-0.4-0.3-1c0 0-0.6-1.9-1.2-3.2 c-1.4-2.7-3.3-4.2-3.3-4.2c-0.4-0.3-1.2-0.8-1.7-1.1l-6.1-3.1c-0.5-0.2-0.9-0.9-0.9-1.5V54c0-0.6 0.4-1.2 0.9-1.5l11.7-6.1 C121.9 46.3 122.2 46.3 122.5 46.3 M122.5 45.3c-0.5 0-1 0.1-1.3 0.3l-11.7 6.1c-0.8 0.4-1.4 1.4-1.4 2.3v14c0 0.9 0.6 1.9 1.4 2.3 l6.1 3.1c0.4 0.2 1.1 0.7 1.5 1c0 0 1.7 1.4 3 3.9c0.6 1.1 1.1 3 1.1 3c0.4 1.3 0.5 1.7 1.2 1.7s0.9-0.4 1.2-1.7c0 0 0.6-1.8 1.1-3 c1.3-2.5 3-3.9 3-3.9c0.4-0.3 1.1-0.8 1.5-1l6.1-3.1c0.8-0.4 1.4-1.4 1.4-2.3V54c0-0.9-0.6-1.9-1.4-2.3l-11.7-6.1 C123.5 45.4 123 45.3 122.5 45.3L122.5 45.3z"/></g><g><path fill="#FFFFFF" d="M133 66c0 0.5-0.4 1.2-0.9 1.4l-8.7 4.1c-0.5 0.2-1.3 0.2-1.8 0l-8.7-4.1c-0.5-0.2-0.9-0.9-0.9-1.4V56 c0-0.5 0.4-1.2 0.9-1.4l8.7-4.1c0.5-0.2 1.3-0.2 1.8 0l8.7 4.1c0.5 0.2 0.9 0.9 0.9 1.4V66z"/></g><rect x="-88" y="-10" fill="#231F20" width="14" height="10"/><g><path fill="#9FC419" d="M-26.1 62.3c-0.4 1.8-1 3.3-2.4 4.7h4c1.4-1.4 2-2.9 2.4-4.7H-26.1z"/><path fill="#9FC419" d="M-21.2 62.3c0.4 1.8 1 3.4 2.4 4.7h0.3h3.9c-1.4-1.4-2-2.9-2.4-4.7H-21.2z"/><g><path fill="#9FC419" d="M-19.1 54.5c0 0 0 1.8 0 1.8c-0.1 0-0.2 0-0.3 0v0.3c1.3 0 2.1-0.5 2.1-1.8 C-18.2 55.2-18.4 54.8-19.1 54.5L-19.1 54.5z"/></g><g><path fill="#9FC419" d="M-21.2 56.6v-0.8c0.5-0.5 1.3 0 1.8 0v-2.3c-0.7-0.4-1.2-0.6-2.1-0.3h-0.3l0 3.4L-21.2 56.6L-21.2 56.6z"/><path fill="#9FC419" d="M-21.1 57.1h-0.9c-0.9 2.1-2.7 2.8-7.1 4.3h8.9h0.9h5.2C-18.3 59.9-20.1 59.2-21.1 57.1L-21.1 57.1z"/></g></g><path fill="#6756B2" d="M120.3 66.9l-1.6 1.1h3.3h1.1h3.2l-1.6-1.1H123v-3.3l6-6h-4.7l0.3-1.1l0.1 0c0.6 0 1.1-0.5 1.1-1.1 c0-0.4-0.3-0.8-0.6-1l0.1-0.4l-0.5-0.1l-0.1 0.5c-0.6 0-1 0.5-1 1.1c0 0.4 0.2 0.7 0.4 0.9l-0.3 1.3H116l6 6v3.3L120.3 66.9 L120.3 66.9z M122 62.6l-2.7-2.7h3.9l-0.7 2.5l0.5 0.1l0.7-2.6h2.1l-2.7 2.7H122z"/></svg>