<svg xmlns="http://www.w3.org/2000/svg" xmlns:xlink="http://www.w3.org/1999/xlink" version="1.1" x="0px" y="0px" width="31px" height="32px" viewBox="0 0 31 32" enable-background="new 0 0 31 32" xml:space="preserve"><g><g><g><path fill="#F47821" d="M15.5 31.872l-5.209-5.209h10.418L15.5 31.872z"/></g><g><path fill-rule="evenodd" clip-rule="evenodd" fill="#F47821" d="M31 25.128c0 1.1-0.9 2-2 2H2c-1.1 0-2-0.9-2-2v-23 c0-1.1 0.9-2 2-2h27c1.1 0 2 0.9 2 2V25.128z"/></g><g opacity="0.9"><path fill-rule="evenodd" clip-rule="evenodd" fill="#FFFFFF" d="M28 22.128c0 1.1-0.9 2-2 2H5c-1.1 0-2-0.9-2-2v-17 c0-1.1 0.9-2 2-2h21c1.1 0 2 0.9 2 2V22.128z"/></g></g><g><g><path fill-rule="evenodd" clip-rule="evenodd" fill="#F47821" d="M19.787 15.95c2.221-2.565 6.381-7.642 5.654-8.271 c-0.745-0.647-5.43 3.922-7.805 6.305L19.787 15.95z"/><path fill-rule="evenodd" clip-rule="evenodd" fill="#F47821" d="M17.267 14.354c-0.524 0.531-0.847 0.867-0.847 0.9 l2.199 2.062c0 0 0.32-0.359 0.821-0.936L17.267 14.354z"/></g><path fill-rule="evenodd" clip-rule="evenodd" fill="#F47821" d="M11.681 21.698c7.26 0.8 6.159-3.662 6.159-3.662l-2.19-2.013 c0 0-1.523 0.098-1.955 1.259C12.818 19.6 13.4 21.9 11.7 21.698z"/></g><path fill="#F47821" d="M6.401 7.812l2.047 5.437c-0.039-0.106-0.663-0.229-0.993-0.104c-1.188 0.446-1.357 1.466-1.2 1.9 c0.314 0.8 1.1 1.5 2.3 1.042c1.122-0.421 1.191-1.618 1.043-2.302L8.025 9.587l4.284-2.568l1.575 4.2 c-0.04-0.105-0.665-0.228-0.995-0.104c-1.183 0.446-1.356 1.467-1.199 1.885c0.314 0.8 1.1 1.5 2.3 1 c1.12-0.422 1.186-1.616 1.042-2.302l-2.677-7.108L6.401 7.812z"/></g></svg>