<svg xmlns="http://www.w3.org/2000/svg" xmlns:xlink="http://www.w3.org/1999/xlink" version="1.1" id="Layer_1" x="0px" y="0px" viewBox="0 0 29 38" enable-background="new 0 0 29 38" xml:space="preserve"><path fill="#2D95BF" d="M-248.5-45.6l-12.5 7v14.1l6.9 3.9c1.8 1 2.6 2.1 4.1 4.9c0.6 1.2 1.5 4.1 1.5 4.1h0c0 0 0.9-2.9 1.5-4.1 c1.4-2.7 2.3-3.8 4.1-4.9l6.9-3.9v-14.1L-248.5-45.6z"/><polygon fill="#FFFFFF" stroke="#231F20" stroke-miterlimit="10" points="-1010.7,77.1 -1034.4,36 -1010.7,-5.1 -963.3,-5.1 -939.5,36 -963.3,77.1"/><g><polygon fill="#231F20" points="-764.9,199.5 -764.9,186.1 -752.9,179.4 -740.9,186.1 -740.9,199.5 -752.9,206.2"/><path fill="#FFFFFF" d="M-752.9 179.9l11.5 6.4v12.8l-11.5 6.4l-11.5-6.4v-12.8L-752.9 179.9 M-752.9 178.8l-12.5 7v14l12.5 7 l12.5-7v-14L-752.9 178.8L-752.9 178.8z"/></g><g><polygon fill="#231F20" points="-695.9,204 -708.4,211 -720.9,204 -720.9,190 -708.4,183 -695.9,190"/></g><polygon fill="#FFFFFF" stroke="#231F20" stroke-miterlimit="10" points="-595.1,199 -607.6,205.3 -620.1,199 -620.1,186.5 -607.6,180.3 -595.1,186.5"/><path fill="#231F20" d="M-528.1-36.4l-6.4-2.4v0l0 0l0 0v0l-6.4 2.4c2 1 5.6 4 6.4 10.6c0 0 0 0.1 0 0.1c0 0 0 0 0-0.1 c0 0 0 0 0 0.1c0 0 0-0.1 0-0.1C-534.3-32.6-529.1-35.8-528.1-36.4z"/><path fill="#231F20" d="M-714 207.8c1.8 1 2.7 2.1 4.1 4.8c1.3 2.5 2 5.9 2 6.6c0-6.1 0-12.4 0-12.4h-5.1L-714 207.8z"/><path fill="#231F20" d="M-702.8 207.8c-1.8 1-2.7 2.1-4.1 4.8c-1.3 2.5-2 5.9-2 6.6c0-6.1 0-12.4 0-12.4h5.1L-702.8 207.8z"/><g><g><polygon fill="#231F20" points="-278.6,-682.3 -479,-570.1 -679.5,-682.3 -679.5,-906.8 -479,-1019 -278.6,-906.8"/></g><path fill="#231F20" d="M-405.2-636.1h-73h-1.4h-73l-15.9 15.9c28.6 16.4 42.7 34.3 65.5 77.8c10.4 19.9 18.1 43.1 23.4 63 c0 0 0.5 3.5 0.7 2.6c0.2 0.9 0.7-2.6 0.7-2.6c5.3-19.9 13-43.1 23.4-63c22.8-43.4 36.8-61.4 65.5-77.8L-405.2-636.1z"/></g><g><polygon fill="#231F20" points="346.2,-267 333.8,-260 321.2,-267 321.2,-281 333.8,-288 346.2,-281"/></g><g><polygon fill="#FFFFFF" points="-239.5,-26.5 -248.5,-21.5 -257.5,-26.5 -257.5,-36.6 -248.5,-41.7 -239.5,-36.6"/></g><path fill="#231F20" d="M338.4-264.1h-4.6h-0.1h-4.6l-1 1c1.8 1 2.7 2.1 4.1 4.8c0.7 1.2 1.1 2.7 1.5 3.9v0.3c0-0.1 0-0.1 0-0.2 c0 0.1 0 0.1 0 0.2v-0.3c0.3-1.2 0.8-2.7 1.5-3.9c1.4-2.7 2.3-3.8 4.1-4.8L338.4-264.1z"/><path fill="#231F20" d="M405.2-290l-12.5 7v14.1l6.9 3.9c1.8 1 2.6 2.1 4.1 4.9c0.6 1.2 1.5 4.1 1.5 4.1h0c0 0 0.9-2.9 1.5-4.1 c1.4-2.7 2.3-3.8 4.1-4.9l6.9-3.9V-283L405.2-290z"/><path fill="#231F20" d="M-513.5 231.5l-12.5 7v14.1l6.9 3.9c1.8 1 2.6 2.1 4.1 4.9c0.6 1.2 1.5 4.1 1.5 4.1h0c0 0 0.9-2.9 1.5-4.1 c1.4-2.7 2.3-3.8 4.1-4.9l6.9-3.9v-14.1L-513.5 231.5z"/><rect x="-144" y="-364" fill="#F15A5A" width="106" height="106"/><rect x="-268" y="-362" fill="#F89C1C" width="106" height="106"/><rect x="-509" y="-365" fill="#9FC419" width="106" height="106"/><rect x="-386" y="-365" fill="#F0C419" width="106" height="106"/><rect x="-625" y="-366" fill="#4EBA6F" width="106" height="106"/><rect x="-760" y="-369" fill="#2D95BF" width="106" height="106"/><rect x="-19" y="-363" fill="#955BA5" width="106" height="106"/><rect x="114" y="-363" fill="#6756B2" width="106" height="106"/><path fill-rule="evenodd" clip-rule="evenodd" fill="#2D95BF" d="M-241.8-29.9c-0.5-0.2-1.2-0.8-2.2-1c0.3-0.3 0.5-0.8 0.7-1.3 c0.1-0.3 0.1-0.6 0.1-1c0-0.3 0.1-0.8 0-1c-0.2-0.9-0.8-1.1-1.5-1.1c-0.7 0-1.3 0.2-1.5 1.1c-0.1 0.3 0 0.7 0 1c0 0.4 0 0.7 0.1 1 c0.2 0.6 0.4 1 0.7 1.3c-0.3 0.1-0.6 0.2-0.9 0.3c1 0.4 1.8 1 2.3 1.3c1 0.5 1.3 1 1.5 1.3h1c0.4 0 0.7-0.4 0.7-0.7v-0.2 C-240.8-28.9-240.8-29.5-241.8-29.9z M-245.2-29.4c-0.8-0.4-1.8-1.3-3.5-1.6c0.4-0.5 0.7-1.3 1.1-2.2c0.2-0.5 0.1-1 0.1-1.6 c0-0.5 0.1-1.2 0-1.6c-0.4-1.4-1.3-1.8-2.3-1.8c-1.1 0-2 0.4-2.3 1.8c-0.1 0.4 0 1.2 0 1.6c0 0.6 0 1.1 0.2 1.6 c0.3 0.9 0.6 1.7 1.1 2.2c-1.6 0.3-2.7 1.2-3.4 1.6c-1.5 0.7-1.5 1.6-1.5 1.6v0.3c0 0.5 0.6 1.1 1.1 1.1h10c0.7 0 1.1-0.6 1.1-1.1 v-0.3C-243.6-27.8-243.6-28.6-245.2-29.4z"/><circle fill-rule="evenodd" clip-rule="evenodd" fill="#F15A29" cx="-249.8" cy="-35.6" r="2.5"/><path fill="#2D95BF" d="M-214-45.6l-12.5 7v14.1l6.9 3.9c1.8 1 2.6 2.1 4.1 4.9c0.6 1.2 1.5 4.1 1.5 4.1h0c0 0 0.9-2.9 1.5-4.1 c1.4-2.7 2.3-3.8 4.1-4.9l6.9-3.9v-14.1L-214-45.6z"/><g><polygon fill="#FFFFFF" points="-205,-26.5 -214,-21.5 -223,-26.5 -223,-36.6 -214,-41.7 -205,-36.6"/></g><circle fill-rule="evenodd" clip-rule="evenodd" fill="#2D95BF" cx="-215.2" cy="-35.6" r="2.5"/><circle fill-rule="evenodd" clip-rule="evenodd" fill="#2D95BF" cx="-215.2" cy="-30.9" r="3.6"/><g><path fill="#2D95BF" d="M-21.5-56.5c-0.4 0-0.4-0.2-0.6-0.8c-0.3-0.9-0.8-2.7-1.3-3.5c-1.4-2.7-2.3-3.7-3.9-4.7l-7.2-4.2v-14.5 l13-7.3l13 7.3v14.5l-7.2 4.2c-1.6 0.9-2.4 1.9-3.9 4.7c-0.5 0.9-1 2.7-1.3 3.6C-21.1-56.7-21.1-56.5-21.5-56.5 C-21.5-56.5-21.5-56.5-21.5-56.5z"/><path fill="#FFFFFF" d="M-21.5-91L-9-84v14l-6.9 4c-1.8 1-2.6 2.1-4.1 4.9c-0.6 1.2-1.5 4.1-1.5 4.1l0 0h0l0 0c0 0-0.9-2.9-1.5-4.1 c-1.4-2.7-2.3-3.8-4.1-4.9l-6.9-4v-14L-21.5-91 M-21.5-92.1l-0.5 0.3l-12.5 7l-0.5 0.3v0.6v14v0.6l0.5 0.3l6.9 4 c1.5 0.9 2.3 1.8 3.7 4.5c0.4 0.8 1 2.7 1.3 3.5c0.2 0.6 0.4 1.2 1.1 1.2c0 0 0 0 0 0c0.7 0 0.9-0.6 1.1-1.2 c0.3-0.8 0.8-2.6 1.3-3.5c1.4-2.7 2.1-3.6 3.7-4.5l6.9-4l0.5-0.3V-70v-14v-0.6l-0.5-0.3l-12.5-7L-21.5-92.1L-21.5-92.1z"/></g><g><polygon fill="#FFFFFF" points="-12,-72 -21.5,-67 -31,-72 -31,-82 -21.5,-87 -12,-82"/></g><g><path fill="#2D95BF" d="M-115.5-56.5c-0.4 0-0.4-0.2-0.6-0.8c-0.3-0.9-0.8-2.7-1.3-3.5c-1.4-2.7-2.3-3.7-3.9-4.7l-7.2-4.2v-14.5 l13-7.3l13 7.3v14.5l-7.2 4.2c-1.6 0.9-2.4 1.9-3.9 4.7c-0.5 0.9-1 2.7-1.3 3.6C-115.1-56.7-115.1-56.5-115.5-56.5 C-115.5-56.5-115.5-56.5-115.5-56.5z"/><path fill="#FFFFFF" d="M-115.5-91l12.5 7v14l-6.9 4c-1.8 1-2.6 2.1-4.1 4.9c-0.6 1.2-1.5 4.1-1.5 4.1l0 0h0l0 0 c0 0-0.9-2.9-1.5-4.1c-1.4-2.7-2.3-3.8-4.1-4.9l-6.9-4v-14L-115.5-91 M-115.5-92.1l-0.5 0.3l-12.5 7l-0.5 0.3v0.6v14v0.6l0.5 0.3 l6.9 4c1.5 0.9 2.3 1.8 3.7 4.5c0.4 0.8 1 2.7 1.3 3.5c0.2 0.6 0.4 1.2 1.1 1.2c0 0 0 0 0 0c0.7 0 0.9-0.6 1.1-1.2 c0.3-0.8 0.8-2.6 1.3-3.5c1.4-2.7 2.1-3.6 3.7-4.5l6.9-4l0.5-0.3V-70v-14v-0.6l-0.5-0.3l-12.5-7L-115.5-92.1L-115.5-92.1z"/></g><g><polygon fill="#FFFFFF" points="-106,-72 -115.5,-67 -125,-72 -125,-82 -115.5,-87 -106,-82"/></g><circle fill-rule="evenodd" clip-rule="evenodd" fill="#2D95BF" cx="-112" cy="-81.5" r="2.5"/><g><path fill-rule="evenodd" clip-rule="evenodd" fill="#2D95BF" d="M-115-72.5h0.5V-73c0-0.7-0.2-1.4-0.5-2V-72.5z"/><g><path fill-rule="evenodd" clip-rule="evenodd" fill="#2D95BF" d="M-112-79c0.7 0 1.4-0.3 1.9-0.8c-0.5-0.4-1.2-0.7-1.9-0.7 s-1.3 0.3-1.9 0.7C-113.4-79.3-112.7-79-112-79z"/><path fill-rule="evenodd" clip-rule="evenodd" fill="#2D95BF" d="M-112-78c-1 0-1.9-0.4-2.5-1.1c-0.3 0.5-0.5 1-0.5 1.6v0.9 c0.9 0.9 1.5 2.2 1.5 3.6v0.5h4.5v-5c0-0.6-0.2-1.1-0.5-1.6C-110.1-78.4-111-78-112-78z"/></g></g><g><path fill-rule="evenodd" clip-rule="evenodd" fill="#2D95BF" d="M-116.7-76.6c-0.5-0.3-1.1-0.4-1.8-0.4s-1.2 0.2-1.8 0.4 c0.5 0.4 1.1 0.6 1.8 0.6S-117.2-76.2-116.7-76.6z"/><circle fill-rule="evenodd" clip-rule="evenodd" fill="#2D95BF" cx="-118.5" cy="-79" r="3"/></g><path fill="#2D95BF" d="M-145.5-91l-12.5 7v14l6.9 4c1.8 1 2.6 2.1 4.1 4.9c0.6 1.2 1.5 4.1 1.5 4.1l0 0c0 0 0.9-2.9 1.5-4.1 c1.4-2.7 2.3-3.8 4.1-4.9l6.9-4v-14L-145.5-91z"/><g><polygon fill="#FFFFFF" points="-136,-72 -145.5,-67 -155,-72 -155,-82 -145.5,-87 -136,-82"/></g><path fill-rule="evenodd" clip-rule="evenodd" fill="#2D95BF" d="M-142-80.5c-1.7 0-3 1.3-3 3v5h6v-5C-139-79.2-140.3-80.5-142-80.5 z"/><g><circle fill-rule="evenodd" clip-rule="evenodd" fill="#2D95BF" cx="-142" cy="-81.5" r="3"/><path fill="#FFFFFF" d="M-142-84c1.4 0 2.5 1.1 2.5 2.5s-1.1 2.5-2.5 2.5s-2.5-1.1-2.5-2.5S-143.4-84-142-84 M-142-85 c-1.9 0-3.5 1.6-3.5 3.5s1.6 3.5 3.5 3.5s3.5-1.6 3.5-3.5S-140.1-85-142-85L-142-85z"/></g><g><path fill-rule="evenodd" clip-rule="evenodd" fill="#2D95BF" d="M-153-68.5V-73c0-2.5 2-4.5 4.5-4.5s4.5 2 4.5 4.5v4.5H-153z"/><path fill="#FFFFFF" d="M-148.5-77c2.2 0 4 1.8 4 4v4h-8v-4C-152.5-75.2-150.7-77-148.5-77 M-148.5-78c-2.8 0-5 2.2-5 5v4v1h1h8h1 v-1v-4C-143.5-75.8-145.7-78-148.5-78L-148.5-78z"/></g><g><path fill-rule="evenodd" clip-rule="evenodd" fill="#2D95BF" d="M-148.5-75.5c-1.9 0-3.5-1.6-3.5-3.5s1.6-3.5 3.5-3.5 s3.5 1.6 3.5 3.5S-146.5-75.5-148.5-75.5z"/><path fill="#FFFFFF" d="M-148.5-82c1.7 0 3 1.3 3 3s-1.3 3-3 3s-3-1.3-3-3S-150.1-82-148.5-82 M-148.5-83c-2.2 0-4 1.8-4 4 s1.8 4 4 4s4-1.8 4-4S-146.2-83-148.5-83L-148.5-83z"/></g><path fill-rule="evenodd" clip-rule="evenodd" fill="#2D95BF" d="M-18.6-79.8c0.6 0 1.2-0.3 1.6-0.7c-0.4-0.3-1-0.6-1.6-0.6 s-1.1 0.2-1.6 0.6C-19.8-80.1-19.3-79.8-18.6-79.8z"/><circle fill-rule="evenodd" clip-rule="evenodd" fill="#2D95BF" cx="-18.6" cy="-81.9" r="2.1"/><g><path fill-rule="evenodd" clip-rule="evenodd" fill="#2D95BF" d="M-21-74h0.3v-0.7c0-0.5-0.1-0.9-0.3-1.4V-74z"/><path fill-rule="evenodd" clip-rule="evenodd" fill="#2D95BF" d="M-16.4-79.7c-0.6 0.6-1.4 0.9-2.3 0.9s-1.6-0.4-2.1-0.9 C-21-79.4-21-79-21-78.5v0.7c0.8 0.8 1.3 1.9 1.3 3.1v0.7h3.7v-4.5C-16-79-16.2-79.4-16.4-79.7z"/></g><g><g><path fill-rule="evenodd" clip-rule="evenodd" fill="#2D95BF" d="M-21.7-77.2c-0.6 0.6-1.4 0.9-2.3 0.9s-1.7-0.3-2.3-0.9 c-0.6 0.6-1 1.5-1 2.4v3.4h6.7v-3.4C-20.7-75.7-21.1-76.5-21.7-77.2z"/></g><circle fill-rule="evenodd" clip-rule="evenodd" fill="#2D95BF" cx="-24.1" cy="-79.8" r="2.5"/></g><g><path fill="#2D95BF" d="M-21.5-10.5c-0.4 0-0.4-0.2-0.6-0.8c-0.3-0.9-0.8-2.7-1.3-3.5c-1.4-2.7-2.3-3.7-3.9-4.7l-7.2-4.2v-14.5 l13-7.3l13 7.3v14.5l-7.2 4.2c-1.6 0.9-2.4 1.9-3.9 4.7c-0.5 0.9-1 2.7-1.3 3.6C-21.1-10.7-21.1-10.5-21.5-10.5 C-21.5-10.5-21.5-10.5-21.5-10.5z"/><path fill="#FFFFFF" d="M-21.5-45L-9-38v14l-6.9 4c-1.8 1-2.6 2.1-4.1 4.9c-0.6 1.2-1.5 4.1-1.5 4.1l0 0h0l0 0c0 0-0.9-2.9-1.5-4.1 c-1.4-2.7-2.3-3.8-4.1-4.9l-6.9-4v-14L-21.5-45 M-21.5-46.1l-0.5 0.3l-12.5 7l-0.5 0.3v0.6v14v0.6l0.5 0.3l6.9 4 c1.5 0.9 2.3 1.8 3.7 4.5c0.4 0.8 1 2.7 1.3 3.5c0.2 0.6 0.4 1.2 1.1 1.2c0 0 0 0 0 0c0.7 0 0.9-0.6 1.1-1.2 c0.3-0.8 0.8-2.6 1.3-3.5c1.4-2.7 2.1-3.6 3.7-4.5l6.9-4l0.5-0.3V-24v-14v-0.6l-0.5-0.3l-12.5-7L-21.5-46.1L-21.5-46.1z"/></g><g><polygon fill="#FFFFFF" points="-12,-26 -21.5,-21 -31,-26 -31,-36 -21.5,-41 -12,-36"/></g><path fill-rule="evenodd" clip-rule="evenodd" fill="#2D95BF" d="M-18.6-33.8c0.6 0 1.2-0.3 1.6-0.7c-0.4-0.3-1-0.6-1.6-0.6 s-1.1 0.2-1.6 0.6C-19.8-34.1-19.3-33.8-18.6-33.8z"/><circle fill-rule="evenodd" clip-rule="evenodd" fill="#2D95BF" cx="-18.6" cy="-35.9" r="2.1"/><g><path fill-rule="evenodd" clip-rule="evenodd" fill="#2D95BF" d="M-21-28h0.3v-0.7c0-0.5-0.1-0.9-0.3-1.4V-28z"/><path fill-rule="evenodd" clip-rule="evenodd" fill="#2D95BF" d="M-16.4-33.7c-0.6 0.6-1.4 0.9-2.3 0.9s-1.6-0.4-2.1-0.9 C-21-33.4-21-33-21-32.5v0.7c0.8 0.8 1.3 1.9 1.3 3.1v0.7h3.7v-4.5C-16-33-16.2-33.4-16.4-33.7z"/></g><g><g><path fill-rule="evenodd" clip-rule="evenodd" fill="#2D95BF" d="M-21.7-31.2c-0.6 0.6-1.4 0.9-2.3 0.9s-1.7-0.3-2.3-0.9 c-0.6 0.6-1 1.5-1 2.4v3.4h6.7v-3.4C-20.7-29.7-21.1-30.5-21.7-31.2z"/></g><circle fill-rule="evenodd" clip-rule="evenodd" fill="#2D95BF" cx="-24.1" cy="-33.8" r="2.5"/></g><g><path fill="#2D95BF" d="M-22.3 36.2c0 0-0.6-1.9-1.2-3.1c-1.4-2.6-3.1-4.1-3.2-4.1c-0.4-0.3-1.1-0.8-1.6-1l-6.1-3.1 c-0.7-0.3-1.2-1.2-1.2-1.9V9c0-0.7 0.5-1.6 1.2-1.9L-22.6 1c0.3-0.2 0.7-0.2 1.1-0.2s0.8 0.1 1.1 0.2l11.7 6.1 C-8 7.5-7.5 8.3-7.5 9v14c0 0.7-0.5 1.6-1.2 1.9l-6.2 3.1c-0.5 0.2-1.2 0.7-1.6 1c0 0-1.8 1.5-3.2 4.1c-0.6 1.2-1.2 3.1-1.2 3.1 l-0.8 1.8L-22.3 36.2z"/><path fill="#FFFFFF" d="M-21.5 1.3c0.3 0 0.6 0.1 0.9 0.2l11.7 6.1C-8.4 7.8-8 8.5-8 9v14c0 0.5-0.4 1.2-0.9 1.5l-6.1 3.1 c-0.5 0.2-1.2 0.7-1.7 1.1c0 0-1.9 1.5-3.3 4.2c-0.6 1.2-1.2 3.2-1.2 3.2c-0.2 0.5-0.3 1-0.3 1s-0.1-0.4-0.3-1c0 0-0.6-1.9-1.2-3.2 c-1.4-2.7-3.3-4.2-3.3-4.2c-0.4-0.3-1.2-0.8-1.7-1.1l-6.1-3.1c-0.5-0.2-0.9-0.9-0.9-1.5V9c0-0.6 0.4-1.2 0.9-1.5l11.7-6.1 C-22.1 1.3-21.8 1.3-21.5 1.3 M-21.5 0.3c-0.5 0-1 0.1-1.3 0.3l-11.7 6.1C-35.4 7.1-36 8.1-36 9v14c0 0.9 0.6 1.9 1.4 2.3l6.1 3.1 c0.4 0.2 1.1 0.7 1.5 1c0 0 1.7 1.4 3 3.9c0.6 1.1 1.1 3 1.1 3c0.4 1.3 0.5 1.7 1.2 1.7s0.9-0.4 1.2-1.7c0 0 0.6-1.8 1.1-3 c1.3-2.5 3-3.9 3-3.9c0.4-0.3 1.1-0.8 1.5-1l6.1-3.1C-7.6 24.9-7 23.9-7 23V9c0-0.9-0.6-1.9-1.4-2.3l-11.7-6.1 C-20.5 0.4-21 0.3-21.5 0.3L-21.5 0.3z"/></g><g><path fill="#FFFFFF" d="M-11 21c0 0.6-0.4 1.2-0.9 1.4l-8.7 4.1c-0.5 0.2-1.3 0.2-1.8 0l-8.7-4.1c-0.5-0.2-0.9-0.9-0.9-1.4V11 c0-0.6 0.4-1.2 0.9-1.4l8.7-4.1c0.5-0.2 1.3-0.2 1.8 0l8.7 4.1c0.5 0.2 0.9 0.9 0.9 1.4V21z"/></g><circle fill-rule="evenodd" clip-rule="evenodd" fill="#2D95BF" cx="-18.8" cy="11" r="2.2"/><g><g><path fill-rule="evenodd" clip-rule="evenodd" fill="#2D95BF" d="M-22 15.9c-0.7 0.6-1.5 0.9-2.4 0.9s-1.8-0.4-2.4-0.9 c-0.7 0.6-1.1 1.5-1.1 2.5V22h7.1v-3.5C-20.9 17.5-21.4 16.6-22 15.9z"/></g><circle fill-rule="evenodd" clip-rule="evenodd" fill="#2D95BF" cx="-24.5" cy="13.2" r="2.7"/><g><g><path fill-rule="evenodd" clip-rule="evenodd" fill="#2D95BF" d="M-16.2 12.9c-0.6 0.8-1.5 1.3-2.6 1.3c-0.8 0-1.5-0.3-2.1-0.8 c0 0.6-0.2 1.2-0.6 1.8l0.1 0.1c0.9 0.9 1.4 2 1.4 3.3V19h4.9v-3.5C-15 14.4-15.5 13.5-16.2 12.9z"/></g></g></g><g><path fill="#4EBA6F" stroke="#FFFFFF" stroke-miterlimit="10" d="M13.7 36.2c0 0-0.6-1.9-1.2-3.1c-1.4-2.6-3.1-4.1-3.2-4.1 c-0.4-0.3-1.1-0.8-1.6-1l-6.1-3.1C1 24.6 0.5 23.7 0.5 23V9c0-0.7 0.5-1.6 1.2-1.9L13.4 1c0.3-0.2 0.7-0.2 1.1-0.2s0.8 0.1 1.1 0.2 l11.7 6.1C28 7.5 28.5 8.3 28.5 9v14c0 0.7-0.5 1.6-1.2 1.9L21.2 28c-0.5 0.2-1.2 0.7-1.6 1c0 0-1.8 1.5-3.2 4.1 c-0.6 1.2-1.2 3.1-1.2 3.1L14.5 38L13.7 36.2z"/><path fill="#FFFFFF" d="M14.5 1.3c0.3 0 0.6 0.1 0.9 0.2l11.7 6.1C27.6 7.8 28 8.5 28 9v14c0 0.5-0.4 1.2-0.9 1.5L21 27.6 c-0.5 0.2-1.2 0.7-1.7 1.1c0 0-1.9 1.5-3.3 4.2c-0.6 1.2-1.2 3.2-1.2 3.2c-0.2 0.5-0.3 1-0.3 1s-0.1-0.4-0.3-1c0 0-0.6-1.9-1.2-3.2 c-1.4-2.7-3.3-4.2-3.3-4.2c-0.4-0.3-1.2-0.8-1.7-1.1l-6.1-3.1C1.4 24.2 1 23.5 1 23V9c0-0.6 0.4-1.2 0.9-1.5l11.7-6.1 C13.9 1.3 14.2 1.3 14.5 1.3 M14.5 0.3c-0.5 0-1 0.1-1.3 0.3L1.4 6.7C0.6 7.1 0 8.1 0 9v14c0 0.9 0.6 1.9 1.4 2.3l6.1 3.1 c0.4 0.2 1.1 0.7 1.5 1c0 0 1.7 1.4 3 3.9c0.6 1.1 1.1 3 1.1 3c0.4 1.3 0.5 1.7 1.2 1.7s0.9-0.4 1.2-1.7c0 0 0.6-1.8 1.1-3 c1.3-2.5 3-3.9 3-3.9c0.4-0.3 1.1-0.8 1.5-1l6.1-3.1c0.8-0.4 1.4-1.4 1.4-2.3V9c0-0.9-0.6-1.9-1.4-2.3L15.8 0.6 C15.5 0.4 15 0.3 14.5 0.3L14.5 0.3z"/></g><g><path fill="#FFFFFF" d="M25 21c0 0.6-0.4 1.2-0.9 1.4l-8.7 4.1c-0.5 0.2-1.3 0.2-1.8 0l-8.7-4.1C4.4 22.2 4 21.5 4 21V11 c0-0.6 0.4-1.2 0.9-1.4l8.7-4.1c0.5-0.2 1.3-0.2 1.8 0l8.7 4.1C24.6 9.8 25 10.4 25 11V21z"/></g><g><path fill="#F0C419" stroke="#FFFFFF" stroke-miterlimit="10" d="M49.7 36.2c0 0-0.6-1.9-1.2-3.1c-1.4-2.6-3.1-4.1-3.2-4.1 c-0.4-0.3-1.1-0.8-1.6-1l-6.1-3.1c-0.7-0.3-1.2-1.2-1.2-1.9V9c0-0.7 0.5-1.6 1.2-1.9L49.4 1c0.3-0.2 0.7-0.2 1.1-0.2 s0.8 0.1 1.1 0.2l11.7 6.1C64 7.5 64.5 8.3 64.5 9v14c0 0.7-0.5 1.6-1.2 1.9L57.2 28c-0.5 0.2-1.2 0.7-1.6 1c0 0-1.8 1.5-3.2 4.1 c-0.6 1.2-1.2 3.1-1.2 3.1L50.5 38L49.7 36.2z"/><path fill="#FFFFFF" d="M50.5 1.3c0.3 0 0.6 0.1 0.9 0.2l11.7 6.1C63.6 7.8 64 8.5 64 9v14c0 0.5-0.4 1.2-0.9 1.5L57 27.6 c-0.5 0.2-1.2 0.7-1.7 1.1c0 0-1.9 1.5-3.3 4.2c-0.6 1.2-1.2 3.2-1.2 3.2c-0.2 0.5-0.3 1-0.3 1s-0.1-0.4-0.3-1c0 0-0.6-1.9-1.2-3.2 c-1.4-2.7-3.3-4.2-3.3-4.2c-0.4-0.3-1.2-0.8-1.7-1.1l-6.1-3.1C37.4 24.2 37 23.5 37 23V9c0-0.6 0.4-1.2 0.9-1.5l11.7-6.1 C49.9 1.3 50.2 1.3 50.5 1.3 M50.5 0.3c-0.5 0-1 0.1-1.3 0.3L37.4 6.7C36.6 7.1 36 8.1 36 9v14c0 0.9 0.6 1.9 1.4 2.3l6.1 3.1 c0.4 0.2 1.1 0.7 1.5 1c0 0 1.7 1.4 3 3.9c0.6 1.1 1.1 3 1.1 3c0.4 1.3 0.5 1.7 1.2 1.7s0.9-0.4 1.2-1.7c0 0 0.6-1.8 1.1-3 c1.3-2.5 3-3.9 3-3.9c0.4-0.3 1.1-0.8 1.5-1l6.1-3.1c0.8-0.4 1.4-1.4 1.4-2.3V9c0-0.9-0.6-1.9-1.4-2.3L51.8 0.6 C51.5 0.4 51 0.3 50.5 0.3L50.5 0.3z"/></g><g><path fill="#FFFFFF" d="M61 21c0 0.6-0.4 1.2-0.9 1.4l-8.7 4.1c-0.5 0.2-1.3 0.2-1.8 0l-8.7-4.1C40.4 22.2 40 21.5 40 21V11 c0-0.6 0.4-1.2 0.9-1.4l8.7-4.1c0.5-0.2 1.3-0.2 1.8 0l8.7 4.1C60.6 9.8 61 10.4 61 11V21z"/></g><g><path fill="#F89C1C" stroke="#FFFFFF" stroke-miterlimit="10" d="M85.7 36.2c0 0-0.6-1.9-1.2-3.1c-1.4-2.6-3.1-4.1-3.2-4.1 c-0.4-0.3-1.1-0.8-1.6-1l-6.1-3.1c-0.7-0.3-1.2-1.2-1.2-1.9V9c0-0.7 0.5-1.6 1.2-1.9L85.4 1c0.3-0.2 0.7-0.2 1.1-0.2 s0.8 0.1 1.1 0.2l11.7 6.1c0.6 0.3 1.2 1.2 1.2 1.9v14c0 0.7-0.5 1.6-1.2 1.9L93.2 28c-0.5 0.2-1.2 0.7-1.6 1c0 0-1.8 1.5-3.2 4.1 c-0.6 1.2-1.2 3.1-1.2 3.1L86.5 38L85.7 36.2z"/><path fill="#FFFFFF" d="M86.5 1.3c0.3 0 0.6 0.1 0.9 0.2l11.7 6.1C99.6 7.8 100 8.5 100 9v14c0 0.5-0.4 1.2-0.9 1.5L93 27.6 c-0.5 0.2-1.2 0.7-1.7 1.1c0 0-1.9 1.5-3.3 4.2c-0.6 1.2-1.2 3.2-1.2 3.2c-0.2 0.5-0.3 1-0.3 1s-0.1-0.4-0.3-1c0 0-0.6-1.9-1.2-3.2 c-1.4-2.7-3.3-4.2-3.3-4.2c-0.4-0.3-1.2-0.8-1.7-1.1l-6.1-3.1C73.4 24.2 73 23.5 73 23V9c0-0.6 0.4-1.2 0.9-1.5l11.7-6.1 C85.9 1.3 86.2 1.3 86.5 1.3 M86.5 0.3c-0.5 0-1 0.1-1.3 0.3L73.4 6.7C72.6 7.1 72 8.1 72 9v14c0 0.9 0.6 1.9 1.4 2.3l6.1 3.1 c0.4 0.2 1.1 0.7 1.5 1c0 0 1.7 1.4 3 3.9c0.6 1.1 1.1 3 1.1 3c0.4 1.3 0.5 1.7 1.2 1.7s0.9-0.4 1.2-1.7c0 0 0.6-1.8 1.1-3 c1.3-2.5 3-3.9 3-3.9c0.4-0.3 1.1-0.8 1.5-1l6.1-3.1c0.8-0.4 1.4-1.4 1.4-2.3V9c0-0.9-0.6-1.9-1.4-2.3L87.8 0.6 C87.5 0.4 87 0.3 86.5 0.3L86.5 0.3z"/></g><g><path fill="#FFFFFF" d="M97 21c0 0.6-0.4 1.2-0.9 1.4l-8.7 4.1c-0.5 0.2-1.3 0.2-1.8 0l-8.7-4.1C76.4 22.2 76 21.5 76 21V11 c0-0.6 0.4-1.2 0.9-1.4l8.7-4.1c0.5-0.2 1.3-0.2 1.8 0l8.7 4.1C96.6 9.8 97 10.4 97 11V21z"/></g><g><path fill="#F15A5A" stroke="#FFFFFF" stroke-miterlimit="10" d="M121.7 36.2c0 0-0.6-1.9-1.2-3.1c-1.4-2.6-3.1-4.1-3.2-4.1 c-0.4-0.3-1.1-0.8-1.6-1l-6.1-3.1c-0.7-0.3-1.2-1.2-1.2-1.9V9c0-0.7 0.5-1.6 1.2-1.9L121.4 1c0.3-0.2 0.7-0.2 1.1-0.2 s0.8 0.1 1.1 0.2l11.7 6.1c0.6 0.3 1.2 1.2 1.2 1.9v14c0 0.7-0.5 1.6-1.2 1.9l-6.2 3.1c-0.5 0.2-1.2 0.7-1.6 1c0 0-1.8 1.5-3.2 4.1 c-0.6 1.2-1.2 3.1-1.2 3.1l-0.8 1.8L121.7 36.2z"/><path fill="#FFFFFF" d="M122.5 1.3c0.3 0 0.6 0.1 0.9 0.2l11.7 6.1c0.5 0.3 0.9 0.9 0.9 1.5v14c0 0.5-0.4 1.2-0.9 1.5l-6.1 3.1 c-0.5 0.2-1.2 0.7-1.7 1.1c0 0-1.9 1.5-3.3 4.2c-0.6 1.2-1.2 3.2-1.2 3.2c-0.2 0.5-0.3 1-0.3 1s-0.1-0.4-0.3-1c0 0-0.6-1.9-1.2-3.2 c-1.4-2.7-3.3-4.2-3.3-4.2c-0.4-0.3-1.2-0.8-1.7-1.1l-6.1-3.1c-0.5-0.2-0.9-0.9-0.9-1.5V9c0-0.6 0.4-1.2 0.9-1.5l11.7-6.1 C121.9 1.3 122.2 1.3 122.5 1.3 M122.5 0.3c-0.5 0-1 0.1-1.3 0.3l-11.7 6.1C108.6 7.1 108 8.1 108 9v14c0 0.9 0.6 1.9 1.4 2.3 l6.1 3.1c0.4 0.2 1.1 0.7 1.5 1c0 0 1.7 1.4 3 3.9c0.6 1.1 1.1 3 1.1 3c0.4 1.3 0.5 1.7 1.2 1.7s0.9-0.4 1.2-1.7c0 0 0.6-1.8 1.1-3 c1.3-2.5 3-3.9 3-3.9c0.4-0.3 1.1-0.8 1.5-1l6.1-3.1c0.8-0.4 1.4-1.4 1.4-2.3V9c0-0.9-0.6-1.9-1.4-2.3l-11.7-6.1 C123.5 0.4 123 0.3 122.5 0.3L122.5 0.3z"/></g><g><path fill="#FFFFFF" d="M133 21c0 0.6-0.4 1.2-0.9 1.4l-8.7 4.1c-0.5 0.2-1.3 0.2-1.8 0l-8.7-4.1c-0.5-0.2-0.9-0.9-0.9-1.4V11 c0-0.6 0.4-1.2 0.9-1.4l8.7-4.1c0.5-0.2 1.3-0.2 1.8 0l8.7 4.1c0.5 0.2 0.9 0.9 0.9 1.4V21z"/></g><g><path fill="#955BA5" stroke="#FFFFFF" stroke-miterlimit="10" d="M157.7 36.2c0 0-0.6-1.9-1.2-3.1c-1.4-2.6-3.1-4.1-3.2-4.1 c-0.4-0.3-1.1-0.8-1.6-1l-6.1-3.1c-0.7-0.3-1.2-1.2-1.2-1.9V9c0-0.7 0.5-1.6 1.2-1.9L157.4 1c0.3-0.2 0.7-0.2 1.1-0.2 s0.8 0.1 1.1 0.2l11.7 6.1c0.6 0.3 1.2 1.2 1.2 1.9v14c0 0.7-0.5 1.6-1.2 1.9l-6.2 3.1c-0.5 0.2-1.2 0.7-1.6 1c0 0-1.8 1.5-3.2 4.1 c-0.6 1.2-1.2 3.1-1.2 3.1l-0.8 1.8L157.7 36.2z"/><path fill="#FFFFFF" d="M158.5 1.3c0.3 0 0.6 0.1 0.9 0.2l11.7 6.1c0.5 0.3 0.9 0.9 0.9 1.5v14c0 0.5-0.4 1.2-0.9 1.5l-6.1 3.1 c-0.5 0.2-1.2 0.7-1.7 1.1c0 0-1.9 1.5-3.3 4.2c-0.6 1.2-1.2 3.2-1.2 3.2c-0.2 0.5-0.3 1-0.3 1s-0.1-0.4-0.3-1c0 0-0.6-1.9-1.2-3.2 c-1.4-2.7-3.3-4.2-3.3-4.2c-0.4-0.3-1.2-0.8-1.7-1.1l-6.1-3.1c-0.5-0.2-0.9-0.9-0.9-1.5V9c0-0.6 0.4-1.2 0.9-1.5l11.7-6.1 C157.9 1.3 158.2 1.3 158.5 1.3 M158.5 0.3c-0.5 0-1 0.1-1.3 0.3l-11.7 6.1C144.6 7.1 144 8.1 144 9v14c0 0.9 0.6 1.9 1.4 2.3 l6.1 3.1c0.4 0.2 1.1 0.7 1.5 1c0 0 1.7 1.4 3 3.9c0.6 1.1 1.1 3 1.1 3c0.4 1.3 0.5 1.7 1.2 1.7s0.9-0.4 1.2-1.7c0 0 0.6-1.8 1.1-3 c1.3-2.5 3-3.9 3-3.9c0.4-0.3 1.1-0.8 1.5-1l6.1-3.1c0.8-0.4 1.4-1.4 1.4-2.3V9c0-0.9-0.6-1.9-1.4-2.3l-11.7-6.1 C159.5 0.4 159 0.3 158.5 0.3L158.5 0.3z"/></g><g><path fill="#FFFFFF" d="M169 21c0 0.6-0.4 1.2-0.9 1.4l-8.7 4.1c-0.5 0.2-1.3 0.2-1.8 0l-8.7-4.1c-0.5-0.2-0.9-0.9-0.9-1.4V11 c0-0.6 0.4-1.2 0.9-1.4l8.7-4.1c0.5-0.2 1.3-0.2 1.8 0l8.7 4.1c0.5 0.2 0.9 0.9 0.9 1.4V21z"/></g><g><path fill="#2D95BF" d="M-190.3 36.2c0 0-0.6-1.9-1.2-3.1c-1.4-2.6-3.1-4.1-3.2-4.1c-0.4-0.3-1.1-0.8-1.6-1l-6.1-3.1 c-0.7-0.3-1.2-1.2-1.2-1.9V9c0-0.7 0.5-1.6 1.2-1.9l11.7-6.1c0.3-0.2 0.7-0.2 1.1-0.2s0.8 0.1 1.1 0.2l11.7 6.1 c0.6 0.3 1.2 1.2 1.2 1.9v14c0 0.7-0.5 1.6-1.2 1.9l-6.2 3.1c-0.5 0.2-1.2 0.7-1.6 1c0 0-1.8 1.5-3.2 4.1c-0.6 1.2-1.2 3.1-1.2 3.1 l-0.8 2.6L-190.3 36.2z"/><path fill="#FFFFFF" d="M-189.5 1.3c0.3 0 0.6 0.1 0.9 0.2l11.7 6.1c0.5 0.3 0.9 0.9 0.9 1.5v14c0 0.5-0.4 1.2-0.9 1.5l-6.1 3.1 c-0.5 0.2-1.2 0.7-1.7 1.1c0 0-1.9 1.5-3.3 4.2c-0.6 1.2-1.2 3.2-1.2 3.2c-0.2 0.5-0.3 1-0.3 1s-0.1-0.4-0.3-1c0 0-0.6-1.9-1.2-3.2 c-1.4-2.7-3.3-4.2-3.3-4.2c-0.4-0.3-1.2-0.8-1.7-1.1l-6.1-3.1c-0.5-0.2-0.9-0.9-0.9-1.5V9c0-0.6 0.4-1.2 0.9-1.5l11.7-6.1 C-190.1 1.3-189.8 1.3-189.5 1.3 M-189.5 0.3c-0.5 0-1 0.1-1.3 0.3l-11.7 6.1c-0.8 0.4-1.4 1.4-1.4 2.3v14c0 0.9 0.6 1.9 1.4 2.3 l6.1 3.1c0.4 0.2 1.1 0.7 1.5 1c0 0 1.7 1.4 3 3.9c0.6 1.1 1.1 3 1.1 3c0.4 1.3 0.5 1.7 1.2 1.7s0.9-0.4 1.2-1.7c0 0 0.6-1.8 1.1-3 c1.3-2.5 3-3.9 3-3.9c0.4-0.3 1.1-0.8 1.5-1l6.1-3.1c0.8-0.4 1.4-1.4 1.4-2.3V9c0-0.9-0.6-1.9-1.4-2.3l-11.7-6.1 C-188.5 0.4-189 0.3-189.5 0.3L-189.5 0.3z"/></g><g><path fill="#FFFFFF" d="M-179 21c0 0.6-0.4 1.2-0.9 1.4l-8.7 4.1c-0.5 0.2-1.3 0.2-1.8 0l-8.7-4.1c-0.5-0.2-0.9-0.9-0.9-1.4V11 c0-0.6 0.4-1.2 0.9-1.4l8.7-4.1c0.5-0.2 1.3-0.2 1.8 0l8.7 4.1c0.5 0.2 0.9 0.9 0.9 1.4V21z"/></g><path fill-rule="evenodd" clip-rule="evenodd" fill="#2D95BF" d="M-186.8 13.2c0.7 0 1.2-0.3 1.6-0.7c-0.5-0.4-1-0.6-1.6-0.6 c-0.6 0-1.2 0.2-1.6 0.6C-188 12.9-187.4 13.2-186.8 13.2z"/><circle fill-rule="evenodd" clip-rule="evenodd" fill="#2D95BF" cx="-186.8" cy="11" r="2.2"/><g><g><path fill-rule="evenodd" clip-rule="evenodd" fill="#2D95BF" d="M-190 15.9c-0.7 0.6-1.5 0.9-2.4 0.9s-1.8-0.4-2.4-0.9 c-0.7 0.6-1.1 1.5-1.1 2.5V22h7.1v-3.5C-188.9 17.5-189.4 16.6-190 15.9z"/></g><circle fill-rule="evenodd" clip-rule="evenodd" fill="#2D95BF" cx="-192.5" cy="13.2" r="2.7"/><g><g><path fill-rule="evenodd" clip-rule="evenodd" fill="#2D95BF" d="M-184.2 12.9c-0.6 0.8-1.5 1.3-2.6 1.3c-0.8 0-1.5-0.3-2.1-0.8 c0 0.6-0.2 1.2-0.6 1.8l0.1 0.1c0.9 0.9 1.4 2 1.4 3.3V19h4.9v-3.5C-183 14.4-183.5 13.5-184.2 12.9z"/></g></g></g><g><path fill="#2D95BF" d="M1234-477.5c-0.5-0.3-1.3-0.3-1.8 0L787-245.4c-0.5 0.3-0.9 0.9-0.9 1.5v526.5c0 0.6 0.4 1.2 0.9 1.5 l260.9 132.2c0.5 0.2 1.2 0.7 1.7 1.1c0 0 86.8 70.6 133.7 160.4c21.4 40.9 49.6 135.4 49.6 135.4c0.2 0.5 0.3 1 0.3 1 c0 0 0.1-0.4 0.3-1c0 0 28.2-94.4 49.6-135.4c46.9-89.8 133.7-160.4 133.7-160.4c0.4-0.3 1.2-0.8 1.7-1.1L1679.2 284 c0.5-0.2 0.9-0.9 0.9-1.5v-526.5c0-0.6-0.4-1.2-0.9-1.5L1234-477.5z"/></g><g><path fill="#FFFFFF" d="M1580.8 216.3c0 0.5-0.4 1.2-0.9 1.4L1234 382.5c-0.5 0.2-1.3 0.2-1.8 0L886.4 217.8 c-0.5-0.2-0.9-0.9-0.9-1.4V-179c0-0.6 0.4-1.2 0.9-1.4l345.9-164.7c0.5-0.2 1.3-0.2 1.8 0l345.9 164.7c0.5 0.2 0.9 0.9 0.9 1.4 V216.3z"/></g><path fill-rule="evenodd" clip-rule="evenodd" fill="#2D95BF" d="M1323.9-75.3c21.7 0 40.9-9.6 54.3-24.6 c-15-11.9-33.7-19.3-54.3-19.3s-39.3 7.4-54.3 19.3C1282.9-84.9 1302.2-75.3 1323.9-75.3z"/><circle fill-rule="evenodd" clip-rule="evenodd" fill="#2D95BF" cx="1323.9" cy="-148.5" r="73.2"/><g><g><path fill-rule="evenodd" clip-rule="evenodd" fill="#2D95BF" d="M1215.9 15.9c-21.6 19.2-49.8 31.2-80.9 31.2s-59.3-12-80.9-31.2 c-22.2 21.3-36.2 51.1-36.2 84.3v117.1H1252V100.3C1252 67.1 1238.1 37.2 1215.9 15.9z"/></g><path fill-rule="evenodd" clip-rule="evenodd" fill="#2D95BF" d="M1135-163.1c-48.5 0-87.8 39.3-87.8 87.8s39.3 87.8 87.8 87.8 c48.5 0 87.8-39.3 87.8-87.8S1183.5-163.1 1135-163.1z"/><g><g><path fill-rule="evenodd" clip-rule="evenodd" fill="#2D95BF" d="M1408.4-84.8c-19.4 25.7-49.9 42.6-84.5 42.6 c-26.4 0-50.1-10.2-68.7-26.2c-1.2 21.4-7.7 41.3-18.7 58.3l2.3 2.2c29.9 28.7 46.4 67.1 46.4 108.2V118h163.2V2.1 C1448.4-32.7 1432.7-63.5 1408.4-84.8z"/></g></g></g><g><path fill="#2D95BF" d="M-151.5 38c-0.4 0-0.4-0.4-0.6-1.1c-0.3-0.9-0.8-2.8-1.3-3.7c-1.4-2.7-2.5-3.8-4.1-4.7l-8.4-4.2V7.7l14-7.3 l14 7.3v16.6l-8 4.2c-1.6 0.9-2.3 1.9-3.7 4.6c-0.5 0.9-1 2.9-1.2 3.8C-151.1 37.5-151.1 38-151.5 38C-151.5 38-151.5 38-151.5 38z "/><path fill="#FFFFFF" d="M-151.5 1l13.5 7v16l-7.9 4c-1.8 1-2.6 2.1-4.1 4.9c-0.6 1.2-1.5 4.1-1.5 4.1h0h0h0c0 0-0.9-2.9-1.5-4.1 c-1.4-2.7-2.3-3.8-4.1-4.9l-7.9-4V8L-151.5 1 M-151.5-0.1l-0.5 0.2l-13.5 7l-0.5 0.3V8v16v0.6l0.5 0.3l7.9 4 c1.5 0.9 2.3 1.8 3.7 4.4c0.4 0.8 1 2.7 1.3 3.5c0.2 0.6 0.4 1.2 1.1 1.2c0 0 0 0 0 0c0.7 0 0.9-0.6 1.1-1.2 c0.3-0.8 0.8-2.6 1.3-3.5c1.4-2.6 2.1-3.6 3.7-4.4l7.9-4l0.5-0.3V24V8V7.4l-0.5-0.3l-13.5-7L-151.5-0.1L-151.5-0.1z"/></g><g><polygon fill="#FFFFFF" points="-141,22 -151.5,27 -162,22 -162,10 -151.5,5 -141,10"/></g><path fill-rule="evenodd" clip-rule="evenodd" fill="#2D95BF" d="M-148.8 13.2c0.7 0 1.2-0.3 1.6-0.7c-0.5-0.4-1-0.6-1.6-0.6 c-0.6 0-1.2 0.2-1.6 0.6C-150 12.9-149.4 13.2-148.8 13.2z"/><circle fill-rule="evenodd" clip-rule="evenodd" fill="#2D95BF" cx="-148.8" cy="11" r="2.2"/><g><g><path fill-rule="evenodd" clip-rule="evenodd" fill="#2D95BF" d="M-152 15.9c-0.7 0.6-1.5 0.9-2.4 0.9s-1.8-0.4-2.4-0.9 c-0.7 0.6-1.1 1.5-1.1 2.5V22h7.1v-3.5C-150.9 17.5-151.4 16.6-152 15.9z"/></g><circle fill-rule="evenodd" clip-rule="evenodd" fill="#2D95BF" cx="-154.5" cy="13.2" r="2.7"/><g><g><path fill-rule="evenodd" clip-rule="evenodd" fill="#2D95BF" d="M-146.2 12.9c-0.6 0.8-1.5 1.3-2.6 1.3c-0.8 0-1.5-0.3-2.1-0.8 c0 0.6-0.2 1.2-0.6 1.8l0.1 0.1c0.9 0.9 1.4 2 1.4 3.3V19h4.9v-3.5C-145 14.4-145.5 13.5-146.2 12.9z"/></g></g></g><g><path fill-rule="evenodd" clip-rule="evenodd" fill="#2D95BF" d="M-108.5 19.5v-4c0-2.2 1.8-4 4-4s4 1.8 4 4v4H-108.5z"/><path fill="#FFFFFF" d="M-104.5 12c1.9 0 3.5 1.6 3.5 3.5V19h-7v-3.5C-108 13.6-106.4 12-104.5 12 M-104.5 11c-2.5 0-4.5 2-4.5 4.5 V19v1h1h7h1v-1v-3.5C-100 13-102 11-104.5 11L-104.5 11z"/></g><path fill-rule="evenodd" clip-rule="evenodd" fill="#2D95BF" d="M-104.8 13.2c0.7 0 1.2-0.3 1.6-0.7c-0.5-0.4-1-0.6-1.6-0.6 s-1.2 0.2-1.6 0.6C-106 12.9-105.4 13.2-104.8 13.2z"/><circle fill-rule="evenodd" clip-rule="evenodd" fill="#2D95BF" cx="-104.8" cy="11" r="2.2"/><g><circle fill-rule="evenodd" clip-rule="evenodd" fill="#2BB673" cx="-104.8" cy="11" r="2.7"/><path fill="#FFFFFF" d="M-104.8 8.7c1.2 0 2.2 1 2.2 2.2c0 1.2-1 2.2-2.2 2.2s-2.2-1-2.2-2.2C-107 9.7-106 8.7-104.8 8.7 M-104.8 7.7c-1.8 0-3.2 1.4-3.2 3.2c0 1.8 1.4 3.2 3.2 3.2s3.2-1.4 3.2-3.2C-101.5 9.2-103 7.7-104.8 7.7L-104.8 7.7z"/></g><g><g><path fill-rule="evenodd" clip-rule="evenodd" fill="#2D95BF" d="M-108 15.9c-0.7 0.6-1.5 0.9-2.4 0.9c-0.9 0-1.8-0.4-2.4-0.9 c-0.7 0.6-1.1 1.5-1.1 2.5V22h7.1v-3.5C-106.9 17.5-107.4 16.6-108 15.9z"/></g><circle fill-rule="evenodd" clip-rule="evenodd" fill="#2D95BF" cx="-110.5" cy="13.2" r="2.7"/></g><g><path fill-rule="evenodd" clip-rule="evenodd" fill="#2D95BF" d="M-115.5-68.1l1-0.5V-73c0-1.2-0.5-2.3-1.4-3c-0.7 0.6-1.6 1-2.6 1 s-1.9-0.4-2.6-1c-0.8 0.7-1.4 1.8-1.4 3v1.2L-115.5-68.1L-115.5-68.1z"/></g><g><path fill="#4EBA6F" d="M13.5-56.5c-0.4 0-0.4-0.2-0.6-0.8c-0.3-0.9-0.8-2.7-1.3-3.5c-1.4-2.7-2.3-3.7-3.9-4.7l-7.2-4.2v-14.5 l13-7.3l13 7.3v14.5l-7.2 4.2c-1.6 0.9-2.4 1.9-3.9 4.7c-0.5 0.9-1 2.7-1.3 3.6C13.9-56.7 13.9-56.5 13.5-56.5 C13.5-56.5 13.5-56.5 13.5-56.5z"/><path fill="#FFFFFF" d="M13.5-91L26-84v14l-6.9 4c-1.8 1-2.6 2.1-4.1 4.9c-0.6 1.2-1.5 4.1-1.5 4.1l0 0h0l0 0c0 0-0.9-2.9-1.5-4.1 C10.6-63.8 9.7-65 7.9-66L1-70v-14L13.5-91 M13.5-92.1L13-91.9l-12.5 7L0-84.5v0.6v14v0.6l0.5 0.3l6.9 4c1.5 0.9 2.3 1.8 3.7 4.5 c0.4 0.8 1 2.7 1.3 3.5c0.2 0.6 0.4 1.2 1.1 1.2c0 0 0 0 0 0c0.7 0 0.9-0.6 1.1-1.2c0.3-0.8 0.8-2.6 1.3-3.5 c1.4-2.7 2.1-3.6 3.7-4.5l6.9-4l0.5-0.3V-70v-14v-0.6l-0.5-0.3l-12.5-7L13.5-92.1L13.5-92.1z"/></g><g><polygon fill="#FFFFFF" points="23,-72 13.5,-67 4,-72 4,-82 13.5,-87 23,-82"/></g><g><path fill="#F0C419" d="M48.5-56.5c-0.4 0-0.4-0.2-0.6-0.8c-0.3-0.9-0.8-2.7-1.3-3.5c-1.4-2.7-2.3-3.7-3.9-4.7l-7.2-4.2v-14.5 l13-7.3l13 7.3v14.5l-7.2 4.2c-1.6 0.9-2.4 1.9-3.9 4.7c-0.5 0.9-1 2.7-1.3 3.6C48.9-56.7 48.9-56.5 48.5-56.5 C48.5-56.5 48.5-56.5 48.5-56.5z"/><path fill="#FFFFFF" d="M48.5-91L61-84v14l-6.9 4c-1.8 1-2.6 2.1-4.1 4.9c-0.6 1.2-1.5 4.1-1.5 4.1l0 0h0l0 0c0 0-0.9-2.9-1.5-4.1 c-1.4-2.7-2.3-3.8-4.1-4.9L36-70v-14L48.5-91 M48.5-92.1L48-91.9l-12.5 7L35-84.5v0.6v14v0.6l0.5 0.3l6.9 4 c1.5 0.9 2.3 1.8 3.7 4.5c0.4 0.8 1 2.7 1.3 3.5c0.2 0.6 0.4 1.2 1.1 1.2c0 0 0 0 0 0c0.7 0 0.9-0.6 1.1-1.2 c0.3-0.8 0.8-2.6 1.3-3.5c1.4-2.7 2.1-3.6 3.7-4.5l6.9-4l0.5-0.3V-70v-14v-0.6l-0.5-0.3l-12.5-7L48.5-92.1L48.5-92.1z"/></g><g><polygon fill="#FFFFFF" points="58,-72 48.5,-67 39,-72 39,-82 48.5,-87 58,-82"/></g><path fill-rule="evenodd" clip-rule="evenodd" fill="#4EBA6F" d="M19.7-73.2c-1.7 0-4.3 0.1-5.6 0.9v-0.4v-6.5c0-0.6 1-1.8 5.6-1.8 V-73.2z M7.3-81.1c0.5 0 5.4 0.5 5.6 1.6c0 0.1 0 0.1 0 0.2v6.5v0.4c-1.4-0.8-3.9-0.9-5.6-0.9V-81.1z M13.5-79.5 c0-2.3-5.3-2.5-7.5-2.5v0.9v8.4v0.7h0.8h0.5v1c1.9 0 5.6-0.5 5.6 0.9h1.3c0-1.5 3.7-0.9 5.6-0.9v-1h1.1l0.2 0.1V-82 C18.7-82 13.5-81.7 13.5-79.5z"/><g><path fill="#4EBA6F" d="M13.5-10.5c-0.4 0-0.4-0.2-0.6-0.8c-0.3-0.9-0.8-2.7-1.3-3.5c-1.4-2.7-2.3-3.7-3.9-4.7l-7.2-4.2v-14.5 l13-7.3l13 7.3v14.5l-7.2 4.2c-1.6 0.9-2.4 1.9-3.9 4.7c-0.5 0.9-1 2.7-1.3 3.6C13.9-10.7 13.9-10.5 13.5-10.5 C13.5-10.5 13.5-10.5 13.5-10.5z"/><path fill="#FFFFFF" d="M13.5-45L26-38v14l-6.9 4c-1.8 1-2.6 2.1-4.1 4.9c-0.6 1.2-1.5 4.1-1.5 4.1l0 0h0l0 0c0 0-0.9-2.9-1.5-4.1 C10.6-17.8 9.7-19 7.9-20L1-24v-14L13.5-45 M13.5-46.1L13-45.9l-12.5 7L0-38.5v0.6v14v0.6l0.5 0.3l6.9 4c1.5 0.9 2.3 1.8 3.7 4.5 c0.4 0.8 1 2.7 1.3 3.5c0.2 0.6 0.4 1.2 1.1 1.2c0 0 0 0 0 0c0.7 0 0.9-0.6 1.1-1.2c0.3-0.8 0.8-2.6 1.3-3.5 c1.4-2.7 2.1-3.6 3.7-4.5l6.9-4l0.5-0.3V-24v-14v-0.6l-0.5-0.3l-12.5-7L13.5-46.1L13.5-46.1z"/></g><g><polygon fill="#FFFFFF" points="23,-26 13.5,-21 4,-26 4,-36 13.5,-41 23,-36"/></g><path fill-rule="evenodd" clip-rule="evenodd" fill="#4EBA6F" d="M19.7-27.2c-1.7 0-4.3 0.1-5.6 0.9v-0.4v-6.5c0-0.6 1-1.8 5.6-1.8 V-27.2z M7.3-35.1c0.5 0 5.4 0.5 5.6 1.6c0 0.1 0 0.1 0 0.2v6.5v0.4c-1.4-0.8-3.9-0.9-5.6-0.9V-35.1z M13.5-33.5 c0-2.3-5.3-2.5-7.5-2.5v0.9v8.4v0.7h0.8h0.5v1c1.9 0 5.6-0.5 5.6 0.9h1.3c0-1.5 3.7-0.9 5.6-0.9v-1h1.1l0.2 0.1V-36 C18.7-36 13.5-35.7 13.5-33.5z"/><path fill-rule="evenodd" clip-rule="evenodd" fill="#4EBA6F" d="M20.7 18.9c-1.7 0-4.3 0.1-5.6 0.9v-0.4v-6.5c0-0.6 1-1.8 5.6-1.8 V18.9z M8.3 11.1c0.5 0 5.4 0.5 5.6 1.6c0 0.1 0 0.1 0 0.2v6.5v0.4c-1.4-0.8-3.9-0.9-5.6-0.9V11.1z M14.5 12.7 c0-2.3-5.3-2.5-7.5-2.5V11v8.4v0.7h0.8h0.5v1c1.9 0 5.6-0.5 5.6 0.9h1.3c0-1.5 3.7-0.9 5.6-0.9v-1h1.1l0.2 0.1V10.1 C19.7 10.1 14.5 10.4 14.5 12.7z"/><g><path fill="#9FC419" d="M13.7 81.2c0 0-0.6-1.9-1.2-3.1c-1.4-2.6-3.1-4.1-3.2-4.1c-0.4-0.3-1.1-0.8-1.6-1l-6.1-3.1 C1 69.6 0.5 68.7 0.5 68V54c0-0.7 0.5-1.6 1.2-1.9L13.4 46c0.3-0.2 0.7-0.2 1.1-0.2s0.8 0.1 1.1 0.2l11.7 6.1 c0.6 0.3 1.2 1.2 1.2 1.9v14c0 0.7-0.5 1.6-1.2 1.9L21.2 73c-0.5 0.2-1.2 0.7-1.6 1c0 0-1.8 1.5-3.2 4.1c-0.6 1.2-1.2 3.1-1.2 3.1 L14.5 83L13.7 81.2z"/><path fill="#FFFFFF" d="M14.5 46.3c0.3 0 0.6 0.1 0.9 0.2l11.7 6.1c0.5 0.3 0.9 0.9 0.9 1.5v14c0 0.5-0.4 1.2-0.9 1.5L21 72.6 c-0.5 0.2-1.2 0.7-1.7 1.1c0 0-1.9 1.5-3.3 4.2c-0.6 1.2-1.2 3.2-1.2 3.2c-0.2 0.5-0.3 1-0.3 1s-0.1-0.4-0.3-1c0 0-0.6-1.9-1.2-3.2 c-1.4-2.7-3.3-4.2-3.3-4.2c-0.4-0.3-1.2-0.8-1.7-1.1l-6.1-3.1C1.4 69.2 1 68.5 1 68V54c0-0.6 0.4-1.2 0.9-1.5l11.7-6.1 C13.9 46.3 14.2 46.3 14.5 46.3 M14.5 45.3c-0.5 0-1 0.1-1.3 0.3L1.4 51.7C0.6 52.1 0 53.1 0 54v14c0 0.9 0.6 1.9 1.4 2.3l6.1 3.1 c0.4 0.2 1.1 0.7 1.5 1c0 0 1.7 1.4 3 3.9c0.6 1.1 1.1 3 1.1 3c0.4 1.3 0.5 1.7 1.2 1.7s0.9-0.4 1.2-1.7c0 0 0.6-1.8 1.1-3 c1.3-2.5 3-3.9 3-3.9c0.4-0.3 1.1-0.8 1.5-1l6.1-3.1c0.8-0.4 1.4-1.4 1.4-2.3V54c0-0.9-0.6-1.9-1.4-2.3l-11.7-6.1 C15.5 45.4 15 45.3 14.5 45.3L14.5 45.3z"/></g><g><path fill="#FFFFFF" d="M25 66c0 0.5-0.4 1.2-0.9 1.4l-8.7 4.1c-0.5 0.2-1.3 0.2-1.8 0l-8.7-4.1C4.4 67.2 4 66.5 4 66V56 c0-0.5 0.4-1.2 0.9-1.4l8.7-4.1c0.5-0.2 1.3-0.2 1.8 0l8.7 4.1c0.5 0.2 0.9 0.9 0.9 1.4V66z"/></g><path fill-rule="evenodd" clip-rule="evenodd" fill="#F0C419" d="M44-72.2c-1.4 0-2.5-1.1-2.5-2.5c0-1.4 1.1-2.5 2.5-2.5 c1.4 0 2.5 1.1 2.5 2.5C46.5-73.3 45.4-72.2 44-72.2z M41-74.7c0 1.7 1.4 3 3 3c1.7 0 3-1.4 3-3c0-1.7-1.4-3-3-3 C42.3-77.7 41-76.4 41-74.7z M52.9-72.2c-1.4 0-2.5-1.1-2.5-2.5s1.1-2.5 2.5-2.5c1.4 0 2.5 1.1 2.5 2.5S54.3-72.2 52.9-72.2z M49.9-74.7c0 1.7 1.4 3 3 3c1.7 0 3-1.4 3-3c0-1.7-1.4-3-3-3C51.2-77.7 49.9-76.4 49.9-74.7z M49.9-82.1c0.6 0 1.1-0.5 1.1-1.1 s-0.5-1.1-1.1-1.1c-0.6 0-1.1 0.5-1.1 1.1C48.7-82.6 49.3-82.1 49.9-82.1z M49.9-79.2h2.2c0.7 0 0.7-1.2 0-1.2h-1.9l-1.3-2 c0 0-0.3-0.3-0.8-0.3c0 0-0.4-0.1-0.7 0.3l-2.4 2.4c-0.1 0.2-0.2 0.4-0.2 0.6c0 0.4 0.3 0.7 0.6 0.8l2.5 1.4v2.6 c0 0.4 0.2 0.7 0.6 0.7c0.4 0 0.6-0.3 0.6-0.7v-3.2c0 0 0.1-0.5-0.5-0.8l-1.3-0.7l1.5-1.5l0.7 1.2C49.6-79.4 49.8-79.1 49.9-79.2z"/><g><path fill="#F0C419" d="M48.5-10.5c-0.4 0-0.4-0.2-0.6-0.8c-0.3-0.9-0.8-2.7-1.3-3.5c-1.4-2.7-2.3-3.7-3.9-4.7l-7.2-4.2v-14.5 l13-7.3l13 7.3v14.5l-7.2 4.2c-1.6 0.9-2.4 1.9-3.9 4.7c-0.5 0.9-1 2.7-1.3 3.6C48.9-10.7 48.9-10.5 48.5-10.5 C48.5-10.5 48.5-10.5 48.5-10.5z"/><path fill="#FFFFFF" d="M48.5-45L61-38v14l-6.9 4c-1.8 1-2.6 2.1-4.1 4.9c-0.6 1.2-1.5 4.1-1.5 4.1l0 0h0l0 0c0 0-0.9-2.9-1.5-4.1 c-1.4-2.7-2.3-3.8-4.1-4.9L36-24v-14L48.5-45 M48.5-46.1L48-45.9l-12.5 7L35-38.5v0.6v14v0.6l0.5 0.3l6.9 4 c1.5 0.9 2.3 1.8 3.7 4.5c0.4 0.8 1 2.7 1.3 3.5c0.2 0.6 0.4 1.2 1.1 1.2c0 0 0 0 0 0c0.7 0 0.9-0.6 1.1-1.2 c0.3-0.8 0.8-2.6 1.3-3.5c1.4-2.7 2.1-3.6 3.7-4.5l6.9-4l0.5-0.3V-24v-14v-0.6l-0.5-0.3l-12.5-7L48.5-46.1L48.5-46.1z"/></g><g><polygon fill="#FFFFFF" points="58,-26 48.5,-21 39,-26 39,-36 48.5,-41 58,-36"/></g><path fill-rule="evenodd" clip-rule="evenodd" fill="#F0C419" d="M44-26.2c-1.4 0-2.5-1.1-2.5-2.5s1.1-2.5 2.5-2.5 c1.4 0 2.5 1.1 2.5 2.5S45.4-26.2 44-26.2z M41-28.7c0 1.7 1.4 3 3 3c1.7 0 3-1.4 3-3s-1.4-3-3-3C42.3-31.7 41-30.4 41-28.7z M52.9-26.2c-1.4 0-2.5-1.1-2.5-2.5s1.1-2.5 2.5-2.5c1.4 0 2.5 1.1 2.5 2.5S54.3-26.2 52.9-26.2z M49.9-28.7c0 1.7 1.4 3 3 3 c1.7 0 3-1.4 3-3c0-1.7-1.4-3-3-3C51.2-31.7 49.9-30.4 49.9-28.7z M49.9-36.1c0.6 0 1.1-0.5 1.1-1.1s-0.5-1.1-1.1-1.1 c-0.6 0-1.1 0.5-1.1 1.1C48.7-36.6 49.3-36.1 49.9-36.1z M49.9-33.2h2.2c0.7 0 0.7-1.2 0-1.2h-1.9l-1.3-2c0 0-0.3-0.3-0.8-0.3 c0 0-0.4-0.1-0.7 0.3l-2.4 2.4c-0.1 0.2-0.2 0.4-0.2 0.6c0 0.4 0.3 0.7 0.6 0.8l2.5 1.4v2.6c0 0.4 0.2 0.7 0.6 0.7 c0.4 0 0.6-0.3 0.6-0.7v-3.2c0 0 0.1-0.5-0.5-0.8l-1.3-0.7l1.5-1.5l0.7 1.2C49.6-33.4 49.8-33.1 49.9-33.2z"/><path fill-rule="evenodd" clip-rule="evenodd" fill="#F0C419" d="M46 21.4c-1.4 0-2.5-1.1-2.5-2.5c0-1.4 1.1-2.5 2.5-2.5 c1.4 0 2.5 1.1 2.5 2.5C48.5 20.3 47.4 21.4 46 21.4z M43 18.9c0 1.7 1.4 3 3 3c1.7 0 3-1.4 3-3c0-1.7-1.4-3-3-3 C44.4 15.9 43 17.3 43 18.9z M55 21.4c-1.4 0-2.5-1.1-2.5-2.5c0-1.4 1.1-2.5 2.5-2.5c1.4 0 2.5 1.1 2.5 2.5 C57.4 20.3 56.3 21.4 55 21.4z M51.9 19c0 1.7 1.4 3 3 3c1.7 0 3-1.4 3-3c0-1.7-1.4-3-3-3C53.3 15.9 51.9 17.3 51.9 19z M51.9 11.6 c0.6 0 1.1-0.5 1.1-1.1c0-0.6-0.5-1.1-1.1-1.1c-0.6 0-1.1 0.5-1.1 1.1C50.8 11.1 51.3 11.6 51.9 11.6z M52 14.5h2.2 c0.7 0 0.7-1.2 0-1.2h-1.9l-1.3-2c0 0-0.3-0.3-0.8-0.3c0 0-0.4-0.1-0.7 0.3l-2.4 2.4c-0.1 0.2-0.2 0.4-0.2 0.6 c0 0.4 0.3 0.7 0.6 0.8l2.5 1.4v2.6c0 0.4 0.2 0.7 0.6 0.7c0.4 0 0.6-0.3 0.6-0.7v-3.2c0 0 0.1-0.5-0.5-0.8l-1.3-0.7l1.5-1.5 l0.7 1.2C51.6 14.3 51.8 14.5 52 14.5z"/><g><path fill="#F89C1C" d="M83.5-56.5c-0.4 0-0.4-0.2-0.6-0.8c-0.3-0.9-0.8-2.7-1.3-3.5c-1.4-2.7-2.3-3.7-3.9-4.7l-7.2-4.2v-14.5 l13-7.3l13 7.3v14.5l-7.2 4.2c-1.6 0.9-2.4 1.9-3.9 4.7c-0.5 0.9-1 2.7-1.3 3.6C83.9-56.7 83.9-56.5 83.5-56.5 C83.5-56.5 83.5-56.5 83.5-56.5z"/><path fill="#FFFFFF" d="M83.5-91L96-84v14l-6.9 4c-1.8 1-2.6 2.1-4.1 4.9c-0.6 1.2-1.5 4.1-1.5 4.1l0 0h0l0 0c0 0-0.9-2.9-1.5-4.1 c-1.4-2.7-2.3-3.8-4.1-4.9L71-70v-14L83.5-91 M83.5-92.1L83-91.9l-12.5 7L70-84.5v0.6v14v0.6l0.5 0.3l6.9 4 c1.5 0.9 2.3 1.8 3.7 4.5c0.4 0.8 1 2.7 1.3 3.5c0.2 0.6 0.4 1.2 1.1 1.2c0 0 0 0 0 0c0.7 0 0.9-0.6 1.1-1.2 c0.3-0.8 0.8-2.6 1.3-3.5c1.4-2.7 2.1-3.6 3.7-4.5l6.9-4l0.5-0.3V-70v-14v-0.6l-0.5-0.3l-12.5-7L83.5-92.1L83.5-92.1z"/></g><g><polygon fill="#FFFFFF" points="93,-72 83.5,-67 74,-72 74,-82 83.5,-87 93,-82"/></g><g><g><path fill-rule="evenodd" clip-rule="evenodd" fill="#F89C1C" d="M86.9-74.5c1.7-2 5-5.9 4.4-6.4c-0.6-0.5-4.2 3-6.1 4.9 L86.9-74.5z"/><path fill-rule="evenodd" clip-rule="evenodd" fill="#F89C1C" d="M84.9-75.7c-0.4 0.4-0.7 0.7-0.7 0.7l1.7 1.6 c0 0 0.2-0.3 0.6-0.7L84.9-75.7z"/></g><path fill-rule="evenodd" clip-rule="evenodd" fill="#F89C1C" d="M80.6-70c5.6 0.6 4.8-2.8 4.8-2.8l-1.7-1.6c0 0-1.2 0.1-1.5 1 C81.5-71.6 81.9-69.9 80.6-70z"/></g><path fill="#F89C1C" d="M76.5-80.8l1.6 4.2c0-0.1-0.5-0.2-0.8-0.1c-0.9 0.3-1.1 1.1-0.9 1.5c0.2 0.6 0.9 1.2 1.8 0.8 c0.9-0.3 0.9-1.3 0.8-1.8l-1.2-3.2l3.3-2l1.2 3.2c0-0.1-0.5-0.2-0.8-0.1c-0.9 0.3-1.1 1.1-0.9 1.5c0.2 0.6 0.9 1.2 1.8 0.8 c0.9-0.3 0.9-1.3 0.8-1.8l-2.1-5.5L76.5-80.8z"/><g><path fill="#F89C1C" d="M83.5-10.5c-0.4 0-0.4-0.2-0.6-0.8c-0.3-0.9-0.8-2.7-1.3-3.5c-1.4-2.7-2.3-3.7-3.9-4.7l-7.2-4.2v-14.5 l13-7.3l13 7.3v14.5l-7.2 4.2c-1.6 0.9-2.4 1.9-3.9 4.7c-0.5 0.9-1 2.7-1.3 3.6C83.9-10.7 83.9-10.5 83.5-10.5 C83.5-10.5 83.5-10.5 83.5-10.5z"/><path fill="#FFFFFF" d="M83.5-45L96-38v14l-6.9 4c-1.8 1-2.6 2.1-4.1 4.9c-0.6 1.2-1.5 4.1-1.5 4.1l0 0h0l0 0c0 0-0.9-2.9-1.5-4.1 c-1.4-2.7-2.3-3.8-4.1-4.9L71-24v-14L83.5-45 M83.5-46.1L83-45.9l-12.5 7L70-38.5v0.6v14v0.6l0.5 0.3l6.9 4 c1.5 0.9 2.3 1.8 3.7 4.5c0.4 0.8 1 2.7 1.3 3.5c0.2 0.6 0.4 1.2 1.1 1.2c0 0 0 0 0 0c0.7 0 0.9-0.6 1.1-1.2 c0.3-0.8 0.8-2.6 1.3-3.5c1.4-2.7 2.1-3.6 3.7-4.5l6.9-4l0.5-0.3V-24v-14v-0.6l-0.5-0.3l-12.5-7L83.5-46.1L83.5-46.1z"/></g><g><polygon fill="#FFFFFF" points="93,-26 83.5,-21 74,-26 74,-36 83.5,-41 93,-36"/></g><g><g><g><path fill-rule="evenodd" clip-rule="evenodd" fill="#F89C1C" d="M86.9-28.5c1.7-2 5-5.9 4.4-6.4c-0.6-0.5-4.2 3-6.1 4.9 L86.9-28.5z"/><path fill-rule="evenodd" clip-rule="evenodd" fill="#F89C1C" d="M84.9-29.7c-0.4 0.4-0.7 0.7-0.7 0.7l1.7 1.6 c0 0 0.2-0.3 0.6-0.7L84.9-29.7z"/></g><path fill-rule="evenodd" clip-rule="evenodd" fill="#F89C1C" d="M80.6-24c5.6 0.6 4.8-2.8 4.8-2.8l-1.7-1.6c0 0-1.2 0.1-1.5 1 C81.5-25.6 81.9-23.9 80.6-24z"/></g><path fill="#F89C1C" d="M76.5-34.8l1.6 4.2c0-0.1-0.5-0.2-0.8-0.1c-0.9 0.3-1.1 1.1-0.9 1.5c0.2 0.6 0.9 1.2 1.8 0.8 c0.9-0.3 0.9-1.3 0.8-1.8l-1.2-3.2l3.3-2l1.2 3.2c0-0.1-0.5-0.2-0.8-0.1c-0.9 0.3-1.1 1.1-0.9 1.5c0.2 0.6 0.9 1.2 1.8 0.8 c0.9-0.3 0.9-1.3 0.8-1.8l-2.1-5.5L76.5-34.8z"/></g><g><g><g><path fill-rule="evenodd" clip-rule="evenodd" fill="#F89C1C" d="M89.5 18.5c1.7-2 5-5.9 4.4-6.4c-0.6-0.5-4.2 3-6.1 4.9 L89.5 18.5z"/><path fill-rule="evenodd" clip-rule="evenodd" fill="#F89C1C" d="M87.6 17.2c-0.4 0.4-0.7 0.7-0.7 0.7l1.7 1.6 c0 0 0.2-0.3 0.6-0.7L87.6 17.2z"/></g><path fill-rule="evenodd" clip-rule="evenodd" fill="#F89C1C" d="M83.3 22.9c5.6 0.6 4.8-2.8 4.8-2.8l-1.7-1.6c0 0-1.2 0.1-1.5 1 C84.1 21.3 84.5 23.1 83.3 22.9z"/></g><path fill="#F89C1C" d="M79.2 12.2l1.6 4.2c0-0.1-0.5-0.2-0.8-0.1c-0.9 0.3-1.1 1.1-0.9 1.5c0.2 0.6 0.9 1.2 1.8 0.8 c0.9-0.3 0.9-1.3 0.8-1.8l-1.2-3.2l3.3-2l1.2 3.2c0-0.1-0.5-0.2-0.8-0.1c-0.9 0.3-1.1 1.1-0.9 1.5c0.2 0.6 0.9 1.2 1.8 0.8 c0.9-0.3 0.9-1.3 0.8-1.8l-2.1-5.5L79.2 12.2z"/></g><g><path fill="#F15A5A" d="M118.5-56.5c-0.4 0-0.4-0.2-0.6-0.8c-0.3-0.9-0.8-2.7-1.3-3.5c-1.4-2.7-2.3-3.7-3.9-4.7l-7.2-4.2v-14.5 l13-7.3l13 7.3v14.5l-7.2 4.2c-1.6 0.9-2.4 1.9-3.9 4.7c-0.5 0.9-1 2.7-1.3 3.6C118.9-56.7 118.9-56.5 118.5-56.5 C118.5-56.5 118.5-56.5 118.5-56.5z"/><path fill="#FFFFFF" d="M118.5-91l12.5 7v14l-6.9 4c-1.8 1-2.6 2.1-4.1 4.9c-0.6 1.2-1.5 4.1-1.5 4.1l0 0h0l0 0 c0 0-0.9-2.9-1.5-4.1c-1.4-2.7-2.3-3.8-4.1-4.9l-6.9-4v-14L118.5-91 M118.5-92.1l-0.5 0.3l-12.5 7l-0.5 0.3v0.6v14v0.6l0.5 0.3 l6.9 4c1.5 0.9 2.3 1.8 3.7 4.5c0.4 0.8 1 2.7 1.3 3.5c0.2 0.6 0.4 1.2 1.1 1.2c0 0 0 0 0 0c0.7 0 0.9-0.6 1.1-1.2 c0.3-0.8 0.8-2.6 1.3-3.5c1.4-2.7 2.1-3.6 3.7-4.5l6.9-4l0.5-0.3V-70v-14v-0.6l-0.5-0.3l-12.5-7L118.5-92.1L118.5-92.1z"/></g><g><polygon fill="#FFFFFF" points="128,-72 118.5,-67 109,-72 109,-82 118.5,-87 128,-82"/></g><g><circle fill="#F15A5A" cx="113.4" cy="-81.5" r="1.1"/><path fill="#F15A5A" d="M123.7-78.8c0.4 0.6 0.9 1.3 0.9 1.4l0.3 0.4l0.3-0.4l1.8-2.1l-0.7-0.3l-1.4 1.6c-0.5-0.8-1.1-1.7-1.2-1.9 l0 0c-0.1-0.1-0.2-0.2-0.3-0.2l-0.9-0.2c-0.1 0-0.3 0-0.4 0.1c0 0-0.1 0.1-0.1 0.1c-0.6 0.3-1.5 0.6-1.5 0.6l-2 0.7l-2-0.7 c0 0-1.1-0.5-1.7-0.7c0 0 0 0 0 0c-0.1-0.1-0.2-0.1-0.4-0.1l-0.9 0.2c-0.1 0-0.2 0.1-0.3 0.2l0 0c-0.1 0.2-0.7 1.1-1.2 1.9 l-1.4-1.6l-0.7 0.3l1.8 2.1l0.3 0.4l0.3-0.4c0.1-0.1 0.6-0.8 1-1.4l0.5 2.1l-1.1 2.6v0.1v0.1l0.4 2.4l-0.7 0.5h1.1l0.5-0.1 l-0.1-0.4l-0.4-2.4l1-2.4c0 0 0 0 0 0l0.9-0.2c0.1 0 0.2-0.1 0.3-0.2c0 0 0 0 0 0c0 0 0-0.2 0-0.4l-0.5-2.3l1.1 0.5 c0 0 2.2 0.6 2.2 0.6l0.1-0.3l0.1 0.3c0 0 2.2-0.7 2.2-0.7l0.9-0.4l-0.4 1.9l0 0l-3.5 2.6c0 0 0.9 0.4 2.1 0.7l-0.9 2.4l0 0v0.1 l0 0l0-0.1l-0.6 0.4l-0.6-0.4v0l0 0l-0.9-2.7l0 0l0 0l-1.1-2c-0.1 0.1-0.2 0.2-0.4 0.3l-0.2 0.1l1.1 2l0 0l0 0.1l0 0l1 2.7l0.1 0.2 h0.3h0.7h0.6h0.7h0.3l0.1-0.2l0.9-2.6c0.9 0.2 1.9 0.3 2.9 0.1l0 0.1l-0.4 2.4l-0.1 0.4l0.4 0.1h1.1l-0.7-0.5l0.4-2.4V-74v0 c0.2-0.1 0.5-0.1 0.7-0.2c-0.6-0.8-1.2-1.4-1.6-1.9l-0.2-0.6L123.7-78.8z M117.6-72L117.6-72l0.1 0.1L117.6-72z M119.4-71.9 L119.4-71.9L119.4-71.9L119.4-71.9z"/><circle fill="#F15A5A" cx="123.7" cy="-81.5" r="1.1"/></g><g><path fill="#F15A5A" d="M118.5-10.5c-0.4 0-0.4-0.2-0.6-0.8c-0.3-0.9-0.8-2.7-1.3-3.5c-1.4-2.7-2.3-3.7-3.9-4.7l-7.2-4.2v-14.5 l13-7.3l13 7.3v14.5l-7.2 4.2c-1.6 0.9-2.4 1.9-3.9 4.7c-0.5 0.9-1 2.7-1.3 3.6C118.9-10.7 118.9-10.5 118.5-10.5 C118.5-10.5 118.5-10.5 118.5-10.5z"/><path fill="#FFFFFF" d="M118.5-45l12.5 7v14l-6.9 4c-1.8 1-2.6 2.1-4.1 4.9c-0.6 1.2-1.5 4.1-1.5 4.1l0 0h0l0 0 c0 0-0.9-2.9-1.5-4.1c-1.4-2.7-2.3-3.8-4.1-4.9l-6.9-4v-14L118.5-45 M118.5-46.1l-0.5 0.3l-12.5 7l-0.5 0.3v0.6v14v0.6l0.5 0.3 l6.9 4c1.5 0.9 2.3 1.8 3.7 4.5c0.4 0.8 1 2.7 1.3 3.5c0.2 0.6 0.4 1.2 1.1 1.2c0 0 0 0 0 0c0.7 0 0.9-0.6 1.1-1.2 c0.3-0.8 0.8-2.6 1.3-3.5c1.4-2.7 2.1-3.6 3.7-4.5l6.9-4l0.5-0.3V-24v-14v-0.6l-0.5-0.3l-12.5-7L118.5-46.1L118.5-46.1z"/></g><g><polygon fill="#FFFFFF" points="128,-26 118.5,-21 109,-26 109,-36 118.5,-41 128,-36"/></g><g><circle fill="#F15A5A" cx="113.4" cy="-35.5" r="1.1"/><path fill="#F15A5A" d="M123.7-32.8c0.4 0.6 0.9 1.3 0.9 1.4l0.3 0.4l0.3-0.4l1.8-2.1l-0.7-0.3l-1.4 1.6c-0.5-0.8-1.1-1.7-1.2-1.9 l0 0c-0.1-0.1-0.2-0.2-0.3-0.2l-0.9-0.2c-0.1 0-0.3 0-0.4 0.1c0 0-0.1 0.1-0.1 0.1c-0.6 0.3-1.5 0.6-1.5 0.6l-2 0.7l-2-0.7 c0 0-1.1-0.5-1.7-0.7c0 0 0 0 0 0c-0.1-0.1-0.2-0.1-0.4-0.1l-0.9 0.2c-0.1 0-0.2 0.1-0.3 0.2l0 0c-0.1 0.2-0.7 1.1-1.2 1.9 l-1.4-1.6l-0.7 0.3l1.8 2.1l0.3 0.4l0.3-0.4c0.1-0.1 0.6-0.8 1-1.4l0.5 2.1l-1.1 2.6v0.1v0.1l0.4 2.4l-0.7 0.5h1.1l0.5-0.1 l-0.1-0.4l-0.4-2.4l1-2.4c0 0 0 0 0 0l0.9-0.2c0.1 0 0.2-0.1 0.3-0.2c0 0 0 0 0 0c0 0 0-0.2 0-0.4l-0.5-2.3l1.1 0.5 c0 0 2.2 0.6 2.2 0.6l0.1-0.3l0.1 0.3c0 0 2.2-0.7 2.2-0.7l0.9-0.4l-0.4 1.9l0 0l-3.5 2.6c0 0 0.9 0.4 2.1 0.7l-0.9 2.4l0 0v0.1 l0 0l0-0.1l-0.6 0.4l-0.6-0.4v0l0 0l-0.9-2.7l0 0l0 0l-1.1-2c-0.1 0.1-0.2 0.2-0.4 0.3l-0.2 0.1l1.1 2l0 0l0 0.1l0 0l1 2.7l0.1 0.2 h0.3h0.7h0.6h0.7h0.3l0.1-0.2l0.9-2.6c0.9 0.2 1.9 0.3 2.9 0.1l0 0.1l-0.4 2.4l-0.1 0.4l0.4 0.1h1.1l-0.7-0.5l0.4-2.4V-28v0 c0.2-0.1 0.5-0.1 0.7-0.2c-0.6-0.8-1.2-1.4-1.6-1.9l-0.2-0.6L123.7-32.8z M117.6-26L117.6-26l0.1 0.1L117.6-26z M119.4-25.9 L119.4-25.9L119.4-25.9L119.4-25.9z"/><circle fill="#F15A5A" cx="123.7" cy="-35.5" r="1.1"/></g><g><circle fill="#F15A5A" cx="117.4" cy="11.1" r="1.1"/><path fill="#F15A5A" d="M127.7 13.8c0.4 0.6 0.9 1.3 0.9 1.4l0.3 0.4l0.3-0.4l1.8-2.1l-0.7-0.3l-1.4 1.6c-0.5-0.8-1.1-1.7-1.2-1.9 l0 0c-0.1-0.1-0.2-0.2-0.3-0.2l-0.9-0.2c-0.1 0-0.3 0-0.4 0.1c0 0-0.1 0.1-0.1 0.1c-0.6 0.3-1.5 0.6-1.5 0.6l-2 0.7l-2-0.7 c0 0-1.1-0.5-1.7-0.7c0 0 0 0 0 0c-0.1-0.1-0.2-0.1-0.4-0.1l-0.9 0.2c-0.1 0-0.2 0.1-0.3 0.2l0 0c-0.1 0.2-0.7 1.1-1.2 1.9 l-1.4-1.6l-0.7 0.3l1.8 2.1l0.3 0.4l0.3-0.4c0.1-0.1 0.6-0.8 1-1.4l0.5 2.1l-1.1 2.6v0.1v0.1l0.4 2.4l-0.7 0.5h1.1l0.5-0.1 l-0.1-0.4l-0.4-2.4l1-2.4c0 0 0 0 0 0l0.9-0.2c0.1 0 0.2-0.1 0.3-0.2c0 0 0 0 0 0c0 0 0-0.2 0-0.4l-0.5-2.3l1.1 0.5 c0 0 2.2 0.6 2.2 0.6l0.1-0.3l0.1 0.3c0 0 2.2-0.7 2.2-0.7l0.9-0.4l-0.4 1.9l0 0l-3.5 2.6c0 0 0.9 0.4 2.1 0.7l-0.9 2.4l0 0v0.1 l0 0l0-0.1l-0.6 0.4l-0.6-0.4v0l0 0l-0.9-2.7l0 0l0 0l-1.1-2c-0.1 0.1-0.2 0.2-0.4 0.3l-0.2 0.1l1.1 2l0 0l0 0.1l0 0l1 2.7l0.1 0.2 h0.3h0.7h0.6h0.7h0.3l0.1-0.2l0.9-2.6c0.9 0.2 1.9 0.3 2.9 0.1l0 0.1l-0.4 2.4l-0.1 0.4l0.4 0.1h1.1l-0.7-0.5l0.4-2.4v-0.1v0 c0.2-0.1 0.5-0.1 0.7-0.2c-0.6-0.8-1.2-1.4-1.6-1.9l-0.2-0.6L127.7 13.8z M121.6 20.6L121.6 20.6l0.1 0.1L121.6 20.6z M123.4 20.7 L123.4 20.7L123.4 20.7L123.4 20.7z"/><circle fill="#F15A5A" cx="127.7" cy="11.1" r="1.1"/></g><g><path fill="#955BA5" d="M153.5-56.5c-0.4 0-0.4-0.2-0.6-0.8c-0.3-0.9-0.8-2.7-1.3-3.5c-1.4-2.7-2.3-3.7-3.9-4.7l-7.2-4.2v-14.5 l13-7.3l13 7.3v14.5l-7.2 4.2c-1.6 0.9-2.4 1.9-3.9 4.7c-0.5 0.9-1 2.7-1.3 3.6C153.9-56.7 153.9-56.5 153.5-56.5 C153.5-56.5 153.5-56.5 153.5-56.5z"/><path fill="#FFFFFF" d="M153.5-91l12.5 7v14l-6.9 4c-1.8 1-2.6 2.1-4.1 4.9c-0.6 1.2-1.5 4.1-1.5 4.1l0 0h0l0 0 c0 0-0.9-2.9-1.5-4.1c-1.4-2.7-2.3-3.8-4.1-4.9l-6.9-4v-14L153.5-91 M153.5-92.1l-0.5 0.3l-12.5 7l-0.5 0.3v0.6v14v0.6l0.5 0.3 l6.9 4c1.5 0.9 2.3 1.8 3.7 4.5c0.4 0.8 1 2.7 1.3 3.5c0.2 0.6 0.4 1.2 1.1 1.2c0 0 0 0 0 0c0.7 0 0.9-0.6 1.1-1.2 c0.3-0.8 0.8-2.6 1.3-3.5c1.4-2.7 2.1-3.6 3.7-4.5l6.9-4l0.5-0.3V-70v-14v-0.6l-0.5-0.3l-12.5-7L153.5-92.1L153.5-92.1z"/></g><g><polygon fill="#FFFFFF" points="163,-72 153.5,-67 144,-72 144,-82 153.5,-87 163,-82"/></g><g><path fill="#955BA5" d="M156-83c-1.2 0-2.2 1.5-2.2 3c0 1.1 0.6 2 1.4 2.3l-0.2 6.2c0 0.6 0.5 1.1 1.1 1.1c0.6 0 1.1-0.5 1.1-1.1 l-0.2-6.2c0.8-0.3 1.3-1.1 1.3-2.3h0C158.2-81.5 157.2-83 156-83z"/><path fill="#955BA5" d="M151.6-80h-0.7v-2.8h-0.7v2.8h-0.7v-2.8h-0.7v3.5v0.7c0 0.4 0.5 0.7 0.9 0.7h0l-0.2 6.3 c0 0.6 0.5 1.1 1.1 1.1c0.6 0 1.1-0.5 1.1-1.1l-0.2-6.3c0.4 0 0.9-0.3 0.9-0.7v-0.7v-3.5h-0.7V-80z"/></g><g><path fill="#955BA5" d="M153.5-10.5c-0.4 0-0.4-0.2-0.6-0.8c-0.3-0.9-0.8-2.7-1.3-3.5c-1.4-2.7-2.3-3.7-3.9-4.7l-7.2-4.2v-14.5 l13-7.3l13 7.3v14.5l-7.2 4.2c-1.6 0.9-2.4 1.9-3.9 4.7c-0.5 0.9-1 2.7-1.3 3.6C153.9-10.7 153.9-10.5 153.5-10.5 C153.5-10.5 153.5-10.5 153.5-10.5z"/><path fill="#FFFFFF" d="M153.5-45l12.5 7v14l-6.9 4c-1.8 1-2.6 2.1-4.1 4.9c-0.6 1.2-1.5 4.1-1.5 4.1l0 0h0l0 0 c0 0-0.9-2.9-1.5-4.1c-1.4-2.7-2.3-3.8-4.1-4.9l-6.9-4v-14L153.5-45 M153.5-46.1l-0.5 0.3l-12.5 7l-0.5 0.3v0.6v14v0.6l0.5 0.3 l6.9 4c1.5 0.9 2.3 1.8 3.7 4.5c0.4 0.8 1 2.7 1.3 3.5c0.2 0.6 0.4 1.2 1.1 1.2c0 0 0 0 0 0c0.7 0 0.9-0.6 1.1-1.2 c0.3-0.8 0.8-2.6 1.3-3.5c1.4-2.7 2.1-3.6 3.7-4.5l6.9-4l0.5-0.3V-24v-14v-0.6l-0.5-0.3l-12.5-7L153.5-46.1L153.5-46.1z"/></g><g><polygon fill="#FFFFFF" points="163,-26 153.5,-21 144,-26 144,-36 153.5,-41 163,-36"/></g><g><path fill="#955BA5" d="M156-37c-1.2 0-2.2 1.5-2.2 3c0 1.1 0.6 2 1.4 2.3l-0.2 6.2c0 0.6 0.5 1.1 1.1 1.1c0.6 0 1.1-0.5 1.1-1.1 l-0.2-6.2c0.8-0.3 1.3-1.1 1.3-2.3h0C158.2-35.5 157.2-37 156-37z"/><path fill="#955BA5" d="M151.6-34h-0.7v-2.8h-0.7v2.8h-0.7v-2.8h-0.7v3.5v0.7c0 0.4 0.5 0.7 0.9 0.7h0l-0.2 6.3 c0 0.6 0.5 1.1 1.1 1.1c0.6 0 1.1-0.5 1.1-1.1l-0.2-6.3c0.4 0 0.9-0.3 0.9-0.7v-0.7v-3.5h-0.7V-34z"/></g><g><path fill="#955BA5" d="M161 10c-1.2 0-2.2 1.5-2.2 3c0 1.1 0.6 2 1.4 2.3l-0.2 6.2c0 0.6 0.5 1.1 1.1 1.1c0.6 0 1.1-0.5 1.1-1.1 l-0.2-6.2c0.8-0.3 1.3-1.1 1.3-2.3h0C163.2 11.5 162.2 10 161 10z"/><path fill="#955BA5" d="M156.6 13h-0.7v-2.8h-0.7V13h-0.7v-2.8h-0.7v3.5v0.7c0 0.4 0.5 0.7 0.9 0.7h0l-0.2 6.3 c0 0.6 0.5 1.1 1.1 1.1c0.6 0 1.1-0.5 1.1-1.1l-0.2-6.3c0.4 0 0.9-0.3 0.9-0.7v-0.7v-3.5h-0.7V13z"/></g><g><path fill="#6756B2" d="M157.7 81.2c0 0-0.6-1.9-1.2-3.1c-1.4-2.6-3.1-4.1-3.2-4.1c-0.4-0.3-1.1-0.8-1.6-1l-6.1-3.1 c-0.7-0.3-1.2-1.2-1.2-1.9V54c0-0.7 0.5-1.6 1.2-1.9l11.7-6.1c0.3-0.2 0.7-0.2 1.1-0.2s0.8 0.1 1.1 0.2l11.7 6.1 c0.6 0.3 1.2 1.2 1.2 1.9v14c0 0.7-0.5 1.6-1.2 1.9l-6.2 3.1c-0.5 0.2-1.2 0.7-1.6 1c0 0-1.8 1.5-3.2 4.1c-0.6 1.2-1.2 3.1-1.2 3.1 l-0.8 1.8L157.7 81.2z"/><path fill="#FFFFFF" d="M158.5 46.3c0.3 0 0.6 0.1 0.9 0.2l11.7 6.1c0.5 0.3 0.9 0.9 0.9 1.5v14c0 0.5-0.4 1.2-0.9 1.5l-6.1 3.1 c-0.5 0.2-1.2 0.7-1.7 1.1c0 0-1.9 1.5-3.3 4.2c-0.6 1.2-1.2 3.2-1.2 3.2c-0.2 0.5-0.3 1-0.3 1s-0.1-0.4-0.3-1c0 0-0.6-1.9-1.2-3.2 c-1.4-2.7-3.3-4.2-3.3-4.2c-0.4-0.3-1.2-0.8-1.7-1.1l-6.1-3.1c-0.5-0.2-0.9-0.9-0.9-1.5V54c0-0.6 0.4-1.2 0.9-1.5l11.7-6.1 C157.9 46.3 158.2 46.3 158.5 46.3 M158.5 45.3c-0.5 0-1 0.1-1.3 0.3l-11.7 6.1c-0.8 0.4-1.4 1.4-1.4 2.3v14c0 0.9 0.6 1.9 1.4 2.3 l6.1 3.1c0.4 0.2 1.1 0.7 1.5 1c0 0 1.7 1.4 3 3.9c0.6 1.1 1.1 3 1.1 3c0.4 1.3 0.5 1.7 1.2 1.7s0.9-0.4 1.2-1.7c0 0 0.6-1.8 1.1-3 c1.3-2.5 3-3.9 3-3.9c0.4-0.3 1.1-0.8 1.5-1l6.1-3.1c0.8-0.4 1.4-1.4 1.4-2.3V54c0-0.9-0.6-1.9-1.4-2.3l-11.7-6.1 C159.5 45.4 159 45.3 158.5 45.3L158.5 45.3z"/></g><g><path fill="#FFFFFF" d="M169 66c0 0.5-0.4 1.2-0.9 1.4l-8.7 4.1c-0.5 0.2-1.3 0.2-1.8 0l-8.7-4.1c-0.5-0.2-0.9-0.9-0.9-1.4V56 c0-0.5 0.4-1.2 0.9-1.4l8.7-4.1c0.5-0.2 1.3-0.2 1.8 0l8.7 4.1c0.5 0.2 0.9 0.9 0.9 1.4V66z"/></g><rect x="-52" y="-10" fill="#231F20" width="14" height="10"/><g><path fill="#9FC419" d="M9.9 62.3c-0.4 1.8-1 3.3-2.4 4.7h4c1.4-1.4 2-2.9 2.4-4.7H9.9z"/><path fill="#9FC419" d="M14.8 62.3c0.4 1.8 1 3.4 2.4 4.7h0.3h3.9c-1.4-1.4-2-2.9-2.4-4.7H14.8z"/><g><path fill="#9FC419" d="M16.9 54.5c0 0 0 1.8 0 1.8c-0.1 0-0.2 0-0.3 0v0.3c1.3 0 2.1-0.5 2.1-1.8C17.8 55.2 17.6 54.8 16.9 54.5 L16.9 54.5z"/></g><g><path fill="#9FC419" d="M14.8 56.6v-0.8c0.5-0.5 1.3 0 1.8 0v-2.3c-0.7-0.4-1.2-0.6-2.1-0.3h-0.3l0 3.4L14.8 56.6L14.8 56.6z"/><path fill="#9FC419" d="M14.9 57.1h-0.9c-0.9 2.1-2.7 2.8-7.1 4.3h8.9h0.9H22C17.7 59.9 15.9 59.2 14.9 57.1L14.9 57.1z"/></g></g><path fill="#6756B2" d="M156.3 66.9l-1.6 1.1h3.3h1.1h3.2l-1.6-1.1H159v-3.3l6-6h-4.7l0.3-1.1l0.1 0c0.6 0 1.1-0.5 1.1-1.1 c0-0.4-0.3-0.8-0.6-1l0.1-0.4l-0.5-0.1l-0.1 0.5c-0.6 0-1 0.5-1 1.1c0 0.4 0.2 0.7 0.4 0.9l-0.3 1.3H152l6 6v3.3L156.3 66.9 L156.3 66.9z M158 62.6l-2.7-2.7h3.9l-0.7 2.5l0.5 0.1l0.7-2.6h2.1l-2.7 2.7H158z"/></svg>