<?xml version="1.0" encoding="utf-8"?>
<!-- Generator: Adobe Illustrator 16.2.1, SVG Export Plug-In . SVG Version: 6.00 Build 0)  -->
<svg version="1.2" baseProfile="tiny" id="Layer_1" xmlns="http://www.w3.org/2000/svg" xmlns:xlink="http://www.w3.org/1999/xlink"
	 x="0px" y="0px" width="40px" height="40px" viewBox="0 0 40 40" xml:space="preserve">
<g>
	<path fill="#FFFFFF" d="M19.662,39.955c-10.092,0-18.311-8.218-18.311-18.314c0-9.259,6.805-16.97,15.909-18.148v-3.538
		l0.902,0.517l9.444,5.452l0.898,0.52l-0.896,0.521l-9.446,5.461l-0.902,0.519V9.807c-5.57,1.12-9.687,6.089-9.687,11.833
		c0,6.665,5.423,12.086,12.088,12.086c6.666,0,12.087-5.421,12.087-12.086c0-1.984-0.491-3.954-1.436-5.702l-0.279-0.516l0.51-0.289
		l4.365-2.501l0.531-0.302l0.295,0.534c1.466,2.678,2.24,5.711,2.24,8.776C37.976,31.737,29.763,39.955,19.662,39.955z"/>
</g>
</svg>
