<svg xmlns="http://www.w3.org/2000/svg" xmlns:xlink="http://www.w3.org/1999/xlink" version="1.1" x="0px" y="0px" width="37px" height="9px" viewBox="0 0 29 38" enable-background="new 0 0 29 38" xml:space="preserve"><g><g><path fill="#2D95BF" d="M13.7 36.2c0 0-0.6-1.9-1.2-3.1C11.2 30.5 9.4 29 9.4 29c-0.4-0.3-1.1-0.8-1.6-1l-6.1-3.1 c-0.7-0.3-1.2-1.2-1.2-1.9V8.8c0-0.7 0.5-1.6 1.2-1.9l11.7-6.2c0.3-0.2 0.7-0.2 1.1-0.2s0.8 0.1 1.1 0.2l11.7 6.2 c0.6 0.3 1.2 1.2 1.2 1.9v14.1c0 0.7-0.5 1.6-1.2 1.9l-6.2 3.1c-0.5 0.2-1.2 0.7-1.6 1c0 0-1.8 1.5-3.2 4.1 c-0.6 1.2-1.2 3.1-1.2 3.1L14.5 38L13.7 36.2z"/><path fill="#FFFFFF" d="M14.5 1c0.3 0 0.6 0.1 0.9 0.2l11.7 6.2C27.6 7.6 28 8.3 28 8.8v14.1c0 0.6-0.4 1.2-0.9 1.5L21 27.5 c-0.5 0.3-1.2 0.7-1.7 1.1c0 0-1.9 1.5-3.3 4.3c-0.6 1.2-1.2 3.2-1.2 3.2c-0.2 0.5-0.3 1-0.3 1s-0.1-0.4-0.3-1 c0 0-0.6-1.9-1.2-3.2c-1.4-2.7-3.3-4.3-3.3-4.3c-0.4-0.3-1.2-0.8-1.7-1.1l-6.1-3.1C1.4 24.1 1 23.4 1 22.9V8.8 c0-0.6 0.4-1.2 0.9-1.5l11.7-6.2C13.9 1.1 14.2 1 14.5 1 M14.5 0c-0.5 0-1 0.1-1.3 0.3L1.4 6.5C0.6 6.9 0 7.9 0 8.8v14.1 c0 0.9 0.6 1.9 1.4 2.4l6.1 3.1c0.4 0.2 1.1 0.7 1.5 1c0 0 1.7 1.5 3 3.9c0.6 1.1 1.1 3 1.1 3c0.4 1.3 0.5 1.7 1.2 1.7 s0.9-0.4 1.2-1.7c0 0 0.6-1.9 1.1-3c1.3-2.5 3-3.9 3-3.9c0.4-0.3 1.1-0.8 1.5-1l6.1-3.1c0.8-0.4 1.4-1.4 1.4-2.4V8.8 c0-0.9-0.6-1.9-1.4-2.4L15.8 0.3C15.5 0.1 15 0 14.5 0L14.5 0z"/></g><path fill="#FFFFFF" d="M25 20.9c0 0.6-0.4 1.2-0.9 1.4l-8.7 4.2c-0.5 0.2-1.3 0.2-1.8 0l-8.7-4.2C4.4 22.1 4 21.4 4 20.9V10.8 c0-0.6 0.4-1.2 0.9-1.4l8.7-4.2c0.5-0.2 1.3-0.2 1.8 0l8.7 4.2c0.5 0.2 0.9 0.9 0.9 1.4V20.9z"/><ellipse fill-rule="evenodd" clip-rule="evenodd" fill="#2D95BF" cx="17.2" cy="10.8" rx="2.2" ry="2.2"/><g><g><path fill-rule="evenodd" clip-rule="evenodd" fill="#2D95BF" d="M14 15.8c-0.7 0.6-1.5 0.9-2.4 0.9c-0.9 0-1.8-0.4-2.4-0.9 C8.4 16.4 8 17.3 8 18.3v3.6h7.1v-3.6C15.1 17.3 14.6 16.4 14 15.8z"/></g><ellipse fill-rule="evenodd" clip-rule="evenodd" fill="#2D95BF" cx="11.5" cy="13" rx="2.7" ry="2.7"/><g><path fill-rule="evenodd" clip-rule="evenodd" fill="#2D95BF" d="M19.8 12.7c-0.6 0.8-1.5 1.3-2.6 1.3c-0.8 0-1.5-0.3-2.1-0.8 c0 0.6-0.2 1.3-0.6 1.8l0.1 0.1c0.9 0.9 1.4 2 1.4 3.3v0.5H21v-3.5C21 14.3 20.5 13.3 19.8 12.7z"/></g></g></g></svg>